<?xml version="1.0" encoding="utf-8"?>
<!-- Generator: Adobe Illustrator 23.1.1, SVG Export Plug-In . SVG Version: 6.00 Build 0)  -->
<svg version="1.1" id="Layer_1" xmlns="http://www.w3.org/2000/svg" xmlns:xlink="http://www.w3.org/1999/xlink" x="0px" y="0px"
	 viewBox="0 0 878 632" style="enable-background:new 0 0 878 632;" xml:space="preserve">
<style type="text/css">
	.st0{display:none;}
	.st1{display:inline;fill:#3D52BC;}
	.st2{fill:#DAECFD;}
	.st3{fill:#A6B2C7;}
	.st4{fill:#3A3E42;}
	.st5{fill:#6BCAD0;}
	.st6{fill:#2C3ACF;}
	.st7{fill:#FFFFFF;}
</style>
<g id="bg">
	<g class="st0">
		<rect x="-11" class="st1" width="890.7" height="632"/>
	</g>
	<g>
		<path class="st2" d="M48.1,302.2c17,122.1,137.8,130.3,222.3,212.7c84.4,82.4,174.8,94.7,246.7,54.3
			c72-40.4,146.8-179.4,107.9-330.1c-19.7-76.3-66.9-177.8-212.4-209C250.6-4.7,28.2,159.6,48.1,302.2z"/>
	</g>
	<g>
		<path class="st3" d="M459,533.9c72-18.2,110.1-53.5,139.2-96.6c30.5-45.2,74.8-79.9,117.6-110.8c26.5-19.1,54.1-36.4,82.6-51.8
			c14.8-8,29.9-15.5,45.2-22.5c4.8-2.2,34.3-10.7,34.4-17.2c-1,73.4,0,192.9,0,289.3c0,174.7-3.1,93.1-43.9,116.1H-20
			c-0.2-6.2,81.6-82.3,197.4-92C331.2,535.5,376,554.3,459,533.9z"/>
	</g>
</g>
<g>
	<path class="st4" d="M633.5,544.9c0,1.6-0.6,2.9-1.8,4s-2.5,1.6-4.1,1.6c-1.7,0-3.1-0.5-4.2-1.6c-1-1.1-1.6-2.4-1.6-4v-53.5
		c0-1.6,0.6-2.9,1.7-4c1.1-1.1,2.5-1.6,4.3-1.6c1.5,0,2.8,0.5,3.9,1.6c1.1,1.1,1.7,2.4,1.7,4L633.5,544.9L633.5,544.9z"/>
	<path class="st4" d="M674.1,485.8c3.2,0,6.2,0.9,9,2.8s5.1,4.3,6.8,7.5c1.7,3.1,2.6,6.7,2.6,10.5s-0.9,7.3-2.6,10.5
		c-1.7,3.1-4,5.7-6.8,7.5c-2.8,1.9-5.8,2.8-9,2.8h-17l0.9-1.7v19.2c0,1.6-0.5,2.9-1.5,4s-2.3,1.6-3.9,1.6c-1.5,0-2.8-0.5-3.8-1.6
		s-1.5-2.4-1.5-4v-53.5c0-1.6,0.5-2.9,1.6-4s2.4-1.6,4-1.6L674.1,485.8L674.1,485.8z M674.1,516.9c1.2,0,2.3-0.5,3.4-1.5
		c1.1-1,2-2.3,2.8-3.8c0.7-1.6,1.1-3.2,1.1-5s-0.4-3.5-1.1-5c-0.7-1.5-1.7-2.8-2.8-3.7c-1.1-1-2.3-1.4-3.4-1.4h-17.2l1.1-1.7v23.6
		l-1-1.5H674.1z"/>
	<path class="st4" d="M709,550.6c-1.7,0-3.1-0.5-4.2-1.6c-1.1-1.1-1.6-2.4-1.6-4v-53.5c0-1.6,0.5-2.9,1.6-4s2.4-1.6,4-1.6h30.1
		c1.6,0,2.9,0.5,4,1.5s1.6,2.3,1.6,3.9c0,1.4-0.5,2.6-1.6,3.6s-2.4,1.6-4,1.6h-25l0.8-1.1V514l-0.6-1.2h20.6c1.6,0,2.9,0.5,4,1.5
		s1.6,2.3,1.6,3.9c0,1.4-0.5,2.6-1.6,3.6s-2.4,1.6-4,1.6h-20.8l0.8-0.8V545c0,1.6-0.6,2.9-1.7,4C711.9,550,710.5,550.6,709,550.6z"
		/>
	<path class="st4" d="M775.5,551.5c-4.3,0-8.2-0.5-11.7-1.6s-6.8-3-9.9-5.7c-0.8-0.7-1.4-1.4-1.9-2.3c-0.4-0.9-0.6-1.7-0.6-2.6
		c0-1.4,0.5-2.7,1.5-3.7c1-1.1,2.3-1.6,3.8-1.6c1.2,0,2.2,0.4,3.1,1.1c2.3,1.9,4.7,3.4,7,4.3c2.3,1,5.2,1.5,8.6,1.5
		c2.3,0,4.4-0.4,6.3-1.1s3.5-1.7,4.6-2.9c1.2-1.2,1.8-2.6,1.8-4.1c0-1.9-0.6-3.4-1.7-4.7s-2.8-2.4-5.1-3.3c-2.3-0.9-5.2-1.6-8.7-2.1
		c-3.3-0.5-6.3-1.2-8.8-2.3c-2.5-1-4.6-2.3-6.3-3.9c-1.7-1.6-3-3.4-3.8-5.6c-0.9-2.1-1.3-4.5-1.3-7.2c0-4,1-7.4,3.1-10.3
		c2.1-2.8,4.9-5,8.4-6.5s7.4-2.2,11.7-2.2c4,0,7.7,0.6,11.1,1.8c3.4,1.2,6.2,2.7,8.4,4.6c1.8,1.4,2.7,3.1,2.7,4.9
		c0,1.4-0.5,2.6-1.6,3.7c-1,1.1-2.3,1.7-3.7,1.7c-0.9,0-1.8-0.3-2.5-0.8c-1-0.9-2.3-1.7-4-2.5s-3.4-1.4-5.3-1.9
		c-1.8-0.5-3.6-0.8-5.2-0.8c-2.7,0-4.9,0.3-6.7,1s-3.2,1.6-4.1,2.8c-0.9,1.2-1.4,2.5-1.4,4.1c0,1.9,0.5,3.4,1.6,4.6s2.6,2.2,4.7,2.9
		c2,0.7,4.5,1.3,7.3,1.9c3.7,0.7,7,1.5,9.8,2.4s5.1,2.1,7,3.6c1.8,1.4,3.2,3.3,4.2,5.5c0.9,2.2,1.4,4.9,1.4,8c0,4-1.1,7.5-3.3,10.4
		s-5.1,5.1-8.7,6.7C783.6,550.7,779.7,551.5,775.5,551.5z"/>
</g>
<g id="ipfs">
	<g>
		<path class="st5" d="M235.9,421.7c-0.2,0-0.4-0.1-0.6-0.2L132,347.4c-0.4-0.3-0.6-0.9-0.2-1.4c0.3-0.4,0.9-0.6,1.4-0.2l103.4,74.1
			c0.4,0.3,0.6,0.9,0.2,1.4C236.6,421.6,236.3,421.7,235.9,421.7z"/>
	</g>
	<g>
		<path class="st5" d="M235,422.1l-1-120.7c0-0.6,0.4-1,1-1l0,0c0.5,0,1,0.4,1,1l1,118.1l163.6-47.6c0.5-0.2,1.1,0.2,1.2,0.7
			c0.2,0.5-0.2,1.1-0.7,1.2L235,422.1z"/>
	</g>
	<g>
		<path class="st5" d="M534.9,429.3c-0.1,0-0.3,0-0.4-0.1l-134.1-55.6c0,0,0,0-0.1,0s-0.2-0.1-0.3-0.2l0,0c-0.1-0.1-0.2-0.2-0.2-0.4
			l0,0l0,0c0-0.1-0.1-0.3,0-0.4l0,0c0-0.1,0-0.2,0.1-0.3c0,0,0,0,0-0.1l75.6-138.6l-82.9-132.3c-0.3-0.5-0.2-1.1,0.3-1.4
			s1.1-0.2,1.4,0.3l81.1,129.3l28.3-111.4c0.1-0.5,0.7-0.9,1.2-0.7c0.5,0.1,0.9,0.7,0.7,1.2l-28.5,112.3c-0.1,0.3-0.2,0.5-0.4,0.6
			l1.2,1.9l-0.3,0.5L402.2,372l133.1,55.2c0.5,0.2,0.8,0.8,0.5,1.3C535.7,429.1,535.3,429.3,534.9,429.3z"/>
	</g>
	<g>
		<path class="st5" d="M234.1,303.1L223.7,185c0-0.6,0.4-1,0.9-1.1c0.6,0,1,0.4,1.1,0.9l10.1,114.6l123.4-87.2
			c0.5-0.3,1.1-0.2,1.4,0.2c0.3,0.5,0.2,1.1-0.2,1.4L234.1,303.1z"/>
	</g>
	<g id="logo_10_">
		<g>
			<g>
				<g>
					
						<ellipse transform="matrix(0.979 -0.2041 0.2041 0.979 -80.9018 56.9827)" class="st6" cx="235.8" cy="420.7" rx="42.9" ry="42.9"/>
				</g>
			</g>
		</g>
		<g>
			<g>
				<g>
					<g>
						<g>
							<path class="st7" d="M262.3,434.3l-13.2-30.8c-0.2-0.5,0-1.2,0.6-1.4c0.5-0.2,1.2,0,1.4,0.6l13.2,30.8c0.2,0.5,0,1.2-0.6,1.4
								c-0.1,0-0.3,0.1-0.4,0.1C262.9,435,262.5,434.7,262.3,434.3z"/>
						</g>
					</g>
				</g>
				<g>
					<g>
						<g>
							<path class="st7" d="M235,434.2c-0.6-0.2-0.7-0.9-0.5-1.4l14.7-30.1c0.2-0.6,0.9-0.7,1.4-0.5c0.6,0.2,0.7,0.9,0.5,1.4
								l-14.7,30.1c-0.1,0.5-0.5,0.7-1,0.6C235.4,434.4,235.2,434.3,235,434.2z"/>
						</g>
					</g>
				</g>
				<g>
					<g>
						<g>
							<path class="st7" d="M234.5,433.7l-13.2-30.8c-0.2-0.5,0-1.2,0.6-1.4c0.5-0.2,1.2,0,1.4,0.6l13.2,30.8c0.2,0.5,0,1.2-0.6,1.4
								c-0.1,0-0.3,0.1-0.4,0.1C235.1,434.3,234.6,434.1,234.5,433.7z"/>
						</g>
					</g>
				</g>
				<g>
					<g>
						<g>
							<path class="st7" d="M207.1,433.6c-0.6-0.2-0.7-0.9-0.5-1.4l14.7-30.1c0.2-0.6,0.9-0.7,1.4-0.5c0.6,0.2,0.7,0.9,0.5,1.4
								l-14.7,30.1c-0.1,0.5-0.5,0.7-1,0.6C207.5,433.7,207.4,433.6,207.1,433.6z"/>
						</g>
					</g>
				</g>
			</g>
			<g>
				<g>
					<g>
						
							<ellipse transform="matrix(2.308166e-02 -0.9997 0.9997 2.308166e-02 -177.7906 688.543)" class="st7" cx="263.4" cy="435.2" rx="4.1" ry="4.2"/>
					</g>
				</g>
			</g>
			<g>
				<g>
					<g>
						
							<ellipse transform="matrix(2.308166e-02 -0.9997 0.9997 2.308166e-02 -204.5535 660.0858)" class="st7" cx="235.5" cy="434.7" rx="4.1" ry="4.2"/>
					</g>
				</g>
			</g>
			<g>
				<g>
					<g>
						
							<ellipse transform="matrix(2.308166e-02 -0.9997 0.9997 2.308166e-02 -231.0156 631.5527)" class="st7" cx="207.6" cy="434" rx="4.1" ry="4.2"/>
					</g>
				</g>
			</g>
		</g>
	</g>
	<g id="logo_9_">
		<g>
			<g>
				<g>
					<ellipse class="st6" cx="403.7" cy="372.6" rx="42.9" ry="42.9"/>
				</g>
			</g>
		</g>
		<g>
			<g>
				<g>
					<g>
						<g>
							<path class="st7" d="M430.2,386.2L417,355.4c-0.2-0.5,0-1.2,0.6-1.4c0.5-0.2,1.2,0,1.4,0.6l13.2,30.8c0.2,0.5,0,1.2-0.6,1.4
								c-0.1,0-0.3,0.1-0.4,0.1C430.8,386.9,430.4,386.6,430.2,386.2z"/>
						</g>
					</g>
				</g>
				<g>
					<g>
						<g>
							<path class="st7" d="M402.9,386.1c-0.6-0.2-0.7-0.9-0.5-1.4l14.7-30.1c0.2-0.6,0.9-0.7,1.4-0.5c0.6,0.2,0.7,0.9,0.5,1.4
								l-14.7,30.1c-0.1,0.5-0.5,0.7-1,0.6C403.3,386.3,403.2,386.2,402.9,386.1z"/>
						</g>
					</g>
				</g>
				<g>
					<g>
						<g>
							<path class="st7" d="M402.4,385.6l-13.2-30.8c-0.2-0.5,0-1.2,0.6-1.4c0.5-0.2,1.2,0,1.4,0.6l13.2,30.8c0.2,0.5,0,1.2-0.6,1.4
								c-0.1,0-0.3,0.1-0.4,0.1C403.1,386.2,402.6,386,402.4,385.6z"/>
						</g>
					</g>
				</g>
				<g>
					<g>
						<g>
							<path class="st7" d="M375.1,385.5c-0.6-0.2-0.7-0.9-0.5-1.4l14.7-30.1c0.2-0.6,0.9-0.7,1.4-0.5c0.6,0.2,0.7,0.9,0.5,1.4
								L376.5,385c-0.1,0.5-0.5,0.7-1,0.6C375.4,385.6,375.3,385.5,375.1,385.5z"/>
						</g>
					</g>
				</g>
			</g>
			<g>
				<g>
					<g>
						
							<ellipse transform="matrix(2.308166e-02 -0.9997 0.9997 2.308166e-02 34.2654 809.4679)" class="st7" cx="431.3" cy="387.2" rx="4.1" ry="4.2"/>
					</g>
				</g>
			</g>
			<g>
				<g>
					<g>
						
							<ellipse transform="matrix(2.308166e-02 -0.9997 0.9997 2.308166e-02 7.6045 780.9151)" class="st7" cx="403.4" cy="386.6" rx="4.1" ry="4.2"/>
					</g>
				</g>
			</g>
			<g>
				<g>
					<g>
						
							<ellipse transform="matrix(2.308166e-02 -0.9997 0.9997 2.308166e-02 -18.8597 752.3843)" class="st7" cx="375.5" cy="385.8" rx="4.1" ry="4.2"/>
					</g>
				</g>
			</g>
		</g>
	</g>
	<g id="logo_8_">
		<g>
			<g>
				<g>
					<ellipse class="st6" cx="355.9" cy="223.1" rx="36.9" ry="36.9"/>
				</g>
			</g>
		</g>
		<g>
			<g>
				<g>
					<g>
						<g>
							<path class="st7" d="M379.9,232.1l-14.3-25c-0.2-0.4-0.1-1,0.4-1.3c0.4-0.2,1-0.1,1.3,0.4l14.3,25c0.2,0.4,0.1,1-0.4,1.3
								c-0.1,0-0.3,0.1-0.3,0.1C380.4,232.6,380.1,232.4,379.9,232.1z"/>
						</g>
					</g>
				</g>
				<g>
					<g>
						<g>
							<path class="st7" d="M356.5,234.7c-0.5-0.1-0.7-0.7-0.6-1.2l9.6-27.2c0.1-0.5,0.7-0.7,1.2-0.6c0.5,0.1,0.7,0.7,0.6,1.2
								l-9.6,27.2c-0.1,0.4-0.4,0.6-0.8,0.6C356.8,234.8,356.7,234.7,356.5,234.7z"/>
						</g>
					</g>
				</g>
				<g>
					<g>
						<g>
							<path class="st7" d="M356,234.3l-14.3-25c-0.2-0.4-0.1-1,0.4-1.3c0.4-0.2,1-0.1,1.3,0.4l14.3,25c0.2,0.4,0.1,1-0.4,1.3
								c-0.1,0-0.3,0.1-0.3,0.1C356.6,234.7,356.2,234.6,356,234.3z"/>
						</g>
					</g>
				</g>
				<g>
					<g>
						<g>
							<path class="st7" d="M332.6,236.9c-0.5-0.1-0.7-0.7-0.6-1.2l9.6-27.2c0.1-0.5,0.7-0.7,1.2-0.6c0.5,0.1,0.7,0.7,0.6,1.2
								l-9.6,27.2c-0.1,0.4-0.4,0.6-0.8,0.6C332.9,236.9,332.8,236.9,332.6,236.9z"/>
						</g>
					</g>
				</g>
			</g>
			<g>
				<g>
					<g>
						
							<ellipse transform="matrix(0.9959 -9.018324e-02 9.018324e-02 0.9959 -19.442 35.2986)" class="st7" cx="380.9" cy="232.8" rx="3.6" ry="3.5"/>
					</g>
				</g>
			</g>
			<g>
				<g>
					<g>
						
							<ellipse transform="matrix(0.9959 -9.018324e-02 9.018324e-02 0.9959 -19.7378 33.1522)" class="st7" cx="357" cy="235" rx="3.6" ry="3.5"/>
					</g>
				</g>
			</g>
			<g>
				<g>
					<g>
						
							<ellipse transform="matrix(0.9959 -9.018324e-02 9.018324e-02 0.9959 -20.0246 31.0055)" class="st7" cx="333.1" cy="237.1" rx="3.6" ry="3.5"/>
					</g>
				</g>
			</g>
		</g>
	</g>
	<g id="logo_7_">
		<g>
			<g>
				<g>
					
						<ellipse transform="matrix(0.9669 -0.255 0.255 0.9669 -39.1742 63.6257)" class="st6" cx="225.8" cy="182.9" rx="32.9" ry="32.9"/>
				</g>
			</g>
		</g>
		<g>
			<g>
				<g>
					<g>
						<g>
							<path class="st7" d="M246.7,192.3l-11.4-23.1c-0.2-0.4-0.1-0.9,0.4-1.1c0.4-0.2,0.9-0.1,1.1,0.4l11.4,23.1
								c0.2,0.4,0.1,0.9-0.4,1.1c-0.1,0-0.2,0.1-0.3,0.1C247.2,192.8,246.9,192.6,246.7,192.3z"/>
						</g>
					</g>
				</g>
				<g>
					<g>
						<g>
							<path class="st7" d="M225.8,193.3c-0.5-0.1-0.6-0.7-0.5-1.1l10.1-23.7c0.1-0.5,0.7-0.6,1.1-0.5c0.5,0.1,0.6,0.7,0.5,1.1
								l-10.1,23.7c-0.1,0.4-0.4,0.5-0.7,0.5C226,193.4,225.9,193.4,225.8,193.3z"/>
						</g>
					</g>
				</g>
				<g>
					<g>
						<g>
							<path class="st7" d="M225.3,192.9L214,169.8c-0.2-0.4-0.1-0.9,0.4-1.1c0.4-0.2,0.9-0.1,1.1,0.4l11.4,23.1
								c0.2,0.4,0.1,0.9-0.4,1.1c-0.1,0-0.2,0.1-0.3,0.1C225.9,193.4,225.5,193.2,225.3,192.9z"/>
						</g>
					</g>
				</g>
				<g>
					<g>
						<g>
							<path class="st7" d="M204.4,194c-0.5-0.1-0.6-0.7-0.5-1.1l10.1-23.7c0.1-0.5,0.7-0.6,1.1-0.5c0.5,0.1,0.6,0.7,0.5,1.1
								l-10.1,23.7c-0.1,0.4-0.4,0.5-0.7,0.5C204.6,194,204.5,194,204.4,194z"/>
						</g>
					</g>
				</g>
			</g>
			<g>
				<g>
					<g>
						
							<ellipse transform="matrix(0.9996 -2.922485e-02 2.922485e-02 0.9996 -5.5348 7.3187)" class="st7" cx="247.6" cy="193" rx="3.2" ry="3.1"/>
					</g>
				</g>
			</g>
			<g>
				<g>
					<g>
						
							<ellipse transform="matrix(0.9996 -2.922485e-02 2.922485e-02 0.9996 -5.5615 6.6935)" class="st7" cx="226.2" cy="193.6" rx="3.2" ry="3.1"/>
					</g>
				</g>
			</g>
			<g>
				<g>
					<g>
						
							<ellipse transform="matrix(0.9996 -2.922485e-02 2.922485e-02 0.9996 -5.5881 6.0684)" class="st7" cx="204.8" cy="194.2" rx="3.2" ry="3.1"/>
					</g>
				</g>
			</g>
		</g>
	</g>
	<g id="logo_6_">
		<g>
			<g>
				<g>
					<ellipse class="st6" cx="235.6" cy="296.3" rx="37.9" ry="37.9"/>
				</g>
			</g>
		</g>
		<g>
			<g>
				<g>
					<g>
						<g>
							<path class="st7" d="M259.1,308.3l-11.7-27.2c-0.2-0.4,0-1.1,0.5-1.3c0.4-0.2,1.1,0,1.3,0.5l11.7,27.2c0.2,0.4,0,1.1-0.5,1.3
								c-0.1,0-0.3,0.1-0.4,0.1C259.6,308.9,259.3,308.6,259.1,308.3z"/>
						</g>
					</g>
				</g>
				<g>
					<g>
						<g>
							<path class="st7" d="M234.9,308.2c-0.5-0.2-0.7-0.8-0.5-1.3l13-26.7c0.2-0.5,0.8-0.7,1.3-0.5s0.7,0.8,0.5,1.3l-13,26.7
								c-0.1,0.4-0.5,0.6-0.8,0.6C235.2,308.3,235.1,308.3,234.9,308.2z"/>
						</g>
					</g>
				</g>
				<g>
					<g>
						<g>
							<path class="st7" d="M234.4,307.7l-11.7-27.2c-0.2-0.4,0-1.1,0.5-1.3c0.4-0.2,1.1,0,1.3,0.5l11.7,27.2c0.2,0.4,0,1.1-0.5,1.3
								c-0.1,0-0.3,0.1-0.4,0.1C235,308.3,234.6,308.1,234.4,307.7z"/>
						</g>
					</g>
				</g>
				<g>
					<g>
						<g>
							<path class="st7" d="M210.2,307.6c-0.5-0.2-0.7-0.8-0.5-1.3l13-26.7c0.2-0.5,0.8-0.7,1.3-0.5s0.7,0.8,0.5,1.3l-13,26.7
								c-0.1,0.4-0.5,0.6-0.8,0.6C210.6,307.8,210.5,307.7,210.2,307.6z"/>
						</g>
					</g>
				</g>
			</g>
			<g>
				<g>
					<g>
						
							<ellipse transform="matrix(2.308166e-02 -0.9997 0.9997 2.308166e-02 -55.0824 561.9467)" class="st7" cx="260" cy="309.2" rx="3.6" ry="3.7"/>
					</g>
				</g>
			</g>
			<g>
				<g>
					<g>
						
							<ellipse transform="matrix(2.308166e-02 -0.9997 0.9997 2.308166e-02 -78.5609 536.6443)" class="st7" cx="235.3" cy="308.5" rx="3.6" ry="3.7"/>
					</g>
				</g>
			</g>
			<g>
				<g>
					<g>
						
							<ellipse transform="matrix(2.308166e-02 -0.9997 0.9997 2.308166e-02 -102.1552 511.4282)" class="st7" cx="210.6" cy="308" rx="3.6" ry="3.7"/>
					</g>
				</g>
			</g>
		</g>
	</g>
	<g id="logo_5_">
		<g>
			<g>
				<g>
					<ellipse class="st6" cx="128.9" cy="341.1" rx="34" ry="34"/>
				</g>
			</g>
		</g>
		<g>
			<g>
				<g>
					<g>
						<g>
							<path class="st7" d="M152.3,344.8l-17.6-19.9c-0.3-0.3-0.3-0.9,0.1-1.2c0.3-0.3,0.9-0.3,1.2,0.1l17.6,19.9
								c0.3,0.3,0.3,0.9-0.1,1.2c-0.1,0-0.2,0.1-0.3,0.2C152.9,345.1,152.5,345,152.3,344.8z"/>
						</g>
					</g>
				</g>
				<g>
					<g>
						<g>
							<path class="st7" d="M131.7,351.5c-0.5,0-0.8-0.5-0.7-0.9l3.6-26.3c0-0.5,0.5-0.8,0.9-0.7c0.5,0,0.8,0.5,0.7,0.9l-3.6,26.3
								c0,0.4-0.2,0.6-0.6,0.7C132,351.5,131.9,351.5,131.7,351.5z"/>
						</g>
					</g>
				</g>
				<g>
					<g>
						<g>
							<path class="st7" d="M131.1,351.2l-17.6-19.9c-0.3-0.3-0.3-0.9,0.1-1.2c0.3-0.3,0.9-0.3,1.2,0.1l17.6,19.9
								c0.3,0.3,0.3,0.9-0.1,1.2c-0.1,0-0.2,0.1-0.3,0.2C131.8,351.5,131.4,351.5,131.1,351.2z"/>
						</g>
					</g>
				</g>
				<g>
					<g>
						<g>
							<path class="st7" d="M110.6,357.9c-0.5,0-0.8-0.5-0.7-0.9l3.6-26.3c0-0.5,0.5-0.8,0.9-0.7c0.5,0,0.8,0.5,0.7,0.9l-3.6,26.3
								c0,0.4-0.2,0.6-0.6,0.7C110.9,357.9,110.8,357.9,110.6,357.9z"/>
						</g>
					</g>
				</g>
			</g>
			<g>
				<g>
					<g>
						
							<ellipse transform="matrix(0.9567 -0.291 0.291 0.9567 -93.8171 59.5482)" class="st7" cx="153.3" cy="345.2" rx="3.3" ry="3.2"/>
					</g>
				</g>
			</g>
			<g>
				<g>
					<g>
						
							<ellipse transform="matrix(0.9567 -0.291 0.291 0.9567 -96.6228 53.6907)" class="st7" cx="132.2" cy="351.7" rx="3.3" ry="3.2"/>
					</g>
				</g>
			</g>
			<g>
				<g>
					<g>
						<ellipse transform="matrix(0.9567 -0.291 0.291 0.9567 -99.3727 47.7925)" class="st7" cx="111" cy="358" rx="3.3" ry="3.2"/>
					</g>
				</g>
			</g>
		</g>
	</g>
	<g id="logo_4_">
		<g>
			<g>
				<g>
					<ellipse class="st6" cx="393.2" cy="100.5" rx="34" ry="34"/>
				</g>
			</g>
		</g>
		<g>
			<g>
				<g>
					<g>
						<g>
							<path class="st7" d="M416,106.4l-15.5-21.5c-0.3-0.4-0.2-0.9,0.2-1.2c0.4-0.3,0.9-0.2,1.2,0.2l15.5,21.5
								c0.3,0.4,0.2,0.9-0.2,1.2c-0.1,0-0.2,0.1-0.3,0.1C416.6,106.8,416.3,106.6,416,106.4z"/>
						</g>
					</g>
				</g>
				<g>
					<g>
						<g>
							<path class="st7" d="M394.9,111c-0.5-0.1-0.7-0.6-0.6-1l6.1-25.8c0.1-0.5,0.6-0.7,1-0.6c0.5,0.1,0.7,0.6,0.6,1l-6.1,25.8
								c0,0.4-0.3,0.6-0.6,0.7C395.2,111.1,395.1,111,394.9,111z"/>
						</g>
					</g>
				</g>
				<g>
					<g>
						<g>
							<path class="st7" d="M394.4,110.7l-15.5-21.5c-0.3-0.4-0.2-0.9,0.2-1.2c0.4-0.3,0.9-0.2,1.2,0.2l15.5,21.5
								c0.3,0.4,0.2,0.9-0.2,1.2c-0.1,0-0.2,0.1-0.3,0.1C395,111.1,394.6,111,394.4,110.7z"/>
						</g>
					</g>
				</g>
				<g>
					<g>
						<g>
							<path class="st7" d="M373.2,115.3c-0.5-0.1-0.7-0.6-0.6-1l6.1-25.8c0.1-0.5,0.6-0.7,1-0.6c0.5,0.1,0.7,0.6,0.6,1l-6.1,25.8
								c0,0.4-0.3,0.6-0.6,0.7C373.5,115.4,373.4,115.4,373.2,115.3z"/>
						</g>
					</g>
				</g>
			</g>
			<g>
				<g>
					<g>
						
							<ellipse transform="matrix(0.9807 -0.1955 0.1955 0.9807 -12.8523 83.5855)" class="st7" cx="417" cy="106.9" rx="3.3" ry="3.2"/>
					</g>
				</g>
			</g>
			<g>
				<g>
					<g>
						
							<ellipse transform="matrix(0.9807 -0.1955 0.1955 0.9807 -14.1296 79.4482)" class="st7" cx="395.4" cy="111.3" rx="3.3" ry="3.2"/>
					</g>
				</g>
			</g>
			<g>
				<g>
					<g>
						
							<ellipse transform="matrix(0.9807 -0.1955 0.1955 0.9807 -15.3692 75.2866)" class="st7" cx="373.7" cy="115.5" rx="3.3" ry="3.2"/>
					</g>
				</g>
			</g>
		</g>
	</g>
	<g id="logo_3_">
		<g>
			<g>
				<g>
					<ellipse class="st6" cx="533.3" cy="421.7" rx="34" ry="34"/>
				</g>
			</g>
		</g>
		<g>
			<g>
				<g>
					<g>
						<g>
							<path class="st7" d="M555.5,429.6L542,406.8c-0.2-0.4-0.1-0.9,0.3-1.2c0.4-0.2,0.9-0.1,1.2,0.3l13.6,22.8
								c0.2,0.4,0.1,0.9-0.3,1.2c-0.1,0-0.2,0.1-0.3,0.1C556.1,430,555.7,429.9,555.5,429.6z"/>
						</g>
					</g>
				</g>
				<g>
					<g>
						<g>
							<path class="st7" d="M534.1,432.4c-0.5-0.1-0.7-0.7-0.6-1.1l8.4-25.2c0.1-0.5,0.7-0.7,1.1-0.6c0.5,0.1,0.7,0.7,0.6,1.1
								l-8.4,25.2c0,0.4-0.3,0.6-0.7,0.6C534.4,432.4,534.3,432.4,534.1,432.4z"/>
						</g>
					</g>
				</g>
				<g>
					<g>
						<g>
							<path class="st7" d="M533.6,432L520,409.2c-0.2-0.4-0.1-0.9,0.3-1.2c0.4-0.2,0.9-0.1,1.2,0.3l13.6,22.8
								c0.2,0.4,0.1,0.9-0.3,1.2c-0.1,0-0.2,0.1-0.3,0.1C534.2,432.4,533.8,432.3,533.6,432z"/>
						</g>
					</g>
				</g>
				<g>
					<g>
						<g>
							<path class="st7" d="M512.1,434.8c-0.5-0.1-0.7-0.7-0.6-1.1l8.4-25.2c0.1-0.5,0.7-0.7,1.1-0.6c0.5,0.1,0.7,0.7,0.6,1.1
								l-8.4,25.2c0,0.4-0.3,0.6-0.7,0.6C512.4,434.8,512.3,434.8,512.1,434.8z"/>
						</g>
					</g>
				</g>
			</g>
			<g>
				<g>
					<g>
						
							<ellipse transform="matrix(0.9941 -0.1085 0.1085 0.9941 -43.3914 62.9202)" class="st7" cx="556.5" cy="430.2" rx="3.3" ry="3.2"/>
					</g>
				</g>
			</g>
			<g>
				<g>
					<g>
						
							<ellipse transform="matrix(0.9941 -0.1085 0.1085 0.9941 -43.7817 60.5473)" class="st7" cx="534.5" cy="432.6" rx="3.3" ry="3.2"/>
					</g>
				</g>
			</g>
			<g>
				<g>
					<g>
						
							<ellipse transform="matrix(0.9941 -0.1085 0.1085 0.9941 -44.1721 58.1745)" class="st7" cx="512.5" cy="435" rx="3.3" ry="3.2"/>
					</g>
				</g>
			</g>
		</g>
	</g>
	<g id="logo_2_">
		<g>
			<g>
				<g>
					<ellipse transform="matrix(0.975 -0.222 0.222 0.975 -39.7714 111.5676)" class="st6" cx="476.4" cy="232.7" rx="34" ry="34"/>
				</g>
			</g>
		</g>
		<g>
			<g>
				<g>
					<g>
						<g>
							<path class="st7" d="M497.6,243l-10.9-24.2c-0.2-0.4,0-0.9,0.4-1.1c0.4-0.2,0.9,0,1.1,0.4l10.9,24.2c0.2,0.4,0,0.9-0.4,1.1
								c-0.1,0-0.2,0.1-0.3,0.1C498.1,243.5,497.8,243.4,497.6,243z"/>
						</g>
					</g>
				</g>
				<g>
					<g>
						<g>
							<path class="st7" d="M476,243.4c-0.5-0.2-0.6-0.7-0.4-1.1l11.2-24.1c0.2-0.5,0.7-0.6,1.1-0.4c0.5,0.2,0.6,0.7,0.4,1.1
								L477.1,243c-0.1,0.4-0.4,0.5-0.8,0.5C476.3,243.5,476.2,243.4,476,243.4z"/>
						</g>
					</g>
				</g>
				<g>
					<g>
						<g>
							<path class="st7" d="M475.5,242.9l-10.9-24.2c-0.2-0.4,0-0.9,0.4-1.1c0.4-0.2,0.9,0,1.1,0.4l10.9,24.2c0.2,0.4,0,0.9-0.4,1.1
								c-0.1,0-0.2,0.1-0.3,0.1C476.1,243.4,475.7,243.3,475.5,242.9z"/>
						</g>
					</g>
				</g>
				<g>
					<g>
						<g>
							<path class="st7" d="M453.9,243.3c-0.5-0.2-0.6-0.7-0.4-1.1l11.2-24.1c0.2-0.5,0.7-0.6,1.1-0.4c0.5,0.2,0.6,0.7,0.4,1.1
								l-11.2,24c-0.1,0.4-0.4,0.5-0.8,0.5C454.2,243.4,454.1,243.3,453.9,243.3z"/>
						</g>
					</g>
				</g>
			</g>
			<g>
				<g>
					<g>
						
							<ellipse transform="matrix(4.717609e-03 -1 1 4.717609e-03 252.428 741.1414)" class="st7" cx="498.5" cy="243.8" rx="3.2" ry="3.3"/>
					</g>
				</g>
			</g>
			<g>
				<g>
					<g>
						
							<ellipse transform="matrix(4.717609e-03 -1 1 4.717609e-03 230.4916 718.952)" class="st7" cx="476.4" cy="243.7" rx="3.2" ry="3.3"/>
					</g>
				</g>
			</g>
			<g>
				<g>
					<g>
						
							<ellipse transform="matrix(4.717609e-03 -1 1 4.717609e-03 208.623 696.6326)" class="st7" cx="454.3" cy="243.5" rx="3.2" ry="3.3"/>
					</g>
				</g>
			</g>
		</g>
	</g>
	<g id="logo_1_">
		<g>
			<g>
				<g>
					
						<ellipse transform="matrix(0.5325 -0.8465 0.8465 0.5325 138.9157 481.0198)" class="st6" cx="504.9" cy="114.8" rx="30.2" ry="30.2"/>
				</g>
			</g>
		</g>
		<g>
			<g>
				<g>
					<g>
						<g>
							<path class="st7" d="M523.7,124l-9.7-21.5c-0.2-0.4,0-0.8,0.4-1s0.8,0,1,0.4l9.7,21.5c0.2,0.4,0,0.8-0.4,1
								c-0.1,0-0.2,0.1-0.3,0.1C524.2,124.5,523.9,124.3,523.7,124z"/>
						</g>
					</g>
				</g>
				<g>
					<g>
						<g>
							<path class="st7" d="M504.5,124.3c-0.4-0.1-0.5-0.7-0.4-1l10-21.4c0.1-0.4,0.7-0.5,1-0.4c0.4,0.1,0.5,0.7,0.4,1l-10,21.4
								c-0.1,0.3-0.4,0.5-0.7,0.5C504.8,124.4,504.7,124.3,504.5,124.3z"/>
						</g>
					</g>
				</g>
				<g>
					<g>
						<g>
							<path class="st7" d="M504.1,123.9l-9.7-21.5c-0.2-0.4,0-0.8,0.4-1s0.8,0,1,0.4l9.7,21.5c0.2,0.4,0,0.8-0.4,1
								c-0.1,0-0.2,0.1-0.3,0.1C504.6,124.3,504.2,124.2,504.1,123.9z"/>
						</g>
					</g>
				</g>
				<g>
					<g>
						<g>
							<path class="st7" d="M484.9,124.2c-0.4-0.1-0.5-0.7-0.4-1l10-21.4c0.1-0.4,0.7-0.5,1-0.4c0.4,0.1,0.5,0.7,0.4,1l-10,21.4
								c-0.1,0.3-0.4,0.5-0.7,0.5C485.1,124.3,485,124.2,484.9,124.2z"/>
						</g>
					</g>
				</g>
			</g>
			<g>
				<g>
					<g>
						
							<ellipse transform="matrix(4.717595e-03 -1 1 4.717595e-03 397.4017 648.6762)" class="st7" cx="524.6" cy="124.7" rx="2.9" ry="2.9"/>
					</g>
				</g>
			</g>
			<g>
				<g>
					<g>
						
							<ellipse transform="matrix(4.717702e-03 -1 1 4.717702e-03 377.9518 628.7501)" class="st7" cx="504.8" cy="124.5" rx="2.9" ry="2.9"/>
					</g>
				</g>
			</g>
			<g>
				<g>
					<g>
						
							<ellipse transform="matrix(4.717569e-03 -1 1 4.717569e-03 358.4501 608.9734)" class="st7" cx="485.2" cy="124.4" rx="2.9" ry="2.9"/>
					</g>
				</g>
			</g>
		</g>
	</g>
</g>
<g id="_x32_9KKlv.tif">
	
		<image style="overflow:visible;" width="42" height="24" id="Layer_0" xlink:href="9C0722953AC4E2D2.png"  transform="matrix(0.5 0 0 0.5 428.5 310)">
	</image>
</g>
</svg>
