<?xml version="1.0" encoding="utf-8"?>
<!-- Generator: Adobe Illustrator 23.1.1, SVG Export Plug-In . SVG Version: 6.00 Build 0)  -->
<svg version="1.1" id="Layer_1" xmlns="http://www.w3.org/2000/svg" xmlns:xlink="http://www.w3.org/1999/xlink" x="0px" y="0px"
	 viewBox="0 0 878 632" style="enable-background:new 0 0 878 632;" xml:space="preserve">
<style type="text/css">
	.st0{fill:#DAECFD;}
	.st1{fill:#C1D7E8;}
	.st2{fill:#FFB51F;}
	.st3{fill:#EC6D00;}
	.st4{fill:#FCB81F;}
	.st5{enable-background:new    ;}
	.st6{fill:#FFFFFF;}
	.st7{fill:#3A3E42;}
	.st8{fill:#4051CC;}
	.st9{fill:#F4F4F4;}
	.st10{fill:#2C3ACF;}
	.st11{fill:#A6B2C7;}
</style>
<path class="st0" d="M887,302.9c-195.3-77.4-467,172.8-539.8,295c-10,16.9-21.6,35-33.7,54.1H887V302.9z"/>
<path class="st0" d="M348.6,571.5c-23.2-42.5-46.6-85.6-75-124.9c-29.9-41.3-73.2-72.9-115-101.1c-25.9-17.4-52.9-33.2-80.7-47.3
	c-14.5-7.3-29.2-14.1-44.2-20.5C29,275.7,0.1,267.9,0,262c1,67,0,176,0,264c0,159.4-19.5,110.7,42.9,106H878
	c0.2-5.7-79.8-75.1-193-84C534.7,536.2,353.9,584.2,348.6,571.5z"/>
<path class="st1" d="M410.8,539.1c-43,7.2-89.1-15.5-110.8-53.1c-16.9-29.1,12,19-75.9,146c0,0,650.1,0,653.9,0
	c0.7,0-3.9-8.8-4.4-9.6c-7.2-12.2-25.1-19.8-36.7-27.4c-15.8-10.3-31.5-21.9-48.4-30.3c-22-11.5-45-20.9-68.6-28.5
	c-73.2-23.6-152.1-29.4-227.9-16.9c-24.2,4-47.1,10.6-70.6,17.4C417.9,537.7,414.4,538.5,410.8,539.1z"/>
<path class="st2" d="M18,417.5c-8.5,21.6,2.2,46,23.9,54.4c21.6,8.5,46-2.2,54.4-23.9c8.5-21.6-2.2-46-23.9-54.4
	C50.9,385.2,26.6,395.9,18,417.5z"/>
<path class="st3" d="M21.5,418.9c-7.7,19.7,2.1,42,21.8,49.7s42-2.1,49.7-21.8c7.7-19.7-2.1-42-21.8-49.7S29.2,399.1,21.5,418.9z"/>
<path class="st4" d="M25.8,420.5c-6.8,17.4,1.8,37,19.2,43.9c17.4,6.8,37-1.8,43.9-19.2c6.8-17.4-1.8-37-19.2-43.9
	C52.2,394.5,32.6,403.1,25.8,420.5z"/>
<g class="st5">
	<path class="st3" d="M33.6,432.2c1-0.5,2.1-0.8,3.1-0.8s1.9,0.2,2.8,0.6s1.7,1,2.4,1.8s1.4,1.7,1.9,2.7c0.7,1.4,1.1,2.8,1.2,4.1
		c0.1,1.4-0.2,2.6-0.8,3.8c-0.6,1.1-1.6,2.1-3,2.8l-5.2,2.7c-0.3,0.2-0.6,0.2-0.9,0.1c-0.3-0.1-0.6-0.3-0.7-0.6l-6.5-12.8
		c-0.2-0.3-0.2-0.6-0.1-0.9s0.3-0.5,0.6-0.7L33.6,432.2z M40,445.2c1-0.5,1.7-1.2,2.1-2s0.5-1.7,0.4-2.7s-0.4-1.9-0.9-2.9
		c-0.4-0.7-0.8-1.4-1.3-1.9c-0.5-0.6-1-1-1.6-1.3s-1.3-0.5-1.9-0.5c-0.7,0-1.4,0.2-2.2,0.5l-4,2.1l0.1-0.3l5.7,11.2l-0.2-0.1
		L40,445.2z"/>
	<path class="st3" d="M49.3,427.7l1.1,14c0,0.3,0,0.5-0.1,0.7s-0.3,0.4-0.5,0.5c-0.3,0.2-0.6,0.2-0.8,0.1s-0.4-0.3-0.6-0.5
		c-0.1-0.1-0.1-0.2-0.1-0.4L47,426.2c0-0.3,0-0.6,0.2-0.8s0.3-0.4,0.5-0.5s0.4-0.1,0.7-0.1s0.5,0.1,0.7,0.3L61,435.3
		c0.1,0.1,0.2,0.2,0.3,0.4c0.2,0.3,0.2,0.6,0.1,0.9c-0.1,0.3-0.3,0.5-0.5,0.6s-0.4,0.1-0.7,0.1c-0.2,0-0.5-0.2-0.7-0.3l-10.7-9
		L49.3,427.7z M49.6,438.2l-0.1-2.5l6-3.1l1.4,1.9L49.6,438.2z"/>
	<path class="st3" d="M56.2,423.2c-0.3,0.2-0.6,0.2-0.9,0.1c-0.3-0.1-0.5-0.3-0.7-0.6c-0.2-0.3-0.2-0.6,0-0.9
		c0.1-0.3,0.3-0.5,0.6-0.7l9.7-5c0.3-0.2,0.6-0.2,0.9-0.1s0.5,0.3,0.7,0.6c0.2,0.3,0.2,0.6,0.1,0.9s-0.3,0.5-0.6,0.7L56.2,423.2z
		 M67.7,433.6c-0.3,0.2-0.7,0.2-1,0.1s-0.5-0.3-0.7-0.6l-6.5-12.8l2.3-1.2l6.5,12.9c0.2,0.3,0.2,0.6,0.1,0.9
		C68.2,433.2,68.1,433.5,67.7,433.6z"/>
	<path class="st3" d="M74.1,415l1.1,14c0,0.3,0,0.5-0.1,0.7s-0.3,0.4-0.5,0.5c-0.3,0.2-0.6,0.2-0.8,0.1c-0.2-0.1-0.4-0.3-0.6-0.5
		c-0.1-0.1-0.1-0.2-0.1-0.4l-1.3-15.9c0-0.3,0-0.6,0.2-0.8c0.1-0.2,0.3-0.4,0.5-0.5s0.4-0.1,0.7-0.1c0.2,0,0.5,0.1,0.7,0.3
		l11.9,10.2c0.1,0.1,0.2,0.2,0.3,0.4c0.2,0.3,0.2,0.6,0.1,0.9s-0.3,0.5-0.5,0.6s-0.4,0.1-0.7,0.1s-0.5-0.2-0.7-0.3l-10.7-9L74.1,415
		z M74.4,425.6l-0.1-2.5l6-3.1l1.4,1.9L74.4,425.6z"/>
</g>
<path class="st2" d="M36.7,561.4c-21.6,21.2-21.8,56-0.4,77.5c21.2,21.6,56,21.8,77.5,0.4c21.6-21.2,21.8-56,0.4-77.5
	C93,540.4,58.4,540.2,36.7,561.4z"/>
<path class="st3" d="M40.1,564.9c-19.6,19.4-19.8,51.2-0.4,70.8s51.2,19.8,70.8,0.4c19.6-19.4,19.8-51.2,0.4-70.8
	S59.8,545.4,40.1,564.9z"/>
<path class="st4" d="M44.4,569.1c-17.3,17.1-17.5,45.1-0.4,62.5s45,17.5,62.5,0.4c17.3-17.1,17.5-45.1,0.4-62.5
	C89.6,552.1,61.7,552,44.4,569.1z"/>
<g class="st5">
	<path class="st3" d="M47.5,587.2c1.5-0.1,2.9,0.2,4.1,0.7c1.2,0.5,2.2,1.2,3,2.2s1.5,2.1,1.9,3.4s0.8,2.8,0.8,4.2
		c0.1,2-0.2,3.9-0.7,5.5c-0.6,1.7-1.6,3-3,4.1c-1.3,1-3,1.7-5.1,1.7l-7.6,0.5c-0.5,0.1-0.8-0.1-1.1-0.4c-0.3-0.3-0.6-0.7-0.5-1.1
		l-1-18.7c-0.1-0.5,0.1-0.8,0.4-1.1c0.3-0.3,0.6-0.4,1.1-0.5L47.5,587.2z M48.2,606.1c1.5-0.1,2.7-0.5,3.6-1.3
		c0.9-0.7,1.5-1.8,1.9-3s0.5-2.5,0.5-3.9c-0.1-1-0.2-2.1-0.5-3c-0.3-1-0.7-1.7-1.2-2.4c-0.6-0.7-1.3-1.3-2-1.6
		c-0.8-0.4-1.8-0.5-2.9-0.6l-5.9,0.4l0.3-0.3l0.9,16.4l-0.2-0.2L48.2,606.1z"/>
	<path class="st3" d="M68.6,590.2l-6.1,17.3c-0.2,0.4-0.3,0.6-0.5,0.8s-0.6,0.3-0.9,0.3c-0.5,0.1-0.8-0.1-1-0.3s-0.3-0.6-0.4-0.9
		c-0.1-0.2,0-0.3,0.1-0.5l6.9-19.6c0.2-0.4,0.3-0.7,0.7-0.8c0.3-0.1,0.6-0.3,0.9-0.3s0.5,0.1,0.9,0.3s0.5,0.4,0.7,0.7l8.8,18.5
		c0.1,0.2,0.1,0.3,0.1,0.6c0.1,0.5-0.1,0.8-0.4,1.1s-0.6,0.4-0.9,0.4s-0.5-0.1-0.9-0.3c-0.2-0.1-0.5-0.5-0.7-0.7l-8-16.4L68.6,590.2
		z M63.4,602.9l1.2-3l8.8-0.5l0.7,3L63.4,602.9z"/>
	<path class="st3" d="M79.2,588.5c-0.5,0.1-0.8-0.1-1.1-0.4c-0.3-0.3-0.4-0.6-0.5-1.1s0.1-0.8,0.5-1.1c0.3-0.3,0.6-0.4,1.1-0.5
		l14.2-0.8c0.5-0.1,0.8,0.1,1.1,0.4c0.3,0.3,0.4,0.6,0.5,1.1s-0.1,0.8-0.4,1.1s-0.6,0.4-1.1,0.5L79.2,588.5z M87.3,606.9
		c-0.5,0.1-0.9-0.1-1.2-0.4c-0.3-0.3-0.4-0.6-0.5-1.1l-1-18.7l3.4-0.2l0.9,18.8c0.1,0.5-0.1,0.8-0.4,1.1
		C88.2,606.8,87.8,607,87.3,606.9z"/>
	<path class="st3" d="M104.8,588.1l-6.1,17.3c-0.2,0.4-0.3,0.6-0.5,0.8s-0.6,0.3-0.9,0.3c-0.5,0.1-0.8-0.1-1-0.3s-0.3-0.6-0.4-0.9
		c-0.1-0.2,0-0.3,0.1-0.5l6.9-19.6c0.2-0.4,0.3-0.7,0.7-0.8c0.2-0.2,0.6-0.3,0.9-0.3s0.5,0.1,0.9,0.3c0.2,0.1,0.5,0.4,0.7,0.7
		l8.8,18.5c0.1,0.2,0.1,0.3,0.1,0.6c0.1,0.5-0.1,0.8-0.4,1.1s-0.6,0.4-0.9,0.4s-0.5-0.1-0.9-0.3s-0.5-0.5-0.7-0.7l-8-16.4
		L104.8,588.1z M99.6,601l1.2-3l8.8-0.5l0.7,3L99.6,601z"/>
</g>
<path class="st2" d="M286.2,559.1c-12.4,22.8-3.9,51.4,19,63.8c22.8,12.4,51.4,3.9,63.8-19c12.4-22.8,3.9-51.4-19-63.8
	C327.2,527.7,298.7,536.3,286.2,559.1z"/>
<path class="st3" d="M289.9,561.1c-11.3,20.8-3.5,47,17.4,58.2c20.8,11.3,47,3.5,58.2-17.4c11.3-20.8,3.5-47-17.4-58.2
	C327.3,532.5,301.2,540.2,289.9,561.1z"/>
<path class="st4" d="M294.4,563.5c-10,18.4-3.1,41.4,15.3,51.4s41.4,3.1,51.4-15.3c10-18.4,3.1-41.4-15.3-51.4
	S304.4,545.1,294.4,563.5z"/>
<g class="st5">
	<path class="st3" d="M301.5,577.6c1.2-0.4,2.4-0.6,3.6-0.5c1.1,0.1,2.1,0.5,3,1.1s1.8,1.3,2.4,2.3s1.3,2.1,1.7,3.3
		c0.6,1.7,0.8,3.3,0.8,4.7c-0.1,1.6-0.6,2.9-1.4,4.1c-0.8,1.1-2.1,2.1-3.7,2.7l-6.2,2.3c-0.4,0.2-0.7,0.1-1,0s-0.6-0.4-0.7-0.8
		l-5.5-15.1c-0.2-0.4-0.1-0.7,0-1c0.2-0.3,0.4-0.5,0.8-0.7L301.5,577.6z M306.8,592.9c1.2-0.4,2.1-1.1,2.6-1.9s0.8-1.8,0.8-2.9
		s-0.2-2.2-0.6-3.3c-0.3-0.8-0.7-1.7-1.2-2.3c-0.5-0.7-1-1.2-1.6-1.7c-0.6-0.4-1.4-0.7-2-0.8c-0.8-0.1-1.6,0-2.5,0.3l-4.7,1.8
		l0.2-0.3l4.8,13.2l-0.2-0.1L306.8,592.9z"/>
	<path class="st3" d="M319.6,574.7l-0.7,15.7c0,0.3-0.1,0.6-0.2,0.8s-0.4,0.4-0.6,0.5c-0.4,0.2-0.7,0.1-0.9,0
		c-0.2-0.1-0.4-0.4-0.6-0.6c-0.1-0.1-0.1-0.2-0.1-0.5l0.8-17.9c0-0.3,0.1-0.7,0.3-0.9c0.2-0.2,0.4-0.4,0.6-0.5s0.5-0.1,0.8,0
		s0.5,0.2,0.7,0.4l11.8,13c0.1,0.1,0.2,0.2,0.3,0.5c0.2,0.4,0.1,0.7,0,1c-0.2,0.3-0.4,0.5-0.6,0.6s-0.5,0.1-0.8,0
		c-0.2,0-0.5-0.3-0.7-0.4L319,575L319.6,574.7z M318.5,586.5l0.2-2.8l7.1-2.6l1.3,2.3L318.5,586.5z"/>
	<path class="st3" d="M327.9,570.7c-0.4,0.2-0.7,0.1-1,0s-0.5-0.4-0.7-0.8c-0.2-0.4-0.1-0.7,0.1-1s0.4-0.5,0.8-0.7l11.5-4.2
		c0.4-0.2,0.7-0.1,1,0c0.3,0.2,0.5,0.4,0.7,0.8c0.2,0.4,0.1,0.7,0,1c-0.2,0.3-0.4,0.5-0.8,0.7L327.9,570.7z M339.1,583.8
		c-0.4,0.2-0.8,0.1-1.1,0s-0.5-0.4-0.7-0.8l-5.5-15.1l2.7-1l5.4,15.2c0.2,0.4,0.1,0.7,0,1C339.8,583.5,339.6,583.8,339.1,583.8z"/>
	<path class="st3" d="M348.8,564l-0.7,15.7c0,0.3-0.1,0.6-0.2,0.8s-0.4,0.4-0.6,0.5c-0.4,0.2-0.7,0.1-0.9,0
		c-0.2-0.1-0.4-0.4-0.6-0.6c-0.1-0.1-0.1-0.2-0.1-0.5l0.8-17.9c0-0.3,0.1-0.7,0.3-0.9c0.1-0.2,0.4-0.4,0.6-0.5s0.5-0.1,0.8,0
		c0.2,0,0.5,0.2,0.7,0.4l11.8,13c0.1,0.1,0.2,0.2,0.3,0.5c0.2,0.4,0.1,0.7,0,1c-0.2,0.3-0.4,0.5-0.6,0.6s-0.5,0.1-0.8,0
		c-0.3,0-0.5-0.3-0.7-0.4l-10.6-11.5L348.8,564z M347.8,575.9l0.2-2.8l7.1-2.6l1.3,2.3L347.8,575.9z"/>
</g>
<path class="st2" d="M674.9,578.2c-21.6,14.5-27.2,43.8-12.6,65.3c14.5,21.6,43.8,27.2,65.3,12.6c21.6-14.5,27.2-43.8,12.6-65.3
	C725.8,569.4,696.6,563.8,674.9,578.2z"/>
<path class="st3" d="M677.3,581.7c-19.6,13.3-24.8,40-11.5,59.7s40,24.8,59.7,11.5c19.6-13.3,24.8-40,11.5-59.7
	S697,568.4,677.3,581.7z"/>
<path class="st4" d="M680.2,586c-17.3,11.7-21.9,35.2-10.2,52.7c11.7,17.3,35.2,21.9,52.7,10.2c17.3-11.7,21.9-35.2,10.2-52.7
	C721.1,578.8,697.6,574.2,680.2,586z"/>
<g class="st5">
	<path class="st3" d="M680,601.7c1.2,0.2,2.4,0.6,3.4,1.2s1.6,1.4,2.2,2.3c0.6,0.9,0.9,2,1.1,3.2c0.1,1.2,0.2,2.5,0,3.7
		c-0.2,1.7-0.8,3.3-1.5,4.5c-0.8,1.4-1.8,2.3-3.2,3c-1.3,0.6-2.8,0.9-4.5,0.7l-6.5-0.8c-0.4,0-0.7-0.2-0.9-0.5s-0.4-0.7-0.3-1
		l2.2-15.9c0-0.4,0.2-0.7,0.5-0.9s0.6-0.3,1-0.3L680,601.7z M677.6,617.8c1.2,0.2,2.3,0,3.2-0.5s1.5-1.2,2.1-2.2c0.5-1,0.8-2,1-3.2
		c0.1-0.9,0.2-1.8,0-2.6c-0.1-0.9-0.3-1.6-0.6-2.2c-0.4-0.7-0.9-1.3-1.4-1.7c-0.6-0.4-1.4-0.7-2.3-0.9l-5-0.6l0.3-0.2l-1.9,13.9
		l-0.1-0.2L677.6,617.8z"/>
	<path class="st3" d="M697.3,607.5l-7.9,13.6c-0.2,0.3-0.3,0.5-0.5,0.6s-0.5,0.2-0.8,0.1c-0.4,0-0.7-0.2-0.8-0.4s-0.2-0.5-0.2-0.8
		c0-0.2,0-0.2,0.2-0.4l8.9-15.5c0.2-0.3,0.4-0.6,0.7-0.6c0.3-0.1,0.5-0.2,0.8-0.1c0.2,0,0.4,0.2,0.7,0.4s0.4,0.4,0.5,0.7l4.5,17
		c0,0.2,0.1,0.3,0,0.6c0,0.4-0.2,0.7-0.5,0.9s-0.6,0.3-0.8,0.2c-0.2,0-0.4-0.2-0.7-0.4c-0.2-0.1-0.3-0.5-0.5-0.7l-4.1-15.1
		L697.3,607.5z M690.9,617.4l1.5-2.4l7.5,1l0.1,2.6L690.9,617.4z"/>
	<path class="st3" d="M706.5,607.8c-0.4,0-0.7-0.2-0.9-0.5s-0.3-0.6-0.3-1s0.2-0.7,0.6-0.8c0.3-0.2,0.6-0.3,1-0.3l12.1,1.6
		c0.4,0,0.7,0.2,0.9,0.5s0.3,0.6,0.3,1s-0.2,0.7-0.5,0.9s-0.6,0.3-1,0.3L706.5,607.8z M710.4,624.6c-0.4,0-0.8-0.3-1-0.5
		c-0.2-0.3-0.3-0.6-0.3-1l2.2-15.9l2.9,0.4l-2.2,16c0,0.4-0.2,0.7-0.5,0.9C711.2,624.6,710.8,624.8,710.4,624.6z"/>
	<path class="st3" d="M728.1,611.5l-7.9,13.6c-0.2,0.3-0.3,0.5-0.5,0.6s-0.5,0.2-0.8,0.1c-0.4,0-0.7-0.2-0.8-0.4s-0.2-0.5-0.2-0.8
		c0-0.2,0-0.2,0.2-0.4l8.9-15.5c0.2-0.3,0.4-0.6,0.7-0.6c0.2-0.1,0.5-0.2,0.8-0.1s0.4,0.2,0.7,0.4c0.2,0.1,0.4,0.4,0.5,0.7l4.5,17
		c0,0.2,0.1,0.3,0,0.6c0,0.4-0.2,0.7-0.5,0.9s-0.6,0.3-0.8,0.2c-0.2,0-0.4-0.2-0.7-0.4s-0.3-0.5-0.5-0.7l-4.1-15.1L728.1,611.5z
		 M721.8,621.6l1.5-2.4l7.5,1l0.1,2.6L721.8,621.6z"/>
</g>
<path class="st2" d="M822.5,454.4c-11.4,14.7-8.6,35.8,6.1,47.1c14.7,11.4,35.8,8.6,47.1-6.1c11.4-14.7,8.6-35.8-6.1-47.1
	C855,437,833.9,439.8,822.5,454.4z"/>
<path class="st3" d="M824.9,456.3c-10.3,13.4-7.8,32.7,5.6,43.1c13.4,10.3,32.7,7.8,43.1-5.6c10.3-13.4,7.8-32.7-5.6-43.1
	C854.5,440.4,835.2,442.8,824.9,456.3z"/>
<path class="st4" d="M827.8,458.5c-9.1,11.8-6.9,28.8,4.9,38c11.8,9.1,28.8,6.9,38-4.9c9.1-11.8,6.9-28.8-4.9-38
	C853.9,444.5,836.9,446.7,827.8,458.5z"/>
<g class="st5">
	<path class="st3" d="M831.2,469.2c0.9-0.2,1.8-0.1,2.6,0.1s1.4,0.6,2,1.1s1.1,1.1,1.4,1.9s0.7,1.6,0.9,2.5c0.2,1.2,0.2,2.4,0,3.4
		c-0.2,1.1-0.7,2-1.5,2.7c-0.7,0.7-1.7,1.3-2.9,1.5l-4.6,0.9c-0.3,0.1-0.5,0-0.7-0.1s-0.4-0.4-0.4-0.6l-2.1-11.3
		c-0.1-0.3,0-0.5,0.1-0.7s0.3-0.3,0.6-0.4L831.2,469.2z M833.2,480.6c0.9-0.2,1.6-0.5,2.1-1.1c0.5-0.5,0.8-1.2,0.9-2
		c0.1-0.8,0.1-1.5,0-2.4c-0.1-0.6-0.3-1.3-0.6-1.8c-0.2-0.6-0.5-1-0.9-1.4s-0.9-0.7-1.3-0.8c-0.5-0.2-1.1-0.2-1.8-0.1l-3.5,0.7
		l0.1-0.2l1.9,9.9l-0.1-0.1L833.2,480.6z"/>
	<path class="st3" d="M844.2,469.3l-2.3,11c-0.1,0.2-0.1,0.4-0.2,0.5s-0.3,0.2-0.5,0.3c-0.3,0.1-0.5,0-0.6-0.1s-0.2-0.3-0.3-0.5
		c-0.1-0.1,0-0.2,0-0.3l2.6-12.5c0.1-0.2,0.1-0.5,0.3-0.6s0.3-0.2,0.5-0.3c0.2,0,0.3,0,0.6,0.1s0.4,0.2,0.5,0.4l6.8,10.5
		c0.1,0.1,0.1,0.2,0.1,0.4c0.1,0.3,0,0.5-0.1,0.7s-0.3,0.3-0.5,0.3s-0.3,0-0.6-0.1c-0.2,0-0.3-0.3-0.5-0.4l-6.2-9.3L844.2,469.3z
		 M842.1,477.4l0.5-1.9l5.3-1l0.6,1.8L842.1,477.4z"/>
	<path class="st3" d="M850.5,467.4c-0.3,0.1-0.5,0-0.7-0.1s-0.3-0.3-0.4-0.6c-0.1-0.3,0-0.5,0.2-0.7c0.1-0.2,0.3-0.3,0.6-0.4
		l8.6-1.7c0.3-0.1,0.5,0,0.7,0.1s0.3,0.3,0.4,0.6c0.1,0.3,0,0.5-0.1,0.7s-0.3,0.3-0.6,0.4L850.5,467.4z M857,477.9
		c-0.3,0.1-0.6,0-0.8-0.1s-0.3-0.3-0.4-0.6l-2.1-11.3l2-0.4l2.1,11.4c0.1,0.3,0,0.5-0.1,0.7S857.3,478,857,477.9z"/>
	<path class="st3" d="M866,465.1l-2.3,11c-0.1,0.2-0.1,0.4-0.2,0.5s-0.3,0.2-0.5,0.3c-0.3,0.1-0.5,0-0.6-0.1s-0.2-0.3-0.3-0.5
		c-0.1-0.1,0-0.2,0-0.3l2.6-12.5c0.1-0.2,0.1-0.5,0.3-0.6c0.1-0.1,0.3-0.2,0.5-0.3c0.2,0,0.3,0,0.6,0.1c0.2,0,0.4,0.2,0.5,0.4
		l6.8,10.5c0.1,0.1,0.1,0.2,0.1,0.4c0.1,0.3,0,0.5-0.1,0.7s-0.3,0.3-0.5,0.3s-0.3,0-0.6-0.1c-0.2-0.1-0.3-0.3-0.5-0.4l-6.2-9.3
		L866,465.1z M864,473.3l0.5-1.9l5.3-1l0.6,1.8L864,473.3z"/>
</g>
<path class="st2" d="M808.6,372.6c-14.3,8-19.3,26.1-11.2,40.3c8,14.3,26.1,19.3,40.3,11.2c14.3-8,19.3-26.1,11.2-40.3
	C840.9,369.7,822.9,364.7,808.6,372.6z"/>
<path class="st3" d="M809.9,375c-13,7.3-17.6,23.9-10.3,36.8s23.9,17.6,36.8,10.3c13-7.3,17.6-23.9,10.3-36.8S822.9,367.6,809.9,375
	z"/>
<path class="st4" d="M811.5,377.8c-11.5,6.5-15.5,21-9.1,32.5c6.5,11.5,21,15.5,32.5,9.1c11.5-6.5,15.5-21,9.1-32.5
	C837.5,375.3,823,371.3,811.5,377.8z"/>
<g class="st5">
	<path class="st3" d="M810.5,387.6c0.8,0.2,1.5,0.5,2,0.9s0.9,1,1.3,1.6s0.5,1.3,0.5,2.1c0,0.7,0,1.6-0.2,2.3
		c-0.2,1.1-0.6,2-1.2,2.8c-0.6,0.8-1.3,1.3-2.1,1.7c-0.8,0.3-1.8,0.4-2.9,0.2l-4-0.8c-0.3,0-0.4-0.2-0.5-0.3
		c-0.1-0.2-0.2-0.4-0.1-0.6l2.2-9.9c0-0.3,0.2-0.4,0.3-0.5c0.2-0.1,0.4-0.1,0.6-0.1L810.5,387.6z M808.2,397.6
		c0.8,0.2,1.5,0.1,2-0.2c0.6-0.3,1-0.7,1.4-1.3s0.6-1.2,0.8-2c0.1-0.6,0.2-1.1,0.1-1.6c0-0.6-0.1-1-0.3-1.4s-0.5-0.9-0.8-1.1
		c-0.4-0.3-0.9-0.5-1.4-0.7l-3.1-0.6l0.2-0.1l-1.9,8.7l-0.1-0.1L808.2,397.6z"/>
	<path class="st3" d="M821.1,392.2l-5.6,8.1c-0.1,0.2-0.2,0.3-0.4,0.3c-0.1,0.1-0.3,0.1-0.5,0c-0.3,0-0.4-0.2-0.5-0.3
		s-0.1-0.3-0.1-0.5c0-0.1,0-0.2,0.1-0.3l6.4-9.3c0.1-0.2,0.3-0.3,0.5-0.3s0.3-0.1,0.5,0c0.2,0,0.3,0.1,0.4,0.3
		c0.2,0.1,0.2,0.3,0.2,0.5l1.9,10.9c0,0.1,0,0.2,0,0.4c0,0.3-0.2,0.4-0.3,0.5c-0.2,0.1-0.4,0.1-0.5,0.1c-0.2,0-0.3-0.1-0.4-0.3
		c-0.1-0.1-0.2-0.3-0.2-0.5l-1.8-9.7L821.1,392.2z M816.6,398l1.1-1.4l4.7,1l-0.1,1.7L816.6,398z"/>
	<path class="st3" d="M826.9,392.8c-0.3,0-0.4-0.2-0.5-0.3s-0.1-0.4-0.1-0.6c0-0.3,0.2-0.4,0.4-0.5s0.4-0.1,0.6-0.1l7.5,1.6
		c0.3,0,0.4,0.2,0.5,0.3c0.1,0.2,0.1,0.4,0.1,0.6s-0.2,0.4-0.3,0.5c-0.2,0.1-0.4,0.1-0.6,0.1L826.9,392.8z M828.5,403.5
		c-0.3,0-0.5-0.2-0.6-0.4s-0.1-0.4-0.1-0.6l2.2-9.9l1.8,0.4l-2.2,9.9c0,0.3-0.2,0.4-0.3,0.5C829,403.6,828.7,403.7,828.5,403.5z"/>
	<path class="st3" d="M840.3,396.2l-5.6,8.1c-0.1,0.2-0.2,0.3-0.4,0.3s-0.3,0.1-0.5,0c-0.3,0-0.4-0.2-0.5-0.3
		c-0.1-0.1-0.1-0.3-0.1-0.5c0-0.1,0-0.2,0.1-0.3l6.4-9.3c0.1-0.2,0.3-0.3,0.5-0.3c0.1-0.1,0.3-0.1,0.5,0c0.2,0,0.3,0.1,0.4,0.3
		c0.1,0.1,0.2,0.3,0.2,0.5l1.9,10.9c0,0.1,0,0.2,0,0.4c0,0.3-0.2,0.4-0.3,0.5s-0.4,0.1-0.5,0.1c-0.2,0-0.3-0.1-0.4-0.3
		c-0.2-0.1-0.2-0.3-0.2-0.5l-1.8-9.7L840.3,396.2z M835.8,402.2l1.1-1.4l4.7,1l-0.1,1.7L835.8,402.2z"/>
</g>
<path class="st2" d="M829.5,280.7c-9.6,8.7-10.3,23.7-1.5,33.3c8.7,9.6,23.7,10.3,33.3,1.5c9.6-8.7,10.3-23.7,1.5-33.3
	C854.1,272.6,839.2,271.9,829.5,280.7z"/>
<path class="st3" d="M831,282.2c-8.7,8-9.4,21.6-1.4,30.4c8,8.7,21.6,9.4,30.4,1.4c8.7-8,9.4-21.6,1.4-30.4
	C853.3,274.8,839.7,274.2,831,282.2z"/>
<path class="st4" d="M832.7,284.1c-7.7,7.1-8.3,19-1.2,26.8c7.1,7.7,19,8.3,26.8,1.2c7.7-7.1,8.3-19,1.2-26.8
	C852.4,277.6,840.4,277.1,832.7,284.1z"/>
<g class="st5">
	<path class="st3" d="M833.7,291.9c0.6,0,1.3,0.1,1.8,0.4c0.5,0.2,0.9,0.6,1.3,1c0.4,0.4,0.6,0.9,0.8,1.5s0.3,1.2,0.3,1.8
		c0,0.9-0.1,1.7-0.4,2.4c-0.3,0.7-0.7,1.3-1.3,1.7c-0.6,0.4-1.3,0.7-2.2,0.7l-3.3,0.1c-0.2,0-0.4,0-0.5-0.2
		c-0.1-0.1-0.2-0.3-0.2-0.5l-0.1-8c0-0.2,0-0.4,0.2-0.5s0.3-0.2,0.5-0.2L833.7,291.9z M833.7,300c0.6,0,1.2-0.2,1.6-0.5
		s0.7-0.7,0.9-1.3s0.3-1.1,0.3-1.7c0-0.5-0.1-0.9-0.2-1.3c-0.1-0.4-0.3-0.8-0.5-1c-0.2-0.3-0.5-0.6-0.8-0.7
		c-0.4-0.2-0.8-0.2-1.2-0.3l-2.5,0.1l0.1-0.1l0.1,7l-0.1-0.1L833.7,300z"/>
	<path class="st3" d="M842.7,293.5l-2.9,7.3c-0.1,0.2-0.1,0.3-0.2,0.3s-0.2,0.1-0.4,0.1s-0.4,0-0.4-0.1c-0.1-0.1-0.1-0.2-0.2-0.4
		c0-0.1,0-0.1,0-0.2l3.3-8.3c0.1-0.2,0.1-0.3,0.3-0.4s0.2-0.1,0.4-0.1c0.1,0,0.2,0,0.4,0.1s0.2,0.2,0.3,0.3l3.5,8.1
		c0,0.1,0.1,0.2,0.1,0.3c0,0.2,0,0.4-0.2,0.5s-0.3,0.2-0.4,0.2c-0.1,0-0.2,0-0.4-0.1c-0.1,0-0.2-0.2-0.3-0.3l-3.1-7.2L842.7,293.5z
		 M840.3,298.9l0.6-1.3l3.8-0.1l0.2,1.3L840.3,298.9z"/>
	<path class="st3" d="M847.3,293c-0.2,0-0.4,0-0.5-0.2s-0.2-0.3-0.2-0.5s0-0.4,0.2-0.5c0.1-0.1,0.3-0.2,0.5-0.2l6.1-0.1
		c0.2,0,0.4,0,0.5,0.2c0.1,0.1,0.2,0.3,0.2,0.5s0,0.4-0.2,0.5c-0.1,0.1-0.3,0.2-0.5,0.2L847.3,293z M850.5,301
		c-0.2,0-0.4-0.1-0.5-0.2s-0.2-0.3-0.2-0.5l-0.1-8h1.5l0.1,8.1c0,0.2,0,0.4-0.2,0.5S850.7,301.1,850.5,301z"/>
	<path class="st3" d="M858.3,293.3l-2.9,7.3c-0.1,0.2-0.1,0.3-0.2,0.3s-0.2,0.1-0.4,0.1s-0.4,0-0.4-0.1c-0.1-0.1-0.1-0.2-0.2-0.4
		c0-0.1,0-0.1,0-0.2l3.3-8.3c0.1-0.2,0.1-0.3,0.3-0.4c0.1-0.1,0.2-0.1,0.4-0.1c0.1,0,0.2,0,0.4,0.1c0.1,0,0.2,0.2,0.3,0.3l3.5,8.1
		c0,0.1,0.1,0.2,0.1,0.3c0,0.2,0,0.4-0.2,0.5s-0.3,0.2-0.4,0.2c-0.1,0-0.2,0-0.4-0.1s-0.2-0.2-0.3-0.3l-3.1-7.2L858.3,293.3z
		 M855.9,298.7l0.6-1.3l3.8-0.1l0.2,1.3L855.9,298.7z"/>
</g>
<path class="st2" d="M438.7,485.9c-7.3,11.1-4.2,26,6.9,33.3c11.1,7.3,26,4.2,33.3-6.9c7.3-11.1,4.2-26-6.9-33.3
	S446.1,474.9,438.7,485.9z"/>
<path class="st3" d="M440.5,487.1c-6.6,10.1-3.8,23.7,6.3,30.4c10.1,6.6,23.7,3.8,30.4-6.3c6.6-10.1,3.8-23.7-6.3-30.4
	S447.1,477,440.5,487.1z"/>
<path class="st4" d="M442.7,488.5c-5.9,8.9-3.4,20.9,5.5,26.8c8.9,5.9,20.9,3.4,26.8-5.5c5.9-8.9,3.4-20.9-5.5-26.8
	S448.6,479.6,442.7,488.5z"/>
<g class="st5">
	<path class="st3" d="M445.7,496c0.6-0.2,1.3-0.2,1.8-0.1c0.6,0.1,1,0.3,1.5,0.7c0.5,0.3,0.8,0.8,1.1,1.3c0.3,0.5,0.6,1.1,0.7,1.7
		c0.2,0.9,0.3,1.7,0.2,2.4c-0.1,0.8-0.4,1.4-0.9,2c-0.5,0.5-1.1,1-2,1.2l-3.2,0.9c-0.2,0.1-0.4,0-0.5-0.1c-0.2-0.1-0.3-0.2-0.3-0.4
		l-2.1-7.9c-0.1-0.2,0-0.4,0.1-0.5c0.1-0.2,0.2-0.2,0.4-0.3L445.7,496z M447.7,504c0.6-0.2,1.1-0.5,1.4-0.9s0.5-0.9,0.5-1.5
		c0.1-0.6,0-1.1-0.2-1.7c-0.1-0.4-0.3-0.9-0.5-1.2c-0.2-0.4-0.4-0.7-0.7-0.9c-0.3-0.2-0.7-0.4-1-0.5c-0.4-0.1-0.8-0.1-1.3,0
		l-2.5,0.7l0.1-0.2l1.9,6.9l-0.1-0.1L447.7,504z"/>
	<path class="st3" d="M455,495.3l-1,8c0,0.2-0.1,0.3-0.1,0.4c-0.1,0.1-0.2,0.2-0.3,0.2c-0.2,0.1-0.4,0-0.5,0
		c-0.1-0.1-0.2-0.2-0.3-0.4c0-0.1,0-0.1,0-0.2l1.2-9c0-0.2,0.1-0.3,0.2-0.4s0.2-0.2,0.3-0.2c0.1,0,0.2,0,0.4,0s0.3,0.1,0.4,0.3
		l5.5,7.1c0,0.1,0.1,0.1,0.1,0.3c0.1,0.2,0,0.4-0.1,0.5c-0.1,0.2-0.2,0.2-0.4,0.3s-0.2,0-0.4,0c-0.1,0-0.3-0.2-0.4-0.3l-4.9-6.3
		L455,495.3z M453.9,501.2l0.2-1.4l3.7-1l0.6,1.2L453.9,501.2z"/>
	<path class="st3" d="M459.4,493.6c-0.2,0.1-0.4,0-0.5-0.1c-0.2-0.1-0.2-0.2-0.3-0.4s0-0.4,0.1-0.5c0.1-0.2,0.2-0.2,0.4-0.3l6-1.6
		c0.2-0.1,0.4,0,0.5,0.1c0.2,0.1,0.2,0.2,0.3,0.4s0,0.4-0.1,0.5c-0.1,0.2-0.2,0.2-0.4,0.3L459.4,493.6z M464.5,500.8
		c-0.2,0.1-0.4,0-0.6-0.1s-0.2-0.2-0.3-0.4l-2.1-7.9l1.4-0.4l2.1,8c0.1,0.2,0,0.4-0.1,0.5C464.9,500.6,464.8,500.8,464.5,500.8z"/>
	<path class="st3" d="M470.3,491.1l-1,8c0,0.2-0.1,0.3-0.1,0.4c-0.1,0.1-0.2,0.2-0.3,0.2c-0.2,0.1-0.4,0-0.5,0
		c-0.1-0.1-0.2-0.2-0.3-0.4c0-0.1,0-0.1,0-0.2l1.2-9c0-0.2,0.1-0.3,0.2-0.4s0.2-0.2,0.3-0.2c0.1,0,0.2,0,0.4,0
		c0.1,0,0.3,0.1,0.4,0.3l5.5,7.1c0,0.1,0.1,0.1,0.1,0.3c0.1,0.2,0,0.4-0.1,0.5c-0.1,0.2-0.2,0.2-0.4,0.3s-0.2,0-0.4,0
		s-0.3-0.2-0.4-0.3l-4.9-6.3L470.3,491.1z M469.3,497.1l0.2-1.4l3.7-1l0.6,1.2L469.3,497.1z"/>
</g>
<path class="st2" d="M451.8,554.4c-19.6,19.1-19.8,50.5-0.6,70c19.1,19.6,50.5,19.8,70,0.6c19.6-19.1,19.8-50.5,0.6-70
	C502.7,535.6,471.4,535.4,451.8,554.4z"/>
<path class="st3" d="M454.9,557.6c-17.8,17.4-18,46.1-0.6,63.9c17.4,17.8,46.1,18,63.9,0.6c17.8-17.4,18-46.1,0.6-63.9
	C501.3,540.4,472.7,540.1,454.9,557.6z"/>
<path class="st4" d="M458.7,561.4c-15.7,15.4-15.9,40.6-0.6,56.4c15.4,15.7,40.6,15.9,56.4,0.6c15.7-15.4,15.9-40.6,0.6-56.4
	C499.6,546.2,474.4,546,458.7,561.4z"/>
<g class="st5">
	<path class="st3" d="M461.5,577.7c1.3-0.1,2.6,0.2,3.7,0.6c1.1,0.5,1.9,1.1,2.7,2c0.8,0.9,1.3,1.9,1.7,3.1s0.7,2.5,0.7,3.8
		c0.1,1.8-0.2,3.5-0.7,5c-0.6,1.6-1.5,2.7-2.7,3.7c-1.2,0.9-2.7,1.5-4.6,1.6l-6.9,0.4c-0.4,0.1-0.7-0.1-1-0.3s-0.5-0.6-0.5-1
		l-0.8-16.9c-0.1-0.4,0.1-0.7,0.3-1c0.3-0.3,0.6-0.4,1-0.5L461.5,577.7z M462.1,594.8c1.3-0.1,2.4-0.5,3.2-1.1s1.4-1.6,1.7-2.7
		c0.4-1.1,0.5-2.2,0.4-3.5c-0.1-0.9-0.2-1.9-0.5-2.7c-0.2-0.9-0.6-1.6-1.1-2.2c-0.5-0.6-1.2-1.2-1.8-1.5c-0.8-0.3-1.6-0.5-2.6-0.5
		l-5.3,0.3l0.3-0.3l0.7,14.8l-0.2-0.2L462.1,594.8z"/>
	<path class="st3" d="M480.5,580.5l-5.6,15.6c-0.1,0.3-0.2,0.5-0.4,0.7c-0.2,0.2-0.5,0.3-0.8,0.3c-0.4,0.1-0.7-0.1-0.9-0.3
		c-0.2-0.2-0.3-0.5-0.4-0.8c-0.1-0.2,0-0.3,0.1-0.5l6.3-17.7c0.1-0.3,0.3-0.6,0.6-0.8s0.5-0.3,0.8-0.3s0.5,0.1,0.8,0.2
		c0.3,0.1,0.5,0.3,0.6,0.7l7.9,16.7c0.1,0.2,0.1,0.3,0.1,0.6c0.1,0.4-0.1,0.7-0.3,1s-0.6,0.4-0.8,0.4c-0.3,0-0.5-0.1-0.8-0.2
		c-0.2-0.1-0.4-0.5-0.6-0.7l-7.2-14.8L480.5,580.5z M475.7,591.9l1.1-2.7l7.9-0.4l0.6,2.7L475.7,591.9z"/>
	<path class="st3" d="M490.1,579c-0.4,0.1-0.7-0.1-1-0.3c-0.3-0.3-0.4-0.6-0.5-1s0.1-0.7,0.4-1s0.6-0.4,1-0.5l12.8-0.7
		c0.4-0.1,0.7,0.1,1,0.3c0.3,0.3,0.4,0.6,0.5,1s-0.1,0.7-0.3,1c-0.3,0.3-0.6,0.4-1,0.5L490.1,579z M497.3,595.6
		c-0.4,0.1-0.8-0.1-1.1-0.4c-0.3-0.3-0.4-0.6-0.5-1l-0.8-16.9l3-0.2l0.8,17c0.1,0.4-0.1,0.7-0.3,1S497.8,595.7,497.3,595.6z"/>
	<path class="st3" d="M513.2,578.7l-5.6,15.6c-0.1,0.3-0.2,0.5-0.4,0.7s-0.5,0.3-0.8,0.3c-0.4,0.1-0.7-0.1-0.9-0.3
		c-0.2-0.2-0.3-0.5-0.4-0.8c-0.1-0.2,0-0.3,0.1-0.5l6.3-17.7c0.1-0.3,0.3-0.6,0.6-0.8c0.2-0.2,0.5-0.3,0.8-0.3s0.5,0.1,0.8,0.2
		c0.2,0.1,0.5,0.3,0.6,0.7l7.9,16.7c0.1,0.2,0.1,0.3,0.1,0.6c0.1,0.4-0.1,0.7-0.3,1s-0.6,0.4-0.8,0.4c-0.3,0-0.5-0.1-0.8-0.2
		c-0.3-0.1-0.4-0.5-0.6-0.7l-7.2-14.8L513.2,578.7z M508.5,590.3l1.1-2.7l7.9-0.4l0.6,2.7L508.5,590.3z"/>
</g>
<path class="st2" d="M192.3,484.2c-22.5,11-31.7,38.2-20.5,60.7c11,22.5,38.2,31.7,60.7,20.5c22.5-11,31.7-38.2,20.5-60.7
	C241.9,482.4,214.8,473.2,192.3,484.2z"/>
<path class="st3" d="M194,487.8c-20.4,10.1-28.9,35-18.8,55.4c10.1,20.4,35,28.8,55.4,18.8c20.4-10.1,28.9-35,18.8-55.4
	C239.4,486.1,214.6,477.7,194,487.8z"/>
<path class="st4" d="M196.3,492.2c-18.1,8.9-25.5,30.8-16.6,48.9c8.9,18.1,30.8,25.5,48.9,16.6s25.5-30.8,16.6-48.9
	C236.2,490.7,214.4,483.3,196.3,492.2z"/>
<g class="st5">
	<path class="st3" d="M194,507.2c1.2,0.3,2.3,0.9,3.1,1.6s1.4,1.5,1.8,2.5c0.4,1,0.6,2,0.6,3.2c0,1.1-0.1,2.4-0.4,3.5
		c-0.5,1.6-1.2,3-2,4.1c-0.9,1.2-2,1.9-3.4,2.4c-1.3,0.4-2.8,0.5-4.4,0l-6.1-1.6c-0.4-0.1-0.6-0.3-0.8-0.6s-0.3-0.7-0.1-1l4.1-14.9
		c0.1-0.4,0.3-0.6,0.6-0.8c0.3-0.2,0.6-0.2,1-0.1L194,507.2z M189.7,522.2c1.2,0.3,2.2,0.3,3.1-0.1c0.9-0.3,1.6-1,2.3-1.9
		c0.6-0.9,1.1-1.8,1.4-3c0.2-0.8,0.4-1.7,0.3-2.5c0-0.8-0.1-1.5-0.3-2.2c-0.3-0.7-0.7-1.3-1.1-1.8c-0.6-0.5-1.3-0.9-2.1-1.2
		l-4.7-1.2l0.3-0.2l-3.6,13.1l-0.1-0.2L189.7,522.2z"/>
	<path class="st3" d="M209.8,515l-9.3,11.9c-0.2,0.2-0.4,0.4-0.6,0.5c-0.2,0.1-0.5,0.1-0.8,0c-0.4-0.1-0.6-0.3-0.7-0.5
		c-0.1-0.2-0.1-0.5-0.1-0.8c0-0.2,0.1-0.2,0.2-0.4l10.5-13.6c0.2-0.2,0.4-0.5,0.7-0.5s0.5-0.1,0.8,0c0.2,0.1,0.4,0.2,0.6,0.4
		s0.3,0.4,0.3,0.7l2.1,16.8c0,0.2,0,0.3-0.1,0.5c-0.1,0.4-0.3,0.6-0.6,0.8s-0.6,0.2-0.8,0.1c-0.2-0.1-0.4-0.2-0.6-0.4
		c-0.2-0.1-0.3-0.5-0.3-0.7l-2-14.9L209.8,515z M202.4,523.6l1.7-2.1l7,1.9l-0.3,2.5L202.4,523.6z"/>
	<path class="st3" d="M218.5,516.5c-0.4-0.1-0.6-0.3-0.8-0.6s-0.2-0.6-0.1-1c0.1-0.4,0.3-0.6,0.7-0.7c0.3-0.2,0.6-0.2,1-0.1
		l11.4,3.1c0.4,0.1,0.6,0.3,0.8,0.6s0.2,0.6,0.1,1c-0.1,0.4-0.3,0.6-0.6,0.8s-0.6,0.2-1,0.1L218.5,516.5z M220.1,533
		c-0.4-0.1-0.7-0.3-0.9-0.6s-0.2-0.6-0.1-1l4.1-14.9l2.7,0.7l-4.2,15c-0.1,0.4-0.3,0.6-0.6,0.8S220.5,533.3,220.1,533z"/>
	<path class="st3" d="M238.7,522.9l-9.3,11.9c-0.2,0.2-0.4,0.4-0.6,0.5c-0.2,0.1-0.5,0.1-0.8,0c-0.4-0.1-0.6-0.3-0.7-0.5
		c-0.1-0.2-0.1-0.5-0.1-0.8c0-0.2,0.1-0.2,0.2-0.4l10.5-13.6c0.2-0.2,0.4-0.5,0.7-0.5c0.2-0.1,0.5-0.1,0.8,0
		c0.2,0.1,0.4,0.2,0.6,0.4c0.2,0.1,0.3,0.4,0.3,0.7l2.1,16.8c0,0.2,0,0.3-0.1,0.5c-0.1,0.4-0.3,0.6-0.6,0.8s-0.6,0.2-0.8,0.1
		c-0.2-0.1-0.4-0.2-0.6-0.4c-0.2-0.2-0.3-0.5-0.3-0.7l-2-14.9L238.7,522.9z M231.3,531.6l1.7-2.1l7,1.9l-0.3,2.5L231.3,531.6z"/>
</g>
<path class="st1" d="M242.3,462.7c-26,53-93.3-94.7-178-86c-17,1.8-53.2-32.5-47-49s95.7,9,135.8,24.1S250.1,446.9,242.3,462.7z"/>
<g id="man">
	
		<rect x="121.8" y="204.3" transform="matrix(0.4461 -0.895 0.895 0.4461 -126.9847 263.8329)" class="st6" width="55.8" height="60.4"/>
	<path class="st6" d="M150.5,253.3c0,0-10.8,30.9-13.2,33.7c-11.9,14.2-79.4,47-79.4,47L38,303.5l1.7-1l-1.7,1
		c0.1,0,0.1-0.1,0.2-0.1c5.3-3.2,10.6-6.5,15.9-9.7c8.8-5.4,17.6-10.7,26.4-16.1c3.4-2.1,6.7-4.1,10.1-6.2c1.2-0.7,2.8-1.2,3.7-2.2
		c0.8-0.9,1.8-4.9,2.4-7.2c0.9-3.3,1.7-6.7,2.6-10c1.7-6.6,3.7-13.2,5.4-19.8l8.1-28.6c2.3-8.2,10.1-16.4,14-22.9"/>
	<path class="st7" d="M57.8,335c0.2,0,0.4,0,0.5-0.1c2.8-1.3,67.8-33.1,79.7-47.2c2.4-2.9,12.3-30.8,13.4-34c0.2-0.5-0.1-1-0.6-1.2
		s-1,0.1-1.2,0.6c-4.3,12.3-11.4,31.4-13.1,33.4c-10.9,13.1-70.8,42.7-78.3,46.4l-18.9-29l0.8-0.5c0.1,0,0.2-0.1,0.2-0.2L91,272.3
		c0.3-0.2,0.8-0.4,1.2-0.6c1-0.5,2-1,2.7-1.8c0.8-0.9,1.6-3.7,2.4-7l0.7-2.8c0.7-2.6,1.4-5.2,2.1-7.8c0.9-3.5,1.9-7,2.9-10.4
		c0.9-3.1,1.7-6.2,2.6-9.3l8.1-28.6c1.5-5.4,5.6-10.9,9.1-15.7c1.8-2.4,3.5-4.8,4.8-6.9c0.3-0.4,0.1-1-0.3-1.3
		c-0.5-0.3-1-0.1-1.3,0.3c-1.3,2.1-2.9,4.4-4.7,6.8c-3.7,5-7.8,10.7-9.4,16.3l-8.1,28.6c-0.8,3.1-1.7,6.3-2.6,9.3
		c-1,3.4-1.9,7-2.9,10.5c-0.7,2.6-1.4,5.2-2.1,7.8l-0.7,2.8c-0.5,1.8-1.4,5.5-2,6.2c-0.5,0.5-1.3,0.9-2.1,1.3
		c-0.5,0.2-0.9,0.5-1.4,0.7l-52.6,32c0,0,0,0-0.1,0c-0.4,0.3-0.5,0.8-0.3,1.3c0,0.1,0.1,0.1,0.1,0.2l19.8,30.4
		C57.2,334.8,57.5,335,57.8,335z"/>
	<path class="st6" d="M188.7,225c0,0,30.1,62.9,31.6,66.6c7.4,17.9,1.9,82.1,1.9,82.1l-38.2,2.7l-0.1-2l0.1,2.1
		c-0.2-3.1-0.4-6.1-0.6-9.2c-1-15.7-2.5-31.4-2.7-47.1c0-2.9,0.1-5.8-0.3-8.8c-0.3-2.5-1.5-4.3-2.7-6.5c-2.6-4.6-5.3-9.1-8.3-13.5
		c-5.9-8.9-12.6-17.3-20.3-24.8"/>
	<path class="st7" d="M183.8,377.5c0.1,0,0.1,0,0.2,0c0.1,0,0.2,0,0.2,0l38-2.7c0.5,0,0.9-0.4,0.9-0.9c0.2-2.6,5.4-64.6-2-82.6
		c-1.5-3.6-30.4-64-31.6-66.6c-0.2-0.5-0.8-0.7-1.3-0.5s-0.7,0.8-0.5,1.3c0.3,0.6,30.1,63,31.6,66.5c6.7,16.4,2.5,73.2,1.9,80.8
		l-36.4,2.6v-1c0-0.1,0-0.2-0.1-0.3l-0.4-6.9c-0.3-4.6-0.6-9.4-1-13.9c-0.8-10.9-1.6-22.1-1.7-33.2c0-0.7,0-1.4,0-2.2
		c0-2.2,0-4.4-0.3-6.7c-0.3-2.4-1.3-4.2-2.4-6.2l-0.4-0.7c-2.7-4.7-5.4-9.3-8.3-13.6c-6.4-9.5-13.2-17.9-20.4-24.9
		c-0.4-0.4-1-0.4-1.4,0s-0.4,1,0,1.4c7.1,6.9,13.9,15.2,20.2,24.6c2.8,4.2,5.6,8.8,8.2,13.5l0.4,0.7c1,1.8,1.9,3.4,2.2,5.4
		c0.2,2.1,0.2,4.3,0.2,6.5c0,0.7,0,1.4,0,2.2c0.1,11.1,0.9,22.4,1.7,33.3c0.3,4.6,0.7,9.3,1,13.9l0.6,9.1v0.1
		C183,377,183.4,377.4,183.8,377.5z"/>
	<path class="st6" d="M188.7,225c6.9-9.3,3.8-4.8,10.8-14.8c0,0-2.3,6.4,5.7,21.8c6.6,12.7,26.7,23.3,26.7,23.3l16.4-4.7
		c0.6-0.6-17.9-36.7-18.7-40.9c-3-15,2-30.1,2.4-45.2c0.5-15.3-4.4-21-14.7-29.9c-8.6-7.5-19-14.6-29.6-18.3
		c-13.6-4.7-29.5-4.4-43.7-4.5c-14.6-0.1-29.3,0.9-43.7,3.8C85.4,118.5,80,128,80.8,143.7c0.1,2.2,5.1,31.3,6.3,30.9
		c-1.8,0.7,18.6,0.6,20.6,1c-0.6-0.1,1.5-23.2,2-25.1c1.3-4.8,15.7-2.7,20.5-2.2c6.9,0.8,13.8,2.6,10,9.9c-5,9.4-5.5,9.5-10.5,17.6
		c-5.4,8.8-7.8,12-11.2,17.3"/>
	<path class="st8" d="M188.6,226c0.5,0.1,1-0.3,1.1-0.8s-0.2-1.1-0.8-1.2c-7.7-1.7-22.2-7.3-38.8-15c-14.7-6.8-27.2-13.6-29.7-16
		c-0.4-0.4-1-0.4-1.4,0s-0.4,1,0,1.4c5.5,5.5,51.6,27.6,69.5,31.5C188.5,226,188.5,226,188.6,226z"/>
	<g id="feet">
		<path class="st9" d="M182.9,391.4l-0.8-7.3c-0.5-4.3,2.7-8.2,7-8.7l34.7-3.8c4.3-0.5,8.2,2.7,8.7,7l0.8,7.3c0.5,4.3-2.7,8.2-7,8.7
			l-34.7,3.8C187.3,398.8,183.3,395.7,182.9,391.4z"/>
		<path class="st9" d="M23.3,307.1l6.3-3.9c3.7-2.3,8.6-1.1,10.9,2.6l18.4,29.7c2.3,3.7,1.1,8.6-2.6,10.9l-6.3,3.9
			c-3.7,2.3-8.6,1.1-10.9-2.6L20.7,318C18.4,314.2,19.6,309.3,23.3,307.1z"/>
	</g>
	<path class="st7" d="M231.4,256.3c-0.8-0.4-20.4-10.9-27.1-23.8c-4.7-9.1-5.9-15.2-6.1-18.7c-2.6,3.6-3,4.2-4.2,5.8
		c-0.9,1.1-2,2.6-4.5,6c-0.3,0.4-0.9,0.5-1.4,0.2c-0.4-0.3-0.5-0.9-0.2-1.4c2.5-3.4,3.7-4.9,4.5-6c1.5-1.9,1.8-2.3,6.3-8.7
		c0.3-0.4,0.8-0.5,1.3-0.3c0.4,0.2,0.6,0.7,0.5,1.2c0,0.1-2,6.4,5.6,21c5.9,11.4,23.3,21.3,25.9,22.7l15.1-4.4
		c-1-2.4-4.4-9.5-7.5-15.9c-6.2-12.8-10.5-22-11-24.2c-1.9-9.7-0.6-19.6,0.8-29.2c0.7-5.3,1.5-10.9,1.7-16.2
		c0.5-14.8-4-20.2-14.3-29.1c-10.2-8.8-20-14.9-29.2-18.1c-12.3-4.2-26.2-4.3-39.6-4.4c-1.3,0-2.5,0-3.8,0
		c-15.7-0.2-29.9,1.1-43.5,3.8C87,119.3,81.2,127.7,82,143.7c0.1,2.4,4.5,27.3,5.8,30.1c0.1,0,0.1,0.1,0.2,0.1
		c1.6,0.2,7.3,0.3,11.2,0.4c3.5,0.1,6.1,0.1,7.6,0.2c0-1.5,0.1-4.6,0.7-11.2c0.5-5.5,1.1-12,1.4-13c1.2-4.7,10.6-4.2,20.6-3l1,0.1
		c4.4,0.5,9.7,1.5,11.4,4.8c0.9,1.8,0.7,4-0.7,6.6c-3.6,6.8-4.9,8.7-7.1,12.3c-0.9,1.4-1.9,3.1-3.4,5.4c-3.6,5.9-5.9,9.3-8,12.5
		c-1,1.6-2,3.1-3.2,4.8c-0.3,0.5-0.9,0.6-1.4,0.3s-0.6-0.9-0.3-1.4c1.1-1.7,2.1-3.3,3.2-4.8c2.1-3.2,4.3-6.5,8-12.4
		c1.4-2.3,2.5-4,3.4-5.4c2.2-3.5,3.5-5.5,7-12.2c1-2,1.3-3.5,0.7-4.7c-1.3-2.5-6.2-3.3-9.9-3.7l-1-0.1c-11.6-1.4-17.8-0.9-18.4,1.6
		c-0.4,1.7-2.3,22-2,24.4c0.1,0.2,0.1,0.4,0.1,0.6c-0.1,0.5-0.6,0.9-1.2,0.8c-0.7-0.1-4.9-0.2-8.6-0.3c-12.4-0.3-12.7-0.3-12.9-1.3
		c-0.6-0.9-1.5-3.9-3.6-15.1c-1.4-7.5-2.6-14.9-2.6-16c-0.8-17,5.6-26.2,20.3-29.1c13.8-2.7,28.1-4,43.9-3.8c1.2,0,2.5,0,3.8,0
		c13.6,0.1,27.7,0.2,40.3,4.5c9.4,3.2,19.5,9.5,29.9,18.5c10.6,9.1,15.5,15.2,15,30.7c-0.2,5.5-0.9,11.1-1.7,16.5
		c-1.3,9.4-2.7,19.1-0.8,28.5c0.4,2.1,6.2,14.1,10.8,23.7c8.4,17.4,8.3,17.4,7.6,18.1c-0.1,0.1-0.3,0.2-0.4,0.2l-16.4,4.7
		c-0.1,0-0.3,0-0.4,0C231.6,256.4,231.5,256.3,231.4,256.3z M87.5,175.5L87.5,175.5L87.5,175.5z M107.9,174.6L107.9,174.6
		L107.9,174.6z M107.9,174.6L107.9,174.6L107.9,174.6z M107.9,174.6L107.9,174.6L107.9,174.6z M107.9,174.6L107.9,174.6L107.9,174.6
		z M107.9,174.6L107.9,174.6L107.9,174.6z M107.9,174.6L107.9,174.6L107.9,174.6z M107.9,174.6L107.9,174.6L107.9,174.6z
		 M107.9,174.6L107.9,174.6L107.9,174.6z M107.9,174.6L107.9,174.6L107.9,174.6z M107.9,174.6L107.9,174.6L107.9,174.6z
		 M107.9,174.6L107.9,174.6L107.9,174.6z M107.9,174.6L107.9,174.6L107.9,174.6z M107.9,174.6L107.9,174.6L107.9,174.6z"/>
	<path class="st7" d="M185.2,397.4c-1.9-1.5-3-3.6-3.3-6l-0.8-7.3c-0.3-2.4,0.4-4.7,1.9-6.5c1.5-1.9,3.6-3,6-3.3l34.7-3.8
		c4.9-0.5,9.3,3,9.8,7.9l0.8,7.3c0.3,2.4-0.4,4.7-1.9,6.5s-3.6,3-6,3.3l-34.7,3.8c-0.6,0.1-1.3,0.1-1.9,0
		C188.1,399.2,186.5,398.5,185.2,397.4z M223.9,372.5l-34.7,3.8c-1.8,0.2-3.5,1.1-4.6,2.6c-1.2,1.4-1.7,3.2-1.5,5.1l0.8,7.3
		c0.2,1.8,1.1,3.5,2.6,4.6c1.4,1.2,3.2,1.7,5.1,1.5l34.7-3.8c1.8-0.2,3.5-1.1,4.6-2.6c1.2-1.4,1.7-3.2,1.5-5.1l-0.8-7.3
		c-0.4-3.3-3-5.8-6.2-6.1C224.9,372.4,224.4,372.4,223.9,372.5z"/>
	<circle class="st10" cx="177.5" cy="171.5" r="32.2"/>
	<path class="st6" d="M192.7,188l-1.4-25.1c0-0.5,0.3-0.8,0.8-0.9c0.5,0,0.8,0.3,0.9,0.8l1.4,25.1c0,0.5-0.3,0.8-0.8,0.9
		c-0.1,0-0.2,0-0.3-0.1C192.9,188.6,192.7,188.3,192.7,188z"/>
	<path class="st6" d="M173.5,180.8c-0.3-0.3-0.3-0.8,0-1.2l18.1-17.5c0.3-0.3,0.8-0.3,1.2,0c0.3,0.3,0.3,0.8,0,1.2l-18.1,17.5
		c-0.2,0.2-0.6,0.3-0.9,0.2C173.6,181,173.5,180.9,173.5,180.8z"/>
	<path class="st6" d="M173.2,180.3l-1.4-25.1c0-0.5,0.3-0.8,0.8-0.9c0.5,0,0.8,0.3,0.9,0.8l1.4,25.1c0,0.5-0.3,0.8-0.8,0.9
		c-0.1,0-0.2,0-0.3-0.1C173.5,180.9,173.2,180.6,173.2,180.3z"/>
	<path class="st6" d="M154,173.2c-0.3-0.3-0.3-0.8,0-1.2l18.1-17.5c0.3-0.3,0.8-0.3,1.2,0c0.3,0.3,0.3,0.8,0,1.2l-18.1,17.5
		c-0.2,0.2-0.6,0.3-0.9,0.2C154.2,173.3,154.1,173.3,154,173.2z"/>
	<ellipse transform="matrix(0.3663 -0.9305 0.9305 0.3663 -53.4304 299.4413)" class="st6" cx="193.1" cy="188.9" rx="3" ry="3.1"/>
	<ellipse transform="matrix(0.3663 -0.9305 0.9305 0.3663 -58.2825 276.2952)" class="st6" cx="173.7" cy="180.9" rx="3" ry="3.1"/>
	<ellipse transform="matrix(0.3663 -0.9305 0.9305 0.3663 -63.6045 253.7244)" class="st6" cx="154.5" cy="173.6" rx="3" ry="3.1"/>
	<path class="st6" d="M183.4,105.1c0.1-0.5-1.3-0.6-1.6-0.7c-0.8-0.4-1.4-1.1-1.8-1.8c-0.6-1-1-2.2-1.3-3.5
		c-0.3-1.2-0.5-2.4-0.4-3.7c0.3-3.2,3.3-9.2,6.3-8.1c0.9,0.3,1.1,0.7,1.7,1.4c0.1,0.1,1.9,2.4,1.8,2.6l2.9-7.9
		c4.3-11.7,15.9-18.5,25.7-15l10.2,3.6c9.8,3.5,14.2,15.9,9.9,27.6l-6.3,17c-4.3,11.7-15.9,18.5-25.7,15l-10.2-3.6
		C185.7,124.8,180.7,115.9,183.4,105.1z"/>
	<path class="st7" d="M204.5,132.5l-10.2-3.6l0,0c-9.6-3.4-14.4-12.8-12-23.4c-0.1,0-0.1,0-0.2,0c-0.3-0.1-0.6-0.1-0.8-0.2
		c-0.9-0.5-1.6-1.2-2.2-2.2c-0.8-1.3-1.2-2.8-1.4-3.8c-0.4-1.6-0.5-2.8-0.4-4c0.2-2.8,2.2-7,4.5-8.5c1-0.7,2.1-0.8,3.1-0.4
		s1.3,0.8,1.8,1.3c0.1,0.1,0.2,0.2,0.3,0.3c0.1,0.2,0.5,0.5,0.8,1c0.7-1.9,1.7-4.6,2.2-6c4.5-12.3,16.6-19.3,26.9-15.6l10.2,3.6
		c4.4,1.6,8,4.9,10.1,9.4c2.7,5.8,2.9,12.9,0.4,19.4l-6.3,17c-4,10.7-13.8,17.5-23.1,16.5C207.1,133.2,205.8,133,204.5,132.5z
		 M192,83.7c-2.2,6-2.8,7.4-2.9,7.8l0,0l0,0c0,0.1,0,0.1,0,0.1c-0.2,0.5-0.8,0.7-1.3,0.4c-0.3-0.1-0.5-0.4-0.6-0.7
		c-0.3-0.4-1.4-1.9-1.6-2.1c-0.1-0.1-0.2-0.3-0.3-0.4c-0.4-0.4-0.5-0.6-1-0.7c-0.1-0.1-0.6-0.2-1.3,0.2c-1.8,1.1-3.4,4.8-3.6,7
		c-0.1,1,0,2,0.3,3.4s0.7,2.4,1.2,3.2c0.4,0.6,0.9,1.1,1.4,1.4c0.1,0,0.2,0,0.3,0.1c0.6,0.1,1.4,0.3,1.7,0.9
		c0.2,0.3,0.2,0.6,0.1,0.9c-2.5,9.9,1.8,18.6,10.6,21.7l10.2,3.6c9.3,3.3,20.3-3.2,24.4-14.4l6.3-17c2.3-6.1,2.1-12.6-0.4-17.9
		c-1.9-4.1-5.1-7.1-9-8.4l-10.2-3.6c-1.1-0.4-2.3-0.7-3.4-0.8C204.5,67.6,195.6,73.8,192,83.7z M182.5,104.8L182.5,104.8
		L182.5,104.8z M187.2,90.9L187.2,90.9L187.2,90.9z M187.2,90.9L187.2,90.9L187.2,90.9z"/>
	<path class="st6" d="M215.5,118.8c-6.5,1.8-10.6,0.8-15-4.7"/>
	<path class="st7" d="M209,120.1c1.9,0.2,4.1-0.1,6.6-0.8c0.3-0.1,0.4-0.3,0.3-0.6c-0.1-0.3-0.3-0.4-0.6-0.3
		c-6.6,1.8-10.4,0.6-14.5-4.5c-0.2-0.2-0.5-0.2-0.7-0.1c-0.2,0.2-0.2,0.5-0.1,0.7C202.9,117.9,205.6,119.7,209,120.1z"/>
	<path class="st6" d="M217.2,104.2c0.7-2.9,3.5-4.8,6.2-4.2c2.7,0.6,4.4,3.4,3.7,6.3c-0.1,0.3-0.2,0.6-0.3,0.9"/>
	<path class="st10" d="M226.8,107.7c0.2,0,0.4-0.1,0.5-0.3c0.1-0.3,0.3-0.7,0.3-1c0.4-1.6,0.1-3.2-0.7-4.5c-0.8-1.2-2-2.1-3.4-2.4
		c-3-0.6-6.1,1.4-6.8,4.6c-0.1,0.3,0.1,0.5,0.4,0.6c0.3,0.1,0.5-0.1,0.6-0.4c0.6-2.6,3.2-4.3,5.7-3.8c1.1,0.2,2.1,0.9,2.7,1.9
		c0.7,1.1,0.9,2.4,0.6,3.8c-0.1,0.3-0.2,0.6-0.3,0.8c-0.1,0.3,0,0.5,0.3,0.6C226.7,107.7,226.7,107.7,226.8,107.7z"/>
	<path class="st6" d="M196.2,98.4c0.7-2.9,3.5-4.8,6.2-4.2c2.7,0.6,4.4,3.4,3.7,6.3c-0.1,0.3-0.2,0.6-0.3,0.9"/>
	<path class="st10" d="M205.8,101.9c0.2,0,0.4-0.1,0.5-0.3c0.1-0.3,0.3-0.7,0.3-1c0.4-1.6,0.1-3.2-0.7-4.5c-0.8-1.2-2-2.1-3.4-2.4
		c-3-0.6-6.1,1.4-6.8,4.6c-0.1,0.3,0.1,0.5,0.4,0.6c0.3,0.1,0.5-0.1,0.6-0.4c0.6-2.6,3.2-4.3,5.7-3.8c1.1,0.2,2.1,0.9,2.7,1.9
		c0.7,1.1,0.9,2.4,0.6,3.8c-0.1,0.3-0.2,0.6-0.3,0.8c-0.1,0.3,0,0.5,0.3,0.6C205.7,101.9,205.8,101.9,205.8,101.9z"/>
	<path class="st9" d="M250,63.7c7.4,17-6.4,30.2-13.8,39.3c6.1-23.8-4.3-22.1-11.4-24.6c-4.9-1.7-13.5-9-22.5-6.1
		c-8.9,3-12.4,14.7-14.2,16.7c-0.8-0.3-3-1.3-3.1-3.5c-0.5-12.6,13.3-50.4,45-28.1C236.4,62,240.3,68.6,250,63.7z"/>
	<path class="st7" d="M235.8,103.9c-0.4-0.2-0.6-0.7-0.5-1.1c2.3-8.9,2.4-14.8,0.4-18.1c-1.7-2.8-4.7-3.6-7.9-4.3
		c-1.1-0.3-2.2-0.5-3.2-0.9c-1.3-0.5-2.9-1.3-4.6-2.2c-4.9-2.6-11-5.9-17.2-3.8c-6.3,2.1-9.8,9-11.9,13.2c-0.8,1.6-1.4,2.7-1.9,3.3
		c-0.3,0.3-0.7,0.4-1.1,0.3c-0.6-0.2-3.7-1.5-3.8-4.4c-0.3-8.4,5.3-26.8,17.7-33.5c8.4-4.6,18.1-3,28.8,4.5l0,0c1.3,0.9,2.6,2,3.8,3
		c4.5,3.8,8.1,6.8,15.2,3.2c0.2-0.1,0.5-0.1,0.8,0s0.5,0.3,0.6,0.5c6.8,15.7-3.7,28.1-11.3,37.2c-0.9,1.1-1.8,2.1-2.6,3.1
		c-0.2,0.3-0.5,0.4-0.9,0.4C236,104,235.9,104,235.8,103.9z M233.1,61.2c-1.2-1-2.3-2-3.6-2.9l0,0c-10.1-7.1-19.1-8.6-26.8-4.4
		c-11.5,6.2-16.9,23.9-16.6,31.7c0,1.1,1.1,1.9,1.8,2.3c0.3-0.6,0.8-1.4,1.2-2.3c2.2-4.4,5.9-11.8,13-14.2c7-2.3,13.8,1.3,18.8,4
		c1.7,0.9,3.2,1.7,4.3,2.1c1,0.3,2,0.6,3.1,0.8c3.3,0.8,7,1.7,9.1,5.2c2,3.3,2.2,8.3,0.7,15.6c7.2-8.5,16.8-20,11.3-34.1
		C241.8,68.5,237.6,64.9,233.1,61.2z M230.1,57.5L230.1,57.5L230.1,57.5z"/>
	<path class="st7" d="M38.2,348.1l-18.4-29.7c-1.2-2-1.6-4.4-1.1-6.7c0.5-2.3,2-4.3,4-5.5l6.3-3.9c2-1.2,4.4-1.6,6.7-1.1
		s4.3,2,5.5,4l18.4,29.7c1.2,2,1.6,4.4,1.1,6.7c-0.5,2.3-2,4.3-4,5.5l-6.3,3.9c-1.7,1.1-3.7,1.5-5.6,1.3
		C42.2,352,39.7,350.6,38.2,348.1z M30.1,304l-6.3,3.9c-1.6,1-2.7,2.5-3.1,4.3s-0.1,3.7,0.8,5.2l18.4,29.7c2,3.2,6.3,4.3,9.5,2.2
		l6.3-3.9c1.6-1,2.7-2.5,3.1-4.3c0.4-1.8,0.1-3.7-0.8-5.2l-18.4-29.7c-1-1.6-2.5-2.7-4.3-3.1c-0.3-0.1-0.6-0.1-0.9-0.2
		C32.9,302.9,31.4,303.2,30.1,304z"/>
</g>
<g id="dig_1_">
	<path class="st11" d="M75.9,168.3l237,136.2c2.3,1.3,3.1,4.3,1.8,6.7l-0.7,1.2c-1.3,2.3-4.3,3.1-6.7,1.8L70.4,178
		c-2.3-1.3-3.1-4.3-1.8-6.7l0.7-1.2C70.6,167.8,73.6,166.9,75.9,168.3z"/>
	<path class="st7" d="M293.1,342.6c11.3-13,17.8-24.8,17.8-24.8l1.6,0.9l7.5-12.8l-1.7-1c0,0,5.1-8.6,12.1-24.2
		c6.5-14.4,10.4-28.8,10.4-28.8l-9-2.7c0,0-5.6,18.6-10.5,29.9s-10.9,21.3-10.9,21.3l-4.7-2.8l-7.6,13.1l5,2.9
		c0,0-8.3,14.5-14.3,22.3c-16.7,21.8-25.2,28.9-25.1,30.2C263.9,367.5,278.3,359.7,293.1,342.6z"/>
</g>
<g id="hands">
	<path class="st6" d="M232.2,271l-0.4-15.7l17.2-4c1.4,3.2,2.6,5.1,3.7,6.9c1.2,2,2.4,3.9,3.9,7.4l0.1,0.2c0.3,0.6,0.4,1.3,0.5,1.9
		c0.4,3.1-1.3,6.1-4,7.3c-0.4,0.2-0.8,0.3-1.2,0.4l-11.6,2.5c-1.7,0.4-3.5,0-5-1s-2.6-2.6-3-4.5c0-0.2-0.1-0.4-0.1-0.6
		C232.3,271.3,232.3,271.2,232.2,271z"/>
	<path class="st7" d="M256.2,267.7c0.3,2.7-1.1,5.3-3.4,6.3c-0.3,0.1-0.6,0.2-1,0.3l-11.6,2.5c-1.5,0.3-3,0-4.3-0.9
		s-2.2-2.3-2.6-3.9c0-0.2-0.1-0.4-0.1-0.5s0-0.3,0-0.4l-0.4-14.9l15.7-3.7c1.3,2.8,2.4,4.6,3.4,6.3c1.2,1.9,2.4,3.8,3.8,7.2v0.1v0.1
		C256,266.6,256.1,267.1,256.2,267.7 M258.1,267.5c-0.1-0.7-0.3-1.4-0.6-2.1c0-0.1,0-0.1-0.1-0.2c-3-7.2-4.9-7.8-7.9-15l-18.8,4.4
		l0.4,16.5c0,0.2,0,0.4,0,0.6s0.1,0.5,0.1,0.7c0.9,4.3,5,7.1,9.1,6.3l11.6-2.5c0.5-0.1,0.9-0.2,1.3-0.4
		C256.8,274.3,258.5,270.9,258.1,267.5L258.1,267.5z"/>
	<path class="st6" d="M84,190.9l4.1-15.9l18.1,0.8c0.4,3.6,1.1,5.8,1.7,8c0.7,2.3,1.3,4.5,1.7,8.5v0.2c0.1,0.7,0.1,1.4-0.1,2.1
		c-0.5,3.2-3,5.8-6,6.2c-0.4,0-0.8,0.1-1.2,0L90.1,200c-1.8-0.1-3.5-1-4.7-2.5s-1.8-3.4-1.6-5.4c0-0.2,0-0.4,0.1-0.6
		C84,191.2,84,191,84,190.9z"/>
	<path class="st7" d="M108.6,194.3c-0.4,2.8-2.6,5-5.2,5.3c-0.3,0-0.7,0.1-1.1,0l-12.1-0.8c-1.5-0.1-2.9-0.9-4-2.1
		c-1-1.3-1.5-2.9-1.4-4.7c0-0.2,0-0.4,0.1-0.6c0-0.1,0.1-0.3,0.1-0.4l3.9-15.1l16.5,0.7c0.4,3.2,1,5.3,1.6,7.3
		c0.6,2.3,1.2,4.5,1.7,8.3v0.1v0.1C108.7,193.1,108.7,193.7,108.6,194.3 M110.5,194.6c0.1-0.7,0.1-1.5,0.1-2.3c0-0.1,0-0.1,0-0.2
		c-0.9-8-2.6-9.2-3.5-17.3l-19.7-0.9l-4.3,16.7c0,0.2-0.1,0.4-0.1,0.6c0,0.2-0.1,0.5-0.1,0.7c-0.3,4.6,2.9,8.6,7.2,8.9l12.2,0.8
		c0.5,0,1,0,1.4,0C107.2,201.1,110,198.2,110.5,194.6L110.5,194.6z"/>
</g>
<g id="man-large">
	<path class="st6" d="M738.5,331.2c4,9.8,12.9,22.8,14.4,34.6l5.2,41.5c1.1,9.5,2.4,19,3.3,28.7c0.5,4.8,1,9.6,1.5,14.5
		c0.3,3.3,0.9,9.1,1.8,10.5c1,1.6,3.1,2.7,4.6,3.8c4.2,3.5,8.3,7.1,12.5,10.6c10.9,9.2,21.8,18.5,32.6,27.7
		c6.5,5.6,13.2,11.1,19.7,16.7c0.1,0.1,0.1,0.1,0.2,0.2l-2.1-1.7l2.1,1.7L801,558.5c0,0-85.2-59.2-98.5-81.4
		c-2.7-4.5-11.1-49.6-11.1-49.6"/>
	<path class="st6" d="M692.7,439.8c-11.5,8.3-22,18.2-31.5,28.7c-4.7,5.2-9.2,10.6-13.5,16.3c-2,2.6-4,4.8-4.8,8
		c-1,3.7-1.4,7.6-2,11.4c-3.3,20.7-8.3,41.1-12.7,61.5c-0.9,4-1.7,8-2.6,12l0.5-2.7l-0.5,2.7l-49.8-11c0,0,5.2-85.5,18.4-107.8
		c2.7-4.5,54.5-81.5,54.5-81.5"/>
	<path class="st6" d="M648.8,377.5c-7.4-13.6-4.1-7.1-11.3-21.6c0,0,1.8,8.9-11.7,27.6c-11.2,15.5-39.7,25.6-39.7,25.6l-20.6-9.4
		c-0.6-0.9,30.7-44.9,32.6-50.3c6.8-19.1,3.2-40.1,5.6-60c2.4-20.3,9.8-26.8,25.1-36.6c12.8-8.1,27.8-15.6,42.4-18.3
		c18.8-3.5,39.7,0,58.5,2.6c19.2,2.7,38.4,6.9,56.9,13.5c19,6.7,24.3,20.3,20.2,40.8c-0.5,2.9-12.7,40.3-14.3,39.5
		c2.2,1.3-24.6-2.8-27.3-2.7c0.9,0,2.6-30.8,2.2-33.4c-0.7-6.5-20.2-6.6-26.5-6.8c-9.2-0.3-18.7,0.7-15.1,11.1
		c4.8,13.4,5.3,13.6,10.4,25.2c5.5,12.6,7.9,17.3,11.3,24.9"/>
	<path class="st9" d="M611.2,605.1l-44.9-11.8c-5.6-1.5-9-7.3-7.5-12.8l2.5-9.5c1.5-5.6,7.3-9,12.8-7.5l44.9,11.8
		c5.6,1.5,9,7.3,7.5,12.8l-2.5,9.5C622.7,603.2,616.8,606.6,611.2,605.1z"/>
	<path class="st9" d="M852.8,544.7l-29.9,35.5c-3.7,4.4-10.4,5-14.9,1.3l-7.5-6.3c-4.4-3.7-5-10.4-1.3-14.9l29.9-35.5
		c3.7-4.4,10.4-5,14.9-1.3l7.5,6.3C856,533.6,856.5,540.2,852.8,544.7z"/>
	
		<rect x="658.3" y="360.3" transform="matrix(0.9505 -0.3107 0.3107 0.9505 -88.9173 236.6947)" class="st6" width="80.4" height="74.3"/>
	<circle class="st10" cx="673.9" cy="309.1" r="42.9"/>
	<path class="st8" d="M648.7,378.7c-0.6,0-1.2-0.5-1.3-1.2c0-0.7,0.5-1.4,1.2-1.4c10.5-0.7,30.7-5.2,54-12.2
		c20.7-6.1,38.5-12.6,42.2-15.4c0.5-0.4,1.4-0.3,1.8,0.3c0.4,0.5,0.3,1.4-0.3,1.8C737.9,356.9,672.9,377.1,648.7,378.7
		C648.8,378.7,648.8,378.7,648.7,378.7z"/>
	<g id="man_1_">
		<path class="st7" d="M800.9,559.9c-0.2,0-0.5-0.1-0.7-0.2c-3.5-2.5-85.6-59.7-98.9-81.8c-2.7-4.6-10.4-45.4-11.2-50
			c-0.1-0.7,0.3-1.4,1.1-1.5s1.4,0.3,1.5,1.1c3.3,18.1,9.1,46.1,10.9,49.2c12.2,20.4,87.7,73.7,97.1,80.3l31.8-36.6l-1.1-0.9
			c-0.1-0.1-0.2-0.2-0.2-0.3L768.5,466c-0.4-0.3-1-0.7-1.5-1.1c-1.3-0.9-2.6-1.8-3.3-3c-1-1.5-1.4-5.5-1.9-10.3l-0.4-4.1
			c-0.4-3.7-0.7-7.6-1.2-11.3c-0.5-5-1.2-10.2-1.7-15.1c-0.5-4.4-1.1-9-1.6-13.5l-5.2-41.5c-1-7.8-5.3-16.3-9.2-23.7
			c-1.9-3.7-3.7-7.4-5.1-10.6c-0.3-0.6,0-1.4,0.7-1.7c0.6-0.3,1.4,0,1.7,0.7c1.3,3.1,3.1,6.6,5,10.4c4,7.7,8.4,16.4,9.5,24.6
			l5.2,41.5c0.5,4.5,1.1,9.1,1.6,13.5c0.6,4.9,1.2,10.1,1.7,15.2c0.4,3.7,0.7,7.6,1.2,11.3l0.4,4.1c0.2,2.6,0.9,8,1.5,9.1
			c0.5,0.9,1.6,1.6,2.7,2.2c0.5,0.4,1.2,0.9,1.7,1.3l65,55.2c0,0,0.1,0,0.1,0.1c0.5,0.4,0.5,1.3,0.1,1.8c-0.1,0.1-0.1,0.2-0.2,0.2
			l-33.1,38.3C801.7,559.8,801.4,559.9,800.9,559.9z"/>
		<path class="st7" d="M625.6,579.1c-0.1,0-0.1,0-0.2,0c-0.1,0-0.2-0.1-0.3-0.1l-49.5-11c-0.6-0.1-1.1-0.7-1.1-1.4
			c0.2-3.5,5.5-86.2,18.6-108.3c2.7-4.5,52.4-78.5,54.5-81.6c0.4-0.6,1.2-0.7,1.8-0.3c0.6,0.4,0.7,1.2,0.3,1.8
			c-0.5,0.7-51.9,77.1-54.5,81.5c-12.1,20.3-17.5,95.9-18.2,106.1l47.4,10.5l0.2-1.3c0-0.1,0.1-0.2,0.1-0.3l1.9-9
			c1.3-6.1,2.7-12.2,4-18.2c3.1-14.1,6.4-28.8,8.7-43.3c0.1-1,0.3-1.9,0.4-2.8c0.4-2.9,0.9-5.9,1.6-8.8c0.9-3.1,2.6-5.3,4.4-7.6
			l0.6-0.9c4.4-5.8,9-11.2,13.6-16.3c10.3-11.3,20.8-21.1,31.8-28.9c0.5-0.4,1.4-0.3,1.8,0.3c0.4,0.6,0.3,1.4-0.3,1.8
			c-10.7,7.7-21.3,17.3-31.3,28.5c-4.5,5-9.1,10.5-13.5,16.1l-0.6,0.9c-1.7,2.2-3.2,4.2-3.8,6.7c-0.7,2.8-1.2,5.6-1.6,8.4
			c-0.1,1-0.3,1.9-0.4,2.9c-2.4,14.6-5.6,29.3-8.8,43.5c-1.3,5.9-2.7,12.1-4,18.1l-2.6,12v0.1C626.8,578.7,626.1,579.1,625.6,579.1z
			"/>
		<path class="st7" d="M585.9,410.3c-0.2,0-0.3,0-0.5-0.1l-20.6-9.4c-0.2-0.1-0.3-0.2-0.5-0.4c-0.9-1.1-0.9-1.2,13.5-22.3
			c8-11.8,17.9-26.4,18.8-29.1c4.3-12.1,4.4-25.1,4.5-37.6c0.1-7.3,0.1-14.8,1-22c2.4-20.5,10.1-27.5,25.7-37.5
			c15.4-9.8,29.8-16,43-18.5c17.4-3.2,35.9-0.6,53.9,1.8c1.7,0.2,3.3,0.4,5,0.6c20.8,2.9,39.6,7.3,57.1,13.6
			c18.8,6.6,25.4,20.1,21.1,42.3c-0.3,1.5-3.3,11-6.6,20.6c-4.9,14.3-6.7,18.1-7.7,19.2c-0.4,1.3-0.9,1.3-17.2-0.7
			c-4.8-0.6-10.4-1.3-11.3-1.3c-0.7,0-1.4-0.5-1.4-1.3c0-0.3,0.1-0.5,0.2-0.7c0.9-3,2.4-30.2,2-32.5c-0.3-3.3-8.4-5.2-24-5.7h-1.3
			c-4.8-0.1-11.5,0-13.7,3c-1.1,1.4-1.1,3.5,0,6.3c3.4,9.5,4.7,12.3,6.9,17.4c0.9,2,1.9,4.5,3.4,7.8c3.6,8.4,5.9,13.3,8.1,17.9
			c1.1,2.2,2.1,4.5,3.2,6.9c0.3,0.6,0,1.4-0.6,1.7c-0.6,0.3-1.4,0-1.7-0.6c-1.2-2.5-2.1-4.7-3.2-6.9c-2.2-4.7-4.5-9.5-8.1-18
			c-1.4-3.3-2.5-5.8-3.4-7.8c-2.2-5.1-3.5-8-6.9-17.5c-1.3-3.6-1.2-6.6,0.4-8.8c2.9-4,10.1-4.3,15.9-4.1h1.3
			c13.4,0.3,25.8,1.6,26.5,8c0.2,1.5-0.2,10.1-0.6,17.4c-0.5,8.8-1,12.8-1.3,14.9c2,0.2,5.3,0.6,10.1,1.2c5.1,0.6,12.6,1.6,14.8,1.6
			c0.1,0,0.1-0.1,0.2-0.1c2.4-3.3,12.9-35.4,13.6-38.5c4.2-21-1.8-33-19.4-39.3c-17.4-6.2-35.9-10.6-56.6-13.4
			c-1.6-0.2-3.3-0.4-5-0.6c-17.7-2.5-36-5-53-1.9c-12.7,2.4-26.8,8.4-42,18.2c-15.3,9.7-22.2,16-24.5,35.6c-0.9,7.2-0.9,14.5-1,21.7
			c-0.1,12.8-0.2,26.1-4.7,38.6c-1,2.8-8.6,14.1-19.1,29.7c-5.2,7.8-11.2,16.5-12.9,19.5l19,8.7c3.8-1.4,28.5-11,38.6-24.9
			c12.8-17.9,11.4-26.5,11.4-26.6c-0.1-0.6,0.2-1.3,0.9-1.5c0.6-0.2,1.3,0.1,1.6,0.6c4.7,9.3,5,9.9,6.5,12.7c1,1.6,2.1,3.8,4.8,8.8
			c0.3,0.6,0.1,1.4-0.5,1.8c-0.6,0.3-1.4,0.1-1.8-0.5c-2.7-4.9-3.8-7.2-4.8-8.8c-1.3-2.4-1.7-3.2-4.4-8.4
			c-0.9,4.6-3.6,12.4-11.7,23.4c-11.3,15.6-39.1,25.6-40.3,26C586.2,410.3,586.1,410.4,585.9,410.3z M791.6,331.9L791.6,331.9
			L791.6,331.9z M764.9,326.7L764.9,326.7L764.9,326.7z M764.9,326.7L764.9,326.7L764.9,326.7z M764.9,326.7L764.9,326.7
			L764.9,326.7z M764.9,326.7L764.9,326.7L764.9,326.7z M764.9,326.7L764.9,326.7L764.9,326.7z M764.9,326.7L764.9,326.7
			L764.9,326.7z M764.9,326.7L764.9,326.7L764.9,326.7z M764.9,326.7L764.9,326.7L764.9,326.7z M764.9,326.7L764.9,326.7
			L764.9,326.7z M764.9,326.7L764.9,326.7L764.9,326.7z M764.9,326.7L764.9,326.7L764.9,326.7z M764.9,326.7L764.9,326.7
			L764.9,326.7z M764.9,326.7L764.9,326.7L764.9,326.7z"/>
		<path class="st7" d="M613.4,606.8c-0.9,0-1.7-0.2-2.5-0.4L566,594.6c-3.1-0.7-5.7-2.8-7.3-5.5s-2-5.9-1.3-9l2.5-9.5
			c1.6-6.3,8.1-10.2,14.4-8.4l44.9,11.8c3.1,0.7,5.7,2.8,7.3,5.5c1.6,2.8,2,5.9,1.3,9l-2.5,9.5c-0.7,3.1-2.8,5.7-5.5,7.3
			C617.9,606.3,615.6,606.9,613.4,606.8z M571.8,564.5c-4.3-0.2-8.2,2.6-9.3,6.8l-2.5,9.5c-0.6,2.4-0.3,4.8,1,6.9
			c1.3,2.1,3.2,3.6,5.6,4.3l44.9,11.8c2.4,0.6,4.8,0.3,6.9-1c2.1-1.3,3.6-3.2,4.3-5.7l2.5-9.5c0.6-2.4,0.3-4.8-1-6.9
			c-1.3-2.1-3.2-3.6-5.6-4.3l-44.9-11.8C573.1,564.6,572.4,564.5,571.8,564.5z"/>
		<path class="st6" d="M649.8,328.7c-0.1,0-0.3,0-0.4,0c-0.6-0.1-1-0.7-0.9-1.3l6.6-32.8c0.1-0.6,0.7-1,1.3-0.9s1,0.7,0.9,1.3
			l-6.6,32.8C650.6,328.3,650.3,328.6,649.8,328.7z"/>
		<path class="st6" d="M677,322.4c-0.4,0.1-0.9,0-1.1-0.4l-20.5-26.5c-0.3-0.4-0.3-1.2,0.2-1.5c0.4-0.3,1.2-0.3,1.5,0.2l20.5,26.5
			c0.3,0.4,0.3,1.2-0.2,1.5C677.2,322.3,677.1,322.4,677,322.4z"/>
		<path class="st6" d="M677,322.4c-0.1,0-0.3,0-0.4,0c-0.6-0.1-1-0.7-0.9-1.3l6.6-32.8c0.1-0.6,0.7-1,1.3-0.9s1,0.7,0.9,1.3
			l-6.6,32.8C677.8,322,677.3,322.3,677,322.4z"/>
		<path class="st6" d="M704.2,316.1c-0.4,0.1-0.9,0-1.1-0.4l-20.5-26.5c-0.3-0.4-0.3-1.2,0.2-1.5c0.4-0.3,1.2-0.3,1.5,0.2l20.5,26.5
			c0.3,0.4,0.3,1.2-0.2,1.5C704.4,316,704.3,316.1,704.2,316.1z"/>
		<ellipse transform="matrix(0.974 -0.2266 0.2266 0.974 -57.6463 155.8252)" class="st6" cx="649.9" cy="329" rx="4.2" ry="4.1"/>
		<ellipse transform="matrix(0.974 -0.2266 0.2266 0.974 -55.5138 161.8022)" class="st6" cx="677" cy="322.7" rx="4.2" ry="4.1"/>
		
			<ellipse transform="matrix(0.974 -0.2266 0.2266 0.974 -53.3561 167.7993)" class="st6" cx="704.2" cy="316.3" rx="4.2" ry="4.1"/>
		<path class="st6" d="M659.7,248.4l-14.1,2.8c-13.6,2.7-27.5-8.4-30.9-24.8l-5-23.6c-3.4-16.3,4.8-31.8,18.4-34.4l14.1-2.8
			c13.6-2.7,27.5,8.4,30.9,24.8l2.4,10.9c0-0.2,2.7-2.9,2.9-3c1-0.9,1.3-1.3,2.6-1.5c4.2-0.9,6.9,7.6,6.7,11.9
			c-0.1,1.7-0.6,3.3-1.2,4.8c-0.6,1.6-1.4,3.1-2.4,4.4c-0.7,1-1.7,1.6-2.8,2c-0.4,0.1-2.4,0-2.2,0.6
			C680.4,235.3,672.2,245.9,659.7,248.4z"/>
		<path class="st7" d="M640.5,252.9c-12.4-0.5-24.1-11.2-27.2-26.2l-5-23.6c-1.9-9.1-0.3-18.4,4.3-25.6c3.6-5.6,9.1-9.3,15.1-10.5
			l14.3-2.7c14.3-2.8,28.9,8.8,32.4,25.8c0.4,1.9,1.2,5.7,1.8,8.3c0.5-0.5,1.1-1,1.3-1.2c0.2-0.1,0.3-0.3,0.4-0.4
			c0.7-0.6,1.3-1.1,2.7-1.4c1.4-0.3,2.8,0.1,4,1.2c2.9,2.5,4.6,8.3,4.3,12.1c-0.1,1.6-0.5,3.2-1.3,5.2c-0.5,1.3-1.3,3.2-2.6,4.7
			c-1,1.2-2.1,2-3.3,2.5c-0.3,0.1-0.6,0.1-1.1,0.1c-0.1,0-0.1,0-0.2,0c1.1,14.4-7.1,25.9-20.4,28.4l0,0l-14.1,2.8
			C644.1,252.9,642.4,253,640.5,252.9z M647.2,166.6c-1.5-0.1-3.1,0-4.7,0.3l-14.1,2.8c-5.3,1.1-10.2,4.4-13.5,9.3
			c-4.3,6.5-5.8,15.1-4,23.5l5,23.6c3.3,15.6,16.5,26.3,29.4,23.7l14.1-2.8c12.2-2.4,19.6-13,18.2-26.5c0-0.4,0.1-0.9,0.4-1.2
			c0.6-0.6,1.6-0.7,2.5-0.7c0.1,0,0.3,0,0.4,0c0.7-0.3,1.5-0.9,2.1-1.6c0.7-1,1.5-2.2,2.1-4c0.6-1.7,1-3.1,1.1-4.4
			c0.2-3-1.3-8.1-3.4-9.9c-0.9-0.7-1.5-0.6-1.7-0.5c-0.6,0.1-0.9,0.3-1.4,0.7c-0.1,0.1-0.3,0.3-0.5,0.4c-0.3,0.2-2,2-2.5,2.6
			c-0.1,0.3-0.4,0.6-0.9,0.7c-0.6,0.2-1.4-0.2-1.6-0.9c0,0,0,0,0-0.2l0,0l0,0c-0.1-0.5-0.5-2.6-2.4-10.8
			C669,177,658.4,167,647.2,166.6z M680.3,220.3C680.3,220.4,680.3,220.4,680.3,220.3C680.3,220.4,680.3,220.4,680.3,220.3z
			 M676.8,201L676.8,201L676.8,201z M676.8,201L676.8,201L676.8,201z"/>
		<path class="st6" d="M654.8,229c-6.7,6.3-12.4,6.9-20.6,3.3"/>
		<path class="st7" d="M642.4,235.3c-2.6-0.1-5.3-0.9-8.6-2.4c-0.3-0.1-0.5-0.5-0.3-0.9c0.1-0.3,0.5-0.5,0.9-0.3
			c8.3,3.6,13.5,2.9,19.9-3.2c0.2-0.2,0.6-0.2,1,0c0.2,0.2,0.2,0.6,0,1C650.8,233.6,647,235.5,642.4,235.3z"/>
		<path class="st6" d="M621.4,214.8c-0.1-0.4-0.2-0.9-0.2-1.3c-0.3-4,2.4-7.4,6.1-7.6c3.7-0.2,7.1,2.8,7.4,6.7"/>
		<path class="st10" d="M621.4,215.6c-0.3,0-0.5-0.2-0.6-0.5c-0.1-0.4-0.2-1-0.2-1.4c-0.2-2.1,0.4-4.3,1.8-5.8
			c1.3-1.5,3-2.4,4.9-2.5c4.1-0.2,7.7,3,8.1,7.3c0,0.3-0.2,0.6-0.6,0.7c-0.3,0-0.6-0.2-0.7-0.6c-0.3-3.6-3.3-6.3-6.7-6.1
			c-1.5,0.1-3,0.9-4,2c-1.2,1.3-1.6,3-1.5,4.8c0,0.4,0.1,0.7,0.2,1.2c0.1,0.3-0.1,0.7-0.4,0.9C621.5,215.6,621.5,215.6,621.4,215.6z
			"/>
		<path class="st6" d="M650.2,211.3c-0.1-0.4-0.2-0.9-0.2-1.3c-0.3-4,2.4-7.4,6.1-7.6c3.7-0.2,7.1,2.8,7.4,6.7"/>
		<path class="st10" d="M650.1,211.9c-0.3,0-0.5-0.2-0.6-0.5c-0.1-0.4-0.2-1-0.2-1.4c-0.2-2.1,0.4-4.3,1.8-5.8
			c1.3-1.5,3-2.4,4.9-2.5c4.1-0.2,7.7,3,8.1,7.3c0,0.3-0.2,0.6-0.6,0.7c-0.3,0-0.6-0.2-0.7-0.6c-0.3-3.6-3.3-6.3-6.7-6.1
			c-1.5,0.1-3,0.9-4,2c-1.2,1.3-1.6,3-1.5,4.8c0,0.4,0.1,0.7,0.2,1.2c0.1,0.3-0.1,0.7-0.4,0.9C650.3,211.9,650.2,211.9,650.1,211.9z
			"/>
		<path class="st9" d="M626.8,148.8c46.1-23.1,56.8,29.4,53.8,45.8c-0.5,2.8-3.7,3.7-4.8,4c-2-3-4.3-19.1-15.5-24.8
			s-24.1,2.4-30.8,3.6c-9.7,1.8-23.2-2.4-19.8,30.2c-7.9-13.5-23.5-33.5-10.5-54.4C611.1,161.4,617.6,153.5,626.8,148.8z"/>
		<path class="st7" d="M609.8,208.8c-0.4,0-0.9-0.2-1.1-0.6c-0.9-1.5-1.8-3-2.8-4.6c-8.3-13.5-19.7-31.9-7.7-51.2
			c0.2-0.3,0.5-0.5,0.9-0.6c0.3-0.1,0.7,0,1.1,0.2c8.7,6.1,13.9,2.8,20.6-1.3c1.7-1.1,3.5-2.1,5.6-3.2l0,0
			c15.6-7.8,28.7-7.9,38.8-0.3c15,11.2,18.8,36.6,16.8,47.6c-0.7,3.7-4.9,4.8-5.8,5c-0.5,0.1-1.1-0.1-1.4-0.5
			c-0.6-0.9-1.2-2.5-1.9-4.7c-1.9-5.9-5.2-15.7-13-19.7s-16.5-0.9-23.4,1.7c-2.5,0.9-4.7,1.7-6.5,2c-1.5,0.3-3,0.4-4.5,0.5
			c-4.4,0.4-8.4,0.7-11.2,4.2c-3.3,4.1-4.3,11.9-3,24c0.1,0.6-0.3,1.2-0.9,1.4C610.1,208.8,609.9,208.8,609.8,208.8z M599.7,155
			c-9.9,17.5,0.5,34.5,8.3,47.2c-0.5-9.8,0.7-16.4,4-20.3c3.4-4.3,8.6-4.7,13-5.1c1.5-0.1,2.9-0.3,4.2-0.5c1.6-0.3,3.7-1.1,6.1-1.9
			c7.1-2.6,16.7-6,25.4-1.6c8.9,4.5,12.3,15,14.4,21.2c0.4,1.2,0.7,2.5,1.2,3.2c1.1-0.3,2.6-1.2,2.8-2.7
			c1.9-10.2-1.8-34.5-15.7-44.9c-9.3-6.9-21.5-6.8-36.1,0.5l0,0c-1.8,1-3.6,2-5.3,3.1C615.4,157.1,609.2,160.9,599.7,155z
			 M626.8,148.8L626.8,148.8L626.8,148.8z"/>
		<path class="st7" d="M814.3,585.2c-2.6-0.1-5-1.1-7.2-2.8l-7.5-6.3c-2.5-2-3.8-4.9-4.2-8c-0.3-3.2,0.7-6.2,2.8-8.7l29.9-35.5
			c2-2.5,4.9-3.8,8-4.2c3.2-0.3,6.2,0.7,8.7,2.8l7.5,6.3c2.5,2,3.8,4.9,4.2,8c0.3,3.2-0.7,6.2-2.8,8.7L823.8,581
			C821.3,583.9,817.8,585.4,814.3,585.2z M837.6,522.3c-0.4,0-0.7,0-1.2,0c-2.5,0.2-4.7,1.4-6.3,3.2L800.2,561
			c-1.6,1.9-2.4,4.3-2.1,6.7c0.2,2.5,1.4,4.7,3.2,6.3l7.5,6.3c3.8,3.3,9.7,2.8,12.9-1.1l29.9-35.5c1.6-1.8,2.4-4.3,2.1-6.7
			s-1.4-4.7-3.2-6.3l-7.5-6.3C841.6,523.2,839.6,522.4,837.6,522.3z"/>
	</g>
</g>
<g id="dig-large">
	<path class="st11" d="M821.6,325.3L483.2,458.5c-3.3,1.3-4.9,5.1-3.6,8.4l0.6,1.7c1.3,3.3,5.1,4.9,8.4,3.6L827,339.1
		c3.3-1.3,4.9-5.1,3.6-8.4L830,329C828.7,325.6,825,323.9,821.6,325.3z"/>
	<path class="st7" d="M501.8,512.6c-12.3-19.4-18.6-36.1-18.6-36.1l-2.2,0.9l-7.4-18.4l2.5-1c0,0-5-12.3-11.2-34.2
		c-5.8-20.2-8.1-40-8.1-40l12.3-1.8c0,0,3.7,25.6,8,41.4s10.2,30.2,10.2,30.2l6.7-2.7l7.5,18.8l-7.2,2.9c0,0,8.1,20.6,14.5,32.2
		c17.9,32,27.6,42.9,27.2,44.6C535.4,551.1,517.9,538,501.8,512.6z"/>
</g>
<g id="hands-large">
	<path class="st6" d="M582.3,430.2c-0.1,0.3-0.1,0.5-0.2,0.7c-0.9,2.4-2.6,4.3-4.8,5.3c-2.1,1.1-4.6,1.2-6.8,0.4l-14.9-5.5
		c-0.5-0.2-1-0.4-1.5-0.7c-3.4-2-4.9-6.3-3.8-10.4c0.2-0.9,0.5-1.7,1.1-2.5l0.1-0.2c2.6-4.4,4.5-6.6,6.5-9c1.8-2.1,3.7-4.4,6.2-8.3
		l21.9,8.7l-3.6,20.6C582.4,429.7,582.4,430,582.3,430.2z"/>
	<path class="st7" d="M551.6,420.4c0.2-0.7,0.5-1.5,0.9-2.1l0.1-0.1v-0.1c2.6-4.3,4.4-6.4,6.4-8.8c1.7-2,3.5-4.2,5.8-7.6l19.9,7.9
		l-3.4,19.6c0,0.2-0.1,0.3-0.1,0.5c-0.1,0.2-0.1,0.4-0.2,0.7c-0.7,2-2.2,3.7-4.2,4.7c-1.8,1-4,1.1-5.8,0.3l-14.9-5.5
		c-0.4-0.2-0.9-0.3-1.2-0.6C551.9,427.6,550.6,424,551.6,420.4 M549,419.8c-1.3,4.5,0.4,9.3,4.4,11.8c0.5,0.3,1.1,0.6,1.7,0.9
		L570,438c5.2,1.9,11.2-1,13.3-6.5c0.1-0.3,0.2-0.6,0.3-0.9c0.1-0.2,0.1-0.4,0.2-0.7l3.7-21.6l-23.8-9.4c-5.3,8.9-7.9,9.4-13.3,18.2
		c0,0.1-0.1,0.1-0.1,0.2C549.7,418,549.3,418.8,549,419.8L549,419.8z"/>
	<path class="st6" d="M793.2,353.4c0,0.3,0,0.5,0,0.9c-0.2,2.7-1.3,5-3.2,6.7c-1.8,1.7-4.2,2.6-6.6,2.4l-16.1-1.3
		c-0.5,0-1.1-0.1-1.6-0.3c-4-1.1-6.6-4.9-6.7-9.3c0-1,0.1-1.8,0.3-2.8l0.1-0.2c1.4-5.1,2.6-7.9,3.8-10.8c1.2-2.7,2.5-5.5,3.7-10.2
		l24,2.5l2.2,21.8C793.2,353,793.2,353.2,793.2,353.4z"/>
	<path class="st7" d="M760.2,352.5c0-0.7,0.1-1.6,0.3-2.4V350l0,0c1.3-5,2.6-7.7,3.8-10.7c1.2-2.6,2.2-5.1,3.5-9.3l21.8,2.2
		l2.1,20.6c0,0.2,0,0.4,0,0.5c0,0.2,0,0.5,0,0.7c-0.2,2.2-1.2,4.4-2.8,5.9s-3.5,2.1-5.7,2l-16.1-1.3c-0.4,0-1-0.1-1.4-0.2
		C762.6,359.6,760.3,356.3,760.2,352.5 M757.6,352.5c0,4.8,3.1,9.2,7.7,10.5c0.6,0.2,1.3,0.3,1.9,0.3l16.1,1.3
		c5.8,0.4,10.8-4.2,11.2-10.3c0-0.3,0-0.6,0-1c0-0.2,0-0.5,0-0.7l-2.4-22.8l-26.2-2.7c-2.8,10.4-5.2,11.7-7.9,22.1
		c0,0.1,0,0.2-0.1,0.2C757.7,350.5,757.6,351.6,757.6,352.5L757.6,352.5z"/>
</g>
</svg>
