<?xml version="1.0" encoding="utf-8"?>
<!-- Generator: Adobe Illustrator 23.1.1, SVG Export Plug-In . SVG Version: 6.00 Build 0)  -->
<svg version="1.1" id="Layer_1" xmlns="http://www.w3.org/2000/svg" xmlns:xlink="http://www.w3.org/1999/xlink" x="0px" y="0px"
	 viewBox="0 0 878 632" style="enable-background:new 0 0 878 632;" xml:space="preserve">
<style type="text/css">
	.st0{fill:#DAECFD;}
	.st1{fill:#C1D7E8;}
	.st2{clip-path:url(#SVGID_2_);fill:#C1D7E8;}
	.st3{clip-path:url(#SVGID_4_);}
	.st4{fill:#FFB51F;}
	.st5{fill:#EC6D00;}
	.st6{fill:#FCB81F;}
	.st7{clip-path:url(#SVGID_6_);}
	.st8{font-family:'Quicksand-SemiBold';}
	.st9{font-size:36px;}
	.st10{font-size:28.5165px;}
	.st11{font-size:29.3233px;}
	.st12{font-size:26.5378px;}
	.st13{font-size:12.0497px;}
	.st14{font-size:16.0646px;}
	.st15{font-size:18.6949px;}
	.st16{fill:#FFFFFF;}
	.st17{fill:#3A3E42;}
	.st18{fill:#A6B2C7;}
	.st19{fill:#F4F4F4;}
	.st20{fill:#2C3ACF;}
	.st21{fill:#4051CC;}
	.st22{clip-path:url(#SVGID_8_);fill:#C1D7E8;}
	.st23{clip-path:url(#SVGID_10_);}
	.st24{clip-path:url(#SVGID_12_);}
	.st25{font-size:28.0057px;}
	.st26{clip-path:url(#SVGID_14_);fill:#C1D7E8;}
	.st27{clip-path:url(#SVGID_16_);}
	.st28{clip-path:url(#SVGID_18_);}
</style>
<g id="hill">
	<path class="st0" d="M887,302.9c-195.3-77.4-467,172.8-539.8,295c-10,16.9-21.6,35-33.7,54.1H887V302.9z"/>
	<path class="st0" d="M348.6,571.5c-23.2-42.5-46.6-85.6-75-124.9c-29.9-41.3-73.2-72.9-115-101.1c-25.9-17.4-52.9-33.2-80.7-47.3
		c-14.5-7.3-29.2-14.1-44.2-20.5C29,275.7,0.1,267.9,0,262c1,67,0,176,0,264c0,159.4,3,85,42.9,106H878c0.2-5.7-79.8-75.1-193-84
		C534.7,536.2,353.9,584.2,348.6,571.5z"/>
	<path class="st1" d="M410.8,539.1c-43,7.2-89.1-15.5-110.8-53.1c-16.9-29.1,12,19-75.9,146c0,0,650.1,0,653.9,0
		c0.7,0-3.9-8.8-4.4-9.6c-7.2-12.2-25.1-19.8-36.7-27.4c-15.8-10.3-31.5-21.9-48.4-30.3c-22-11.5-45-20.9-68.6-28.5
		c-73.2-23.6-152.1-29.4-227.9-16.9c-24.2,4-47.1,10.6-70.6,17.4C417.9,537.7,414.4,538.5,410.8,539.1z"/>
</g>
<g id="coin">
	<g>
		<g>
			<g>
				<g>
					<defs>
						<rect id="SVGID_1_" x="51.5" y="491" width="161.5" height="111.6"/>
					</defs>
					<clipPath id="SVGID_2_">
						<use xlink:href="#SVGID_1_"  style="overflow:visible;"/>
					</clipPath>
					<path class="st2" d="M197.8,608.3c1.1-5.9,16.9-23.7,0-47.6c-16.9-24-42.6-54-68.9-54L68.5,634.9l148.8,2.1
						C217.3,637,196.7,614.2,197.8,608.3z"/>
				</g>
			</g>
		</g>
		<g>
			<g>
				<g>
					<defs>
						<rect id="SVGID_3_" x="51.5" y="491" width="161.5" height="111.6"/>
					</defs>
					<clipPath id="SVGID_4_">
						<use xlink:href="#SVGID_3_"  style="overflow:visible;"/>
					</clipPath>
					<g class="st3">
						<g>
							<path class="st4" d="M79.9,522.2c-26.1,23.2-28.5,63.1-5.3,89.2c23.2,26.1,63.1,28.5,89.2,5.3s28.5-63.1,5.3-89.2
								C146,501.4,106,499,79.9,522.2z"/>
							<path class="st5" d="M83.6,526.4c-23.8,21.1-25.9,57.6-4.8,81.4c21.1,23.8,57.6,25.9,81.4,4.8c23.8-21.1,25.9-57.6,4.8-81.4
								C143.9,507.4,107.4,505.2,83.6,526.4z"/>
							<path class="st6" d="M88.1,531.5c-21,18.6-22.9,50.8-4.2,71.8c18.6,21,50.8,22.9,71.8,4.2c21-18.6,22.9-50.8,4.2-71.8
								C141.3,514.7,109.1,512.8,88.1,531.5z"/>
						</g>
					</g>
				</g>
			</g>
		</g>
		<g>
			<g>
				<g>
					<defs>
						<rect id="SVGID_5_" x="51.5" y="491" width="161.5" height="111.6"/>
					</defs>
					<clipPath id="SVGID_6_">
						<use xlink:href="#SVGID_5_"  style="overflow:visible;"/>
					</clipPath>
					<g class="st7">
						<text transform="matrix(1 0 0 1 77.1616 577.6553)" class="st5 st8 st9">DATA</text>
					</g>
				</g>
			</g>
		</g>
	</g>
</g>
<g id="coin_5_">
	<g>
		<g>
			<g>
				<path class="st4" d="M278.6,560c-11.3,25.2-0.1,54.8,25.1,66.2c25.2,11.3,54.8,0.1,66.2-25.1c11.3-25.2,0.1-54.8-25.1-66.2
					C319.6,523.6,290,534.8,278.6,560z"/>
				<path class="st5" d="M282.6,561.8c-10.3,23,0,50.1,22.9,60.4c23,10.3,50.1,0,60.4-22.9c10.3-23,0-50.1-22.9-60.4
					C320,528.6,293,538.9,282.6,561.8z"/>
				<path class="st6" d="M287.6,564c-9.1,20.2,0,44.1,20.2,53.2c20.2,9.1,44.1,0,53.2-20.2s0-44.1-20.2-53.2
					C320.5,534.7,296.7,543.8,287.6,564z"/>
			</g>
		</g>
		<text transform="matrix(0.9122 -0.4097 0.4097 0.9122 294.6249 600.9749)" class="st5 st8 st10">DATA</text>
	</g>
</g>
<g id="coin_2_">
	<g>
		<g>
			<g>
				<path class="st4" d="M453.6,552.6c-19.8,20.4-19.3,53,1.1,72.8s53,19.3,72.8-1.1c19.8-20.4,19.3-53-1.1-72.8
					C505.9,531.6,473.3,532.1,453.6,552.6z"/>
				<path class="st5" d="M456.8,555.7c-18,18.6-17.6,48.4,1,66.4s48.4,17.6,66.4-1c18-18.6,17.6-48.4-1-66.4
					C504.6,536.6,474.8,537.1,456.8,555.7z"/>
				<path class="st6" d="M460.8,559.6c-15.9,16.4-15.5,42.7,0.9,58.5c16.4,15.9,42.7,15.5,58.5-0.9c15.9-16.4,15.5-42.7-0.9-58.5
					C502.9,542.8,476.7,543.2,460.8,559.6z"/>
			</g>
		</g>
		<text transform="matrix(0.9972 -7.480215e-02 7.480215e-02 0.9972 454.701 597.7593)" class="st5 st8 st11">DATA</text>
	</g>
	<g>
		<g>
			<g>
				<path class="st4" d="M678.3,577.5c-22.1,13.1-29.4,41.7-16.2,63.8c13.1,22.1,41.7,29.4,63.8,16.2c22.1-13.1,29.4-41.7,16.2-63.8
					C729,571.7,700.5,564.4,678.3,577.5z"/>
				<path class="st5" d="M680.4,581.1c-20.1,12-26.8,38.1-14.8,58.2c12,20.1,38.1,26.8,58.2,14.8c20.1-12,26.8-38.1,14.8-58.2
					C726.7,575.7,700.6,569.1,680.4,581.1z"/>
				<path class="st6" d="M683,585.4c-17.8,10.6-23.6,33.6-13.1,51.4c10.6,17.8,33.6,23.6,51.4,13.1c17.8-10.6,23.6-33.6,13.1-51.4
					C723.8,580.7,700.8,574.8,683,585.4z"/>
			</g>
		</g>
		<text transform="matrix(0.982 0.1889 -0.1889 0.982 668.6282 617.2884)" class="st5 st8 st12">DATA</text>
	</g>
</g>
<g id="coin_1_">
	<g>
		<g>
			<g>
				<path class="st4" d="M449,492.4c-3.6,11.1,2.5,23,13.6,26.7c11.1,3.6,23-2.5,26.7-13.6c3.6-11.1-2.5-23-13.6-26.7
					C464.5,475.2,452.6,481.3,449,492.4z"/>
				<path class="st5" d="M450.8,493c-3.3,10.1,2.2,21,12.4,24.3c10.1,3.3,21-2.2,24.3-12.4s-2.2-21-12.4-24.3
					C465,477.3,454,482.8,450.8,493z"/>
				<path class="st6" d="M452.9,493.7c-2.9,8.9,2,18.6,10.9,21.4c8.9,2.9,18.6-2,21.4-10.9c2.9-8.9-2-18.6-10.9-21.4
					C465.4,479.9,455.8,484.7,452.9,493.7z"/>
			</g>
		</g>
		<text transform="matrix(0.8628 -0.5055 0.5055 0.8628 457.5824 508.8549)" class="st5 st8 st13">DATA</text>
	</g>
	<g>
		<g>
			<g>
				<path class="st4" d="M829.7,281.5c-9.2,7.2-10.8,20.5-3.6,29.7c7.2,9.2,20.5,10.8,29.7,3.6c9.2-7.2,10.8-20.5,3.6-29.7
					C852.2,275.8,838.9,274.2,829.7,281.5z"/>
				<path class="st5" d="M830.8,282.9c-8.4,6.6-9.8,18.7-3.3,27.1c6.6,8.4,18.7,9.8,27.1,3.3c8.4-6.6,9.8-18.7,3.3-27.1
					C851.4,277.8,839.2,276.3,830.8,282.9z"/>
				<path class="st6" d="M832.2,284.7c-7.4,5.8-8.7,16.5-2.9,23.9c5.8,7.4,16.5,8.7,23.9,2.9c7.4-5.8,8.7-16.5,2.9-23.9
					C850.3,280.2,839.6,278.9,832.2,284.7z"/>
			</g>
		</g>
		<text transform="matrix(0.9982 5.978270e-02 -5.978270e-02 0.9982 827.6599 299.9171)" class="st5 st8 st13">DATA</text>
	</g>
	<g>
		<g>
			<g>
				<path class="st4" d="M811.9,374.2c-13.4,7.9-17.8,25.2-9.8,38.6c7.9,13.4,25.2,17.8,38.6,9.8c13.4-7.9,17.8-25.2,9.8-38.6
					C842.6,370.6,825.4,366.2,811.9,374.2z"/>
				<path class="st5" d="M813.2,376.3c-12.2,7.3-16.2,23.1-9,35.2c7.3,12.2,23.1,16.2,35.2,9c12.2-7.3,16.2-23.1,9-35.2
					C841.2,373.1,825.4,369.1,813.2,376.3z"/>
				<path class="st6" d="M814.8,378.9c-10.8,6.4-14.3,20.3-7.9,31.1c6.4,10.8,20.3,14.3,31.1,7.9c10.8-6.4,14.3-20.3,7.9-31.1
					C839.5,376.1,825.5,372.5,814.8,378.9z"/>
			</g>
		</g>
		<text transform="matrix(0.982 0.1889 -0.1889 0.982 806.0682 398.2391)" class="st5 st8 st14">DATA</text>
	</g>
	<g>
		<g>
			<g>
				<path class="st4" d="M824.6,453.8c-11.7,13.8-10,34.5,3.8,46.2c13.8,11.7,34.5,10,46.2-3.8c11.7-13.8,10-34.5-3.8-46.2
					C857,438.3,836.4,440,824.6,453.8z"/>
				<path class="st5" d="M826.8,455.7c-10.6,12.6-9.1,31.5,3.5,42.2c12.6,10.6,31.5,9.1,42.2-3.5c10.6-12.6,9.1-31.5-3.5-42.2
					C856.4,441.5,837.5,443.1,826.8,455.7z"/>
				<path class="st6" d="M829.5,458c-9.4,11.1-8,27.8,3.1,37.2c11.1,9.4,27.8,8,37.2-3.1c9.4-11.1,8-27.8-3.1-37.2
					C855.6,445.5,839,446.8,829.5,458z"/>
			</g>
		</g>
		<text transform="matrix(0.99 -0.141 0.141 0.99 827.288 482.5163)" class="st5 st8 st15">DATA</text>
	</g>
</g>
<g id="front">
	<path class="st0" d="M389.9,610.3C249,612,79,608-1,521c0,0,1.7,106-1,119l581,3C549,639.2,419.5,610,389.9,610.3z"/>
</g>
<g id="man_small">
	<path class="st1" d="M242.3,462.7c-26,53-93.3-94.7-178-86c-17,1.8-53.2-32.5-47-49s95.7,9,135.8,24.1S250.1,446.9,242.3,462.7z"/>
	<g id="bg_2_">
		
			<rect x="121.6" y="204.3" transform="matrix(0.4461 -0.895 0.895 0.4461 -127.0943 263.653)" class="st16" width="55.8" height="60.4"/>
	</g>
	<g id="pants_2_">
		<g>
			<path class="st16" d="M150.5,253.3c0,0-10.8,30.9-13.2,33.7c-11.9,14.2-79.4,47-79.4,47L38,303.5l1.7-1l-1.7,1
				c0.1,0,0.1-0.1,0.2-0.1c5.3-3.2,10.6-6.5,15.9-9.7c8.8-5.4,17.6-10.7,26.4-16.1c3.4-2.1,6.7-4.1,10.1-6.2
				c1.2-0.7,2.8-1.2,3.7-2.2c0.8-0.9,1.8-4.9,2.4-7.2c0.9-3.3,1.7-6.7,2.6-10c1.7-6.6,3.7-13.2,5.4-19.8l8.1-28.6
				c2.3-8.2,10.1-16.4,14-22.9"/>
			<path class="st17" d="M57.8,335c0.2,0,0.4,0,0.5-0.1c2.8-1.3,67.8-33.1,79.7-47.2c2.4-2.9,12.3-30.8,13.4-34
				c0.2-0.5-0.1-1-0.6-1.2s-1,0.1-1.2,0.6c-4.3,12.3-11.4,31.4-13.1,33.4c-10.9,13.1-70.8,42.7-78.3,46.4l-18.9-29l0.8-0.5
				c0.1,0,0.2-0.1,0.2-0.2L91,272.3c0.3-0.2,0.8-0.4,1.2-0.6c1-0.5,2-1,2.7-1.8c0.8-0.9,1.6-3.7,2.4-7l0.7-2.8
				c0.7-2.6,1.4-5.2,2.1-7.8c0.9-3.5,1.9-7,2.9-10.4c0.9-3.1,1.7-6.2,2.6-9.3l8.1-28.6c1.5-5.4,5.6-10.9,9.1-15.7
				c1.8-2.4,3.5-4.8,4.8-6.9c0.3-0.4,0.1-1-0.3-1.3c-0.5-0.3-1-0.1-1.3,0.3c-1.3,2.1-2.9,4.4-4.7,6.8c-3.7,5-7.8,10.7-9.4,16.3
				l-8.1,28.6c-0.8,3.1-1.7,6.3-2.6,9.3c-1,3.4-1.9,7-2.9,10.5c-0.7,2.6-1.4,5.2-2.1,7.8l-0.7,2.8c-0.5,1.8-1.4,5.5-2,6.2
				c-0.5,0.5-1.3,0.9-2.1,1.3c-0.5,0.2-0.9,0.5-1.4,0.7l-52.6,32c0,0,0,0-0.1,0c-0.4,0.3-0.5,0.8-0.3,1.3c0,0.1,0.1,0.1,0.1,0.2
				l19.8,30.4C57.2,334.8,57.5,335,57.8,335z"/>
		</g>
	</g>
	<g id="leg_1_">
		<g>
			<path class="st16" d="M188.7,225c0,0,30.1,62.9,31.6,66.6c7.4,17.9,1.9,82.1,1.9,82.1l-38.2,2.7l-0.1-2l0.1,2.1
				c-0.2-3.1-0.4-6.1-0.6-9.2c-1-15.7-2.5-31.4-2.7-47.1c0-2.9,0.1-5.8-0.3-8.8c-0.3-2.5-1.5-4.3-2.7-6.5c-2.6-4.6-5.3-9.1-8.3-13.5
				c-5.9-8.9-12.6-17.3-20.3-24.8"/>
			<path class="st17" d="M183.8,377.5c0.1,0,0.1,0,0.2,0c0.1,0,0.2,0,0.2,0l38-2.7c0.5,0,0.9-0.4,0.9-0.9c0.2-2.6,5.4-64.6-2-82.6
				c-1.5-3.6-30.4-64-31.6-66.6c-0.2-0.5-0.8-0.7-1.3-0.5s-0.7,0.8-0.5,1.3c0.3,0.6,30.1,63,31.6,66.5c6.7,16.4,2.5,73.2,1.9,80.8
				l-36.4,2.6v-1c0-0.1,0-0.2-0.1-0.3l-0.4-6.9c-0.3-4.6-0.6-9.4-1-13.9c-0.8-10.9-1.6-22.1-1.7-33.2c0-0.7,0-1.4,0-2.2
				c0-2.2,0-4.4-0.3-6.7c-0.3-2.4-1.3-4.2-2.4-6.2l-0.4-0.7c-2.7-4.7-5.4-9.3-8.3-13.6c-6.4-9.5-13.2-17.9-20.4-24.9
				c-0.4-0.4-1-0.4-1.4,0s-0.4,1,0,1.4c7.1,6.9,13.9,15.2,20.2,24.6c2.8,4.2,5.6,8.8,8.2,13.5l0.4,0.7c1,1.8,1.9,3.4,2.2,5.4
				c0.2,2.1,0.2,4.3,0.2,6.5c0,0.7,0,1.4,0,2.2c0.1,11.1,0.9,22.4,1.7,33.3c0.3,4.6,0.7,9.3,1,13.9l0.6,9.1v0.1
				C183,377,183.4,377.4,183.8,377.5z"/>
		</g>
	</g>
	<g id="tool_2_">
		<g>
			<path class="st18" d="M75.9,168.3l237,136.2c2.3,1.3,3.1,4.3,1.8,6.7l-0.7,1.2c-1.3,2.3-4.3,3.1-6.7,1.8L70.4,178
				c-2.3-1.3-3.1-4.3-1.8-6.7l0.7-1.2C70.6,167.8,73.6,166.9,75.9,168.3z"/>
		</g>
		<g>
			<path class="st17" d="M293.1,342.6c11.3-13,17.8-24.8,17.8-24.8l1.6,0.9l7.5-12.8l-1.7-1c0,0,5.1-8.6,12.1-24.2
				c6.5-14.4,10.4-28.8,10.4-28.8l-9-2.7c0,0-5.6,18.6-10.5,29.9s-10.9,21.3-10.9,21.3l-4.7-2.8l-7.6,13.1l5,2.9
				c0,0-8.3,14.5-14.3,22.3c-16.7,21.8-25.2,28.9-25.1,30.2C263.9,367.5,278.3,359.7,293.1,342.6z"/>
		</g>
	</g>
	<g id="hand_5_">
		<g>
			<path class="st16" d="M232.2,271l-0.4-15.7l17.2-4c1.4,3.2,2.6,5.1,3.7,6.9c1.2,2,2.4,3.9,3.9,7.4l0.1,0.2
				c0.3,0.6,0.4,1.3,0.5,1.9c0.4,3.1-1.3,6.1-4,7.3c-0.4,0.2-0.8,0.3-1.2,0.4l-11.6,2.5c-1.7,0.4-3.5,0-5-1s-2.6-2.6-3-4.5
				c0-0.2-0.1-0.4-0.1-0.6C232.3,271.3,232.3,271.2,232.2,271z"/>
		</g>
		<g>
			<path class="st17" d="M256.2,267.7c0.3,2.7-1.1,5.3-3.4,6.3c-0.3,0.1-0.6,0.2-1,0.3l-11.6,2.5c-1.5,0.3-3,0-4.3-0.9
				s-2.2-2.3-2.6-3.9c0-0.2-0.1-0.4-0.1-0.5s0-0.3,0-0.4l-0.4-14.9l15.7-3.7c1.3,2.8,2.4,4.6,3.4,6.3c1.2,1.9,2.4,3.8,3.8,7.2v0.1
				v0.1C256,266.6,256.1,267.1,256.2,267.7 M258.1,267.5c-0.1-0.7-0.3-1.4-0.6-2.1c0-0.1,0-0.1-0.1-0.2c-3-7.2-4.9-7.8-7.9-15
				l-18.8,4.4l0.4,16.5c0,0.2,0,0.4,0,0.6s0.1,0.5,0.1,0.7c0.9,4.3,5,7.1,9.1,6.3l11.6-2.5c0.5-0.1,0.9-0.2,1.3-0.4
				C256.8,274.3,258.5,270.9,258.1,267.5L258.1,267.5z"/>
		</g>
	</g>
	<g id="top_2_">
		<path class="st16" d="M188.7,225c6.9-9.3,3.8-4.8,10.8-14.8c0,0-2.3,6.4,5.7,21.8c6.6,12.7,26.7,23.3,26.7,23.3l16.4-4.7
			c0.6-0.6-17.9-36.7-18.7-40.9c-3-15,2-30.1,2.4-45.2c0.5-15.3-4.4-21-14.7-29.9c-8.6-7.5-19-14.6-29.6-18.3
			c-13.6-4.7-29.5-4.4-43.7-4.5c-14.6-0.1-29.3,0.9-43.7,3.8C85.4,118.5,80,128,80.8,143.7c0.1,2.2,5.1,31.3,6.3,30.9
			c-1.8,0.7,18.6,0.6,20.6,1c-0.6-0.1,1.5-23.2,2-25.1c1.3-4.8,15.7-2.7,20.5-2.2c6.9,0.8,13.8,2.6,10,9.9c-5,9.4-5.5,9.5-10.5,17.6
			c-5.4,8.8-7.8,12-11.2,17.3"/>
		<path class="st17" d="M231.4,256.3c-0.8-0.4-20.4-10.9-27.1-23.8c-4.7-9.1-5.9-15.2-6.1-18.7c-2.6,3.6-3,4.2-4.2,5.8
			c-0.9,1.1-2,2.6-4.5,6c-0.3,0.4-0.9,0.5-1.4,0.2c-0.4-0.3-0.5-0.9-0.2-1.4c2.5-3.4,3.7-4.9,4.5-6c1.5-1.9,1.8-2.3,6.3-8.7
			c0.3-0.4,0.8-0.5,1.3-0.3c0.4,0.2,0.6,0.7,0.5,1.2c0,0.1-2,6.4,5.6,21c5.9,11.4,23.3,21.3,25.9,22.7l15.1-4.4
			c-1-2.4-4.4-9.5-7.5-15.9c-6.2-12.8-10.5-22-11-24.2c-1.9-9.7-0.6-19.6,0.8-29.2c0.7-5.3,1.5-10.9,1.7-16.2
			c0.5-14.8-4-20.2-14.3-29.1c-10.2-8.8-20-14.9-29.2-18.1c-12.3-4.2-26.2-4.3-39.6-4.4c-1.3,0-2.5,0-3.8,0
			c-15.7-0.2-29.9,1.1-43.5,3.8C87,119.3,81.2,127.7,82,143.7c0.1,2.4,4.5,27.3,5.8,30.1c0.1,0,0.1,0.1,0.2,0.1
			c1.6,0.2,7.3,0.3,11.2,0.4c3.5,0.1,6.1,0.1,7.6,0.2c0-1.5,0.1-4.6,0.7-11.2c0.5-5.5,1.1-12,1.4-13c1.2-4.7,10.6-4.2,20.6-3l1,0.1
			c4.4,0.5,9.7,1.5,11.4,4.8c0.9,1.8,0.7,4-0.7,6.6c-3.6,6.8-4.9,8.7-7.1,12.3c-0.9,1.4-1.9,3.1-3.4,5.4c-3.6,5.9-5.9,9.3-8,12.5
			c-1,1.6-2,3.1-3.2,4.8c-0.3,0.5-0.9,0.6-1.4,0.3s-0.6-0.9-0.3-1.4c1.1-1.7,2.1-3.3,3.2-4.8c2.1-3.2,4.3-6.5,8-12.4
			c1.4-2.3,2.5-4,3.4-5.4c2.2-3.5,3.5-5.5,7-12.2c1-2,1.3-3.5,0.7-4.7c-1.3-2.5-6.2-3.3-9.9-3.7l-1-0.1c-11.6-1.4-17.8-0.9-18.4,1.6
			c-0.4,1.7-2.3,22-2,24.4c0.1,0.2,0.1,0.4,0.1,0.6c-0.1,0.5-0.6,0.9-1.2,0.8c-0.7-0.1-4.9-0.2-8.6-0.3c-12.4-0.3-12.7-0.3-12.9-1.3
			c-0.6-0.9-1.5-3.9-3.6-15.1c-1.4-7.5-2.6-14.9-2.6-16c-0.8-17,5.6-26.2,20.3-29.1c13.8-2.7,28.1-4,43.9-3.8c1.2,0,2.5,0,3.8,0
			c13.6,0.1,27.7,0.2,40.3,4.5c9.4,3.2,19.5,9.5,29.9,18.5c10.6,9.1,15.5,15.2,15,30.7c-0.2,5.5-0.9,11.1-1.7,16.5
			c-1.3,9.4-2.7,19.1-0.8,28.5c0.4,2.1,6.2,14.1,10.8,23.7c8.4,17.4,8.3,17.4,7.6,18.1c-0.1,0.1-0.3,0.2-0.4,0.2l-16.4,4.7
			c-0.1,0-0.3,0-0.4,0C231.6,256.4,231.5,256.3,231.4,256.3z M87.5,175.5L87.5,175.5L87.5,175.5z M107.9,174.6L107.9,174.6
			L107.9,174.6z M107.9,174.6L107.9,174.6L107.9,174.6z M107.9,174.6L107.9,174.6L107.9,174.6z M107.9,174.6L107.9,174.6
			L107.9,174.6z M107.9,174.6L107.9,174.6L107.9,174.6z M107.9,174.6L107.9,174.6L107.9,174.6z M107.9,174.6L107.9,174.6
			L107.9,174.6z M107.9,174.6L107.9,174.6L107.9,174.6z M107.9,174.6L107.9,174.6L107.9,174.6z M107.9,174.6L107.9,174.6
			L107.9,174.6z M107.9,174.6L107.9,174.6L107.9,174.6z M107.9,174.6L107.9,174.6L107.9,174.6z M107.9,174.6L107.9,174.6
			L107.9,174.6z"/>
	</g>
	<g id="shoe_5_">
		<path class="st19" d="M182.9,391.4l-0.8-7.3c-0.5-4.3,2.7-8.2,7-8.7l34.7-3.8c4.3-0.5,8.2,2.7,8.7,7l0.8,7.3
			c0.5,4.3-2.7,8.2-7,8.7l-34.7,3.8C187.3,398.8,183.3,395.7,182.9,391.4z"/>
		<path class="st17" d="M185.2,397.4c-1.9-1.5-3-3.6-3.3-6l-0.8-7.3c-0.3-2.4,0.4-4.7,1.9-6.5c1.5-1.9,3.6-3,6-3.3l34.7-3.8
			c4.9-0.5,9.3,3,9.8,7.9l0.8,7.3c0.3,2.4-0.4,4.7-1.9,6.5s-3.6,3-6,3.3l-34.7,3.8c-0.6,0.1-1.3,0.1-1.9,0
			C188.1,399.2,186.5,398.5,185.2,397.4z M223.9,372.5l-34.7,3.8c-1.8,0.2-3.5,1.1-4.6,2.6c-1.2,1.4-1.7,3.2-1.5,5.1l0.8,7.3
			c0.2,1.8,1.1,3.5,2.6,4.6c1.4,1.2,3.2,1.7,5.1,1.5l34.7-3.8c1.8-0.2,3.5-1.1,4.6-2.6c1.2-1.4,1.7-3.2,1.5-5.1l-0.8-7.3
			c-0.4-3.3-3-5.8-6.2-6.1C224.9,372.4,224.4,372.4,223.9,372.5z"/>
	</g>
	<g id="logo_2_">
		<g>
			<g>
				<circle class="st20" cx="177.5" cy="171.5" r="32.2"/>
			</g>
		</g>
		<g>
			<g>
				<g>
					<g>
						<path class="st16" d="M192.7,188l-1.4-25.1c0-0.5,0.3-0.8,0.8-0.9c0.5,0,0.8,0.3,0.9,0.8l1.4,25.1c0,0.5-0.3,0.8-0.8,0.9
							c-0.1,0-0.2,0-0.3-0.1C192.9,188.6,192.7,188.3,192.7,188z"/>
					</g>
				</g>
				<g>
					<g>
						<path class="st16" d="M173.5,180.8c-0.3-0.3-0.3-0.8,0-1.2l18.1-17.5c0.3-0.3,0.8-0.3,1.2,0c0.3,0.3,0.3,0.8,0,1.2l-18.1,17.5
							c-0.2,0.2-0.6,0.3-0.9,0.2C173.6,181,173.5,180.9,173.5,180.8z"/>
					</g>
				</g>
				<g>
					<g>
						<path class="st16" d="M173.2,180.3l-1.4-25.1c0-0.5,0.3-0.8,0.8-0.9c0.5,0,0.8,0.3,0.9,0.8l1.4,25.1c0,0.5-0.3,0.8-0.8,0.9
							c-0.1,0-0.2,0-0.3-0.1C173.5,180.9,173.2,180.6,173.2,180.3z"/>
					</g>
				</g>
				<g>
					<g>
						<path class="st16" d="M154,173.2c-0.3-0.3-0.3-0.8,0-1.2l18.1-17.5c0.3-0.3,0.8-0.3,1.2,0c0.3,0.3,0.3,0.8,0,1.2l-18.1,17.5
							c-0.2,0.2-0.6,0.3-0.9,0.2C154.2,173.3,154.1,173.3,154,173.2z"/>
					</g>
				</g>
			</g>
			<g>
				<g>
					
						<ellipse transform="matrix(0.3663 -0.9305 0.9305 0.3663 -53.3182 299.4554)" class="st16" cx="193.2" cy="188.9" rx="3" ry="3.1"/>
				</g>
			</g>
			<g>
				<g>
					
						<ellipse transform="matrix(0.3663 -0.9305 0.9305 0.3663 -58.4775 276.4193)" class="st16" cx="173.7" cy="181.1" rx="3" ry="3.1"/>
				</g>
			</g>
			<g>
				<g>
					
						<ellipse transform="matrix(0.3663 -0.9305 0.9305 0.3663 -63.7294 253.5394)" class="st16" cx="154.3" cy="173.6" rx="3" ry="3.1"/>
				</g>
			</g>
		</g>
	</g>
	<g id="face_3_">
		<g>
			<path class="st16" d="M183.4,105.1c0.1-0.5-1.3-0.6-1.6-0.7c-0.8-0.4-1.4-1.1-1.8-1.8c-0.6-1-1-2.2-1.3-3.5
				c-0.3-1.2-0.5-2.4-0.4-3.7c0.3-3.2,3.3-9.2,6.3-8.1c0.9,0.3,1.1,0.7,1.7,1.4c0.1,0.1,1.9,2.4,1.8,2.6l2.9-7.9
				c4.3-11.7,15.9-18.5,25.7-15l10.2,3.6c9.8,3.5,14.2,15.9,9.9,27.6l-6.3,17c-4.3,11.7-15.9,18.5-25.7,15l-10.2-3.6
				C185.7,124.8,180.7,115.9,183.4,105.1z"/>
			<path class="st17" d="M204.5,132.5l-10.2-3.6l0,0c-9.6-3.4-14.4-12.8-12-23.4c-0.1,0-0.1,0-0.2,0c-0.3-0.1-0.6-0.1-0.8-0.2
				c-0.9-0.5-1.6-1.2-2.2-2.2c-0.8-1.3-1.2-2.8-1.4-3.8c-0.4-1.6-0.5-2.8-0.4-4c0.2-2.8,2.2-7,4.5-8.5c1-0.7,2.1-0.8,3.1-0.4
				s1.3,0.8,1.8,1.3c0.1,0.1,0.2,0.2,0.3,0.3c0.1,0.2,0.5,0.5,0.8,1c0.7-1.9,1.7-4.6,2.2-6c4.5-12.3,16.6-19.3,26.9-15.6l10.2,3.6
				c4.4,1.6,8,4.9,10.1,9.4c2.7,5.8,2.9,12.9,0.4,19.4l-6.3,17c-4,10.7-13.8,17.5-23.1,16.5C207.1,133.2,205.8,133,204.5,132.5z
				 M192,83.7c-2.2,6-2.8,7.4-2.9,7.8l0,0l0,0c0,0.1,0,0.1,0,0.1c-0.2,0.5-0.8,0.7-1.3,0.4c-0.3-0.1-0.5-0.4-0.6-0.7
				c-0.3-0.4-1.4-1.9-1.6-2.1c-0.1-0.1-0.2-0.3-0.3-0.4c-0.4-0.4-0.5-0.6-1-0.7c-0.1-0.1-0.6-0.2-1.3,0.2c-1.8,1.1-3.4,4.8-3.6,7
				c-0.1,1,0,2,0.3,3.4s0.7,2.4,1.2,3.2c0.4,0.6,0.9,1.1,1.4,1.4c0.1,0,0.2,0,0.3,0.1c0.6,0.1,1.4,0.3,1.7,0.9
				c0.2,0.3,0.2,0.6,0.1,0.9c-2.5,9.9,1.8,18.6,10.6,21.7l10.2,3.6c9.3,3.3,20.3-3.2,24.4-14.4l6.3-17c2.3-6.1,2.1-12.6-0.4-17.9
				c-1.9-4.1-5.1-7.1-9-8.4l-10.2-3.6c-1.1-0.4-2.3-0.7-3.4-0.8C204.5,67.6,195.6,73.8,192,83.7z M182.5,104.8L182.5,104.8
				L182.5,104.8z M187.2,90.9L187.2,90.9L187.2,90.9z M187.2,90.9L187.2,90.9L187.2,90.9z"/>
		</g>
		<g>
			<path class="st16" d="M215.5,118.8c-6.5,1.8-10.6,0.8-15-4.7"/>
			<path class="st17" d="M209,120.1c1.9,0.2,4.1-0.1,6.6-0.8c0.3-0.1,0.4-0.3,0.3-0.6c-0.1-0.3-0.3-0.4-0.6-0.3
				c-6.6,1.8-10.4,0.6-14.5-4.5c-0.2-0.2-0.5-0.2-0.7-0.1c-0.2,0.2-0.2,0.5-0.1,0.7C202.9,117.9,205.6,119.7,209,120.1z"/>
		</g>
		<g>
			<path class="st16" d="M217.2,104.2c0.7-2.9,3.5-4.8,6.2-4.2c2.7,0.6,4.4,3.4,3.7,6.3c-0.1,0.3-0.2,0.6-0.3,0.9"/>
			<path class="st20" d="M226.8,107.7c0.2,0,0.4-0.1,0.5-0.3c0.1-0.3,0.3-0.7,0.3-1c0.4-1.6,0.1-3.2-0.7-4.5c-0.8-1.2-2-2.1-3.4-2.4
				c-3-0.6-6.1,1.4-6.8,4.6c-0.1,0.3,0.1,0.5,0.4,0.6c0.3,0.1,0.5-0.1,0.6-0.4c0.6-2.6,3.2-4.3,5.7-3.8c1.1,0.2,2.1,0.9,2.7,1.9
				c0.7,1.1,0.9,2.4,0.6,3.8c-0.1,0.3-0.2,0.6-0.3,0.8c-0.1,0.3,0,0.5,0.3,0.6C226.7,107.7,226.7,107.7,226.8,107.7z"/>
		</g>
		<g>
			<path class="st16" d="M196.2,98.4c0.7-2.9,3.5-4.8,6.2-4.2c2.7,0.6,4.4,3.4,3.7,6.3c-0.1,0.3-0.2,0.6-0.3,0.9"/>
			<path class="st20" d="M205.8,101.9c0.2,0,0.4-0.1,0.5-0.3c0.1-0.3,0.3-0.7,0.3-1c0.4-1.6,0.1-3.2-0.7-4.5c-0.8-1.2-2-2.1-3.4-2.4
				c-3-0.6-6.1,1.4-6.8,4.6c-0.1,0.3,0.1,0.5,0.4,0.6c0.3,0.1,0.5-0.1,0.6-0.4c0.6-2.6,3.2-4.3,5.7-3.8c1.1,0.2,2.1,0.9,2.7,1.9
				c0.7,1.1,0.9,2.4,0.6,3.8c-0.1,0.3-0.2,0.6-0.3,0.8c-0.1,0.3,0,0.5,0.3,0.6C205.7,101.9,205.8,101.9,205.8,101.9z"/>
		</g>
		<g>
			<path class="st19" d="M250,63.7c7.4,17-6.4,30.2-13.8,39.3c6.1-23.8-4.3-22.1-11.4-24.6c-4.9-1.7-13.5-9-22.5-6.1
				c-8.9,3-12.4,14.7-14.2,16.7c-0.8-0.3-3-1.3-3.1-3.5c-0.5-12.6,13.3-50.4,45-28.1C236.4,62,240.3,68.6,250,63.7z"/>
			<path class="st17" d="M235.8,103.9c-0.4-0.2-0.6-0.7-0.5-1.1c2.3-8.9,2.4-14.8,0.4-18.1c-1.7-2.8-4.7-3.6-7.9-4.3
				c-1.1-0.3-2.2-0.5-3.2-0.9c-1.3-0.5-2.9-1.3-4.6-2.2c-4.9-2.6-11-5.9-17.2-3.8c-6.3,2.1-9.8,9-11.9,13.2
				c-0.8,1.6-1.4,2.7-1.9,3.3c-0.3,0.3-0.7,0.4-1.1,0.3c-0.6-0.2-3.7-1.5-3.8-4.4c-0.3-8.4,5.3-26.8,17.7-33.5
				c8.4-4.6,18.1-3,28.8,4.5l0,0c1.3,0.9,2.6,2,3.8,3c4.5,3.8,8.1,6.8,15.2,3.2c0.2-0.1,0.5-0.1,0.8,0s0.5,0.3,0.6,0.5
				c6.8,15.7-3.7,28.1-11.3,37.2c-0.9,1.1-1.8,2.1-2.6,3.1c-0.2,0.3-0.5,0.4-0.9,0.4C236,104,235.9,104,235.8,103.9z M233.1,61.2
				c-1.2-1-2.3-2-3.6-2.9l0,0c-10.1-7.1-19.1-8.6-26.8-4.4c-11.5,6.2-16.9,23.9-16.6,31.7c0,1.1,1.1,1.9,1.8,2.3
				c0.3-0.6,0.8-1.4,1.2-2.3c2.2-4.4,5.9-11.8,13-14.2c7-2.3,13.8,1.3,18.8,4c1.7,0.9,3.2,1.7,4.3,2.1c1,0.3,2,0.6,3.1,0.8
				c3.3,0.8,7,1.7,9.1,5.2c2,3.3,2.2,8.3,0.7,15.6c7.2-8.5,16.8-20,11.3-34.1C241.8,68.5,237.6,64.9,233.1,61.2z M230.1,57.5
				L230.1,57.5L230.1,57.5z"/>
		</g>
	</g>
	<g id="waist_2_">
		<path class="st21" d="M188.6,226c0.5,0.1,1-0.3,1.1-0.8s-0.2-1.1-0.8-1.2c-7.7-1.7-22.2-7.3-38.8-15c-14.7-6.8-27.2-13.6-29.7-16
			c-0.4-0.4-1-0.4-1.4,0s-0.4,1,0,1.4c5.5,5.5,51.6,27.6,69.5,31.5C188.5,226,188.5,226,188.6,226z"/>
	</g>
	<g id="shoe_4_">
		<path class="st19" d="M23.3,307.1l6.3-3.9c3.7-2.3,8.6-1.1,10.9,2.6l18.4,29.7c2.3,3.7,1.1,8.6-2.6,10.9l-6.3,3.9
			c-3.7,2.3-8.6,1.1-10.9-2.6L20.7,318C18.4,314.2,19.6,309.3,23.3,307.1z"/>
		<path class="st17" d="M38.2,348.1l-18.4-29.7c-1.2-2-1.6-4.4-1.1-6.7c0.5-2.3,2-4.3,4-5.5l6.3-3.9c2-1.2,4.4-1.6,6.7-1.1
			s4.3,2,5.5,4l18.4,29.7c1.2,2,1.6,4.4,1.1,6.7c-0.5,2.3-2,4.3-4,5.5l-6.3,3.9c-1.7,1.1-3.7,1.5-5.6,1.3
			C42.2,352,39.7,350.6,38.2,348.1z M30.1,304l-6.3,3.9c-1.6,1-2.7,2.5-3.1,4.3s-0.1,3.7,0.8,5.2l18.4,29.7c2,3.2,6.3,4.3,9.5,2.2
			l6.3-3.9c1.6-1,2.7-2.5,3.1-4.3c0.4-1.8,0.1-3.7-0.8-5.2l-18.4-29.7c-1-1.6-2.5-2.7-4.3-3.1c-0.3-0.1-0.6-0.1-0.9-0.2
			C32.9,302.9,31.4,303.2,30.1,304z"/>
	</g>
	<g id="hand_4_">
		<g>
			<path class="st16" d="M84,190.9l4.1-15.9l18.1,0.8c0.4,3.6,1.1,5.8,1.7,8c0.7,2.3,1.3,4.5,1.7,8.5v0.2c0.1,0.7,0.1,1.4-0.1,2.1
				c-0.5,3.2-3,5.8-6,6.2c-0.4,0-0.8,0.1-1.2,0L90.1,200c-1.8-0.1-3.5-1-4.7-2.5s-1.8-3.4-1.6-5.4c0-0.2,0-0.4,0.1-0.6
				C84,191.2,84,191,84,190.9z"/>
		</g>
		<g>
			<path class="st17" d="M108.6,194.3c-0.4,2.8-2.6,5-5.2,5.3c-0.3,0-0.7,0.1-1.1,0l-12.1-0.8c-1.5-0.1-2.9-0.9-4-2.1
				c-1-1.3-1.5-2.9-1.4-4.7c0-0.2,0-0.4,0.1-0.6c0-0.1,0.1-0.3,0.1-0.4l3.9-15.1l16.5,0.7c0.4,3.2,1,5.3,1.6,7.3
				c0.6,2.3,1.2,4.5,1.7,8.3v0.1v0.1C108.7,193.1,108.7,193.7,108.6,194.3 M110.5,194.6c0.1-0.7,0.1-1.5,0.1-2.3c0-0.1,0-0.1,0-0.2
				c-0.9-8-2.6-9.2-3.5-17.3l-19.7-0.9l-4.3,16.7c0,0.2-0.1,0.4-0.1,0.6c0,0.2-0.1,0.5-0.1,0.7c-0.3,4.6,2.9,8.6,7.2,8.9l12.2,0.8
				c0.5,0,1,0,1.4,0C107.2,201.1,110,198.2,110.5,194.6L110.5,194.6z"/>
		</g>
	</g>
</g>
<g id="coin_3_">
	<g>
		<g>
			<g>
				<g>
					<defs>
						<path id="SVGID_7_" d="M256.6,534.5c0,0-101,0.8-111.1-58.7c-4.7-27.8,52.7-99.7,52.7-99.7l111.1,58.7L256.6,534.5z"/>
					</defs>
					<clipPath id="SVGID_8_">
						<use xlink:href="#SVGID_7_"  style="overflow:visible;"/>
					</clipPath>
					<path class="st22" d="M223.2,504.9c5.8-0.1,19.9-3.3,41.7-17.3S249.3,446,247,429.2l-41.2-11.4c0,0-40.3,84.8-13.4,92.4
						C199.8,512.2,217.3,504.9,223.2,504.9z"/>
				</g>
			</g>
		</g>
		<g>
			<g>
				<g>
					<defs>
						<path id="SVGID_9_" d="M256.6,534.5c0,0-101,0.8-111.1-58.7c-4.7-27.8,52.7-99.7,52.7-99.7l111.1,58.7L256.6,534.5z"/>
					</defs>
					<clipPath id="SVGID_10_">
						<use xlink:href="#SVGID_9_"  style="overflow:visible;"/>
					</clipPath>
					<g class="st23">
						<g>
							<path class="st4" d="M206.4,407.9c-26.4,6.5-42.5,33.1-36.1,59.4c6.5,26.4,33.1,42.5,59.4,36.1c26.4-6.5,42.5-33.1,36.1-59.4
								C259.4,417.6,232.8,401.5,206.4,407.9z"/>
							<path class="st5" d="M207.4,412.1c-24,5.9-38.8,30.2-32.9,54.2c5.9,24,30.2,38.8,54.2,32.9s38.8-30.2,32.9-54.2
								C255.8,421,231.5,406.2,207.4,412.1z"/>
							<path class="st6" d="M208.7,417.2c-21.2,5.2-34.2,26.6-29,47.8c5.2,21.2,26.6,34.2,47.8,29s34.2-26.6,29-47.8
								C251.3,425.1,229.9,412.1,208.7,417.2z"/>
						</g>
					</g>
				</g>
			</g>
		</g>
		<g>
			<g>
				<g>
					<defs>
						<path id="SVGID_11_" d="M256.6,534.5c0,0-101,0.8-111.1-58.7c-4.7-27.8,52.7-99.7,52.7-99.7l111.1,58.7L256.6,534.5z"/>
					</defs>
					<clipPath id="SVGID_12_">
						<use xlink:href="#SVGID_11_"  style="overflow:visible;"/>
					</clipPath>
					<g class="st24">
						<text transform="matrix(0.8841 0.4674 -0.4674 0.8841 184.3515 445.0269)" class="st5 st8 st25">DATA</text>
					</g>
				</g>
			</g>
		</g>
	</g>
</g>
<g id="coin_4_">
	<g>
		<g>
			<g>
				<g>
					<defs>
						<path id="SVGID_13_" d="M147.5,459.2c0,0-64.3,77.9-116.3,47.5C6.8,492.4-11.4,402.2-11.4,402.2L105,354.7L147.5,459.2z"/>
					</defs>
					<clipPath id="SVGID_14_">
						<use xlink:href="#SVGID_13_"  style="overflow:visible;"/>
					</clipPath>
					<path class="st26" d="M103.4,465.8c3.6-4.5,10.3-17.4,13.5-43.1c3.3-25.7-41.9-14.8-56.3-23.8l-35.2,24.3
						c0,0,39.1,85.4,62.2,69.6C93.9,488.4,99.6,470.3,103.4,465.8z"/>
				</g>
			</g>
		</g>
		<g>
			<g>
				<g>
					<defs>
						<path id="SVGID_15_" d="M147.5,459.2c0,0-64.3,77.9-116.3,47.5C6.8,492.4-11.4,402.2-11.4,402.2L105,354.7L147.5,459.2z"/>
					</defs>
					<clipPath id="SVGID_16_">
						<use xlink:href="#SVGID_15_"  style="overflow:visible;"/>
					</clipPath>
					<g class="st27">
						<g>
							<path class="st4" d="M18.2,416.3c-12,24.4-1.9,53.8,22.3,65.8c24.4,12,53.8,1.9,65.8-22.3c12-24.4,1.9-53.8-22.3-65.8
								C59.7,381.9,30.3,392,18.2,416.3z"/>
							<path class="st5" d="M22.1,418.3c-10.9,22.2-1.8,49.1,20.4,60s49.1,1.8,60-20.4c10.9-22.2,1.8-49.1-20.4-60
								C60,386.9,33.1,396,22.1,418.3z"/>
							<path class="st6" d="M26.9,420.5c-9.6,19.6-1.6,43.3,18,52.9s43.3,1.6,52.9-18s1.6-43.3-18-52.9
								C60.3,393,36.6,401,26.9,420.5z"/>
						</g>
					</g>
				</g>
			</g>
		</g>
		<g>
			<g>
				<g>
					<defs>
						<path id="SVGID_17_" d="M147.5,459.2c0,0-64.3,77.9-116.3,47.5C6.8,492.4-11.4,402.2-11.4,402.2L105,354.7L147.5,459.2z"/>
					</defs>
					<clipPath id="SVGID_18_">
						<use xlink:href="#SVGID_17_"  style="overflow:visible;"/>
					</clipPath>
					<g class="st28">
						<text transform="matrix(0.9261 -0.3774 0.3774 0.9261 32.5454 457.0664)" class="st5 st8 st25">DATA</text>
					</g>
				</g>
			</g>
		</g>
	</g>
</g>
<g id="man_large">
	<g id="bg_1_">
		
			<rect x="658.3" y="360.3" transform="matrix(0.9505 -0.3107 0.3107 0.9505 -88.9323 236.6949)" class="st16" width="80.4" height="74.3"/>
	</g>
	<g id="pants_1_">
		<g>
			<path class="st16" d="M738.5,331.2c4,9.8,12.9,22.8,14.4,34.6l5.2,41.5c1.1,9.5,2.4,19,3.3,28.7c0.5,4.8,1,9.6,1.5,14.5
				c0.3,3.3,0.9,9.1,1.8,10.5c1,1.6,3.1,2.7,4.6,3.8c4.2,3.5,8.3,7.1,12.5,10.6c10.9,9.2,21.8,18.5,32.6,27.7
				c6.5,5.6,13.2,11.1,19.7,16.7c0.1,0.1,0.1,0.1,0.2,0.2l-2.1-1.7l2.1,1.7L801,558.5c0,0-85.2-59.2-98.5-81.4
				c-2.7-4.5-11.1-49.6-11.1-49.6"/>
			<path class="st17" d="M800.9,559.9c-0.2,0-0.5-0.1-0.7-0.2c-3.5-2.5-85.6-59.7-98.9-81.8c-2.7-4.6-10.4-45.4-11.2-50
				c-0.1-0.7,0.3-1.4,1.1-1.5s1.4,0.3,1.5,1.1c3.3,18.1,9.1,46.1,10.9,49.2c12.2,20.4,87.7,73.7,97.1,80.3l31.8-36.6l-1.1-0.9
				c-0.1-0.1-0.2-0.2-0.2-0.3l-62.7-53.2c-0.4-0.3-1-0.7-1.5-1.1c-1.3-0.9-2.6-1.8-3.3-3c-1-1.5-1.4-5.5-1.9-10.3l-0.4-4.1
				c-0.4-3.7-0.7-7.6-1.2-11.3c-0.5-5-1.2-10.2-1.7-15.1c-0.5-4.4-1.1-9-1.6-13.5l-5.2-41.5c-1-7.8-5.3-16.3-9.2-23.7
				c-1.9-3.7-3.7-7.4-5.1-10.6c-0.3-0.6,0-1.4,0.7-1.7c0.6-0.3,1.4,0,1.7,0.7c1.3,3.1,3.1,6.6,5,10.4c4,7.7,8.4,16.4,9.5,24.6
				l5.2,41.5c0.5,4.5,1.1,9.1,1.6,13.5c0.6,4.9,1.2,10.1,1.7,15.2c0.4,3.7,0.7,7.6,1.2,11.3l0.4,4.1c0.2,2.6,0.9,8,1.5,9.1
				c0.5,0.9,1.6,1.6,2.7,2.2c0.5,0.4,1.2,0.9,1.7,1.3l65,55.2c0,0,0.1,0,0.1,0.1c0.5,0.4,0.5,1.3,0.1,1.8c-0.1,0.1-0.1,0.2-0.2,0.2
				l-33.1,38.3C801.7,559.8,801.4,559.9,800.9,559.9z"/>
		</g>
	</g>
	<g id="leg">
		<g>
			<path class="st16" d="M692.7,439.8c-11.5,8.3-22,18.2-31.5,28.7c-4.7,5.2-9.2,10.6-13.5,16.3c-2,2.6-4,4.8-4.8,8
				c-1,3.7-1.4,7.6-2,11.4c-3.3,20.7-8.3,41.1-12.7,61.5c-0.9,4-1.7,8-2.6,12l0.5-2.7l-0.5,2.7l-49.8-11c0,0,5.2-85.5,18.4-107.8
				c2.7-4.5,54.5-81.5,54.5-81.5"/>
			<path class="st17" d="M625.6,579.1c-0.1,0-0.1,0-0.2,0c-0.1,0-0.2-0.1-0.3-0.1l-49.5-11c-0.6-0.1-1.1-0.7-1.1-1.4
				c0.2-3.5,5.5-86.2,18.6-108.3c2.7-4.5,52.4-78.5,54.5-81.6c0.4-0.6,1.2-0.7,1.8-0.3c0.6,0.4,0.7,1.2,0.3,1.8
				c-0.5,0.7-51.9,77.1-54.5,81.5c-12.1,20.3-17.5,95.9-18.2,106.1l47.4,10.5l0.2-1.3c0-0.1,0.1-0.2,0.1-0.3l1.9-9
				c1.3-6.1,2.7-12.2,4-18.2c3.1-14.1,6.4-28.8,8.7-43.3c0.1-1,0.3-1.9,0.4-2.8c0.4-2.9,0.9-5.9,1.6-8.8c0.9-3.1,2.6-5.3,4.4-7.6
				l0.6-0.9c4.4-5.8,9-11.2,13.6-16.3c10.3-11.3,20.8-21.1,31.8-28.9c0.5-0.4,1.4-0.3,1.8,0.3c0.4,0.6,0.3,1.4-0.3,1.8
				c-10.7,7.7-21.3,17.3-31.3,28.5c-4.5,5-9.1,10.5-13.5,16.1l-0.6,0.9c-1.7,2.2-3.2,4.2-3.8,6.7c-0.7,2.8-1.2,5.6-1.6,8.4
				c-0.1,1-0.3,1.9-0.4,2.9c-2.4,14.6-5.6,29.3-8.8,43.5c-1.3,5.9-2.7,12.1-4,18.1l-2.6,12v0.1C626.8,578.7,626.1,579.1,625.6,579.1
				z"/>
		</g>
	</g>
	<g id="tool_1_">
		<g>
			<path class="st18" d="M821.6,325.3L483.2,458.5c-3.3,1.3-4.9,5.1-3.6,8.4l0.6,1.7c1.3,3.3,5.1,4.9,8.4,3.6L827,339.1
				c3.3-1.3,4.9-5.1,3.6-8.4l-0.6-1.7C828.7,325.6,825,323.9,821.6,325.3z"/>
		</g>
		<g>
			<path class="st17" d="M501.8,512.6c-12.3-19.4-18.6-36.1-18.6-36.1l-2.2,0.9l-7.4-18.4l2.5-1c0,0-5-12.3-11.2-34.2
				c-5.8-20.2-8.1-40-8.1-40l12.3-1.8c0,0,3.7,25.6,8,41.4c4.3,15.8,10.2,30.2,10.2,30.2l6.7-2.7l7.5,18.8l-7.2,2.9
				c0,0,8.1,20.6,14.5,32.2c17.9,32,27.6,42.9,27.2,44.6C535.4,551.1,517.9,538,501.8,512.6z"/>
		</g>
		<g id="hand_3_">
			<g>
				<path class="st16" d="M582.3,430.2c-0.1,0.3-0.1,0.5-0.2,0.7c-0.9,2.4-2.6,4.3-4.8,5.3c-2.1,1.1-4.6,1.2-6.8,0.4l-14.9-5.5
					c-0.5-0.2-1-0.4-1.5-0.7c-3.4-2-4.9-6.3-3.8-10.4c0.2-0.9,0.5-1.7,1.1-2.5l0.1-0.2c2.6-4.4,4.5-6.6,6.5-9
					c1.8-2.1,3.7-4.4,6.2-8.3l21.9,8.7l-3.6,20.6C582.4,429.7,582.4,430,582.3,430.2z"/>
			</g>
			<g>
				<path class="st17" d="M551.6,420.4c0.2-0.7,0.5-1.5,0.9-2.1l0.1-0.1v-0.1c2.6-4.3,4.4-6.4,6.4-8.8c1.7-2,3.5-4.2,5.8-7.6
					l19.9,7.9l-3.4,19.6c0,0.2-0.1,0.3-0.1,0.5c-0.1,0.2-0.1,0.4-0.2,0.7c-0.7,2-2.2,3.7-4.2,4.7c-1.8,1-4,1.1-5.8,0.3l-14.9-5.5
					c-0.4-0.2-0.9-0.3-1.2-0.6C551.9,427.6,550.6,424,551.6,420.4 M549,419.8c-1.3,4.5,0.4,9.3,4.4,11.8c0.5,0.3,1.1,0.6,1.7,0.9
					l14.9,5.5c5.2,1.9,11.2-1,13.3-6.5c0.1-0.3,0.2-0.6,0.3-0.9c0.1-0.2,0.1-0.4,0.2-0.7l3.7-21.6l-23.8-9.4
					c-5.3,8.9-7.9,9.4-13.3,18.2c0,0.1-0.1,0.1-0.1,0.2C549.7,418,549.3,418.8,549,419.8L549,419.8z"/>
			</g>
		</g>
	</g>
	<g id="top_1_">
		<path class="st16" d="M648.8,377.5c-7.4-13.6-4.1-7.1-11.3-21.6c0,0,1.8,8.9-11.7,27.6c-11.2,15.5-39.7,25.6-39.7,25.6l-20.6-9.4
			c-0.6-0.9,30.7-44.9,32.6-50.3c6.8-19.1,3.2-40.1,5.6-60c2.4-20.3,9.8-26.8,25.1-36.6c12.8-8.1,27.8-15.6,42.4-18.3
			c18.8-3.5,39.7,0,58.5,2.6c19.2,2.7,38.4,6.9,56.9,13.5c19,6.7,24.3,20.3,20.2,40.8c-0.5,2.9-12.7,40.3-14.3,39.5
			c2.2,1.3-24.6-2.8-27.3-2.7c0.9,0,2.6-30.8,2.2-33.4c-0.7-6.5-20.2-6.6-26.5-6.8c-9.2-0.3-18.7,0.7-15.1,11.1
			c4.8,13.4,5.3,13.6,10.4,25.2c5.5,12.6,7.9,17.3,11.3,24.9"/>
		<path class="st17" d="M585.9,410.3c-0.2,0-0.3,0-0.5-0.1l-20.6-9.4c-0.2-0.1-0.3-0.2-0.5-0.4c-0.9-1.1-0.9-1.2,13.5-22.3
			c8-11.8,17.9-26.4,18.8-29.1c4.3-12.1,4.4-25.1,4.5-37.6c0.1-7.3,0.1-14.8,1-22c2.4-20.5,10.1-27.5,25.7-37.5
			c15.4-9.8,29.8-16,43-18.5c17.4-3.2,35.9-0.6,53.9,1.8c1.7,0.2,3.3,0.4,5,0.6c20.8,2.9,39.6,7.3,57.1,13.6
			c18.8,6.6,25.4,20.1,21.1,42.3c-0.3,1.5-3.3,11-6.6,20.6c-4.9,14.3-6.7,18.1-7.7,19.2c-0.4,1.3-0.9,1.3-17.2-0.7
			c-4.8-0.6-10.4-1.3-11.3-1.3c-0.7,0-1.4-0.5-1.4-1.3c0-0.3,0.1-0.5,0.2-0.7c0.9-3,2.4-30.2,2-32.5c-0.3-3.3-8.4-5.2-24-5.7h-1.3
			c-4.8-0.1-11.5,0-13.7,3c-1.1,1.4-1.1,3.5,0,6.3c3.4,9.5,4.7,12.3,6.9,17.4c0.9,2,1.9,4.5,3.4,7.8c3.6,8.4,5.9,13.3,8.1,17.9
			c1.1,2.2,2.1,4.5,3.2,6.9c0.3,0.6,0,1.4-0.6,1.7c-0.6,0.3-1.4,0-1.7-0.6c-1.2-2.5-2.1-4.7-3.2-6.9c-2.2-4.7-4.5-9.5-8.1-18
			c-1.4-3.3-2.5-5.8-3.4-7.8c-2.2-5.1-3.5-8-6.9-17.5c-1.3-3.6-1.2-6.6,0.4-8.8c2.9-4,10.1-4.3,15.9-4.1h1.3
			c13.4,0.3,25.8,1.6,26.5,8c0.2,1.5-0.2,10.1-0.6,17.4c-0.5,8.8-1,12.8-1.3,14.9c2,0.2,5.3,0.6,10.1,1.2c5.1,0.6,12.6,1.6,14.8,1.6
			c0.1,0,0.1-0.1,0.2-0.1c2.4-3.3,12.9-35.4,13.6-38.5c4.2-21-1.8-33-19.4-39.3c-17.4-6.2-35.9-10.6-56.6-13.4
			c-1.6-0.2-3.3-0.4-5-0.6c-17.7-2.5-36-5-53-1.9c-12.7,2.4-26.8,8.4-42,18.2c-15.3,9.7-22.2,16-24.5,35.6c-0.9,7.2-0.9,14.5-1,21.7
			c-0.1,12.8-0.2,26.1-4.7,38.6c-1,2.8-8.6,14.1-19.1,29.7c-5.2,7.8-11.2,16.5-12.9,19.5l19,8.7c3.8-1.4,28.5-11,38.6-24.9
			c12.8-17.9,11.4-26.5,11.4-26.6c-0.1-0.6,0.2-1.3,0.9-1.5c0.6-0.2,1.3,0.1,1.6,0.6c4.7,9.3,5,9.9,6.5,12.7c1,1.6,2.1,3.8,4.8,8.8
			c0.3,0.6,0.1,1.4-0.5,1.8c-0.6,0.3-1.4,0.1-1.8-0.5c-2.7-4.9-3.8-7.2-4.8-8.8c-1.3-2.4-1.7-3.2-4.4-8.4
			c-0.9,4.6-3.6,12.4-11.7,23.4c-11.3,15.6-39.1,25.6-40.3,26C586.2,410.3,586.1,410.4,585.9,410.3z M791.6,331.9L791.6,331.9
			L791.6,331.9z M764.9,326.7L764.9,326.7L764.9,326.7z M764.9,326.7L764.9,326.7L764.9,326.7z M764.9,326.7L764.9,326.7
			L764.9,326.7z M764.9,326.7L764.9,326.7L764.9,326.7z M764.9,326.7L764.9,326.7L764.9,326.7z M764.9,326.7L764.9,326.7
			L764.9,326.7z M764.9,326.7L764.9,326.7L764.9,326.7z M764.9,326.7L764.9,326.7L764.9,326.7z M764.9,326.7L764.9,326.7
			L764.9,326.7z M764.9,326.7L764.9,326.7L764.9,326.7z M764.9,326.7L764.9,326.7L764.9,326.7z M764.9,326.7L764.9,326.7
			L764.9,326.7z M764.9,326.7L764.9,326.7L764.9,326.7z"/>
	</g>
	<g id="shoe_3_">
		<path class="st19" d="M611.2,605.1l-44.9-11.8c-5.6-1.5-9-7.3-7.5-12.8l2.5-9.5c1.5-5.6,7.3-9,12.8-7.5l44.9,11.8
			c5.6,1.5,9,7.3,7.5,12.8l-2.5,9.5C622.7,603.2,616.8,606.6,611.2,605.1z"/>
		<path class="st17" d="M613.4,606.8c-0.9,0-1.7-0.2-2.5-0.4L566,594.6c-3.1-0.7-5.7-2.8-7.3-5.5c-1.6-2.7-2-5.9-1.3-9l2.5-9.5
			c1.6-6.3,8.1-10.2,14.4-8.4l44.9,11.8c3.1,0.7,5.7,2.8,7.3,5.5c1.6,2.8,2,5.9,1.3,9l-2.5,9.5c-0.7,3.1-2.8,5.7-5.5,7.3
			C617.9,606.3,615.6,606.9,613.4,606.8z M571.8,564.5c-4.3-0.2-8.2,2.6-9.3,6.8l-2.5,9.5c-0.6,2.4-0.3,4.8,1,6.9
			c1.3,2.1,3.2,3.6,5.6,4.3l44.9,11.8c2.4,0.6,4.8,0.3,6.9-1c2.1-1.3,3.6-3.2,4.3-5.7l2.5-9.5c0.6-2.4,0.3-4.8-1-6.9
			c-1.3-2.1-3.2-3.6-5.6-4.3l-44.9-11.8C573.1,564.6,572.4,564.5,571.8,564.5z"/>
	</g>
	<g id="logo_1_">
		<g>
			<g>
				<circle class="st20" cx="673.9" cy="309.1" r="42.9"/>
			</g>
		</g>
		<g>
			<g>
				<g>
					<g>
						<path class="st16" d="M649.8,328.7c-0.1,0-0.3,0-0.4,0c-0.6-0.1-1-0.7-0.9-1.3l6.6-32.8c0.1-0.6,0.7-1,1.3-0.9
							c0.6,0.1,1,0.7,0.9,1.3l-6.6,32.8C650.6,328.3,650.3,328.6,649.8,328.7z"/>
					</g>
				</g>
				<g>
					<g>
						<path class="st16" d="M677,322.4c-0.4,0.1-0.9,0-1.1-0.4l-20.5-26.5c-0.3-0.4-0.3-1.2,0.2-1.5c0.4-0.3,1.2-0.3,1.5,0.2
							l20.5,26.5c0.3,0.4,0.3,1.2-0.2,1.5C677.2,322.3,677.1,322.4,677,322.4z"/>
					</g>
				</g>
				<g>
					<g>
						<path class="st16" d="M677,322.4c-0.1,0-0.3,0-0.4,0c-0.6-0.1-1-0.7-0.9-1.3l6.6-32.8c0.1-0.6,0.7-1,1.3-0.9
							c0.6,0.1,1,0.7,0.9,1.3l-6.6,32.8C677.8,322,677.3,322.3,677,322.4z"/>
					</g>
				</g>
				<g>
					<g>
						<path class="st16" d="M704.2,316.1c-0.4,0.1-0.9,0-1.1-0.4l-20.5-26.5c-0.3-0.4-0.3-1.2,0.2-1.5c0.4-0.3,1.2-0.3,1.5,0.2
							l20.5,26.5c0.3,0.4,0.3,1.2-0.2,1.5C704.4,316,704.3,316.1,704.2,316.1z"/>
					</g>
				</g>
			</g>
			<g>
				<g>
					
						<ellipse transform="matrix(0.974 -0.2266 0.2266 0.974 -57.6526 155.8138)" class="st16" cx="649.9" cy="329" rx="4.2" ry="4.1"/>
				</g>
			</g>
			<g>
				<g>
					
						<ellipse transform="matrix(0.974 -0.2266 0.2266 0.974 -55.5167 161.8036)" class="st16" cx="677" cy="322.7" rx="4.2" ry="4.1"/>
				</g>
			</g>
			<g>
				<g>
					
						<ellipse transform="matrix(0.974 -0.2266 0.2266 0.974 -53.3564 167.7909)" class="st16" cx="704.2" cy="316.3" rx="4.2" ry="4.1"/>
				</g>
			</g>
		</g>
	</g>
	<g id="face_2_">
		<g>
			<path class="st16" d="M659.7,248.4l-14.1,2.8c-13.6,2.7-27.5-8.4-30.9-24.8l-5-23.6c-3.4-16.3,4.8-31.8,18.4-34.4l14.1-2.8
				c13.6-2.7,27.5,8.4,30.9,24.8l2.4,10.9c0-0.2,2.7-2.9,2.9-3c1-0.9,1.3-1.3,2.6-1.5c4.2-0.9,6.9,7.6,6.7,11.9
				c-0.1,1.7-0.6,3.3-1.2,4.8c-0.6,1.6-1.4,3.1-2.4,4.4c-0.7,1-1.7,1.6-2.8,2c-0.4,0.1-2.4,0-2.2,0.6
				C680.4,235.3,672.2,245.9,659.7,248.4z"/>
			<path class="st17" d="M640.5,252.9c-12.4-0.5-24.1-11.2-27.2-26.2l-5-23.6c-1.9-9.1-0.3-18.4,4.3-25.6c3.6-5.6,9.1-9.3,15.1-10.5
				l14.3-2.7c14.3-2.8,28.9,8.8,32.4,25.8c0.4,1.9,1.2,5.7,1.8,8.3c0.5-0.5,1.1-1,1.3-1.2c0.2-0.1,0.3-0.3,0.4-0.4
				c0.7-0.6,1.3-1.1,2.7-1.4c1.4-0.3,2.8,0.1,4,1.2c2.9,2.5,4.6,8.3,4.3,12.1c-0.1,1.6-0.5,3.2-1.3,5.2c-0.5,1.3-1.3,3.2-2.6,4.7
				c-1,1.2-2.1,2-3.3,2.5c-0.3,0.1-0.6,0.1-1.1,0.1c-0.1,0-0.1,0-0.2,0c1.1,14.4-7.1,25.9-20.4,28.4l0,0l-14.1,2.8
				C644.1,252.9,642.4,253,640.5,252.9z M647.2,166.6c-1.5-0.1-3.1,0-4.7,0.3l-14.1,2.8c-5.3,1.1-10.2,4.4-13.5,9.3
				c-4.3,6.5-5.8,15.1-4,23.5l5,23.6c3.3,15.6,16.5,26.3,29.4,23.7l14.1-2.8c12.2-2.4,19.6-13,18.2-26.5c0-0.4,0.1-0.9,0.4-1.2
				c0.6-0.6,1.6-0.7,2.5-0.7c0.1,0,0.3,0,0.4,0c0.7-0.3,1.5-0.9,2.1-1.6c0.7-1,1.5-2.2,2.1-4c0.6-1.7,1-3.1,1.1-4.4
				c0.2-3-1.3-8.1-3.4-9.9c-0.9-0.7-1.5-0.6-1.7-0.5c-0.6,0.1-0.9,0.3-1.4,0.7c-0.1,0.1-0.3,0.3-0.5,0.4c-0.3,0.2-2,2-2.5,2.6
				c-0.1,0.3-0.4,0.6-0.9,0.7c-0.6,0.2-1.4-0.2-1.6-0.9c0,0,0,0,0-0.2l0,0l0,0c-0.1-0.5-0.5-2.6-2.4-10.8
				C669,177,658.4,167,647.2,166.6z M680.3,220.3C680.3,220.4,680.3,220.4,680.3,220.3C680.3,220.4,680.3,220.4,680.3,220.3z
				 M676.8,201L676.8,201L676.8,201z M676.8,201L676.8,201L676.8,201z"/>
		</g>
		<g>
			<path class="st16" d="M654.8,229c-6.7,6.3-12.4,6.9-20.6,3.3"/>
			<path class="st17" d="M642.4,235.3c-2.6-0.1-5.3-0.9-8.6-2.4c-0.3-0.1-0.5-0.5-0.3-0.9c0.1-0.3,0.5-0.5,0.9-0.3
				c8.3,3.6,13.5,2.9,19.9-3.2c0.2-0.2,0.6-0.2,1,0c0.2,0.2,0.2,0.6,0,1C650.8,233.6,647,235.5,642.4,235.3z"/>
		</g>
		<g>
			<path class="st16" d="M621.4,214.8c-0.1-0.4-0.2-0.9-0.2-1.3c-0.3-4,2.4-7.4,6.1-7.6c3.7-0.2,7.1,2.8,7.4,6.7"/>
			<path class="st20" d="M621.4,215.6c-0.3,0-0.5-0.2-0.6-0.5c-0.1-0.4-0.2-1-0.2-1.4c-0.2-2.1,0.4-4.3,1.8-5.8
				c1.3-1.5,3-2.4,4.9-2.5c4.1-0.2,7.7,3,8.1,7.3c0,0.3-0.2,0.6-0.6,0.7c-0.3,0-0.6-0.2-0.7-0.6c-0.3-3.6-3.3-6.3-6.7-6.1
				c-1.5,0.1-3,0.9-4,2c-1.2,1.3-1.6,3-1.5,4.8c0,0.4,0.1,0.7,0.2,1.2c0.1,0.3-0.1,0.7-0.4,0.9C621.5,215.6,621.5,215.6,621.4,215.6
				z"/>
		</g>
		<g>
			<path class="st16" d="M650.2,211.3c-0.1-0.4-0.2-0.9-0.2-1.3c-0.3-4,2.4-7.4,6.1-7.6c3.7-0.2,7.1,2.8,7.4,6.7"/>
			<path class="st20" d="M650.1,211.9c-0.3,0-0.5-0.2-0.6-0.5c-0.1-0.4-0.2-1-0.2-1.4c-0.2-2.1,0.4-4.3,1.8-5.8
				c1.3-1.5,3-2.4,4.9-2.5c4.1-0.2,7.7,3,8.1,7.3c0,0.3-0.2,0.6-0.6,0.7c-0.3,0-0.6-0.2-0.7-0.6c-0.3-3.6-3.3-6.3-6.7-6.1
				c-1.5,0.1-3,0.9-4,2c-1.2,1.3-1.6,3-1.5,4.8c0,0.4,0.1,0.7,0.2,1.2c0.1,0.3-0.1,0.7-0.4,0.9C650.3,211.9,650.2,211.9,650.1,211.9
				z"/>
		</g>
		<g>
			<path class="st19" d="M626.8,148.8c46.1-23.1,56.8,29.4,53.8,45.8c-0.5,2.8-3.7,3.7-4.8,4c-2-3-4.3-19.1-15.5-24.8
				c-11.2-5.7-24.1,2.4-30.8,3.6c-9.7,1.8-23.2-2.4-19.8,30.2c-7.9-13.5-23.5-33.5-10.5-54.4C611.1,161.4,617.6,153.5,626.8,148.8z"
				/>
			<path class="st17" d="M609.8,208.8c-0.4,0-0.9-0.2-1.1-0.6c-0.9-1.5-1.8-3-2.8-4.6c-8.3-13.5-19.7-31.9-7.7-51.2
				c0.2-0.3,0.5-0.5,0.9-0.6c0.3-0.1,0.7,0,1.1,0.2c8.7,6.1,13.9,2.8,20.6-1.3c1.7-1.1,3.5-2.1,5.6-3.2l0,0
				c15.6-7.8,28.7-7.9,38.8-0.3c15,11.2,18.8,36.6,16.8,47.6c-0.7,3.7-4.9,4.8-5.8,5c-0.5,0.1-1.1-0.1-1.4-0.5
				c-0.6-0.9-1.2-2.5-1.9-4.7c-1.9-5.9-5.2-15.7-13-19.7c-7.8-4-16.5-0.9-23.4,1.7c-2.5,0.9-4.7,1.7-6.5,2c-1.5,0.3-3,0.4-4.5,0.5
				c-4.4,0.4-8.4,0.7-11.2,4.2c-3.3,4.1-4.3,11.9-3,24c0.1,0.6-0.3,1.2-0.9,1.4C610.1,208.8,609.9,208.8,609.8,208.8z M599.7,155
				c-9.9,17.5,0.5,34.5,8.3,47.2c-0.5-9.8,0.7-16.4,4-20.3c3.4-4.3,8.6-4.7,13-5.1c1.5-0.1,2.9-0.3,4.2-0.5c1.6-0.3,3.7-1.1,6.1-1.9
				c7.1-2.6,16.7-6,25.4-1.6c8.9,4.5,12.3,15,14.4,21.2c0.4,1.2,0.7,2.5,1.2,3.2c1.1-0.3,2.6-1.2,2.8-2.7
				c1.9-10.2-1.8-34.5-15.7-44.9c-9.3-6.9-21.5-6.8-36.1,0.5l0,0c-1.8,1-3.6,2-5.3,3.1C615.4,157.1,609.2,160.9,599.7,155z
				 M626.8,148.8L626.8,148.8L626.8,148.8z"/>
		</g>
	</g>
	<g id="waist_1_">
		<path class="st21" d="M648.7,378.7c-0.6,0-1.2-0.5-1.3-1.2c0-0.7,0.5-1.4,1.2-1.4c10.5-0.7,30.7-5.2,54-12.2
			c20.7-6.1,38.5-12.6,42.2-15.4c0.5-0.4,1.4-0.3,1.8,0.3c0.4,0.5,0.3,1.4-0.3,1.8C737.9,356.9,672.9,377.1,648.7,378.7
			C648.8,378.7,648.8,378.7,648.7,378.7z"/>
	</g>
	<g id="shoe_2_">
		<path class="st19" d="M852.8,544.7l-29.9,35.5c-3.7,4.4-10.4,5-14.9,1.3l-7.5-6.3c-4.4-3.7-5-10.4-1.3-14.9l29.9-35.5
			c3.7-4.4,10.4-5,14.9-1.3l7.5,6.3C856,533.6,856.5,540.2,852.8,544.7z"/>
		<path class="st17" d="M814.3,585.2c-2.6-0.1-5-1.1-7.2-2.8l-7.5-6.3c-2.5-2-3.8-4.9-4.2-8c-0.3-3.2,0.7-6.2,2.8-8.7l29.9-35.5
			c2-2.5,4.9-3.8,8-4.2c3.2-0.3,6.2,0.7,8.7,2.8l7.5,6.3c2.5,2,3.8,4.9,4.2,8c0.3,3.2-0.7,6.2-2.8,8.7L823.8,581
			C821.3,583.9,817.8,585.4,814.3,585.2z M837.6,522.3c-0.4,0-0.7,0-1.2,0c-2.5,0.2-4.7,1.4-6.3,3.2L800.2,561
			c-1.6,1.9-2.4,4.3-2.1,6.7c0.2,2.5,1.4,4.7,3.2,6.3l7.5,6.3c3.8,3.3,9.7,2.8,12.9-1.1l29.9-35.5c1.6-1.8,2.4-4.3,2.1-6.7
			s-1.4-4.7-3.2-6.3l-7.5-6.3C841.6,523.2,839.6,522.4,837.6,522.3z"/>
	</g>
	<g id="hand_2_">
		<g>
			<path class="st16" d="M793.2,353.4c0,0.3,0,0.5,0,0.9c-0.2,2.7-1.3,5-3.2,6.7c-1.8,1.7-4.2,2.6-6.6,2.4l-16.1-1.3
				c-0.5,0-1.1-0.1-1.6-0.3c-4-1.1-6.6-4.9-6.7-9.3c0-1,0.1-1.8,0.3-2.8l0.1-0.2c1.4-5.1,2.6-7.9,3.8-10.8c1.2-2.7,2.5-5.5,3.7-10.2
				l24,2.5l2.2,21.8C793.2,353,793.2,353.2,793.2,353.4z"/>
		</g>
		<g>
			<path class="st17" d="M760.2,352.5c0-0.7,0.1-1.6,0.3-2.4v-0.1V350c1.3-5,2.6-7.7,3.8-10.7c1.2-2.6,2.2-5.1,3.5-9.3l21.8,2.2
				l2.1,20.6c0,0.2,0,0.4,0,0.5c0,0.2,0,0.5,0,0.7c-0.2,2.2-1.2,4.4-2.8,5.9c-1.6,1.5-3.5,2.1-5.7,2l-16.1-1.3c-0.4,0-1-0.1-1.4-0.2
				C762.6,359.6,760.3,356.3,760.2,352.5 M757.6,352.5c0,4.8,3.1,9.2,7.7,10.5c0.6,0.2,1.3,0.3,1.9,0.3l16.1,1.3
				c5.8,0.4,10.8-4.2,11.2-10.3c0-0.3,0-0.6,0-1c0-0.2,0-0.5,0-0.7l-2.4-22.8l-26.2-2.7c-2.8,10.4-5.2,11.7-7.9,22.1
				c0,0.1,0,0.2-0.1,0.2C757.7,350.5,757.6,351.6,757.6,352.5L757.6,352.5z"/>
		</g>
	</g>
</g>
</svg>
