<?xml version="1.0" encoding="utf-8"?>
<!-- Generator: Adobe Illustrator 23.1.1, SVG Export Plug-In . SVG Version: 6.00 Build 0)  -->
<svg version="1.1" id="Layer_1" xmlns="http://www.w3.org/2000/svg" xmlns:xlink="http://www.w3.org/1999/xlink" x="0px" y="0px"
	 viewBox="0 0 878 632" style="enable-background:new 0 0 878 632;" xml:space="preserve">
<style type="text/css">
	.st0{fill:#3D52BC;}
	.st1{fill:#3A9FFF;}
	.st2{fill:#2B77BF;}
	.st3{clip-path:url(#SVGID_2_);fill:#2B77BF;}
	.st4{clip-path:url(#SVGID_4_);}
	.st5{fill:#FFB51F;}
	.st6{fill:#EC6D00;}
	.st7{fill:#FCB81F;}
	.st8{clip-path:url(#SVGID_6_);}
	.st9{font-family:'Quicksand-SemiBold';}
	.st10{font-size:36px;}
	.st11{font-size:28.5165px;}
	.st12{font-size:29.3233px;}
	.st13{font-size:26.5378px;}
	.st14{fill:#FFFFFF;}
	.st15{fill:#3A3E42;}
	.st16{fill:#F4F4F4;}
	.st17{fill:#2C3ACF;}
	.st18{fill:#4051CC;}
	.st19{clip-path:url(#SVGID_8_);fill:#2B77BF;}
	.st20{clip-path:url(#SVGID_10_);}
	.st21{clip-path:url(#SVGID_12_);}
	.st22{font-size:28.0044px;}
</style>
<g id="bg">
	<rect x="-0.1" class="st0" width="877.8" height="632"/>
</g>
<g id="hill">
	<path class="st1" d="M348.6,571.5c-23.2-42.5-46.6-85.6-75-124.9c-29.9-41.3-73.2-72.9-115-101.1c-25.9-17.4-52.9-33.2-80.7-47.3
		c-14.5-7.3-29.2-14.1-44.2-20.5C29,275.7,0.1,267.9,0,262c1,67,0,176,0,264c0,159.4,3,85,42.9,106H878c0.2-5.7-79.8-75.1-193-84
		C534.7,536.2,353.9,584.2,348.6,571.5z"/>
	<path class="st2" d="M410.8,539.1c-43,7.2-89.1-15.5-110.8-53.1c-16.9-29.1,12,19-75.9,146c0,0,650.1,0,653.9,0
		c0.7,0-3.9-8.8-4.4-9.6c-7.2-12.2-25.1-19.8-36.7-27.4c-15.8-10.3-31.5-21.9-48.4-30.3c-22-11.5-45-20.9-68.6-28.5
		c-73.2-23.6-152.1-29.4-227.9-16.9c-24.2,4-47.1,10.6-70.6,17.4C417.9,537.7,414.4,538.5,410.8,539.1z"/>
</g>
<g id="coin">
	<g>
		<g>
			<g>
				<defs>
					<rect id="SVGID_1_" x="51.5" y="491" width="161.5" height="111.6"/>
				</defs>
				<clipPath id="SVGID_2_">
					<use xlink:href="#SVGID_1_"  style="overflow:visible;"/>
				</clipPath>
				<path class="st3" d="M197.8,608.3c1.1-5.9,16.9-23.7,0-47.6c-16.9-24-42.6-54-68.9-54L68.5,634.9l148.8,2.1
					C217.3,637,196.7,614.2,197.8,608.3z"/>
			</g>
		</g>
		<g>
			<g>
				<defs>
					<rect id="SVGID_3_" x="51.5" y="491" width="161.5" height="111.6"/>
				</defs>
				<clipPath id="SVGID_4_">
					<use xlink:href="#SVGID_3_"  style="overflow:visible;"/>
				</clipPath>
				<g class="st4">
					<g>
						<path class="st5" d="M79.9,522.2c-26.1,23.2-28.5,63.1-5.3,89.2c23.2,26.1,63.1,28.5,89.2,5.3s28.5-63.1,5.3-89.2
							C146,501.4,106,499,79.9,522.2z"/>
						<path class="st6" d="M83.6,526.4c-23.8,21.1-25.9,57.6-4.8,81.4c21.1,23.8,57.6,25.9,81.4,4.8c23.8-21.1,25.9-57.6,4.8-81.4
							C143.9,507.4,107.4,505.2,83.6,526.4z"/>
						<path class="st7" d="M88.1,531.5c-21,18.6-22.9,50.8-4.2,71.8c18.6,21,50.8,22.9,71.8,4.2c21-18.6,22.9-50.8,4.2-71.8
							C141.3,514.7,109.1,512.8,88.1,531.5z"/>
					</g>
				</g>
			</g>
		</g>
		<g>
			<g>
				<defs>
					<rect id="SVGID_5_" x="51.5" y="491" width="161.5" height="111.6"/>
				</defs>
				<clipPath id="SVGID_6_">
					<use xlink:href="#SVGID_5_"  style="overflow:visible;"/>
				</clipPath>
				<g class="st8">
					<text transform="matrix(1 0 0 1 77.1616 577.6553)" class="st6 st9 st10">DATA</text>
				</g>
			</g>
		</g>
	</g>
</g>
<g id="coin_copy">
	<g>
		<g>
			<g>
				<path class="st5" d="M278.6,560c-11.3,25.2-0.1,54.8,25.1,66.2c25.2,11.3,54.8,0.1,66.2-25.1c11.3-25.2,0.1-54.8-25.1-66.2
					C319.6,523.6,290,534.8,278.6,560z"/>
				<path class="st6" d="M282.6,561.8c-10.3,23,0,50.1,22.9,60.4c23,10.3,50.1,0,60.4-22.9c10.3-23,0-50.1-22.9-60.4
					C320,528.6,293,538.9,282.6,561.8z"/>
				<path class="st7" d="M287.6,564c-9.1,20.2,0,44.1,20.2,53.2c20.2,9.1,44.1,0,53.2-20.2s0-44.1-20.2-53.2
					C320.5,534.7,296.7,543.8,287.6,564z"/>
			</g>
		</g>
		<text transform="matrix(0.9122 -0.4097 0.4097 0.9122 294.6249 600.9749)" class="st6 st9 st11">DATA</text>
	</g>
</g>
<g id="coin_copy_3">
	<g>
		<g>
			<g>
				<path class="st5" d="M453.6,552.6c-19.8,20.4-19.3,53,1.1,72.8s53,19.3,72.8-1.1c19.8-20.4,19.3-53-1.1-72.8
					C505.9,531.6,473.3,532.1,453.6,552.6z"/>
				<path class="st6" d="M456.8,555.7c-18,18.6-17.6,48.4,1,66.4s48.4,17.6,66.4-1c18-18.6,17.6-48.4-1-66.4
					C504.6,536.6,474.8,537.1,456.8,555.7z"/>
				<path class="st7" d="M460.8,559.6c-15.9,16.4-15.5,42.7,0.9,58.5c16.4,15.9,42.7,15.5,58.5-0.9c15.9-16.4,15.5-42.7-0.9-58.5
					C502.9,542.8,476.7,543.2,460.8,559.6z"/>
			</g>
		</g>
		<text transform="matrix(0.9972 -7.480215e-02 7.480215e-02 0.9972 454.701 597.7593)" class="st6 st9 st12">DATA</text>
	</g>
	<g>
		<g>
			<g>
				<path class="st5" d="M678.3,577.5c-22.1,13.1-29.4,41.7-16.2,63.8c13.1,22.1,41.7,29.4,63.8,16.2c22.1-13.1,29.4-41.7,16.2-63.8
					C729,571.7,700.5,564.4,678.3,577.5z"/>
				<path class="st6" d="M680.4,581.1c-20.1,12-26.8,38.1-14.8,58.2c12,20.1,38.1,26.8,58.2,14.8c20.1-12,26.8-38.1,14.8-58.2
					C726.7,575.7,700.6,569.1,680.4,581.1z"/>
				<path class="st7" d="M683,585.4c-17.8,10.6-23.6,33.6-13.1,51.4c10.6,17.8,33.6,23.6,51.4,13.1c17.8-10.6,23.6-33.6,13.1-51.4
					C723.8,580.7,700.8,574.8,683,585.4z"/>
			</g>
		</g>
		<text transform="matrix(0.982 0.1889 -0.1889 0.982 668.6282 617.2884)" class="st6 st9 st13">DATA</text>
	</g>
</g>
<g id="front">
	<path class="st1" d="M389.9,610.3C249,612,79,608-1,521c0,0,1.7,106-1,119l581,3C549,639.2,419.5,610,389.9,610.3z"/>
</g>
<g id="man_small">
	<path class="st2" d="M242.3,451.7c-26,53-93.3-94.7-178-86c-17,1.8-53.2-32.5-47-49s95.7,9,135.8,24.1S250.1,435.9,242.3,451.7z"/>
	<g id="bg_2_">
		
			<rect x="121.6" y="204.3" transform="matrix(0.4461 -0.895 0.895 0.4461 -127.1151 263.6962)" class="st14" width="55.8" height="60.4"/>
	</g>
	<g id="pants_2_">
		<g>
			<path class="st14" d="M150.5,253.3c0,0-10.8,30.9-13.2,33.7c-11.9,14.2-79.4,47-79.4,47L38,303.5l1.7-1l-1.7,1
				c0.1,0,0.1-0.1,0.2-0.1c5.3-3.2,10.6-6.5,15.9-9.7c8.8-5.4,17.6-10.7,26.4-16.1c3.4-2.1,6.7-4.1,10.1-6.2
				c1.2-0.7,2.8-1.2,3.7-2.2c0.8-0.9,1.8-4.9,2.4-7.2c0.9-3.3,1.7-6.7,2.6-10c1.7-6.6,3.7-13.2,5.4-19.8l8.1-28.6
				c2.3-8.2,10.1-16.4,14-22.9"/>
			<path class="st15" d="M57.8,335c0.2,0,0.4,0,0.5-0.1c2.8-1.3,67.8-33.1,79.7-47.2c2.4-2.9,12.3-30.8,13.4-34
				c0.2-0.5-0.1-1-0.6-1.2s-1,0.1-1.2,0.6c-4.3,12.3-11.4,31.4-13.1,33.4c-10.9,13.1-70.8,42.7-78.3,46.4l-18.9-29l0.8-0.5
				c0.1,0,0.2-0.1,0.2-0.2L91,272.3c0.3-0.2,0.8-0.4,1.2-0.6c1-0.5,2-1,2.7-1.8c0.8-0.9,1.6-3.7,2.4-7l0.7-2.8
				c0.7-2.6,1.4-5.2,2.1-7.8c0.9-3.5,1.9-7,2.9-10.4c0.9-3.1,1.7-6.2,2.6-9.3l8.1-28.6c1.5-5.4,5.6-10.9,9.1-15.7
				c1.8-2.4,3.5-4.8,4.8-6.9c0.3-0.4,0.1-1-0.3-1.3c-0.5-0.3-1-0.1-1.3,0.3c-1.3,2.1-2.9,4.4-4.7,6.8c-3.7,5-7.8,10.7-9.4,16.3
				l-8.1,28.6c-0.8,3.1-1.7,6.3-2.6,9.3c-1,3.4-1.9,7-2.9,10.5c-0.7,2.6-1.4,5.2-2.1,7.8l-0.7,2.8c-0.5,1.8-1.4,5.5-2,6.2
				c-0.5,0.5-1.3,0.9-2.1,1.3c-0.5,0.2-0.9,0.5-1.4,0.7l-52.6,32c0,0,0,0-0.1,0c-0.4,0.3-0.5,0.8-0.3,1.3c0,0.1,0.1,0.1,0.1,0.2
				l19.8,30.4C57.2,334.8,57.5,335,57.8,335z"/>
		</g>
	</g>
	<g>
		<g>
			<path class="st14" d="M188.7,225c0,0,30.1,62.9,31.6,66.6c7.4,17.9,1.9,82.1,1.9,82.1l-38.2,2.7l-0.1-2l0.1,2.1
				c-0.2-3.1-0.4-6.1-0.6-9.2c-1-15.7-2.5-31.4-2.7-47.1c0-2.9,0.1-5.8-0.3-8.8c-0.3-2.5-1.5-4.3-2.7-6.5c-2.6-4.6-5.3-9.1-8.3-13.5
				c-5.9-8.9-12.6-17.3-20.3-24.8"/>
			<path class="st15" d="M183.8,377.5c0.1,0,0.1,0,0.2,0c0.1,0,0.2,0,0.2,0l38-2.7c0.5,0,0.9-0.4,0.9-0.9c0.2-2.6,5.4-64.6-2-82.6
				c-1.5-3.6-30.4-64-31.6-66.6c-0.2-0.5-0.8-0.7-1.3-0.5s-0.7,0.8-0.5,1.3c0.3,0.6,30.1,63,31.6,66.5c6.7,16.4,2.5,73.2,1.9,80.8
				l-36.4,2.6v-1c0-0.1,0-0.2-0.1-0.3l-0.4-6.9c-0.3-4.6-0.6-9.4-1-13.9c-0.8-10.9-1.6-22.1-1.7-33.2c0-0.7,0-1.4,0-2.2
				c0-2.2,0-4.4-0.3-6.7c-0.3-2.4-1.3-4.2-2.4-6.2l-0.4-0.7c-2.7-4.7-5.4-9.3-8.3-13.6c-6.4-9.5-13.2-17.9-20.4-24.9
				c-0.4-0.4-1-0.4-1.4,0s-0.4,1,0,1.4c7.1,6.9,13.9,15.2,20.2,24.6c2.8,4.2,5.6,8.8,8.2,13.5l0.4,0.7c1,1.8,1.9,3.4,2.2,5.4
				c0.2,2.1,0.2,4.3,0.2,6.5c0,0.7,0,1.4,0,2.2c0.1,11.1,0.9,22.4,1.7,33.3c0.3,4.6,0.7,9.3,1,13.9l0.6,9.1v0.1
				C183,377,183.4,377.4,183.8,377.5z"/>
		</g>
	</g>
	<g id="hand_5_">
		<g>
			<path class="st14" d="M232.2,271l-0.4-15.7l17.2-4c1.4,3.2,2.6,5.1,3.7,6.9c1.2,2,2.4,3.9,3.9,7.4l0.1,0.2
				c0.3,0.6,0.4,1.3,0.5,1.9c0.4,3.1-1.3,6.1-4,7.3c-0.4,0.2-0.8,0.3-1.2,0.4l-11.6,2.5c-1.7,0.4-3.5,0-5-1s-2.6-2.6-3-4.5
				c0-0.2-0.1-0.4-0.1-0.6C232.3,271.3,232.3,271.2,232.2,271z"/>
		</g>
		<g>
			<path class="st15" d="M256.2,267.7c0.3,2.7-1.1,5.3-3.4,6.3c-0.3,0.1-0.6,0.2-1,0.3l-11.6,2.5c-1.5,0.3-3,0-4.3-0.9
				s-2.2-2.3-2.6-3.9c0-0.2-0.1-0.4-0.1-0.5s0-0.3,0-0.4l-0.4-14.9l15.7-3.7c1.3,2.8,2.4,4.6,3.4,6.3c1.2,1.9,2.4,3.8,3.8,7.2v0.1
				v0.1C256,266.6,256.1,267.1,256.2,267.7 M258.1,267.5c-0.1-0.7-0.3-1.4-0.6-2.1c0-0.1,0-0.1-0.1-0.2c-3-7.2-4.9-7.8-7.9-15
				l-18.8,4.4l0.4,16.5c0,0.2,0,0.4,0,0.6s0.1,0.5,0.1,0.7c0.9,4.3,5,7.1,9.1,6.3l11.6-2.5c0.5-0.1,0.9-0.2,1.3-0.4
				C256.8,274.3,258.5,270.9,258.1,267.5L258.1,267.5z"/>
		</g>
	</g>
	<g id="tool_2_">
		<g>
			<path class="st7" d="M75.9,168.3l237,136.2c2.3,1.3,3.1,4.3,1.8,6.7l-0.7,1.2c-1.3,2.3-4.3,3.1-6.7,1.8L70.4,178
				c-2.3-1.3-3.1-4.3-1.8-6.7l0.7-1.2C70.6,167.8,73.6,166.9,75.9,168.3z"/>
		</g>
		<g>
			<path class="st15" d="M293.1,342.6c11.3-13,17.8-24.8,17.8-24.8l1.6,0.9l7.5-12.8l-1.7-1c0,0,5.1-8.6,12.1-24.2
				c6.5-14.4,10.4-28.8,10.4-28.8l-9-2.7c0,0-5.6,18.6-10.5,29.9s-10.9,21.3-10.9,21.3l-4.7-2.8l-7.6,13.1l5,2.9
				c0,0-8.3,14.5-14.3,22.3c-16.7,21.8-25.2,28.9-25.1,30.2C263.9,367.5,278.3,359.7,293.1,342.6z"/>
		</g>
	</g>
	<g id="top_2_">
		<path class="st14" d="M188.7,225c6.9-9.3,3.8-4.8,10.8-14.8c0,0-2.3,6.4,5.7,21.8c6.6,12.7,26.7,23.3,26.7,23.3l16.4-4.7
			c0.6-0.6-17.9-36.7-18.7-40.9c-3-15,2-30.1,2.4-45.2c0.5-15.3-4.4-21-14.7-29.9c-8.6-7.5-19-14.6-29.6-18.3
			c-13.6-4.7-29.5-4.4-43.7-4.5c-14.6-0.1-29.3,0.9-43.7,3.8C85.4,118.5,80,128,80.8,143.7c0.1,2.2,5.1,31.3,6.3,30.9
			c-1.8,0.7,18.6,0.6,20.6,1c-0.6-0.1,1.5-23.2,2-25.1c1.3-4.8,15.7-2.7,20.5-2.2c6.9,0.8,13.8,2.6,10,9.9c-5,9.4-5.5,9.5-10.5,17.6
			c-5.4,8.8-7.8,12-11.2,17.3"/>
		<path class="st15" d="M231.4,256.3c-0.8-0.4-20.4-10.9-27.1-23.8c-4.7-9.1-5.9-15.2-6.1-18.7c-2.6,3.6-3,4.2-4.2,5.8
			c-0.9,1.1-2,2.6-4.5,6c-0.3,0.4-0.9,0.5-1.4,0.2c-0.4-0.3-0.5-0.9-0.2-1.4c2.5-3.4,3.7-4.9,4.5-6c1.5-1.9,1.8-2.3,6.3-8.7
			c0.3-0.4,0.8-0.5,1.3-0.3c0.4,0.2,0.6,0.7,0.5,1.2c0,0.1-2,6.4,5.6,21c5.9,11.4,23.3,21.3,25.9,22.7l15.1-4.4
			c-1-2.4-4.4-9.5-7.5-15.9c-6.2-12.8-10.5-22-11-24.2c-1.9-9.7-0.6-19.6,0.8-29.2c0.7-5.3,1.5-10.9,1.7-16.2
			c0.5-14.8-4-20.2-14.3-29.1c-10.2-8.8-20-14.9-29.2-18.1c-12.3-4.2-26.2-4.3-39.6-4.4c-1.3,0-2.5,0-3.8,0
			c-15.7-0.2-29.9,1.1-43.5,3.8C87,119.3,81.2,127.7,82,143.7c0.1,2.4,4.5,27.3,5.8,30.1c0.1,0,0.1,0.1,0.2,0.1
			c1.6,0.2,7.3,0.3,11.2,0.4c3.5,0.1,6.1,0.1,7.6,0.2c0-1.5,0.1-4.6,0.7-11.2c0.5-5.5,1.1-12,1.4-13c1.2-4.7,10.6-4.2,20.6-3l1,0.1
			c4.4,0.5,9.7,1.5,11.4,4.8c0.9,1.8,0.7,4-0.7,6.6c-3.6,6.8-4.9,8.7-7.1,12.3c-0.9,1.4-1.9,3.1-3.4,5.4c-3.6,5.9-5.9,9.3-8,12.5
			c-1,1.6-2,3.1-3.2,4.8c-0.3,0.5-0.9,0.6-1.4,0.3s-0.6-0.9-0.3-1.4c1.1-1.7,2.1-3.3,3.2-4.8c2.1-3.2,4.3-6.5,8-12.4
			c1.4-2.3,2.5-4,3.4-5.4c2.2-3.5,3.5-5.5,7-12.2c1-2,1.3-3.5,0.7-4.7c-1.3-2.5-6.2-3.3-9.9-3.7l-1-0.1c-11.6-1.4-17.8-0.9-18.4,1.6
			c-0.4,1.7-2.3,22-2,24.4c0.1,0.2,0.1,0.4,0.1,0.6c-0.1,0.5-0.6,0.9-1.2,0.8c-0.7-0.1-4.9-0.2-8.6-0.3c-12.4-0.3-12.7-0.3-12.9-1.3
			c-0.6-0.9-1.5-3.9-3.6-15.1c-1.4-7.5-2.6-14.9-2.6-16c-0.8-17,5.6-26.2,20.3-29.1c13.8-2.7,28.1-4,43.9-3.8c1.2,0,2.5,0,3.8,0
			c13.6,0.1,27.7,0.2,40.3,4.5c9.4,3.2,19.5,9.5,29.9,18.5c10.6,9.1,15.5,15.2,15,30.7c-0.2,5.5-0.9,11.1-1.7,16.5
			c-1.3,9.4-2.7,19.1-0.8,28.5c0.4,2.1,6.2,14.1,10.8,23.7c8.4,17.4,8.3,17.4,7.6,18.1c-0.1,0.1-0.3,0.2-0.4,0.2l-16.4,4.7
			c-0.1,0-0.3,0-0.4,0C231.6,256.4,231.5,256.3,231.4,256.3z M87.5,175.5L87.5,175.5L87.5,175.5z M107.9,174.6L107.9,174.6
			L107.9,174.6z M107.9,174.6L107.9,174.6L107.9,174.6z M107.9,174.6L107.9,174.6L107.9,174.6z M107.9,174.6L107.9,174.6
			L107.9,174.6z M107.9,174.6L107.9,174.6L107.9,174.6z M107.9,174.6L107.9,174.6L107.9,174.6z M107.9,174.6L107.9,174.6
			L107.9,174.6z M107.9,174.6L107.9,174.6L107.9,174.6z M107.9,174.6L107.9,174.6L107.9,174.6z M107.9,174.6L107.9,174.6
			L107.9,174.6z M107.9,174.6L107.9,174.6L107.9,174.6z M107.9,174.6L107.9,174.6L107.9,174.6z M107.9,174.6L107.9,174.6
			L107.9,174.6z"/>
	</g>
	<g id="shoe_5_">
		<path class="st16" d="M182.9,391.4l-0.8-7.3c-0.5-4.3,2.7-8.2,7-8.7l34.7-3.8c4.3-0.5,8.2,2.7,8.7,7l0.8,7.3
			c0.5,4.3-2.7,8.2-7,8.7l-34.7,3.8C187.3,398.8,183.3,395.7,182.9,391.4z"/>
		<path class="st15" d="M185.2,397.4c-1.9-1.5-3-3.6-3.3-6l-0.8-7.3c-0.3-2.4,0.4-4.7,1.9-6.5c1.5-1.9,3.6-3,6-3.3l34.7-3.8
			c4.9-0.5,9.3,3,9.8,7.9l0.8,7.3c0.3,2.4-0.4,4.7-1.9,6.5s-3.6,3-6,3.3l-34.7,3.8c-0.6,0.1-1.3,0.1-1.9,0
			C188.1,399.2,186.5,398.5,185.2,397.4z M223.9,372.5l-34.7,3.8c-1.8,0.2-3.5,1.1-4.6,2.6c-1.2,1.4-1.7,3.2-1.5,5.1l0.8,7.3
			c0.2,1.8,1.1,3.5,2.6,4.6c1.4,1.2,3.2,1.7,5.1,1.5l34.7-3.8c1.8-0.2,3.5-1.1,4.6-2.6c1.2-1.4,1.7-3.2,1.5-5.1l-0.8-7.3
			c-0.4-3.3-3-5.8-6.2-6.1C224.9,372.4,224.4,372.4,223.9,372.5z"/>
	</g>
	<g id="logo_2_">
		<g>
			<g>
				<circle class="st17" cx="177.5" cy="171.5" r="32.2"/>
			</g>
		</g>
		<g>
			<g>
				<g>
					<g>
						<path class="st14" d="M192.7,188l-1.4-25.1c0-0.5,0.3-0.8,0.8-0.9c0.5,0,0.8,0.3,0.9,0.8l1.4,25.1c0,0.5-0.3,0.8-0.8,0.9
							c-0.1,0-0.2,0-0.3-0.1C192.9,188.6,192.7,188.3,192.7,188z"/>
					</g>
				</g>
				<g>
					<g>
						<path class="st14" d="M173.5,180.8c-0.3-0.3-0.3-0.8,0-1.2l18.1-17.5c0.3-0.3,0.8-0.3,1.2,0c0.3,0.3,0.3,0.8,0,1.2l-18.1,17.5
							c-0.2,0.2-0.6,0.3-0.9,0.2C173.6,181,173.5,180.9,173.5,180.8z"/>
					</g>
				</g>
				<g>
					<g>
						<path class="st14" d="M173.2,180.3l-1.4-25.1c0-0.5,0.3-0.8,0.8-0.9c0.5,0,0.8,0.3,0.9,0.8l1.4,25.1c0,0.5-0.3,0.8-0.8,0.9
							c-0.1,0-0.2,0-0.3-0.1C173.5,180.9,173.2,180.6,173.2,180.3z"/>
					</g>
				</g>
				<g>
					<g>
						<path class="st14" d="M154,173.2c-0.3-0.3-0.3-0.8,0-1.2l18.1-17.5c0.3-0.3,0.8-0.3,1.2,0c0.3,0.3,0.3,0.8,0,1.2l-18.1,17.5
							c-0.2,0.2-0.6,0.3-0.9,0.2C154.2,173.3,154.1,173.3,154,173.2z"/>
					</g>
				</g>
			</g>
			<g>
				<g>
					
						<ellipse transform="matrix(0.3663 -0.9305 0.9305 0.3663 -53.3465 299.4512)" class="st14" cx="193.2" cy="188.9" rx="3" ry="3.1"/>
				</g>
			</g>
			<g>
				<g>
					
						<ellipse transform="matrix(0.3663 -0.9305 0.9305 0.3663 -58.531 276.3968)" class="st14" cx="173.7" cy="181.2" rx="3" ry="3.1"/>
				</g>
			</g>
			<g>
				<g>
					
						<ellipse transform="matrix(0.3663 -0.9305 0.9305 0.3663 -63.7769 253.5448)" class="st14" cx="154.3" cy="173.6" rx="3" ry="3.1"/>
				</g>
			</g>
		</g>
	</g>
	<g id="face_3_">
		<g>
			<path class="st14" d="M183.4,105.1c0.1-0.5-1.3-0.6-1.6-0.7c-0.8-0.4-1.4-1.1-1.8-1.8c-0.6-1-1-2.2-1.3-3.5
				c-0.3-1.2-0.5-2.4-0.4-3.7c0.3-3.2,3.3-9.2,6.3-8.1c0.9,0.3,1.1,0.7,1.7,1.4c0.1,0.1,1.9,2.4,1.8,2.6l2.9-7.9
				c4.3-11.7,15.9-18.5,25.7-15l10.2,3.6c9.8,3.5,14.2,15.9,9.9,27.6l-6.3,17c-4.3,11.7-15.9,18.5-25.7,15l-10.2-3.6
				C185.7,124.8,180.7,115.9,183.4,105.1z"/>
			<path class="st15" d="M204.5,132.5l-10.2-3.6l0,0c-9.6-3.4-14.4-12.8-12-23.4c-0.1,0-0.1,0-0.2,0c-0.3-0.1-0.6-0.1-0.8-0.2
				c-0.9-0.5-1.6-1.2-2.2-2.2c-0.8-1.3-1.2-2.8-1.4-3.8c-0.4-1.6-0.5-2.8-0.4-4c0.2-2.8,2.2-7,4.5-8.5c1-0.7,2.1-0.8,3.1-0.4
				s1.3,0.8,1.8,1.3c0.1,0.1,0.2,0.2,0.3,0.3c0.1,0.2,0.5,0.5,0.8,1c0.7-1.9,1.7-4.6,2.2-6c4.5-12.3,16.6-19.3,26.9-15.6l10.2,3.6
				c4.4,1.6,8,4.9,10.1,9.4c2.7,5.8,2.9,12.9,0.4,19.4l-6.3,17c-4,10.7-13.8,17.5-23.1,16.5C207.1,133.2,205.8,133,204.5,132.5z
				 M192,83.7c-2.2,6-2.8,7.4-2.9,7.8l0,0l0,0c0,0.1,0,0.1,0,0.1c-0.2,0.5-0.8,0.7-1.3,0.4c-0.3-0.1-0.5-0.4-0.6-0.7
				c-0.3-0.4-1.4-1.9-1.6-2.1c-0.1-0.1-0.2-0.3-0.3-0.4c-0.4-0.4-0.5-0.6-1-0.7c-0.1-0.1-0.6-0.2-1.3,0.2c-1.8,1.1-3.4,4.8-3.6,7
				c-0.1,1,0,2,0.3,3.4s0.7,2.4,1.2,3.2c0.4,0.6,0.9,1.1,1.4,1.4c0.1,0,0.2,0,0.3,0.1c0.6,0.1,1.4,0.3,1.7,0.9
				c0.2,0.3,0.2,0.6,0.1,0.9c-2.5,9.9,1.8,18.6,10.6,21.7l10.2,3.6c9.3,3.3,20.3-3.2,24.4-14.4l6.3-17c2.3-6.1,2.1-12.6-0.4-17.9
				c-1.9-4.1-5.1-7.1-9-8.4l-10.2-3.6c-1.1-0.4-2.3-0.7-3.4-0.8C204.5,67.6,195.6,73.8,192,83.7z M182.5,104.8L182.5,104.8
				L182.5,104.8z M187.2,90.9L187.2,90.9L187.2,90.9z M187.2,90.9L187.2,90.9L187.2,90.9z"/>
		</g>
		<g>
			<path class="st14" d="M215.5,118.8c-6.5,1.8-10.6,0.8-15-4.7"/>
			<path class="st15" d="M209,120.1c1.9,0.2,4.1-0.1,6.6-0.8c0.3-0.1,0.4-0.3,0.3-0.6c-0.1-0.3-0.3-0.4-0.6-0.3
				c-6.6,1.8-10.4,0.6-14.5-4.5c-0.2-0.2-0.5-0.2-0.7-0.1c-0.2,0.2-0.2,0.5-0.1,0.7C202.9,117.9,205.6,119.7,209,120.1z"/>
		</g>
		<g>
			<path class="st14" d="M217.2,104.2c0.7-2.9,3.5-4.8,6.2-4.2c2.7,0.6,4.4,3.4,3.7,6.3c-0.1,0.3-0.2,0.6-0.3,0.9"/>
			<path class="st17" d="M226.8,107.7c0.2,0,0.4-0.1,0.5-0.3c0.1-0.3,0.3-0.7,0.3-1c0.4-1.6,0.1-3.2-0.7-4.5c-0.8-1.2-2-2.1-3.4-2.4
				c-3-0.6-6.1,1.4-6.8,4.6c-0.1,0.3,0.1,0.5,0.4,0.6c0.3,0.1,0.5-0.1,0.6-0.4c0.6-2.6,3.2-4.3,5.7-3.8c1.1,0.2,2.1,0.9,2.7,1.9
				c0.7,1.1,0.9,2.4,0.6,3.8c-0.1,0.3-0.2,0.6-0.3,0.8c-0.1,0.3,0,0.5,0.3,0.6C226.7,107.7,226.7,107.7,226.8,107.7z"/>
		</g>
		<g>
			<path class="st14" d="M196.2,98.4c0.7-2.9,3.5-4.8,6.2-4.2c2.7,0.6,4.4,3.4,3.7,6.3c-0.1,0.3-0.2,0.6-0.3,0.9"/>
			<path class="st17" d="M205.8,101.9c0.2,0,0.4-0.1,0.5-0.3c0.1-0.3,0.3-0.7,0.3-1c0.4-1.6,0.1-3.2-0.7-4.5c-0.8-1.2-2-2.1-3.4-2.4
				c-3-0.6-6.1,1.4-6.8,4.6c-0.1,0.3,0.1,0.5,0.4,0.6c0.3,0.1,0.5-0.1,0.6-0.4c0.6-2.6,3.2-4.3,5.7-3.8c1.1,0.2,2.1,0.9,2.7,1.9
				c0.7,1.1,0.9,2.4,0.6,3.8c-0.1,0.3-0.2,0.6-0.3,0.8c-0.1,0.3,0,0.5,0.3,0.6C205.7,101.9,205.8,101.9,205.8,101.9z"/>
		</g>
		<g>
			<path class="st16" d="M250,63.7c7.4,17-6.4,30.2-13.8,39.3c6.1-23.8-4.3-22.1-11.4-24.6c-4.9-1.7-13.5-9-22.5-6.1
				c-8.9,3-12.4,14.7-14.2,16.7c-0.8-0.3-3-1.3-3.1-3.5c-0.5-12.6,13.3-50.4,45-28.1C236.4,62,240.3,68.6,250,63.7z"/>
			<path class="st15" d="M235.8,103.9c-0.4-0.2-0.6-0.7-0.5-1.1c2.3-8.9,2.4-14.8,0.4-18.1c-1.7-2.8-4.7-3.6-7.9-4.3
				c-1.1-0.3-2.2-0.5-3.2-0.9c-1.3-0.5-2.9-1.3-4.6-2.2c-4.9-2.6-11-5.9-17.2-3.8c-6.3,2.1-9.8,9-11.9,13.2
				c-0.8,1.6-1.4,2.7-1.9,3.3c-0.3,0.3-0.7,0.4-1.1,0.3c-0.6-0.2-3.7-1.5-3.8-4.4c-0.3-8.4,5.3-26.8,17.7-33.5
				c8.4-4.6,18.1-3,28.8,4.5l0,0c1.3,0.9,2.6,2,3.8,3c4.5,3.8,8.1,6.8,15.2,3.2c0.2-0.1,0.5-0.1,0.8,0s0.5,0.3,0.6,0.5
				c6.8,15.7-3.7,28.1-11.3,37.2c-0.9,1.1-1.8,2.1-2.6,3.1c-0.2,0.3-0.5,0.4-0.9,0.4C236,104,235.9,104,235.8,103.9z M233.1,61.2
				c-1.2-1-2.3-2-3.6-2.9l0,0c-10.1-7.1-19.1-8.6-26.8-4.4c-11.5,6.2-16.9,23.9-16.6,31.7c0,1.1,1.1,1.9,1.8,2.3
				c0.3-0.6,0.8-1.4,1.2-2.3c2.2-4.4,5.9-11.8,13-14.2c7-2.3,13.8,1.3,18.8,4c1.7,0.9,3.2,1.7,4.3,2.1c1,0.3,2,0.6,3.1,0.8
				c3.3,0.8,7,1.7,9.1,5.2c2,3.3,2.2,8.3,0.7,15.6c7.2-8.5,16.8-20,11.3-34.1C241.8,68.5,237.6,64.9,233.1,61.2z M230.1,57.5
				L230.1,57.5L230.1,57.5z"/>
		</g>
	</g>
	<g id="waist_2_">
		<path class="st18" d="M188.6,226c0.5,0.1,1-0.3,1.1-0.8s-0.2-1.1-0.8-1.2c-7.7-1.7-22.2-7.3-38.8-15c-14.7-6.8-27.2-13.6-29.7-16
			c-0.4-0.4-1-0.4-1.4,0s-0.4,1,0,1.4c5.5,5.5,51.6,27.6,69.5,31.5C188.5,226,188.5,226,188.6,226z"/>
	</g>
	<g id="shoe_4_">
		<path class="st16" d="M23.3,307.1l6.3-3.9c3.7-2.3,8.6-1.1,10.9,2.6l18.4,29.7c2.3,3.7,1.1,8.6-2.6,10.9l-6.3,3.9
			c-3.7,2.3-8.6,1.1-10.9-2.6L20.7,318C18.4,314.2,19.6,309.3,23.3,307.1z"/>
		<path class="st15" d="M38.2,348.1l-18.4-29.7c-1.2-2-1.6-4.4-1.1-6.7c0.5-2.3,2-4.3,4-5.5l6.3-3.9c2-1.2,4.4-1.6,6.7-1.1
			s4.3,2,5.5,4l18.4,29.7c1.2,2,1.6,4.4,1.1,6.7c-0.5,2.3-2,4.3-4,5.5l-6.3,3.9c-1.7,1.1-3.7,1.5-5.6,1.3
			C42.2,352,39.7,350.6,38.2,348.1z M30.1,304l-6.3,3.9c-1.6,1-2.7,2.5-3.1,4.3s-0.1,3.7,0.8,5.2l18.4,29.7c2,3.2,6.3,4.3,9.5,2.2
			l6.3-3.9c1.6-1,2.7-2.5,3.1-4.3c0.4-1.8,0.1-3.7-0.8-5.2l-18.4-29.7c-1-1.6-2.5-2.7-4.3-3.1c-0.3-0.1-0.6-0.1-0.9-0.2
			C32.9,302.9,31.4,303.2,30.1,304z"/>
	</g>
	<g id="hand_4_">
		<g>
			<path class="st14" d="M84,190.9l4.1-15.9l18.1,0.8c0.4,3.6,1.1,5.8,1.7,8c0.7,2.3,1.3,4.5,1.7,8.5v0.2c0.1,0.7,0.1,1.4-0.1,2.1
				c-0.5,3.2-3,5.8-6,6.2c-0.4,0-0.8,0.1-1.2,0L90.1,200c-1.8-0.1-3.5-1-4.7-2.5s-1.8-3.4-1.6-5.4c0-0.2,0-0.4,0.1-0.6
				C84,191.2,84,191,84,190.9z"/>
		</g>
		<g>
			<path class="st15" d="M108.6,194.3c-0.4,2.8-2.6,5-5.2,5.3c-0.3,0-0.7,0.1-1.1,0l-12.1-0.8c-1.5-0.1-2.9-0.9-4-2.1
				c-1-1.3-1.5-2.9-1.4-4.7c0-0.2,0-0.4,0.1-0.6c0-0.1,0.1-0.3,0.1-0.4l3.9-15.1l16.5,0.7c0.4,3.2,1,5.3,1.6,7.3
				c0.6,2.3,1.2,4.5,1.7,8.3v0.1v0.1C108.7,193.1,108.7,193.7,108.6,194.3 M110.5,194.6c0.1-0.7,0.1-1.5,0.1-2.3c0-0.1,0-0.1,0-0.2
				c-0.9-8-2.6-9.2-3.5-17.3l-19.7-0.9l-4.3,16.7c0,0.2-0.1,0.4-0.1,0.6c0,0.2-0.1,0.5-0.1,0.7c-0.3,4.6,2.9,8.6,7.2,8.9l12.2,0.8
				c0.5,0,1,0,1.4,0C107.2,201.1,110,198.2,110.5,194.6L110.5,194.6z"/>
		</g>
	</g>
</g>
<g id="coin_copy_2">
	<g>
		<g>
			<g>
				<defs>
					<path id="SVGID_7_" d="M143,493.2c0,0-101,0.8-111.1-58.7c-4.7-27.8,52.7-99.7,52.7-99.7l111.1,58.7L143,493.2z"/>
				</defs>
				<clipPath id="SVGID_8_">
					<use xlink:href="#SVGID_7_"  style="overflow:visible;"/>
				</clipPath>
				<path class="st19" d="M109.6,463.6c5.8-0.1,19.9-3.3,41.7-17.3s-15.6-41.6-17.9-58.4l-41.2-11.4c0,0-40.3,84.8-13.4,92.4
					C86.2,470.9,103.7,463.6,109.6,463.6z"/>
			</g>
		</g>
		<g>
			<g>
				<defs>
					<path id="SVGID_9_" d="M143,493.2c0,0-101,0.8-111.1-58.7c-4.7-27.8,52.7-99.7,52.7-99.7l111.1,58.7L143,493.2z"/>
				</defs>
				<clipPath id="SVGID_10_">
					<use xlink:href="#SVGID_9_"  style="overflow:visible;"/>
				</clipPath>
				<g class="st20">
					<g>
						<path class="st5" d="M92.8,366.6c-26.4,6.5-42.5,33.1-36.1,59.4c6.5,26.4,33.1,42.5,59.4,36.1c26.4-6.5,42.5-33.1,36.1-59.4
							C145.8,376.3,119.2,360.2,92.8,366.6z"/>
						<path class="st6" d="M93.8,370.8C69.8,376.7,55,401,60.9,425s30.2,38.8,54.2,32.9s38.8-30.2,32.9-54.2
							C142.2,379.7,117.9,364.9,93.8,370.8z"/>
						<path class="st7" d="M95.1,375.9c-21.2,5.2-34.2,26.6-29,47.8c5.2,21.2,26.6,34.2,47.8,29s34.2-26.6,29-47.8
							C137.7,383.8,116.3,370.8,95.1,375.9z"/>
					</g>
				</g>
			</g>
		</g>
		<g>
			<g>
				<defs>
					<path id="SVGID_11_" d="M143,493.2c0,0-101,0.8-111.1-58.7c-4.7-27.8,52.7-99.7,52.7-99.7l111.1,58.7L143,493.2z"/>
				</defs>
				<clipPath id="SVGID_12_">
					<use xlink:href="#SVGID_11_"  style="overflow:visible;"/>
				</clipPath>
				<g class="st21">
					<text transform="matrix(0.8841 0.4674 -0.4674 0.8841 70.7569 403.7276)" class="st6 st9 st22">DATA</text>
				</g>
			</g>
		</g>
	</g>
</g>
<g id="man_large">
	<g id="bg_1_">
		
			<rect x="664.2" y="376.3" transform="matrix(0.9505 -0.3107 0.3107 0.9505 -92.9814 238.3887)" class="st14" width="75.2" height="69.5"/>
	</g>
	<g id="pants_1_">
		<g>
			<path class="st14" d="M739.2,349c3.7,9.2,12.1,21.3,13.5,32.4l4.9,38.8c1,8.9,2.2,17.8,3.1,26.8c0.5,4.5,0.9,9,1.4,13.6
				c0.3,3.1,0.8,8.5,1.7,9.8c0.9,1.5,2.9,2.5,4.3,3.6c3.9,3.3,7.8,6.6,11.7,9.9c10.2,8.6,20.4,17.3,30.5,25.9
				c6.1,5.2,12.3,10.4,18.4,15.6c0.1,0.1,0.1,0.1,0.2,0.2l-2-1.6l2,1.6l-31.2,36c0,0-79.7-55.4-92.1-76.1
				c-2.5-4.2-10.4-46.4-10.4-46.4"/>
			<path class="st15" d="M797.6,562.9c-0.2,0-0.5-0.1-0.7-0.2c-3.3-2.3-80.1-55.8-92.5-76.5c-2.5-4.3-9.7-42.5-10.5-46.8
				c-0.1-0.7,0.3-1.3,1-1.4s1.3,0.3,1.4,1c3.1,16.9,8.5,43.1,10.2,46c11.4,19.1,82,68.9,90.8,75.1l29.7-34.2l-1-0.8
				c-0.1-0.1-0.2-0.2-0.2-0.3L767.2,475c-0.4-0.3-0.9-0.7-1.4-1c-1.2-0.8-2.4-1.7-3.1-2.8c-0.9-1.4-1.3-5.1-1.8-9.6l-0.4-3.8
				c-0.4-3.5-0.7-7.1-1.1-10.6c-0.5-4.7-1.1-9.5-1.6-14.1c-0.5-4.1-1-8.4-1.5-12.6l-4.9-38.8c-0.9-7.3-5-15.2-8.6-22.2
				c-1.8-3.5-3.5-6.9-4.8-9.9c-0.3-0.6,0-1.3,0.7-1.6c0.6-0.3,1.3,0,1.6,0.7c1.2,2.9,2.9,6.2,4.7,9.7c3.7,7.2,7.9,15.3,8.9,23
				l4.9,38.8c0.5,4.2,1,8.5,1.5,12.6c0.6,4.6,1.1,9.4,1.6,14.2c0.4,3.5,0.7,7.1,1.1,10.6l0.4,3.8c0.2,2.4,0.8,7.5,1.4,8.5
				c0.5,0.8,1.5,1.5,2.5,2.1c0.5,0.4,1.1,0.8,1.6,1.2l60.8,51.6c0,0,0.1,0,0.1,0.1c0.5,0.4,0.5,1.2,0.1,1.7
				c-0.1,0.1-0.1,0.2-0.2,0.2l-31,35.8C798.3,562.8,798,562.9,797.6,562.9z"/>
		</g>
	</g>
	<g>
		<g>
			<path class="st14" d="M696.4,450.6c-10.8,7.8-20.6,17-29.5,26.8c-4.4,4.9-8.6,9.9-12.6,15.2c-1.9,2.4-3.7,4.5-4.5,7.5
				c-0.9,3.5-1.3,7.1-1.9,10.7c-3.1,19.4-7.8,38.4-11.9,57.5c-0.8,3.7-1.6,7.5-2.4,11.2l0.5-2.5l-0.5,2.5L587,569.2
				c0,0,4.9-80,17.2-100.8c2.5-4.2,51-76.2,51-76.2"/>
			<path class="st15" d="M633.6,580.9c-0.1,0-0.1,0-0.2,0c-0.1,0-0.2-0.1-0.3-0.1l-46.3-10.3c-0.6-0.1-1-0.7-1-1.3
				c0.2-3.3,5.1-80.6,17.4-101.3c2.5-4.2,49-73.4,51-76.3c0.4-0.6,1.1-0.7,1.7-0.3c0.6,0.4,0.7,1.1,0.3,1.7
				c-0.5,0.7-48.5,72.1-51,76.2c-11.3,19-16.4,89.7-17,99.2l44.3,9.8l0.2-1.2c0-0.1,0.1-0.2,0.1-0.3l1.8-8.4
				c1.2-5.7,2.5-11.4,3.7-17c2.9-13.2,6-26.9,8.1-40.5c0.1-0.9,0.3-1.8,0.4-2.6c0.4-2.7,0.8-5.5,1.5-8.2c0.8-2.9,2.4-5,4.1-7.1
				l0.6-0.8c4.1-5.4,8.4-10.5,12.7-15.2c9.6-10.6,19.5-19.7,29.7-27c0.5-0.4,1.3-0.3,1.7,0.3c0.4,0.6,0.3,1.3-0.3,1.7
				c-10,7.2-19.9,16.2-29.3,26.7c-4.2,4.7-8.5,9.8-12.6,15.1l-0.6,0.8c-1.6,2.1-3,3.9-3.6,6.3c-0.7,2.6-1.1,5.2-1.5,7.9
				c-0.1,0.9-0.3,1.8-0.4,2.7c-2.2,13.7-5.2,27.4-8.2,40.7c-1.2,5.5-2.5,11.3-3.7,16.9l-2.4,11.2v0.1
				C634.7,580.5,634.1,580.9,633.6,580.9z"/>
		</g>
	</g>
	<g id="hand_3_">
		<g>
			<path class="st14" d="M593.1,441.6c-0.1,0.3-0.1,0.5-0.2,0.7c-0.8,2.2-2.4,4-4.5,5c-2,1-4.3,1.1-6.4,0.4l-13.9-5.1
				c-0.5-0.2-0.9-0.4-1.4-0.7c-3.2-1.9-4.6-5.9-3.6-9.7c0.2-0.8,0.5-1.6,1-2.3l0.1-0.2c2.4-4.1,4.2-6.2,6.1-8.4
				c1.7-2,3.5-4.1,5.8-7.8l20.5,8.1l-3.4,19.3C593.2,441.2,593.2,441.4,593.1,441.6z"/>
		</g>
		<g>
			<path class="st15" d="M564.4,432.5c0.2-0.7,0.5-1.4,0.8-2l0.1-0.1v-0.1c2.4-4,4.1-6,6-8.2c1.6-1.9,3.3-3.9,5.4-7.1l18.6,7.4
				l-3.2,18.3c0,0.2-0.1,0.3-0.1,0.5c-0.1,0.2-0.1,0.4-0.2,0.7c-0.7,1.9-2.1,3.5-3.9,4.4c-1.7,0.9-3.7,1-5.4,0.3l-13.9-5.1
				c-0.4-0.2-0.8-0.3-1.1-0.6C564.7,439.2,563.5,435.8,564.4,432.5 M562,431.9c-1.2,4.2,0.4,8.7,4.1,11c0.5,0.3,1,0.6,1.6,0.8
				l13.9,5.1c4.9,1.8,10.5-0.9,12.4-6.1c0.1-0.3,0.2-0.6,0.3-0.8c0.1-0.2,0.1-0.4,0.2-0.7L598,421l-22.3-8.8c-5,8.3-7.4,8.8-12.4,17
				c0,0.1-0.1,0.1-0.1,0.2C562.6,430.2,562.3,431,562,431.9L562,431.9z"/>
		</g>
	</g>
	<g id="tool_1_">
		<g>
			<path class="st7" d="M816.9,343.5L500.4,468.1c-3.1,1.2-4.6,4.8-3.4,7.9l0.6,1.6c1.2,3.1,4.8,4.6,7.9,3.4L822,356.4
				c3.1-1.2,4.6-4.8,3.4-7.9l-0.6-1.6C823.6,343.8,820.1,342.2,816.9,343.5z"/>
		</g>
		<g>
			<path class="st15" d="M517.8,518.7c-11.5-18.1-17.4-33.8-17.4-33.8l-2.1,0.8l-6.9-17.2l2.3-0.9c0,0-4.7-11.5-10.5-32
				c-5.4-18.9-7.6-37.4-7.6-37.4l11.5-1.7c0,0,3.5,23.9,7.5,38.7c4,14.8,9.5,28.2,9.5,28.2l6.3-2.5l7,17.6l-6.7,2.7
				c0,0,7.6,19.3,13.6,30.1c16.7,29.9,25.8,40.1,25.4,41.7C549.3,554.7,532.9,542.5,517.8,518.7z"/>
		</g>
	</g>
	<g id="top_1_">
		<path class="st14" d="M655.3,392.3c-6.9-12.7-3.8-6.6-10.6-20.2c0,0,1.7,8.3-10.9,25.8c-10.5,14.5-37.1,23.9-37.1,23.9l-19.3-8.8
			c-0.6-0.8,28.7-42,30.5-47c6.4-17.9,3-37.5,5.2-56.1c2.2-19,9.2-25.1,23.5-34.2c12-7.6,26-14.6,39.7-17.1
			c17.6-3.3,37.1,0,54.7,2.4c18,2.5,35.9,6.5,53.2,12.6c17.8,6.3,22.7,19,18.9,38.2c-0.5,2.7-11.9,37.7-13.4,36.9
			c2.1,1.2-23-2.6-25.5-2.5c0.8,0,2.4-28.8,2.1-31.2c-0.7-6.1-18.9-6.2-24.8-6.4c-8.6-0.3-17.5,0.7-14.1,10.4
			c4.5,12.5,5,12.7,9.7,23.6c5.1,11.8,7.4,16.2,10.6,23.3"/>
		<path class="st15" d="M596.5,423c-0.2,0-0.3,0-0.5-0.1l-19.3-8.8c-0.2-0.1-0.3-0.2-0.5-0.4c-0.8-1-0.8-1.1,12.6-20.9
			c7.5-11,16.7-24.7,17.6-27.2c4-11.3,4.1-23.5,4.2-35.2c0.1-6.8,0.1-13.8,0.9-20.6c2.2-19.2,9.4-25.7,24-35.1
			c14.4-9.2,27.9-15,40.2-17.3c16.3-3,33.6-0.6,50.4,1.7c1.6,0.2,3.1,0.4,4.7,0.6c19.5,2.7,37,6.8,53.4,12.7
			c17.6,6.2,23.8,18.8,19.7,39.6c-0.3,1.4-3.1,10.3-6.2,19.3c-4.6,13.4-6.3,16.9-7.2,18c-0.4,1.2-0.8,1.2-16.1-0.7
			c-4.5-0.6-9.7-1.2-10.6-1.2c-0.7,0-1.3-0.5-1.3-1.2c0-0.3,0.1-0.5,0.2-0.7c0.8-2.8,2.2-28.2,1.9-30.4c-0.3-3.1-7.9-4.9-22.4-5.3
			H741c-4.5-0.1-10.8,0-12.8,2.8c-1,1.3-1,3.3,0,5.9c3.2,8.9,4.4,11.5,6.5,16.3c0.8,1.9,1.8,4.2,3.2,7.3c3.4,7.9,5.5,12.4,7.6,16.7
			c1,2.1,2,4.2,3,6.5c0.3,0.6,0,1.3-0.6,1.6c-0.6,0.3-1.3,0-1.6-0.6c-1.1-2.3-2-4.4-3-6.5c-2.1-4.4-4.2-8.9-7.6-16.8
			c-1.3-3.1-2.3-5.4-3.2-7.3c-2.1-4.8-3.3-7.5-6.5-16.4c-1.2-3.4-1.1-6.2,0.4-8.2c2.7-3.7,9.4-4,14.9-3.8h1.2
			c12.5,0.3,24.1,1.5,24.8,7.5c0.2,1.4-0.2,9.4-0.6,16.3c-0.5,8.2-0.9,12-1.2,13.9c1.9,0.2,5,0.6,9.4,1.1c4.8,0.6,11.8,1.5,13.8,1.5
			c0.1,0,0.1-0.1,0.2-0.1c2.2-3.1,12.1-33.1,12.7-36c3.9-19.6-1.7-30.9-18.1-36.8c-16.3-5.8-33.6-9.9-52.9-12.5
			c-1.5-0.2-3.1-0.4-4.7-0.6c-16.6-2.3-33.7-4.7-49.6-1.8c-11.9,2.2-25.1,7.9-39.3,17c-14.3,9.1-20.8,15-22.9,33.3
			c-0.8,6.7-0.8,13.6-0.9,20.3c-0.1,12-0.2,24.4-4.4,36.1c-0.9,2.6-8,13.2-17.9,27.8c-4.9,7.3-10.5,15.4-12.1,18.2l17.8,8.1
			c3.6-1.3,26.7-10.3,36.1-23.3c12-16.7,10.7-24.8,10.7-24.9c-0.1-0.6,0.2-1.2,0.8-1.4c0.6-0.2,1.2,0.1,1.5,0.6
			c4.4,8.7,4.7,9.3,6.1,11.9c0.9,1.5,2,3.6,4.5,8.2c0.3,0.6,0.1,1.3-0.5,1.7c-0.6,0.3-1.3,0.1-1.7-0.5c-2.5-4.6-3.6-6.7-4.5-8.2
			c-1.2-2.2-1.6-3-4.1-7.9c-0.8,4.3-3.4,11.6-10.9,21.9C624,413.3,598,422.6,596.9,423C596.8,423,596.7,423.1,596.5,423z
			 M788.9,349.7L788.9,349.7L788.9,349.7z M763.9,344.8L763.9,344.8L763.9,344.8z M763.9,344.8L763.9,344.8L763.9,344.8z
			 M763.9,344.8L763.9,344.8L763.9,344.8z M763.9,344.8L763.9,344.8L763.9,344.8z M763.9,344.8L763.9,344.8L763.9,344.8z
			 M763.9,344.8L763.9,344.8L763.9,344.8z M763.9,344.8L763.9,344.8L763.9,344.8z M763.9,344.8L763.9,344.8L763.9,344.8z
			 M763.9,344.8L763.9,344.8L763.9,344.8z M763.9,344.8L763.9,344.8L763.9,344.8z M763.9,344.8L763.9,344.8L763.9,344.8z
			 M763.9,344.8L763.9,344.8L763.9,344.8z M763.9,344.8L763.9,344.8L763.9,344.8z"/>
	</g>
	<g id="shoe_3_">
		<path class="st16" d="M620.2,605.2l-42-11c-5.2-1.4-8.4-6.8-7-12l2.3-8.9c1.4-5.2,6.8-8.4,12-7l42,11c5.2,1.4,8.4,6.8,7,12
			l-2.3,8.9C630.9,603.4,625.4,606.6,620.2,605.2z"/>
		<path class="st15" d="M622.2,606.8c-0.8,0-1.6-0.2-2.3-0.4l-42-11c-2.9-0.7-5.3-2.6-6.8-5.1s-1.9-5.5-1.2-8.4l2.3-8.9
			c1.5-5.9,7.6-9.5,13.5-7.9l42,11c2.9,0.7,5.3,2.6,6.8,5.1c1.5,2.6,1.9,5.5,1.2,8.4l-2.3,8.9c-0.7,2.9-2.6,5.3-5.1,6.8
			C626.4,606.3,624.3,606.9,622.2,606.8z M583.3,567.2c-4-0.2-7.7,2.4-8.7,6.4l-2.3,8.9c-0.6,2.2-0.3,4.5,0.9,6.5s3,3.4,5.2,4l42,11
			c2.2,0.6,4.5,0.3,6.5-0.9s3.4-3,4-5.3l2.3-8.9c0.6-2.2,0.3-4.5-0.9-6.5s-3-3.4-5.2-4l-42-11C584.5,567.3,583.9,567.2,583.3,567.2z
			"/>
	</g>
	<g id="logo_1_">
		<g>
			<g>
				<circle class="st17" cx="678.8" cy="328.4" r="40.1"/>
			</g>
		</g>
		<g>
			<g>
				<g>
					<g>
						<path class="st14" d="M656.3,346.7c-0.1,0-0.3,0-0.4,0c-0.6-0.1-0.9-0.7-0.8-1.2l6.2-30.7c0.1-0.6,0.7-0.9,1.2-0.8
							c0.6,0.1,0.9,0.7,0.8,1.2l-6.2,30.7C657,346.3,656.7,346.6,656.3,346.7z"/>
					</g>
				</g>
				<g>
					<g>
						<path class="st14" d="M681.7,340.8c-0.4,0.1-0.8,0-1-0.4l-19.2-24.8c-0.3-0.4-0.3-1.1,0.2-1.4c0.4-0.3,1.1-0.3,1.4,0.2
							l19.2,24.8c0.3,0.4,0.3,1.1-0.2,1.4C681.9,340.7,681.8,340.8,681.7,340.8z"/>
					</g>
				</g>
				<g>
					<g>
						<path class="st14" d="M681.7,340.8c-0.1,0-0.3,0-0.4,0c-0.6-0.1-0.9-0.7-0.8-1.2l6.2-30.7c0.1-0.6,0.7-0.9,1.2-0.8
							c0.6,0.1,0.9,0.7,0.8,1.2l-6.2,30.7C682.4,340.4,682,340.7,681.7,340.8z"/>
					</g>
				</g>
				<g>
					<g>
						<path class="st14" d="M707.1,334.9c-0.4,0.1-0.8,0-1-0.4l-19.2-24.8c-0.3-0.4-0.3-1.1,0.2-1.4c0.4-0.3,1.1-0.3,1.4,0.2
							l19.2,24.8c0.3,0.4,0.3,1.1-0.2,1.4C707.3,334.8,707.2,334.9,707.1,334.9z"/>
					</g>
				</g>
			</g>
			<g>
				<g>
					
						<ellipse transform="matrix(0.974 -0.2266 0.2266 0.974 -61.5588 157.745)" class="st14" cx="656.3" cy="347" rx="3.9" ry="3.8"/>
				</g>
			</g>
			<g>
				<g>
					
						<ellipse transform="matrix(0.974 -0.2266 0.2266 0.974 -59.5615 163.347)" class="st14" cx="681.7" cy="341.1" rx="3.9" ry="3.8"/>
				</g>
			</g>
			<g>
				<g>
					
						<ellipse transform="matrix(0.974 -0.2266 0.2266 0.974 -57.5403 168.946)" class="st14" cx="707.1" cy="335.1" rx="3.9" ry="3.8"/>
				</g>
			</g>
		</g>
	</g>
	<g id="face_2_">
		<g>
			<path class="st14" d="M665.5,271.6l-13.2,2.6c-12.7,2.5-25.7-7.9-28.9-23.2l-4.7-22.1c-3.2-15.2,4.5-29.7,17.2-32.2l13.2-2.6
				c12.7-2.5,25.7,7.9,28.9,23.2l2.2,10.2c0-0.2,2.5-2.7,2.7-2.8c0.9-0.8,1.2-1.2,2.4-1.4c3.9-0.8,6.5,7.1,6.3,11.1
				c-0.1,1.6-0.6,3.1-1.1,4.5c-0.6,1.5-1.3,2.9-2.2,4.1c-0.7,0.9-1.6,1.5-2.6,1.9c-0.4,0.1-2.2,0-2.1,0.6
				C684.9,259.3,677.2,269.3,665.5,271.6z"/>
			<path class="st15" d="M647.6,275.8c-11.6-0.5-22.5-10.5-25.4-24.5l-4.7-22.1c-1.8-8.5-0.3-17.2,4-23.9c3.4-5.2,8.5-8.7,14.1-9.8
				L649,193c13.4-2.6,27,8.2,30.3,24.1c0.4,1.8,1.1,5.3,1.7,7.8c0.5-0.5,1-0.9,1.2-1.1c0.2-0.1,0.3-0.3,0.4-0.4
				c0.7-0.6,1.2-1,2.5-1.3s2.6,0.1,3.7,1.1c2.7,2.3,4.3,7.8,4,11.3c-0.1,1.5-0.5,3-1.2,4.9c-0.5,1.2-1.2,3-2.4,4.4
				c-0.9,1.1-2,1.9-3.1,2.3c-0.3,0.1-0.6,0.1-1,0.1c-0.1,0-0.1,0-0.2,0c1,13.5-6.6,24.2-19.1,26.6l0,0l-13.2,2.6
				C650.9,275.8,649.3,275.9,647.6,275.8z M653.8,195.1c-1.4-0.1-2.9,0-4.4,0.3l-13.2,2.6c-5,1-9.5,4.1-12.6,8.7
				c-4,6.1-5.4,14.1-3.7,22l4.7,22.1c3.1,14.6,15.4,24.6,27.5,22.2l13.2-2.6c11.4-2.2,18.3-12.2,17-24.8c0-0.4,0.1-0.8,0.4-1.1
				c0.6-0.6,1.5-0.7,2.3-0.7c0.1,0,0.3,0,0.4,0c0.7-0.3,1.4-0.8,2-1.5c0.7-0.9,1.4-2.1,2-3.7c0.6-1.6,0.9-2.9,1-4.1
				c0.2-2.8-1.2-7.6-3.2-9.3c-0.8-0.7-1.4-0.6-1.6-0.5c-0.6,0.1-0.8,0.3-1.3,0.7c-0.1,0.1-0.3,0.3-0.5,0.4c-0.3,0.2-1.9,1.9-2.3,2.4
				c-0.1,0.3-0.4,0.6-0.8,0.7c-0.6,0.2-1.3-0.2-1.5-0.8c0,0,0,0,0-0.2l0,0l0,0c-0.1-0.5-0.5-2.4-2.2-10.1
				C674.2,204.8,664.3,195.5,653.8,195.1z M684.8,245.3C684.8,245.4,684.8,245.4,684.8,245.3C684.8,245.4,684.8,245.4,684.8,245.3z
				 M681.5,227.3L681.5,227.3L681.5,227.3z M681.5,227.3L681.5,227.3L681.5,227.3z"/>
		</g>
		<g>
			<path class="st14" d="M660.9,253.5c-6.3,5.9-11.6,6.5-19.3,3.1"/>
			<path class="st15" d="M649.3,259.3c-2.4-0.1-5-0.8-8-2.2c-0.3-0.1-0.5-0.5-0.3-0.8c0.1-0.3,0.5-0.5,0.8-0.3
				c7.8,3.4,12.6,2.7,18.6-3c0.2-0.2,0.6-0.2,0.9,0c0.2,0.2,0.2,0.6,0,0.9C657.2,257.8,653.6,259.5,649.3,259.3z"/>
		</g>
		<g>
			<path class="st14" d="M629.7,240.2c-0.1-0.4-0.2-0.8-0.2-1.2c-0.3-3.7,2.2-6.9,5.7-7.1c3.5-0.2,6.6,2.6,6.9,6.3"/>
			<path class="st17" d="M629.7,240.9c-0.3,0-0.5-0.2-0.6-0.5c-0.1-0.4-0.2-0.9-0.2-1.3c-0.2-2,0.4-4,1.7-5.4
				c1.2-1.4,2.8-2.2,4.6-2.3c3.8-0.2,7.2,2.8,7.6,6.8c0,0.3-0.2,0.6-0.6,0.7c-0.3,0-0.6-0.2-0.7-0.6c-0.3-3.4-3.1-5.9-6.3-5.7
				c-1.4,0.1-2.8,0.8-3.7,1.9c-1.1,1.2-1.5,2.8-1.4,4.5c0,0.4,0.1,0.7,0.2,1.1c0.1,0.3-0.1,0.7-0.4,0.8
				C629.8,240.9,629.8,240.9,629.7,240.9z"/>
		</g>
		<g>
			<path class="st14" d="M656.6,236.9c-0.1-0.4-0.2-0.8-0.2-1.2c-0.3-3.7,2.2-6.9,5.7-7.1s6.6,2.6,6.9,6.3"/>
			<path class="st17" d="M656.5,237.5c-0.3,0-0.5-0.2-0.6-0.5c-0.1-0.4-0.2-0.9-0.2-1.3c-0.2-2,0.4-4,1.7-5.4
				c1.2-1.4,2.8-2.2,4.6-2.3c3.8-0.2,7.2,2.8,7.6,6.8c0,0.3-0.2,0.6-0.6,0.7c-0.3,0-0.6-0.2-0.7-0.6c-0.3-3.4-3.1-5.9-6.3-5.7
				c-1.4,0.1-2.8,0.8-3.7,1.9c-1.1,1.2-1.5,2.8-1.4,4.5c0,0.4,0.1,0.7,0.2,1.1c0.1,0.3-0.1,0.7-0.4,0.8
				C656.7,237.5,656.6,237.5,656.5,237.5z"/>
		</g>
		<g>
			<path class="st16" d="M634.7,178.4c43.1-21.6,53.1,27.5,50.3,42.8c-0.5,2.6-3.5,3.5-4.5,3.7c-1.9-2.8-4-17.9-14.5-23.2
				s-22.5,2.2-28.8,3.4c-9.1,1.7-21.7-2.2-18.5,28.2c-7.4-12.6-22-31.3-9.8-50.9C620.1,190.2,626.1,182.8,634.7,178.4z"/>
			<path class="st15" d="M618.8,234.6c-0.4,0-0.8-0.2-1-0.6c-0.8-1.4-1.7-2.8-2.6-4.3c-7.8-12.6-18.4-29.8-7.2-47.9
				c0.2-0.3,0.5-0.5,0.8-0.6s0.7,0,1,0.2c8.1,5.7,13,2.6,19.3-1.2c1.6-1,3.3-2,5.2-3l0,0c14.6-7.3,26.8-7.4,36.3-0.3
				c14,10.5,17.6,34.2,15.7,44.5c-0.7,3.5-4.6,4.5-5.4,4.7c-0.5,0.1-1-0.1-1.3-0.5c-0.6-0.8-1.1-2.3-1.8-4.4
				c-1.8-5.5-4.9-14.7-12.2-18.4s-15.4-0.8-21.9,1.6c-2.3,0.8-4.4,1.6-6.1,1.9c-1.4,0.3-2.8,0.4-4.2,0.5c-4.1,0.4-7.9,0.7-10.5,3.9
				c-3.1,3.8-4,11.1-2.8,22.4c0.1,0.6-0.3,1.1-0.8,1.3C619.1,234.6,618.9,234.6,618.8,234.6z M609.4,184.2
				c-9.3,16.4,0.5,32.3,7.8,44.1c-0.5-9.2,0.7-15.3,3.7-19c3.2-4,8-4.4,12.2-4.8c1.4-0.1,2.7-0.3,3.9-0.5c1.5-0.3,3.5-1,5.7-1.8
				c6.6-2.4,15.6-5.6,23.8-1.5c8.3,4.2,11.5,14,13.5,19.8c0.4,1.1,0.7,2.3,1.1,3c1-0.3,2.4-1.1,2.6-2.5c1.8-9.5-1.7-32.3-14.7-42
				c-8.7-6.5-20.1-6.4-33.8,0.5l0,0c-1.7,0.9-3.4,1.9-5,2.9C624.1,186.2,618.3,189.8,609.4,184.2z M634.7,178.4L634.7,178.4
				L634.7,178.4z"/>
		</g>
	</g>
	<g id="waist_1_">
		<path class="st18" d="M655.2,393.5c-0.6,0-1.1-0.5-1.2-1.1c0-0.7,0.5-1.3,1.1-1.3c9.8-0.7,28.7-4.9,50.5-11.4
			c19.4-5.7,36-11.8,39.5-14.4c0.5-0.4,1.3-0.3,1.7,0.3c0.4,0.5,0.3,1.3-0.3,1.7C738.7,373.1,677.9,392,655.2,393.5
			C655.3,393.5,655.3,393.5,655.2,393.5z"/>
	</g>
	<g id="shoe_2_">
		<path class="st16" d="M846.1,548.7l-28,33.2c-3.5,4.1-9.7,4.7-13.9,1.2l-7-5.9c-4.1-3.5-4.7-9.7-1.2-13.9l28-33.2
			c3.5-4.1,9.7-4.7,13.9-1.2l7,5.9C849.1,538.3,849.6,544.5,846.1,548.7z"/>
		<path class="st15" d="M810.1,586.6c-2.4-0.1-4.7-1-6.7-2.6l-7-5.9c-2.3-1.9-3.6-4.6-3.9-7.5c-0.3-3,0.7-5.8,2.6-8.1l28-33.2
			c1.9-2.3,4.6-3.6,7.5-3.9c3-0.3,5.8,0.7,8.1,2.6l7,5.9c2.3,1.9,3.6,4.6,3.9,7.5c0.3,3-0.7,5.8-2.6,8.1l-28,33.2
			C816.7,585.4,813.4,586.8,810.1,586.6z M831.9,527.8c-0.4,0-0.7,0-1.1,0c-2.3,0.2-4.4,1.3-5.9,3l-28,33.2c-1.5,1.8-2.2,4-2,6.3
			s1.3,4.4,3,5.9l7,5.9c3.6,3.1,9.1,2.6,12.1-1l28-33.2c1.5-1.7,2.2-4,2-6.3s-1.3-4.4-3-5.9l-7-5.9
			C835.6,528.6,833.8,527.9,831.9,527.8z"/>
	</g>
	<g id="hand_2_">
		<g>
			<path class="st14" d="M790.4,369.8c0,0.3,0,0.5,0,0.8c-0.2,2.5-1.2,4.7-3,6.3c-1.7,1.6-3.9,2.4-6.2,2.2l-15.1-1.2
				c-0.5,0-1-0.1-1.5-0.3c-3.7-1-6.2-4.6-6.3-8.7c0-0.9,0.1-1.7,0.3-2.6l0.1-0.2c1.3-4.8,2.4-7.4,3.6-10.1c1.1-2.5,2.3-5.1,3.5-9.5
				l22.4,2.3l2.1,20.4C790.4,369.4,790.4,369.6,790.4,369.8z"/>
		</g>
		<g>
			<path class="st15" d="M759.5,369c0-0.7,0.1-1.5,0.3-2.2v-0.1v-0.1c1.2-4.7,2.4-7.2,3.6-10c1.1-2.4,2.1-4.8,3.3-8.7l20.4,2.1
				l2,19.3c0,0.2,0,0.4,0,0.5c0,0.2,0,0.5,0,0.7c-0.2,2.1-1.1,4.1-2.6,5.5s-3.3,2-5.3,1.9l-15.1-1.2c-0.4,0-0.9-0.1-1.3-0.2
				C761.8,375.6,759.6,372.5,759.5,369 M757.1,369c0,4.5,2.9,8.6,7.2,9.8c0.6,0.2,1.2,0.3,1.8,0.3l15.1,1.2
				c5.4,0.4,10.1-3.9,10.5-9.6c0-0.3,0-0.6,0-0.9c0-0.2,0-0.5,0-0.7l-2.2-21.3l-24.5-2.5c-2.6,9.7-4.9,10.9-7.4,20.7
				c0,0.1,0,0.2-0.1,0.2C757.2,367.1,757.1,368.1,757.1,369L757.1,369z"/>
		</g>
	</g>
</g>
</svg>
