<?xml version="1.0" encoding="utf-8"?>
<!-- Generator: Adobe Illustrator 24.3.0, SVG Export Plug-In . SVG Version: 6.00 Build 0)  -->
<svg version="1.1" id="svg_x5F__x5F_monitor" xmlns="http://www.w3.org/2000/svg" xmlns:xlink="http://www.w3.org/1999/xlink"
	 x="0px" y="0px" viewBox="0 0 878 632" style="enable-background:new 0 0 878 632;" xml:space="preserve">
<style type="text/css">
	.monitor0{display:none;}
	.monitor1{display:inline;}
	.monitor2{fill:#3D52BC;}
	.monitor3{fill:#6BCAD0;}
	.monitor4{fill:#2C3ACF;}
	.monitor5{fill:#FFFFFF;}
	.monitor6{fill:#A6B2C7;}
	.monitor7{fill:#3A3E42;}
	.monitor8{fill:#F4F4F4;}
	.monitor9{fill:#4051CC;}
	.monitor10{opacity:0.28;enable-background:new    ;}
	.monitor11{fill:#68B9FC;}
</style>
<g class="monitor0">
	<g class="monitor1">
		<rect x="-0.1" class="monitor2" width="877.8" height="632"/>
	</g>
</g>
<path class="monitor3" d="M570.7,171.8l-2.6-81.2c0-0.4,0.3-0.7,0.7-0.7s0.7,0.3,0.7,0.7l2.5,78.9l87.9-55c0.4-0.2,0.8-0.1,1,0.2
	c0.2,0.4,0.1,0.8-0.2,1L570.7,171.8z"/>
<ellipse class="monitor4" cx="669.1" cy="97.6" rx="25.3" ry="25.3"/>
<path class="monitor5" d="M685.2,104.7L676.4,87c-0.1-0.3,0-0.7,0.3-0.9c0.3-0.1,0.7,0,0.9,0.3l8.8,17.7c0.1,0.3,0,0.7-0.3,0.9
	c-0.1,0-0.2,0.1-0.2,0.1C685.5,105,685.3,104.9,685.2,104.7z"/>
<path class="monitor5" d="M669.1,105.6c-0.3-0.1-0.5-0.5-0.4-0.8l7.6-18.3c0.1-0.3,0.5-0.5,0.8-0.4s0.5,0.5,0.4,0.8l-7.6,18.3
	c-0.1,0.3-0.3,0.4-0.6,0.4C669.3,105.6,669.2,105.6,669.1,105.6z"/>
<path class="monitor5" d="M668.7,105.3l-8.8-17.7c-0.1-0.3,0-0.7,0.3-0.9c0.3-0.1,0.7,0,0.9,0.3l8.8,17.7c0.1,0.3,0,0.7-0.3,0.9
	c-0.1,0-0.2,0.1-0.2,0.1C669.1,105.6,668.9,105.5,668.7,105.3z"/>
<path class="monitor5" d="M652.6,106.2c-0.3-0.1-0.5-0.5-0.4-0.8l7.6-18.3c0.1-0.3,0.5-0.5,0.8-0.4s0.5,0.5,0.4,0.8l-7.6,18.3
	c-0.1,0.3-0.3,0.4-0.6,0.4C652.8,106.2,652.7,106.2,652.6,106.2z"/>
<ellipse transform="matrix(0.9994 -3.414290e-02 3.414290e-02 0.9994 -3.1885 23.476)" class="monitor5" cx="685.8" cy="105.1" rx="2.5" ry="2.4"/>
<ellipse transform="matrix(0.9994 -3.414290e-02 3.414290e-02 0.9994 -3.2186 22.913)" class="monitor5" cx="669.3" cy="105.7" rx="2.5" ry="2.4"/>
<ellipse transform="matrix(0.9994 -3.414290e-02 3.414290e-02 0.9994 -3.2453 22.3534)" class="monitor5" cx="652.9" cy="106.2" rx="2.5" ry="2.4"/>
<ellipse transform="matrix(0.9797 -0.2003 0.2003 0.9797 -7.3495 115.7576)" class="monitor4" cx="568.4" cy="94.2" rx="22.6" ry="22.6"/>
<path class="monitor5" d="M582.5,101.5l-6.9-16.3c-0.1-0.3,0-0.6,0.3-0.7s0.6,0,0.7,0.3l6.9,16.3c0.1,0.3,0,0.6-0.3,0.7
	c-0.1,0-0.1,0.1-0.2,0.1C582.8,101.9,582.6,101.8,582.5,101.5z"/>
<path class="monitor5" d="M568.1,101.4c-0.3-0.1-0.4-0.5-0.3-0.8l7.8-15.8c0.1-0.3,0.5-0.4,0.8-0.3s0.4,0.5,0.3,0.8l-7.8,15.8
	c-0.1,0.3-0.3,0.3-0.5,0.3C568.2,101.5,568.2,101.5,568.1,101.4z"/>
<path class="monitor5" d="M567.8,101.1l-6.9-16.3c-0.1-0.3,0-0.6,0.3-0.7s0.6,0,0.7,0.3l6.9,16.3c0.1,0.3,0,0.6-0.3,0.7
	c-0.1,0-0.1,0.1-0.2,0.1S567.9,101.3,567.8,101.1z"/>
<path class="monitor5" d="M553.4,101.1c-0.3-0.1-0.4-0.5-0.3-0.8l7.8-15.8c0.1-0.3,0.5-0.4,0.8-0.3s0.4,0.5,0.3,0.8l-7.8,15.8
	c-0.1,0.3-0.3,0.3-0.5,0.3C553.6,101.1,553.5,101.1,553.4,101.1z"/>
<ellipse transform="matrix(2.692892e-02 -0.9996 0.9996 2.692892e-02 465.3764 682.2446)" class="monitor5" cx="583.1" cy="102.1" rx="2.1" ry="2.2"/>
<ellipse transform="matrix(2.692892e-02 -0.9996 0.9996 2.692892e-02 451.5967 667.215)" class="monitor5" cx="568.5" cy="101.6" rx="2.1" ry="2.2"/>
<ellipse transform="matrix(2.692892e-02 -0.9996 0.9996 2.692892e-02 437.627 651.9908)" class="monitor5" cx="553.7" cy="101.2" rx="2.1" ry="2.2"/>
<path class="monitor3" d="M613.3,551.5c-0.3-0.1-0.6-0.5-0.4-0.9c0.1-0.4,0.5-0.6,0.9-0.4l113.8,41.3l6.2-83.7c0-0.4,0.4-0.7,0.8-0.7l0,0
	c0.4,0,0.7,0.3,0.7,0.8l-6.3,85.6L613.3,551.5z"/>
<path class="monitor3" d="M515.2,584c-0.2-0.4,0.1-0.8,0.4-0.9l97-33l-47.1-101.4l-0.2-0.4l0.9-1.3c-0.1-0.1-0.2-0.2-0.3-0.4l-15-81
	c-0.1-0.4,0.2-0.8,0.6-0.8c0.4-0.1,0.8,0.2,0.8,0.6l14.9,80.3l63.5-88c0.2-0.3,0.7-0.4,1-0.1c0.3,0.2,0.4,0.7,0.1,1l-64.9,90
	l47.2,101.8c0,0.1,0,0.1,0,0.1c0.1,0.1,0.1,0.1,0.1,0.2l0,0c0.1,0.1,0,0.2,0,0.3l0,0l0,0c0,0.1-0.1,0.2-0.2,0.3l0,0
	c-0.1,0.1-0.2,0.1-0.2,0.1c-0.1,0-0.1,0-0.1,0l-97.6,33.2c-0.1,0.1-0.2,0.1-0.3,0.1C515.5,584.6,515.3,584.5,515.2,584z"/>
<path class="monitor3" d="M649.6,439.9c-0.3-0.2-0.3-0.7-0.1-1s0.7-0.3,1-0.1l83.5,67.6l12.5-80.8c0.1-0.4,0.4-0.6,0.8-0.6
	c0.4,0.1,0.6,0.4,0.6,0.8l-12.8,83.3L649.6,439.9z"/>
<ellipse class="monitor4" cx="728.4" cy="592.3" rx="30.5" ry="30.5"/>
<path class="monitor5" d="M708.2,601.2c-0.1,0-0.2-0.1-0.3-0.1c-0.4-0.2-0.5-0.7-0.4-1l10.8-21.2c0.2-0.4,0.7-0.5,1-0.4
	c0.4,0.2,0.5,0.7,0.4,1l-10.8,21.2C708.8,601.1,708.5,601.3,708.2,601.2z"/>
<path class="monitor5" d="M728,602c-0.4,0-0.6-0.1-0.7-0.5l-9-22c-0.1-0.4,0-0.9,0.4-1s0.9,0,1,0.4l9,22c0.1,0.4,0,0.9-0.4,1
	C728.2,602,728,602.1,728,602z"/>
<path class="monitor5" d="M728,602.1c-0.1,0-0.2-0.1-0.3-0.1c-0.4-0.2-0.5-0.7-0.4-1l10.8-21.2c0.2-0.4,0.7-0.5,1-0.4
	c0.4,0.2,0.5,0.7,0.4,1l-10.8,21.2C728.6,601.9,728.2,602,728,602.1z"/>
<path class="monitor5" d="M747.9,602.9c-0.4,0-0.6-0.1-0.7-0.5l-9-22c-0.1-0.4,0-0.9,0.4-1s0.9,0,1,0.4l9,22c0.1,0.4,0,0.9-0.4,1
	C747.9,602.8,747.9,602.9,747.9,602.9z"/>
<ellipse transform="matrix(4.200654e-02 -0.9991 0.9991 4.200654e-02 77.4451 1283.6721)" class="monitor5" cx="708.1" cy="601.5" rx="2.9" ry="3"/>
<ellipse transform="matrix(4.200654e-02 -0.9991 0.9991 4.200654e-02 95.7077 1304.3502)" class="monitor5" cx="728" cy="602.3" rx="2.9" ry="3"/>
<ellipse transform="matrix(4.200654e-02 -0.9991 0.9991 4.200654e-02 113.8861 1324.7161)" class="monitor5" cx="747.7" cy="603" rx="2.9" ry="3"/>
<ellipse class="monitor4" cx="611.5" cy="550.5" rx="30.5" ry="30.5"/>
<path class="monitor5" d="M591.3,559.4c-0.1,0-0.2-0.1-0.3-0.1c-0.4-0.2-0.5-0.7-0.4-1l10.8-21.2c0.2-0.4,0.7-0.5,1-0.4
	c0.4,0.2,0.5,0.7,0.4,1l-10.7,21.2C591.9,559.2,591.6,559.4,591.3,559.4z"/>
<path class="monitor5" d="M611.2,560.2c-0.4,0-0.6-0.1-0.7-0.5l-9-22c-0.1-0.4,0-0.9,0.4-1s0.9,0,1,0.4l9,22c0.1,0.4,0,0.9-0.4,1
	C611.2,560.2,611.2,560.2,611.2,560.2z"/>
<path class="monitor5" d="M611.1,560.2c-0.1,0-0.2-0.1-0.3-0.1c-0.4-0.2-0.5-0.7-0.4-1l10.8-21.2c0.2-0.4,0.7-0.5,1-0.4
	c0.4,0.2,0.5,0.7,0.4,1l-10.8,21.2C611.7,560,611.3,560.2,611.1,560.2z"/>
<path class="monitor5" d="M630.9,561c-0.4,0-0.6-0.1-0.7-0.5l-9-22c-0.1-0.4,0-0.9,0.4-1s0.9,0,1,0.4l9,22c0.1,0.4,0,0.9-0.4,1
	C631.1,561,631,561,630.9,561z"/>
<ellipse transform="matrix(4.200654e-02 -0.9991 0.9991 4.200654e-02 7.302 1126.684)" class="monitor5" cx="591.2" cy="559.5" rx="2.9" ry="3"/>
<ellipse transform="matrix(4.200654e-02 -0.9991 0.9991 4.200654e-02 25.4897 1147.3823)" class="monitor5" cx="611.1" cy="560.4" rx="2.9" ry="3"/>
<ellipse transform="matrix(4.200654e-02 -0.9991 0.9991 4.200654e-02 43.8317 1168.0137)" class="monitor5" cx="631" cy="561.2" rx="2.9" ry="3"/>
<ellipse class="monitor4" cx="652.3" cy="446.7" rx="26.2" ry="26.2"/>
<path class="monitor5" d="M634.2,452.2c0,0-0.1-0.1-0.2-0.1c-0.3-0.2-0.4-0.7-0.2-0.9l11.3-17.1c0.2-0.3,0.7-0.4,0.9-0.2
	c0.3,0.2,0.4,0.7,0.2,0.9l-11.3,17.1C634.7,452.1,634.5,452.3,634.2,452.2z"/>
<path class="monitor5" d="M651.1,454.8c-0.3,0-0.5-0.2-0.5-0.5l-5.6-19.7c0-0.4,0.1-0.8,0.5-0.8s0.8,0.1,0.8,0.5l5.6,19.7
	c0,0.4-0.1,0.8-0.5,0.8C651.2,454.8,651.1,454.9,651.1,454.8z"/>
<path class="monitor5" d="M651,454.9c0,0-0.1-0.1-0.2-0.1c-0.3-0.2-0.4-0.7-0.2-0.9l11.3-17.1c0.2-0.3,0.7-0.4,0.9-0.2
	c0.3,0.2,0.4,0.7,0.2,0.9l-11.3,17.1C651.6,454.8,651.3,454.9,651,454.9z"/>
<path class="monitor5" d="M667.9,457.5c-0.3,0-0.5-0.2-0.5-0.5l-5.6-19.7c0-0.4,0.1-0.8,0.5-0.8s0.8,0.1,0.8,0.5l5.6,19.7
	c0,0.4-0.1,0.8-0.5,0.8C668.1,457.5,668,457.5,667.9,457.5z"/>
<ellipse transform="matrix(0.1548 -0.9879 0.9879 0.1548 89.0976 1009.029)" class="monitor5" cx="634.3" cy="452.4" rx="2.5" ry="2.6"/>
<ellipse transform="matrix(0.1548 -0.9879 0.9879 0.1548 100.6887 1027.9388)" class="monitor5" cx="651.1" cy="455.1" rx="2.5" ry="2.6"/>
<ellipse transform="matrix(0.1548 -0.9879 0.9879 0.1548 112.2542 1046.682)" class="monitor5" cx="667.9" cy="457.7" rx="2.5" ry="2.6"/>
<ellipse transform="matrix(0.3174 -0.9483 0.9483 0.3174 107.4192 997.426)" class="monitor4" cx="746.5" cy="424.1" rx="23.4" ry="23.4"/>
<path class="monitor5" d="M730.6,430.2c-0.1,0-0.1-0.1-0.2-0.1c-0.3-0.2-0.4-0.5-0.2-0.8l9.2-15.9c0.2-0.3,0.5-0.4,0.8-0.2
	c0.3,0.2,0.4,0.5,0.2,0.8l-9.2,15.9C731.1,430.1,730.8,430.2,730.6,430.2z"/>
<path class="monitor5" d="M745.7,431.5c-0.2,0-0.4-0.1-0.5-0.4l-6.1-17.3c-0.1-0.3,0-0.7,0.4-0.8c0.3-0.1,0.7,0,0.8,0.4l6.1,17.3
	c0.1,0.3,0,0.7-0.4,0.8C745.9,431.6,745.8,431.6,745.7,431.5z"/>
<path class="monitor5" d="M745.7,431.6c-0.1,0-0.1-0.1-0.2-0.1c-0.3-0.2-0.4-0.5-0.2-0.8l9.2-15.9c0.2-0.3,0.5-0.4,0.8-0.2
	c0.3,0.2,0.4,0.5,0.2,0.8l-9.1,15.9C746.2,431.5,745.9,431.6,745.7,431.6z"/>
<path class="monitor5" d="M760.9,433c-0.2,0-0.4-0.1-0.5-0.4l-6.1-17.3c-0.1-0.3,0-0.7,0.4-0.8c0.3-0.1,0.7,0,0.8,0.4l6.1,17.3
	c0.1,0.3,0,0.7-0.4,0.8C761.1,433,761,433,760.9,433z"/>
<ellipse transform="matrix(9.417687e-02 -0.9956 0.9956 9.417687e-02 233.4228 1117.0964)" class="monitor5" cx="730.6" cy="430.3" rx="2.2" ry="2.3"/>
<ellipse transform="matrix(9.417687e-02 -0.9956 0.9956 9.417687e-02 245.8843 1133.3712)" class="monitor5" cx="745.8" cy="431.6" rx="2.2" ry="2.3"/>
<ellipse transform="matrix(9.417687e-02 -0.9956 0.9956 9.417687e-02 258.095 1149.7006)" class="monitor5" cx="760.8" cy="433" rx="2.2" ry="2.3"/>
<ellipse class="monitor4" cx="734.3" cy="504.1" rx="26.9" ry="26.9"/>
<path class="monitor5" d="M716.4,512c-0.1,0-0.2-0.1-0.3-0.1c-0.3-0.2-0.5-0.7-0.3-0.9l9.6-18.8c0.2-0.3,0.7-0.5,0.9-0.3
	c0.3,0.2,0.5,0.7,0.3,0.9l-9.6,18.8C716.9,511.8,716.7,512,716.4,512z"/>
<path class="monitor5" d="M733.9,512.7c-0.2,0-0.5-0.2-0.5-0.5l-8-19.5c-0.1-0.4,0.1-0.8,0.4-0.9c0.4-0.1,0.8,0.1,0.9,0.4l8,19.5
	c0.1,0.4-0.1,0.8-0.4,0.9C734.1,512.7,734,512.7,733.9,512.7z"/>
<path class="monitor5" d="M733.9,512.7c-0.1,0-0.2-0.1-0.3-0.1c-0.3-0.2-0.5-0.7-0.3-0.9l9.6-18.8c0.2-0.3,0.7-0.5,0.9-0.3
	c0.3,0.2,0.5,0.7,0.3,0.9l-9.6,18.8C734.4,512.6,734.1,512.7,733.9,512.7z"/>
<path class="monitor5" d="M751.4,513.4c-0.2,0-0.5-0.2-0.5-0.5l-8-19.5c-0.1-0.4,0.1-0.8,0.4-0.9c0.4-0.1,0.8,0.1,0.9,0.4l8,19.5
	c0.1,0.4-0.1,0.8-0.4,0.9C751.5,513.4,751.5,513.5,751.4,513.4z"/>
<ellipse class="monitor5" cx="716.4" cy="512.2" rx="2.6" ry="2.6"/>
<ellipse class="monitor5" cx="734" cy="512.9" rx="2.6" ry="2.6"/>
<ellipse class="monitor5" cx="751.5" cy="513.6" rx="2.6" ry="2.6"/>
<ellipse class="monitor4" cx="631.5" cy="358" rx="24.2" ry="24.2"/>
<path class="monitor5" d="M614.4,361.3c-0.1,0-0.1-0.1-0.2-0.1c-0.3-0.2-0.3-0.6-0.1-0.9l12-14.5c0.2-0.3,0.6-0.3,0.9-0.1
	c0.3,0.2,0.3,0.6,0.1,0.9l-12,14.5C614.9,361.2,614.7,361.4,614.4,361.3z"/>
<path class="monitor5" d="M629.6,365.4c-0.2-0.1-0.4-0.2-0.4-0.5l-3.1-18.6c-0.1-0.3,0.1-0.6,0.5-0.7c0.3-0.1,0.6,0.1,0.7,0.5l3.1,18.6
	c0.1,0.3-0.1,0.6-0.5,0.7C629.7,365.3,629.6,365.4,629.6,365.4z"/>
<path class="monitor5" d="M629.6,365.3c-0.1,0-0.1-0.1-0.2-0.1c-0.3-0.2-0.3-0.6-0.1-0.9l12-14.5c0.2-0.3,0.6-0.3,0.9-0.1
	c0.3,0.2,0.3,0.6,0.1,0.9l-12,14.5C630.1,365.4,629.8,365.4,629.6,365.3z"/>
<path class="monitor5" d="M644.8,369.4c-0.2-0.1-0.4-0.2-0.4-0.5l-3.1-18.6c-0.1-0.3,0.1-0.6,0.5-0.7c0.3-0.1,0.6,0.1,0.7,0.5l3.1,18.6
	c0.1,0.3-0.1,0.6-0.5,0.7C644.9,369.5,644.8,369.5,644.8,369.4z"/>
<ellipse class="monitor5" cx="614.4" cy="361.5" rx="2.3" ry="2.3"/>
<ellipse class="monitor5" cx="629.5" cy="365.5" rx="2.3" ry="2.3"/>
<ellipse class="monitor5" cx="644.7" cy="369.5" rx="2.3" ry="2.3"/>
<ellipse class="monitor4" cx="517.3" cy="579.3" rx="24.2" ry="24.2"/>
<path class="monitor5" d="M500.5,584.1c-0.1,0-0.1-0.1-0.2-0.1c-0.3-0.2-0.3-0.6-0.2-0.9l10.7-15.5c0.2-0.3,0.6-0.3,0.9-0.2
	c0.3,0.2,0.3,0.6,0.2,0.9l-10.6,15.5C501,584.1,500.8,584.2,500.5,584.1z"/>
<path class="monitor5" d="M516,586.9c-0.3,0-0.5-0.2-0.5-0.5l-4.8-18.3c-0.1-0.3,0.1-0.7,0.5-0.8c0.3-0.1,0.7,0.1,0.8,0.5l4.8,18.3
	c0.1,0.3-0.1,0.7-0.5,0.8C516.1,586.9,516,586.9,516,586.9z"/>
<path class="monitor5" d="M516,586.9c-0.1,0-0.1-0.1-0.2-0.1c-0.3-0.2-0.3-0.6-0.2-0.9l10.7-15.5c0.2-0.3,0.6-0.3,0.9-0.2
	c0.3,0.2,0.3,0.6,0.2,0.9l-10.8,15.5C516.5,586.8,516.2,586.9,516,586.9z"/>
<path class="monitor5" d="M531.5,589.6c-0.3,0-0.5-0.2-0.5-0.5l-4.8-18.3c-0.1-0.3,0.1-0.7,0.5-0.8c0.3-0.1,0.7,0.1,0.8,0.5l4.8,18.3
	c0.1,0.3-0.1,0.7-0.5,0.8C531.6,589.6,531.5,589.6,531.5,589.6z"/>
<ellipse class="monitor5" cx="500.5" cy="584.2" rx="2.3" ry="2.3"/>
<ellipse class="monitor5" cx="515.9" cy="586.9" rx="2.3" ry="2.3"/>
<ellipse class="monitor5" cx="531.4" cy="589.7" rx="2.3" ry="2.3"/>
<ellipse class="monitor4" cx="566.5" cy="447.9" rx="24.2" ry="24.2"/>
<path class="monitor5" d="M550.3,454.5c-0.1,0-0.1-0.1-0.2-0.1c-0.3-0.2-0.4-0.5-0.2-0.8l8.9-16.7c0.2-0.3,0.5-0.4,0.8-0.2
	c0.3,0.2,0.4,0.5,0.2,0.8l-8.9,16.7C550.7,454.5,550.5,454.6,550.3,454.5z"/>
<path class="monitor5" d="M566,455.6c-0.3,0-0.5-0.1-0.5-0.4l-6.8-17.6c-0.1-0.3,0-0.6,0.3-0.8c0.3-0.1,0.6,0,0.8,0.3l6.8,17.6
	c0.1,0.3,0,0.6-0.3,0.8C566.1,455.5,566,455.6,566,455.6z"/>
<path class="monitor5" d="M566,455.5c-0.1,0-0.1-0.1-0.2-0.1c-0.3-0.2-0.4-0.5-0.2-0.8l8.9-16.7c0.2-0.3,0.5-0.4,0.8-0.2
	c0.3,0.2,0.4,0.5,0.2,0.8l-8.9,16.7C566.4,455.4,566.1,455.5,566,455.5z"/>
<path class="monitor5" d="M581.7,456.4c-0.3,0-0.5-0.1-0.5-0.4l-6.8-17.5c-0.1-0.3,0-0.6,0.3-0.8c0.3-0.1,0.6,0,0.8,0.3l6.8,17.6
	c0.1,0.3,0,0.6-0.3,0.8C581.7,456.4,581.7,456.5,581.7,456.4z"/>
<ellipse class="monitor5" cx="550.3" cy="454.7" rx="2.3" ry="2.3"/>
<ellipse class="monitor5" cx="566" cy="455.7" rx="2.3" ry="2.3"/>
<ellipse class="monitor5" cx="581.6" cy="456.7" rx="2.3" ry="2.3"/>
<path class="monitor3" d="M442.2,311.2c-0.4-0.1-0.6-0.5-0.4-0.9c0.1-0.4,0.5-0.6,0.9-0.4l113.8,41.3l6.2-83.7c0-0.4,0.4-0.7,0.8-0.7l0,0
	c0.4,0,0.7,0.3,0.7,0.8l-6.3,85.6L442.2,311.2z"/>
<path class="monitor3" d="M344.2,343.7c-0.2-0.4,0.1-0.8,0.4-0.9l97-33l-47.1-101.4l-0.2-0.4l0.9-1.3c-0.1-0.1-0.2-0.2-0.3-0.4l-15-81
	c-0.1-0.4,0.2-0.8,0.6-0.8c0.4-0.1,0.8,0.2,0.8,0.6l14.9,80.3l63.5-88c0.2-0.3,0.7-0.4,1-0.1c0.3,0.2,0.4,0.7,0.1,1l-64.9,90
	l47.2,101.8c0,0.1,0,0.1,0,0.1c0.1,0.1,0.1,0.1,0.1,0.2l0,0c0.1,0.1,0,0.2,0,0.3l0,0l0,0c0,0.1-0.1,0.2-0.2,0.3l0,0
	c-0.1,0.1-0.2,0.1-0.2,0.1c-0.1,0-0.1,0-0.1,0L345,344.3c-0.1,0.1-0.2,0.1-0.3,0.1C344.5,344.3,344.2,344.2,344.2,343.7z"/>
<path class="monitor3" d="M478.5,199.5c-0.3-0.2-0.3-0.7-0.1-1c0.2-0.3,0.7-0.3,1-0.1l83.5,67.6l12.5-80.8c0.1-0.4,0.4-0.6,0.8-0.6
	c0.4,0.1,0.6,0.4,0.6,0.8L564,268.7L478.5,199.5z"/>
<ellipse class="monitor4" cx="557.3" cy="352.1" rx="30.5" ry="30.5"/>
<path class="monitor5" d="M537.1,360.9c-0.1,0-0.2-0.1-0.3-0.1c-0.4-0.2-0.5-0.7-0.4-1l10.8-21.2c0.2-0.4,0.7-0.5,1-0.4
	c0.4,0.2,0.5,0.7,0.4,1l-10.8,21.2C537.7,360.8,537.4,361,537.1,360.9z"/>
<path class="monitor5" d="M557,361.7c-0.4,0-0.6-0.1-0.7-0.5l-9-22c-0.1-0.4,0-0.9,0.4-1s0.9,0,1,0.4l9,22c0.1,0.4,0,0.9-0.4,1
	C557.1,361.7,557,361.8,557,361.7z"/>
<path class="monitor5" d="M556.9,361.8c-0.1,0-0.2-0.1-0.3-0.1c-0.4-0.2-0.5-0.7-0.4-1l10.8-21.2c0.2-0.4,0.7-0.5,1-0.4
	c0.4,0.2,0.5,0.7,0.4,1l-10.8,21.2C557.5,361.6,557.2,361.7,556.9,361.8z"/>
<path class="monitor5" d="M576.8,362.6c-0.4,0-0.6-0.1-0.7-0.5l-9-22c-0.1-0.4,0-0.9,0.4-1s0.9,0,1,0.4l9,22c0.1,0.4,0,0.9-0.4,1
	C576.9,362.5,576.8,362.6,576.8,362.6z"/>
<ellipse transform="matrix(4.200654e-02 -0.9991 0.9991 4.200654e-02 153.6091 882.4703)" class="monitor5" cx="537" cy="361.1" rx="2.9" ry="3"/>
<ellipse transform="matrix(4.200654e-02 -0.9991 0.9991 4.200654e-02 171.7804 903.2371)" class="monitor5" cx="556.9" cy="362" rx="2.9" ry="3"/>
<ellipse transform="matrix(4.200654e-02 -0.9991 0.9991 4.200654e-02 190.1381 923.8065)" class="monitor5" cx="576.8" cy="362.8" rx="2.9" ry="3"/>
<ellipse class="monitor4" cx="440.4" cy="310.2" rx="30.5" ry="30.5"/>
<path class="monitor5" d="M420.3,319.1c-0.1,0-0.2-0.1-0.3-0.1c-0.4-0.2-0.5-0.7-0.4-1l10.8-21.2c0.2-0.4,0.7-0.5,1-0.4
	c0.4,0.2,0.5,0.7,0.4,1L421,318.6C420.9,318.9,420.6,319.1,420.3,319.1z"/>
<path class="monitor5" d="M440.1,319.8c-0.4,0-0.6-0.1-0.7-0.5l-9-22c-0.1-0.4,0-0.9,0.4-1s0.9,0,1,0.4l9,22c0.1,0.4,0,0.9-0.4,1
	C440.2,319.8,440.1,319.9,440.1,319.8z"/>
<path class="monitor5" d="M440,319.9c-0.1,0-0.2-0.1-0.3-0.1c-0.4-0.2-0.5-0.7-0.4-1l10.8-21.2c0.2-0.4,0.7-0.5,1-0.4
	c0.4,0.2,0.5,0.7,0.4,1l-10.8,21.2C440.6,319.7,440.2,319.9,440,319.9z"/>
<path class="monitor5" d="M459.8,320.7c-0.4,0-0.6-0.1-0.7-0.5l-9-22c-0.1-0.4,0-0.9,0.4-1s0.9,0,1,0.4l9,22c0.1,0.4,0,0.9-0.4,1
	C460,320.6,459.9,320.7,459.8,320.7z"/>
<ellipse transform="matrix(4.200654e-02 -0.9991 0.9991 4.200654e-02 83.5655 725.5867)" class="monitor5" cx="420.1" cy="319.2" rx="2.9" ry="3"/>
<ellipse transform="matrix(4.200654e-02 -0.9991 0.9991 4.200654e-02 101.7452 746.2845)" class="monitor5" cx="440" cy="320.1" rx="2.9" ry="3"/>
<ellipse transform="matrix(4.200654e-02 -0.9991 0.9991 4.200654e-02 119.9152 766.7217)" class="monitor5" cx="459.8" cy="320.8" rx="2.9" ry="3"/>
<ellipse class="monitor4" cx="481.3" cy="206.3" rx="26.2" ry="26.2"/>
<path class="monitor5" d="M463.1,211.9c0,0-0.1-0.1-0.2-0.1c-0.3-0.2-0.4-0.7-0.2-0.9l11.3-17.1c0.2-0.3,0.7-0.4,0.9-0.2
	c0.3,0.2,0.4,0.7,0.2,0.9l-11.3,17.1C463.7,211.8,463.4,212,463.1,211.9z"/>
<path class="monitor5" d="M480,214.5c-0.3,0-0.5-0.2-0.5-0.5l-5.6-19.7c0-0.4,0.1-0.8,0.5-0.8s0.8,0.1,0.8,0.5l5.6,19.7
	c0,0.4-0.1,0.8-0.5,0.8C480.2,214.5,480.1,214.6,480,214.5z"/>
<path class="monitor5" d="M479.9,214.6c0,0-0.1-0.1-0.2-0.1c-0.3-0.2-0.4-0.7-0.2-0.9l11.3-17.1c0.2-0.3,0.7-0.4,0.9-0.2
	c0.3,0.2,0.4,0.7,0.2,0.9l-11.3,17.1C480.5,214.5,480.2,214.5,479.9,214.6z"/>
<path class="monitor5" d="M496.9,217.2c-0.3,0-0.5-0.2-0.5-0.5l-5.6-19.7c0-0.4,0.1-0.8,0.5-0.8s0.8,0.1,0.8,0.5l5.6,19.7
	c0,0.4-0.1,0.8-0.5,0.8C497,217.2,496.9,217.2,496.9,217.2z"/>
<ellipse transform="matrix(0.1548 -0.9879 0.9879 0.1548 181.9827 636.8208)" class="monitor5" cx="463.2" cy="212.1" rx="2.5" ry="2.6"/>
<ellipse transform="matrix(0.1548 -0.9879 0.9879 0.1548 193.5476 655.6629)" class="monitor5" cx="480" cy="214.7" rx="2.5" ry="2.6"/>
<ellipse transform="matrix(0.1548 -0.9879 0.9879 0.1548 205.1577 674.4642)" class="monitor5" cx="496.8" cy="217.3" rx="2.5" ry="2.6"/>
<ellipse transform="matrix(0.3174 -0.9483 0.9483 0.3174 218.5633 671.2492)" class="monitor4" cx="575.5" cy="183.8" rx="23.4" ry="23.4"/>
<path class="monitor5" d="M559.5,189.9c-0.1,0-0.1-0.1-0.2-0.1c-0.3-0.2-0.4-0.5-0.2-0.8l9.2-15.9c0.2-0.3,0.5-0.4,0.8-0.2
	s0.4,0.5,0.2,0.8l-9.2,15.9C560,189.8,559.8,189.9,559.5,189.9z"/>
<path class="monitor5" d="M574.6,191.2c-0.2,0-0.4-0.1-0.5-0.4l-6.1-17.3c-0.1-0.3,0-0.7,0.4-0.8c0.3-0.1,0.7,0,0.8,0.4l6.1,17.3
	c0.1,0.3,0,0.7-0.4,0.8C574.8,191.3,574.8,191.3,574.6,191.2z"/>
<path class="monitor5" d="M574.6,191.3c-0.1,0-0.1-0.1-0.2-0.1c-0.3-0.2-0.4-0.5-0.2-0.8l9.2-15.9c0.2-0.3,0.5-0.4,0.8-0.2
	s0.4,0.5,0.2,0.8l-9.1,15.9C575.1,191.2,574.8,191.3,574.6,191.3z"/>
<path class="monitor5" d="M589.8,192.7c-0.2,0-0.4-0.1-0.5-0.4l-6.1-17.3c-0.1-0.3,0-0.7,0.4-0.8c0.3-0.1,0.7,0,0.8,0.4l6.1,17.3
	c0.1,0.3,0,0.7-0.4,0.8C590,192.7,589.9,192.7,589.8,192.7z"/>
<ellipse transform="matrix(9.417687e-02 -0.9956 0.9956 9.417687e-02 317.7253 728.8865)" class="monitor5" cx="559.4" cy="189.8" rx="2.2" ry="2.3"/>
<ellipse transform="matrix(9.417687e-02 -0.9956 0.9956 9.417687e-02 330.0094 745.3129)" class="monitor5" cx="574.6" cy="191.3" rx="2.2" ry="2.3"/>
<ellipse transform="matrix(9.417687e-02 -0.9956 0.9956 9.417687e-02 342.3741 761.6615)" class="monitor5" cx="589.7" cy="192.7" rx="2.2" ry="2.3"/>
<ellipse class="monitor4" cx="563.2" cy="263.8" rx="26.9" ry="26.9"/>
<path class="monitor5" d="M545.3,271.6c-0.1,0-0.2-0.1-0.3-0.1c-0.3-0.2-0.5-0.7-0.3-0.9l9.6-18.8c0.2-0.3,0.7-0.5,0.9-0.3
	c0.3,0.2,0.5,0.7,0.3,0.9l-9.6,18.8C545.8,271.5,545.6,271.7,545.3,271.6z"/>
<path class="monitor5" d="M562.8,272.4c-0.2,0-0.5-0.2-0.5-0.5l-8-19.5c-0.1-0.4,0.1-0.8,0.4-0.9s0.8,0.1,0.9,0.4l8,19.5
	c0.1,0.4-0.1,0.8-0.4,0.9C563,272.4,562.9,272.4,562.8,272.4z"/>
<path class="monitor5" d="M562.9,272.4c-0.1,0-0.2-0.1-0.3-0.1c-0.3-0.2-0.5-0.7-0.3-0.9l9.6-18.8c0.2-0.3,0.7-0.5,0.9-0.3
	c0.3,0.2,0.5,0.7,0.3,0.9l-9.6,18.8C563.4,272.2,563.1,272.4,562.9,272.4z"/>
<path class="monitor5" d="M580.3,273.1c-0.2,0-0.5-0.2-0.5-0.5l-8-19.5c-0.1-0.4,0.1-0.8,0.4-0.9s0.8,0.1,0.9,0.4l8,19.5
	c0.1,0.4-0.1,0.8-0.4,0.9C580.5,273.1,580.4,273.1,580.3,273.1z"/>
<ellipse transform="matrix(4.200655e-02 -0.9991 0.9991 4.200655e-02 250.8474 805.2164)" class="monitor5" cx="545.3" cy="271.8" rx="2.6" ry="2.6"/>
<ellipse transform="matrix(4.200653e-02 -0.9991 0.9991 4.200653e-02 266.9477 823.4133)" class="monitor5" cx="562.9" cy="272.5" rx="2.6" ry="2.6"/>
<ellipse transform="matrix(4.200656e-02 -0.9991 0.9991 4.200656e-02 283.0261 841.6096)" class="monitor5" cx="580.4" cy="273.2" rx="2.6" ry="2.6"/>
<ellipse class="monitor4" cx="460.5" cy="117.7" rx="24.2" ry="24.2"/>
<path class="monitor5" d="M443.4,121c-0.1,0-0.1-0.1-0.2-0.1c-0.3-0.2-0.3-0.6-0.1-0.9l12-14.5c0.2-0.3,0.6-0.3,0.9-0.1
	c0.3,0.2,0.3,0.6,0.1,0.9l-12,14.5C443.8,120.9,443.6,121.1,443.4,121z"/>
<path class="monitor5" d="M458.5,125.1c-0.2-0.1-0.4-0.2-0.4-0.5L455,106c-0.1-0.3,0.1-0.6,0.5-0.7c0.3-0.1,0.6,0.1,0.7,0.5l3.1,18.6
	c0.1,0.3-0.1,0.6-0.5,0.7C458.6,125,458.6,125.1,458.5,125.1z"/>
<path class="monitor5" d="M458.5,125c-0.1,0-0.1-0.1-0.2-0.1c-0.3-0.2-0.3-0.6-0.1-0.9l12-14.5c0.2-0.3,0.6-0.3,0.9-0.1
	c0.3,0.2,0.3,0.6,0.1,0.9l-12,14.5C459,125,458.7,125.1,458.5,125z"/>
<path class="monitor5" d="M473.7,129.1c-0.2-0.1-0.4-0.2-0.4-0.5l-3.1-18.6c-0.1-0.3,0.1-0.6,0.5-0.7c0.3-0.1,0.6,0.1,0.7,0.5l3.1,18.6
	c0.1,0.3-0.1,0.6-0.5,0.7C473.8,129.1,473.8,129.1,473.7,129.1z"/>
<ellipse transform="matrix(0.2589 -0.9659 0.9659 0.2589 211.7163 517.9454)" class="monitor5" cx="443.4" cy="121" rx="2.3" ry="2.3"/>
<ellipse transform="matrix(0.2589 -0.9659 0.9659 0.2589 218.8327 535.5284)" class="monitor5" cx="458.4" cy="125.2" rx="2.3" ry="2.3"/>
<ellipse transform="matrix(0.2589 -0.9659 0.9659 0.2589 226.3233 553.1954)" class="monitor5" cx="473.7" cy="129.1" rx="2.3" ry="2.3"/>
<ellipse class="monitor4" cx="346.2" cy="339" rx="24.2" ry="24.2"/>
<path class="monitor5" d="M329.4,343.8c-0.1,0-0.1-0.1-0.2-0.1c-0.3-0.2-0.3-0.6-0.2-0.9l10.7-15.5c0.2-0.3,0.6-0.3,0.9-0.2
	c0.3,0.2,0.3,0.6,0.2,0.9l-10.7,15.6C330,343.8,329.7,343.8,329.4,343.8z"/>
<path class="monitor5" d="M344.9,346.5c-0.3,0-0.5-0.2-0.5-0.5l-4.8-18.3c-0.1-0.3,0.1-0.7,0.5-0.8c0.3-0.1,0.7,0.1,0.8,0.5l4.8,18.3
	c0.1,0.3-0.1,0.7-0.5,0.8C345,346.6,345,346.6,344.9,346.5z"/>
<path class="monitor5" d="M344.9,346.5c-0.1,0-0.1-0.1-0.2-0.1c-0.3-0.2-0.3-0.6-0.2-0.9l10.7-15.5c0.2-0.3,0.6-0.3,0.9-0.2
	c0.3,0.2,0.3,0.6,0.2,0.9l-10.7,15.5C345.4,346.5,345.1,346.6,344.9,346.5z"/>
<path class="monitor5" d="M360.4,349.3c-0.3,0-0.5-0.2-0.5-0.5l-4.8-18.3c-0.1-0.3,0.1-0.7,0.5-0.8c0.3-0.1,0.7,0.1,0.8,0.5l4.8,18.3
	c0.1,0.3-0.1,0.7-0.5,0.8C360.5,349.3,360.5,349.3,360.4,349.3z"/>
<ellipse class="monitor5" cx="329.4" cy="344" rx="2.3" ry="2.3"/>
<ellipse class="monitor5" cx="344.9" cy="346.7" rx="2.3" ry="2.3"/>
<ellipse class="monitor5" cx="360.4" cy="349.4" rx="2.3" ry="2.3"/>
<ellipse transform="matrix(0.4348 -0.9005 0.9005 0.4348 36.5508 473.3899)" class="monitor4" cx="395.4" cy="207.6" rx="24.2" ry="24.2"/>
<path class="monitor5" d="M379.2,214.2c-0.1,0-0.1-0.1-0.2-0.1c-0.3-0.2-0.4-0.5-0.2-0.8l8.9-16.7c0.2-0.3,0.5-0.4,0.8-0.2
	s0.4,0.5,0.2,0.8l-8.9,16.7C379.7,214.2,379.5,214.2,379.2,214.2z"/>
<path class="monitor5" d="M394.9,215.3c-0.3,0-0.5-0.1-0.5-0.4l-6.8-17.6c-0.1-0.3,0-0.6,0.3-0.8c0.3-0.1,0.6,0,0.8,0.3l6.8,17.6
	c0.1,0.3,0,0.6-0.3,0.8C395,215.2,394.9,215.3,394.9,215.3z"/>
<path class="monitor5" d="M394.9,215.2c-0.1,0-0.1-0.1-0.2-0.1c-0.3-0.2-0.4-0.5-0.2-0.8l8.9-16.7c0.2-0.3,0.5-0.4,0.8-0.2
	s0.4,0.5,0.2,0.8l-8.9,16.7C395.4,215.1,395.1,215.2,394.9,215.2z"/>
<path class="monitor5" d="M410.6,216.1c-0.3,0-0.5-0.1-0.5-0.4l-6.8-17.5c-0.1-0.3,0-0.6,0.3-0.8c0.3-0.1,0.6,0,0.8,0.3l6.8,17.6
	c0.1,0.3,0,0.6-0.3,0.8C410.7,216.1,410.6,216.2,410.6,216.1z"/>
<ellipse transform="matrix(6.034207e-02 -0.9982 0.9982 6.034207e-02 142.4777 579.8243)" class="monitor5" cx="379.2" cy="214.2" rx="2.3" ry="2.3"/>
<ellipse transform="matrix(6.034207e-02 -0.9982 0.9982 6.034207e-02 156.1718 596.4594)" class="monitor5" cx="394.9" cy="215.3" rx="2.3" ry="2.3"/>
<ellipse transform="matrix(6.034205e-02 -0.9982 0.9982 6.034205e-02 170.0762 612.9937)" class="monitor5" cx="410.6" cy="216.2" rx="2.3" ry="2.3"/>
<ellipse class="monitor4" cx="380.6" cy="122.7" rx="21.5" ry="21.5"/>
<path class="monitor5" d="M366.3,128.6c-0.1,0-0.1-0.1-0.2-0.1c-0.3-0.2-0.4-0.5-0.2-0.7l7.9-14.8c0.2-0.3,0.5-0.4,0.7-0.2
	c0.3,0.2,0.4,0.5,0.2,0.7l-7.9,14.8C366.7,128.5,366.4,128.6,366.3,128.6z"/>
<path class="monitor5" d="M380.2,129.5c-0.2,0-0.4-0.2-0.5-0.4l-6.1-15.6c-0.1-0.2,0-0.6,0.3-0.7c0.2-0.1,0.6,0,0.7,0.3l6.1,15.6
	c0.1,0.2,0,0.6-0.3,0.7C380.3,129.4,380.2,129.5,380.2,129.5z"/>
<path class="monitor5" d="M380.2,129.5c-0.1,0-0.1-0.1-0.2-0.1c-0.3-0.2-0.4-0.5-0.2-0.7l7.9-14.8c0.2-0.3,0.5-0.4,0.7-0.2
	s0.4,0.5,0.2,0.7l-7.9,14.8C380.6,129.3,380.4,129.4,380.2,129.5z"/>
<path class="monitor5" d="M394.1,130.3c-0.2,0-0.4-0.2-0.5-0.4l-6.1-15.6c-0.1-0.2,0-0.6,0.3-0.7c0.2-0.1,0.6,0,0.7,0.3l6.1,15.6
	c0.1,0.2,0,0.6-0.3,0.7C394.3,130.2,394.2,130.3,394.1,130.3z"/>
<ellipse class="monitor5" cx="366.2" cy="128.7" rx="2.1" ry="2.1"/>
<ellipse class="monitor5" cx="380.2" cy="129.6" rx="2.1" ry="2.1"/>
<ellipse class="monitor5" cx="394.2" cy="130.4" rx="2.1" ry="2.1"/>
<path class="monitor6" d="M409.3,584.9c-1.1,48.2-68.5,18.7-93.2,10.3c-60.9-20.6-122.7-43.3-185.8-19.8c-0.7,0.3-1.5,0.6-2.2,0.8
	c-8.7,3.2-17.5,6.4-26.7,7.5c-20.8,2.5-72.6-13.9-74.5-39.7c-1.6-22.1,64.4-31.9,77.8-34.8c39.6-8.5,79.8-15.4,120.4-16.4
	c28.4-0.8,55.5,8.1,81.5,18.9c25.1,10.4,49.7,23.3,71.8,39C387.9,557.6,409.6,571,409.3,584.9z"/>
<path class="monitor5" d="M288.1,526.3l51.1-23.1c0,0-25-91.1-44.2-112c-3.6-3.9-67.3-65.8-76.2-74.5l2.8-20.8l-91.3-28.8l-6.2,36.6
	l-13.7-17.4c-2.1,10.9-8.7,26.1-7.7,38.6l3.3,43.5c1,9.9,1.6,19.9,2.6,29.9c0.5,5,1,10.1,1.5,15.1c0.4,3.4,1.1,9.4,0.4,11.1
	c-0.8,1.8-2.8,3.3-4,4.9c-3.6,4.5-7.2,9.1-10.8,13.6c-9.3,11.8-18.7,23.7-28.1,35.5c-5.7,7.1-11.3,14.3-17,21.4
	c-0.1,0.1-0.1,0.1-0.2,0.2L93.3,532c0,0,76.2-79.4,85.3-104.9c1.1-3.1,1.3-21.5,1.3-35.8l5.2,0.6l-0.4,0.9
	c14.4,6.4,27.8,14.6,40.5,23.8c6.2,4.5,12.3,9.4,18.2,14.4c2.8,2.4,5.4,4.3,7,7.6c1.9,3.8,3.3,7.9,4.8,11.9
	c8.3,21.5,18.3,42.3,27.6,63.4c1.5,3.5,3,7,4.6,10.5L288.1,526.3L288.1,526.3c0,0,0,0.1,0.1,0.1L288.1,526.3z"/>
<path class="monitor7" d="M93.6,533.3c0.2-0.1,0.5-0.2,0.7-0.4c3.1-3.2,76.5-79.9,85.6-105.4c1.9-5.2,1.2-48.6,1.2-53.6
	c0-0.8-0.6-1.4-1.4-1.3c-0.8,0-1.4,0.7-1.4,1.4c0.3,19.2,0.3,49-1,52.6c-8.4,23.5-75.7,94.6-84.1,103.5l-40.7-30.3l0.9-1.1
	c0.1-0.1,0.2-0.2,0.2-0.3l54-68.2c0.4-0.5,0.8-1,1.3-1.5c1.1-1.2,2.3-2.4,2.8-3.8c0.7-1.7,0.3-5.9-0.2-10.8l-0.4-4.2
	c-0.4-3.9-0.8-7.9-1.2-11.8c-0.5-5.3-0.9-10.6-1.4-15.8c-0.4-4.6-0.8-9.4-1.2-14.1l-3.2-43.6c-0.6-8.1,2.1-17.8,4.6-26.3
	c1.2-4.3,2.4-8.3,3.1-11.9c0.1-0.7-0.4-1.5-1.1-1.6c-0.8-0.1-1.5,0.4-1.6,1.1c-0.7,3.5-1.8,7.5-3,11.7c-2.5,8.7-5.4,18.6-4.7,27.2
	l3.3,43.5c0.4,4.7,0.8,9.5,1.2,14.1c0.4,5.2,0.9,10.6,1.4,15.8c0.4,3.9,0.8,7.9,1.2,11.8l0.4,4.2c0.3,2.7,0.8,8.3,0.4,9.6
	c-0.4,1-1.3,2-2.3,2.9c-0.5,0.5-1,1.1-1.5,1.7l-56,70.7c0,0,0,0.1-0.1,0.1c-0.4,0.6-0.3,1.4,0.3,1.9c0.1,0.1,0.2,0.1,0.3,0.2
	L92.6,533C92.8,533.3,93.2,533.4,93.6,533.3z"/>
<path class="monitor7" d="M288.5,527.8c0.1,0,0.1,0,0.2-0.1c0.1,0,0.2-0.1,0.3-0.2l50.8-23c0.6-0.3,1-1,0.8-1.7
	c-1-3.7-25.3-91.6-44.6-112.6c-3.9-4.2-74.2-72.7-77.2-75.6c-0.6-0.6-1.5-0.5-2,0c-0.6,0.6-0.5,1.5,0,2c0.7,0.7,73.3,71.3,77.1,75.5
	c17.6,19.1,40.5,99.4,43.6,110.2l-48.7,22l-0.6-1.4c-0.1-0.1-0.1-0.2-0.2-0.4l-4.1-9.2c-2.7-6.2-5.6-12.5-8.4-18.6
	c-6.6-14.5-13.4-29.6-19.2-44.7c-0.4-1-0.7-2-1.1-3c-1.1-3-2.3-6.1-3.7-9.1c-1.6-3.2-3.9-5.1-6.4-7.2l-0.9-0.8
	c-6.1-5.2-12.2-10-18.3-14.5c-13.6-9.9-27.3-17.9-40.7-23.9c-0.7-0.3-1.6,0-1.9,0.7c-0.3,0.7,0,1.6,0.7,1.9
	c13.3,5.9,26.8,13.9,40.2,23.6c6,4.4,12.1,9.2,18.1,14.3l0.9,0.8c2.4,2,4.4,3.7,5.7,6.3c1.4,2.8,2.5,5.7,3.6,8.8c0.4,1,0.7,2,1.1,3
	c5.8,15.2,12.7,30.3,19.3,44.9c2.8,6.1,5.6,12.4,8.4,18.6l5.4,12.3c0,0,0,0.1,0.1,0.1C287.1,527.6,287.8,527.9,288.5,527.8z"/>
<path class="monitor8" d="M294.2,547.4l-4.8-9.7c-2.8-5.7-0.5-12.7,5.2-15.5l45.8-22.8c5.7-2.8,12.7-0.5,15.5,5.2l4.8,9.7
	c2.8,5.7,0.5,12.7-5.2,15.5l-45.7,22.8C304.1,555.4,297,553.1,294.2,547.4z"/>
<path class="monitor7" d="M300.5,554.6c-3.3-1.1-6-3.4-7.5-6.5l-4.8-9.7c-1.5-3.1-1.8-6.6-0.7-10s3.4-6,6.5-7.5l45.8-22.8
	c6.4-3.2,14.3-0.6,17.5,5.9l4.8,9.7c1.5,3.1,1.8,6.6,0.7,10c-1.1,3.3-3.4,6-6.5,7.5L310.5,554c-0.8,0.4-1.7,0.7-2.6,1
	C305.4,555.5,302.9,555.4,300.5,554.6z M341,500.6l-45.8,22.8c-2.4,1.2-4.2,3.3-5.1,5.9c-0.9,2.6-0.7,5.3,0.5,7.7l4.8,9.7
	c1.2,2.4,3.3,4.2,5.9,5.1c2.6,0.9,5.3,0.7,7.7-0.5l45.8-22.8c2.4-1.2,4.2-3.3,5.1-5.9c0.9-2.6,0.7-5.3-0.5-7.7l-4.8-9.7
	c-2.2-4.3-7-6.5-11.6-5.3C342.4,500,341.7,500.3,341,500.6z"/>
<path class="monitor9" d="M214.5,316.8c0.7-0.2,1.1-0.8,1-1.5c-0.1-0.8-0.8-1.3-1.6-1.2c-11,1.5-32.9,1.2-58.7-0.9
	c-22.8-1.8-42.6-4.7-47.1-6.7c-0.7-0.3-1.5,0-1.8,0.7s0,1.5,0.7,1.8c10,4.6,81.9,11.4,107.4,7.8
	C214.4,316.8,214.5,316.8,214.5,316.8z"/>
<path class="monitor8" d="M32,512.4l6.7-8.5c3.9-5,11.2-5.9,16.3-2l40.3,31.5c5,3.9,5.9,11.2,2,16.3l-6.7,8.5c-3.9,5-11.2,5.9-16.3,2
	L34,528.7C29,524.7,28.1,517.4,32,512.4z"/>
<path class="monitor7" d="M73.4,561.3l-40.3-31.5c-2.7-2.1-4.5-5.2-4.9-8.7s0.5-6.9,2.7-9.6l6.7-8.5c2.1-2.7,5.2-4.5,8.7-4.9
	s6.9,0.5,9.6,2.7l40.2,31.5c2.7,2.1,4.5,5.2,4.9,8.7s-0.5,6.9-2.7,9.6l-6.7,8.5c-1.8,2.4-4.3,3.9-7,4.6
	C80.9,564.6,76.7,563.9,73.4,561.3z M39.8,504.8l-6.7,8.5c-1.7,2.1-2.4,4.8-2.1,7.5s1.7,5.1,3.8,6.7L75.1,559
	c4.4,3.4,10.8,2.7,14.2-1.7l6.7-8.5c1.7-2.1,2.4-4.8,2.1-7.5s-1.7-5.1-3.8-6.8L54.1,503c-2.1-1.7-4.8-2.4-7.5-2.1
	c-0.4,0.1-0.9,0.1-1.3,0.2C43.1,501.8,41.2,503,39.8,504.8z"/>
<g id="glass" class="monitor10">
	<path class="monitor11" d="M488,212.3c19.5-36.3,13.3-79.5-12.1-108.9c-41.8-11.5-87.4,6.7-108.7,46.5c-20.1,37.4-12.5,82.4,15.8,111.2
		C423.9,269.7,467.3,251,488,212.3z"/>
</g>
<g id="monitor-top">
	<path class="monitor5" d="M268,283.6c-4.6-15.7-3.5-32.3-3.1-48.5c0.4-15,0.8-29.7-8.7-42.4c-10.3-13.7-25.2-17.1-41.3-18.8
		c-4.9-0.5-9.7-1.3-14.5-1.9c-13.7-1.8-27.4-1.5-41.2-0.2c-3.2,0.3-6.3,0.7-9.5,1.1c-27.8,3.5-45.5,9.7-50,32.6
		c-7.1,35.3-17.1,90.6-2.4,99.5c28.2,16.9,102.1-5.1,102.1-5.1l2.2-0.6l26.3,9.7c0.6,0.3,4.1,0.4,4.7,0.5c6,1,8.8-2.8,9.9-8.9
		l3.2-16.9c0.2-0.6,0.3-1.3,0.2-2c0-6.1-5-11.1-11-11c-3.6,0.1-7.2,0-10.9,0.3c-3.5,0.2-7-0.4-10.5-0.3c-5.4,0.1-10.7,0.9-16.1,0.9
		c-8.4,0.1-16.8,0.5-25.2-0.5c-12.1-1.2-17.2-2.1-29.2-4.2"/>
	<path class="monitor7" d="M129.1,313c-12.6,0-24.3-1.8-32.5-6.6c-14.6-8.8-7.3-56,1.7-101.1c4.7-23.4,22.3-30.1,51.3-33.7
		c3.4-0.4,6.5-0.8,9.5-1.1c15.2-1.5,28.8-1.5,41.5,0.2c1.9,0.2,3.8,0.5,5.7,0.8c2.9,0.4,5.9,0.8,8.8,1.1
		c14.6,1.6,31.2,4.5,42.3,19.4c9.8,13,9.4,28.3,9,43.1v0.2c0,1.6-0.1,3.3-0.1,5c-0.4,14.3-0.9,29.1,3.1,43l-2.9,0.8
		c-4.2-14.4-3.7-29.4-3.3-44c0.1-1.7,0.1-3.3,0.1-4.9V235c0.4-14.9,0.8-29.1-8.4-41.2c-9.4-12.5-22.9-16.3-40.3-18.2
		c-3-0.3-6-0.7-8.9-1.2c-1.9-0.3-3.8-0.5-5.6-0.8c-12.5-1.6-25.9-1.6-40.9-0.2c-3,0.3-6.1,0.7-9.4,1.1c-28.3,3.6-44.4,9.7-48.7,31.4
		c-4.9,24.4-17.8,89.1-3.1,97.9c11.2,6.7,32.2,8,60.6,3.6c21.7-3.3,40.1-8.8,40.3-8.8l2.7-0.7l26.7,9.9c0.5,0.1,2.5,0.3,3.3,0.3
		c0.5,0,0.9,0.1,1,0.1c3.1,0.5,6.8,0.1,8.3-7.7l3.2-17c0.1-0.5,0.2-1,0.2-1.5c0-2.7-1-5.1-2.8-6.9s-4.1-2.7-6.6-2.7c0,0,0,0-0.1,0
		c-1,0-2,0-3,0c-2.5,0-5.2,0.1-7.7,0.3c-2,0.1-4,0-5.9-0.1c-1.5-0.1-3.1-0.2-4.7-0.2c-2.5,0-5,0.3-7.5,0.4c-2.8,0.2-5.8,0.5-8.7,0.5
		c-1.3,0-2.5,0-3.8,0.1c-7.1,0.1-14.4,0.3-21.5-0.5c-12.1-1.2-17.1-2.1-29.2-4.2h-0.1l0.5-3h0.1c12,2.1,16.9,2.9,29,4.1
		c7,0.8,14.2,0.7,21.2,0.5c1.3,0,2.6,0,3.8-0.1c2.8,0,5.7-0.2,8.5-0.5c2.5-0.2,5.1-0.4,7.6-0.5c1.7,0,3.4,0.1,5,0.2
		c1.9,0.1,3.7,0.2,5.5,0.1c2.6-0.2,5.3-0.2,7.9-0.3c1,0,2,0,3,0c3.4,0,6.5,1.3,8.8,3.6c2.4,2.4,3.7,5.5,3.7,8.9
		c0,0.7-0.1,1.6-0.3,2.3l-3.2,16.8c-1.8,9.7-7.4,10.8-11.7,10.1c-0.1,0-0.4,0-0.8-0.1c-2.7-0.2-3.6-0.3-4.2-0.5l-25.8-9.5l-1.8,0.5
		C197.7,302,160.5,313,129.1,313z M228.6,307.7L228.6,307.7L228.6,307.7z"/>
	<circle class="monitor4" cx="188.2" cy="227.7" r="35.2"/>
	<path class="monitor5" d="M209.3,240.2l-9.3-25.8c-0.2-0.5,0.1-0.9,0.6-1.2c0.5-0.2,0.9,0.1,1.2,0.6l9.3,25.8c0.2,0.5-0.1,0.9-0.6,1.2
		c-0.1,0-0.2,0.1-0.3,0C209.7,240.8,209.4,240.5,209.3,240.2z"/>
	<path class="monitor5" d="M187,238.7c-0.4-0.2-0.6-0.7-0.4-1.3l13.4-24c0.2-0.4,0.7-0.6,1.3-0.4c0.4,0.2,0.6,0.7,0.4,1.3l-13.4,24
		c-0.1,0.3-0.5,0.5-0.9,0.5C187.1,238.9,187,238.8,187,238.7z"/>
	<path class="monitor5" d="M186.5,238.3l-9.3-25.8c-0.2-0.5,0.1-0.9,0.6-1.2c0.5-0.2,0.9,0.1,1.2,0.6l9.3,25.8c0.2,0.5-0.1,0.9-0.6,1.2
		c-0.1,0-0.2,0.1-0.3,0C187,238.8,186.6,238.6,186.5,238.3z"/>
	<path class="monitor5" d="M164.2,236.9c-0.4-0.2-0.6-0.7-0.4-1.3l13.4-24c0.2-0.4,0.7-0.6,1.3-0.4c0.4,0.2,0.6,0.7,0.4,1.3l-13.4,24
		c-0.1,0.3-0.5,0.5-0.9,0.5C164.4,236.9,164.3,236.9,164.2,236.9z"/>
	
		<ellipse transform="matrix(8.332165e-02 -0.9965 0.9965 8.332165e-02 -47.4757 430.1112)" class="monitor5" cx="210" cy="240.9" rx="3.3" ry="3.4"/>
	
		<ellipse transform="matrix(8.332165e-02 -0.9965 0.9965 8.332165e-02 -66.6238 405.7185)" class="monitor5" cx="187.2" cy="239.1" rx="3.3" ry="3.4"/>
	
		<ellipse transform="matrix(8.332165e-02 -0.9965 0.9965 8.332165e-02 -85.3847 381.4039)" class="monitor5" cx="164.6" cy="237.1" rx="3.3" ry="3.4"/>
	<path class="monitor5" d="M151.9,148.4c0-0.8-2.1-0.4-2.5-0.5c-1.3-0.3-2.4-1.1-3.2-2c-1.2-1.2-2.2-2.8-3-4.6c-0.8-1.6-1.5-3.3-1.8-5.2
		c-0.6-4.7,1.7-14.3,6.4-13.7c1.4,0.1,1.8,0.6,2.9,1.4c0.2,0.1,3.5,2.8,3.4,3.1l1.6-12.3c2.3-18.2,16.7-31.8,31.9-30l15.8,1.8
		c15.2,1.8,25.6,18.1,23.3,36.3l-3.5,26.5c-2.3,18.2-16.7,31.8-31.9,30l-15.8-1.8C161.6,175.9,151.5,164.8,151.9,148.4z"/>
	<path class="monitor7" d="M191.1,180.8l-15.8-1.8l0,0c-14.9-1.7-24.9-13.6-24.9-29.6c-0.1,0-0.1,0-0.3,0.1c-0.5,0-0.9,0.1-1.2,0
		c-1.5-0.4-2.7-1.2-3.9-2.4c-1.6-1.6-2.6-3.6-3.3-5c-1.1-2.2-1.6-3.9-1.9-5.6c-0.6-4.1,0.9-10.8,3.7-13.7c1.2-1.3,2.7-1.8,4.3-1.6
		s2.1,0.7,3,1.3c0.2,0.1,0.4,0.2,0.5,0.3c0.2,0.3,0.9,0.6,1.5,1.2c0.4-3,0.9-7.2,1.2-9.3c2.4-19.1,17.5-33.1,33.5-31.2l15.8,1.8
		c6.8,0.9,13.1,4.4,17.6,10.2c5.8,7.4,8.4,17.6,6.9,27.7l-3.5,26.5c-2.2,16.7-14,29.6-27.7,31.3C195.1,180.9,193.2,181,191.1,180.8z
		 M157.2,114.9c-1.2,9.3-1.6,11.5-1.6,12.1l0,0l0,0c0,0.1,0,0.1,0,0.1c-0.1,0.8-0.9,1.3-1.7,1c-0.5,0-0.8-0.4-1.1-0.8
		c-0.6-0.5-2.6-2.3-3-2.5c-0.2-0.1-0.4-0.4-0.6-0.5c-0.7-0.4-0.9-0.7-1.7-0.7c-0.2-0.1-0.9-0.1-1.8,0.7c-2.2,2.2-3.3,8-2.9,11.2
		c0.2,1.5,0.7,2.9,1.5,4.8s1.8,3.2,2.8,4.2c0.8,0.7,1.7,1.3,2.5,1.5c0.1,0,0.3-0.1,0.5,0c0.9-0.1,2.1,0,2.7,0.7
		c0.4,0.4,0.5,0.8,0.4,1.3c-0.3,15,8.7,26.1,22.3,27.6l15.8,1.8c14.4,1.7,28.1-11.3,30.3-28.7l3.5-26.5c1.3-9.5-1.1-18.8-6.5-25.5
		c-4.1-5.3-9.6-8.5-15.7-9.1l-15.8-1.8c-1.7-0.2-3.5-0.2-5.1,0C169.8,87.7,159.1,99.5,157.2,114.9z M150.5,148.2L150.5,148.2
		L150.5,148.2z M152.6,126.8L152.6,126.8L152.6,126.8z M152.6,126.8L152.6,126.8L152.6,126.8z"/>
	<path class="monitor5" d="M202.4,157.5c-8.7,4.7-14.9,4.6-23.1-1.8"/>
	<path class="monitor7" d="M193.5,161.5c2.8-0.3,5.8-1.5,9.2-3.3c0.4-0.2,0.5-0.6,0.2-1c-0.2-0.4-0.6-0.5-1-0.2
		c-8.9,4.7-14.7,4.3-22.3-1.7c-0.4-0.2-0.8-0.1-1,0.1c-0.2,0.4-0.1,0.8,0.1,1C184,160.3,188.5,162,193.5,161.5z"/>
	<path class="monitor5" d="M200,136c0.1-4.4,3.4-8,7.5-8.1s7.4,3.4,7.4,7.8c0,0.5-0.1,0.9-0.1,1.4"/>
	<path class="monitor4" d="M215,137.9c0.3-0.1,0.5-0.3,0.6-0.6c0-0.5,0.2-1.1,0.1-1.5c0-2.4-0.9-4.6-2.5-6.2c-1.5-1.5-3.6-2.4-5.7-2.3
		c-4.5,0.1-8.3,4-8.2,8.8c0,0.5,0.3,0.7,0.8,0.7s0.7-0.3,0.7-0.8c0-3.9,3.2-7.2,6.9-7.3c1.6-0.1,3.3,0.6,4.5,1.8
		c1.4,1.3,2.1,3.1,2.1,5.3c0,0.5-0.1,0.9-0.2,1.2c0,0.5,0.2,0.7,0.6,0.8C214.8,137.9,214.8,137.9,215,137.9z"/>
	<path class="monitor5" d="M168,134.6c0.1-4.4,3.4-8,7.5-8.1c4.1,0,7.4,3.4,7.4,7.8c0,0.5-0.1,0.9-0.1,1.4"/>
	<path class="monitor4" d="M182.9,136.4c0.3-0.1,0.5-0.3,0.6-0.6c0-0.5,0.2-1.1,0.1-1.5c0-2.4-0.9-4.6-2.5-6.2c-1.5-1.5-3.6-2.4-5.7-2.3
		c-4.5,0.1-8.3,4-8.2,8.8c0,0.5,0.3,0.7,0.8,0.7s0.7-0.3,0.7-0.8c0-3.9,3.2-7.2,6.9-7.3c1.6-0.1,3.3,0.6,4.5,1.8
		c1.4,1.3,2.1,3.1,2.1,5.3c0,0.5-0.1,0.9-0.2,1.2c0,0.5,0.2,0.7,0.6,0.8C182.8,136.5,182.9,136.4,182.9,136.4z"/>
	<path class="monitor8" d="M233.8,67.1c16.2,22,0.7,45.4-6.9,60.9c0.9-36.1-13.4-30.3-24.4-31.5c-7.6-0.8-22.3-8.5-34.3-1.4
		c-11.8,7.2-13,25.2-14.9,28.6c-1.2-0.2-4.7-0.9-5.6-4c-4.9-17.9,2.5-76.7,55.3-55.1C213.7,69.2,221.5,77.3,233.8,67.1z"/>
	<path class="monitor7" d="M226.6,129.5c-0.6-0.2-1.1-0.8-1.1-1.4c0.4-13.5-1.4-22-5.4-26.1c-3.4-3.5-7.9-3.6-12.7-3.6
		c-1.7-0.1-3.3,0-4.9-0.2c-2-0.3-4.6-0.9-7.3-1.6c-7.9-2.1-17.7-4.9-25.9,0.2c-8.3,5.1-11.1,16.1-12.7,22.8
		c-0.6,2.6-1.1,4.3-1.6,5.4c-0.3,0.5-0.9,0.8-1.5,0.8c-0.9-0.1-5.8-0.9-6.9-5.1c-3.2-12-1.2-40.2,14.4-53.9c10.5-9.4,25-10.2,42.8-3
		l0,0c2.2,0.9,4.4,2,6.4,3.1c7.7,4,13.9,7.1,22.9-0.4c0.3-0.2,0.7-0.3,1.1-0.3c0.5,0,0.8,0.3,1,0.5c14.9,20.3,3.9,41.5-4,57.1
		c-0.9,1.9-1.9,3.6-2.7,5.3c-0.2,0.5-0.6,0.7-1.2,0.9C226.9,129.5,226.8,129.6,226.6,129.5z M208.7,69.1c-2-1-4-2.1-6.1-3l0,0
		c-16.8-6.9-30.2-6.1-39.9,2.5c-14.5,12.7-16.4,39.8-13.4,50.9c0.4,1.6,2.2,2.4,3.3,2.7c0.2-1,0.7-2.3,1-3.7c1.7-7,4.6-18.9,14-24.6
		c9.3-5.6,20.2-2.7,28.3-0.4c2.7,0.7,5.1,1.4,6.9,1.6c1.5,0.1,3.1,0.2,4.7,0.1c5,0.1,10.6,0.1,14.8,4.5c4,4.1,5.9,11.2,6.1,22.1
		c7.5-14.6,17.5-34.2,5-52.6C223.6,76.7,216.4,72.9,208.7,69.1z M203.2,64.8L203.2,64.8L203.2,64.8z"/>
	<polygon class="monitor7" points="319.2,220.2 288.8,246.4 302.4,262.3 332.9,236 	"/>
	<path class="monitor7" d="M330.8,82.5c-46.2,39.9-51.4,109.6-11.5,155.9s109.6,51.4,155.9,11.5c46.2-39.8,51.4-109.6,11.5-155.9
		S377,42.6,330.8,82.5z M339.9,93.1c40.4-34.8,101.4-30.3,136.2,10.1s30.3,101.4-10.1,136.2c-40.4,34.9-101.4,30.4-136.2-10.1
		C295,188.9,299.5,128,339.9,93.1z"/>
	<path class="monitor7" d="M149.1,367.9l6.3,7.3l0,0l6.3,7.3c6.4,7.4,17.4,8.2,24.8,1.8l118.8-102.5c7.4-6.3,8.2-17.4,1.8-24.7l-6.3-7.3
		l0,0l-6.3-7.3c-6.4-7.4-17.4-8.2-24.8-1.8L150.9,343.2C143.6,349.5,142.8,360.6,149.1,367.9z"/>
	<path class="monitor5" d="M236.6,270.8c-1.3-0.4-2.6-0.6-3.7-0.7c-0.1,0.1-0.2,0-0.3,0c-13.5-0.9-19,1.8-31.1,2.3l-2.8,26.2l26.8,10.7
		c0.3,0.1,0.6,0.2,1,0.3c0.4,0.1,0.8,0.1,1.2,0.3c7.5,1.7,14.6-1.8,15.9-8l3.4-17.2c0.1-0.7,0.2-1.3,0.2-2
		C246.8,277.3,242.4,272.5,236.6,270.8L236.6,270.8z"/>
	<path class="monitor7" d="M231.3,311.7c-1.3,0-2.7-0.2-4.1-0.5h-0.1c-0.1,0-0.3-0.1-0.4-0.1c-0.2,0-0.5-0.1-0.8-0.2l-1-0.3h-0.1
		L198,299.9c-0.6-0.2-1-0.9-0.9-1.6l2.8-26.2c0.1-0.7,0.7-1.3,1.4-1.3c4.8-0.2,8.5-0.7,12.1-1.3c5.6-0.8,10.9-1.6,19.2-1h0.1
		c0.1,0,0.2,0,0.3,0c1.1,0.1,2.5,0.4,4,0.8c6.6,2,11.2,7.3,11.5,13.1c0,0.9-0.1,1.6-0.2,2.3l-3.5,17.3c-0.6,3-2.5,5.5-5.2,7.3
		C237.3,310.9,234.4,311.7,231.3,311.7z M227.9,308.3c3.7,0.8,7.4,0.3,10.2-1.5c2-1.3,3.4-3.2,3.8-5.3l3.4-17.2
		c0.1-0.5,0.1-1.1,0.1-1.7c-0.2-4.5-4-8.7-9.3-10.3l0,0c-1.1-0.3-2.3-0.5-3.2-0.7c-0.3,0-0.5,0-0.7,0c-7.9-0.5-13,0.2-18.4,1
		c-3.4,0.5-6.8,1-11.1,1.2l-2.6,23.8l25.7,10.3l0.9,0.3c0.2,0,0.3,0.1,0.4,0.1C227.4,308.2,227.7,308.2,227.9,308.3z"/>
	<path class="monitor5" d="M252.7,295c0.8,0.9,1.8,1.6,2.6,2.2c0.1,0,0.2,0.1,0.3,0.1c6.8,4.1,15.5,10.4,23.8,9.5
		c2.6-0.3,5.1-1.4,7.4-2.7c2.6-1.5,5.1-3.3,7-5.7c8.2-10.8-4.1-25.1-12.6-31.5c-0.2-0.2-0.4-0.4-0.6-0.6c-0.3-0.3-0.5-0.4-0.8-0.7
		c-5.1-4.5-12.6-4.5-16.8,0.3l-11.5,13.3c-0.4,0.5-0.8,1.1-1.2,1.7C247.9,285.2,249,291,252.7,295z"/>
	<path class="monitor7" d="M277.8,308.4c-7.2,0-14.4-4.5-20.3-8.2c-0.9-0.6-1.8-1.1-2.7-1.7c0,0,0,0-0.1,0s-0.2-0.1-0.3-0.2
		c-0.8-0.6-1.9-1.4-2.8-2.3l0,0c-4.3-4.5-5.4-10.9-2.7-16c0.4-0.7,0.9-1.3,1.3-1.9l11.6-13.3c4.7-5.3,13.2-5.5,18.9-0.4l0.1,0.1
		c0.1,0.1,0.2,0.2,0.3,0.2c0.2,0.1,0.4,0.3,0.6,0.5l0.5,0.6c6.5,4.9,14.4,13.7,15.7,22.4c0.6,4.1-0.4,7.9-2.8,11.1
		c-1.7,2.3-4.1,4.2-7.4,6.1c-1.9,1.1-4.8,2.6-8,2.9C279,308.3,278.4,308.4,277.8,308.4z M256.5,296.1c0.8,0.5,1.7,1.1,2.6,1.6
		c6,3.7,13.4,8.4,20.1,7.6c2.7-0.3,5.2-1.6,6.8-2.5c3-1.7,5.1-3.4,6.5-5.3c2-2.6,2.7-5.6,2.3-8.9c-1-7.4-8.1-15.6-14.6-20.5
		c-0.1,0-0.1-0.1-0.2-0.2l-0.6-0.6c-0.1-0.1-0.2-0.2-0.3-0.2c-0.2-0.1-0.3-0.3-0.5-0.4c-4.5-3.9-11.1-3.9-14.6,0.2l-11.5,13.3
		c-0.3,0.4-0.7,0.9-1,1.4c-2.1,3.9-1.2,9,2.2,12.5c0.7,0.7,1.5,1.3,2.2,1.8C256.2,295.8,256.4,295.9,256.5,296.1z M255.3,298.6
		L255.3,298.6L255.3,298.6z"/>
</g>
<path class="monitor6" d="M652.3,328.3c-4.3,24.3,23.5,18.8,38.6,16.1c22.7-4,45.5-10.4,68.8-9.2c11.5,0.6,23.2,3.1,33,9.3
	c10.5,6.7,18.1,12.9,31.8,11.7c16.6-1.4,39.7-15.3,21.8-30.5c-10.9-9.3-26.1-13.5-39.2-18.8c-30.8-12.5-59.4-21.6-92.4-12.7
	C700.3,298.2,655.6,309.6,652.3,328.3z"/>
<polygon class="monitor5" points="814.2,234.5 755.2,230.7 758.4,170.9 815.5,164 "/>
<path class="monitor5" d="M774.5,221.6c0,0-5.8,28.2-5.2,31.5c2.6,16.1,38.8,71.4,38.8,71.4l28.9-14.1l-0.8-1.5l0.8,1.5
	c0,0,0-0.1-0.1-0.1c-2.6-4.8-5.1-9.7-7.7-14.5c-4.2-8-8.5-16.1-12.7-24.1c-1.6-3.1-3.2-6.1-4.9-9.2c-0.6-1.1-1.6-2.2-1.8-3.4
	c-0.2-1.1,0.9-4.5,1.4-6.5c0.9-2.9,1.7-5.8,2.6-8.8c1.7-5.8,3.2-11.6,4.8-17.4l6.8-25.3c1.9-7.2-0.3-17-0.3-23.6"/>
<path class="monitor7" d="M807.6,325.2c-0.1-0.1-0.3-0.2-0.4-0.3c-1.5-2.3-36.3-55.6-38.9-71.7c-0.5-3.3,4.7-28.9,5.3-31.8
	c0.1-0.4,0.5-0.7,1-0.6c0.5,0.1,0.7,0.5,0.7,1c-2.3,11.3-5.6,28.9-5.2,31.2c2.3,14.8,34.2,64.3,38.2,70.4l27.4-13.4l-0.4-0.8
	c0-0.1-0.1-0.1-0.1-0.2l-24.4-46.3c-0.2-0.3-0.4-0.7-0.6-1c-0.5-0.8-1.1-1.6-1.3-2.6c-0.2-1.1,0.5-3.5,1.3-6.4l0.7-2.4
	c0.7-2.3,1.3-4.6,2-6.9c0.9-3,1.7-6.2,2.6-9.2c0.7-2.7,1.5-5.5,2.3-8.2l6.8-25.3c1.3-4.7,0.7-10.7,0.2-16c-0.3-2.7-0.5-5.2-0.5-7.4
	c0-0.5,0.4-0.8,0.8-0.8c0.5,0,0.8,0.4,0.8,0.8c0,2.1,0.2,4.6,0.5,7.2c0.5,5.4,1.1,11.6-0.3,16.6l-6.8,25.3c-0.8,2.7-1.5,5.5-2.3,8.2
	c-0.8,3-1.7,6.1-2.6,9.2c-0.7,2.3-1.3,4.6-2,6.9l-0.7,2.4c-0.5,1.6-1.4,4.8-1.3,5.6c0.1,0.6,0.6,1.3,1,2c0.2,0.4,0.5,0.8,0.7,1.2
	l25.2,48c0,0,0,0,0,0.1c0.2,0.4,0,0.9-0.4,1.1c-0.1,0-0.1,0.1-0.2,0.1l-28.7,14C808.1,325.3,807.9,325.3,807.6,325.2z"/>
<path class="monitor5" d="M758.4,183c0,0-51.2,34-53.9,36c-13.7,10.2-38.5,61.2-38.5,61.2l27.6,19.3l1-1.5l-1,1.5
	c1.5-2.2,3.1-4.5,4.6-6.7c7.8-11.4,16.1-22.6,23.3-34.4c1.4-2.2,2.6-4.4,4.2-6.5c1.3-1.7,3.1-2.6,5-3.7c4-2.3,8.1-4.5,12.4-6.5
	c8.5-4,17.4-7.4,26.5-9.6"/>
<path class="monitor7" d="M693.2,300.4c0,0-0.1,0-0.1-0.1c-0.1,0-0.1-0.1-0.2-0.1L665.4,281c-0.4-0.2-0.5-0.7-0.3-1.1
	c1-2.1,25.1-51.3,38.8-61.5c2.8-2.1,51.9-34.7,54-36.1c0.4-0.3,0.9-0.2,1.2,0.2s0.2,0.9-0.2,1.2c-0.5,0.3-51.2,34-53.9,36
	c-12.5,9.4-35,54.2-37.9,60.2l26.3,18.4l0.5-0.7c0-0.1,0.1-0.1,0.2-0.2l3.4-5c2.3-3.4,4.7-6.8,7-10.1c5.5-7.9,11.2-16,16.3-24.3
	c0.3-0.5,0.7-1.1,1-1.6c1-1.7,2-3.4,3.2-5c1.3-1.7,2.9-2.6,4.6-3.6l0.6-0.4c4.2-2.4,8.3-4.6,12.4-6.5c9.1-4.3,18.1-7.6,26.7-9.6
	c0.5-0.1,0.9,0.2,1,0.6c0.1,0.5-0.2,0.9-0.6,1c-8.5,2-17.4,5.2-26.4,9.5c-4,1.9-8.2,4.1-12.3,6.5l-0.6,0.4c-1.6,0.9-3,1.7-4.1,3.1
	c-1.2,1.5-2.1,3.1-3.1,4.8c-0.3,0.5-0.7,1.1-1,1.6c-5.1,8.3-10.8,16.5-16.3,24.4c-2.3,3.3-4.7,6.7-7,10.1l-4.6,6.7c0,0,0,0,0,0.1
	C694,300.4,693.6,300.5,693.2,300.4z"/>
<path class="monitor8" d="M687.6,311.3l3.9-5.2c2.3-3.1,1.7-7.4-1.4-9.8l-24.5-18.5c-3.1-2.3-7.4-1.7-9.8,1.4l-3.9,5.2
	c-2.3,3.1-1.7,7.4,1.4,9.8l24.5,18.5C680.9,315,685.3,314.4,687.6,311.3z"/>
<path class="monitor7" d="M678.8,314.2c-0.5-0.2-1-0.5-1.4-0.9l-24.5-18.5c-1.7-1.3-2.7-3.1-3-5.2s0.2-4.1,1.5-5.8l3.9-5.2
	c2.6-3.4,7.5-4.1,11-1.5l24.5,18.5c1.7,1.3,2.7,3.1,3,5.2s-0.2,4.1-1.5,5.8l-3.9,5.2c-1.3,1.7-3.1,2.7-5.2,3
	C681.6,315.1,680.1,314.8,678.8,314.2z M664.1,277.8c-2.5-1.2-5.7-0.5-7.4,1.9l-3.9,5.2c-1,1.3-1.4,2.9-1.2,4.5s1.1,3,2.4,4
	l24.5,18.5c1.3,1,2.9,1.4,4.5,1.2c1.6-0.2,3-1.1,4-2.4l3.9-5.2c1-1.3,1.4-2.9,1.2-4.5s-1.1-3-2.4-4l-24.5-18.5
	C664.8,278.2,664.4,278,664.1,277.8z"/>
<path class="monitor9" d="M760.2,184c-0.4-0.2-0.6-0.6-0.4-1c0.1-0.4,0.6-0.7,1.1-0.5c6.3,2.1,19.3,4.4,34.8,6c13.7,1.4,25.7,2,28.6,1.3
	c0.4-0.1,0.9,0.2,1,0.6c0.1,0.4-0.2,0.9-0.6,1C818.2,192.9,775,188.9,760.2,184C760.3,184,760.3,184,760.2,184z"/>
<path class="monitor8" d="M846.3,319.7l-3-5.8c-1.8-3.4-6-4.7-9.4-3L806.6,325c-3.4,1.8-4.7,6-3,9.4l3,5.8c1.8,3.4,6,4.7,9.4,3l27.3-14.1
	C846.8,327.3,848.1,323.1,846.3,319.7z"/>
<path class="monitor7" d="M809.6,344.1c-1.5-0.7-2.8-1.9-3.7-3.5l-3-5.8c-1-1.9-1.1-4-0.5-6s2-3.6,3.9-4.6l27.3-14.1c1.9-1,4-1.1,6-0.5
	s3.6,2,4.6,3.9l3,5.8c1,1.9,1.1,4,0.5,6s-2,3.6-3.9,4.6L816.5,344C814.2,345.2,811.7,345.1,809.6,344.1z M839.7,311.6
	c-0.2-0.1-0.5-0.2-0.7-0.3c-1.6-0.5-3.2-0.4-4.6,0.4l-27.3,14.2c-1.4,0.7-2.5,2-3,3.6s-0.4,3.2,0.4,4.6l3,5.8c1.5,3,5.2,4.2,8.2,2.6
	l27.3-14.1c1.4-0.7,2.5-2,3-3.6s0.4-3.2-0.4-4.7l-3-5.8C841.9,313.1,841,312.2,839.7,311.6z"/>
<path class="monitor5" d="M813.6,164.1c-7.4-0.3-10.6-0.4-18-1.2c-5.1-0.5-10.1-1.8-15.1-2.9c-3.2-0.7-6.3-1.8-9.5-2.6
	c-2.1-0.5-4.2-0.6-6.3-1.1c-2.2-0.6-4.3-1-6.5-1.6c-3.6-0.8-7.2,1.5-8,5.2c-0.1,0.4-0.2,0.8-0.1,1.2l-0.2,10.5
	c-0.1,3.8,1.1,6.4,4.8,6.6c0.4,0,2.5,0.4,2.9,0.3l16.9-2.5l1.2,0.6c0,0,41.4,22.5,60.4,15.9c9.9-3.5,10.9-37.8,11.1-59.8
	c0.2-14.3-9.6-20.2-25.8-25.8c-1.9-0.6-3.7-1.3-5.5-1.9c-8.1-2.5-16.2-4.4-24.7-5.1c-2.9-0.2-5.9-0.4-8.9-0.7
	c-9.8-1-19.2-0.9-27.1,6c-7.3,6.4-8.9,15.2-10.5,24.3c-1.8,9.7-3.2,19.8-8,28.6"/>
<path class="monitor7" d="M775.5,177.5l-1-0.5l-16.6,2.4c-0.4,0-0.9,0-2.6-0.2c-0.3,0-0.4,0-0.5,0c-2.7-0.1-5.9-1.5-5.7-7.5l0.2-10.4
	c0-0.4,0-1,0.1-1.4c0.4-2,1.6-3.7,3.3-4.9c1.7-1.1,3.7-1.5,5.7-1c0.6,0.1,1.2,0.3,1.8,0.4c1.5,0.4,3.2,0.7,4.7,1.2
	c1.1,0.3,2.2,0.5,3.3,0.6c1,0.1,2,0.3,3,0.5c1.5,0.4,3,0.8,4.5,1.3c1.6,0.5,3.3,1,5,1.4c0.7,0.2,1.5,0.4,2.3,0.5
	c4.2,1,8.5,2,12.7,2.4c7.4,0.8,10.4,0.9,17.9,1.2h0.1l-0.1,1.9h-0.1c-7.5-0.3-10.6-0.4-18-1.2c-4.3-0.4-8.7-1.5-12.9-2.4
	c-0.8-0.2-1.5-0.4-2.3-0.5c-1.7-0.4-3.5-0.9-5.1-1.4c-1.5-0.4-2.9-0.9-4.4-1.2c-1-0.2-1.9-0.3-2.8-0.5c-1.1-0.2-2.4-0.4-3.5-0.7
	c-1.5-0.4-3.1-0.8-4.6-1.1c-0.6-0.1-1.2-0.3-1.8-0.4c-0.1,0-0.1,0-0.1,0c-1.5-0.3-3-0.1-4.3,0.8c-1.3,0.8-2.2,2.2-2.5,3.8
	c-0.1,0.3-0.1,0.6-0.1,0.9l-0.2,10.6c-0.1,4.9,2.1,5.6,4,5.6c0.1,0,0.3,0,0.6,0.1c0.5,0.1,1.7,0.2,2,0.2l17.2-2.6l1.5,0.8
	c0.1,0,10.4,5.6,23,10.3c16.4,6.2,29.1,8.1,36.7,5.5c9.9-3.4,10.3-43.7,10.5-58.9c0.2-13.5-8.7-19.2-25.2-24.9
	c-1.9-0.7-3.7-1.3-5.5-1.8c-8.8-2.7-16.8-4.4-24.5-5c-1.1,0-2.3-0.2-3.4-0.2c-1.8-0.1-3.6-0.2-5.5-0.4c-10.6-1.1-19.2-0.5-26.4,5.8
	c-7,6.1-8.6,14.6-10.2,23.6v0.1c-0.2,1-0.4,1.9-0.6,2.9c-1.6,8.8-3.2,17.8-7.5,25.9l-1.6-0.8c4.1-7.8,5.7-16.7,7.3-25.3
	c0.2-1,0.4-2,0.6-3v-0.1c1.6-8.9,3.3-18.1,10.8-24.6c8.5-7.5,18.8-7.2,27.7-6.3c1.8,0.2,3.6,0.3,5.4,0.5c1.2,0.1,2.3,0.1,3.5,0.2
	c7.8,0.6,15.9,2.3,24.8,5.1c1.8,0.6,3.6,1.2,5.5,1.9c16.9,5.8,26.6,12,26.4,26.6c-0.3,28.1-1.9,57.2-11.7,60.6
	c-5.5,1.8-12.7,1.4-20.3-0.1C797.3,189.4,776.5,178.2,775.5,177.5z M757.3,177.7L757.3,177.7L757.3,177.7z"/>
<circle class="monitor4" cx="785.7" cy="134.3" r="21.1"/>
<path class="monitor5" d="M771.3,139.5c-0.1,0-0.1,0-0.2,0c-0.3-0.2-0.3-0.5-0.2-0.8l8.4-14.2c0.2-0.3,0.5-0.3,0.8-0.2
	c0.3,0.2,0.3,0.5,0.2,0.8l-8.4,14.2C771.7,139.5,771.5,139.6,771.3,139.5z"/>
<path class="monitor5" d="M784.9,140.9c-0.2,0-0.4-0.2-0.5-0.4l-5.3-15.7c-0.1-0.3,0.1-0.6,0.4-0.7c0.3-0.1,0.6,0.1,0.7,0.4l5.3,15.7
	c0.1,0.3-0.1,0.6-0.4,0.7C785.1,141,785.1,141,784.9,140.9z"/>
<path class="monitor5" d="M784.9,140.9c-0.1,0-0.1,0-0.2,0c-0.3-0.2-0.3-0.5-0.2-0.8l8.4-14.2c0.2-0.3,0.5-0.3,0.8-0.2
	c0.3,0.2,0.3,0.5,0.2,0.8l-8.4,14.2C785.4,140.9,785.1,141,784.9,140.9z"/>
<path class="monitor5" d="M798.6,142.4c-0.2,0-0.4-0.2-0.5-0.4l-5.3-15.7c-0.1-0.3,0.1-0.6,0.4-0.7c0.3-0.1,0.6,0.1,0.7,0.4l5.3,15.7
	c0.1,0.3-0.1,0.6-0.4,0.7C798.7,142.4,798.7,142.3,798.6,142.4z"/>
<ellipse class="monitor5" cx="771.3" cy="139.7" rx="2" ry="2"/>
<ellipse class="monitor5" cx="785" cy="141" rx="2" ry="2"/>
<ellipse class="monitor5" cx="798.6" cy="142.5" rx="2" ry="2"/>
<path class="monitor5" d="M798.8,106.1l-9.5-0.7c-9.2-0.6-16.2-10.2-15.5-21.2l0.9-16c0.6-11,8.6-19.5,17.8-18.9L802,50
	c9.2,0.6,16.2,10.2,15.5,21.2l-0.4,7.4c0-0.2,2.3-1.4,2.4-1.5c0.7-0.4,1-0.6,1.9-0.5c2.8,0.2,3.1,6.1,2.2,8.8c-0.4,1.1-1,2-1.6,2.9
	c-0.7,0.9-1.4,1.8-2.3,2.4c-0.6,0.4-1.3,0.8-2.1,0.8c-0.3,0-1.4-0.4-1.5,0C814.3,101.2,807.1,106.6,798.8,106.1z"/>
<path class="monitor7" d="M785.9,105.6c-7.9-2.5-13.4-11.4-12.9-21.5l0.9-16c0.3-6.2,2.9-11.8,7.2-15.6c3.3-2.9,7.4-4.3,11.5-4.1l9.5,0.7
	c9.7,0.6,17,10.6,16.3,22.1c-0.1,1.3-0.2,3.9-0.3,5.6c0.4-0.3,0.8-0.4,1-0.5c0.1,0,0.2-0.1,0.3-0.1c0.6-0.2,1-0.4,1.9-0.4
	c1,0,1.8,0.5,2.4,1.4c1.3,2,1.5,6.1,0.6,8.5c-0.3,1-0.8,1.9-1.7,3.1c-0.5,0.7-1.4,1.8-2.5,2.6c-0.8,0.6-1.7,0.9-2.6,1
	c-0.2,0-0.4-0.1-0.7-0.1c-0.1,0-0.1,0-0.2-0.1c-1.8,9.4-9,15.4-18,14.7l0,0l-9.5-0.7C787.9,106.2,786.8,105.9,785.9,105.6z
	 M805,51.3c-0.9-0.3-2-0.5-3-0.6l-9.5-0.7c-3.6-0.3-7.3,1-10.3,3.6c-3.9,3.4-6.4,8.6-6.6,14.4l-0.9,16c-0.6,10.5,6,19.7,14.7,20.3
	l9.5,0.7c8.2,0.6,14.8-4.9,16.3-13.8c0-0.3,0.1-0.5,0.4-0.7c0.5-0.4,1.2-0.3,1.7-0.1c0.1,0,0.2,0,0.3,0c0.5-0.1,1.1-0.3,1.6-0.6
	c0.7-0.5,1.4-1.1,2.1-2.2c0.7-1,1.2-1.8,1.4-2.7c0.6-1.9,0.6-5.4-0.4-6.9c-0.4-0.6-0.9-0.7-1-0.6c-0.4-0.1-0.6,0-1.1,0.2
	c-0.1,0-0.3,0.2-0.4,0.2c-0.2,0.1-1.7,0.9-2,1.1c-0.2,0.2-0.5,0.4-0.7,0.4c-0.5,0.1-0.9-0.3-0.9-0.8c0,0,0,0,0-0.1l0,0l0,0
	c0.1-0.4,0.1-1.7,0.4-7.3C817.1,61.8,812,53.6,805,51.3z M816.7,91.5L816.7,91.5L816.7,91.5z M817.8,78.6L817.8,78.6L817.8,78.6z
	 M817.8,78.6L817.8,78.6L817.8,78.6z"/>
<path class="monitor5" d="M798.9,92.7c-5.5,2.9-9.2,2.3-13.8-1.5"/>
<path class="monitor7" d="M799.1,93.2c0.2-0.1,0.3-0.4,0.2-0.6s-0.4-0.3-0.6-0.2c-5.1,2.7-8.6,2.3-13.3-1.5c-0.2-0.2-0.4-0.2-0.6,0
	s-0.2,0.4,0,0.6c1.8,1.4,3.5,2.5,5.1,3C792.8,95.5,795.6,95,799.1,93.2z"/>
<path class="monitor5" d="M780,77.9c0-0.3,0-0.6,0.1-0.8c0.5-2.6,2.8-4.3,5.2-3.8s4,3,3.5,5.6"/>
<path class="monitor4" d="M779.9,78.2c0.3,0,0.4-0.1,0.5-0.4c0-0.2,0-0.5,0-0.8c0.3-1.2,0.9-2.2,1.8-2.9c0.9-0.5,1.9-0.7,2.9-0.5
	c2.2,0.5,3.7,2.8,3.3,5.1c0,0.3,0.1,0.5,0.3,0.5s0.5-0.1,0.5-0.3c0.6-2.8-1.2-5.6-3.9-6.1c-1.2-0.3-2.5,0.1-3.6,0.7
	c-1.1,0.8-1.9,2-2.2,3.4c-0.1,0.2-0.1,0.6-0.1,0.9c0,0.2,0.1,0.3,0.3,0.4S779.9,78.3,779.9,78.2z"/>
<path class="monitor5" d="M799.1,80.6c0-0.3,0-0.6,0.1-0.8c0.5-2.6,2.8-4.3,5.2-3.8s4,3,3.5,5.6"/>
<path class="monitor4" d="M799,80.9c0.3,0,0.4-0.1,0.5-0.4c0-0.2,0-0.5,0-0.8c0.3-1.2,0.9-2.2,1.8-2.9c0.8-0.6,1.9-0.8,2.9-0.6
	c2.2,0.5,3.7,2.8,3.3,5.1c0,0.3,0.1,0.5,0.3,0.5c0.3,0,0.5-0.1,0.5-0.3c0.6-2.8-1.2-5.6-3.9-6.1c-1.2-0.3-2.5,0.1-3.6,0.7
	c-1.1,0.8-1.9,2-2.2,3.4c-0.1,0.2-0.1,0.6-0.1,0.9c0,0.2,0.1,0.3,0.3,0.4C798.9,81,799,81,799,80.9z"/>
<path class="monitor8" d="M795,36.4c33.6-6.9,31.4,28.6,26.6,38.7c-0.9,1.7-3,1.8-3.7,1.7c-0.8-2.3,0.5-13-5.6-18.5
	c-6.3-5.5-15.8-2.6-20.4-3c-6.6-0.5-14.5-5.5-17.9,15.9c-2.8-10-9.3-25.6,2.7-36.7C782.7,41.8,788.2,37.8,795,36.4z"/>
<path class="monitor7" d="M773.4,72.2c-0.3-0.1-0.5-0.3-0.6-0.6c-0.3-1.1-0.7-2.2-1-3.4c-2.9-10.1-7.1-23.8,4-34.1
	c0.2-0.1,0.4-0.2,0.7-0.2s0.5,0.1,0.6,0.3c4.5,5.4,8.5,4.3,13.5,2.8c1.3-0.4,2.8-0.8,4.1-1.1l0,0c11.3-2.3,19.7-0.2,24.9,6.5
	c7.7,9.8,5.7,26.7,2.5,33.4c-1.1,2.3-4.1,2.3-4.6,2.2c-0.4-0.1-0.6-0.3-0.8-0.6c-0.2-0.7-0.3-1.8-0.4-3.3c-0.2-4.1-0.6-11-5-14.9
	c-4.3-3.9-10.4-3.4-15.3-3c-1.7,0.1-3.3,0.2-4.5,0.2c-1,0-1.9-0.3-2.9-0.4c-2.8-0.6-5.6-1-7.9,0.7c-2.8,2-4.8,6.8-6.1,14.8
	c-0.1,0.4-0.4,0.7-0.8,0.7C773.7,72,773.7,72,773.4,72.2z M776.6,35.7c-9.4,9.5-5.7,22.2-2.9,31.6c1.4-6.4,3.3-10.4,6.1-12.4
	c2.9-2.1,6.3-1.5,9.2-1c1,0.2,1.9,0.3,2.8,0.4c1,0.1,2.5-0.1,4.2-0.2c5-0.4,11.8-0.9,16.7,3.4c4.9,4.5,5.3,11.8,5.5,16.1
	c0,0.9,0.1,1.7,0.2,2.3c0.7-0.1,1.9-0.3,2.3-1.2c3-6.2,4.9-22.5-2.3-31.6c-4.8-6.1-12.6-8.1-23.3-5.9l0,0c-1.4,0.3-2.6,0.7-3.9,1.1
	C786.2,39.8,781.5,41.2,776.6,35.7z M794.9,36.4L794.9,36.4L794.9,36.4z"/>
<polygon class="monitor7" points="699.3,123.2 714.4,142 724.2,134.2 709.1,115.3 "/>
<path class="monitor7" d="M624.2,22.3c-28.7,22.9-33.4,64.7-10.5,93.3c22.9,28.7,64.6,33.4,93.3,10.5s33.4-64.6,10.5-93.3
	S652.9-0.6,624.2,22.3z M701.9,119.5c-25,20-61.6,15.9-81.6-9.2c-20-25-15.9-61.6,9.2-81.6c25-20,61.6-15.9,81.6,9.2
	C731,63.1,726.9,99.6,701.9,119.5z"/>
<path class="monitor7" d="M794.9,206.6l-58.8-73.7c-3.6-4.6-10.3-5.3-14.9-1.7l-4.5,3.6l0,0l-4.5,3.6c-4.6,3.6-5.3,10.3-1.7,14.8
	l58.8,73.7c3.6,4.6,10.3,5.3,14.9,1.7l4.5-3.6l0,0l4.5-3.6C797.8,217.8,798.5,211.2,794.9,206.6z"/>
<g id="glass_1_" class="monitor10">
	<path class="monitor11" d="M715,103.8c12.6-21.3,10-47.4-4.5-65.7c-34.9-24.1-70.7-15.6-84.6,7.7c-13,21.9-16.8,54.2,24.8,84.6
		C675.1,136.7,701.6,126.5,715,103.8z"/>
</g>
<path class="monitor5" d="M751.1,154.3c-3.9,0.6-7.2,3.3-7.9,6.8c-0.1,0.5,0,0.9,0,1.3l0.7,11.5c0.3,4.1,4.6,7,9.6,6.6
	c0.3-0.1,0.5-0.1,0.8-0.1s0.5-0.1,0.7-0.1l18.4-4.6l0.5-17.3c-7.8-1.4-11.2-3.6-20-4.2c-0.1,0-0.1,0-0.2,0
	C752.8,154.1,752,154.1,751.1,154.3L751.1,154.3z"/>
<path class="monitor7" d="M745.8,179.1c-1.6-1.4-2.6-3.2-2.7-5.2l-0.8-11.6c0-0.5,0-0.9,0.1-1.5c0.7-3.7,4.2-6.8,8.6-7.5
	c1-0.1,1.9-0.2,2.7-0.2c0.1,0,0.1,0,0.2,0h0.1c5.5,0.3,8.8,1.3,12.4,2.3c2.3,0.7,4.7,1.3,7.8,1.9c0.5,0.1,0.8,0.5,0.8,1l-0.5,17.3
	c0,0.5-0.3,0.9-0.7,1l-18.4,4.6h-0.1l-0.7,0.1c-0.2,0-0.4,0.1-0.5,0.1s-0.2,0-0.3,0h-0.1c-0.9,0.1-1.9,0.1-2.7,0
	C749,181.1,747.1,180.3,745.8,179.1z M754,179.5c0.1,0,0.1,0,0.3,0l0.6-0.1l17.6-4.5l0.4-15.7c-2.8-0.5-4.9-1.1-7.1-1.7
	c-3.4-1-6.7-1.9-11.9-2.2c-0.1,0-0.3,0-0.5-0.1c-0.6,0.1-1.4,0.1-2.1,0.2l0,0c-3.6,0.6-6.4,3-6.9,5.9c-0.1,0.4-0.1,0.8-0.1,1.1
	l0.7,11.5c0.1,1.4,0.8,2.8,2,3.8c1.7,1.4,4,2.1,6.5,1.9C753.6,179.4,753.8,179.4,754,179.5z"/>
<path class="monitor5" d="M741.1,160.1c-0.2-0.4-0.4-0.8-0.7-1.2l-6.6-9.5c-2.4-3.4-7.3-3.9-10.9-1.4c-0.2,0.2-0.4,0.2-0.6,0.4
	c-0.1,0.1-0.3,0.2-0.4,0.3c-6,3.6-15,12.1-10.4,19.7c1.1,1.7,2.6,3,4.2,4.2c1.4,1,3,1.9,4.6,2.3c5.4,1.2,11.5-2.3,16.2-4.5
	c0.1,0,0.1-0.1,0.2,0c0.6-0.3,1.3-0.7,1.8-1.3C741.2,166.8,742.4,163.1,741.1,160.1z"/>
<path class="monitor7" d="M720,175.9c-2.1-0.4-3.9-1.6-5-2.4c-2-1.5-3.5-2.9-4.4-4.5c-1.3-2.3-1.7-4.8-1.1-7.4
	c1.5-5.6,7.2-10.8,11.8-13.5l0.4-0.4c0.1-0.1,0.3-0.2,0.4-0.3c0.1,0,0.1-0.1,0.2-0.1l0.1-0.1c4.1-2.9,9.6-2.2,12.3,1.6l6.6,9.5
	c0.2,0.4,0.5,0.8,0.7,1.3c1.4,3.5,0.2,7.6-2.9,10.3l0,0c-0.6,0.5-1.4,1-2,1.3c-0.1,0.1-0.1,0.1-0.2,0.1s-0.1,0-0.1,0
	c-0.6,0.3-1.3,0.6-1.9,0.9c-4.1,2-9.1,4.4-13.8,3.9C720.9,176.1,720.5,176,720,175.9z M736.4,169.5c0.5-0.3,1.1-0.6,1.6-1
	c2.5-2,3.4-5.3,2.3-8c-0.2-0.3-0.4-0.7-0.6-1l-6.6-9.5c-2-2.9-6.3-3.4-9.5-1.1c-0.1,0.1-0.2,0.2-0.4,0.2c-0.1,0-0.1,0.1-0.2,0.1
	l-0.4,0.3c-0.1,0.1-0.1,0.1-0.1,0.1c-4.6,2.7-9.8,7.6-11,12.4c-0.5,2.1-0.2,4.1,0.9,6c0.8,1.3,2,2.6,3.9,3.9c1,0.7,2.5,1.7,4.3,2.1
	c4.3,1,9.5-1.6,13.6-3.6c0.6-0.3,1.3-0.6,1.8-0.9C736.1,169.5,736.2,169.4,736.4,169.5z M736.6,171.3L736.6,171.3L736.6,171.3z"/>
</svg>
