<?xml version="1.0" encoding="utf-8"?>
<!-- Generator: Adobe Illustrator 23.1.1, SVG Export Plug-In . SVG Version: 6.00 Build 0)  -->
<svg version="1.1" id="Layer_1" xmlns="http://www.w3.org/2000/svg" xmlns:xlink="http://www.w3.org/1999/xlink" x="0px" y="0px"
	 viewBox="0 0 878 632" style="enable-background:new 0 0 878 632;" xml:space="preserve">
<style type="text/css">
	.st0{display:none;}
	.st1{display:inline;}
	.st2{fill:#3D52BC;}
	.st3{fill:#6BCAD0;}
	.st4{fill:#2C3ACF;}
	.st5{fill:#FFFFFF;}
	.st6{fill:#A6B2C7;}
	.st7{fill:#3A3E42;}
	.st8{fill:#F4F4F4;}
	.st9{fill:#4051CC;}
	.st10{opacity:0.28;enable-background:new    ;}
	.st11{fill:#68B9FC;}
</style>
<g id="bg_2_" class="st0">
	<g id="bg" class="st1">
		<rect x="-0.1" class="st2" width="877.8" height="632"/>
	</g>
</g>
<g id="chain_copy">
	<g id="link">
		<g>
			<path class="st3" d="M561.6,184.2L559,103c0-0.4,0.3-0.7,0.7-0.7s0.7,0.3,0.7,0.7l2.5,78.9l87.9-55c0.4-0.2,0.8-0.1,1,0.2
				c0.2,0.4,0.1,0.8-0.2,1L561.6,184.2z"/>
		</g>
	</g>
	<g id="logo_32_">
		<g>
			<g>
				<g>
					<g>
						<ellipse class="st4" cx="660" cy="110" rx="25.3" ry="25.3"/>
					</g>
				</g>
			</g>
		</g>
		<g>
			<g>
				<g>
					<g>
						<g>
							<g>
								<path class="st5" d="M676.1,117.1l-8.8-17.7c-0.1-0.3,0-0.7,0.3-0.9c0.3-0.1,0.7,0,0.9,0.3l8.8,17.7c0.1,0.3,0,0.7-0.3,0.9
									c-0.1,0-0.2,0.1-0.2,0.1C676.4,117.4,676.2,117.3,676.1,117.1z"/>
							</g>
						</g>
					</g>
				</g>
				<g>
					<g>
						<g>
							<g>
								<path class="st5" d="M660,118c-0.3-0.1-0.5-0.5-0.4-0.8l7.6-18.3c0.1-0.3,0.5-0.5,0.8-0.4s0.5,0.5,0.4,0.8l-7.6,18.3
									c-0.1,0.3-0.3,0.4-0.6,0.4C660.2,118,660.1,118,660,118z"/>
							</g>
						</g>
					</g>
				</g>
				<g>
					<g>
						<g>
							<g>
								<path class="st5" d="M659.6,117.7l-8.8-17.7c-0.1-0.3,0-0.7,0.3-0.9c0.3-0.1,0.7,0,0.9,0.3l8.8,17.7c0.1,0.3,0,0.7-0.3,0.9
									c-0.1,0-0.2,0.1-0.2,0.1C660,118,659.8,117.9,659.6,117.7z"/>
							</g>
						</g>
					</g>
				</g>
				<g>
					<g>
						<g>
							<g>
								<path class="st5" d="M643.5,118.6c-0.3-0.1-0.5-0.5-0.4-0.8l7.6-18.3c0.1-0.3,0.5-0.5,0.8-0.4s0.5,0.5,0.4,0.8l-7.6,18.3
									c-0.1,0.3-0.3,0.4-0.6,0.4C643.7,118.6,643.6,118.6,643.5,118.6z"/>
							</g>
						</g>
					</g>
				</g>
			</g>
			<g>
				<g>
					<g>
						<g>
							
								<ellipse transform="matrix(0.9994 -3.414174e-02 3.414174e-02 0.9994 -3.6205 23.1719)" class="st5" cx="676.7" cy="117.6" rx="2.5" ry="2.4"/>
						</g>
					</g>
				</g>
			</g>
			<g>
				<g>
					<g>
						<g>
							
								<ellipse transform="matrix(0.9994 -3.414174e-02 3.414174e-02 0.9994 -3.6506 22.6089)" class="st5" cx="660.2" cy="118.2" rx="2.5" ry="2.4"/>
						</g>
					</g>
				</g>
			</g>
			<g>
				<g>
					<g>
						<g>
							
								<ellipse transform="matrix(0.9994 -3.414174e-02 3.414174e-02 0.9994 -3.6772 22.0493)" class="st5" cx="643.8" cy="118.7" rx="2.5" ry="2.4"/>
						</g>
					</g>
				</g>
			</g>
		</g>
	</g>
	<g id="logo_2_">
		<g>
			<g>
				<g>
					<g>
						
							<ellipse transform="matrix(0.9797 -0.2003 0.2003 0.9797 -10.0429 114.1907)" class="st4" cx="559.3" cy="106.7" rx="22.6" ry="22.6"/>
					</g>
				</g>
			</g>
		</g>
		<g>
			<g>
				<g>
					<g>
						<g>
							<g>
								<path class="st5" d="M573.4,113.9l-6.9-16.3c-0.1-0.3,0-0.6,0.3-0.7s0.6,0,0.7,0.3l6.9,16.3c0.1,0.3,0,0.6-0.3,0.7
									c-0.1,0-0.1,0.1-0.2,0.1C573.7,114.3,573.5,114.2,573.4,113.9z"/>
							</g>
						</g>
					</g>
				</g>
				<g>
					<g>
						<g>
							<g>
								<path class="st5" d="M559,113.8c-0.3-0.1-0.4-0.5-0.3-0.8l7.8-15.8c0.1-0.3,0.5-0.4,0.8-0.3s0.4,0.5,0.3,0.8l-7.8,15.8
									c-0.1,0.3-0.3,0.3-0.5,0.3C559.1,113.9,559.1,113.9,559,113.8z"/>
							</g>
						</g>
					</g>
				</g>
				<g>
					<g>
						<g>
							<g>
								<path class="st5" d="M558.7,113.5l-6.9-16.3c-0.1-0.3,0-0.6,0.3-0.7s0.6,0,0.7,0.3l6.9,16.3c0.1,0.3,0,0.6-0.3,0.7
									c-0.1,0-0.1,0.1-0.2,0.1S558.8,113.7,558.7,113.5z"/>
							</g>
						</g>
					</g>
				</g>
				<g>
					<g>
						<g>
							<g>
								<path class="st5" d="M544.3,113.5c-0.3-0.1-0.4-0.5-0.3-0.8l7.8-15.8c0.1-0.3,0.5-0.4,0.8-0.3s0.4,0.5,0.3,0.8l-7.8,15.8
									c-0.1,0.3-0.3,0.3-0.5,0.3C544.5,113.5,544.4,113.5,544.3,113.5z"/>
							</g>
						</g>
					</g>
				</g>
			</g>
			<g>
				<g>
					<g>
						<g>
							
								<ellipse transform="matrix(2.692690e-02 -0.9996 0.9996 2.692690e-02 444.127 685.1526)" class="st5" cx="574" cy="114.5" rx="2.1" ry="2.2"/>
						</g>
					</g>
				</g>
			</g>
			<g>
				<g>
					<g>
						<g>
							
								<ellipse transform="matrix(2.692690e-02 -0.9996 0.9996 2.692690e-02 430.2477 670.1061)" class="st5" cx="559.3" cy="114.1" rx="2.1" ry="2.2"/>
						</g>
					</g>
				</g>
			</g>
			<g>
				<g>
					<g>
						<g>
							
								<ellipse transform="matrix(2.692690e-02 -0.9996 0.9996 2.692690e-02 416.2739 654.9572)" class="st5" cx="544.6" cy="113.7" rx="2.1" ry="2.2"/>
						</g>
					</g>
				</g>
			</g>
		</g>
	</g>
	<g id="m_2_">
		<g>
			<g>
				<path class="st3" d="M604.2,563.9c-0.3-0.1-0.6-0.5-0.4-0.9c0.1-0.4,0.5-0.6,0.9-0.4l113.8,41.3l6.2-83.7c0-0.4,0.4-0.7,0.8-0.7
					l0,0c0.4,0,0.7,0.3,0.7,0.8l-6.3,85.6L604.2,563.9z"/>
			</g>
		</g>
		<g>
			<g>
				<path class="st3" d="M506.1,596.4c-0.2-0.4,0.1-0.8,0.4-0.9l97-33l-47.1-101.4l-0.2-0.4l0.9-1.3c-0.1-0.1-0.2-0.2-0.3-0.4
					l-15-81c-0.1-0.4,0.2-0.8,0.6-0.8c0.4-0.1,0.8,0.2,0.8,0.6l14.9,80.3l63.5-88c0.2-0.3,0.7-0.4,1-0.1c0.3,0.2,0.4,0.7,0.1,1
					l-64.9,90L605,562.8c0,0.1,0,0.1,0,0.1c0.1,0.1,0.1,0.1,0.1,0.2l0,0c0.1,0.1,0,0.2,0,0.3l0,0l0,0c0,0.1-0.1,0.2-0.2,0.3l0,0
					c-0.1,0.1-0.2,0.1-0.2,0.1c-0.1,0-0.1,0-0.1,0L507,597c-0.1,0.1-0.2,0.1-0.3,0.1C506.4,597,506.2,596.9,506.1,596.4z"/>
			</g>
		</g>
		<g>
			<g>
				<path class="st3" d="M640.5,452.3c-0.3-0.2-0.3-0.7-0.1-1s0.7-0.3,1-0.1l83.5,67.6l12.5-80.8c0.1-0.4,0.4-0.6,0.8-0.6
					c0.4,0.1,0.6,0.4,0.6,0.8L726,521.5L640.5,452.3z"/>
			</g>
		</g>
		<g id="logo_31_">
			<g>
				<g>
					<g>
						<g>
							<ellipse class="st4" cx="719.3" cy="604.7" rx="30.5" ry="30.5"/>
						</g>
					</g>
				</g>
			</g>
			<g>
				<g>
					<g>
						<g>
							<g>
								<g>
									<path class="st5" d="M699.1,613.6c-0.1,0-0.2-0.1-0.3-0.1c-0.4-0.2-0.5-0.7-0.4-1l10.8-21.2c0.2-0.4,0.7-0.5,1-0.4
										c0.4,0.2,0.5,0.7,0.4,1l-10.8,21.2C699.7,613.5,699.4,613.7,699.1,613.6z"/>
								</g>
							</g>
						</g>
					</g>
					<g>
						<g>
							<g>
								<g>
									<path class="st5" d="M718.9,614.4c-0.4,0-0.6-0.1-0.7-0.5l-9-22c-0.1-0.4,0-0.9,0.4-1s0.9,0,1,0.4l9,22
										c0.1,0.4,0,0.9-0.4,1C719.1,614.4,718.9,614.5,718.9,614.4z"/>
								</g>
							</g>
						</g>
					</g>
					<g>
						<g>
							<g>
								<g>
									<path class="st5" d="M718.9,614.5c-0.1,0-0.2-0.1-0.3-0.1c-0.4-0.2-0.5-0.7-0.4-1l10.8-21.2c0.2-0.4,0.7-0.5,1-0.4
										c0.4,0.2,0.5,0.7,0.4,1L719.6,614C719.5,614.3,719.1,614.4,718.9,614.5z"/>
								</g>
							</g>
						</g>
					</g>
					<g>
						<g>
							<g>
								<g>
									<path class="st5" d="M738.8,615.3c-0.4,0-0.6-0.1-0.7-0.5l-9-22c-0.1-0.4,0-0.9,0.4-1s0.9,0,1,0.4l9,22
										c0.1,0.4,0,0.9-0.4,1C738.8,615.2,738.8,615.3,738.8,615.3z"/>
								</g>
							</g>
						</g>
					</g>
				</g>
				<g>
					<g>
						<g>
							<g>
								
									<ellipse transform="matrix(4.200508e-02 -0.9991 0.9991 4.200508e-02 56.2626 1286.4921)" class="st5" cx="699" cy="613.9" rx="2.9" ry="3"/>
							</g>
						</g>
					</g>
				</g>
				<g>
					<g>
						<g>
							<g>
								
									<ellipse transform="matrix(4.200508e-02 -0.9991 0.9991 4.200508e-02 74.5426 1307.1409)" class="st5" cx="718.9" cy="614.7" rx="2.9" ry="3"/>
							</g>
						</g>
					</g>
				</g>
				<g>
					<g>
						<g>
							<g>
								
									<ellipse transform="matrix(4.200508e-02 -0.9991 0.9991 4.200508e-02 92.7678 1327.6426)" class="st5" cx="738.7" cy="615.4" rx="2.9" ry="3"/>
							</g>
						</g>
					</g>
				</g>
			</g>
		</g>
		<g id="logo_30_">
			<g>
				<g>
					<g>
						<g>
							<ellipse class="st4" cx="602.4" cy="562.9" rx="30.5" ry="30.5"/>
						</g>
					</g>
				</g>
			</g>
			<g>
				<g>
					<g>
						<g>
							<g>
								<g>
									<path class="st5" d="M582.2,571.8c-0.1,0-0.2-0.1-0.3-0.1c-0.4-0.2-0.5-0.7-0.4-1l10.8-21.2c0.2-0.4,0.7-0.5,1-0.4
										c0.4,0.2,0.5,0.7,0.4,1L583,571.3C582.8,571.6,582.5,571.8,582.2,571.8z"/>
								</g>
							</g>
						</g>
					</g>
					<g>
						<g>
							<g>
								<g>
									<path class="st5" d="M602.1,572.6c-0.4,0-0.6-0.1-0.7-0.5l-9-22c-0.1-0.4,0-0.9,0.4-1s0.9,0,1,0.4l9,22
										c0.1,0.4,0,0.9-0.4,1C602.1,572.6,602.1,572.6,602.1,572.6z"/>
								</g>
							</g>
						</g>
					</g>
					<g>
						<g>
							<g>
								<g>
									<path class="st5" d="M602,572.6c-0.1,0-0.2-0.1-0.3-0.1c-0.4-0.2-0.5-0.7-0.4-1l10.8-21.2c0.2-0.4,0.7-0.5,1-0.4
										c0.4,0.2,0.5,0.7,0.4,1l-10.8,21.2C602.6,572.4,602.2,572.6,602,572.6z"/>
								</g>
							</g>
						</g>
					</g>
					<g>
						<g>
							<g>
								<g>
									<path class="st5" d="M621.8,573.4c-0.4,0-0.6-0.1-0.7-0.5l-9-22c-0.1-0.4,0-0.9,0.4-1s0.9,0,1,0.4l9,22
										c0.1,0.4,0,0.9-0.4,1C622,573.4,621.9,573.4,621.8,573.4z"/>
								</g>
							</g>
						</g>
					</g>
				</g>
				<g>
					<g>
						<g>
							<g>
								
									<ellipse transform="matrix(4.200508e-02 -0.9991 0.9991 4.200508e-02 -13.7384 1129.5227)" class="st5" cx="582.1" cy="571.9" rx="2.9" ry="3"/>
							</g>
						</g>
					</g>
				</g>
				<g>
					<g>
						<g>
							<g>
								
									<ellipse transform="matrix(4.200508e-02 -0.9991 0.9991 4.200508e-02 4.3018 1150.2517)" class="st5" cx="602" cy="572.9" rx="2.9" ry="3"/>
							</g>
						</g>
					</g>
				</g>
				<g>
					<g>
						<g>
							<g>
								
									<ellipse transform="matrix(4.200508e-02 -0.9991 0.9991 4.200508e-02 22.6598 1170.7644)" class="st5" cx="621.8" cy="573.6" rx="2.9" ry="3"/>
							</g>
						</g>
					</g>
				</g>
			</g>
		</g>
		<g id="logo_29_">
			<g>
				<g>
					<g>
						<g>
							<ellipse class="st4" cx="643.2" cy="459.1" rx="26.2" ry="26.2"/>
						</g>
					</g>
				</g>
			</g>
			<g>
				<g>
					<g>
						<g>
							<g>
								<g>
									<path class="st5" d="M625.1,464.6c0,0-0.1-0.1-0.2-0.1c-0.3-0.2-0.4-0.7-0.2-0.9l11.3-17.1c0.2-0.3,0.7-0.4,0.9-0.2
										c0.3,0.2,0.4,0.7,0.2,0.9l-11.3,17.1C625.6,464.5,625.4,464.7,625.1,464.6z"/>
								</g>
							</g>
						</g>
					</g>
					<g>
						<g>
							<g>
								<g>
									<path class="st5" d="M642,467.2c-0.3,0-0.5-0.2-0.5-0.5l-5.6-19.7c0-0.4,0.1-0.8,0.5-0.8s0.8,0.1,0.8,0.5l5.6,19.7
										c0,0.4-0.1,0.8-0.5,0.8C642.1,467.2,642,467.3,642,467.2z"/>
								</g>
							</g>
						</g>
					</g>
					<g>
						<g>
							<g>
								<g>
									<path class="st5" d="M641.9,467.3c0,0-0.1-0.1-0.2-0.1c-0.3-0.2-0.4-0.7-0.2-0.9l11.3-17.1c0.2-0.3,0.7-0.4,0.9-0.2
										c0.3,0.2,0.4,0.7,0.2,0.9L642.6,467C642.5,467.2,642.2,467.3,641.9,467.3z"/>
								</g>
							</g>
						</g>
					</g>
					<g>
						<g>
							<g>
								<g>
									<path class="st5" d="M658.8,469.9c-0.3,0-0.5-0.2-0.5-0.5l-5.6-19.7c0-0.4,0.1-0.8,0.5-0.8s0.8,0.1,0.8,0.5l5.6,19.7
										c0,0.4-0.1,0.8-0.5,0.8C659,469.9,658.9,469.9,658.8,469.9z"/>
								</g>
							</g>
						</g>
					</g>
				</g>
				<g>
					<g>
						<g>
							<g>
								
									<ellipse transform="matrix(0.1548 -0.9879 0.9879 0.1548 69.1036 1010.4777)" class="st5" cx="625.1" cy="464.9" rx="2.5" ry="2.6"/>
							</g>
						</g>
					</g>
				</g>
				<g>
					<g>
						<g>
							<g>
								
									<ellipse transform="matrix(0.1548 -0.9879 0.9879 0.1548 80.7894 1029.3828)" class="st5" cx="642" cy="467.5" rx="2.5" ry="2.6"/>
							</g>
						</g>
					</g>
				</g>
				<g>
					<g>
						<g>
							<g>
								
									<ellipse transform="matrix(0.1548 -0.9879 0.9879 0.1548 92.3456 1048.1609)" class="st5" cx="658.8" cy="470.1" rx="2.5" ry="2.6"/>
							</g>
						</g>
					</g>
				</g>
			</g>
		</g>
		<g id="logo_28_">
			<g>
				<g>
					<g>
						<g>
							
								<ellipse transform="matrix(0.3174 -0.9483 0.9483 0.3174 89.3504 997.3924)" class="st4" cx="737.5" cy="436.6" rx="23.4" ry="23.4"/>
						</g>
					</g>
				</g>
			</g>
			<g>
				<g>
					<g>
						<g>
							<g>
								<g>
									<path class="st5" d="M721.5,442.6c-0.1,0-0.1-0.1-0.2-0.1c-0.3-0.2-0.4-0.5-0.2-0.8l9.2-15.9c0.2-0.3,0.5-0.4,0.8-0.2
										c0.3,0.2,0.4,0.5,0.2,0.8l-9.2,15.9C722,442.5,721.7,442.6,721.5,442.6z"/>
								</g>
							</g>
						</g>
					</g>
					<g>
						<g>
							<g>
								<g>
									<path class="st5" d="M736.6,443.9c-0.2,0-0.4-0.1-0.5-0.4l-6.1-17.3c-0.1-0.3,0-0.7,0.4-0.8c0.3-0.1,0.7,0,0.8,0.4
										l6.1,17.3c0.1,0.3,0,0.7-0.4,0.8C736.8,444,736.7,444,736.6,443.9z"/>
								</g>
							</g>
						</g>
					</g>
					<g>
						<g>
							<g>
								<g>
									<path class="st5" d="M736.6,444c-0.1,0-0.1-0.1-0.2-0.1c-0.3-0.2-0.4-0.5-0.2-0.8l9.2-15.9c0.2-0.3,0.5-0.4,0.8-0.2
										c0.3,0.2,0.4,0.5,0.2,0.8l-9.1,15.9C737.1,443.9,736.8,444,736.6,444z"/>
								</g>
							</g>
						</g>
					</g>
					<g>
						<g>
							<g>
								<g>
									<path class="st5" d="M751.8,445.4c-0.2,0-0.4-0.1-0.5-0.4l-6.1-17.3c-0.1-0.3,0-0.7,0.4-0.8c0.3-0.1,0.7,0,0.8,0.4
										l6.1,17.3c0.1,0.3,0,0.7-0.4,0.8C752,445.4,751.9,445.4,751.8,445.4z"/>
								</g>
							</g>
						</g>
					</g>
				</g>
				<g>
					<g>
						<g>
							<g>
								
									<ellipse transform="matrix(9.418532e-02 -0.9956 0.9956 9.418532e-02 212.7354 1119.2446)" class="st5" cx="721.4" cy="442.7" rx="2.2" ry="2.3"/>
							</g>
						</g>
					</g>
				</g>
				<g>
					<g>
						<g>
							<g>
								
									<ellipse transform="matrix(9.418532e-02 -0.9956 0.9956 9.418532e-02 225.0916 1135.5551)" class="st5" cx="736.6" cy="444.1" rx="2.2" ry="2.3"/>
							</g>
						</g>
					</g>
				</g>
				<g>
					<g>
						<g>
							<g>
								
									<ellipse transform="matrix(9.418532e-02 -0.9956 0.9956 9.418532e-02 237.3403 1151.946)" class="st5" cx="751.7" cy="445.5" rx="2.2" ry="2.3"/>
							</g>
						</g>
					</g>
				</g>
			</g>
		</g>
		<g id="logo_27_">
			<g>
				<g>
					<g>
						<g>
							<ellipse class="st4" cx="725.2" cy="516.5" rx="26.9" ry="26.9"/>
						</g>
					</g>
				</g>
			</g>
			<g>
				<g>
					<g>
						<g>
							<g>
								<g>
									<path class="st5" d="M707.3,524.4c-0.1,0-0.2-0.1-0.3-0.1c-0.3-0.2-0.5-0.7-0.3-0.9l9.6-18.8c0.2-0.3,0.7-0.5,0.9-0.3
										c0.3,0.2,0.5,0.7,0.3,0.9l-9.6,18.8C707.8,524.2,707.6,524.4,707.3,524.4z"/>
								</g>
							</g>
						</g>
					</g>
					<g>
						<g>
							<g>
								<g>
									<path class="st5" d="M724.8,525.1c-0.2,0-0.5-0.2-0.5-0.5l-8-19.5c-0.1-0.4,0.1-0.8,0.4-0.9c0.4-0.1,0.8,0.1,0.9,0.4
										l8,19.5c0.1,0.4-0.1,0.8-0.4,0.9C725,525.1,724.9,525.1,724.8,525.1z"/>
								</g>
							</g>
						</g>
					</g>
					<g>
						<g>
							<g>
								<g>
									<path class="st5" d="M724.8,525.1c-0.1,0-0.2-0.1-0.3-0.1c-0.3-0.2-0.5-0.7-0.3-0.9l9.6-18.8c0.2-0.3,0.7-0.5,0.9-0.3
										c0.3,0.2,0.5,0.7,0.3,0.9l-9.6,18.8C725.3,525,725,525.1,724.8,525.1z"/>
								</g>
							</g>
						</g>
					</g>
					<g>
						<g>
							<g>
								<g>
									<path class="st5" d="M742.3,525.8c-0.2,0-0.5-0.2-0.5-0.5l-8-19.5c-0.1-0.4,0.1-0.8,0.4-0.9c0.4-0.1,0.8,0.1,0.9,0.4
										l8,19.5c0.1,0.4-0.1,0.8-0.4,0.9C742.4,525.8,742.4,525.9,742.3,525.8z"/>
								</g>
							</g>
						</g>
					</g>
				</g>
				<g>
					<g>
						<g>
							<g>
								<ellipse class="st5" cx="707.3" cy="524.6" rx="2.6" ry="2.6"/>
							</g>
						</g>
					</g>
				</g>
				<g>
					<g>
						<g>
							<g>
								<ellipse class="st5" cx="724.9" cy="525.3" rx="2.6" ry="2.6"/>
							</g>
						</g>
					</g>
				</g>
				<g>
					<g>
						<g>
							<g>
								<ellipse class="st5" cx="742.4" cy="526" rx="2.6" ry="2.6"/>
							</g>
						</g>
					</g>
				</g>
			</g>
		</g>
		<g id="logo_26_">
			<g>
				<g>
					<g>
						<g>
							<ellipse class="st4" cx="622.4" cy="370.4" rx="24.2" ry="24.2"/>
						</g>
					</g>
				</g>
			</g>
			<g>
				<g>
					<g>
						<g>
							<g>
								<g>
									<path class="st5" d="M605.3,373.7c-0.1,0-0.1-0.1-0.2-0.1c-0.3-0.2-0.3-0.6-0.1-0.9l12-14.5c0.2-0.3,0.6-0.3,0.9-0.1
										c0.3,0.2,0.3,0.6,0.1,0.9l-12,14.5C605.8,373.6,605.6,373.8,605.3,373.7z"/>
								</g>
							</g>
						</g>
					</g>
					<g>
						<g>
							<g>
								<g>
									<path class="st5" d="M620.5,377.8c-0.2-0.1-0.4-0.2-0.4-0.5l-3.1-18.6c-0.1-0.3,0.1-0.6,0.5-0.7c0.3-0.1,0.6,0.1,0.7,0.5
										l3.1,18.6c0.1,0.3-0.1,0.6-0.5,0.7C620.6,377.7,620.5,377.8,620.5,377.8z"/>
								</g>
							</g>
						</g>
					</g>
					<g>
						<g>
							<g>
								<g>
									<path class="st5" d="M620.5,377.7c-0.1,0-0.1-0.1-0.2-0.1c-0.3-0.2-0.3-0.6-0.1-0.9l12-14.5c0.2-0.3,0.6-0.3,0.9-0.1
										c0.3,0.2,0.3,0.6,0.1,0.9l-12,14.5C621,377.8,620.7,377.8,620.5,377.7z"/>
								</g>
							</g>
						</g>
					</g>
					<g>
						<g>
							<g>
								<g>
									<path class="st5" d="M635.7,381.8c-0.2-0.1-0.4-0.2-0.4-0.5l-3.1-18.6c-0.1-0.3,0.1-0.6,0.5-0.7c0.3-0.1,0.6,0.1,0.7,0.5
										l3.1,18.6c0.1,0.3-0.1,0.6-0.5,0.7C635.8,381.9,635.7,381.9,635.7,381.8z"/>
								</g>
							</g>
						</g>
					</g>
				</g>
				<g>
					<g>
						<g>
							<g>
								<ellipse class="st5" cx="605.3" cy="373.9" rx="2.3" ry="2.3"/>
							</g>
						</g>
					</g>
				</g>
				<g>
					<g>
						<g>
							<g>
								<ellipse class="st5" cx="620.4" cy="377.9" rx="2.3" ry="2.3"/>
							</g>
						</g>
					</g>
				</g>
				<g>
					<g>
						<g>
							<g>
								<ellipse class="st5" cx="635.6" cy="381.9" rx="2.3" ry="2.3"/>
							</g>
						</g>
					</g>
				</g>
			</g>
		</g>
		<g id="logo_25_">
			<g>
				<g>
					<g>
						<g>
							<ellipse class="st4" cx="508.2" cy="591.7" rx="24.2" ry="24.2"/>
						</g>
					</g>
				</g>
			</g>
			<g>
				<g>
					<g>
						<g>
							<g>
								<g>
									<path class="st5" d="M491.4,596.5c-0.1,0-0.1-0.1-0.2-0.1c-0.3-0.2-0.3-0.6-0.2-0.9l10.7-15.5c0.2-0.3,0.6-0.3,0.9-0.2
										c0.3,0.2,0.3,0.6,0.2,0.9l-10.6,15.5C491.9,596.5,491.7,596.6,491.4,596.5z"/>
								</g>
							</g>
						</g>
					</g>
					<g>
						<g>
							<g>
								<g>
									<path class="st5" d="M506.9,599.3c-0.3,0-0.5-0.2-0.5-0.5l-4.8-18.3c-0.1-0.3,0.1-0.7,0.5-0.8c0.3-0.1,0.7,0.1,0.8,0.5
										l4.8,18.3c0.1,0.3-0.1,0.7-0.5,0.8C507,599.3,506.9,599.3,506.9,599.3z"/>
								</g>
							</g>
						</g>
					</g>
					<g>
						<g>
							<g>
								<g>
									<path class="st5" d="M506.9,599.3c-0.1,0-0.1-0.1-0.2-0.1c-0.3-0.2-0.3-0.6-0.2-0.9l10.7-15.5c0.2-0.3,0.6-0.3,0.9-0.2
										c0.3,0.2,0.3,0.6,0.2,0.9L507.5,599C507.4,599.2,507.1,599.3,506.9,599.3z"/>
								</g>
							</g>
						</g>
					</g>
					<g>
						<g>
							<g>
								<g>
									<path class="st5" d="M522.4,602c-0.3,0-0.5-0.2-0.5-0.5l-4.8-18.3c-0.1-0.3,0.1-0.7,0.5-0.8c0.3-0.1,0.7,0.1,0.8,0.5
										l4.8,18.3c0.1,0.3-0.1,0.7-0.5,0.8C522.5,602,522.4,602,522.4,602z"/>
								</g>
							</g>
						</g>
					</g>
				</g>
				<g>
					<g>
						<g>
							<g>
								<ellipse class="st5" cx="491.4" cy="596.6" rx="2.3" ry="2.3"/>
							</g>
						</g>
					</g>
				</g>
				<g>
					<g>
						<g>
							<g>
								<ellipse class="st5" cx="506.8" cy="599.3" rx="2.3" ry="2.3"/>
							</g>
						</g>
					</g>
				</g>
				<g>
					<g>
						<g>
							<g>
								<ellipse class="st5" cx="522.3" cy="602.1" rx="2.3" ry="2.3"/>
							</g>
						</g>
					</g>
				</g>
			</g>
		</g>
		<g id="logo_7_">
			<g>
				<g>
					<g>
						<g>
							<ellipse class="st4" cx="557.4" cy="460.3" rx="24.2" ry="24.2"/>
						</g>
					</g>
				</g>
			</g>
			<g>
				<g>
					<g>
						<g>
							<g>
								<g>
									<path class="st5" d="M541.2,466.9c-0.1,0-0.1-0.1-0.2-0.1c-0.3-0.2-0.4-0.5-0.2-0.8l8.9-16.7c0.2-0.3,0.5-0.4,0.8-0.2
										c0.3,0.2,0.4,0.5,0.2,0.8l-8.9,16.7C541.6,466.9,541.4,467,541.2,466.9z"/>
								</g>
							</g>
						</g>
					</g>
					<g>
						<g>
							<g>
								<g>
									<path class="st5" d="M556.9,468c-0.3,0-0.5-0.1-0.5-0.4l-6.8-17.6c-0.1-0.3,0-0.6,0.3-0.8c0.3-0.1,0.6,0,0.8,0.3l6.8,17.6
										c0.1,0.3,0,0.6-0.3,0.8C557,467.9,556.9,468,556.9,468z"/>
								</g>
							</g>
						</g>
					</g>
					<g>
						<g>
							<g>
								<g>
									<path class="st5" d="M556.9,467.9c-0.1,0-0.1-0.1-0.2-0.1c-0.3-0.2-0.4-0.5-0.2-0.8l8.9-16.7c0.2-0.3,0.5-0.4,0.8-0.2
										c0.3,0.2,0.4,0.5,0.2,0.8l-8.9,16.7C557.3,467.8,557,467.9,556.9,467.9z"/>
								</g>
							</g>
						</g>
					</g>
					<g>
						<g>
							<g>
								<g>
									<path class="st5" d="M572.6,468.8c-0.3,0-0.5-0.1-0.5-0.4l-6.8-17.5c-0.1-0.3,0-0.6,0.3-0.8c0.3-0.1,0.6,0,0.8,0.3
										l6.8,17.6c0.1,0.3,0,0.6-0.3,0.8C572.6,468.8,572.6,468.9,572.6,468.8z"/>
								</g>
							</g>
						</g>
					</g>
				</g>
				<g>
					<g>
						<g>
							<g>
								<ellipse class="st5" cx="541.2" cy="467.1" rx="2.3" ry="2.3"/>
							</g>
						</g>
					</g>
				</g>
				<g>
					<g>
						<g>
							<g>
								<ellipse class="st5" cx="556.9" cy="468.1" rx="2.3" ry="2.3"/>
							</g>
						</g>
					</g>
				</g>
				<g>
					<g>
						<g>
							<g>
								<ellipse class="st5" cx="572.5" cy="469.1" rx="2.3" ry="2.3"/>
							</g>
						</g>
					</g>
				</g>
			</g>
		</g>
	</g>
</g>
<g id="chain">
	<g id="m">
		<g>
			<g>
				<path class="st3" d="M433.1,323.6c-0.4-0.1-0.6-0.5-0.4-0.9c0.1-0.4,0.5-0.6,0.9-0.4l113.8,41.3l6.2-83.7c0-0.4,0.4-0.7,0.8-0.7
					l0,0c0.4,0,0.7,0.3,0.7,0.8l-6.3,85.6L433.1,323.6z"/>
			</g>
		</g>
		<g>
			<g>
				<path class="st3" d="M335.1,356.1c-0.2-0.4,0.1-0.8,0.4-0.9l97-33l-47.1-101.4l-0.2-0.4l0.9-1.3c-0.1-0.1-0.2-0.2-0.3-0.4
					l-15-81c-0.1-0.4,0.2-0.8,0.6-0.8c0.4-0.1,0.8,0.2,0.8,0.6l14.9,80.3l63.5-88c0.2-0.3,0.7-0.4,1-0.1c0.3,0.2,0.4,0.7,0.1,1
					l-64.9,90L434,322.5c0,0.1,0,0.1,0,0.1c0.1,0.1,0.1,0.1,0.1,0.2l0,0c0.1,0.1,0,0.2,0,0.3l0,0l0,0c0,0.1-0.1,0.2-0.2,0.3l0,0
					c-0.1,0.1-0.2,0.1-0.2,0.1c-0.1,0-0.1,0-0.1,0l-97.7,33.2c-0.1,0.1-0.2,0.1-0.3,0.1C335.4,356.7,335.1,356.6,335.1,356.1z"/>
			</g>
		</g>
		<g>
			<g>
				<path class="st3" d="M469.4,211.9c-0.3-0.2-0.3-0.7-0.1-1c0.2-0.3,0.7-0.3,1-0.1l83.5,67.6l12.5-80.8c0.1-0.4,0.4-0.6,0.8-0.6
					c0.4,0.1,0.6,0.4,0.6,0.8l-12.8,83.3L469.4,211.9z"/>
			</g>
		</g>
		<g id="logo_12_">
			<g>
				<g>
					<g>
						<g>
							<ellipse class="st4" cx="548.2" cy="364.5" rx="30.5" ry="30.5"/>
						</g>
					</g>
				</g>
			</g>
			<g>
				<g>
					<g>
						<g>
							<g>
								<g>
									<path class="st5" d="M528,373.3c-0.1,0-0.2-0.1-0.3-0.1c-0.4-0.2-0.5-0.7-0.4-1l10.8-21.2c0.2-0.4,0.7-0.5,1-0.4
										c0.4,0.2,0.5,0.7,0.4,1l-10.8,21.2C528.6,373.2,528.3,373.4,528,373.3z"/>
								</g>
							</g>
						</g>
					</g>
					<g>
						<g>
							<g>
								<g>
									<path class="st5" d="M547.9,374.1c-0.4,0-0.6-0.1-0.7-0.5l-9-22c-0.1-0.4,0-0.9,0.4-1s0.9,0,1,0.4l9,22
										c0.1,0.4,0,0.9-0.4,1C548,374.1,547.9,374.2,547.9,374.1z"/>
								</g>
							</g>
						</g>
					</g>
					<g>
						<g>
							<g>
								<g>
									<path class="st5" d="M547.8,374.2c-0.1,0-0.2-0.1-0.3-0.1c-0.4-0.2-0.5-0.7-0.4-1l10.8-21.2c0.2-0.4,0.7-0.5,1-0.4
										c0.4,0.2,0.5,0.7,0.4,1l-10.8,21.2C548.4,374,548.1,374.1,547.8,374.2z"/>
								</g>
							</g>
						</g>
					</g>
					<g>
						<g>
							<g>
								<g>
									<path class="st5" d="M567.7,375c-0.4,0-0.6-0.1-0.7-0.5l-9-22c-0.1-0.4,0-0.9,0.4-1s0.9,0,1,0.4l9,22c0.1,0.4,0,0.9-0.4,1
										C567.8,374.9,567.7,375,567.7,375z"/>
								</g>
							</g>
						</g>
					</g>
				</g>
				<g>
					<g>
						<g>
							<g>
								
									<ellipse transform="matrix(4.200508e-02 -0.9991 0.9991 4.200508e-02 132.5607 885.3046)" class="st5" cx="527.9" cy="373.5" rx="2.9" ry="3"/>
							</g>
						</g>
					</g>
				</g>
				<g>
					<g>
						<g>
							<g>
								
									<ellipse transform="matrix(4.200508e-02 -0.9991 0.9991 4.200508e-02 150.7369 906.0449)" class="st5" cx="547.8" cy="374.4" rx="2.9" ry="3"/>
							</g>
						</g>
					</g>
				</g>
				<g>
					<g>
						<g>
							<g>
								
									<ellipse transform="matrix(4.200508e-02 -0.9991 0.9991 4.200508e-02 168.9622 926.5465)" class="st5" cx="567.6" cy="375.2" rx="2.9" ry="3"/>
							</g>
						</g>
					</g>
				</g>
			</g>
		</g>
		<g id="logo_11_">
			<g>
				<g>
					<g>
						<g>
							<ellipse class="st4" cx="431.3" cy="322.6" rx="30.5" ry="30.5"/>
						</g>
					</g>
				</g>
			</g>
			<g>
				<g>
					<g>
						<g>
							<g>
								<g>
									<path class="st5" d="M411.2,331.5c-0.1,0-0.2-0.1-0.3-0.1c-0.4-0.2-0.5-0.7-0.4-1l10.8-21.2c0.2-0.4,0.7-0.5,1-0.4
										c0.4,0.2,0.5,0.7,0.4,1L411.9,331C411.8,331.3,411.5,331.5,411.2,331.5z"/>
								</g>
							</g>
						</g>
					</g>
					<g>
						<g>
							<g>
								<g>
									<path class="st5" d="M431,332.2c-0.4,0-0.6-0.1-0.7-0.5l-9-22c-0.1-0.4,0-0.9,0.4-1s0.9,0,1,0.4l9,22c0.1,0.4,0,0.9-0.4,1
										C431.1,332.2,431,332.3,431,332.2z"/>
								</g>
							</g>
						</g>
					</g>
					<g>
						<g>
							<g>
								<g>
									<path class="st5" d="M430.9,332.3c-0.1,0-0.2-0.1-0.3-0.1c-0.4-0.2-0.5-0.7-0.4-1L441,310c0.2-0.4,0.7-0.5,1-0.4
										c0.4,0.2,0.5,0.7,0.4,1l-10.8,21.2C431.5,332.1,431.1,332.3,430.9,332.3z"/>
								</g>
							</g>
						</g>
					</g>
					<g>
						<g>
							<g>
								<g>
									<path class="st5" d="M450.7,333.1c-0.4,0-0.6-0.1-0.7-0.5l-9-22c-0.1-0.4,0-0.9,0.4-1s0.9,0,1,0.4l9,22
										c0.1,0.4,0,0.9-0.4,1C450.9,333,450.8,333.1,450.7,333.1z"/>
								</g>
							</g>
						</g>
					</g>
				</g>
				<g>
					<g>
						<g>
							<g>
								
									<ellipse transform="matrix(4.200508e-02 -0.9991 0.9991 4.200508e-02 62.4558 728.4268)" class="st5" cx="411.1" cy="331.6" rx="2.9" ry="3"/>
							</g>
						</g>
					</g>
				</g>
				<g>
					<g>
						<g>
							<g>
								
									<ellipse transform="matrix(4.200508e-02 -0.9991 0.9991 4.200508e-02 80.6 749.0643)" class="st5" cx="430.9" cy="332.5" rx="2.9" ry="3"/>
							</g>
						</g>
					</g>
				</g>
				<g>
					<g>
						<g>
							<g>
								
									<ellipse transform="matrix(4.200508e-02 -0.9991 0.9991 4.200508e-02 98.7627 769.5646)" class="st5" cx="450.7" cy="333.3" rx="2.9" ry="3"/>
							</g>
						</g>
					</g>
				</g>
			</g>
		</g>
		<g id="logo_10_">
			<g>
				<g>
					<g>
						<g>
							<ellipse class="st4" cx="472.2" cy="218.7" rx="26.2" ry="26.2"/>
						</g>
					</g>
				</g>
			</g>
			<g>
				<g>
					<g>
						<g>
							<g>
								<g>
									<path class="st5" d="M454,224.3c0,0-0.1-0.1-0.2-0.1c-0.3-0.2-0.4-0.7-0.2-0.9l11.3-17.1c0.2-0.3,0.7-0.4,0.9-0.2
										c0.3,0.2,0.4,0.7,0.2,0.9L454.7,224C454.6,224.2,454.3,224.4,454,224.3z"/>
								</g>
							</g>
						</g>
					</g>
					<g>
						<g>
							<g>
								<g>
									<path class="st5" d="M470.9,226.9c-0.3,0-0.5-0.2-0.5-0.5l-5.6-19.7c0-0.4,0.1-0.8,0.5-0.8s0.8,0.1,0.8,0.5l5.6,19.7
										c0,0.4-0.1,0.8-0.5,0.8C471.1,226.9,471,227,470.9,226.9z"/>
								</g>
							</g>
						</g>
					</g>
					<g>
						<g>
							<g>
								<g>
									<path class="st5" d="M470.8,227c0,0-0.1-0.1-0.2-0.1c-0.3-0.2-0.4-0.7-0.2-0.9l11.3-17.1c0.2-0.3,0.7-0.4,0.9-0.2
										c0.3,0.2,0.4,0.7,0.2,0.9l-11.3,17.1C471.4,226.9,471.1,226.9,470.8,227z"/>
								</g>
							</g>
						</g>
					</g>
					<g>
						<g>
							<g>
								<g>
									<path class="st5" d="M487.8,229.6c-0.3,0-0.5-0.2-0.5-0.5l-5.6-19.7c0-0.4,0.1-0.8,0.5-0.8s0.8,0.1,0.8,0.5l5.6,19.7
										c0,0.4-0.1,0.8-0.5,0.8C487.9,229.6,487.8,229.6,487.8,229.6z"/>
								</g>
							</g>
						</g>
					</g>
				</g>
				<g>
					<g>
						<g>
							<g>
								
									<ellipse transform="matrix(0.1548 -0.9879 0.9879 0.1548 162.0298 638.322)" class="st5" cx="454.1" cy="224.5" rx="2.5" ry="2.6"/>
							</g>
						</g>
					</g>
				</g>
				<g>
					<g>
						<g>
							<g>
								
									<ellipse transform="matrix(0.1548 -0.9879 0.9879 0.1548 173.5367 657.1844)" class="st5" cx="470.9" cy="227.2" rx="2.5" ry="2.6"/>
							</g>
						</g>
					</g>
				</g>
				<g>
					<g>
						<g>
							<g>
								
									<ellipse transform="matrix(0.1548 -0.9879 0.9879 0.1548 185.2716 676.005)" class="st5" cx="487.7" cy="229.7" rx="2.5" ry="2.6"/>
							</g>
						</g>
					</g>
				</g>
			</g>
		</g>
		<g id="logo_9_">
			<g>
				<g>
					<g>
						<g>
							
								<ellipse transform="matrix(0.3174 -0.9483 0.9483 0.3174 200.5434 671.109)" class="st4" cx="566.4" cy="196.3" rx="23.4" ry="23.4"/>
						</g>
					</g>
				</g>
			</g>
			<g>
				<g>
					<g>
						<g>
							<g>
								<g>
									<path class="st5" d="M550.4,202.3c-0.1,0-0.1-0.1-0.2-0.1c-0.3-0.2-0.4-0.5-0.2-0.8l9.2-15.9c0.2-0.3,0.5-0.4,0.8-0.2
										s0.4,0.5,0.2,0.8L551,202C550.9,202.2,550.7,202.3,550.4,202.3z"/>
								</g>
							</g>
						</g>
					</g>
					<g>
						<g>
							<g>
								<g>
									<path class="st5" d="M565.5,203.6c-0.2,0-0.4-0.1-0.5-0.4l-6.1-17.3c-0.1-0.3,0-0.7,0.4-0.8c0.3-0.1,0.7,0,0.8,0.4
										l6.1,17.3c0.1,0.3,0,0.7-0.4,0.8C565.7,203.7,565.7,203.7,565.5,203.6z"/>
								</g>
							</g>
						</g>
					</g>
					<g>
						<g>
							<g>
								<g>
									<path class="st5" d="M565.5,203.7c-0.1,0-0.1-0.1-0.2-0.1c-0.3-0.2-0.4-0.5-0.2-0.8l9.2-15.9c0.2-0.3,0.5-0.4,0.8-0.2
										s0.4,0.5,0.2,0.8l-9.1,15.9C566,203.6,565.7,203.7,565.5,203.7z"/>
								</g>
							</g>
						</g>
					</g>
					<g>
						<g>
							<g>
								<g>
									<path class="st5" d="M580.7,205.1c-0.2,0-0.4-0.1-0.5-0.4l-6.1-17.3c-0.1-0.3,0-0.7,0.4-0.8c0.3-0.1,0.7,0,0.8,0.4
										l6.1,17.3c0.1,0.3,0,0.7-0.4,0.8C580.9,205.1,580.8,205.1,580.7,205.1z"/>
								</g>
							</g>
						</g>
					</g>
				</g>
				<g>
					<g>
						<g>
							<g>
								
									<ellipse transform="matrix(9.418532e-02 -0.9956 0.9956 9.418532e-02 297.081 731.2086)" class="st5" cx="550.4" cy="202.3" rx="2.2" ry="2.3"/>
							</g>
						</g>
					</g>
				</g>
				<g>
					<g>
						<g>
							<g>
								
									<ellipse transform="matrix(9.418532e-02 -0.9956 0.9956 9.418532e-02 309.3296 747.5997)" class="st5" cx="565.5" cy="203.8" rx="2.2" ry="2.3"/>
							</g>
						</g>
					</g>
				</g>
				<g>
					<g>
						<g>
							<g>
								
									<ellipse transform="matrix(9.418532e-02 -0.9956 0.9956 9.418532e-02 321.6859 763.91)" class="st5" cx="580.6" cy="205.2" rx="2.2" ry="2.3"/>
							</g>
						</g>
					</g>
				</g>
			</g>
		</g>
		<g id="logo_8_">
			<g>
				<g>
					<g>
						<g>
							<ellipse class="st4" cx="554.1" cy="276.2" rx="26.9" ry="26.9"/>
						</g>
					</g>
				</g>
			</g>
			<g>
				<g>
					<g>
						<g>
							<g>
								<g>
									<path class="st5" d="M536.2,284c-0.1,0-0.2-0.1-0.3-0.1c-0.3-0.2-0.5-0.7-0.3-0.9l9.6-18.8c0.2-0.3,0.7-0.5,0.9-0.3
										c0.3,0.2,0.5,0.7,0.3,0.9l-9.6,18.8C536.7,283.9,536.5,284.1,536.2,284z"/>
								</g>
							</g>
						</g>
					</g>
					<g>
						<g>
							<g>
								<g>
									<path class="st5" d="M553.7,284.8c-0.2,0-0.5-0.2-0.5-0.5l-8-19.5c-0.1-0.4,0.1-0.8,0.4-0.9s0.8,0.1,0.9,0.4l8,19.5
										c0.1,0.4-0.1,0.8-0.4,0.9C553.9,284.8,553.8,284.8,553.7,284.8z"/>
								</g>
							</g>
						</g>
					</g>
					<g>
						<g>
							<g>
								<g>
									<path class="st5" d="M553.8,284.8c-0.1,0-0.2-0.1-0.3-0.1c-0.3-0.2-0.5-0.7-0.3-0.9l9.6-18.8c0.2-0.3,0.7-0.5,0.9-0.3
										c0.3,0.2,0.5,0.7,0.3,0.9l-9.6,18.8C554.3,284.6,554,284.8,553.8,284.8z"/>
								</g>
							</g>
						</g>
					</g>
					<g>
						<g>
							<g>
								<g>
									<path class="st5" d="M571.2,285.5c-0.2,0-0.5-0.2-0.5-0.5l-8-19.5c-0.1-0.4,0.1-0.8,0.4-0.9s0.8,0.1,0.9,0.4l8,19.5
										c0.1,0.4-0.1,0.8-0.4,0.9C571.4,285.5,571.3,285.5,571.2,285.5z"/>
								</g>
							</g>
						</g>
					</g>
				</g>
				<g>
					<g>
						<g>
							<g>
								
									<ellipse transform="matrix(4.200507e-02 -0.9991 0.9991 4.200507e-02 229.6764 808.1625)" class="st5" cx="536.3" cy="284.3" rx="2.6" ry="2.6"/>
							</g>
						</g>
					</g>
				</g>
				<g>
					<g>
						<g>
							<g>
								
									<ellipse transform="matrix(4.200507e-02 -0.9991 0.9991 4.200507e-02 245.8628 826.3023)" class="st5" cx="553.8" cy="284.9" rx="2.6" ry="2.6"/>
							</g>
						</g>
					</g>
				</g>
				<g>
					<g>
						<g>
							<g>
								
									<ellipse transform="matrix(4.200510e-02 -0.9991 0.9991 4.200510e-02 261.8494 844.4451)" class="st5" cx="571.3" cy="285.7" rx="2.6" ry="2.6"/>
							</g>
						</g>
					</g>
				</g>
			</g>
		</g>
		<g id="logo_6_">
			<g>
				<g>
					<g>
						<g>
							<ellipse class="st4" cx="451.4" cy="130.1" rx="24.2" ry="24.2"/>
						</g>
					</g>
				</g>
			</g>
			<g>
				<g>
					<g>
						<g>
							<g>
								<g>
									<path class="st5" d="M434.3,133.4c-0.1,0-0.1-0.1-0.2-0.1c-0.3-0.2-0.3-0.6-0.1-0.9l12-14.5c0.2-0.3,0.6-0.3,0.9-0.1
										c0.3,0.2,0.3,0.6,0.1,0.9l-12,14.5C434.7,133.3,434.5,133.5,434.3,133.4z"/>
								</g>
							</g>
						</g>
					</g>
					<g>
						<g>
							<g>
								<g>
									<path class="st5" d="M449.4,137.5c-0.2-0.1-0.4-0.2-0.4-0.5l-3.1-18.6c-0.1-0.3,0.1-0.6,0.5-0.7c0.3-0.1,0.6,0.1,0.7,0.5
										l3.1,18.6c0.1,0.3-0.1,0.6-0.5,0.7C449.5,137.4,449.5,137.5,449.4,137.5z"/>
								</g>
							</g>
						</g>
					</g>
					<g>
						<g>
							<g>
								<g>
									<path class="st5" d="M449.4,137.4c-0.1,0-0.1-0.1-0.2-0.1c-0.3-0.2-0.3-0.6-0.1-0.9l12-14.5c0.2-0.3,0.6-0.3,0.9-0.1
										c0.3,0.2,0.3,0.6,0.1,0.9l-12,14.5C449.9,137.4,449.6,137.5,449.4,137.4z"/>
								</g>
							</g>
						</g>
					</g>
					<g>
						<g>
							<g>
								<g>
									<path class="st5" d="M464.6,141.5c-0.2-0.1-0.4-0.2-0.4-0.5l-3.1-18.6c-0.1-0.3,0.1-0.6,0.5-0.7c0.3-0.1,0.6,0.1,0.7,0.5
										l3.1,18.6c0.1,0.3-0.1,0.6-0.5,0.7C464.7,141.5,464.7,141.5,464.6,141.5z"/>
								</g>
							</g>
						</g>
					</g>
				</g>
				<g>
					<g>
						<g>
							<g>
								
									<ellipse transform="matrix(0.2589 -0.9659 0.9659 0.2589 192.9005 518.3853)" class="st5" cx="434.3" cy="133.5" rx="2.3" ry="2.3"/>
							</g>
						</g>
					</g>
				</g>
				<g>
					<g>
						<g>
							<g>
								
									<ellipse transform="matrix(0.2589 -0.9659 0.9659 0.2589 200.0351 535.9785)" class="st5" cx="449.3" cy="137.6" rx="2.3" ry="2.3"/>
							</g>
						</g>
					</g>
				</g>
				<g>
					<g>
						<g>
							<g>
								
									<ellipse transform="matrix(0.2589 -0.9659 0.9659 0.2589 207.5234 553.6744)" class="st5" cx="464.6" cy="141.6" rx="2.3" ry="2.3"/>
							</g>
						</g>
					</g>
				</g>
			</g>
		</g>
		<g id="logo_5_">
			<g>
				<g>
					<g>
						<g>
							<ellipse class="st4" cx="337.1" cy="351.4" rx="24.2" ry="24.2"/>
						</g>
					</g>
				</g>
			</g>
			<g>
				<g>
					<g>
						<g>
							<g>
								<g>
									<path class="st5" d="M320.3,356.2c-0.1,0-0.1-0.1-0.2-0.1c-0.3-0.2-0.3-0.6-0.2-0.9l10.7-15.5c0.2-0.3,0.6-0.3,0.9-0.2
										c0.3,0.2,0.3,0.6,0.2,0.9L321,356C320.9,356.2,320.6,356.2,320.3,356.2z"/>
								</g>
							</g>
						</g>
					</g>
					<g>
						<g>
							<g>
								<g>
									<path class="st5" d="M335.8,358.9c-0.3,0-0.5-0.2-0.5-0.5l-4.8-18.3c-0.1-0.3,0.1-0.7,0.5-0.8c0.3-0.1,0.7,0.1,0.8,0.5
										l4.8,18.3c0.1,0.3-0.1,0.7-0.5,0.8C335.9,359,335.9,359,335.8,358.9z"/>
								</g>
							</g>
						</g>
					</g>
					<g>
						<g>
							<g>
								<g>
									<path class="st5" d="M335.8,358.9c-0.1,0-0.1-0.1-0.2-0.1c-0.3-0.2-0.3-0.6-0.2-0.9l10.7-15.5c0.2-0.3,0.6-0.3,0.9-0.2
										c0.3,0.2,0.3,0.6,0.2,0.9l-10.7,15.5C336.3,358.9,336,359,335.8,358.9z"/>
								</g>
							</g>
						</g>
					</g>
					<g>
						<g>
							<g>
								<g>
									<path class="st5" d="M351.3,361.7c-0.3,0-0.5-0.2-0.5-0.5l-4.8-18.3c-0.1-0.3,0.1-0.7,0.5-0.8c0.3-0.1,0.7,0.1,0.8,0.5
										l4.8,18.3c0.1,0.3-0.1,0.7-0.5,0.8C351.4,361.7,351.4,361.7,351.3,361.7z"/>
								</g>
							</g>
						</g>
					</g>
				</g>
				<g>
					<g>
						<g>
							<g>
								<ellipse class="st5" cx="320.3" cy="356.4" rx="2.3" ry="2.3"/>
							</g>
						</g>
					</g>
				</g>
				<g>
					<g>
						<g>
							<g>
								<ellipse class="st5" cx="335.8" cy="359.1" rx="2.3" ry="2.3"/>
							</g>
						</g>
					</g>
				</g>
				<g>
					<g>
						<g>
							<g>
								<ellipse class="st5" cx="351.3" cy="361.8" rx="2.3" ry="2.3"/>
							</g>
						</g>
					</g>
				</g>
			</g>
		</g>
		<g id="logo_4_">
			<g>
				<g>
					<g>
						<g>
							
								<ellipse transform="matrix(0.4348 -0.9005 0.9005 0.4348 20.2021 472.2318)" class="st4" cx="386.3" cy="220" rx="24.2" ry="24.2"/>
						</g>
					</g>
				</g>
			</g>
			<g>
				<g>
					<g>
						<g>
							<g>
								<g>
									<path class="st5" d="M370.1,226.6c-0.1,0-0.1-0.1-0.2-0.1c-0.3-0.2-0.4-0.5-0.2-0.8l8.9-16.7c0.2-0.3,0.5-0.4,0.8-0.2
										s0.4,0.5,0.2,0.8l-8.9,16.7C370.6,226.6,370.4,226.6,370.1,226.6z"/>
								</g>
							</g>
						</g>
					</g>
					<g>
						<g>
							<g>
								<g>
									<path class="st5" d="M385.8,227.7c-0.3,0-0.5-0.1-0.5-0.4l-6.8-17.6c-0.1-0.3,0-0.6,0.3-0.8c0.3-0.1,0.6,0,0.8,0.3
										l6.8,17.6c0.1,0.3,0,0.6-0.3,0.8C385.9,227.6,385.8,227.7,385.8,227.7z"/>
								</g>
							</g>
						</g>
					</g>
					<g>
						<g>
							<g>
								<g>
									<path class="st5" d="M385.8,227.6c-0.1,0-0.1-0.1-0.2-0.1c-0.3-0.2-0.4-0.5-0.2-0.8l8.9-16.7c0.2-0.3,0.5-0.4,0.8-0.2
										s0.4,0.5,0.2,0.8l-8.9,16.7C386.3,227.5,386,227.6,385.8,227.6z"/>
								</g>
							</g>
						</g>
					</g>
					<g>
						<g>
							<g>
								<g>
									<path class="st5" d="M401.5,228.5c-0.3,0-0.5-0.1-0.5-0.4l-6.8-17.5c-0.1-0.3,0-0.6,0.3-0.8c0.3-0.1,0.6,0,0.8,0.3
										l6.8,17.6c0.1,0.3,0,0.6-0.3,0.8C401.6,228.5,401.5,228.6,401.5,228.5z"/>
								</g>
							</g>
						</g>
					</g>
				</g>
				<g>
					<g>
						<g>
							<g>
								
									<ellipse transform="matrix(6.034476e-02 -0.9982 0.9982 6.034476e-02 121.4389 582.4752)" class="st5" cx="370.1" cy="226.7" rx="2.3" ry="2.3"/>
							</g>
						</g>
					</g>
				</g>
				<g>
					<g>
						<g>
							<g>
								
									<ellipse transform="matrix(6.034476e-02 -0.9982 0.9982 6.034476e-02 135.1642 598.9652)" class="st5" cx="385.7" cy="227.7" rx="2.3" ry="2.3"/>
							</g>
						</g>
					</g>
				</g>
				<g>
					<g>
						<g>
							<g>
								
									<ellipse transform="matrix(6.034476e-02 -0.9982 0.9982 6.034476e-02 148.9702 615.6025)" class="st5" cx="401.5" cy="228.7" rx="2.3" ry="2.3"/>
							</g>
						</g>
					</g>
				</g>
			</g>
		</g>
		<g id="logo_3_">
			<g>
				<g>
					<g>
						<g>
							<ellipse class="st4" cx="371.5" cy="135.1" rx="21.5" ry="21.5"/>
						</g>
					</g>
				</g>
			</g>
			<g>
				<g>
					<g>
						<g>
							<g>
								<g>
									<path class="st5" d="M357.2,141c-0.1,0-0.1-0.1-0.2-0.1c-0.3-0.2-0.4-0.5-0.2-0.7l7.9-14.8c0.2-0.3,0.5-0.4,0.7-0.2
										c0.3,0.2,0.4,0.5,0.2,0.7l-7.9,14.8C357.6,140.9,357.3,141,357.2,141z"/>
								</g>
							</g>
						</g>
					</g>
					<g>
						<g>
							<g>
								<g>
									<path class="st5" d="M371.1,141.9c-0.2,0-0.4-0.2-0.5-0.4l-6.1-15.6c-0.1-0.2,0-0.6,0.3-0.7c0.2-0.1,0.6,0,0.7,0.3
										l6.1,15.6c0.1,0.2,0,0.6-0.3,0.7C371.2,141.8,371.1,141.9,371.1,141.9z"/>
								</g>
							</g>
						</g>
					</g>
					<g>
						<g>
							<g>
								<g>
									<path class="st5" d="M371.1,141.9c-0.1,0-0.1-0.1-0.2-0.1c-0.3-0.2-0.4-0.5-0.2-0.7l7.9-14.8c0.2-0.3,0.5-0.4,0.7-0.2
										s0.4,0.5,0.2,0.7l-7.9,14.8C371.5,141.7,371.3,141.8,371.1,141.9z"/>
								</g>
							</g>
						</g>
					</g>
					<g>
						<g>
							<g>
								<g>
									<path class="st5" d="M385,142.7c-0.2,0-0.4-0.2-0.5-0.4l-6.1-15.6c-0.1-0.2,0-0.6,0.3-0.7c0.2-0.1,0.6,0,0.7,0.3l6.1,15.6
										c0.1,0.2,0,0.6-0.3,0.7C385.2,142.6,385.1,142.7,385,142.7z"/>
								</g>
							</g>
						</g>
					</g>
				</g>
				<g>
					<g>
						<g>
							<g>
								<ellipse class="st5" cx="357.1" cy="141.1" rx="2.1" ry="2.1"/>
							</g>
						</g>
					</g>
				</g>
				<g>
					<g>
						<g>
							<g>
								<ellipse class="st5" cx="371.1" cy="142" rx="2.1" ry="2.1"/>
							</g>
						</g>
					</g>
				</g>
				<g>
					<g>
						<g>
							<g>
								<ellipse class="st5" cx="385.1" cy="142.8" rx="2.1" ry="2.1"/>
							</g>
						</g>
					</g>
				</g>
			</g>
		</g>
	</g>
</g>
<g id="large_man">
	<g id="pants">
		<g id="shadow_1_">
			<path class="st6" d="M400.2,597.3c-1.1,48.2-68.5,18.7-93.2,10.3c-60.9-20.6-122.7-43.3-185.8-19.8c-0.7,0.3-1.5,0.6-2.2,0.8
				c-8.7,3.2-17.5,6.4-26.7,7.5c-20.8,2.5-72.6-13.9-74.5-39.7c-1.6-22.1,64.4-31.9,77.8-34.8c39.6-8.5,79.8-15.4,120.4-16.4
				c28.4-0.8,55.5,8.1,81.5,18.9c25.1,10.4,49.7,23.3,71.8,39C378.8,570,400.5,583.4,400.2,597.3z"/>
		</g>
		<g id="bg_1_">
			<g>
				<polygon class="st5" points="101.6,395.3 199.4,407.2 212.5,308.3 121.2,279.5 				"/>
			</g>
		</g>
		<g id="pants_1_">
			<g>
				<g>
					<path class="st5" d="M170.6,386.4c0,0,0.8,47.9-1.1,53.1c-9.1,25.5-85.3,104.9-85.3,104.9l-42.9-31.9l1.8-2.2l-1.8,2.2
						c0.1-0.1,0.1-0.1,0.2-0.2c5.7-7.1,11.3-14.3,17-21.4c9.4-11.8,18.8-23.7,28.1-35.5c3.6-4.5,7.2-9.1,10.8-13.6
						c1.2-1.6,3.2-3.1,4-4.9c0.7-1.7,0-7.7-0.4-11.1c-0.5-5-1-10.1-1.5-15.1c-1-10-1.6-20-2.6-29.9l-3.3-43.5
						c-1-12.5,5.6-27.7,7.7-38.6"/>
				</g>
				<g>
					<path class="st7" d="M84.5,545.7c0.2-0.1,0.5-0.2,0.7-0.4c3.1-3.2,76.5-79.9,85.6-105.4c1.9-5.2,1.2-48.6,1.2-53.6
						c0-0.8-0.6-1.4-1.4-1.3c-0.8,0-1.4,0.7-1.4,1.4c0.3,19.2,0.3,49-1,52.6c-8.4,23.5-75.7,94.6-84.1,103.5l-40.7-30.3l0.9-1.1
						c0.1-0.1,0.2-0.2,0.2-0.3l54-68.2c0.4-0.5,0.8-1,1.3-1.5c1.1-1.2,2.3-2.4,2.8-3.8c0.7-1.7,0.3-5.9-0.2-10.8l-0.4-4.2
						c-0.4-3.9-0.8-7.9-1.2-11.8c-0.5-5.3-0.9-10.6-1.4-15.8c-0.4-4.6-0.8-9.4-1.2-14.1L95,337c-0.6-8.1,2.1-17.8,4.6-26.3
						c1.2-4.3,2.4-8.3,3.1-11.9c0.1-0.7-0.4-1.5-1.1-1.6c-0.8-0.1-1.5,0.4-1.6,1.1c-0.7,3.5-1.8,7.5-3,11.7
						c-2.5,8.7-5.4,18.6-4.7,27.2l3.3,43.5c0.4,4.7,0.8,9.5,1.2,14.1c0.4,5.2,0.9,10.6,1.4,15.8c0.4,3.9,0.8,7.9,1.2,11.8l0.4,4.2
						c0.3,2.7,0.8,8.3,0.4,9.6c-0.4,1-1.3,2-2.3,2.9c-0.5,0.5-1,1.1-1.5,1.7l-56,70.7c0,0,0,0.1-0.1,0.1c-0.4,0.6-0.3,1.4,0.3,1.9
						c0.1,0.1,0.2,0.1,0.3,0.2l42.6,31.7C83.7,545.7,84.1,545.8,84.5,545.7z"/>
				</g>
			</g>
		</g>
		<g id="leg">
			<g>
				<g>
					<path class="st5" d="M208.7,328.1c0,0,73.3,71.3,77.2,75.5c19.2,20.9,44.2,112,44.2,112L279,538.7l-1.1-2.7l1.2,2.8
						c-1.8-4.1-3.6-8.2-5.4-12.4c-9.3-21.1-19.3-41.9-27.6-63.4c-1.5-4-2.9-8.1-4.8-11.9c-1.6-3.3-4.2-5.2-7-7.6
						c-5.9-5-12-9.9-18.2-14.4c-12.7-9.2-26.1-17.4-40.5-23.8"/>
				</g>
				<g>
					<path class="st7" d="M279.4,540.2c0.1,0,0.1,0,0.2-0.1c0.1,0,0.2-0.1,0.3-0.2l50.8-23c0.6-0.3,1-1,0.8-1.7
						c-1-3.7-25.3-91.6-44.6-112.6c-3.9-4.2-74.2-72.7-77.2-75.6c-0.6-0.6-1.5-0.5-2,0c-0.6,0.6-0.5,1.5,0,2
						c0.7,0.7,73.3,71.3,77.1,75.5c17.6,19.1,40.5,99.4,43.6,110.2l-48.7,22l-0.6-1.4c-0.1-0.1-0.1-0.2-0.2-0.4l-4.1-9.2
						c-2.7-6.2-5.6-12.5-8.4-18.6c-6.6-14.5-13.4-29.6-19.2-44.7c-0.4-1-0.7-2-1.1-3c-1.1-3-2.3-6.1-3.7-9.1
						c-1.6-3.2-3.9-5.1-6.4-7.2l-0.9-0.8c-6.1-5.2-12.2-10-18.3-14.5c-13.6-9.9-27.3-17.9-40.7-23.9c-0.7-0.3-1.6,0-1.9,0.7
						c-0.3,0.7,0,1.6,0.7,1.9c13.3,5.9,26.8,13.9,40.2,23.6c6,4.4,12.1,9.2,18.1,14.3l0.9,0.8c2.4,2,4.4,3.7,5.7,6.3
						c1.4,2.8,2.5,5.7,3.6,8.8c0.4,1,0.7,2,1.1,3c5.8,15.2,12.7,30.3,19.3,44.9c2.8,6.1,5.6,12.4,8.4,18.6l5.4,12.3
						c0,0,0,0.1,0.1,0.1C278,540,278.7,540.3,279.4,540.2z"/>
				</g>
			</g>
		</g>
		<g id="shoe_2_">
			<g>
				<path class="st8" d="M285.1,559.8l-4.8-9.7c-2.8-5.7-0.5-12.7,5.2-15.5l45.8-22.8c5.7-2.8,12.7-0.5,15.5,5.2l4.8,9.7
					c2.8,5.7,0.5,12.7-5.2,15.5L300.7,565C295,567.8,287.9,565.5,285.1,559.8z"/>
			</g>
			<g>
				<path class="st7" d="M291.4,567c-3.3-1.1-6-3.4-7.5-6.5l-4.8-9.7c-1.5-3.1-1.8-6.6-0.7-10s3.4-6,6.5-7.5l45.8-22.8
					c6.4-3.2,14.3-0.6,17.5,5.9l4.8,9.7c1.5,3.1,1.8,6.6,0.7,10c-1.1,3.3-3.4,6-6.5,7.5l-45.8,22.8c-0.8,0.4-1.7,0.7-2.6,1
					C296.3,567.9,293.8,567.8,291.4,567z M331.9,513l-45.8,22.8c-2.4,1.2-4.2,3.3-5.1,5.9c-0.9,2.6-0.7,5.3,0.5,7.7l4.8,9.7
					c1.2,2.4,3.3,4.2,5.9,5.1c2.6,0.9,5.3,0.7,7.7-0.5l45.8-22.8c2.4-1.2,4.2-3.3,5.1-5.9c0.9-2.6,0.7-5.3-0.5-7.7l-4.8-9.7
					c-2.2-4.3-7-6.5-11.6-5.3C333.3,512.4,332.6,512.7,331.9,513z"/>
			</g>
		</g>
		<g id="waist_2_">
			<g>
				<path class="st9" d="M205.4,329.2c0.7-0.2,1.1-0.8,1-1.5c-0.1-0.8-0.8-1.3-1.6-1.2c-11,1.5-32.9,1.2-58.7-0.9
					c-22.8-1.8-42.6-4.7-47.1-6.7c-0.7-0.3-1.5,0-1.8,0.7s0,1.5,0.7,1.8c10,4.6,81.9,11.4,107.4,7.8
					C205.3,329.2,205.4,329.2,205.4,329.2z"/>
			</g>
		</g>
		<g id="shoe_1_">
			<g>
				<path class="st8" d="M22.9,524.8l6.7-8.5c3.9-5,11.2-5.9,16.3-2l40.3,31.5c5,3.9,5.9,11.2,2,16.3l-6.7,8.5
					c-3.9,5-11.2,5.9-16.3,2l-40.3-31.5C19.9,537.1,19,529.8,22.9,524.8z"/>
			</g>
			<g>
				<path class="st7" d="M64.3,573.7L24,542.2c-2.7-2.1-4.5-5.2-4.9-8.7s0.5-6.9,2.7-9.6l6.7-8.5c2.1-2.7,5.2-4.5,8.7-4.9
					s6.9,0.5,9.6,2.7L87,544.7c2.7,2.1,4.5,5.2,4.9,8.7s-0.5,6.9-2.7,9.6l-6.7,8.5c-1.8,2.4-4.3,3.9-7,4.6
					C71.8,577,67.6,576.3,64.3,573.7z M30.7,517.2l-6.7,8.5c-1.7,2.1-2.4,4.8-2.1,7.5s1.7,5.1,3.8,6.7L66,571.4
					c4.4,3.4,10.8,2.7,14.2-1.7l6.7-8.5c1.7-2.1,2.4-4.8,2.1-7.5s-1.7-5.1-3.8-6.8L45,515.4c-2.1-1.7-4.8-2.4-7.5-2.1
					c-0.4,0.1-0.9,0.1-1.3,0.2C34,514.2,32.1,515.4,30.7,517.2z"/>
			</g>
		</g>
	</g>
	<g id="top_7_">
		<path class="st5" d="M258.9,296c-4.6-15.7-3.5-32.3-3.1-48.5c0.4-15,0.8-29.7-8.7-42.4c-10.3-13.7-25.2-17.1-41.3-18.8
			c-4.9-0.5-9.7-1.3-14.5-1.9c-13.7-1.8-27.4-1.5-41.2-0.2c-3.2,0.3-6.3,0.7-9.5,1.1c-27.8,3.5-45.5,9.7-50,32.6
			c-7.1,35.3-17.1,90.6-2.4,99.5c28.2,16.9,102.1-5.1,102.1-5.1l2.2-0.6l26.3,9.7c0.6,0.3,4.1,0.4,4.7,0.5c6,1,8.8-2.8,9.9-8.9
			l3.2-16.9c0.2-0.6,0.3-1.3,0.2-2c0-6.1-5-11.1-11-11c-3.6,0.1-7.2,0-10.9,0.3c-3.5,0.2-7-0.4-10.5-0.3c-5.4,0.1-10.7,0.9-16.1,0.9
			c-8.4,0.1-16.8,0.5-25.2-0.5c-12.1-1.2-17.2-2.1-29.2-4.2"/>
		<path class="st7" d="M120,325.4c-12.6,0-24.3-1.8-32.5-6.6c-14.6-8.8-7.3-56,1.7-101.1c4.7-23.4,22.3-30.1,51.3-33.7
			c3.4-0.4,6.5-0.8,9.5-1.1c15.2-1.5,28.8-1.5,41.5,0.2c1.9,0.2,3.8,0.5,5.7,0.8c2.9,0.4,5.9,0.8,8.8,1.1
			c14.6,1.6,31.2,4.5,42.3,19.4c9.8,13,9.4,28.3,9,43.1v0.2c0,1.6-0.1,3.3-0.1,5c-0.4,14.3-0.9,29.1,3.1,43l-2.9,0.8
			c-4.2-14.4-3.7-29.4-3.3-44c0.1-1.7,0.1-3.3,0.1-4.9v-0.2c0.4-14.9,0.8-29.1-8.4-41.2c-9.4-12.5-22.9-16.3-40.3-18.2
			c-3-0.3-6-0.7-8.9-1.2c-1.9-0.3-3.8-0.5-5.6-0.8c-12.5-1.6-25.9-1.6-40.9-0.2c-3,0.3-6.1,0.7-9.4,1.1
			c-28.3,3.6-44.4,9.7-48.7,31.4c-4.9,24.4-17.8,89.1-3.1,97.9c11.2,6.7,32.2,8,60.6,3.6c21.7-3.3,40.1-8.8,40.3-8.8l2.7-0.7
			l26.7,9.9c0.5,0.1,2.5,0.3,3.3,0.3c0.5,0,0.9,0.1,1,0.1c3.1,0.5,6.8,0.1,8.3-7.7l3.2-17c0.1-0.5,0.2-1,0.2-1.5
			c0-2.7-1-5.1-2.8-6.9s-4.1-2.7-6.6-2.7c0,0,0,0-0.1,0c-1,0-2,0-3,0c-2.5,0-5.2,0.1-7.7,0.3c-2,0.1-4,0-5.9-0.1
			c-1.5-0.1-3.1-0.2-4.7-0.2c-2.5,0-5,0.3-7.5,0.4c-2.8,0.2-5.8,0.5-8.7,0.5c-1.3,0-2.5,0-3.8,0.1c-7.1,0.1-14.4,0.3-21.5-0.5
			c-12.1-1.2-17.1-2.1-29.2-4.2h-0.1l0.5-3h0.1c12,2.1,16.9,2.9,29,4.1c7,0.8,14.2,0.7,21.2,0.5c1.3,0,2.6,0,3.8-0.1
			c2.8,0,5.7-0.2,8.5-0.5c2.5-0.2,5.1-0.4,7.6-0.5c1.7,0,3.4,0.1,5,0.2c1.9,0.1,3.7,0.2,5.5,0.1c2.6-0.2,5.3-0.2,7.9-0.3
			c1,0,2,0,3,0c3.4,0,6.5,1.3,8.8,3.6c2.4,2.4,3.7,5.5,3.7,8.9c0,0.7-0.1,1.6-0.3,2.3l-3.2,16.8c-1.8,9.7-7.4,10.8-11.7,10.1
			c-0.1,0-0.4,0-0.8-0.1c-2.7-0.2-3.6-0.3-4.2-0.5l-25.8-9.5l-1.8,0.5C188.6,314.4,151.4,325.4,120,325.4z M219.5,320.1L219.5,320.1
			L219.5,320.1z"/>
	</g>
	<g id="logo_24_">
		<g>
			<g>
				<g>
					<circle class="st4" cx="179.1" cy="240.1" r="35.2"/>
				</g>
			</g>
		</g>
		<g>
			<g>
				<g>
					<g>
						<g>
							<path class="st5" d="M200.2,252.6l-9.3-25.8c-0.2-0.5,0.1-0.9,0.6-1.2c0.5-0.2,0.9,0.1,1.2,0.6L202,252
								c0.2,0.5-0.1,0.9-0.6,1.2c-0.1,0-0.2,0.1-0.3,0C200.6,253.2,200.3,252.9,200.2,252.6z"/>
						</g>
					</g>
				</g>
				<g>
					<g>
						<g>
							<path class="st5" d="M177.9,251.1c-0.4-0.2-0.6-0.7-0.4-1.3l13.4-24c0.2-0.4,0.7-0.6,1.3-0.4c0.4,0.2,0.6,0.7,0.4,1.3
								l-13.4,24c-0.1,0.3-0.5,0.5-0.9,0.5C178,251.3,177.9,251.2,177.9,251.1z"/>
						</g>
					</g>
				</g>
				<g>
					<g>
						<g>
							<path class="st5" d="M177.4,250.7l-9.3-25.8c-0.2-0.5,0.1-0.9,0.6-1.2c0.5-0.2,0.9,0.1,1.2,0.6l9.3,25.8
								c0.2,0.5-0.1,0.9-0.6,1.2c-0.1,0-0.2,0.1-0.3,0C177.9,251.2,177.5,251,177.4,250.7z"/>
						</g>
					</g>
				</g>
				<g>
					<g>
						<g>
							<path class="st5" d="M155.1,249.3c-0.4-0.2-0.6-0.7-0.4-1.3l13.4-24c0.2-0.4,0.7-0.6,1.3-0.4c0.4,0.2,0.6,0.7,0.4,1.3
								l-13.4,24c-0.1,0.3-0.5,0.5-0.9,0.5C155.3,249.3,155.2,249.3,155.1,249.3z"/>
						</g>
					</g>
				</g>
			</g>
			<g>
				<g>
					<g>
						
							<ellipse transform="matrix(8.331784e-02 -0.9965 0.9965 8.331784e-02 -68.2137 432.5443)" class="st5" cx="201" cy="253.3" rx="3.3" ry="3.4"/>
					</g>
				</g>
			</g>
			<g>
				<g>
					<g>
						
							<ellipse transform="matrix(8.331784e-02 -0.9965 0.9965 8.331784e-02 -87.3174 407.994)" class="st5" cx="178.1" cy="251.5" rx="3.3" ry="3.4"/>
					</g>
				</g>
			</g>
			<g>
				<g>
					<g>
						
							<ellipse transform="matrix(8.331784e-02 -0.9965 0.9965 8.331784e-02 -106.1717 383.7)" class="st5" cx="155.5" cy="249.6" rx="3.3" ry="3.4"/>
					</g>
				</g>
			</g>
		</g>
	</g>
	<g id="face_4_">
		<g>
			<g>
				<path class="st5" d="M142.8,160.8c0-0.8-2.1-0.4-2.5-0.5c-1.3-0.3-2.4-1.1-3.2-2c-1.2-1.2-2.2-2.8-3-4.6
					c-0.8-1.6-1.5-3.3-1.8-5.2c-0.6-4.7,1.7-14.3,6.4-13.7c1.4,0.1,1.8,0.6,2.9,1.4c0.2,0.1,3.5,2.8,3.4,3.1l1.6-12.3
					c2.3-18.2,16.7-31.8,31.9-30l15.8,1.8c15.2,1.8,25.6,18.1,23.3,36.3l-3.5,26.5c-2.3,18.2-16.7,31.8-31.9,30l-15.8-1.8
					C152.5,188.3,142.4,177.2,142.8,160.8z"/>
			</g>
			<g>
				<path class="st7" d="M182,193.2l-15.8-1.8l0,0c-14.9-1.7-24.9-13.6-24.9-29.6c-0.1,0-0.1,0-0.3,0.1c-0.5,0-0.9,0.1-1.2,0
					c-1.5-0.4-2.7-1.2-3.9-2.4c-1.6-1.6-2.6-3.6-3.3-5c-1.1-2.2-1.6-3.9-1.9-5.6c-0.6-4.1,0.9-10.8,3.7-13.7
					c1.2-1.3,2.7-1.8,4.3-1.6s2.1,0.7,3,1.3c0.2,0.1,0.4,0.2,0.5,0.3c0.2,0.3,0.9,0.6,1.5,1.2c0.4-3,0.9-7.2,1.2-9.3
					c2.4-19.1,17.5-33.1,33.5-31.2l15.8,1.8c6.8,0.9,13.1,4.4,17.6,10.2c5.8,7.4,8.4,17.6,6.9,27.7l-3.5,26.5
					c-2.2,16.7-14,29.6-27.7,31.3C186,193.3,184.1,193.4,182,193.2z M148.1,127.3c-1.2,9.3-1.6,11.5-1.6,12.1l0,0l0,0
					c0,0.1,0,0.1,0,0.1c-0.1,0.8-0.9,1.3-1.7,1c-0.5,0-0.8-0.4-1.1-0.8c-0.6-0.5-2.6-2.3-3-2.5c-0.2-0.1-0.4-0.4-0.6-0.5
					c-0.7-0.4-0.9-0.7-1.7-0.7c-0.2-0.1-0.9-0.1-1.8,0.7c-2.2,2.2-3.3,8-2.9,11.2c0.2,1.5,0.7,2.9,1.5,4.8s1.8,3.2,2.8,4.2
					c0.8,0.7,1.7,1.3,2.5,1.5c0.1,0,0.3-0.1,0.5,0c0.9-0.1,2.1,0,2.7,0.7c0.4,0.4,0.5,0.8,0.4,1.3c-0.3,15,8.7,26.1,22.3,27.6
					l15.8,1.8c14.4,1.7,28.1-11.3,30.3-28.7l3.5-26.5c1.3-9.5-1.1-18.8-6.5-25.5c-4.1-5.3-9.6-8.5-15.7-9.1L178,98.2
					c-1.7-0.2-3.5-0.2-5.1,0C160.7,100.1,150,111.9,148.1,127.3z M141.4,160.6L141.4,160.6L141.4,160.6z M143.5,139.2L143.5,139.2
					L143.5,139.2z M143.5,139.2L143.5,139.2L143.5,139.2z"/>
			</g>
		</g>
		<g>
			<g>
				<path class="st5" d="M193.3,169.9c-8.7,4.7-14.9,4.6-23.1-1.8"/>
			</g>
			<g>
				<path class="st7" d="M184.4,173.9c2.8-0.3,5.8-1.5,9.2-3.3c0.4-0.2,0.5-0.6,0.2-1c-0.2-0.4-0.6-0.5-1-0.2
					c-8.9,4.7-14.7,4.3-22.3-1.7c-0.4-0.2-0.8-0.1-1,0.1c-0.2,0.4-0.1,0.8,0.1,1C174.9,172.7,179.4,174.4,184.4,173.9z"/>
			</g>
		</g>
		<g>
			<g>
				<path class="st5" d="M190.9,148.4c0.1-4.4,3.4-8,7.5-8.1s7.4,3.4,7.4,7.8c0,0.5-0.1,0.9-0.1,1.4"/>
			</g>
			<g>
				<path class="st4" d="M205.9,150.3c0.3-0.1,0.5-0.3,0.6-0.6c0-0.5,0.2-1.1,0.1-1.5c0-2.4-0.9-4.6-2.5-6.2
					c-1.5-1.5-3.6-2.4-5.7-2.3c-4.5,0.1-8.3,4-8.2,8.8c0,0.5,0.3,0.7,0.8,0.7s0.7-0.3,0.7-0.8c0-3.9,3.2-7.2,6.9-7.3
					c1.6-0.1,3.3,0.6,4.5,1.8c1.4,1.3,2.1,3.1,2.1,5.3c0,0.5-0.1,0.9-0.2,1.2c0,0.5,0.2,0.7,0.6,0.8
					C205.7,150.3,205.7,150.3,205.9,150.3z"/>
			</g>
		</g>
		<g>
			<g>
				<path class="st5" d="M158.9,147c0.1-4.4,3.4-8,7.5-8.1c4.1,0,7.4,3.4,7.4,7.8c0,0.5-0.1,0.9-0.1,1.4"/>
			</g>
			<g>
				<path class="st4" d="M173.8,148.8c0.3-0.1,0.5-0.3,0.6-0.6c0-0.5,0.2-1.1,0.1-1.5c0-2.4-0.9-4.6-2.5-6.2
					c-1.5-1.5-3.6-2.4-5.7-2.3c-4.5,0.1-8.3,4-8.2,8.8c0,0.5,0.3,0.7,0.8,0.7s0.7-0.3,0.7-0.8c0-3.9,3.2-7.2,6.9-7.3
					c1.6-0.1,3.3,0.6,4.5,1.8c1.4,1.3,2.1,3.1,2.1,5.3c0,0.5-0.1,0.9-0.2,1.2c0,0.5,0.2,0.7,0.6,0.8
					C173.7,148.9,173.8,148.8,173.8,148.8z"/>
			</g>
		</g>
		<g>
			<g>
				<path class="st8" d="M224.7,79.5c16.2,22,0.7,45.4-6.9,60.9c0.9-36.1-13.4-30.3-24.4-31.5c-7.6-0.8-22.3-8.5-34.3-1.4
					c-11.8,7.2-13,25.2-14.9,28.6c-1.2-0.2-4.7-0.9-5.6-4c-4.9-17.9,2.5-76.7,55.3-55.1C204.6,81.6,212.4,89.7,224.7,79.5z"/>
			</g>
			<g>
				<path class="st7" d="M217.5,141.9c-0.6-0.2-1.1-0.8-1.1-1.4c0.4-13.5-1.4-22-5.4-26.1c-3.4-3.5-7.9-3.6-12.7-3.6
					c-1.7-0.1-3.3,0-4.9-0.2c-2-0.3-4.6-0.9-7.3-1.6c-7.9-2.1-17.7-4.9-25.9,0.2c-8.3,5.1-11.1,16.1-12.7,22.8
					c-0.6,2.6-1.1,4.3-1.6,5.4c-0.3,0.5-0.9,0.8-1.5,0.8c-0.9-0.1-5.8-0.9-6.9-5.1c-3.2-12-1.2-40.2,14.4-53.9
					c10.5-9.4,25-10.2,42.8-3l0,0c2.2,0.9,4.4,2,6.4,3.1c7.7,4,13.9,7.1,22.9-0.4c0.3-0.2,0.7-0.3,1.1-0.3c0.5,0,0.8,0.3,1,0.5
					c14.9,20.3,3.9,41.5-4,57.1c-0.9,1.9-1.9,3.6-2.7,5.3c-0.2,0.5-0.6,0.7-1.2,0.9C217.8,141.9,217.7,142,217.5,141.9z M199.6,81.5
					c-2-1-4-2.1-6.1-3l0,0c-16.8-6.9-30.2-6.1-39.9,2.5c-14.5,12.7-16.4,39.8-13.4,50.9c0.4,1.6,2.2,2.4,3.3,2.7
					c0.2-1,0.7-2.3,1-3.7c1.7-7,4.6-18.9,14-24.6c9.3-5.6,20.2-2.7,28.3-0.4c2.7,0.7,5.1,1.4,6.9,1.6c1.5,0.1,3.1,0.2,4.7,0.1
					c5,0.1,10.6,0.1,14.8,4.5c4,4.1,5.9,11.2,6.1,22.1c7.5-14.6,17.5-34.2,5-52.6C214.5,89.1,207.3,85.3,199.6,81.5z M194.1,77.2
					L194.1,77.2L194.1,77.2z"/>
			</g>
		</g>
	</g>
	<g id="glass_3_">
		<g>
			<polygon class="st7" points="310.1,232.6 279.7,258.8 293.3,274.7 323.8,248.4 			"/>
		</g>
		<g>
			<path class="st7" d="M321.7,94.9c-46.2,39.9-51.4,109.6-11.5,155.9s109.6,51.4,155.9,11.5c46.2-39.8,51.4-109.6,11.5-155.9
				S367.9,55,321.7,94.9z M330.8,105.5c40.4-34.8,101.4-30.3,136.2,10.1s30.3,101.4-10.1,136.2c-40.4,34.9-101.4,30.4-136.2-10.1
				C285.9,201.3,290.4,140.4,330.8,105.5z"/>
		</g>
		<g>
			<path class="st7" d="M140,380.3l6.3,7.3l0,0l6.3,7.3c6.4,7.4,17.4,8.2,24.8,1.8l118.8-102.5c7.4-6.3,8.2-17.4,1.8-24.7l-6.3-7.3
				l0,0l-6.3-7.3c-6.4-7.4-17.4-8.2-24.8-1.8L141.8,355.6C134.5,361.9,133.7,373,140,380.3z"/>
		</g>
		<g class="st10">
			<path class="st11" d="M478.9,224.7c19.5-36.3,13.3-79.5-12.1-108.9c-41.8-11.5-87.4,6.7-108.7,46.5
				c-20.1,37.4-12.5,82.4,15.8,111.2C414.8,282.1,458.2,263.4,478.9,224.7z"/>
		</g>
	</g>
	<g>
		<path class="st5" d="M227.5,283.2c-1.3-0.4-2.6-0.6-3.7-0.7c-0.1,0.1-0.2,0-0.3,0c-13.5-0.9-19,1.8-31.1,2.3l-2.8,26.2l26.8,10.7
			c0.3,0.1,0.6,0.2,1,0.3c0.4,0.1,0.8,0.1,1.2,0.3c7.5,1.7,14.6-1.8,15.9-8l3.4-17.2c0.1-0.7,0.2-1.3,0.2-2
			C237.7,289.7,233.3,284.9,227.5,283.2L227.5,283.2z"/>
		<path class="st7" d="M222.2,324.1c-1.3,0-2.7-0.2-4.1-0.5H218c-0.1,0-0.3-0.1-0.4-0.1c-0.2,0-0.5-0.1-0.8-0.2l-1-0.3h-0.1
			l-26.8-10.7c-0.6-0.2-1-0.9-0.9-1.6l2.8-26.2c0.1-0.7,0.7-1.3,1.4-1.3c4.8-0.2,8.5-0.7,12.1-1.3c5.6-0.8,10.9-1.6,19.2-1h0.1
			c0.1,0,0.2,0,0.3,0c1.1,0.1,2.5,0.4,4,0.8c6.6,2,11.2,7.3,11.5,13.1c0,0.9-0.1,1.6-0.2,2.3l-3.5,17.3c-0.6,3-2.5,5.5-5.2,7.3
			C228.2,323.3,225.3,324.1,222.2,324.1z M218.8,320.7c3.7,0.8,7.4,0.3,10.2-1.5c2-1.3,3.4-3.2,3.8-5.3l3.4-17.2
			c0.1-0.5,0.1-1.1,0.1-1.7c-0.2-4.5-4-8.7-9.3-10.3l0,0c-1.1-0.3-2.3-0.5-3.2-0.7c-0.3,0-0.5,0-0.7,0c-7.9-0.5-13,0.2-18.4,1
			c-3.4,0.5-6.8,1-11.1,1.2L191,310l25.7,10.3l0.9,0.3c0.2,0,0.3,0.1,0.4,0.1C218.3,320.6,218.6,320.6,218.8,320.7z"/>
	</g>
	<g>
		<path class="st5" d="M243.6,307.4c0.8,0.9,1.8,1.6,2.6,2.2c0.1,0,0.2,0.1,0.3,0.1c6.8,4.1,15.5,10.4,23.8,9.5
			c2.6-0.3,5.1-1.4,7.4-2.7c2.6-1.5,5.1-3.3,7-5.7c8.2-10.8-4.1-25.1-12.6-31.5c-0.2-0.2-0.4-0.4-0.6-0.6c-0.3-0.3-0.5-0.4-0.8-0.7
			c-5.1-4.5-12.6-4.5-16.8,0.3l-11.5,13.3c-0.4,0.5-0.8,1.1-1.2,1.7C238.8,297.6,239.9,303.4,243.6,307.4z"/>
		<path class="st7" d="M268.7,320.8c-7.2,0-14.4-4.5-20.3-8.2c-0.9-0.6-1.8-1.1-2.7-1.7c0,0,0,0-0.1,0s-0.2-0.1-0.3-0.2
			c-0.8-0.6-1.9-1.4-2.8-2.3l0,0c-4.3-4.5-5.4-10.9-2.7-16c0.4-0.7,0.9-1.3,1.3-1.9l11.6-13.3c4.7-5.3,13.2-5.5,18.9-0.4l0.1,0.1
			c0.1,0.1,0.2,0.2,0.3,0.2c0.2,0.1,0.4,0.3,0.6,0.5l0.5,0.6c6.5,4.9,14.4,13.7,15.7,22.4c0.6,4.1-0.4,7.9-2.8,11.1
			c-1.7,2.3-4.1,4.2-7.4,6.1c-1.9,1.1-4.8,2.6-8,2.9C269.9,320.7,269.3,320.8,268.7,320.8z M247.4,308.5c0.8,0.5,1.7,1.1,2.6,1.6
			c6,3.7,13.4,8.4,20.1,7.6c2.7-0.3,5.2-1.6,6.8-2.5c3-1.7,5.1-3.4,6.5-5.3c2-2.6,2.7-5.6,2.3-8.9c-1-7.4-8.1-15.6-14.6-20.5
			c-0.1,0-0.1-0.1-0.2-0.2l-0.6-0.6c-0.1-0.1-0.2-0.2-0.3-0.2c-0.2-0.1-0.3-0.3-0.5-0.4c-4.5-3.9-11.1-3.9-14.6,0.2l-11.5,13.3
			c-0.3,0.4-0.7,0.9-1,1.4c-2.1,3.9-1.2,9,2.2,12.5c0.7,0.7,1.5,1.3,2.2,1.8C247.1,308.2,247.3,308.3,247.4,308.5z M246.2,311
			L246.2,311L246.2,311z"/>
	</g>
</g>
<g id="small_man">
	<g id="shadow">
		<path class="st6" d="M643.2,340.7c-4.3,24.3,23.5,18.8,38.6,16.1c22.7-4,45.5-10.4,68.8-9.2c11.5,0.6,23.2,3.1,33,9.3
			c10.5,6.7,18.1,12.9,31.8,11.7c16.6-1.4,39.7-15.3,21.8-30.5c-10.9-9.3-26.1-13.5-39.2-18.8c-30.8-12.5-59.4-21.6-92.4-12.7
			C691.2,310.6,646.5,322,643.2,340.7z"/>
	</g>
	<g id="bg_3_">
		<g>
			<polygon class="st5" points="805.1,246.9 746.1,243.1 749.3,183.3 806.4,176.4 			"/>
		</g>
	</g>
	<g id="left_leg">
		<g>
			<g>
				<path class="st5" d="M765.4,234c0,0-5.8,28.2-5.2,31.5c2.6,16.1,38.8,71.4,38.8,71.4l28.9-14.1l-0.8-1.5l0.8,1.5
					c0,0,0-0.1-0.1-0.1c-2.6-4.8-5.1-9.7-7.7-14.5c-4.2-8-8.5-16.1-12.7-24.1c-1.6-3.1-3.2-6.1-4.9-9.2c-0.6-1.1-1.6-2.2-1.8-3.4
					c-0.2-1.1,0.9-4.5,1.4-6.5c0.9-2.9,1.7-5.8,2.6-8.8c1.7-5.8,3.2-11.6,4.8-17.4l6.8-25.3c1.9-7.2-0.3-17-0.3-23.6"/>
			</g>
			<g>
				<path class="st7" d="M798.5,337.6c-0.1-0.1-0.3-0.2-0.4-0.3c-1.5-2.3-36.3-55.6-38.9-71.7c-0.5-3.3,4.7-28.9,5.3-31.8
					c0.1-0.4,0.5-0.7,1-0.6c0.5,0.1,0.7,0.5,0.7,1c-2.3,11.3-5.6,28.9-5.2,31.2c2.3,14.8,34.2,64.3,38.2,70.4l27.4-13.4l-0.4-0.8
					c0-0.1-0.1-0.1-0.1-0.2l-24.4-46.3c-0.2-0.3-0.4-0.7-0.6-1c-0.5-0.8-1.1-1.6-1.3-2.6c-0.2-1.1,0.5-3.5,1.3-6.4l0.7-2.4
					c0.7-2.3,1.3-4.6,2-6.9c0.9-3,1.7-6.2,2.6-9.2c0.7-2.7,1.5-5.5,2.3-8.2l6.8-25.3c1.3-4.7,0.7-10.7,0.2-16
					c-0.3-2.7-0.5-5.2-0.5-7.4c0-0.5,0.4-0.8,0.8-0.8c0.5,0,0.8,0.4,0.8,0.8c0,2.1,0.2,4.6,0.5,7.2c0.5,5.4,1.1,11.6-0.3,16.6
					l-6.8,25.3c-0.8,2.7-1.5,5.5-2.3,8.2c-0.8,3-1.7,6.1-2.6,9.2c-0.7,2.3-1.3,4.6-2,6.9l-0.7,2.4c-0.5,1.6-1.4,4.8-1.3,5.6
					c0.1,0.6,0.6,1.3,1,2c0.2,0.4,0.5,0.8,0.7,1.2l25.2,48c0,0,0,0,0,0.1c0.2,0.4,0,0.9-0.4,1.1c-0.1,0-0.1,0.1-0.2,0.1l-28.7,14
					C799,337.7,798.8,337.7,798.5,337.6z"/>
			</g>
		</g>
	</g>
	<g>
		<g>
			<g>
				<path class="st5" d="M749.3,195.4c0,0-51.2,34-53.9,36c-13.7,10.2-38.5,61.2-38.5,61.2l27.6,19.3l1-1.5l-1,1.5
					c1.5-2.2,3.1-4.5,4.6-6.7c7.8-11.4,16.1-22.6,23.3-34.4c1.4-2.2,2.6-4.4,4.2-6.5c1.3-1.7,3.1-2.6,5-3.7c4-2.3,8.1-4.5,12.4-6.5
					c8.5-4,17.4-7.4,26.5-9.6"/>
			</g>
			<g>
				<path class="st7" d="M684.1,312.8c0,0-0.1,0-0.1-0.1c-0.1,0-0.1-0.1-0.2-0.1l-27.5-19.2c-0.4-0.2-0.5-0.7-0.3-1.1
					c1-2.1,25.1-51.3,38.8-61.5c2.8-2.1,51.9-34.7,54-36.1c0.4-0.3,0.9-0.2,1.2,0.2s0.2,0.9-0.2,1.2c-0.5,0.3-51.2,34-53.9,36
					c-12.5,9.4-35,54.2-37.9,60.2l26.3,18.4l0.5-0.7c0-0.1,0.1-0.1,0.2-0.2l3.4-5c2.3-3.4,4.7-6.8,7-10.1c5.5-7.9,11.2-16,16.3-24.3
					c0.3-0.5,0.7-1.1,1-1.6c1-1.7,2-3.4,3.2-5c1.3-1.7,2.9-2.6,4.6-3.6l0.6-0.4c4.2-2.4,8.3-4.6,12.4-6.5c9.1-4.3,18.1-7.6,26.7-9.6
					c0.5-0.1,0.9,0.2,1,0.6c0.1,0.5-0.2,0.9-0.6,1c-8.5,2-17.4,5.2-26.4,9.5c-4,1.9-8.2,4.1-12.3,6.5l-0.6,0.4
					c-1.6,0.9-3,1.7-4.1,3.1c-1.2,1.5-2.1,3.1-3.1,4.8c-0.3,0.5-0.7,1.1-1,1.6c-5.1,8.3-10.8,16.5-16.3,24.4
					c-2.3,3.3-4.7,6.7-7,10.1l-4.6,6.7c0,0,0,0,0,0.1C684.9,312.8,684.5,312.9,684.1,312.8z"/>
			</g>
		</g>
	</g>
	<g id="shoe_6_">
		<g>
			<path class="st8" d="M678.5,323.7l3.9-5.2c2.3-3.1,1.7-7.4-1.4-9.8l-24.5-18.5c-3.1-2.3-7.4-1.7-9.8,1.4l-3.9,5.2
				c-2.3,3.1-1.7,7.4,1.4,9.8l24.5,18.5C671.8,327.4,676.2,326.8,678.5,323.7z"/>
		</g>
		<g>
			<path class="st7" d="M669.7,326.6c-0.5-0.2-1-0.5-1.4-0.9l-24.5-18.5c-1.7-1.3-2.7-3.1-3-5.2s0.2-4.1,1.5-5.8l3.9-5.2
				c2.6-3.4,7.5-4.1,11-1.5l24.5,18.5c1.7,1.3,2.7,3.1,3,5.2s-0.2,4.1-1.5,5.8l-3.9,5.2c-1.3,1.7-3.1,2.7-5.2,3
				C672.5,327.5,671,327.2,669.7,326.6z M655,290.2c-2.5-1.2-5.7-0.5-7.4,1.9l-3.9,5.2c-1,1.3-1.4,2.9-1.2,4.5s1.1,3,2.4,4
				l24.5,18.5c1.3,1,2.9,1.4,4.5,1.2c1.6-0.2,3-1.1,4-2.4l3.9-5.2c1-1.3,1.4-2.9,1.2-4.5s-1.1-3-2.4-4l-24.5-18.5
				C655.7,290.6,655.3,290.4,655,290.2z"/>
		</g>
	</g>
	<g id="waist_3_">
		<g>
			<path class="st9" d="M751.1,196.4c-0.4-0.2-0.6-0.6-0.4-1c0.1-0.4,0.6-0.7,1.1-0.5c6.3,2.1,19.3,4.4,34.8,6
				c13.7,1.4,25.7,2,28.6,1.3c0.4-0.1,0.9,0.2,1,0.6c0.1,0.4-0.2,0.9-0.6,1C809.1,205.3,765.9,201.3,751.1,196.4
				C751.2,196.4,751.2,196.4,751.1,196.4z"/>
		</g>
	</g>
	<g id="shoe_5_">
		<g>
			<path class="st8" d="M837.2,332.1l-3-5.8c-1.8-3.4-6-4.7-9.4-3l-27.3,14.1c-3.4,1.8-4.7,6-3,9.4l3,5.8c1.8,3.4,6,4.7,9.4,3
				l27.3-14.1C837.7,339.7,839,335.5,837.2,332.1z"/>
		</g>
		<g>
			<path class="st7" d="M800.5,356.5c-1.5-0.7-2.8-1.9-3.7-3.5l-3-5.8c-1-1.9-1.1-4-0.5-6s2-3.6,3.9-4.6l27.3-14.1
				c1.9-1,4-1.1,6-0.5s3.6,2,4.6,3.9l3,5.8c1,1.9,1.1,4,0.5,6s-2,3.6-3.9,4.6l-27.3,14.1C805.1,357.6,802.6,357.5,800.5,356.5z
				 M830.6,324c-0.2-0.1-0.5-0.2-0.7-0.3c-1.6-0.5-3.2-0.4-4.6,0.4L798,338.3c-1.4,0.7-2.5,2-3,3.6s-0.4,3.2,0.4,4.6l3,5.8
				c1.5,3,5.2,4.2,8.2,2.6l27.3-14.1c1.4-0.7,2.5-2,3-3.6s0.4-3.2-0.4-4.7l-3-5.8C832.8,325.5,831.9,324.6,830.6,324z"/>
		</g>
	</g>
	<g id="top_1_">
		<path class="st5" d="M804.5,176.5c-7.4-0.3-10.6-0.4-18-1.2c-5.1-0.5-10.1-1.8-15.1-2.9c-3.2-0.7-6.3-1.8-9.5-2.6
			c-2.1-0.5-4.2-0.6-6.3-1.1c-2.2-0.6-4.3-1-6.5-1.6c-3.6-0.8-7.2,1.5-8,5.2c-0.1,0.4-0.2,0.8-0.1,1.2l-0.2,10.5
			c-0.1,3.8,1.1,6.4,4.8,6.6c0.4,0,2.5,0.4,2.9,0.3l16.9-2.5l1.2,0.6c0,0,41.4,22.5,60.4,15.9c9.9-3.5,10.9-37.8,11.1-59.8
			c0.2-14.3-9.6-20.2-25.8-25.8c-1.9-0.6-3.7-1.3-5.5-1.9c-8.1-2.5-16.2-4.4-24.7-5.1c-2.9-0.2-5.9-0.4-8.9-0.7
			c-9.8-1-19.2-0.9-27.1,6c-7.3,6.4-8.9,15.2-10.5,24.3c-1.8,9.7-3.2,19.8-8,28.6"/>
		<path class="st7" d="M766.4,189.9l-1-0.5l-16.6,2.4c-0.4,0-0.9,0-2.6-0.2c-0.3,0-0.4,0-0.5,0c-2.7-0.1-5.9-1.5-5.7-7.5l0.2-10.4
			c0-0.4,0-1,0.1-1.4c0.4-2,1.6-3.7,3.3-4.9c1.7-1.1,3.7-1.5,5.7-1c0.6,0.1,1.2,0.3,1.8,0.4c1.5,0.4,3.2,0.7,4.7,1.2
			c1.1,0.3,2.2,0.5,3.3,0.6c1,0.1,2,0.3,3,0.5c1.5,0.4,3,0.8,4.5,1.3c1.6,0.5,3.3,1,5,1.4c0.7,0.2,1.5,0.4,2.3,0.5
			c4.2,1,8.5,2,12.7,2.4c7.4,0.8,10.4,0.9,17.9,1.2l0.1,0l-0.1,1.9l-0.1,0c-7.5-0.3-10.6-0.4-18-1.2c-4.3-0.4-8.7-1.5-12.9-2.4
			c-0.8-0.2-1.5-0.4-2.3-0.5c-1.7-0.4-3.5-0.9-5.1-1.4c-1.5-0.4-2.9-0.9-4.4-1.2c-1-0.2-1.9-0.3-2.8-0.5c-1.1-0.2-2.4-0.4-3.5-0.7
			c-1.5-0.4-3.1-0.8-4.6-1.1c-0.6-0.1-1.2-0.3-1.8-0.4c-0.1,0-0.1,0-0.1,0c-1.5-0.3-3-0.1-4.3,0.8c-1.3,0.8-2.2,2.2-2.5,3.8
			c-0.1,0.3-0.1,0.6-0.1,0.9l-0.2,10.6c-0.1,4.9,2.1,5.6,4,5.6c0.1,0,0.3,0,0.6,0.1c0.5,0.1,1.7,0.2,2,0.2l17.2-2.6l1.5,0.8
			c0.1,0,10.4,5.6,23,10.3c16.4,6.2,29.1,8.1,36.7,5.5c9.9-3.4,10.3-43.7,10.5-58.9c0.2-13.5-8.7-19.2-25.2-24.9
			c-1.9-0.7-3.7-1.3-5.5-1.8c-8.8-2.7-16.8-4.4-24.5-5c-1.1,0-2.3-0.2-3.4-0.2c-1.8-0.1-3.6-0.2-5.5-0.4
			c-10.6-1.1-19.2-0.5-26.4,5.8c-7,6.1-8.6,14.6-10.2,23.6l0,0.1c-0.2,1-0.4,1.9-0.6,2.9c-1.6,8.8-3.2,17.8-7.5,25.9l-1.6-0.8
			c4.1-7.8,5.7-16.7,7.3-25.3c0.2-1,0.4-2,0.6-3l0-0.1c1.6-8.9,3.3-18.1,10.8-24.6c8.5-7.5,18.8-7.2,27.7-6.3
			c1.8,0.2,3.6,0.3,5.4,0.5c1.2,0.1,2.3,0.1,3.5,0.2c7.8,0.6,15.9,2.3,24.8,5.1c1.8,0.6,3.6,1.2,5.5,1.9c16.9,5.8,26.6,12,26.4,26.6
			c-0.3,28.1-1.9,57.2-11.7,60.6c-5.5,1.8-12.7,1.4-20.3-0.1C788.2,201.8,767.4,190.6,766.4,189.9z M748.2,190.1L748.2,190.1
			L748.2,190.1z"/>
	</g>
	<g id="logo_23_">
		<g>
			<g>
				<g>
					<circle class="st4" cx="776.6" cy="146.7" r="21.1"/>
				</g>
			</g>
		</g>
		<g>
			<g>
				<g>
					<g>
						<g>
							<path class="st5" d="M762.2,151.9c-0.1,0-0.1,0-0.2,0c-0.3-0.2-0.3-0.5-0.2-0.8l8.4-14.2c0.2-0.3,0.5-0.3,0.8-0.2
								c0.3,0.2,0.3,0.5,0.2,0.8l-8.4,14.2C762.6,151.9,762.4,152,762.2,151.9z"/>
						</g>
					</g>
				</g>
				<g>
					<g>
						<g>
							<path class="st5" d="M775.8,153.3c-0.2,0-0.4-0.2-0.5-0.4l-5.3-15.7c-0.1-0.3,0.1-0.6,0.4-0.7c0.3-0.1,0.6,0.1,0.7,0.4
								l5.3,15.7c0.1,0.3-0.1,0.6-0.4,0.7C776,153.4,776,153.4,775.8,153.3z"/>
						</g>
					</g>
				</g>
				<g>
					<g>
						<g>
							<path class="st5" d="M775.8,153.3c-0.1,0-0.1,0-0.2,0c-0.3-0.2-0.3-0.5-0.2-0.8l8.4-14.2c0.2-0.3,0.5-0.3,0.8-0.2
								c0.3,0.2,0.3,0.5,0.2,0.8l-8.4,14.2C776.3,153.3,776,153.4,775.8,153.3z"/>
						</g>
					</g>
				</g>
				<g>
					<g>
						<g>
							<path class="st5" d="M789.5,154.8c-0.2,0-0.4-0.2-0.5-0.4l-5.3-15.7c-0.1-0.3,0.1-0.6,0.4-0.7c0.3-0.1,0.6,0.1,0.7,0.4
								l5.3,15.7c0.1,0.3-0.1,0.6-0.4,0.7C789.6,154.8,789.6,154.7,789.5,154.8z"/>
						</g>
					</g>
				</g>
			</g>
			<g>
				<g>
					<g>
						<ellipse class="st5" cx="762.2" cy="152.1" rx="2" ry="2"/>
					</g>
				</g>
			</g>
			<g>
				<g>
					<g>
						<ellipse class="st5" cx="775.9" cy="153.4" rx="2" ry="2"/>
					</g>
				</g>
			</g>
			<g>
				<g>
					<g>
						<ellipse class="st5" cx="789.5" cy="154.9" rx="2" ry="2"/>
					</g>
				</g>
			</g>
		</g>
	</g>
	<g id="face_2_">
		<g>
			<g>
				<path class="st5" d="M789.7,118.5l-9.5-0.7c-9.2-0.6-16.2-10.2-15.5-21.2l0.9-16c0.6-11,8.6-19.5,17.8-18.9l9.5,0.7
					c9.2,0.6,16.2,10.2,15.5,21.2L808,91c0-0.2,2.3-1.4,2.4-1.5c0.7-0.4,1-0.6,1.9-0.5c2.8,0.2,3.1,6.1,2.2,8.8
					c-0.4,1.1-1,2-1.6,2.9c-0.7,0.9-1.4,1.8-2.3,2.4c-0.6,0.4-1.3,0.8-2.1,0.8c-0.3,0-1.4-0.4-1.5,0
					C805.2,113.6,798,119,789.7,118.5z"/>
			</g>
			<g>
				<path class="st7" d="M776.8,118c-7.9-2.5-13.4-11.4-12.9-21.5l0.9-16c0.3-6.2,2.9-11.8,7.2-15.6c3.3-2.9,7.4-4.3,11.5-4.1
					l9.5,0.7c9.7,0.6,17,10.6,16.3,22.1c-0.1,1.3-0.2,3.9-0.3,5.6c0.4-0.3,0.8-0.4,1-0.5c0.1,0,0.2-0.1,0.3-0.1
					c0.6-0.2,1-0.4,1.9-0.4c1,0,1.8,0.5,2.4,1.4c1.3,2,1.5,6.1,0.6,8.5c-0.3,1-0.8,1.9-1.7,3.1c-0.5,0.7-1.4,1.8-2.5,2.6
					c-0.8,0.6-1.7,0.9-2.6,1c-0.2,0-0.4-0.1-0.7-0.1c-0.1,0-0.1,0-0.2-0.1c-1.8,9.4-9,15.4-18,14.7l0,0l-9.5-0.7
					C778.8,118.6,777.7,118.3,776.8,118z M795.9,63.7c-0.9-0.3-2-0.5-3-0.6l-9.5-0.7c-3.6-0.3-7.3,1-10.3,3.6
					c-3.9,3.4-6.4,8.6-6.6,14.4l-0.9,16c-0.6,10.5,6,19.7,14.7,20.3l9.5,0.7c8.2,0.6,14.8-4.9,16.3-13.8c0-0.3,0.1-0.5,0.4-0.7
					c0.5-0.4,1.2-0.3,1.7-0.1c0.1,0,0.2,0,0.3,0c0.5-0.1,1.1-0.3,1.6-0.6c0.7-0.5,1.4-1.1,2.1-2.2c0.7-1,1.2-1.8,1.4-2.7
					c0.6-1.9,0.6-5.4-0.4-6.9c-0.4-0.6-0.9-0.7-1-0.6c-0.4-0.1-0.6,0-1.1,0.2c-0.1,0-0.3,0.2-0.4,0.2c-0.2,0.1-1.7,0.9-2,1.1
					c-0.2,0.2-0.5,0.4-0.7,0.4c-0.5,0.1-0.9-0.3-0.9-0.8c0,0,0,0,0-0.1l0,0l0,0c0.1-0.4,0.1-1.7,0.4-7.3
					C808,74.2,802.9,66,795.9,63.7z M807.6,103.9L807.6,103.9L807.6,103.9z M808.7,91L808.7,91L808.7,91z M808.7,91L808.7,91
					L808.7,91z"/>
			</g>
		</g>
		<g>
			<g>
				<path class="st5" d="M789.8,105.1c-5.5,2.9-9.2,2.3-13.8-1.5"/>
			</g>
			<g>
				<path class="st7" d="M790,105.6c0.2-0.1,0.3-0.4,0.2-0.6s-0.4-0.3-0.6-0.2c-5.1,2.7-8.6,2.3-13.3-1.5c-0.2-0.2-0.4-0.2-0.6,0
					s-0.2,0.4,0,0.6c1.8,1.4,3.5,2.5,5.1,3C783.7,107.9,786.5,107.4,790,105.6z"/>
			</g>
		</g>
		<g>
			<g>
				<path class="st5" d="M770.9,90.3c0-0.3,0-0.6,0.1-0.8c0.5-2.6,2.8-4.3,5.2-3.8s4,3,3.5,5.6"/>
			</g>
			<g>
				<path class="st4" d="M770.8,90.6c0.3,0,0.4-0.1,0.5-0.4c0-0.2,0-0.5,0-0.8c0.3-1.2,0.9-2.2,1.8-2.9C774,86,775,85.8,776,86
					c2.2,0.5,3.7,2.8,3.3,5.1c0,0.3,0.1,0.5,0.3,0.5s0.5-0.1,0.5-0.3c0.6-2.8-1.2-5.6-3.9-6.1c-1.2-0.3-2.5,0.1-3.6,0.7
					c-1.1,0.8-1.9,2-2.2,3.4c-0.1,0.2-0.1,0.6-0.1,0.9c0,0.2,0.1,0.3,0.3,0.4S770.8,90.7,770.8,90.6z"/>
			</g>
		</g>
		<g>
			<g>
				<path class="st5" d="M790,93c0-0.3,0-0.6,0.1-0.8c0.5-2.6,2.8-4.3,5.2-3.8s4,3,3.5,5.6"/>
			</g>
			<g>
				<path class="st4" d="M789.9,93.3c0.3,0,0.4-0.1,0.5-0.4c0-0.2,0-0.5,0-0.8c0.3-1.2,0.9-2.2,1.8-2.9c0.8-0.6,1.9-0.8,2.9-0.6
					c2.2,0.5,3.7,2.8,3.3,5.1c0,0.3,0.1,0.5,0.3,0.5c0.3,0,0.5-0.1,0.5-0.3c0.6-2.8-1.2-5.6-3.9-6.1c-1.2-0.3-2.5,0.1-3.6,0.7
					c-1.1,0.8-1.9,2-2.2,3.4c-0.1,0.2-0.1,0.6-0.1,0.9c0,0.2,0.1,0.3,0.3,0.4C789.8,93.4,789.9,93.4,789.9,93.3z"/>
			</g>
		</g>
		<g>
			<g>
				<path class="st8" d="M785.9,48.8c33.6-6.9,31.4,28.6,26.6,38.7c-0.9,1.7-3,1.8-3.7,1.7c-0.8-2.3,0.5-13-5.6-18.5
					c-6.3-5.5-15.8-2.6-20.4-3c-6.6-0.5-14.5-5.5-17.9,15.9c-2.8-10-9.3-25.6,2.7-36.7C773.6,54.2,779.1,50.2,785.9,48.8z"/>
			</g>
			<g>
				<path class="st7" d="M764.3,84.6c-0.3-0.1-0.5-0.3-0.6-0.6c-0.3-1.1-0.7-2.2-1-3.4c-2.9-10.1-7.1-23.8,4-34.1
					c0.2-0.1,0.4-0.2,0.7-0.2s0.5,0.1,0.6,0.3c4.5,5.4,8.5,4.3,13.5,2.8c1.3-0.4,2.8-0.8,4.1-1.1l0,0c11.3-2.3,19.7-0.2,24.9,6.5
					c7.7,9.8,5.7,26.7,2.5,33.4c-1.1,2.3-4.1,2.3-4.6,2.2c-0.4-0.1-0.6-0.3-0.8-0.6c-0.2-0.7-0.3-1.8-0.4-3.3
					c-0.2-4.1-0.6-11-5-14.9c-4.3-3.9-10.4-3.4-15.3-3c-1.7,0.1-3.3,0.2-4.5,0.2c-1,0-1.9-0.3-2.9-0.4c-2.8-0.6-5.6-1-7.9,0.7
					c-2.8,2-4.8,6.8-6.1,14.8c-0.1,0.4-0.4,0.7-0.8,0.7C764.6,84.4,764.6,84.4,764.3,84.6z M767.5,48.1c-9.4,9.5-5.7,22.2-2.9,31.6
					c1.4-6.4,3.3-10.4,6.1-12.4c2.9-2.1,6.3-1.5,9.2-1c1,0.2,1.9,0.3,2.8,0.4c1,0.1,2.5-0.1,4.2-0.2c5-0.4,11.8-0.9,16.7,3.4
					c4.9,4.5,5.3,11.8,5.5,16.1c0,0.9,0.1,1.7,0.2,2.3c0.7-0.1,1.9-0.3,2.3-1.2c3-6.2,4.9-22.5-2.3-31.6c-4.8-6.1-12.6-8.1-23.3-5.9
					l0,0c-1.4,0.3-2.6,0.7-3.9,1.1C777.1,52.2,772.4,53.6,767.5,48.1z M785.8,48.8L785.8,48.8L785.8,48.8z"/>
			</g>
		</g>
	</g>
	<g id="glass_2_">
		<g>
			<polygon class="st7" points="690.2,135.6 705.3,154.4 715.1,146.6 700,127.7 			"/>
		</g>
		<g>
			<path class="st7" d="M615.1,34.7c-28.7,22.9-33.4,64.7-10.5,93.3c22.9,28.7,64.6,33.4,93.3,10.5s33.4-64.6,10.5-93.3
				S643.8,11.8,615.1,34.7z M692.8,131.9c-25,20-61.6,15.9-81.6-9.2c-20-25-15.9-61.6,9.2-81.6c25-20,61.6-15.9,81.6,9.2
				C721.9,75.5,717.8,112,692.8,131.9z"/>
		</g>
		<g>
			<path class="st7" d="M785.8,219L727,145.3c-3.6-4.6-10.3-5.3-14.9-1.7l-4.5,3.6l0,0l-4.5,3.6c-4.6,3.6-5.3,10.3-1.7,14.8
				l58.8,73.7c3.6,4.6,10.3,5.3,14.9,1.7l4.5-3.6l0,0l4.5-3.6C788.7,230.2,789.4,223.6,785.8,219z"/>
		</g>
		<g class="st10">
			<path class="st11" d="M705.9,116.2c12.6-21.3,10-47.4-4.5-65.7c-34.9-24.1-70.7-15.6-84.6,7.7c-13,21.9-16.8,54.2,24.8,84.6
				C666,149.1,692.5,138.9,705.9,116.2z"/>
		</g>
	</g>
	<g>
		<path class="st5" d="M742,166.7c-3.9,0.6-7.2,3.3-7.9,6.8c-0.1,0.5,0,0.9,0,1.3l0.7,11.5c0.3,4.1,4.6,7,9.6,6.6
			c0.3-0.1,0.5-0.1,0.8-0.1c0.3,0,0.5-0.1,0.7-0.1l18.4-4.6l0.5-17.3c-7.8-1.4-11.2-3.6-20-4.2c-0.1,0-0.1,0-0.2,0
			C743.7,166.5,742.9,166.5,742,166.7L742,166.7z"/>
		<path class="st7" d="M736.7,191.5c-1.6-1.4-2.6-3.2-2.7-5.2l-0.8-11.6c0-0.5,0-0.9,0.1-1.5c0.7-3.7,4.2-6.8,8.6-7.5
			c1-0.1,1.9-0.2,2.7-0.2c0.1,0,0.1,0,0.2,0l0.1,0c5.5,0.3,8.8,1.3,12.4,2.3c2.3,0.7,4.7,1.3,7.8,1.9c0.5,0.1,0.8,0.5,0.8,1
			l-0.5,17.3c0,0.5-0.3,0.9-0.7,1l-18.4,4.6l-0.1,0l-0.7,0.1c-0.2,0-0.4,0.1-0.5,0.1c-0.1,0-0.2,0-0.3,0l-0.1,0
			c-0.9,0.1-1.9,0.1-2.7,0C739.9,193.5,738,192.7,736.7,191.5z M744.9,191.9c0.1,0,0.1,0,0.3,0l0.6-0.1l17.6-4.5l0.4-15.7
			c-2.8-0.5-4.9-1.1-7.1-1.7c-3.4-1-6.7-1.9-11.9-2.2c-0.1,0-0.3,0-0.5-0.1c-0.6,0.1-1.4,0.1-2.1,0.2l0,0c-3.6,0.6-6.4,3-6.9,5.9
			c-0.1,0.4-0.1,0.8-0.1,1.1l0.7,11.5c0.1,1.4,0.8,2.8,2,3.8c1.7,1.4,4,2.1,6.5,1.9C744.5,191.8,744.7,191.8,744.9,191.9z"/>
	</g>
	<g>
		<path class="st5" d="M732,172.5c-0.2-0.4-0.4-0.8-0.7-1.2l-6.6-9.5c-2.4-3.4-7.3-3.9-10.9-1.4c-0.2,0.2-0.4,0.2-0.6,0.4
			c-0.1,0.1-0.3,0.2-0.4,0.3c-6,3.6-15,12.1-10.4,19.7c1.1,1.7,2.6,3,4.2,4.2c1.4,1,3,1.9,4.6,2.3c5.4,1.2,11.5-2.3,16.2-4.5
			c0.1,0,0.1-0.1,0.2,0c0.6-0.3,1.3-0.7,1.8-1.3C732.1,179.2,733.3,175.5,732,172.5z"/>
		<path class="st7" d="M710.9,188.3c-2.1-0.4-3.9-1.6-5-2.4c-2-1.5-3.5-2.9-4.4-4.5c-1.3-2.3-1.7-4.8-1.1-7.4
			c1.5-5.6,7.2-10.8,11.8-13.5l0.4-0.4c0.1-0.1,0.3-0.2,0.4-0.3c0.1,0,0.1-0.1,0.2-0.1l0.1-0.1c4.1-2.9,9.6-2.2,12.3,1.6l6.6,9.5
			c0.2,0.4,0.5,0.8,0.7,1.3c1.4,3.5,0.2,7.6-2.9,10.3l0,0c-0.6,0.5-1.4,1-2,1.3c-0.1,0.1-0.1,0.1-0.2,0.1s-0.1,0-0.1,0
			c-0.6,0.3-1.3,0.6-1.9,0.9c-4.1,2-9.1,4.4-13.8,3.9C711.8,188.5,711.4,188.4,710.9,188.3z M727.3,181.9c0.5-0.3,1.1-0.6,1.6-1
			c2.5-2,3.4-5.3,2.3-8c-0.2-0.3-0.4-0.7-0.6-1l-6.6-9.5c-2-2.9-6.3-3.4-9.5-1.1c-0.1,0.1-0.2,0.2-0.4,0.2c-0.1,0-0.1,0.1-0.2,0.1
			l-0.4,0.3c-0.1,0.1-0.1,0.1-0.1,0.1c-4.6,2.7-9.8,7.6-11,12.4c-0.5,2.1-0.2,4.1,0.9,6c0.8,1.3,2,2.6,3.9,3.9
			c1,0.7,2.5,1.7,4.3,2.1c4.3,1,9.5-1.6,13.6-3.6c0.6-0.3,1.3-0.6,1.8-0.9C727,181.9,727.1,181.8,727.3,181.9z M727.5,183.7
			L727.5,183.7L727.5,183.7z"/>
	</g>
</g>
</svg>
