<?xml version="1.0" encoding="utf-8"?>
<!-- Generator: Adobe Illustrator 23.1.1, SVG Export Plug-In . SVG Version: 6.00 Build 0)  -->
<svg version="1.1" xmlns="http://www.w3.org/2000/svg" xmlns:xlink="http://www.w3.org/1999/xlink" x="0px" y="0px"
	 viewBox="0 0 878 632" style="enable-background:new 0 0 878 632;" xml:space="preserve">
<style type="text/css">
	.st0{fill:#3A9FFF;}
	.st1{fill:#3E7DED;}
	.st2{fill:#6BCAD0;}
	.st3{fill:#2C3ACF;}
	.st4{fill:#FFFFFF;}
	.st5{fill:#8298A8;}
	.st6{fill:#28E0B0;}
	.st7{fill:#3A3E42;}
	.st8{fill:#48A0DC;}
	.st9{fill:#FCB81F;}
</style>
<g id="Layer_3">
	<g id="bg">
		<g>
			<rect x="-10.3" y="-1" class="st0" width="904" height="642.1"/>
		</g>
	</g>
</g>
<g id="de">
	<g id="cloud_3_">
		<path class="st1" d="M490.6,368.2c64.1,58,132.1,7.3,214.2,13.2c82.1,5.9,135.8-28.7,155.8-83.2c20.1-54.6-2.7-163.5-91.4-226.9
			C724.4,39.1,653.5,6,562,55.5C460.1,110.6,415.7,300.5,490.6,368.2z"/>
	</g>
	<g id="m_1_">
		<g>
			<path class="st2" d="M514.1,304.7l7.9-89c0-0.4,0.4-0.7,0.8-0.7l0,0c0.4,0,0.7,0.4,0.7,0.8l-7.7,87l123.9-23.3
				c0.4-0.1,0.8,0.2,0.8,0.6c0.1,0.4-0.2,0.8-0.6,0.8L514.1,304.7z"/>
		</g>
		<g>
			<path class="st2" d="M734.4,331.5c-0.1,0-0.2,0-0.3-0.1l-94.8-50.6c0,0,0,0-0.1,0s-0.1-0.1-0.2-0.2l0,0c-0.1-0.1-0.1-0.2-0.1-0.3
				l0,0l0,0c0-0.1-0.1-0.2,0-0.3l0,0c0-0.1,0-0.1,0.1-0.2c0,0,0,0,0-0.1l65.6-96.7L653.2,79.8c-0.2-0.4-0.1-0.8,0.3-1s0.8-0.1,1,0.3
				l50.5,101l28.8-80c0.1-0.4,0.6-0.6,0.9-0.4c0.4,0.1,0.6,0.6,0.4,0.9l-29,80.7c-0.1,0.2-0.2,0.4-0.3,0.4l0.7,1.5l-0.3,0.3
				l-65.4,96.3l94.1,50.2c0.4,0.2,0.5,0.6,0.3,1C735.1,331.4,734.7,331.6,734.4,331.5z"/>
		</g>
		<g>
			<path class="st2" d="M523.5,128.6"/>
			<path class="st2" d="M523.5,214.4l97.1-55.4c0.4-0.2,0.8-0.1,1,0.2c0.2,0.4,0.1,0.8-0.2,1L522,217"/>
		</g>
		<g id="logo_18_">
			<g>
				<g>
					<g>
						
							<ellipse transform="matrix(0.9941 -0.1083 0.1083 0.9941 -29.8774 57.5571)" class="st3" cx="514.8" cy="303.8" rx="31.7" ry="31.7"/>
					</g>
				</g>
			</g>
			<g>
				<g>
					<g>
						<g>
							<g>
								<path class="st4" d="M533.3,315.7l-7.5-23.6c-0.1-0.4,0.1-0.9,0.5-1c0.4-0.1,0.9,0.1,1,0.5l7.5,23.6c0.1,0.4-0.1,0.9-0.5,1
									c-0.1,0-0.2,0.1-0.3,0C533.7,316.2,533.5,316,533.3,315.7z"/>
							</g>
						</g>
					</g>
					<g>
						<g>
							<g>
								<path class="st4" d="M513.2,313.6c-0.4-0.2-0.5-0.7-0.3-1.1l13-21.1c0.2-0.4,0.7-0.5,1.1-0.3c0.4,0.2,0.5,0.7,0.3,1.1
									l-13,21.1c-0.1,0.4-0.4,0.5-0.8,0.4C513.5,313.8,513.4,313.7,513.2,313.6z"/>
							</g>
						</g>
					</g>
					<g>
						<g>
							<g>
								<path class="st4" d="M512.9,313.2l-7.5-23.6c-0.1-0.4,0.1-0.9,0.5-1c0.4-0.1,0.9,0.1,1,0.5l7.5,23.6c0.1,0.4-0.1,0.9-0.5,1
									c-0.1,0-0.2,0.1-0.3,0C513.3,313.7,512.9,313.5,512.9,313.2z"/>
							</g>
						</g>
					</g>
					<g>
						<g>
							<g>
								<path class="st4" d="M492.7,311.2c-0.4-0.2-0.5-0.7-0.3-1.1l13-21.1c0.2-0.4,0.7-0.5,1.1-0.3c0.4,0.2,0.5,0.7,0.3,1.1
									l-13,21.1c-0.1,0.4-0.4,0.5-0.8,0.4C493,311.3,493,311.2,492.7,311.2z"/>
							</g>
						</g>
					</g>
				</g>
				<g>
					<g>
						<g>
							
								<ellipse transform="matrix(0.1198 -0.9928 0.9928 0.1198 155.9163 808.7604)" class="st4" cx="534.1" cy="316.5" rx="3" ry="3.1"/>
						</g>
					</g>
				</g>
				<g>
					<g>
						<g>
							
								<ellipse transform="matrix(0.1198 -0.9928 0.9928 0.1198 140.2673 786.2278)" class="st4" cx="513.5" cy="314" rx="3" ry="3.1"/>
						</g>
					</g>
				</g>
				<g>
					<g>
						<g>
							
								<ellipse transform="matrix(0.1198 -0.9928 0.9928 0.1198 124.7611 763.7236)" class="st4" cx="493.1" cy="311.5" rx="3" ry="3.1"/>
						</g>
					</g>
				</g>
			</g>
		</g>
		<g id="logo_17_">
			<g>
				<g>
					<g>
						<ellipse class="st3" cx="641.2" cy="299.9" rx="41" ry="41"/>
					</g>
				</g>
			</g>
			<g>
				<g>
					<g>
						<g>
							<g>
								<path class="st4" d="M666.8,312.3l-13.3-29.1c-0.2-0.5,0-1.1,0.5-1.4c0.5-0.2,1.1,0,1.4,0.5l13.3,29.1
									c0.2,0.5,0,1.1-0.5,1.4c-0.1,0-0.3,0.1-0.4,0.1C667.4,312.9,667,312.7,666.8,312.3z"/>
							</g>
						</g>
					</g>
					<g>
						<g>
							<g>
								<path class="st4" d="M640.7,312.8c-0.6-0.2-0.7-0.8-0.5-1.3l13.4-29.1c0.2-0.6,0.8-0.7,1.3-0.5c0.6,0.2,0.7,0.8,0.5,1.3
									l-13.4,29.1c-0.1,0.5-0.5,0.7-0.9,0.6C641.1,313,641,312.9,640.7,312.8z"/>
							</g>
						</g>
					</g>
					<g>
						<g>
							<g>
								<path class="st4" d="M640.2,312.3l-13.3-29.1c-0.2-0.5,0-1.1,0.5-1.4c0.5-0.2,1.1,0,1.4,0.5l13.3,29.1
									c0.2,0.5,0,1.1-0.5,1.4c-0.1,0-0.3,0.1-0.4,0.1C640.9,312.9,640.4,312.7,640.2,312.3z"/>
							</g>
						</g>
					</g>
					<g>
						<g>
							<g>
								<path class="st4" d="M614.1,312.8c-0.6-0.2-0.7-0.8-0.5-1.3l13.4-29.1c0.2-0.6,0.8-0.7,1.3-0.5c0.6,0.2,0.7,0.8,0.5,1.3
									l-13.4,29.1c-0.1,0.5-0.5,0.7-0.9,0.6C614.4,312.9,614.3,312.8,614.1,312.8z"/>
							</g>
						</g>
					</g>
				</g>
				<g>
					<g>
						<g>
							<ellipse class="st4" cx="667.9" cy="313.2" rx="4" ry="3.9"/>
						</g>
					</g>
				</g>
				<g>
					<g>
						<g>
							<ellipse class="st4" cx="641.2" cy="313.2" rx="4" ry="3.9"/>
						</g>
					</g>
				</g>
				<g>
					<g>
						<g>
							<ellipse class="st4" cx="614.6" cy="313.1" rx="4" ry="3.9"/>
						</g>
					</g>
				</g>
			</g>
		</g>
		<g id="logo_16_">
			<g>
				<g>
					<g>
						<ellipse class="st3" cx="617.4" cy="166.8" rx="27.3" ry="27.3"/>
					</g>
				</g>
			</g>
			<g>
				<g>
					<g>
						<g>
							<g>
								<path class="st4" d="M634.4,175.2l-8.7-19.4c-0.1-0.3,0-0.7,0.4-0.9c0.3-0.1,0.7,0,0.9,0.4l8.7,19.4c0.1,0.3,0,0.7-0.4,0.9
									c-0.1,0-0.2,0.1-0.2,0.1C634.8,175.6,634.6,175.4,634.4,175.2z"/>
							</g>
						</g>
					</g>
					<g>
						<g>
							<g>
								<path class="st4" d="M617,175.4c-0.4-0.1-0.5-0.6-0.4-0.9l9-19.3c0.1-0.4,0.6-0.5,0.9-0.4c0.4,0.1,0.5,0.6,0.4,0.9l-9,19.3
									c-0.1,0.3-0.3,0.4-0.6,0.4C617.2,175.5,617.2,175.4,617,175.4z"/>
							</g>
						</g>
					</g>
					<g>
						<g>
							<g>
								<path class="st4" d="M616.7,175.1l-8.7-19.4c-0.1-0.3,0-0.7,0.4-0.9c0.3-0.1,0.7,0,0.9,0.4l8.7,19.4c0.1,0.3,0,0.7-0.4,0.9
									c-0.1,0-0.2,0.1-0.2,0.1C617.1,175.4,616.8,175.3,616.7,175.1z"/>
							</g>
						</g>
					</g>
					<g>
						<g>
							<g>
								<path class="st4" d="M599.2,175.3c-0.4-0.1-0.5-0.6-0.4-0.9l9-19.3c0.1-0.4,0.6-0.5,0.9-0.4c0.4,0.1,0.5,0.6,0.4,0.9
									l-9,19.3c-0.1,0.3-0.3,0.4-0.6,0.4C599.5,175.4,599.4,175.3,599.2,175.3z"/>
							</g>
						</g>
					</g>
				</g>
				<g>
					<g>
						<g>
							
								<ellipse transform="matrix(6.686267e-03 -1 1 6.686267e-03 455.0959 809.6829)" class="st4" cx="635.1" cy="175.8" rx="2.6" ry="2.7"/>
						</g>
					</g>
				</g>
				<g>
					<g>
						<g>
							
								<ellipse transform="matrix(6.686267e-03 -1 1 6.686267e-03 437.5489 791.836)" class="st4" cx="617.3" cy="175.7" rx="2.6" ry="2.7"/>
						</g>
					</g>
				</g>
				<g>
					<g>
						<g>
							
								<ellipse transform="matrix(6.686267e-03 -1 1 6.686267e-03 420.0826 773.9219)" class="st4" cx="599.6" cy="175.5" rx="2.6" ry="2.7"/>
						</g>
					</g>
				</g>
			</g>
		</g>
		<g id="logo_15_">
			<g>
				<g>
					<g>
						<ellipse class="st3" cx="523.6" cy="212.1" rx="28" ry="28"/>
					</g>
				</g>
			</g>
			<g>
				<g>
					<g>
						<g>
							<g>
								<path class="st4" d="M542.1,218.3l-11.6-18.6c-0.2-0.3-0.1-0.8,0.2-1c0.3-0.2,0.8-0.1,1,0.2l11.6,18.6
									c0.2,0.3,0.1,0.8-0.2,1c-0.1,0-0.2,0.1-0.3,0.1C542.5,218.7,542.3,218.5,542.1,218.3z"/>
							</g>
						</g>
					</g>
					<g>
						<g>
							<g>
								<path class="st4" d="M524.4,220.9c-0.4-0.1-0.6-0.5-0.5-0.9l6.5-21c0.1-0.4,0.5-0.6,0.9-0.5c0.4,0.1,0.6,0.5,0.5,0.9
									l-6.5,21c0,0.3-0.3,0.5-0.5,0.5C524.6,221,524.5,221,524.4,220.9z"/>
							</g>
						</g>
					</g>
					<g>
						<g>
							<g>
								<path class="st4" d="M524,220.6L512.3,202c-0.2-0.3-0.1-0.8,0.2-1c0.3-0.2,0.8-0.1,1,0.2l11.6,18.6c0.2,0.3,0.1,0.8-0.2,1
									c-0.1,0-0.2,0.1-0.3,0.1C524.5,221,524.2,220.9,524,220.6z"/>
							</g>
						</g>
					</g>
					<g>
						<g>
							<g>
								<path class="st4" d="M506.2,223.3c-0.4-0.1-0.6-0.5-0.5-0.9l6.5-21c0.1-0.4,0.5-0.6,0.9-0.5c0.4,0.1,0.6,0.5,0.5,0.9
									l-6.5,21c0,0.3-0.3,0.5-0.5,0.5C506.6,223.4,506.5,223.3,506.2,223.3z"/>
							</g>
						</g>
					</g>
				</g>
				<g>
					<g>
						<g>
							
								<ellipse transform="matrix(0.9916 -0.129 0.129 0.9916 -23.6918 71.8572)" class="st4" cx="542.8" cy="218.8" rx="2.7" ry="2.7"/>
						</g>
					</g>
				</g>
				<g>
					<g>
						<g>
							
								<ellipse transform="matrix(0.9916 -0.129 0.129 0.9916 -24.1407 69.5455)" class="st4" cx="524.8" cy="221.1" rx="2.7" ry="2.7"/>
						</g>
					</g>
				</g>
				<g>
					<g>
						<g>
							
								<ellipse transform="matrix(0.9916 -0.129 0.129 0.9916 -24.5922 67.224)" class="st4" cx="506.6" cy="223.4" rx="2.7" ry="2.7"/>
						</g>
					</g>
				</g>
			</g>
		</g>
		<g id="logo_14_">
		</g>
		<g id="logo_13_">
			<g>
				<g>
					<g>
						<ellipse class="st3" cx="653.7" cy="79.2" rx="25.2" ry="25.2"/>
					</g>
				</g>
			</g>
			<g>
				<g>
					<g>
						<g>
							<g>
								<path class="st4" d="M670,85.2l-9.9-16.9c-0.2-0.3-0.1-0.7,0.2-0.9c0.3-0.2,0.7-0.1,0.9,0.2l9.9,16.9
									c0.2,0.3,0.1,0.7-0.2,0.9c-0.1,0-0.2,0.1-0.2,0.1C670.4,85.5,670.2,85.4,670,85.2z"/>
							</g>
						</g>
					</g>
					<g>
						<g>
							<g>
								<path class="st4" d="M654.2,87.1c-0.4-0.1-0.5-0.5-0.4-0.8l6.3-18.6c0.1-0.4,0.5-0.5,0.8-0.4c0.4,0.1,0.5,0.5,0.4,0.8
									l-6.3,18.6c0,0.3-0.3,0.4-0.5,0.5C654.4,87.2,654.3,87.1,654.2,87.1z"/>
							</g>
						</g>
					</g>
					<g>
						<g>
							<g>
								<path class="st4" d="M653.8,86.8l-9.9-16.9c-0.2-0.3-0.1-0.7,0.2-0.9c0.3-0.2,0.7-0.1,0.9,0.2l9.9,16.9
									c0.2,0.3,0.1,0.7-0.2,0.9c-0.1,0-0.2,0.1-0.2,0.1C654.2,87.2,653.9,87.1,653.8,86.8z"/>
							</g>
						</g>
					</g>
					<g>
						<g>
							<g>
								<path class="st4" d="M637.9,88.7c-0.4-0.1-0.5-0.5-0.4-0.8l6.3-18.6c0.1-0.4,0.5-0.5,0.8-0.4c0.4,0.1,0.5,0.5,0.4,0.8
									l-6.3,18.6c0,0.3-0.3,0.4-0.5,0.5C638.1,88.8,638,88.8,637.9,88.7z"/>
							</g>
						</g>
					</g>
				</g>
				<g>
					<g>
						<g>
							
								<ellipse transform="matrix(0.995 -9.961254e-02 9.961254e-02 0.995 -5.1965 67.2375)" class="st4" cx="670.7" cy="85.7" rx="2.4" ry="2.4"/>
						</g>
					</g>
				</g>
				<g>
					<g>
						<g>
							
								<ellipse transform="matrix(0.995 -9.961254e-02 9.961254e-02 0.995 -5.4448 65.6309)" class="st4" cx="654.5" cy="87.3" rx="2.4" ry="2.4"/>
						</g>
					</g>
				</g>
				<g>
					<g>
						<g>
							
								<ellipse transform="matrix(0.995 -9.961254e-02 9.961254e-02 0.995 -5.6794 64.016)" class="st4" cx="638.2" cy="88.9" rx="2.4" ry="2.4"/>
						</g>
					</g>
				</g>
			</g>
		</g>
		<g id="logo_12_">
			<g>
				<g>
					<g>
						<ellipse class="st5" cx="761.4" cy="339.3" rx="36.7" ry="36.7"/>
					</g>
				</g>
			</g>
			<g>
				<g>
					<g>
						<g>
							<g>
								<path class="st4" d="M784.4,350.1l-12.1-25.9c-0.2-0.5,0-1,0.4-1.3c0.5-0.2,1,0,1.3,0.4l12.2,25.9c0.2,0.5,0,1-0.4,1.3
									c-0.1,0-0.2,0.1-0.3,0.1C785,350.6,784.6,350.5,784.4,350.1z"/>
							</g>
						</g>
					</g>
					<g>
						<g>
							<g>
								<path class="st4" d="M761.1,350.9c-0.5-0.2-0.7-0.8-0.5-1.2l11.6-26.2c0.2-0.5,0.8-0.7,1.2-0.5c0.5,0.2,0.7,0.8,0.5,1.2
									l-11.6,26.2c0,0.4-0.4,0.6-0.8,0.6C761.5,350.9,761.4,350.9,761.1,350.9z"/>
							</g>
						</g>
					</g>
					<g>
						<g>
							<g>
								<path class="st4" d="M760.6,350.4l-12.2-25.9c-0.2-0.5,0-1,0.4-1.3c0.5-0.2,1,0,1.3,0.4l12.2,25.9c0.2,0.5,0,1-0.4,1.3
									c-0.1,0-0.2,0.1-0.3,0.1C761.3,350.9,760.8,350.7,760.6,350.4z"/>
							</g>
						</g>
					</g>
					<g>
						<g>
							<g>
								<path class="st4" d="M737.3,351.2c-0.5-0.2-0.7-0.8-0.5-1.2l11.6-26.2c0.2-0.5,0.8-0.7,1.2-0.5c0.5,0.2,0.7,0.8,0.5,1.2
									l-11.6,26.2c0,0.4-0.4,0.6-0.8,0.6C737.6,351.2,737.5,351.2,737.3,351.2z"/>
							</g>
						</g>
					</g>
				</g>
				<g>
					<g>
						<g>
							
								<ellipse transform="matrix(0.9999 -1.172340e-02 1.172340e-02 0.9999 -4.0591 9.2319)" class="st4" cx="785.4" cy="350.8" rx="3.6" ry="3.5"/>
						</g>
					</g>
				</g>
				<g>
					<g>
						<g>
							
								<ellipse transform="matrix(0.9999 -1.172340e-02 1.172340e-02 0.9999 -4.0641 8.9522)" class="st4" cx="761.6" cy="351.1" rx="3.6" ry="3.5"/>
						</g>
					</g>
				</g>
				<g>
					<g>
						<g>
							
								<ellipse transform="matrix(0.9999 -1.172340e-02 1.172340e-02 0.9999 -4.069 8.6727)" class="st4" cx="737.7" cy="351.4" rx="3.6" ry="3.5"/>
						</g>
					</g>
				</g>
			</g>
		</g>
		<g id="logo_11_">
			<g>
				<g>
					<g>
						
							<ellipse transform="matrix(0.992 -0.1265 0.1265 0.992 -19.787 91.4565)" class="st3" cx="709.9" cy="201.5" rx="37.6" ry="37.6"/>
					</g>
				</g>
			</g>
			<g>
				<g>
					<g>
						<g>
							<g>
								<path class="st4" d="M734.6,210.2l-15-25.3c-0.3-0.4-0.1-1,0.3-1.3c0.4-0.3,1-0.1,1.3,0.3l15,25.3c0.3,0.4,0.1,1-0.3,1.3
									c-0.1,0-0.2,0.1-0.3,0.1C735.2,210.7,734.9,210.6,734.6,210.2z"/>
							</g>
						</g>
					</g>
					<g>
						<g>
							<g>
								<path class="st4" d="M710.9,213.3c-0.6-0.2-0.7-0.7-0.6-1.2l9.3-27.9c0.2-0.6,0.7-0.7,1.2-0.6c0.6,0.2,0.7,0.7,0.6,1.2
									l-9.3,27.9c-0.1,0.5-0.4,0.6-0.8,0.6C711.3,213.4,711.1,213.3,710.9,213.3z"/>
							</g>
						</g>
					</g>
					<g>
						<g>
							<g>
								<path class="st4" d="M710.3,212.8l-15-25.3c-0.3-0.4-0.1-1,0.3-1.3c0.4-0.3,1-0.1,1.3,0.3l15,25.3c0.3,0.4,0.1,1-0.3,1.3
									c-0.1,0-0.2,0.1-0.3,0.1C711,213.3,710.6,213.2,710.3,212.8z"/>
							</g>
						</g>
					</g>
					<g>
						<g>
							<g>
								<path class="st4" d="M686.6,215.9c-0.6-0.2-0.7-0.7-0.6-1.2l9.3-27.9c0.2-0.6,0.7-0.7,1.2-0.6c0.6,0.2,0.7,0.7,0.6,1.2
									l-9.3,27.8c-0.1,0.5-0.4,0.6-0.8,0.6C687,216,686.8,215.9,686.6,215.9z"/>
							</g>
						</g>
					</g>
				</g>
				<g>
					<g>
						<g>
							
								<ellipse transform="matrix(0.9942 -0.1072 0.1072 0.9942 -18.3744 80.115)" class="st4" cx="735.7" cy="210.9" rx="3.7" ry="3.5"/>
						</g>
					</g>
				</g>
				<g>
					<g>
						<g>
							
								<ellipse transform="matrix(0.9942 -0.1072 0.1072 0.9942 -18.7987 77.5237)" class="st4" cx="711.4" cy="213.5" rx="3.7" ry="3.5"/>
						</g>
					</g>
				</g>
				<g>
					<g>
						<g>
							
								<ellipse transform="matrix(0.9942 -0.1072 0.1072 0.9942 -19.2134 74.9289)" class="st4" cx="687.1" cy="216.1" rx="3.7" ry="3.5"/>
						</g>
					</g>
				</g>
			</g>
		</g>
		<g id="logo_7_">
			<g>
				<g>
					<g>
						
							<ellipse transform="matrix(0.2627 -0.9649 0.9649 0.2627 459.1186 772.52)" class="st3" cx="735" cy="85.8" rx="22.3" ry="22.3"/>
					</g>
				</g>
			</g>
			<g>
				<g>
					<g>
						<g>
							<g>
								<path class="st4" d="M748.2,94l-5.6-16.5c-0.1-0.3,0.1-0.6,0.4-0.7c0.3-0.1,0.6,0.1,0.7,0.4l5.6,16.5
									c0.1,0.3-0.1,0.6-0.4,0.7c-0.1,0-0.2,0.1-0.2,0.1C748.6,94.4,748.4,94.2,748.2,94z"/>
							</g>
						</g>
					</g>
					<g>
						<g>
							<g>
								<path class="st4" d="M734.1,92.8c-0.3-0.1-0.3-0.6-0.2-0.8l8.9-15c0.1-0.3,0.6-0.3,0.8-0.2c0.3,0.1,0.3,0.6,0.2,0.8l-8.9,15
									c-0.1,0.2-0.3,0.3-0.6,0.3C734.3,92.9,734.2,92.8,734.1,92.8z"/>
							</g>
						</g>
					</g>
					<g>
						<g>
							<g>
								<path class="st4" d="M733.8,92.5L728.2,76c-0.1-0.3,0.1-0.6,0.4-0.7c0.3-0.1,0.6,0.1,0.7,0.4l5.6,16.5
									c0.1,0.3-0.1,0.6-0.4,0.7c-0.1,0-0.2,0.1-0.2,0.1C734.2,92.8,733.9,92.7,733.8,92.5z"/>
							</g>
						</g>
					</g>
					<g>
						<g>
							<g>
								<path class="st4" d="M719.7,91.3c-0.3-0.1-0.3-0.6-0.2-0.8l8.9-15c0.1-0.3,0.6-0.3,0.8-0.2c0.3,0.1,0.3,0.6,0.2,0.8l-8.9,15
									c-0.1,0.2-0.3,0.3-0.6,0.3C719.8,91.4,719.7,91.4,719.7,91.3z"/>
							</g>
						</g>
					</g>
				</g>
				<g>
					<g>
						<g>
							
								<ellipse transform="matrix(0.1015 -0.9948 0.9948 0.1015 578.7416 829.8696)" class="st4" cx="748.8" cy="94.5" rx="2.1" ry="2.1"/>
						</g>
					</g>
				</g>
				<g>
					<g>
						<g>
							<ellipse class="st4" cx="734.3" cy="93" rx="2.1" ry="2.1"/>
						</g>
					</g>
				</g>
				<g>
					<g>
						<g>
							<ellipse class="st4" cx="719.8" cy="91.5" rx="2.1" ry="2.1"/>
						</g>
					</g>
				</g>
			</g>
		</g>
	</g>
	<path class="st6" d="M636.3,593.9h0.7c4.4,0,8-2.2,10.9-5.1l58.2-72.8c5.1-6.6,4.4-15.3-2.2-20.4c-6.6-5.1-15.3-4.4-20.4,2.2
		l-48,60.4l-17.5-17.5c-5.8-5.8-14.6-5.8-20.4,0c-5.8,5.8-5.8,14.6,0,20.4l29.1,29.1C629.1,592.5,632.7,593.9,636.3,593.9
		L636.3,593.9z"/>
	<path class="st6" d="M562.5,181.4h0.2c1.3,0,2.4-0.7,3.3-1.5l17.4-21.8c1.5-2,1.3-4.6-0.7-6.1c-2-1.5-4.6-1.3-6.1,0.7l-14.4,18.1
		l-5.2-5.2c-1.7-1.7-4.4-1.7-6.1,0c-1.7,1.7-1.7,4.4,0,6.1l8.7,8.7C560.3,181,561.4,181.4,562.5,181.4L562.5,181.4z"/>
	<path class="st6" d="M567.3,324.4h0.2c1.3,0,2.4-0.7,3.3-1.5l17.4-21.8c1.5-2,1.3-4.6-0.7-6.1c-2-1.5-4.6-1.3-6.1,0.7l-14.4,18.1
		l-5.2-5.2c-1.7-1.7-4.4-1.7-6.1,0s-1.7,4.4,0,6.1l8.7,8.7C565.1,324,566.2,324.4,567.3,324.4L567.3,324.4z"/>
	<path class="st6" d="M547.1,264.8h0.2c1.3,0,2.4-0.7,3.3-1.5l17.4-21.8c1.5-2,1.3-4.6-0.7-6.1c-2-1.5-4.6-1.3-6.1,0.7l-14.4,18.1
		l-5.2-5.2c-1.7-1.7-4.4-1.7-6.1,0c-1.7,1.7-1.7,4.4,0,6.1l8.7,8.7C544.9,264.4,546,264.8,547.1,264.8L547.1,264.8z"/>
	<path class="st6" d="M631.4,253.3h0.2c1.3,0,2.4-0.7,3.3-1.5l17.4-21.8c1.5-2,1.3-4.6-0.7-6.1c-2-1.5-4.6-1.3-6.1,0.7l-14.4,18.1
		l-5.2-5.2c-1.7-1.7-4.4-1.7-6.1,0c-1.7,1.7-1.7,4.4,0,6.1l8.7,8.7C629.2,252.9,630.3,253.3,631.4,253.3L631.4,253.3z"/>
	<path class="st6" d="M651.3,143.8h0.2c1.2,0,2.1-0.6,2.9-1.4l15.5-19.4c1.4-1.7,1.2-4.1-0.6-5.4s-4.1-1.2-5.4,0.6l-12.8,16.1
		l-4.7-4.7c-1.6-1.6-3.9-1.6-5.4,0c-1.6,1.6-1.6,3.9,0,5.4l7.8,7.8C649.4,143.4,650.4,143.8,651.3,143.8L651.3,143.8z"/>
	<path class="st6" d="M738.6,148.1h0.2c1.2,0,2.1-0.6,2.9-1.4l15.5-19.4c1.4-1.7,1.2-4.1-0.6-5.4c-1.7-1.4-4.1-1.2-5.4,0.6
		l-12.8,16.1l-4.7-4.7c-1.6-1.6-3.9-1.6-5.4,0s-1.6,3.9,0,5.4l7.8,7.8C736.6,147.7,737.6,148.1,738.6,148.1L738.6,148.1z"/>
</g>
<g id="cen">
	<g id="cloud_1_">
		<path class="st7" d="M385.6,372.1c-64.1,58-132.1,7.3-214.2,13.2C89.3,391.1,35.6,356.6,15.6,302c-20.1-54.6,2.7-163.5,91.4-226.9
			C151.8,43,222.7,9.8,314.2,59.4C416.2,114.5,460.5,304.4,385.6,372.1z"/>
	</g>
	<g>
		<g>
			<circle class="st5" cx="238" cy="212" r="50.2"/>
			<path class="st7" d="M211.3,243.3c0-13.6,11-24.6,24.6-24.6c13.6,0,24.6,11,24.6,24.6H211.3z"/>
			<path class="st8" d="M270.2,231.7L270.2,231.7c0-6.2,5-22.4,11.2-22.4l0,0c6.2,0,11.2,16.2,11.2,22.4l0,0c0,6.2-5,11.2-11.2,11.2
				l0,0C275.3,242.9,270.2,237.9,270.2,231.7z"/>
			<path class="st7" d="M204.5,209.7c0-1.2,1-2.2,2.2-2.2c7.4,0,13.4-6,13.4-13.4c0-1.2,1-2.2,2.2-2.2c1.2,0,2.2,1,2.2,2.2
				c0,9.9-8,17.9-17.9,17.9C205.5,212,204.5,211,204.5,209.7z"/>
			<path class="st7" d="M247,194.1c0-1.2,1-2.2,2.2-2.2s2.2,1,2.2,2.2c0,7.4,6,13.4,13.4,13.4c1.2,0,2.2,1,2.2,2.2s-1,2.2-2.2,2.2
				C255.1,212,247,203.9,247,194.1z"/>
		</g>
		<path class="st9" d="M185.6,153.3l15.6,35.9l56.7-16.3l-6.2-38.4l-9.4,18.3l-13.5-11.9l-6.4,17.6l-14-11.9l-5.5,17.4L185.6,153.3z
			"/>
		
			<ellipse transform="matrix(0.9618 -0.2738 0.2738 0.9618 -34.8745 56.6607)" class="st9" cx="185.6" cy="153.3" rx="4.1" ry="4.1"/>
		<ellipse class="st9" cx="208" cy="145.1" rx="4.1" ry="4.1"/>
		<ellipse class="st9" cx="228.1" cy="139.3" rx="4.1" ry="4.1"/>
		<ellipse class="st9" cx="251.7" cy="134.5" rx="4.1" ry="4.1"/>
	</g>
	<path class="st9" d="M242.9,543.2l29-29c5.1-5.1,5.1-13,0-18.1c-5.1-5.1-13-5.1-18.1,0l-29,29l-29-29c-5.1-5.1-13-5.1-18.1,0
		c-5.1,5.1-5.1,13,0,18.1l29,29l-29,29c-5.1,5.1-5.1,13,0,18.1c2.2,2.2,5.8,3.6,8.7,3.6c2.9,0,6.5-1.4,8.7-3.6l29-29l29,29
		c2.2,2.2,5.8,3.6,8.7,3.6c2.9,0,6.5-1.4,8.7-3.6c5.1-5.1,5.1-13,0-18.1L242.9,543.2L242.9,543.2z"/>
	<g>
		<polygon class="st9" points="235.9,349.7 206.1,344.4 219.1,271.2 163.4,362.9 193.2,368.2 180.2,441.4 		"/>
	</g>
	<g id="plug_3_">
		<g>
			<g>
				<path d="M85.1,425.4l52.9,33.1c0.5,0.3,0.7,1,0.3,1.5l-20.7,33.1c-4.1,6.6-12.8,8.6-19.4,4.5l-30.8-19.3
					c-6.6-4.1-8.6-12.8-4.5-19.4l20.7-33.1C84,425.3,84.6,425.1,85.1,425.4z M136,459.8l-51.1-32L64.7,460c-3.5,5.6-1.8,13,3.8,16.5
					l30.8,19.3c5.6,3.5,13,1.8,16.5-3.8L136,459.8z"/>
			</g>
			<g>
				<path d="M73.7,419.5c-0.3,0.5-0.2,1.2,0.3,1.5l72.8,45.5c0.5,0.3,1.2,0.2,1.5-0.3c0.3-0.5,0.2-1.2-0.3-1.5l-72.8-45.5
					C74.7,418.9,74,419,73.7,419.5z"/>
			</g>
			<g>
				<path d="M146.5,418.3c2.4,1.5,3.1,4.7,1.6,7.1l-18.3,29.3c-0.3,0.5-1,0.6-1.5,0.3l-6.9-4.3c-0.5-0.3-0.7-1-0.3-1.5l18.3-29.3
					C140.9,417.5,144.1,416.8,146.5,418.3z M128.6,452.6l17.8-28.4c0.9-1.4,0.5-3.3-0.9-4.1c-1.4-0.9-3.3-0.4-4.1,1l-17.8,28.4
					L128.6,452.6z"/>
			</g>
			<g>
				<path d="M117.7,400.2c2.4,1.5,3.1,4.7,1.6,7.1l-18.3,29.3c-0.3,0.5-1,0.7-1.5,0.3l-6.9-4.3c-0.5-0.3-0.7-1-0.3-1.5l18.3-29.3
					C112.1,399.4,115.3,398.7,117.7,400.2z M99.7,434.6l17.8-28.4c0.9-1.4,0.5-3.3-0.9-4.1c-1.4-0.9-3.3-0.4-4.1,1l-17.8,28.4
					L99.7,434.6z"/>
			</g>
			<g>
				<path d="M77.6,482.6c0.3-0.1,0.6,0,0.9,0.1l11,6.9c0.3,0.2,0.4,0.4,0.5,0.7c0.1,0.3,0,0.6-0.2,0.8l-8,10.4
					c-0.3,0.4-0.9,0.5-1.4,0.3l-8.8-5.5c-0.5-0.3-0.6-0.9-0.4-1.4l5.8-11.7c0,0,0-0.1,0.1-0.1C77.1,482.8,77.3,482.7,77.6,482.6z
					 M80.6,499.5l6.7-8.7l-9.1-5.7l-4.9,9.8L80.6,499.5z"/>
			</g>
		</g>
		<g>
			<path d="M77.4,498.7l-13.3,21.2c-7.8,12.4-24.3,16.2-36.7,8.5l-37.7-23.6l1.1-1.8l37.7,23.6c11.5,7.2,26.6,3.7,33.8-7.8
				l13.3-21.2c0.3-0.5,1-0.7,1.5-0.3S77.7,498.2,77.4,498.7z"/>
		</g>
	</g>
	<g id="plug_2_">
		<g>
			<g>
				<path d="M799.8,425.8l20.7,33.1c4.1,6.6,2.1,15.3-4.5,19.4l-30.8,19.3c-6.6,4.1-15.3,2.1-19.4-4.5L745,460
					c-0.3-0.5-0.2-1.2,0.3-1.5l52.9-33.1C798.8,425.1,799.5,425.3,799.8,425.8z M767.6,492c3.5,5.6,10.9,7.3,16.5,3.8l30.8-19.3
					c5.6-3.5,7.3-10.9,3.8-16.5l-20.2-32.2l-51.1,32L767.6,492z"/>
			</g>
			<g>
				<path d="M809.7,419.5c0.3,0.5,0.2,1.2-0.3,1.5l-72.8,45.5c-0.5,0.3-1.2,0.2-1.5-0.3c-0.3-0.5-0.2-1.2,0.3-1.5l72.8-45.5
					C808.7,418.9,809.4,419,809.7,419.5z"/>
			</g>
			<g>
				<path d="M744,419.9l18.3,29.3c0.3,0.5,0.2,1.2-0.3,1.5l-6.9,4.3c-0.5,0.3-1.2,0.2-1.5-0.3l-18.3-29.3c-1.5-2.4-0.8-5.6,1.6-7.1
					C739.3,416.8,742.5,417.5,744,419.9z M760,449.4L742.2,421c-0.9-1.4-2.7-1.8-4.1-1c-1.4,0.9-1.8,2.7-0.9,4.1l17.8,28.4
					L760,449.4z"/>
			</g>
			<g>
				<path d="M772.8,401.8l18.3,29.3c0.3,0.5,0.2,1.2-0.3,1.5l-6.9,4.3c-0.5,0.3-1.2,0.2-1.5-0.3l-18.3-29.3
					c-1.5-2.4-0.8-5.6,1.6-7.1C768.2,398.7,771.3,399.4,772.8,401.8z M788.8,431.4L771,403c-0.9-1.4-2.7-1.8-4.1-1
					c-1.4,0.9-1.8,2.7-0.9,4.1l17.8,28.4L788.8,431.4z"/>
			</g>
			<g>
				<path d="M806.5,483.1C806.5,483.1,806.5,483.1,806.5,483.1l5.9,11.8c0.2,0.5,0.1,1.1-0.4,1.4l-8.8,5.5c-0.5,0.3-1.1,0.2-1.4-0.3
					l-8-10.4c-0.2-0.2-0.3-0.5-0.2-0.8c0.1-0.3,0.2-0.6,0.5-0.7l11-6.9c0.3-0.2,0.6-0.2,0.9-0.1
					C806.1,482.7,806.3,482.8,806.5,483.1z M810,495l-4.9-9.8l-9.1,5.7l6.7,8.7L810,495z"/>
			</g>
		</g>
		<g>
			<path d="M806.1,498.7l13.3,21.2c7.8,12.4,24.3,16.2,36.7,8.5l37.7-23.6l-1.1-1.8l-37.7,23.6c-11.5,7.2-26.6,3.7-33.8-7.8
				l-13.3-21.2c-0.3-0.5-1-0.7-1.5-0.3S805.8,498.2,806.1,498.7z"/>
		</g>
	</g>
	<g>
		<polygon class="st9" points="850.1,361 831.9,357.8 839.9,313.1 805.9,369.1 824.1,372.3 816.2,417 		"/>
	</g>
</g>
</svg>
