<?xml version="1.0" encoding="utf-8"?>
<!-- Generator: Adobe Illustrator 24.3.0, SVG Export Plug-In . SVG Version: 6.00 Build 0)  -->
<svg version="1.1" id="Layer_1" xmlns="http://www.w3.org/2000/svg" xmlns:xlink="http://www.w3.org/1999/xlink" x="0px" y="0px"
	 viewBox="0 0 878 632" style="enable-background:new 0 0 878 632;" xml:space="preserve">
<style type="text/css">
	.outage0{fill:#DAECFD;}
	.outage1{fill:#6BCEC9;}
	.outage2{fill:#6BCAD0;}
	.outage3{fill:#2C3ACF;}
	.outage4{fill:#FFFFFF;}
	.outage5{fill:#8298A8;}
	.outage6{fill:#28E0B0;}
	.outage7{fill:#3A3E42;}
	.outage8{fill:#A6B2C7;}
	.outage9{fill:#FCB81F;}
</style>
<path class="outage0" d="M490.6,368.2c64.1,58,132.1,7.3,214.2,13.2c82.1,5.9,135.8-28.7,155.8-83.2c20.1-54.6-2.7-163.5-91.4-226.9
	C724.4,39.1,653.5,6,562,55.5C460.1,110.6,415.7,300.5,490.6,368.2z"/>
<path class="outage1" d="M514.1,304.7l7.9-89c0-0.4,0.4-0.7,0.8-0.7l0,0c0.4,0,0.7,0.4,0.7,0.8l-7.7,87l123.9-23.3
	c0.4-0.1,0.8,0.2,0.8,0.6c0.1,0.4-0.2,0.8-0.6,0.8L514.1,304.7z"/>
<path class="outage2" d="M734.4,331.5c-0.1,0-0.2,0-0.3-0.1l-94.8-50.6c0,0,0,0-0.1,0s-0.1-0.1-0.2-0.2l0,0c-0.1-0.1-0.1-0.2-0.1-0.3
	l0,0l0,0c0-0.1-0.1-0.2,0-0.3l0,0c0-0.1,0-0.1,0.1-0.2c0,0,0,0,0-0.1l65.6-96.7L653.2,79.8c-0.2-0.4-0.1-0.8,0.3-1s0.8-0.1,1,0.3
	l50.5,101l28.8-80c0.1-0.4,0.6-0.6,0.9-0.4c0.4,0.1,0.6,0.6,0.4,0.9l-29,80.7c-0.1,0.2-0.2,0.4-0.3,0.4l0.7,1.5l-0.3,0.3l-65.4,96.3
	l94.1,50.2c0.4,0.2,0.5,0.6,0.3,1C735.1,331.4,734.7,331.6,734.4,331.5z"/>
<path class="outage2" d="M0,0"/>
<path class="outage1" d="M523.5,214.4l97.1-55.4c0.4-0.2,0.8-0.1,1,0.2c0.2,0.4,0.1,0.8-0.2,1L522,217"/>
<ellipse class="outage3" cx="514.8" cy="303.8" rx="31.7" ry="31.7"/>
<path class="outage4" d="M533.3,315.7l-7.5-23.6c-0.1-0.4,0.1-0.9,0.5-1s0.9,0.1,1,0.5l7.5,23.6c0.1,0.4-0.1,0.9-0.5,1
	c-0.1,0-0.2,0.1-0.3,0C533.7,316.2,533.5,316,533.3,315.7z"/>
<path class="outage4" d="M513.2,313.6c-0.4-0.2-0.5-0.7-0.3-1.1l13-21.1c0.2-0.4,0.7-0.5,1.1-0.3c0.4,0.2,0.5,0.7,0.3,1.1l-13,21.1
	c-0.1,0.4-0.4,0.5-0.8,0.4C513.5,313.8,513.4,313.7,513.2,313.6z"/>
<path class="outage4" d="M512.9,313.2l-7.5-23.6c-0.1-0.4,0.1-0.9,0.5-1s0.9,0.1,1,0.5l7.5,23.6c0.1,0.4-0.1,0.9-0.5,1
	c-0.1,0-0.2,0.1-0.3,0C513.3,313.7,512.9,313.5,512.9,313.2z"/>
<path class="outage4" d="M492.7,311.2c-0.4-0.2-0.5-0.7-0.3-1.1l13-21.1c0.2-0.4,0.7-0.5,1.1-0.3s0.5,0.7,0.3,1.1l-13,21.1
	c-0.1,0.4-0.4,0.5-0.8,0.4C493,311.3,493,311.2,492.7,311.2z"/>
<ellipse transform="matrix(0.1198 -0.9928 0.9928 0.1198 155.9508 808.7836)" class="outage4" cx="534.1" cy="316.4" rx="3" ry="3.1"/>
<ellipse transform="matrix(0.1198 -0.9928 0.9928 0.1198 140.1671 786.2173)" class="outage4" cx="513.5" cy="314.1" rx="3" ry="3.1"/>
<ellipse transform="matrix(0.1198 -0.9928 0.9928 0.1198 124.7881 763.7184)" class="outage4" cx="493.1" cy="311.5" rx="3" ry="3.1"/>
<ellipse class="outage3" cx="641.2" cy="299.9" rx="41" ry="41"/>
<path class="outage4" d="M666.8,312.3l-13.3-29.1c-0.2-0.5,0-1.1,0.5-1.4c0.5-0.2,1.1,0,1.4,0.5l13.3,29.1c0.2,0.5,0,1.1-0.5,1.4
	c-0.1,0-0.3,0.1-0.4,0.1C667.4,312.9,667,312.7,666.8,312.3z"/>
<path class="outage4" d="M640.7,312.8c-0.6-0.2-0.7-0.8-0.5-1.3l13.4-29.1c0.2-0.6,0.8-0.7,1.3-0.5c0.6,0.2,0.7,0.8,0.5,1.3L642,312.3
	c-0.1,0.5-0.5,0.7-0.9,0.6C641.1,313,641,312.9,640.7,312.8z"/>
<path class="outage4" d="M640.2,312.3l-13.3-29.1c-0.2-0.5,0-1.1,0.5-1.4c0.5-0.2,1.1,0,1.4,0.5l13.3,29.1c0.2,0.5,0,1.1-0.5,1.4
	c-0.1,0-0.3,0.1-0.4,0.1C640.9,312.9,640.4,312.7,640.2,312.3z"/>
<path class="outage4" d="M614.1,312.8c-0.6-0.2-0.7-0.8-0.5-1.3l13.4-29.1c0.2-0.6,0.8-0.7,1.3-0.5c0.6,0.2,0.7,0.8,0.5,1.3l-13.4,29.1
	c-0.1,0.5-0.5,0.7-0.9,0.6C614.4,312.9,614.3,312.8,614.1,312.8z"/>
<ellipse class="outage4" cx="667.9" cy="313.2" rx="4" ry="3.9"/>
<ellipse class="outage4" cx="641.2" cy="313.2" rx="4" ry="3.9"/>
<ellipse class="outage4" cx="614.6" cy="313.1" rx="4" ry="3.9"/>
<ellipse class="outage3" cx="617.4" cy="166.8" rx="27.3" ry="27.3"/>
<path class="outage4" d="M634.4,175.2l-8.7-19.4c-0.1-0.3,0-0.7,0.4-0.9c0.3-0.1,0.7,0,0.9,0.4l8.7,19.4c0.1,0.3,0,0.7-0.4,0.9
	c-0.1,0-0.2,0.1-0.2,0.1C634.8,175.6,634.6,175.4,634.4,175.2z"/>
<path class="outage4" d="M617,175.4c-0.4-0.1-0.5-0.6-0.4-0.9l9-19.3c0.1-0.4,0.6-0.5,0.9-0.4c0.4,0.1,0.5,0.6,0.4,0.9l-9,19.3
	c-0.1,0.3-0.3,0.4-0.6,0.4C617.2,175.5,617.2,175.4,617,175.4z"/>
<path class="outage4" d="M616.7,175.1l-8.7-19.4c-0.1-0.3,0-0.7,0.4-0.9c0.3-0.1,0.7,0,0.9,0.4l8.7,19.4c0.1,0.3,0,0.7-0.4,0.9
	c-0.1,0-0.2,0.1-0.2,0.1C617.1,175.4,616.8,175.3,616.7,175.1z"/>
<path class="outage4" d="M599.2,175.3c-0.4-0.1-0.5-0.6-0.4-0.9l9-19.3c0.1-0.4,0.6-0.5,0.9-0.4c0.4,0.1,0.5,0.6,0.4,0.9l-9,19.3
	c-0.1,0.3-0.3,0.4-0.6,0.4C599.5,175.4,599.4,175.3,599.2,175.3z"/>
<ellipse transform="matrix(6.685968e-03 -1 1 6.685968e-03 455.1578 809.7849)" class="outage4" cx="635.2" cy="175.8" rx="2.6" ry="2.7"/>
<ellipse transform="matrix(6.685968e-03 -1 1 6.685968e-03 437.5726 791.8545)" class="outage4" cx="617.4" cy="175.7" rx="2.6" ry="2.7"/>
<ellipse transform="matrix(6.685968e-03 -1 1 6.685968e-03 420.1216 773.8875)" class="outage4" cx="599.6" cy="175.5" rx="2.6" ry="2.7"/>
<ellipse class="outage3" cx="523.6" cy="212.1" rx="28" ry="28"/>
<path class="outage4" d="M542.1,218.3l-11.6-18.6c-0.2-0.3-0.1-0.8,0.2-1s0.8-0.1,1,0.2l11.6,18.6c0.2,0.3,0.1,0.8-0.2,1
	c-0.1,0-0.2,0.1-0.3,0.1C542.5,218.7,542.3,218.5,542.1,218.3z"/>
<path class="outage4" d="M524.4,220.9c-0.4-0.1-0.6-0.5-0.5-0.9l6.5-21c0.1-0.4,0.5-0.6,0.9-0.5s0.6,0.5,0.5,0.9l-6.5,21
	c0,0.3-0.3,0.5-0.5,0.5C524.6,221,524.5,221,524.4,220.9z"/>
<path class="outage4" d="M524,220.6L512.3,202c-0.2-0.3-0.1-0.8,0.2-1s0.8-0.1,1,0.2l11.6,18.6c0.2,0.3,0.1,0.8-0.2,1
	c-0.1,0-0.2,0.1-0.3,0.1C524.5,221,524.2,220.9,524,220.6z"/>
<path class="outage4" d="M506.2,223.3c-0.4-0.1-0.6-0.5-0.5-0.9l6.5-21c0.1-0.4,0.5-0.6,0.9-0.5s0.6,0.5,0.5,0.9l-6.5,21
	c0,0.3-0.3,0.5-0.5,0.5C506.6,223.4,506.5,223.3,506.2,223.3z"/>
<ellipse transform="matrix(0.9916 -0.129 0.129 0.9916 -23.6897 71.8493)" class="outage4" cx="542.8" cy="218.8" rx="2.7" ry="2.7"/>
<ellipse transform="matrix(0.9916 -0.129 0.129 0.9916 -24.1367 69.5466)" class="outage4" cx="524.8" cy="221.1" rx="2.7" ry="2.7"/>
<ellipse transform="matrix(0.9916 -0.129 0.129 0.9916 -24.5855 67.218)" class="outage4" cx="506.6" cy="223.4" rx="2.7" ry="2.7"/>
<ellipse class="outage3" cx="653.7" cy="79.2" rx="25.2" ry="25.2"/>
<path class="outage4" d="M670,85.2l-9.9-16.9c-0.2-0.3-0.1-0.7,0.2-0.9c0.3-0.2,0.7-0.1,0.9,0.2l9.9,16.9c0.2,0.3,0.1,0.7-0.2,0.9
	c-0.1,0-0.2,0.1-0.2,0.1C670.4,85.5,670.2,85.4,670,85.2z"/>
<path class="outage4" d="M654.2,87.1c-0.4-0.1-0.5-0.5-0.4-0.8l6.3-18.6c0.1-0.4,0.5-0.5,0.8-0.4c0.4,0.1,0.5,0.5,0.4,0.8L655,86.7
	c0,0.3-0.3,0.4-0.5,0.5C654.4,87.2,654.3,87.1,654.2,87.1z"/>
<path class="outage4" d="M653.8,86.8l-9.9-16.9c-0.2-0.3-0.1-0.7,0.2-0.9c0.3-0.2,0.7-0.1,0.9,0.2l9.9,16.9c0.2,0.3,0.1,0.7-0.2,0.9
	c-0.1,0-0.2,0.1-0.2,0.1C654.2,87.2,653.9,87.1,653.8,86.8z"/>
<path class="outage4" d="M637.9,88.7c-0.4-0.1-0.5-0.5-0.4-0.8l6.3-18.6c0.1-0.4,0.5-0.5,0.8-0.4c0.4,0.1,0.5,0.5,0.4,0.8l-6.3,18.6
	c0,0.3-0.3,0.4-0.5,0.5C638.1,88.8,638,88.8,637.9,88.7z"/>
<ellipse transform="matrix(0.995 -9.961772e-02 9.961772e-02 0.995 -5.2008 67.2381)" class="outage4" cx="670.7" cy="85.7" rx="2.4" ry="2.4"/>
<ellipse transform="matrix(0.995 -9.961772e-02 9.961772e-02 0.995 -5.4406 65.6323)" class="outage4" cx="654.5" cy="87.3" rx="2.4" ry="2.4"/>
<ellipse transform="matrix(0.995 -9.961775e-02 9.961775e-02 0.995 -5.6812 64.0166)" class="outage4" cx="638.2" cy="88.9" rx="2.4" ry="2.4"/>
<ellipse class="outage5" cx="762" cy="324.4" rx="42.6" ry="42.6"/>
<path class="outage4" d="M788.7,336.9l-14-30.1c-0.2-0.6,0-1.2,0.5-1.5c0.6-0.2,1.2,0,1.5,0.5l14.2,30.1c0.2,0.6,0,1.2-0.5,1.5
	c-0.1,0-0.2,0.1-0.3,0.1C789.4,337.5,789,337.4,788.7,336.9z"/>
<path class="outage4" d="M761.7,337.9c-0.6-0.2-0.8-0.9-0.6-1.4l13.5-30.4c0.2-0.6,0.9-0.8,1.4-0.6c0.6,0.2,0.8,0.9,0.6,1.4l-13.5,30.4
	c0,0.5-0.5,0.7-0.9,0.7C762.2,337.9,762,337.9,761.7,337.9z"/>
<path class="outage4" d="M761.1,337.3l-14.2-30.1c-0.2-0.6,0-1.2,0.5-1.5c0.6-0.2,1.2,0,1.5,0.5l14.2,30.1c0.2,0.6,0,1.2-0.5,1.5
	c-0.1,0-0.2,0.1-0.3,0.1C761.9,337.9,761.3,337.6,761.1,337.3z"/>
<path class="outage4" d="M734.1,338.2c-0.6-0.2-0.8-0.9-0.6-1.4l13.5-30.4c0.2-0.6,0.9-0.8,1.4-0.6c0.6,0.2,0.8,0.9,0.6,1.4l-13.5,30.4
	c0,0.5-0.5,0.7-0.9,0.7C734.4,338.2,734.3,338.2,734.1,338.2z"/>
<ellipse transform="matrix(0.9999 -1.172414e-02 1.172414e-02 0.9999 -3.9048 9.2838)" class="outage4" cx="789.9" cy="337.7" rx="4.2" ry="4.1"/>
<ellipse transform="matrix(0.9999 -1.172414e-02 1.172414e-02 0.9999 -3.9114 8.9591)" class="outage4" cx="762.2" cy="338.1" rx="4.2" ry="4.1"/>
<ellipse transform="matrix(0.9999 -1.172414e-02 1.172414e-02 0.9999 -3.9168 8.6344)" class="outage4" cx="734.5" cy="338.4" rx="4.2" ry="4.1"/>
<ellipse transform="matrix(0.992 -0.1265 0.1265 0.992 -19.7871 91.4205)" class="outage3" cx="709.9" cy="201.5" rx="37.6" ry="37.6"/>
<path class="outage4" d="M734.6,210.2l-15-25.3c-0.3-0.4-0.1-1,0.3-1.3c0.4-0.3,1-0.1,1.3,0.3l15,25.3c0.3,0.4,0.1,1-0.3,1.3
	c-0.1,0-0.2,0.1-0.3,0.1C735.2,210.7,734.9,210.6,734.6,210.2z"/>
<path class="outage4" d="M710.9,213.3c-0.6-0.2-0.7-0.7-0.6-1.2l9.3-27.9c0.2-0.6,0.7-0.7,1.2-0.6c0.6,0.2,0.7,0.7,0.6,1.2l-9.3,27.9
	c-0.1,0.5-0.4,0.6-0.8,0.6C711.3,213.4,711.1,213.3,710.9,213.3z"/>
<path class="outage4" d="M710.3,212.8l-15-25.3c-0.3-0.4-0.1-1,0.3-1.3c0.4-0.3,1-0.1,1.3,0.3l15,25.3c0.3,0.4,0.1,1-0.3,1.3
	c-0.1,0-0.2,0.1-0.3,0.1C711,213.3,710.6,213.2,710.3,212.8z"/>
<path class="outage4" d="M686.6,215.9c-0.6-0.2-0.7-0.7-0.6-1.2l9.3-27.9c0.2-0.6,0.7-0.7,1.2-0.6c0.6,0.2,0.7,0.7,0.6,1.2l-9.3,27.8
	c-0.1,0.5-0.4,0.6-0.8,0.6C687,216,686.8,215.9,686.6,215.9z"/>
<ellipse transform="matrix(0.9942 -0.1072 0.1072 0.9942 -18.3688 80.082)" class="outage4" cx="735.7" cy="210.9" rx="3.7" ry="3.5"/>
<ellipse transform="matrix(0.9942 -0.1072 0.1072 0.9942 -18.7875 77.4921)" class="outage4" cx="711.4" cy="213.5" rx="3.7" ry="3.5"/>
<ellipse transform="matrix(0.9942 -0.1072 0.1072 0.9942 -19.2063 74.9021)" class="outage4" cx="687.1" cy="216.1" rx="3.7" ry="3.5"/>
<ellipse transform="matrix(0.2627 -0.9649 0.9649 0.2627 459.1181 772.5197)" class="outage3" cx="735" cy="85.8" rx="22.3" ry="22.3"/>
<path class="outage4" d="M748.2,94l-5.6-16.5c-0.1-0.3,0.1-0.6,0.4-0.7c0.3-0.1,0.6,0.1,0.7,0.4l5.6,16.5c0.1,0.3-0.1,0.6-0.4,0.7
	c-0.1,0-0.2,0.1-0.2,0.1C748.6,94.4,748.4,94.2,748.2,94z"/>
<path class="outage4" d="M734.1,92.8c-0.3-0.1-0.3-0.6-0.2-0.8l8.9-15c0.1-0.3,0.6-0.3,0.8-0.2c0.3,0.1,0.3,0.6,0.2,0.8l-8.9,15
	c-0.1,0.2-0.3,0.3-0.6,0.3C734.3,92.9,734.2,92.8,734.1,92.8z"/>
<path class="outage4" d="M733.8,92.5L728.2,76c-0.1-0.3,0.1-0.6,0.4-0.7c0.3-0.1,0.6,0.1,0.7,0.4l5.6,16.5c0.1,0.3-0.1,0.6-0.4,0.7
	c-0.1,0-0.2,0.1-0.2,0.1C734.2,92.8,733.9,92.7,733.8,92.5z"/>
<path class="outage4" d="M719.7,91.3c-0.3-0.1-0.3-0.6-0.2-0.8l8.9-15c0.1-0.3,0.6-0.3,0.8-0.2c0.3,0.1,0.3,0.6,0.2,0.8l-8.9,15
	c-0.1,0.2-0.3,0.3-0.6,0.3C719.8,91.4,719.7,91.4,719.7,91.3z"/>
<ellipse transform="matrix(0.1015 -0.9948 0.9948 0.1015 578.7401 829.8726)" class="outage4" cx="748.8" cy="94.5" rx="2.1" ry="2.1"/>
<ellipse class="outage4" cx="734.3" cy="93" rx="2.1" ry="2.1"/>
<ellipse class="outage4" cx="719.8" cy="91.5" rx="2.1" ry="2.1"/>
<path id="tick" class="outage6" d="M636.3,593.9h0.7c4.4,0,8-2.2,10.9-5.1l58.2-72.8c5.1-6.6,4.4-15.3-2.2-20.4
	c-6.6-5.1-15.3-4.4-20.4,2.2l-48,60.4L618,540.7c-5.8-5.8-14.6-5.8-20.4,0c-5.8,5.8-5.8,14.6,0,20.4l29.1,29.1
	C629.1,592.5,632.7,593.9,636.3,593.9L636.3,593.9z"/>
<path class="outage6" d="M562.5,181.4h0.2c1.3,0,2.4-0.7,3.3-1.5l17.4-21.8c1.5-2,1.3-4.6-0.7-6.1s-4.6-1.3-6.1,0.7l-14.4,18.1l-5.2-5.2
	c-1.7-1.7-4.4-1.7-6.1,0c-1.7,1.7-1.7,4.4,0,6.1l8.7,8.7C560.3,181,561.4,181.4,562.5,181.4L562.5,181.4z"/>
<path class="outage6" d="M567.3,324.4h0.2c1.3,0,2.4-0.7,3.3-1.5l17.4-21.8c1.5-2,1.3-4.6-0.7-6.1s-4.6-1.3-6.1,0.7L567,313.8l-5.2-5.2
	c-1.7-1.7-4.4-1.7-6.1,0s-1.7,4.4,0,6.1l8.7,8.7C565.1,324,566.2,324.4,567.3,324.4L567.3,324.4z"/>
<path class="outage6" d="M547.1,264.8h0.2c1.3,0,2.4-0.7,3.3-1.5l17.4-21.8c1.5-2,1.3-4.6-0.7-6.1s-4.6-1.3-6.1,0.7l-14.4,18.1l-5.2-5.2
	c-1.7-1.7-4.4-1.7-6.1,0c-1.7,1.7-1.7,4.4,0,6.1l8.7,8.7C544.9,264.4,546,264.8,547.1,264.8L547.1,264.8z"/>
<path class="outage6" d="M631.4,253.3h0.2c1.3,0,2.4-0.7,3.3-1.5l17.4-21.8c1.5-2,1.3-4.6-0.7-6.1s-4.6-1.3-6.1,0.7l-14.4,18.1l-5.2-5.2
	c-1.7-1.7-4.4-1.7-6.1,0c-1.7,1.7-1.7,4.4,0,6.1l8.7,8.7C629.2,252.9,630.3,253.3,631.4,253.3L631.4,253.3z"/>
<path class="outage6" d="M651.3,143.8h0.2c1.2,0,2.1-0.6,2.9-1.4l15.5-19.4c1.4-1.7,1.2-4.1-0.6-5.4s-4.1-1.2-5.4,0.6l-12.8,16.1
	l-4.7-4.7c-1.6-1.6-3.9-1.6-5.4,0c-1.6,1.6-1.6,3.9,0,5.4l7.8,7.8C649.4,143.4,650.4,143.8,651.3,143.8L651.3,143.8z"/>
<path class="outage6" d="M738.6,148.1h0.2c1.2,0,2.1-0.6,2.9-1.4l15.5-19.4c1.4-1.7,1.2-4.1-0.6-5.4c-1.7-1.4-4.1-1.2-5.4,0.6
	l-12.8,16.1l-4.7-4.7c-1.6-1.6-3.9-1.6-5.4,0s-1.6,3.9,0,5.4l7.8,7.8C736.6,147.7,737.6,148.1,738.6,148.1L738.6,148.1z"/>
<path class="outage7" d="M385.6,372.1c-64.1,58-132.1,7.3-214.2,13.2C89.3,391.1,35.6,356.6,15.6,302C-4.5,247.4,18.3,138.5,107,75.1
	C151.8,43,222.7,9.8,314.2,59.4C416.2,114.5,460.5,304.4,385.6,372.1z"/>
<circle class="outage5" cx="238" cy="212" r="50.2"/>
<path id="mouth" class="outage7" d="M211.3,243.3c0-13.6,11-24.6,24.6-24.6s24.6,11,24.6,24.6H211.3z"/>
<path id="drop" class="outage8" d="M274.2,231.7L274.2,231.7c0-6.2,5-22.4,11.2-22.4l0,0c6.2,0,11.2,16.2,11.2,22.4l0,0
	c0,6.2-5,11.2-11.2,11.2l0,0C279.3,242.9,274.2,237.9,274.2,231.7z"/>
<path class="outage7" d="M204.5,209.7c0-1.2,1-2.2,2.2-2.2c7.4,0,13.4-6,13.4-13.4c0-1.2,1-2.2,2.2-2.2s2.2,1,2.2,2.2
	c0,9.9-8,17.9-17.9,17.9C205.5,212,204.5,211,204.5,209.7z"/>
<path class="outage7" d="M247,194.1c0-1.2,1-2.2,2.2-2.2s2.2,1,2.2,2.2c0,7.4,6,13.4,13.4,13.4c1.2,0,2.2,1,2.2,2.2s-1,2.2-2.2,2.2
	C255.1,212,247,203.9,247,194.1z"/>
<path class="outage9" d="M185.6,153.3l15.6,35.9l56.7-16.3l-6.2-38.4l-9.4,18.3l-13.5-11.9l-6.4,17.6l-14-11.9l-5.5,17.4L185.6,153.3z"
	/>
<ellipse class="outage9" cx="185.6" cy="153.3" rx="4.1" ry="4.1"/>
<ellipse class="outage9" cx="208" cy="145.1" rx="4.1" ry="4.1"/>
<ellipse class="outage9" cx="228.1" cy="139.3" rx="4.1" ry="4.1"/>
<ellipse class="outage9" cx="251.7" cy="134.5" rx="4.1" ry="4.1"/>
<path id="cross" class="outage9" d="M242.9,543.2l29-29c5.1-5.1,5.1-13,0-18.1s-13-5.1-18.1,0l-29,29l-29-29c-5.1-5.1-13-5.1-18.1,0
	s-5.1,13,0,18.1l29,29l-29,29c-5.1,5.1-5.1,13,0,18.1c2.2,2.2,5.8,3.6,8.7,3.6s6.5-1.4,8.7-3.6l29-29l29,29c2.2,2.2,5.8,3.6,8.7,3.6
	c2.9,0,6.5-1.4,8.7-3.6c5.1-5.1,5.1-13,0-18.1L242.9,543.2L242.9,543.2z"/>
<polygon class="outage9" points="232.9,355.7 203.1,350.4 216.1,277.2 160.4,368.9 190.2,374.2 177.2,447.4 "/>
<path class="outage7" d="M85.1,425.4l52.9,33.1c0.5,0.3,0.7,1,0.3,1.5l-20.7,33.1c-4.1,6.6-12.8,8.6-19.4,4.5l-30.8-19.3
	c-6.6-4.1-8.6-12.8-4.5-19.4l20.7-33.1C84,425.3,84.6,425.1,85.1,425.4z M136,459.8l-51.1-32L64.7,460c-3.5,5.6-1.8,13,3.8,16.5
	l30.8,19.3c5.6,3.5,13,1.8,16.5-3.8L136,459.8z"/>
<path class="outage7" d="M73.7,419.5c-0.3,0.5-0.2,1.2,0.3,1.5l72.8,45.5c0.5,0.3,1.2,0.2,1.5-0.3s0.2-1.2-0.3-1.5l-72.8-45.5
	C74.7,418.9,74,419,73.7,419.5z"/>
<path class="outage7" d="M146.5,418.3c2.4,1.5,3.1,4.7,1.6,7.1l-18.3,29.3c-0.3,0.5-1,0.6-1.5,0.3l-6.9-4.3c-0.5-0.3-0.7-1-0.3-1.5
	l18.3-29.3C140.9,417.5,144.1,416.8,146.5,418.3z M128.6,452.6l17.8-28.4c0.9-1.4,0.5-3.3-0.9-4.1c-1.4-0.9-3.3-0.4-4.1,1
	l-17.8,28.4L128.6,452.6z"/>
<path class="outage7" d="M117.7,400.2c2.4,1.5,3.1,4.7,1.6,7.1L101,436.6c-0.3,0.5-1,0.7-1.5,0.3l-6.9-4.3c-0.5-0.3-0.7-1-0.3-1.5
	l18.3-29.3C112.1,399.4,115.3,398.7,117.7,400.2z M99.7,434.6l17.8-28.4c0.9-1.4,0.5-3.3-0.9-4.1c-1.4-0.9-3.3-0.4-4.1,1l-17.8,28.4
	L99.7,434.6z"/>
<path class="outage7" d="M77.6,482.6c0.3-0.1,0.6,0,0.9,0.1l11,6.9c0.3,0.2,0.4,0.4,0.5,0.7c0.1,0.3,0,0.6-0.2,0.8l-8,10.4
	c-0.3,0.4-0.9,0.5-1.4,0.3l-8.8-5.5c-0.5-0.3-0.6-0.9-0.4-1.4l5.8-11.7c0,0,0-0.1,0.1-0.1C77.1,482.8,77.3,482.7,77.6,482.6z
	 M80.6,499.5l6.7-8.7l-9.1-5.7l-4.9,9.8L80.6,499.5z"/>
<path class="outage7" d="M77.4,498.7l-13.3,21.2c-7.8,12.4-24.3,16.2-36.7,8.5l-37.7-23.6l1.1-1.8l37.7,23.6c11.5,7.2,26.6,3.7,33.8-7.8
	l13.3-21.2c0.3-0.5,1-0.7,1.5-0.3S77.7,498.2,77.4,498.7z"/>
<path class="outage7" d="M799.8,425.8l20.7,33.1c4.1,6.6,2.1,15.3-4.5,19.4l-30.8,19.3c-6.6,4.1-15.3,2.1-19.4-4.5L745,460
	c-0.3-0.5-0.2-1.2,0.3-1.5l52.9-33.1C798.8,425.1,799.5,425.3,799.8,425.8z M767.6,492c3.5,5.6,10.9,7.3,16.5,3.8l30.8-19.3
	c5.6-3.5,7.3-10.9,3.8-16.5l-20.2-32.2l-51.1,32L767.6,492z"/>
<path class="outage7" d="M809.7,419.5c0.3,0.5,0.2,1.2-0.3,1.5l-72.8,45.5c-0.5,0.3-1.2,0.2-1.5-0.3s-0.2-1.2,0.3-1.5l72.8-45.5
	C808.7,418.9,809.4,419,809.7,419.5z"/>
<path class="outage7" d="M744,419.9l18.3,29.3c0.3,0.5,0.2,1.2-0.3,1.5l-6.9,4.3c-0.5,0.3-1.2,0.2-1.5-0.3l-18.3-29.3
	c-1.5-2.4-0.8-5.6,1.6-7.1C739.3,416.8,742.5,417.5,744,419.9z M760,449.4L742.2,421c-0.9-1.4-2.7-1.8-4.1-1
	c-1.4,0.9-1.8,2.7-0.9,4.1l17.8,28.4L760,449.4z"/>
<path class="outage7" d="M772.8,401.8l18.3,29.3c0.3,0.5,0.2,1.2-0.3,1.5l-6.9,4.3c-0.5,0.3-1.2,0.2-1.5-0.3l-18.3-29.3
	c-1.5-2.4-0.8-5.6,1.6-7.1C768.2,398.7,771.3,399.4,772.8,401.8z M788.8,431.4L771,403c-0.9-1.4-2.7-1.8-4.1-1
	c-1.4,0.9-1.8,2.7-0.9,4.1l17.8,28.4L788.8,431.4z"/>
<path class="outage7" d="M806.5,483.1L806.5,483.1l5.9,11.8c0.2,0.5,0.1,1.1-0.4,1.4l-8.8,5.5c-0.5,0.3-1.1,0.2-1.4-0.3l-8-10.4
	c-0.2-0.2-0.3-0.5-0.2-0.8s0.2-0.6,0.5-0.7l11-6.9c0.3-0.2,0.6-0.2,0.9-0.1C806.1,482.7,806.3,482.8,806.5,483.1z M810,495l-4.9-9.8
	l-9.1,5.7l6.7,8.7L810,495z"/>
<path class="outage7" d="M806.1,498.7l13.3,21.2c7.8,12.4,24.3,16.2,36.7,8.5l37.7-23.6l-1.1-1.8L855,526.6c-11.5,7.2-26.6,3.7-33.8-7.8
	l-13.3-21.2c-0.3-0.5-1-0.7-1.5-0.3S805.8,498.2,806.1,498.7z"/>
<polygon class="outage9" points="850.1,361 831.9,357.8 839.9,313.1 805.9,369.1 824.1,372.3 816.2,417 "/>
</svg>
