<?xml version="1.0" encoding="utf-8"?>
<!-- Generator: Adobe Illustrator 23.1.1, SVG Export Plug-In . SVG Version: 6.00 Build 0)  -->
<svg version="1.1" id="GB" xmlns="http://www.w3.org/2000/svg" xmlns:xlink="http://www.w3.org/1999/xlink" x="0px" y="0px"
	 viewBox="0 0 150 150" style="enable-background:new 0 0 150 150;" xml:space="preserve">
<g>
	<path d="M34.7,89.7V60.3C34.7,50.3,43,42,53.1,42s18.3,8.3,18.3,18.3v1h-7.6v-1c0-5.9-4.7-10.7-10.7-10.7s-10.7,4.7-10.7,10.7v29.3
		c0,5.9,4.7,10.7,10.7,10.7s10.7-4.7,10.7-10.7V78.8H53v-7.6h18.3v18.4c0,10.1-8.3,18.3-18.3,18.3S34.7,99.7,34.7,89.7z"/>
	<path d="M78.6,43h18.6c9.9,0,18.1,8.1,18.1,18.1c0,6.3-3.8,11.2-8,14.1c4.2,2.8,8,7.6,8,14.1c0,9.9-8.1,18.1-18.1,18.1H78.6V43z
		 M97.3,71.2c5.8,0,10.4-4.7,10.4-10.2c0-5.8-4.7-10.4-10.4-10.4h-11v20.7L97.3,71.2L97.3,71.2z M97.3,99.4
		c5.8,0,10.4-4.7,10.4-10.4c0-5.7-4.7-10.1-10.4-10.1h-11v20.6H97.3z"/>
</g>
</svg>
