<?xml version="1.0" encoding="utf-8"?>
<!-- Generator: Adobe Illustrator 23.1.1, SVG Export Plug-In . SVG Version: 6.00 Build 0)  -->
<svg version="1.1" id="Layer_1" xmlns="http://www.w3.org/2000/svg" xmlns:xlink="http://www.w3.org/1999/xlink" x="0px" y="0px"
	 viewBox="0 0 793.7 346.7" style="enable-background:new 0 0 793.7 346.7;" xml:space="preserve">
<style type="text/css">
	.st0{fill:#F8FAFF;}
</style>
<path class="st0" d="M466.25,247.1c-3.5,3.16-6.94,6.37-10.32,9.61c-12.35,11.84-22.98,18.85-37.12,29.2
	c-11.18,8.19-23.77,15.09-36.9,21.09c-57.38,26.19-142.2,17.62-207.67,19.35C7.78,330.75,20,347.52,20,347.52l773.7-0.67
	c0-10.12,0-108.42,0-225.23c0,2.96-23.13,12.78-25.99,14.26c-15.73,8.17-31.39,16.12-48.52,22.3
	c-19.35,6.99-39.71,12.18-60.53,15.44c-20.66,3.24-41.97,2.48-62.13,6.66c-36.09,7.49-69.74,22.25-97.96,41.78
	C487.06,230.06,476.37,237.98,466.25,247.1z"/>
</svg>
