<?xml version="1.0" encoding="utf-8"?>
<!-- Generator: Adobe Illustrator 24.3.0, SVG Export Plug-In . SVG Version: 6.00 Build 0)  -->
<svg version="1.1" id="Layer_1" xmlns="http://www.w3.org/2000/svg" xmlns:xlink="http://www.w3.org/1999/xlink" x="0px" y="0px"
	 viewBox="0 0 783.13 783.13" style="enable-background:new 0 0 783.13 783.13;" xml:space="preserve">
<style type="text/css">
	.st0{fill:#2C3ACF;}
	.st1{fill:#FFFFFF;}
</style>
<g>
	<circle class="st0" cx="391.57" cy="391.57" r="391.57"/>
</g>
<g>
	<g>
		<g>
			<path class="st1" d="M137.52,510.99c-1.24,0-2.5-0.29-3.67-0.9c-3.92-2.03-5.46-6.86-3.42-10.78l127.34-245.76
				c2.03-3.92,6.86-5.46,10.78-3.42c3.92,2.03,5.46,6.86,3.42,10.78L144.63,506.67C143.21,509.41,140.41,510.99,137.52,510.99z"/>
		</g>
		<g>
			<path class="st1" d="M392.21,510.99c-2.89,0-5.69-1.58-7.11-4.32L257.76,260.9c-2.03-3.92-0.5-8.75,3.42-10.78
				c3.92-2.03,8.75-0.5,10.78,3.42L399.3,499.31c2.03,3.92,0.5,8.75-3.42,10.78C394.71,510.7,393.45,510.99,392.21,510.99z"/>
		</g>
		<g>
			<path class="st1" d="M392.19,510.99c-1.24,0-2.5-0.29-3.67-0.9c-3.92-2.03-5.46-6.86-3.42-10.78l127.34-245.76
				c2.03-3.92,6.86-5.46,10.78-3.42c3.92,2.03,5.46,6.86,3.42,10.78L399.3,506.67C397.88,509.41,395.09,510.99,392.19,510.99z"/>
		</g>
		<g>
			<path class="st1" d="M646.89,510.99c-2.89,0-5.69-1.58-7.11-4.32L512.44,260.9c-2.03-3.92-0.5-8.75,3.42-10.78
				c3.92-2.03,8.75-0.5,10.78,3.42l127.34,245.76c2.03,3.92,0.5,8.75-3.42,10.78C649.38,510.7,648.12,510.99,646.89,510.99z"/>
		</g>
	</g>
	<g>
		<circle class="st1" cx="647.52" cy="503.62" r="32.47"/>
	</g>
	<g>
		<circle class="st1" cx="391.57" cy="503.62" r="32.47"/>
	</g>
	<g>
		<circle class="st1" cx="136.89" cy="508.72" r="32.47"/>
	</g>
</g>
<text transform="matrix(1 0 0 1 924.1097 531.7637)" style="display:none;fill:#26262D; font-family:'Quicksand-SemiBold'; font-size:408.5468px;">MassBit</text>
</svg>
