<?xml version="1.0" encoding="utf-8"?>
<!-- Generator: Adobe Illustrator 24.3.0, SVG Export Plug-In . SVG Version: 6.00 Build 0)  -->
<svg version="1.1" xmlns="http://www.w3.org/2000/svg" xmlns:xlink="http://www.w3.org/1999/xlink" x="0px" y="0px"
	 viewBox="0 0 925 305.56" style="enable-background:new 0 0 925 305.56;" xml:space="preserve">
<style type="text/css">
	.st0{display:none;}
	.st1{display:inline;}
	.st2{fill:#BBDDFF;}
	.st3{fill:#98CBF4;}
	.st4{fill:none;stroke:#BBDDFF;stroke-width:2;stroke-miterlimit:10;}
	.st5{fill:#2C3ACF;}
	.st6{fill:#FFFFFF;}
</style>
<g id="fore-old" class="st0">
	<g class="st1">
		<g>
			<path class="st2" d="M437.37,303.85l0.9-6.54c0.28-2.18,0.56-4.36,1.01-6.54l1.18-6.47c0.17-1.09,0.45-2.18,0.67-3.2l1.46-6.41
				c0.22-1.09,0.56-2.12,0.84-3.2c0.56-2.12,1.07-4.23,1.68-6.35c1.18-4.17,2.36-8.4,3.59-12.56c1.23-4.17,2.41-8.33,3.59-12.56
				l1.68-6.28l0.84-3.14l0.73-3.2l1.51-6.35c0.45-2.12,0.9-4.29,1.29-6.41c0.45-2.12,0.9-4.29,1.29-6.41l1.01-6.54
				c0.34-2.18,0.73-4.29,1.07-6.47l1.68-13.08l0.22-1.6l0.17-1.67l0.34-3.27c0.45-4.36,0.9-8.72,1.29-13.08l1.01-13.14
				c0.17-2.18,0.34-4.36,0.45-6.6l0.34-6.6l0.73-13.14c0.28-8.78,0.5-17.63,0.79-26.41h1.12c-0.22,8.78-0.45,17.63-0.73,26.41
				l-0.62,13.27l-0.34,6.6c-0.11,2.18-0.28,4.42-0.45,6.6l-0.9,13.14c-0.39,4.36-0.84,8.78-1.29,13.14l-0.34,3.27l-0.17,1.67
				l-0.22,1.67l-1.68,13.08c-0.34,2.18-0.73,4.36-1.07,6.54l-1.07,6.54c-0.39,2.18-0.84,4.29-1.23,6.47
				c-0.45,2.18-0.84,4.29-1.29,6.47l-1.46,6.41l-0.73,3.2l-0.84,3.2l-1.63,6.35c-1.18,4.17-2.36,8.4-3.53,12.56
				c-1.23,4.17-2.41,8.4-3.53,12.56c-0.56,2.12-1.07,4.23-1.63,6.28c-0.28,1.03-0.56,2.12-0.79,3.14l-1.46,6.41
				c-0.22,1.09-0.5,2.12-0.67,3.2l-1.18,6.41c-0.45,2.12-0.67,4.29-0.95,6.47l-0.9,6.47L437.37,303.85L437.37,303.85z"/>
			<path class="st3" d="M453.68,82.55c0.43,2.16,1.03,3.65,1.48,5.25c1.36,4.74,5.11,6.67,9.8,5.33c5.21-1.49,6.81-5.49,5.6-9.71
				c-0.54-1.88-0.87-3.51-1.64-5.24l4.13-1.46c1.17,2.94,1.17,2.94,1.96,5.69c2.04,7.1-0.77,14.09-8.76,16.38
				c-6.67,1.91-12.9-0.82-15.23-8.93c-0.82-2.85-1.16-3.85-1.47-6.1L453.68,82.55z"/>
			
				<rect x="462.25" y="79.37" transform="matrix(0.9612 -0.2757 0.2757 0.9612 -4.5346 131.2578)" class="st3" width="4.65" height="4.77"/>
			
				<rect x="456.29" y="81.08" transform="matrix(0.9612 -0.2757 0.2757 0.9612 -5.2369 129.6804)" class="st3" width="4.65" height="4.77"/>
		</g>
		<g>
			<path class="st2" d="M647.58,307.22l-1.64-0.56l0.97-6.66c0.35-2.23,0.74-4.44,0.92-6.69l0.71-6.74
				c0.15-1.13,0.18-2.25,0.28-3.41l0.47-6.87c0.08-1.09,0.13-2.28,0.17-3.4c0.07-2.24,0.2-4.52,0.29-6.83
				c0.15-4.55,0.28-9.19,0.33-13.79c0.1-4.58,0.23-9.22,0.33-13.79l0.3-6.89l0.14-3.49l0.23-3.44l0.47-6.87
				c0.2-2.31,0.43-4.54,0.63-6.85c0.25-2.29,0.43-4.54,0.68-6.82l0.84-6.8c0.3-2.26,0.55-4.55,0.84-6.8l2.07-13.39l0.26-1.71
				l0.3-1.68l0.59-3.31c0.79-4.41,1.59-8.88,2.43-13.26l2.77-13.07c0.44-2.18,0.9-4.42,1.39-6.57l1.49-6.51l3.05-13.06
				c2.13-8.58,4.32-17.2,6.5-25.75l0.97,0.54c-2.13,8.58-4.32,17.2-6.45,25.78l-2.92,12.99l-1.49,6.51
				c-0.51,2.21-0.95,4.39-1.39,6.57l-2.67,13.13c-0.84,4.38-1.62,8.79-2.41,13.2l-0.59,3.31l-0.3,1.68l-0.24,1.65l-2.07,13.39
				c-0.3,2.26-0.53,4.48-0.82,6.74l-0.89,6.78c-0.23,2.22-0.43,4.54-0.61,6.79c-0.23,2.22-0.43,4.54-0.61,6.79l-0.4,6.84l-0.23,3.44
				l-0.12,3.43l-0.24,6.86c-0.12,4.64-0.23,9.22-0.28,13.82c-0.06,4.61-0.18,9.24-0.28,13.82c-0.04,2.33-0.17,4.61-0.26,6.92
				c-0.05,1.18-0.04,2.33-0.14,3.49l-0.47,6.87c-0.08,1.1-0.13,2.28-0.28,3.41l-0.73,6.8c-0.2,2.31-0.55,4.55-0.89,6.78
				L647.58,307.22L647.58,307.22z"/>
			<g>
				<path class="st3" d="M695.03,86.5c-1.06,2.01-1.72,2.82-3.48,5.22c-4.98,6.82-11.77,7.24-17.38,3.14
					c-6.71-4.9-6.94-12.43-2.59-18.39c1.69-2.31,1.69-2.31,3.8-4.67l3.37,2.8c-1.31,1.36-2.19,2.78-3.34,4.36
					c-2.58,3.54-2.46,7.84,1.91,11.04c3.94,2.88,8.13,2.35,11.03-1.63c0.98-1.35,2.05-2.53,3.2-4.42L695.03,86.5z"/>
				
					<rect x="679.19" y="77.18" transform="matrix(0.5898 -0.8076 0.8076 0.5898 215.3904 583.0292)" class="st3" width="4.77" height="4.65"/>
				
					<rect x="684.19" y="80.84" transform="matrix(0.5898 -0.8076 0.8076 0.5898 214.4899 588.5681)" class="st3" width="4.77" height="4.65"/>
			</g>
		</g>
		<g>
			<path class="st2" d="M61.24,304.69l-0.99-5.66c-0.35-1.88-0.7-3.76-0.89-5.68l-0.73-5.65c-0.15-0.95-0.2-1.91-0.28-2.82
				l-0.46-5.65c-0.1-0.96-0.08-1.88-0.13-2.85c-0.08-1.88-0.21-3.75-0.25-5.64c-0.1-3.71-0.21-7.48-0.26-11.21
				c-0.05-3.72-0.14-7.44-0.26-11.21l-0.23-5.58l-0.11-2.79l-0.23-2.83l-0.39-5.61c-0.18-1.86-0.38-3.77-0.61-5.62
				c-0.18-1.86-0.38-3.77-0.61-5.62l-0.89-5.68c-0.3-1.89-0.53-3.74-0.83-5.63L51,197.67l-0.24-1.39l-0.31-1.43l-0.6-2.81
				c-0.79-3.74-1.59-7.49-2.43-11.22l-2.7-11.22c-0.45-1.86-0.89-3.72-1.41-5.63l-1.51-5.61l-2.95-11.17
				c-2.15-7.43-4.38-14.9-6.53-22.33l0.99-0.2c2.2,7.42,4.43,14.89,6.58,22.32l3.08,11.26l1.51,5.61c0.5,1.85,0.96,3.77,1.41,5.63
				l2.8,11.2c0.84,3.73,1.66,7.53,2.45,11.27l0.6,2.81l0.31,1.43l0.26,1.44l2.09,11.29c0.3,1.89,0.55,3.79,0.84,5.69l0.84,5.69
				c0.25,1.9,0.43,3.76,0.68,5.66c0.2,1.91,0.43,3.76,0.63,5.67l0.46,5.65l0.23,2.83l0.13,2.85l0.3,5.63
				c0.1,3.71,0.21,7.48,0.31,11.2c0.05,3.72,0.16,7.49,0.31,11.2c0.08,1.88,0.21,3.75,0.28,5.57c0.03,0.91,0.08,1.88,0.16,2.78
				l0.46,5.65c0.1,0.96,0.13,1.87,0.28,2.81l0.71,5.6c0.18,1.86,0.58,3.73,0.93,5.61l0.98,5.6L61.24,304.69L61.24,304.69z"/>
		</g>
		<g>
			<path class="st2" d="M506.65,306.09c3.06-6.16,6.77-12.54,9.04-19.16c2.3-6.63,4.29-13.39,6.06-20.27
				c3.54-13.65,6.33-27.5,8.82-41.27c2.49-13.83,4.68-27.63,6.83-41.42l6.35-41.43l1.23,0.01L538.71,184
				c-2.12,13.83-4.27,27.62-6.76,41.5c-2.38,13.78-5.13,27.67-8.67,41.42c-2.45,9.51-4.31,15.33-6.1,20.44
				c-2.3,6.73-5.53,13.28-8.62,19.56L506.65,306.09z"/>
			<path class="st3" d="M551.59,135.34l-5.69,0.28c-3.68-11.36,4.7-17.66,5.06-17.93l3.52,4.21l-1.76-2.11l1.79,2.09
				c-0.16,0.13-3.08,2.42-3.53,6.75c2.24-1.38,5.44-2.74,10.01-3.76l1.07,5.32C553.43,132.13,551.6,135.31,551.59,135.34z"/>
		</g>
		<g>
			<g>
				<path class="st2" d="M801.93,306.98l-0.83-1.16c23.42-28.27,32.94-68.77,42.14-107.94c3.25-13.81,6.6-28.09,10.5-41.4
					c8.23-28.13,9.26-38.74,12-67.09c2.34-24.16,0.27-55.06,0.25-55.36l1.22-0.14c0.02,0.31,2.1,31.38-0.25,55.7
					c-2.75,28.49-3.78,39.15-12.07,67.46c-3.88,13.26-7.23,27.52-10.47,41.3C835.16,237.71,825.59,278.42,801.93,306.98z"/>
			</g>
			<g>
				<path class="st3" d="M879,15.86c-0.18,2.58-0.65,4.38-0.95,6.31c-0.88,5.7-4.94,8.5-10.59,7.63c-6.27-0.96-8.71-5.37-7.93-10.44
					c0.35-2.26,0.49-4.21,1.13-6.33l-5.01-1.09c-0.92,3.59-0.92,3.59-1.43,6.9c-1.31,8.55,2.98,16.24,12.59,17.72
					c8.02,1.23,14.86-2.86,16.36-12.62c0.53-3.43,0.78-4.64,0.8-7.3L879,15.86L879,15.86z"/>
				
					<rect x="863.43" y="13.91" transform="matrix(0.1521 -0.9884 0.9884 0.1521 718.0437 870.2511)" class="st3" width="5.59" height="5.44"/>
				
					<rect x="870.61" y="15.01" transform="matrix(0.1521 -0.9884 0.9884 0.1521 723.0387 878.2759)" class="st3" width="5.59" height="5.44"/>
			</g>
		</g>
		<g>
			<path class="st2" d="M184.6,305.89c3.28-7.67,7.46-15.75,9.54-23.71c2.13-7.99,3.82-16.04,5.17-24.17
				c2.72-16.13,7.99-32.7,10.79-48.66c2.86-16.27,2.9-32.05,2.74-47.95c-0.12-11.91-3.18-47.46-3.18-47.46l1.73-0.31
				c0,0,3.13,35.55,3.29,47.46c0.21,15.92,0.15,32.4-2.62,48.01c-2.83,15.93-7.86,32.53-10.55,48.78
				c-1.87,11.24-3.53,18.21-5.19,24.37c-2.11,8.1-5.58,16.24-8.88,24.05L184.6,305.89z"/>
			<g>
				<path class="st3" d="M215.13,108.23l-5.66,0.58c-4.27-11.15,3.76-17.89,4.1-18.17l3.74,4.02l-1.87-2.01l1.89,1.99
					c-0.16,0.14-2.95,2.58-3.16,6.93c2.17-1.49,5.29-3.03,9.79-4.29l1.35,5.26C216.8,104.92,215.14,108.2,215.13,108.23z"/>
			</g>
		</g>
		<g>
			<path class="st2" d="M735.05,305.68l0.9-7.66c0.28-2.55,0.56-5.11,1.01-7.66l1.18-7.58c0.17-1.28,0.45-2.55,0.67-3.75l1.46-7.51
				c0.22-1.28,0.56-2.48,0.84-3.75c0.56-2.48,1.07-4.96,1.68-7.43c1.18-4.88,2.36-9.84,3.59-14.72s2.41-9.76,3.59-14.72l1.68-7.36
				l0.84-3.68l0.73-3.75l1.51-7.43c0.45-2.48,0.9-5.03,1.29-7.51c0.45-2.48,0.9-5.03,1.29-7.51l1.01-7.66
				c0.34-2.55,0.73-5.03,1.07-7.58l1.68-15.32l0.22-1.88l0.17-1.95l0.34-3.83c0.45-5.11,0.9-10.21,1.29-15.32l1.01-15.39
				c0.17-2.55,0.34-5.11,0.45-7.73l0.34-7.73l0.73-15.39c0.28-10.29,0.5-20.65,0.79-30.94h1.12c-0.22,10.29-0.45,20.65-0.73,30.94
				l-0.62,15.54l-0.34,7.73c-0.11,2.55-0.28,5.18-0.45,7.73l-0.9,15.39c-0.39,5.11-0.84,10.29-1.29,15.39l-0.34,3.83l-0.17,1.95
				l-0.22,1.95l-1.68,15.32c-0.34,2.55-0.73,5.11-1.07,7.66l-1.07,7.66c-0.39,2.55-0.84,5.03-1.23,7.58
				c-0.45,2.55-0.84,5.03-1.29,7.58l-1.46,7.51l-0.73,3.75l-0.84,3.75l-1.63,7.43c-1.18,4.88-2.36,9.84-3.53,14.72
				c-1.23,4.88-2.41,9.84-3.53,14.72c-0.56,2.48-1.07,4.96-1.63,7.36c-0.28,1.2-0.56,2.48-0.79,3.68l-1.46,7.51
				c-0.22,1.28-0.5,2.48-0.67,3.75l-1.18,7.51c-0.45,2.48-0.67,5.03-0.95,7.58l-0.9,7.58L735.05,305.68L735.05,305.68z"/>
			<g>
				<path class="st3" d="M774.15,57.09l-5.69,0.28c-3.68-11.36,4.7-17.66,5.06-17.93l3.52,4.21l-1.76-2.11l1.79,2.09
					c-0.16,0.13-3.08,2.42-3.53,6.75c2.24-1.38,5.44-2.74,10.01-3.76l1.07,5.32C775.99,53.88,774.16,57.06,774.15,57.09z"/>
			</g>
		</g>
		<g>
			<path class="st2" d="M318.8,307.82l-1.63-0.5l0.82-5.17c0.3-1.73,0.64-3.44,0.78-5.2l0.57-5.24c0.12-0.88,0.13-1.75,0.21-2.65
				l0.32-5.36c0.06-0.85,0.09-1.78,0.1-2.65c0.02-1.75,0.11-3.53,0.15-5.33c0.06-3.55,0.09-7.17,0.05-10.77
				c0.01-3.57,0.04-7.2,0.05-10.77l0.16-5.38l0.06-2.72l0.16-2.68l0.32-5.36c0.15-1.8,0.33-3.53,0.48-5.33
				c0.2-1.78,0.33-3.53,0.53-5.31l0.69-5.29c0.25-1.76,0.45-3.53,0.69-5.29l1.78-10.4l0.22-1.33l0.27-1.31l0.52-2.56
				c0.69-3.42,1.4-6.89,2.13-10.28l2.47-10.12c0.39-1.69,0.8-3.42,1.24-5.09l1.34-5.04l2.75-10.1c1.93-6.63,3.92-13.29,5.9-19.91
				l0.97,0.46c-1.93,6.63-3.92,13.29-5.85,19.93l-2.62,10.05l-1.34,5.04c-0.46,1.71-0.85,3.4-1.24,5.09l-2.38,10.17
				c-0.74,3.4-1.43,6.82-2.12,10.24l-0.52,2.56l-0.27,1.31l-0.2,1.28l-1.78,10.4c-0.25,1.76-0.43,3.49-0.68,5.24l-0.74,5.27
				c-0.18,1.73-0.33,3.53-0.47,5.29c-0.18,1.73-0.33,3.53-0.47,5.29l-0.26,5.33l-0.16,2.68l-0.05,2.68l-0.1,5.35
				c-0.03,3.62-0.04,7.2,0,10.79c0.04,3.6,0.01,7.22,0,10.79c0.01,1.82-0.07,3.6-0.11,5.4c-0.03,0.92,0.01,1.82-0.06,2.72
				l-0.32,5.36c-0.06,0.85-0.09,1.78-0.21,2.65l-0.58,5.29c-0.15,1.8-0.45,3.53-0.74,5.27L318.8,307.82L318.8,307.82z"/>
			<g>
				<path class="st3" d="M361.57,135.01c-1.06,2.01-1.72,2.82-3.48,5.22c-4.98,6.82-11.77,7.24-17.38,3.14
					c-6.71-4.9-6.94-12.43-2.59-18.39c1.69-2.31,1.69-2.31,3.8-4.67l3.37,2.8c-1.31,1.36-2.19,2.78-3.34,4.36
					c-2.58,3.54-2.46,7.84,1.91,11.04c3.94,2.88,8.13,2.35,11.03-1.63c0.98-1.35,2.05-2.53,3.2-4.42L361.57,135.01z"/>
				
					<rect x="345.73" y="125.68" transform="matrix(0.5898 -0.8076 0.8076 0.5898 39.433 333.6392)" class="st3" width="4.77" height="4.65"/>
				
					<rect x="350.75" y="129.33" transform="matrix(0.5898 -0.8076 0.8076 0.5898 38.5398 339.1876)" class="st3" width="4.77" height="4.65"/>
			</g>
		</g>
		<g>
			<path class="st2" d="M103.91,306.07l0.18-6.76c0.04-2.25,0.08-4.5,0.29-6.78l0.46-6.75c0.05-1.13,0.21-2.28,0.32-3.36l0.75-6.73
				c0.1-1.14,0.32-2.24,0.48-3.39c0.32-2.24,0.59-4.46,0.97-6.71c0.71-4.42,1.42-8.9,2.19-13.33s1.48-8.85,2.19-13.33l0.98-6.64
				l0.49-3.32l0.37-3.37l0.81-6.68c0.21-2.22,0.42-4.5,0.58-6.7c0.21-2.22,0.42-4.5,0.58-6.7l0.29-6.78
				c0.1-2.26,0.25-4.47,0.35-6.73l0.24-13.51l0.05-1.66l-0.02-1.71l-0.02-3.36c-0.03-4.48-0.06-8.97-0.15-13.44l-0.43-13.45
				c-0.07-2.23-0.14-4.46-0.28-6.75l-0.39-6.73l-0.71-13.4c-0.68-8.92-1.42-17.9-2.1-26.82l1.11-0.2
				c0.74,8.91,1.48,17.89,2.16,26.81l0.84,13.51l0.39,6.73c0.13,2.22,0.21,4.52,0.28,6.75l0.54,13.43c0.09,4.47,0.13,9.02,0.16,13.5
				l0.02,3.36l0.02,1.71l-0.04,1.72l-0.24,13.51c-0.1,2.26-0.25,4.53-0.34,6.79l-0.34,6.79c-0.15,2.27-0.36,4.49-0.52,6.76
				c-0.21,2.28-0.36,4.49-0.57,6.77l-0.75,6.73l-0.37,3.37l-0.48,3.39l-0.92,6.7c-0.71,4.42-1.42,8.9-2.13,13.32
				c-0.77,4.43-1.47,8.91-2.13,13.32c-0.32,2.24-0.59,4.46-0.93,6.63c-0.17,1.09-0.32,2.24-0.44,3.31l-0.75,6.73
				c-0.1,1.14-0.27,2.23-0.32,3.36l-0.47,6.68c-0.21,2.22-0.2,4.46-0.24,6.71l-0.18,6.7H103.91L103.91,306.07z"/>
		</g>
	</g>
</g>
<g id="fore_1_">
	<path class="st4" d="M0,119.61c0,0,49.76-26.73,87.36-36.88s112.19,27.36,124.62,23.68c12.44-3.67,109.35,8.26,135.47,0.18
		c41.65-12.87,110.77-14.27,119.4-12.87c17.98,2.93,84.46,26.41,105.17,22.37c20.7-4.05,92.25-37.75,137.16-39.72
		c44.91-1.97,72.97-33.21,91.28-34.43c18.31-1.22,85.16-18.08,105.53-22.67"/>
	<g>
		<circle class="st5" cx="363.17" cy="129.54" r="24.2"/>
	</g>
	<g>
		<g>
			<g>
				<path class="st6" d="M346.03,132.19c-0.07-0.02-0.14-0.06-0.2-0.12c-0.2-0.19-0.2-0.5-0.01-0.7l11.84-12.35
					c0.19-0.2,0.5-0.2,0.7-0.01c0.2,0.19,0.2,0.5,0.01,0.7l-11.84,12.35C346.39,132.19,346.2,132.24,346.03,132.19z"/>
			</g>
			<g>
				<path class="st6" d="M361.12,136.63c-0.17-0.05-0.31-0.19-0.35-0.38l-3.26-16.79c-0.05-0.27,0.12-0.53,0.39-0.58
					c0.27-0.05,0.53,0.12,0.58,0.39l3.26,16.79c0.05,0.27-0.12,0.53-0.39,0.58C361.28,136.66,361.2,136.65,361.12,136.63z"/>
			</g>
			<g>
				<path class="st6" d="M361.12,136.63c-0.07-0.02-0.14-0.06-0.2-0.12c-0.2-0.19-0.2-0.5-0.01-0.7l11.84-12.35
					c0.19-0.2,0.5-0.2,0.7-0.01c0.2,0.19,0.2,0.5,0.01,0.7l-11.84,12.35C361.49,136.64,361.29,136.68,361.12,136.63z"/>
			</g>
			<g>
				<path class="st6" d="M376.22,141.08c-0.17-0.05-0.31-0.19-0.35-0.38l-3.26-16.79c-0.05-0.27,0.12-0.53,0.39-0.58
					c0.27-0.05,0.53,0.12,0.58,0.39l3.26,16.79c0.05,0.27-0.12,0.53-0.39,0.58C376.38,141.1,376.3,141.1,376.22,141.08z"/>
			</g>
		</g>
		<g>
			<circle class="st6" cx="376.39" cy="140.65" r="2.01"/>
		</g>
		<g>
			<circle class="st6" cx="361.21" cy="136.18" r="2.01"/>
		</g>
		<g>
			<circle class="st6" cx="346.03" cy="132.04" r="2.01"/>
		</g>
	</g>
	<g>
		<g>
			<circle class="st5" cx="482.07" cy="86.69" r="24.2"/>
		</g>
		<g>
			<g>
				<g>
					<path class="st6" d="M469.16,98.27c-0.07,0.02-0.15,0.03-0.23,0.01c-0.27-0.05-0.45-0.31-0.39-0.58l3.17-16.81
						c0.05-0.27,0.31-0.45,0.58-0.39c0.27,0.05,0.45,0.31,0.39,0.58l-3.17,16.81C469.47,98.08,469.33,98.22,469.16,98.27z"/>
				</g>
				<g>
					<path class="st6" d="M484.23,93.74c-0.17,0.05-0.36,0.01-0.5-0.13l-11.91-12.28c-0.19-0.2-0.19-0.51,0.01-0.7
						s0.51-0.19,0.7,0.01l11.91,12.28c0.19,0.2,0.19,0.51-0.01,0.7C484.37,93.68,484.3,93.72,484.23,93.74z"/>
				</g>
				<g>
					<path class="st6" d="M484.23,93.74c-0.07,0.02-0.15,0.03-0.23,0.01c-0.27-0.05-0.45-0.31-0.39-0.58l3.17-16.81
						c0.05-0.27,0.31-0.45,0.58-0.39c0.27,0.05,0.45,0.31,0.39,0.58l-3.17,16.81C484.54,93.55,484.4,93.69,484.23,93.74z"/>
				</g>
				<g>
					<path class="st6" d="M499.3,89.21c-0.17,0.05-0.36,0.01-0.5-0.13L486.9,76.8c-0.19-0.2-0.19-0.51,0.01-0.7s0.51-0.19,0.7,0.01
						l11.91,12.28c0.19,0.2,0.19,0.51-0.01,0.7C499.45,89.15,499.38,89.19,499.3,89.21z"/>
				</g>
			</g>
			<g>
				<circle class="st6" cx="499.21" cy="88.77" r="2.01"/>
			</g>
			<g>
				<circle class="st6" cx="484.06" cy="93.32" r="2.01"/>
			</g>
			<g>
				<circle class="st6" cx="469.08" cy="98.15" r="2.01"/>
			</g>
		</g>
	</g>
	<g>
		<g>
			<circle class="st5" cx="573.68" cy="123.31" r="24.2"/>
		</g>
		<g>
			<g>
				<g>
					<path class="st6" d="M557.11,128.47c-0.08-0.01-0.15-0.04-0.22-0.09c-0.22-0.16-0.28-0.47-0.12-0.69l9.88-13.97
						c0.16-0.22,0.47-0.28,0.69-0.12c0.22,0.16,0.28,0.47,0.12,0.69l-9.88,13.97C557.47,128.42,557.29,128.5,557.11,128.47z"/>
				</g>
				<g>
					<path class="st6" d="M572.7,130.63c-0.18-0.02-0.33-0.14-0.4-0.32l-5.71-16.12c-0.09-0.26,0.04-0.54,0.3-0.63
						c0.26-0.09,0.54,0.04,0.63,0.3l5.71,16.12c0.09,0.26-0.04,0.54-0.3,0.63C572.86,130.63,572.78,130.64,572.7,130.63z"/>
				</g>
				<g>
					<path class="st6" d="M572.7,130.63c-0.08-0.01-0.15-0.04-0.22-0.09c-0.22-0.16-0.28-0.47-0.12-0.69l9.88-13.97
						c0.16-0.22,0.47-0.28,0.69-0.12c0.22,0.16,0.28,0.47,0.12,0.69l-9.88,13.97C573.06,130.58,572.88,130.66,572.7,130.63z"/>
				</g>
				<g>
					<path class="st6" d="M588.29,132.79c-0.18-0.02-0.33-0.14-0.4-0.32l-5.71-16.12c-0.09-0.26,0.04-0.54,0.3-0.63
						c0.26-0.09,0.54,0.04,0.63,0.3l5.71,16.12c0.09,0.26-0.04,0.54-0.3,0.63C588.45,132.79,588.37,132.8,588.29,132.79z"/>
				</g>
			</g>
			<g>
				<circle class="st6" cx="588.39" cy="132.34" r="2.01"/>
			</g>
			<g>
				<circle class="st6" cx="572.73" cy="130.17" r="2.01"/>
			</g>
			<g>
				<circle class="st6" cx="557.09" cy="128.33" r="2.01"/>
			</g>
		</g>
	</g>
	<g>
		<g>
			<circle class="st5" cx="705.57" cy="83.35" r="24.2"/>
		</g>
		<g>
			<g>
				<g>
					<path class="st6" d="M691.35,93.28c-0.08,0.01-0.16,0.01-0.23-0.02c-0.26-0.08-0.4-0.36-0.32-0.62l5.18-16.3
						c0.08-0.26,0.36-0.4,0.62-0.32c0.26,0.08,0.4,0.36,0.32,0.62l-5.18,16.3C691.68,93.13,691.53,93.25,691.35,93.28z"/>
				</g>
				<g>
					<path class="st6" d="M706.86,90.62c-0.18,0.03-0.36-0.04-0.48-0.19l-10.33-13.64c-0.16-0.22-0.12-0.53,0.1-0.69
						c0.22-0.16,0.53-0.12,0.69,0.1l10.33,13.64c0.16,0.22,0.12,0.53-0.1,0.69C707.01,90.57,706.94,90.6,706.86,90.62z"/>
				</g>
				<g>
					<path class="st6" d="M706.86,90.62c-0.08,0.01-0.16,0.01-0.23-0.02c-0.26-0.08-0.4-0.36-0.32-0.62l5.18-16.3
						c0.08-0.26,0.36-0.4,0.62-0.32c0.26,0.08,0.4,0.36,0.32,0.62l-5.18,16.3C707.19,90.46,707.04,90.59,706.86,90.62z"/>
				</g>
				<g>
					<path class="st6" d="M722.38,87.95c-0.18,0.03-0.36-0.04-0.48-0.19l-10.33-13.64c-0.16-0.22-0.12-0.53,0.1-0.69
						c0.22-0.16,0.53-0.12,0.69,0.1l10.33,13.64c0.16,0.22,0.12,0.53-0.1,0.69C722.52,87.91,722.45,87.94,722.38,87.95z"/>
				</g>
			</g>
			<g>
				<circle class="st6" cx="722.34" cy="87.5" r="2.01"/>
			</g>
			<g>
				<circle class="st6" cx="706.75" cy="90.18" r="2.01"/>
			</g>
			<g>
				<circle class="st6" cx="691.29" cy="93.15" r="2.01"/>
			</g>
		</g>
	</g>
	<g>
		<g>
			<circle class="st5" cx="797.8" cy="47.55" r="24.2"/>
		</g>
		<g>
			<g>
				<g>
					<path class="st6" d="M780.64,50.13c-0.07-0.02-0.14-0.06-0.2-0.12c-0.2-0.19-0.2-0.5-0.01-0.7l11.89-12.3
						c0.19-0.2,0.5-0.2,0.7-0.01c0.2,0.19,0.2,0.5,0.01,0.7L781.14,50C781,50.14,780.81,50.18,780.64,50.13z"/>
				</g>
				<g>
					<path class="st6" d="M795.72,54.63c-0.17-0.05-0.31-0.19-0.34-0.38l-3.19-16.81c-0.05-0.27,0.13-0.53,0.39-0.58
						c0.27-0.05,0.53,0.13,0.58,0.39l3.19,16.81c0.05,0.27-0.13,0.53-0.39,0.58C795.87,54.66,795.79,54.66,795.72,54.63z"/>
				</g>
				<g>
					<path class="st6" d="M795.72,54.63c-0.07-0.02-0.14-0.06-0.2-0.12c-0.2-0.19-0.2-0.5-0.01-0.7l11.89-12.3
						c0.19-0.2,0.5-0.2,0.7-0.01c0.2,0.19,0.2,0.5,0.01,0.7l-11.89,12.3C796.08,54.64,795.89,54.69,795.72,54.63z"/>
				</g>
				<g>
					<path class="st6" d="M810.8,59.14c-0.17-0.05-0.31-0.19-0.34-0.38l-3.19-16.81c-0.05-0.27,0.13-0.53,0.39-0.58
						c0.27-0.05,0.53,0.13,0.58,0.39l3.19,16.81c0.05,0.27-0.13,0.53-0.39,0.58C810.95,59.17,810.87,59.16,810.8,59.14z"/>
				</g>
			</g>
			<g>
				<circle class="st6" cx="810.97" cy="58.71" r="2.01"/>
			</g>
			<g>
				<circle class="st6" cx="795.81" cy="54.19" r="2.01"/>
			</g>
			<g>
				<circle class="st6" cx="780.64" cy="49.98" r="2.01"/>
			</g>
		</g>
	</g>
	<g>
		<g>
			<circle class="st5" cx="897.35" cy="24.16" r="24.2"/>
		</g>
		<g>
			<g>
				<g>
					<path class="st6" d="M881.43,31.08c-0.08,0-0.15-0.02-0.23-0.06c-0.24-0.13-0.32-0.43-0.19-0.67l8.32-14.95
						c0.13-0.24,0.43-0.32,0.67-0.19c0.24,0.13,0.32,0.43,0.19,0.67l-8.32,14.95C881.79,30.99,881.61,31.08,881.43,31.08z"/>
				</g>
				<g>
					<path class="st6" d="M897.17,31.54c-0.18-0.01-0.35-0.11-0.43-0.28l-7.42-15.42c-0.12-0.25-0.01-0.54,0.23-0.66
						c0.25-0.12,0.54-0.01,0.66,0.23l7.42,15.42c0.12,0.25,0.01,0.54-0.23,0.66C897.32,31.53,897.24,31.54,897.17,31.54z"/>
				</g>
				<g>
					<path class="st6" d="M897.16,31.54c-0.08,0-0.15-0.02-0.23-0.06c-0.24-0.13-0.32-0.43-0.19-0.67l8.32-14.95
						c0.13-0.24,0.43-0.32,0.67-0.19c0.24,0.13,0.32,0.43,0.19,0.67l-8.32,14.95C897.52,31.46,897.34,31.55,897.16,31.54z"/>
				</g>
				<g>
					<path class="st6" d="M912.9,32.01c-0.18-0.01-0.35-0.11-0.43-0.28l-7.42-15.42c-0.12-0.25-0.01-0.54,0.23-0.66
						c0.25-0.12,0.54-0.01,0.66,0.23l7.42,15.41c0.12,0.25,0.01,0.54-0.23,0.66C913.05,32,912.97,32.01,912.9,32.01z"/>
				</g>
			</g>
			<g>
				<circle class="st6" cx="912.95" cy="31.56" r="2.01"/>
			</g>
			<g>
				<circle class="st6" cx="897.14" cy="31.09" r="2.01"/>
			</g>
			<g>
				<circle class="st6" cx="881.4" cy="30.93" r="2.01"/>
			</g>
		</g>
	</g>
	<g>
		<g>
			<circle class="st5" cx="228.75" cy="101.74" r="24.2"/>
		</g>
		<g>
			<g>
				<g>
					<path class="st6" d="M211.6,104.31c-0.07-0.02-0.14-0.06-0.2-0.12c-0.2-0.19-0.2-0.5-0.01-0.7l11.89-12.3
						c0.19-0.2,0.5-0.2,0.7-0.01c0.2,0.19,0.2,0.5,0.01,0.7l-11.89,12.3C211.96,104.32,211.77,104.36,211.6,104.31z"/>
				</g>
				<g>
					<path class="st6" d="M226.68,108.82c-0.17-0.05-0.31-0.19-0.34-0.38l-3.19-16.81c-0.05-0.27,0.13-0.53,0.39-0.58
						s0.53,0.13,0.58,0.39l3.19,16.81c0.05,0.27-0.13,0.53-0.39,0.58C226.83,108.85,226.75,108.84,226.68,108.82z"/>
				</g>
				<g>
					<path class="st6" d="M226.68,108.82c-0.07-0.02-0.14-0.06-0.2-0.12c-0.2-0.19-0.2-0.5-0.01-0.7l11.89-12.3
						c0.19-0.2,0.5-0.2,0.7-0.01c0.2,0.19,0.2,0.5,0.01,0.7l-11.89,12.3C227.04,108.83,226.85,108.87,226.68,108.82z"/>
				</g>
				<g>
					<path class="st6" d="M241.76,113.32c-0.17-0.05-0.31-0.19-0.34-0.38l-3.19-16.81c-0.05-0.27,0.13-0.53,0.39-0.58
						c0.27-0.05,0.53,0.13,0.58,0.39l3.19,16.81c0.05,0.27-0.13,0.53-0.39,0.58C241.91,113.35,241.83,113.35,241.76,113.32z"/>
				</g>
			</g>
			<g>
				<circle class="st6" cx="241.93" cy="112.9" r="2.01"/>
			</g>
			<g>
				<circle class="st6" cx="226.77" cy="108.37" r="2.01"/>
			</g>
			<g>
				<circle class="st6" cx="211.6" cy="104.17" r="2.01"/>
			</g>
		</g>
	</g>
	<g>
		<g>
			<circle class="st5" cx="120.88" cy="75.96" r="24.2"/>
		</g>
		<g>
			<g>
				<g>
					<path class="st6" d="M105.16,83.3c-0.08,0-0.15-0.02-0.23-0.06c-0.24-0.13-0.34-0.42-0.21-0.67l7.91-15.17
						c0.13-0.24,0.42-0.34,0.67-0.21c0.24,0.13,0.34,0.42,0.21,0.67l-7.91,15.17C105.51,83.21,105.34,83.3,105.16,83.3z"/>
				</g>
				<g>
					<path class="st6" d="M120.9,83.34c-0.18,0-0.35-0.1-0.44-0.27l-7.83-15.21c-0.12-0.24-0.03-0.54,0.21-0.67
						c0.24-0.12,0.54-0.03,0.67,0.21l7.83,15.21c0.12,0.24,0.03,0.54-0.21,0.67C121.06,83.33,120.98,83.35,120.9,83.34z"/>
				</g>
				<g>
					<path class="st6" d="M120.9,83.34c-0.08,0-0.15-0.02-0.23-0.06c-0.24-0.13-0.34-0.42-0.21-0.67l7.91-15.17
						c0.13-0.24,0.42-0.34,0.67-0.21c0.24,0.13,0.34,0.42,0.21,0.67l-7.91,15.17C121.25,83.25,121.08,83.35,120.9,83.34z"/>
				</g>
				<g>
					<path class="st6" d="M136.64,83.39c-0.18,0-0.35-0.1-0.44-0.27l-7.83-15.21c-0.12-0.24-0.03-0.54,0.21-0.67
						c0.24-0.12,0.54-0.03,0.67,0.21l7.83,15.21c0.12,0.24,0.03,0.54-0.21,0.67C136.8,83.37,136.72,83.39,136.64,83.39z"/>
				</g>
			</g>
			<g>
				<circle class="st6" cx="136.68" cy="82.93" r="2.01"/>
			</g>
			<g>
				<circle class="st6" cx="120.86" cy="82.89" r="2.01"/>
			</g>
			<g>
				<circle class="st6" cx="105.12" cy="83.16" r="2.01"/>
			</g>
		</g>
	</g>
	<g>
		<g>
			<circle class="st5" cx="32.9" cy="112.9" r="24.2"/>
		</g>
		<g>
			<g>
				<g>
					<path class="st6" d="M19.48,123.89c-0.07,0.02-0.15,0.02-0.23,0c-0.27-0.06-0.43-0.33-0.37-0.59l3.92-16.65
						c0.06-0.27,0.33-0.43,0.59-0.37c0.27,0.06,0.43,0.33,0.37,0.59l-3.92,16.65C19.79,123.71,19.65,123.85,19.48,123.89z"/>
				</g>
				<g>
					<path class="st6" d="M34.74,120.05c-0.17,0.04-0.36-0.01-0.49-0.15l-11.34-12.8c-0.18-0.2-0.16-0.52,0.04-0.7
						c0.2-0.18,0.52-0.16,0.7,0.04l11.34,12.8c0.18,0.2,0.16,0.52-0.04,0.7C34.88,119.99,34.81,120.03,34.74,120.05z"/>
				</g>
				<g>
					<path class="st6" d="M34.74,120.05c-0.07,0.02-0.15,0.02-0.23,0c-0.27-0.06-0.43-0.33-0.37-0.59l3.92-16.65
						c0.06-0.27,0.33-0.43,0.59-0.37c0.27,0.06,0.43,0.33,0.37,0.59l-3.92,16.65C35.05,119.87,34.91,120,34.74,120.05z"/>
				</g>
				<g>
					<path class="st6" d="M50,116.2c-0.17,0.04-0.36-0.01-0.49-0.15l-11.34-12.8c-0.18-0.2-0.16-0.52,0.04-0.7
						c0.2-0.18,0.52-0.16,0.7,0.04l11.34,12.8c0.18,0.2,0.16,0.52-0.04,0.7C50.14,116.14,50.07,116.18,50,116.2z"/>
				</g>
			</g>
			<g>
				<circle class="st6" cx="49.93" cy="115.75" r="2.01"/>
			</g>
			<g>
				<circle class="st6" cx="34.59" cy="119.61" r="2.01"/>
			</g>
			<g>
				<circle class="st6" cx="19.4" cy="123.77" r="2.01"/>
			</g>
		</g>
	</g>
	<g id="Layer_3">
	</g>
</g>
</svg>
