<?xml version="1.0" encoding="utf-8"?>
<!-- Generator: Adobe Illustrator 23.1.1, SVG Export Plug-In . SVG Version: 6.00 Build 0)  -->
<svg version="1.1" id="Layer_1" xmlns="http://www.w3.org/2000/svg" xmlns:xlink="http://www.w3.org/1999/xlink" x="0px" y="0px"
	 viewBox="0 0 783.14 783.14" style="enable-background:new 0 0 783.14 783.14;" xml:space="preserve">
<style type="text/css">
	.st0{fill:#2C3ACF;}
	.st1{fill:#FFFFFF;}
</style>
<g id="Layer_2">
	<g>
		<circle class="st0" cx="391.57" cy="391.57" r="391.57"/>
	</g>
	<g>
		<g>
			<g>
				<path class="st1" d="M137.19,515.9c-1.39,0-2.81-0.29-4.16-0.91c-5.02-2.3-7.23-8.23-4.93-13.25l127.33-278.25
					c2.3-5.02,8.23-7.23,13.25-4.93c5.02,2.3,7.23,8.23,4.93,13.25L146.29,510.06C144.61,513.73,140.99,515.9,137.19,515.9z"/>
			</g>
			<g>
				<path class="st1" d="M391.88,515.9c-3.79,0-7.42-2.17-9.1-5.84L255.44,231.81c-2.3-5.02-0.09-10.96,4.93-13.25
					c5.02-2.3,10.96-0.09,13.25,4.93l127.34,278.25c2.3,5.02,0.09,10.96-4.93,13.25C394.68,515.6,393.27,515.9,391.88,515.9z"/>
			</g>
			<g>
				<path class="st1" d="M391.86,515.9c-1.39,0-2.81-0.29-4.15-0.91c-5.02-2.3-7.23-8.23-4.93-13.25l127.34-278.25
					c2.3-5.02,8.23-7.23,13.25-4.93c5.02,2.3,7.23,8.23,4.93,13.25L400.96,510.06C399.28,513.73,395.66,515.9,391.86,515.9z"/>
			</g>
			<g>
				<path class="st1" d="M646.56,515.9c-3.79,0-7.42-2.17-9.1-5.84L510.12,231.81c-2.3-5.02-0.09-10.96,4.93-13.25
					c5.02-2.3,10.96-0.09,13.25,4.93l127.34,278.25c2.3,5.02,0.09,10.96-4.93,13.25C649.36,515.6,647.95,515.9,646.56,515.9z"/>
			</g>
		</g>
		<g>
			<ellipse class="st1" cx="136.57" cy="518.45" rx="38.21" ry="37.05"/>
		</g>
		<g>
			<ellipse class="st1" cx="391.57" cy="518.45" rx="38.21" ry="37.05"/>
		</g>
		<g>
			<ellipse class="st1" cx="646.57" cy="518.45" rx="38.21" ry="37.05"/>
		</g>
	</g>
</g>
</svg>
