<?xml version="1.0" encoding="utf-8"?>
<!-- Generator: Adobe Illustrator 23.1.1, SVG Export Plug-In . SVG Version: 6.00 Build 0)  -->
<svg version="1.1" id="Layer_1" xmlns="http://www.w3.org/2000/svg" xmlns:xlink="http://www.w3.org/1999/xlink" x="0px" y="0px"
	 viewBox="0 0 913.3 139.5" style="enable-background:new 0 0 913.3 139.5;" xml:space="preserve">
<style type="text/css">
	.st0{fill:none;stroke:#BBDDFF;stroke-width:2;stroke-miterlimit:10;}
	.st1{fill:#2C3ACF;}
	.st2{fill:#FFFFFF;}
</style>
<g id="fore_1_">
	<path class="st0" d="M0.5,112.9c0,0,49.3-24.9,86.5-34.4s111.1,25.5,123.4,22.1c12.3-3.4,108.3,7.7,134.2,0.2
		c41.3-12,109.7-13.3,118.3-12c17.8,2.7,83.6,24.6,104.2,20.9c20.5-3.8,91.4-35.2,135.8-37.1c44.5-1.8,72.3-31,90.4-32.1
		c18.1-1.1,84.3-16.9,104.5-21.2"/>
	<g>
		<circle class="st1" cx="358.9" cy="110.4" r="24.2"/>
	</g>
	<g>
		<g>
			<g>
				<path class="st2" d="M341.8,113.1c-0.1,0-0.1-0.1-0.2-0.1c-0.2-0.2-0.2-0.5,0-0.7l11.8-12.3c0.2-0.2,0.5-0.2,0.7,0
					c0.2,0.2,0.2,0.5,0,0.7l-11.8,12.4C342.2,113.1,342,113.1,341.8,113.1z"/>
			</g>
			<g>
				<path class="st2" d="M356.9,117.5c-0.2-0.1-0.3-0.2-0.4-0.4l-3.3-16.8c0-0.3,0.1-0.5,0.4-0.6c0.3-0.1,0.5,0.1,0.6,0.4l3.3,16.8
					c0,0.3-0.1,0.5-0.4,0.6C357,117.5,357,117.5,356.9,117.5z"/>
			</g>
			<g>
				<path class="st2" d="M356.9,117.5c-0.1,0-0.1-0.1-0.2-0.1c-0.2-0.2-0.2-0.5,0-0.7l11.8-12.3c0.2-0.2,0.5-0.2,0.7,0
					c0.2,0.2,0.2,0.5,0,0.7l-11.8,12.4C357.3,117.5,357.1,117.6,356.9,117.5z"/>
			</g>
			<g>
				<path class="st2" d="M372,122c-0.2-0.1-0.3-0.2-0.4-0.4l-3.3-16.8c0-0.3,0.1-0.5,0.4-0.6c0.3-0.1,0.5,0.1,0.6,0.4l3.3,16.8
					c0,0.3-0.1,0.5-0.4,0.6C372.1,122,372.1,122,372,122z"/>
			</g>
		</g>
		<g>
			<circle class="st2" cx="372.2" cy="121.5" r="2"/>
		</g>
		<g>
			<circle class="st2" cx="357" cy="117.1" r="2"/>
		</g>
		<g>
			<circle class="st2" cx="341.8" cy="112.9" r="2"/>
		</g>
	</g>
	<g>
		<g>
			<circle class="st1" cx="473.8" cy="86.7" r="24.2"/>
		</g>
		<g>
			<g>
				<g>
					<path class="st2" d="M460.9,98.3c-0.1,0-0.1,0-0.2,0c-0.3-0.1-0.5-0.3-0.4-0.6l3.2-16.8c0-0.3,0.3-0.4,0.6-0.4
						c0.3,0.1,0.5,0.3,0.4,0.6l-3.2,16.8C461.2,98.1,461.1,98.3,460.9,98.3z"/>
				</g>
				<g>
					<path class="st2" d="M476,93.8c-0.2,0.1-0.4,0-0.5-0.1l-11.9-12.3c-0.2-0.2-0.2-0.5,0-0.7s0.5-0.2,0.7,0L476.2,93
						c0.2,0.2,0.2,0.5,0,0.7C476.1,93.7,476.1,93.8,476,93.8z"/>
				</g>
				<g>
					<path class="st2" d="M476,93.8c-0.1,0-0.1,0-0.2,0c-0.3-0.1-0.5-0.3-0.4-0.6l3.2-16.8c0-0.3,0.3-0.4,0.6-0.4
						c0.3,0.1,0.5,0.3,0.4,0.6l-3.2,16.8C476.3,93.6,476.2,93.7,476,93.8z"/>
				</g>
				<g>
					<path class="st2" d="M491.1,89.2c-0.2,0.1-0.4,0-0.5-0.1l-11.9-12.3c-0.2-0.2-0.2-0.5,0-0.7s0.5-0.2,0.7,0l11.9,12.3
						c0.2,0.2,0.2,0.5,0,0.7C491.2,89.2,491.1,89.2,491.1,89.2z"/>
				</g>
			</g>
			<g>
				<circle class="st2" cx="491" cy="88.8" r="2"/>
			</g>
			<g>
				<circle class="st2" cx="475.8" cy="93.4" r="2"/>
			</g>
			<g>
				<circle class="st2" cx="460.8" cy="98.2" r="2"/>
			</g>
		</g>
	</g>
	<g>
		<g>
			<circle class="st1" cx="565.4" cy="115.3" r="24.2"/>
		</g>
		<g>
			<g>
				<g>
					<path class="st2" d="M548.9,120.5c-0.1,0-0.2,0-0.2-0.1c-0.2-0.2-0.3-0.5-0.1-0.7l9.9-14c0.2-0.2,0.5-0.3,0.7-0.1
						c0.2,0.2,0.3,0.5,0.1,0.7l-9.9,14C549.2,120.5,549,120.5,548.9,120.5z"/>
				</g>
				<g>
					<path class="st2" d="M564.5,122.7c-0.2,0-0.3-0.1-0.4-0.3l-5.7-16.1c-0.1-0.3,0-0.5,0.3-0.6s0.5,0,0.6,0.3L565,122
						c0.1,0.3,0,0.5-0.3,0.6C564.6,122.7,564.5,122.7,564.5,122.7z"/>
				</g>
				<g>
					<path class="st2" d="M564.5,122.7c-0.1,0-0.2,0-0.2-0.1c-0.2-0.2-0.3-0.5-0.1-0.7l9.9-14c0.2-0.2,0.5-0.3,0.7-0.1
						c0.2,0.2,0.3,0.5,0.1,0.7l-9.9,14C564.8,122.6,564.6,122.7,564.5,122.7z"/>
				</g>
				<g>
					<path class="st2" d="M580,124.8c-0.2,0-0.3-0.1-0.4-0.3l-5.7-16.1c-0.1-0.3,0-0.5,0.3-0.6s0.5,0,0.6,0.3l5.7,16.1
						c0.1,0.3,0,0.5-0.3,0.6C580.2,124.8,580.1,124.8,580,124.8z"/>
				</g>
			</g>
			<g>
				<circle class="st2" cx="580.1" cy="124.4" r="2"/>
			</g>
			<g>
				<circle class="st2" cx="564.5" cy="122.2" r="2"/>
			</g>
			<g>
				<circle class="st2" cx="548.8" cy="120.4" r="2"/>
			</g>
		</g>
	</g>
	<g>
		<g>
			<circle class="st1" cx="697.3" cy="83.4" r="24.2"/>
		</g>
		<g>
			<g>
				<g>
					<path class="st2" d="M683.1,93.3c-0.1,0-0.2,0-0.2,0c-0.3-0.1-0.4-0.4-0.3-0.6l5.2-16.3c0.1-0.3,0.4-0.4,0.6-0.3
						s0.4,0.4,0.3,0.6L683.5,93C683.4,93.2,683.3,93.3,683.1,93.3z"/>
				</g>
				<g>
					<path class="st2" d="M698.6,90.7c-0.2,0-0.4,0-0.5-0.2l-10.3-13.6c-0.2-0.2-0.1-0.5,0.1-0.7s0.5-0.1,0.7,0.1l10.3,13.6
						c0.2,0.2,0.1,0.5-0.1,0.7C698.8,90.6,698.7,90.6,698.6,90.7z"/>
				</g>
				<g>
					<path class="st2" d="M698.6,90.7c-0.1,0-0.2,0-0.2,0c-0.3-0.1-0.4-0.4-0.3-0.6l5.2-16.3c0.1-0.3,0.4-0.4,0.6-0.3
						s0.4,0.4,0.3,0.6L699,90.3C698.9,90.5,698.8,90.6,698.6,90.7z"/>
				</g>
				<g>
					<path class="st2" d="M714.1,88c-0.2,0-0.4,0-0.5-0.2l-10.3-13.6c-0.2-0.2-0.1-0.5,0.1-0.7s0.5-0.1,0.7,0.1l10.3,13.6
						c0.2,0.2,0.1,0.5-0.1,0.7C714.3,88,714.2,88,714.1,88z"/>
				</g>
			</g>
			<g>
				<circle class="st2" cx="714.1" cy="87.5" r="2"/>
			</g>
			<g>
				<circle class="st2" cx="698.5" cy="90.2" r="2"/>
			</g>
			<g>
				<circle class="st2" cx="683" cy="93.2" r="2"/>
			</g>
		</g>
	</g>
	<g>
		<g>
			<circle class="st1" cx="789.6" cy="47.6" r="24.2"/>
		</g>
		<g>
			<g>
				<g>
					<path class="st2" d="M772.4,50.2c-0.1,0-0.1-0.1-0.2-0.1c-0.2-0.2-0.2-0.5,0-0.7l11.9-12.3c0.2-0.2,0.5-0.2,0.7,0
						c0.2,0.2,0.2,0.5,0,0.7L772.9,50C772.8,50.2,772.6,50.2,772.4,50.2z"/>
				</g>
				<g>
					<path class="st2" d="M787.5,54.7c-0.2,0-0.3-0.2-0.3-0.4l-3.2-16.8c0-0.3,0.1-0.5,0.4-0.6c0.3,0,0.5,0.1,0.6,0.4l3.2,16.8
						c0,0.3-0.1,0.5-0.4,0.6C787.6,54.7,787.5,54.7,787.5,54.7z"/>
				</g>
				<g>
					<path class="st2" d="M787.5,54.7c-0.1,0-0.1-0.1-0.2-0.1c-0.2-0.2-0.2-0.5,0-0.7l11.9-12.3c0.2-0.2,0.5-0.2,0.7,0
						c0.2,0.2,0.2,0.5,0,0.7L788,54.5C787.8,54.7,787.6,54.7,787.5,54.7z"/>
				</g>
				<g>
					<path class="st2" d="M802.6,59.2c-0.2,0-0.3-0.2-0.3-0.4L799,42c0-0.3,0.1-0.5,0.4-0.6c0.3,0,0.5,0.1,0.6,0.4l3.2,16.8
						c0,0.3-0.1,0.5-0.4,0.6C802.7,59.2,802.6,59.2,802.6,59.2z"/>
				</g>
			</g>
			<g>
				<circle class="st2" cx="802.7" cy="58.8" r="2"/>
			</g>
			<g>
				<circle class="st2" cx="787.6" cy="54.2" r="2"/>
			</g>
			<g>
				<circle class="st2" cx="772.4" cy="50" r="2"/>
			</g>
		</g>
	</g>
	<g>
		<g>
			<circle class="st1" cx="889.1" cy="24.2" r="24.2"/>
		</g>
		<g>
			<g>
				<g>
					<path class="st2" d="M873.2,31.1c-0.1,0-0.2,0-0.2-0.1c-0.2-0.1-0.3-0.4-0.2-0.7l8.3-14.9c0.1-0.2,0.4-0.3,0.7-0.2
						s0.3,0.4,0.2,0.7l-8.3,15C873.5,31,873.4,31.1,873.2,31.1z"/>
				</g>
				<g>
					<path class="st2" d="M888.9,31.6c-0.2,0-0.3-0.1-0.4-0.3l-7.4-15.4c-0.1-0.2,0-0.5,0.2-0.7c0.2-0.1,0.5,0,0.7,0.2l7.4,15.4
						c0.1,0.2,0,0.5-0.2,0.7C889.1,31.6,889,31.6,888.9,31.6z"/>
				</g>
				<g>
					<path class="st2" d="M888.9,31.6c-0.1,0-0.2,0-0.2-0.1c-0.2-0.1-0.3-0.4-0.2-0.7l8.3-14.9c0.1-0.2,0.4-0.3,0.7-0.2
						s0.3,0.4,0.2,0.7l-8.3,14.9C889.3,31.5,889.1,31.6,888.9,31.6z"/>
				</g>
				<g>
					<path class="st2" d="M904.7,32c-0.2,0-0.3-0.1-0.4-0.3l-7.4-15.4c-0.1-0.2,0-0.5,0.2-0.7c0.2-0.1,0.5,0,0.7,0.2l7.4,15.4
						c0.1,0.2,0,0.5-0.2,0.7C904.8,32,904.7,32,904.7,32z"/>
				</g>
			</g>
			<g>
				<circle class="st2" cx="904.7" cy="31.6" r="2"/>
			</g>
			<g>
				<circle class="st2" cx="888.9" cy="31.1" r="2"/>
			</g>
			<g>
				<circle class="st2" cx="873.2" cy="31" r="2"/>
			</g>
		</g>
	</g>
	<g>
		<g>
			<circle class="st1" cx="220.5" cy="101.8" r="24.2"/>
		</g>
		<g>
			<g>
				<g>
					<path class="st2" d="M203.4,104.3c-0.1,0-0.1-0.1-0.2-0.1c-0.2-0.2-0.2-0.5,0-0.7L215,91.2c0.2-0.2,0.5-0.2,0.7,0
						c0.2,0.2,0.2,0.5,0,0.7l-11.9,12.3C203.7,104.4,203.5,104.4,203.4,104.3z"/>
				</g>
				<g>
					<path class="st2" d="M218.4,108.9c-0.2-0.1-0.3-0.2-0.3-0.4l-3.2-16.8c-0.1-0.3,0.1-0.5,0.4-0.6s0.5,0.1,0.6,0.4l3.2,16.8
						c0.1,0.3-0.1,0.5-0.4,0.6C218.6,108.9,218.5,108.9,218.4,108.9z"/>
				</g>
				<g>
					<path class="st2" d="M218.4,108.9c-0.1,0-0.1-0.1-0.2-0.1c-0.2-0.2-0.2-0.5,0-0.7l11.9-12.3c0.2-0.2,0.5-0.2,0.7,0
						c0.2,0.2,0.2,0.5,0,0.7l-11.9,12.3C218.8,108.9,218.6,108.9,218.4,108.9z"/>
				</g>
				<g>
					<path class="st2" d="M233.5,113.4c-0.2-0.1-0.3-0.2-0.3-0.4L230,96.2c-0.1-0.3,0.1-0.5,0.4-0.6c0.3-0.1,0.5,0.1,0.6,0.4
						l3.2,16.8c0.1,0.3-0.1,0.5-0.4,0.6C233.7,113.4,233.6,113.4,233.5,113.4z"/>
				</g>
			</g>
			<g>
				<circle class="st2" cx="233.7" cy="112.9" r="2"/>
			</g>
			<g>
				<circle class="st2" cx="218.5" cy="108.4" r="2"/>
			</g>
			<g>
				<circle class="st2" cx="203.4" cy="104.2" r="2"/>
			</g>
		</g>
	</g>
	<g>
		<g>
			<circle class="st1" cx="112.6" cy="76" r="24.2"/>
		</g>
		<g>
			<g>
				<g>
					<path class="st2" d="M96.9,83.3c-0.1,0-0.2,0-0.2-0.1c-0.2-0.1-0.3-0.4-0.2-0.7l7.9-15.2c0.1-0.2,0.4-0.3,0.7-0.2
						c0.2,0.1,0.3,0.4,0.2,0.7l-7.9,15.2C97.3,83.2,97.1,83.3,96.9,83.3z"/>
				</g>
				<g>
					<path class="st2" d="M112.7,83.4c-0.2,0-0.3-0.1-0.4-0.3l-7.8-15.2c-0.1-0.2,0-0.5,0.2-0.7c0.2-0.1,0.5,0,0.7,0.2l7.8,15.2
						c0.1,0.2,0,0.5-0.2,0.7C112.8,83.4,112.7,83.4,112.7,83.4z"/>
				</g>
				<g>
					<path class="st2" d="M112.7,83.4c-0.1,0-0.2,0-0.2-0.1c-0.2-0.1-0.3-0.4-0.2-0.7l7.9-15.2c0.1-0.2,0.4-0.3,0.7-0.2
						c0.2,0.1,0.3,0.4,0.2,0.7l-7.9,15.2C113,83.3,112.8,83.4,112.7,83.4z"/>
				</g>
				<g>
					<path class="st2" d="M128.4,83.4c-0.2,0-0.4-0.1-0.4-0.3L120.1,68c-0.1-0.2,0-0.5,0.2-0.7c0.2-0.1,0.5,0,0.7,0.2l7.8,15.2
						c0.1,0.2,0,0.5-0.2,0.7C128.6,83.4,128.5,83.4,128.4,83.4z"/>
				</g>
			</g>
			<g>
				<circle class="st2" cx="128.4" cy="83" r="2"/>
			</g>
			<g>
				<circle class="st2" cx="112.6" cy="82.9" r="2"/>
			</g>
			<g>
				<circle class="st2" cx="96.9" cy="83.2" r="2"/>
			</g>
		</g>
	</g>
	<g>
		<g>
			<circle class="st1" cx="24.7" cy="112.9" r="24.2"/>
		</g>
		<g>
			<g>
				<g>
					<path class="st2" d="M11.2,123.9c-0.1,0-0.1,0-0.2,0c-0.3-0.1-0.4-0.3-0.4-0.6l3.9-16.7c0.1-0.3,0.3-0.4,0.6-0.4
						c0.3,0.1,0.4,0.3,0.4,0.6l-3.9,16.7C11.5,123.8,11.4,123.9,11.2,123.9z"/>
				</g>
				<g>
					<path class="st2" d="M26.5,120.1c-0.2,0-0.4,0-0.5-0.2l-11.3-12.8c-0.2-0.2-0.2-0.5,0-0.7s0.5-0.2,0.7,0l11.3,12.8
						c0.2,0.2,0.2,0.5,0,0.7C26.6,120,26.6,120.1,26.5,120.1z"/>
				</g>
				<g>
					<path class="st2" d="M26.5,120.1c-0.1,0-0.2,0-0.2,0c-0.3-0.1-0.4-0.3-0.4-0.6l3.9-16.7c0.1-0.3,0.3-0.4,0.6-0.4
						c0.3,0.1,0.4,0.3,0.4,0.6l-3.9,16.7C26.8,119.9,26.7,120,26.5,120.1z"/>
				</g>
				<g>
					<path class="st2" d="M41.8,116.2c-0.2,0-0.4,0-0.5-0.2l-11.3-12.8c-0.2-0.2-0.2-0.5,0-0.7s0.5-0.2,0.7,0L42,115.4
						c0.2,0.2,0.2,0.5,0,0.7C41.9,116.2,41.8,116.2,41.8,116.2z"/>
				</g>
			</g>
			<g>
				<circle class="st2" cx="41.7" cy="115.8" r="2"/>
			</g>
			<g>
				<circle class="st2" cx="26.3" cy="119.7" r="2"/>
			</g>
			<g>
				<circle class="st2" cx="11.2" cy="123.8" r="2"/>
			</g>
		</g>
	</g>
	<g id="Layer_3">
	</g>
</g>
</svg>
