<?xml version="1.0" encoding="utf-8"?>
<!-- Generator: Adobe Illustrator 23.1.1, SVG Export Plug-In . SVG Version: 6.00 Build 0)  -->
<svg version="1.1" id="flowers" xmlns="http://www.w3.org/2000/svg" xmlns:xlink="http://www.w3.org/1999/xlink" x="0px" y="0px"
	 viewBox="0 0 228.51 236.95" style="enable-background:new 0 0 228.51 236.95;" xml:space="preserve">
<style type="text/css">
	.st0{fill:#23C479;}
	.st1{fill:none;stroke:#3A3E42;stroke-width:2;stroke-linecap:round;stroke-linejoin:round;stroke-miterlimit:10;}
	.st2{fill:none;stroke:#FCB81F;stroke-width:3;stroke-miterlimit:10;}
	.st3{fill:none;stroke:#FCB81F;stroke-width:3;stroke-linecap:round;stroke-linejoin:round;stroke-miterlimit:10;}
	.st4{fill:#2C3ACF;}
	.st5{fill:#FFFFFF;}
</style>
<path class="st0" d="M0.56,76.56c0.73,2.66,2.2,5.01,4.49,6.47c6.38,4.06,17.22-2.63,23.36-4.56c13.23-4.17,28.2,8.19,20.24-17.05
	c-2.38-7.56-7.63-14.57-14.34-18.83c-5.51-3.5-16.89-7.27-19.86,1.24c-1.11,3.16-0.99,6.71-2.46,9.72
	C9.97,57.7,5.4,59.98,2.62,63.67C0.15,66.96-0.66,72.17,0.56,76.56z"/>
<path class="st1" d="M89.34,45.79C83,85.67,80.42,210.88,80.42,210.88"/>
<path class="st1" d="M74.71,164.53c0,0,15.47-74.74-36.9-97.07"/>
<path class="st2" d="M57.59,235.45h53.36c6.6,0,12-5.4,12-12v-77.8c0-6.6-5.4-12-12-12H57.59c-6.6,0-12,5.4-12,12v77.8
	C45.59,230.05,50.99,235.45,57.59,235.45z"/>
<path class="st0" d="M84.62,38.75c-1.06,9.69,1.54,11.09,4.9,11.46s6.19-0.45,7.25-10.13s-0.81-17.84-4.16-18.2
	S85.68,29.06,84.62,38.75z"/>
<path class="st1" d="M167.99,216.75c-0.71,4.69,17.39-132.59-9.54-197.11"/>
<path class="st0" d="M191.72,78.33c-2.69,0.6-5.12,1.95-6.68,4.16c-4.38,6.17,1.76,17.33,3.39,23.56
	c3.5,13.42-9.59,27.75,16.02,21.07c7.67-2,14.93-6.9,19.52-13.38c3.77-5.33,8.1-16.5-0.24-19.9c-3.11-1.26-6.65-1.32-9.59-2.94
	c-4.05-2.23-6.09-6.9-9.64-9.86C201.32,78.41,196.17,77.34,191.72,78.33z"/>
<path class="st1" d="M173.54,171.85c0,0-4.64-46.1,31.81-55.98"/>
<path class="st0" d="M166.01,16.24c1.82,9.57-0.66,11.18-3.98,11.81c-3.31,0.63-6.21,0.04-8.02-9.53s-0.6-17.85,2.71-18.47
	C160.04-0.59,164.2,6.66,166.01,16.24z"/>
<polygon class="st3" points="172.86,172.85 192.1,204.1 211.34,235.35 172.86,235.35 134.37,235.35 153.61,204.1 "/>
<g>
	<g>
		<circle class="st4" cx="89.11" cy="33.05" r="31.21"/>
	</g>
	<g>
		<g>
			<g>
				<path class="st5" d="M68.84,42.96c-0.11,0-0.22-0.02-0.33-0.07c-0.4-0.18-0.58-0.66-0.39-1.06l10.15-22.18
					c0.18-0.4,0.66-0.58,1.06-0.39s0.58,0.66,0.39,1.06L69.56,42.5C69.43,42.79,69.14,42.96,68.84,42.96z"/>
			</g>
			<g>
				<path class="st5" d="M89.14,42.96c-0.3,0-0.59-0.17-0.73-0.47L78.26,20.32c-0.18-0.4-0.01-0.87,0.39-1.06
					c0.4-0.18,0.87-0.01,1.06,0.39l10.15,22.18c0.18,0.4,0.01,0.87-0.39,1.06C89.36,42.94,89.25,42.96,89.14,42.96z"/>
			</g>
			<g>
				<path class="st5" d="M89.14,42.96c-0.11,0-0.22-0.02-0.33-0.07c-0.4-0.18-0.58-0.66-0.39-1.06l10.15-22.18
					c0.18-0.4,0.66-0.58,1.06-0.39s0.58,0.66,0.39,1.06L89.86,42.5C89.73,42.79,89.44,42.96,89.14,42.96z"/>
			</g>
			<g>
				<path class="st5" d="M109.44,42.96c-0.3,0-0.59-0.17-0.73-0.47L98.56,20.32c-0.18-0.4-0.01-0.87,0.39-1.06
					c0.4-0.18,0.87-0.01,1.06,0.39l10.15,22.18c0.18,0.4,0.01,0.87-0.39,1.06C109.66,42.94,109.55,42.96,109.44,42.96z"/>
			</g>
		</g>
		<g>
			<ellipse class="st5" cx="68.79" cy="43.17" rx="3.05" ry="2.95"/>
		</g>
		<g>
			<ellipse class="st5" cx="89.11" cy="43.17" rx="3.05" ry="2.95"/>
		</g>
		<g>
			<ellipse class="st5" cx="109.44" cy="43.17" rx="3.05" ry="2.95"/>
		</g>
	</g>
</g>
</svg>
