<?xml version="1.0" encoding="utf-8"?>
<!-- Generator: Adobe Illustrator 24.3.0, SVG Export Plug-In . SVG Version: 6.00 Build 0)  -->
<svg version="1.1" id="Layer_1" xmlns="http://www.w3.org/2000/svg" xmlns:xlink="http://www.w3.org/1999/xlink" x="0px" y="0px"
	 viewBox="0 0 925 305.6" style="enable-background:new 0 0 925 305.6;" xml:space="preserve">
<style type="text/css">
	.st0{display:none;}
	.st1{display:inline;}
	.st2{fill:#BBDDFF;}
	.st3{fill:#98CBF4;}
	.st4{fill:none;stroke:#BBDDFF;stroke-width:2;stroke-miterlimit:10;}
	.st5{fill:#2C3ACF;}
	.st6{fill:#FFFFFF;}
	.st7{fill:#D7E4FA;}
	.st8{font-family:'Quicksand-Bold';}
	.st9{font-size:34.65px;}
</style>
<g id="Layer_1_1_" class="st0">
	<g id="fore-old" class="st1">
		<g>
			<g>
				<path class="st2" d="M437.4,303.9l0.9-6.5c0.3-2.2,0.6-4.4,1-6.5l1.2-6.5c0.2-1.1,0.5-2.2,0.7-3.2l1.5-6.4
					c0.2-1.1,0.6-2.1,0.8-3.2c0.6-2.1,1.1-4.2,1.7-6.4c1.2-4.2,2.4-8.4,3.6-12.6c1.2-4.2,2.4-8.3,3.6-12.6l1.7-6.3l0.8-3.1l0.7-3.2
					l1.5-6.4c0.5-2.1,0.9-4.3,1.3-6.4c0.5-2.1,0.9-4.3,1.3-6.4l1-6.5c0.3-2.2,0.7-4.3,1.1-6.5l1.7-13.1l0.2-1.6l0.2-1.7l0.3-3.3
					c0.5-4.4,0.9-8.7,1.3-13.1l1-13.1c0.2-2.2,0.3-4.4,0.5-6.6l0.3-6.6L468,123c0.3-8.8,0.5-17.6,0.8-26.4h1.1
					c-0.2,8.8-0.5,17.6-0.7,26.4l-0.6,13.3l-0.3,6.6c-0.1,2.2-0.3,4.4-0.5,6.6l-0.9,13.1c-0.4,4.4-0.8,8.8-1.3,13.1l-0.3,3.3
					l-0.2,1.7l-0.2,1.7l-1.7,13.1c-0.3,2.2-0.7,4.4-1.1,6.5l-1.1,6.5c-0.4,2.2-0.8,4.3-1.2,6.5c-0.5,2.2-0.8,4.3-1.3,6.5l-1.5,6.4
					l-0.7,3.2l-0.8,3.2l-1.6,6.4c-1.2,4.2-2.4,8.4-3.5,12.6c-1.2,4.2-2.4,8.4-3.5,12.6c-0.6,2.1-1.1,4.2-1.6,6.3
					c-0.3,1-0.6,2.1-0.8,3.1l-1.5,6.4c-0.2,1.1-0.5,2.1-0.7,3.2l-1.2,6.4c-0.5,2.1-0.7,4.3-1,6.5l-0.9,6.5L437.4,303.9L437.4,303.9z
					"/>
				<path class="st3" d="M453.7,82.6c0.4,2.2,1,3.7,1.5,5.2c1.4,4.7,5.1,6.7,9.8,5.3c5.2-1.5,6.8-5.5,5.6-9.7
					c-0.5-1.9-0.9-3.5-1.6-5.2l4.1-1.5c1.2,2.9,1.2,2.9,2,5.7c2,7.1-0.8,14.1-8.8,16.4c-6.7,1.9-12.9-0.8-15.2-8.9
					c-0.8-2.8-1.2-3.8-1.5-6.1L453.7,82.6z"/>
				
					<rect x="462.2" y="79.4" transform="matrix(0.9612 -0.2757 0.2757 0.9612 -4.5539 131.2376)" class="st3" width="4.6" height="4.8"/>
				
					<rect x="456.3" y="81.1" transform="matrix(0.9612 -0.2757 0.2757 0.9612 -5.247 129.6748)" class="st3" width="4.6" height="4.8"/>
			</g>
			<g>
				<path class="st2" d="M647.6,307.2l-1.6-0.6l1-6.7c0.3-2.2,0.7-4.4,0.9-6.7l0.7-6.7c0.2-1.1,0.2-2.2,0.3-3.4l0.5-6.9
					c0.1-1.1,0.1-2.3,0.2-3.4c0.1-2.2,0.2-4.5,0.3-6.8c0.2-4.5,0.3-9.2,0.3-13.8c0.1-4.6,0.2-9.2,0.3-13.8l0.3-6.9l0.1-3.5l0.2-3.4
					l0.5-6.9c0.2-2.3,0.4-4.5,0.6-6.9c0.2-2.3,0.4-4.5,0.7-6.8l0.8-6.8c0.3-2.3,0.5-4.6,0.8-6.8l2.1-13.4l0.3-1.7l0.3-1.7l0.6-3.3
					c0.8-4.4,1.6-8.9,2.4-13.3l2.8-13.1c0.4-2.2,0.9-4.4,1.4-6.6l1.5-6.5l3-13.1c2.1-8.6,4.3-17.2,6.5-25.8l1,0.5
					c-2.1,8.6-4.3,17.2-6.5,25.8l-2.9,13l-1.5,6.5c-0.5,2.2-1,4.4-1.4,6.6l-2.7,13.1c-0.8,4.4-1.6,8.8-2.4,13.2l-0.6,3.3l-0.3,1.7
					l-0.2,1.6l-2.1,13.4c-0.3,2.3-0.5,4.5-0.8,6.7l-0.9,6.8c-0.2,2.2-0.4,4.5-0.6,6.8c-0.2,2.2-0.4,4.5-0.6,6.8l-0.4,6.8l-0.2,3.4
					l-0.1,3.4l-0.2,6.9c-0.1,4.6-0.2,9.2-0.3,13.8c-0.1,4.6-0.2,9.2-0.3,13.8c0,2.3-0.2,4.6-0.3,6.9c0,1.2,0,2.3-0.1,3.5l-0.5,6.9
					c-0.1,1.1-0.1,2.3-0.3,3.4l-0.7,6.8c-0.2,2.3-0.5,4.5-0.9,6.8L647.6,307.2L647.6,307.2z"/>
				<g>
					<path class="st3" d="M695,86.5c-1.1,2-1.7,2.8-3.5,5.2c-5,6.8-11.8,7.2-17.4,3.1c-6.7-4.9-6.9-12.4-2.6-18.4
						c1.7-2.3,1.7-2.3,3.8-4.7l3.4,2.8c-1.3,1.4-2.2,2.8-3.3,4.4c-2.6,3.5-2.5,7.8,1.9,11c3.9,2.9,8.1,2.3,11-1.6
						c1-1.3,2-2.5,3.2-4.4L695,86.5z"/>
					
						<rect x="679.3" y="77.1" transform="matrix(0.5898 -0.8076 0.8076 0.5898 215.441 583.1056)" class="st3" width="4.8" height="4.7"/>
					
						<rect x="684.2" y="80.8" transform="matrix(0.5898 -0.8076 0.8076 0.5898 214.5433 588.5945)" class="st3" width="4.8" height="4.7"/>
				</g>
			</g>
			<g>
				<path class="st2" d="M61.2,304.7l-1-5.7c-0.3-1.9-0.7-3.8-0.9-5.7l-0.7-5.6c-0.2-1-0.2-1.9-0.3-2.8l-0.5-5.6
					c-0.1-1-0.1-1.9-0.1-2.9c-0.1-1.9-0.2-3.8-0.2-5.6c-0.1-3.7-0.2-7.5-0.3-11.2c0-3.7-0.1-7.4-0.3-11.2l-0.2-5.6l-0.1-2.8
					l-0.2-2.8l-0.4-5.6c-0.2-1.9-0.4-3.8-0.6-5.6c-0.2-1.9-0.4-3.8-0.6-5.6l-0.9-5.7c-0.3-1.9-0.5-3.7-0.8-5.6L51,197.7l-0.2-1.4
					l-0.3-1.4l-0.6-2.8c-0.8-3.7-1.6-7.5-2.4-11.2l-2.7-11.2c-0.5-1.9-0.9-3.7-1.4-5.6l-1.5-5.6l-3-11.2c-2.2-7.4-4.4-14.9-6.5-22.3
					l1-0.2c2.2,7.4,4.4,14.9,6.6,22.3l3.1,11.3l1.5,5.6c0.5,1.9,1,3.8,1.4,5.6l2.8,11.2c0.8,3.7,1.7,7.5,2.5,11.3l0.6,2.8l0.3,1.4
					l0.3,1.4l2.1,11.3c0.3,1.9,0.5,3.8,0.8,5.7l0.8,5.7c0.2,1.9,0.4,3.8,0.7,5.7c0.2,1.9,0.4,3.8,0.6,5.7l0.5,5.6l0.2,2.8l0.1,2.9
					l0.3,5.6c0.1,3.7,0.2,7.5,0.3,11.2c0,3.7,0.2,7.5,0.3,11.2c0.1,1.9,0.2,3.8,0.3,5.6c0,0.9,0.1,1.9,0.2,2.8L60,285
					c0.1,1,0.1,1.9,0.3,2.8l0.7,5.6c0.2,1.9,0.6,3.7,0.9,5.6l1,5.6L61.2,304.7L61.2,304.7z"/>
			</g>
			<g>
				<path class="st2" d="M506.6,306.1c3.1-6.2,6.8-12.5,9-19.2c2.3-6.6,4.3-13.4,6.1-20.3c3.5-13.6,6.3-27.5,8.8-41.3
					s4.7-27.6,6.8-41.4l6.3-41.4h1.2l-6.3,41.4c-2.1,13.8-4.3,27.6-6.8,41.5c-2.4,13.8-5.1,27.7-8.7,41.4
					c-2.5,9.5-4.3,15.3-6.1,20.4c-2.3,6.7-5.5,13.3-8.6,19.6L506.6,306.1z"/>
				<path class="st3" d="M551.6,135.3l-5.7,0.3c-3.7-11.4,4.7-17.7,5.1-17.9l3.5,4.2l-1.8-2.1l1.8,2.1c-0.2,0.1-3.1,2.4-3.5,6.8
					c2.2-1.4,5.4-2.7,10-3.8l1.1,5.3C553.4,132.1,551.6,135.3,551.6,135.3z"/>
			</g>
			<g>
				<g>
					<path class="st2" d="M801.9,307l-0.8-1.2c23.4-28.3,32.9-68.8,42.1-107.9c3.2-13.8,6.6-28.1,10.5-41.4
						c8.2-28.1,9.3-38.7,12-67.1c2.3-24.2,0.3-55.1,0.2-55.4l1.2-0.1c0,0.3,2.1,31.4-0.2,55.7c-2.8,28.5-3.8,39.2-12.1,67.5
						c-3.9,13.3-7.2,27.5-10.5,41.3C835.2,237.7,825.6,278.4,801.9,307z"/>
				</g>
				<g>
					<path class="st3" d="M879,15.9c-0.2,2.6-0.7,4.4-1,6.3c-0.9,5.7-4.9,8.5-10.6,7.6c-6.3-1-8.7-5.4-7.9-10.4
						c0.3-2.3,0.5-4.2,1.1-6.3l-5-1.1c-0.9,3.6-0.9,3.6-1.4,6.9c-1.3,8.5,3,16.2,12.6,17.7c8,1.2,14.9-2.9,16.4-12.6
						c0.5-3.4,0.8-4.6,0.8-7.3L879,15.9L879,15.9z"/>
					
						<rect x="863.4" y="13.9" transform="matrix(0.1521 -0.9884 0.9884 0.1521 718.0671 870.2332)" class="st3" width="5.6" height="5.4"/>
					
						<rect x="870.6" y="15" transform="matrix(0.1521 -0.9884 0.9884 0.1521 723.0995 878.2402)" class="st3" width="5.6" height="5.4"/>
				</g>
			</g>
			<g>
				<path class="st2" d="M184.6,305.9c3.3-7.7,7.5-15.8,9.5-23.7c2.1-8,3.8-16,5.2-24.2c2.7-16.1,8-32.7,10.8-48.7
					c2.9-16.3,2.9-32.1,2.7-47.9c-0.1-11.9-3.2-47.5-3.2-47.5l1.7-0.3c0,0,3.1,35.5,3.3,47.5c0.2,15.9,0.1,32.4-2.6,48
					c-2.8,15.9-7.9,32.5-10.6,48.8c-1.9,11.2-3.5,18.2-5.2,24.4c-2.1,8.1-5.6,16.2-8.9,24L184.6,305.9z"/>
				<g>
					<path class="st3" d="M215.1,108.2l-5.7,0.6c-4.3-11.2,3.8-17.9,4.1-18.2l3.7,4l-1.9-2l1.9,2c-0.2,0.1-2.9,2.6-3.2,6.9
						c2.2-1.5,5.3-3,9.8-4.3l1.4,5.3C216.8,104.9,215.1,108.2,215.1,108.2z"/>
				</g>
			</g>
			<g>
				<path class="st2" d="M735,305.7l0.9-7.7c0.3-2.5,0.6-5.1,1-7.7l1.2-7.6c0.2-1.3,0.5-2.5,0.7-3.8l1.5-7.5
					c0.2-1.3,0.6-2.5,0.8-3.8c0.6-2.5,1.1-5,1.7-7.4c1.2-4.9,2.4-9.8,3.6-14.7s2.4-9.8,3.6-14.7l1.7-7.4l0.8-3.7l0.7-3.8l1.5-7.4
					c0.5-2.5,0.9-5,1.3-7.5c0.5-2.5,0.9-5,1.3-7.5l1-7.7c0.3-2.6,0.7-5,1.1-7.6l1.7-15.3l0.2-1.9l0.2-1.9l0.3-3.8
					c0.5-5.1,0.9-10.2,1.3-15.3l1-15.4c0.2-2.6,0.3-5.1,0.5-7.7l0.3-7.7l0.7-15.4c0.3-10.3,0.5-20.7,0.8-30.9h1.1
					c-0.2,10.3-0.5,20.7-0.7,30.9l-0.6,15.5l-0.3,7.7c-0.1,2.6-0.3,5.2-0.5,7.7l-0.9,15.4c-0.4,5.1-0.8,10.3-1.3,15.4l-0.3,3.8
					l-0.2,1.9l-0.2,1.9l-1.7,15.3c-0.3,2.6-0.7,5.1-1.1,7.7l-1.1,7.7c-0.4,2.6-0.8,5-1.2,7.6c-0.5,2.6-0.8,5-1.3,7.6l-1.5,7.5
					l-0.7,3.8l-0.8,3.8l-1.6,7.4c-1.2,4.9-2.4,9.8-3.5,14.7c-1.2,4.9-2.4,9.8-3.5,14.7c-0.6,2.5-1.1,5-1.6,7.4
					c-0.3,1.2-0.6,2.5-0.8,3.7l-1.5,7.5c-0.2,1.3-0.5,2.5-0.7,3.8l-1.2,7.5c-0.5,2.5-0.7,5-1,7.6l-0.9,7.6L735,305.7L735,305.7z"/>
				<g>
					<path class="st3" d="M774.2,57.1l-5.7,0.3c-3.7-11.4,4.7-17.7,5.1-17.9l3.5,4.2l-1.8-2.1l1.8,2.1c-0.2,0.1-3.1,2.4-3.5,6.8
						c2.2-1.4,5.4-2.7,10-3.8l1.1,5.3C776,53.9,774.2,57.1,774.2,57.1z"/>
				</g>
			</g>
			<g>
				<path class="st2" d="M318.8,307.8l-1.6-0.5l0.8-5.2c0.3-1.7,0.6-3.4,0.8-5.2l0.6-5.2c0.1-0.9,0.1-1.8,0.2-2.6l0.3-5.4
					c0.1-0.9,0.1-1.8,0.1-2.6c0-1.8,0.1-3.5,0.1-5.3c0.1-3.5,0.1-7.2,0-10.8c0-3.6,0-7.2,0-10.8l0.2-5.4l0.1-2.7l0.2-2.7l0.3-5.4
					c0.1-1.8,0.3-3.5,0.5-5.3s0.3-3.5,0.5-5.3l0.7-5.3c0.2-1.8,0.5-3.5,0.7-5.3l1.8-10.4l0.2-1.3l0.3-1.3l0.5-2.6
					c0.7-3.4,1.4-6.9,2.1-10.3l2.5-10.1c0.4-1.7,0.8-3.4,1.2-5.1l1.3-5l2.8-10.1c1.9-6.6,3.9-13.3,5.9-19.9l1,0.5
					c-1.9,6.6-3.9,13.3-5.9,19.9l-2.6,10.1l-1.3,5c-0.5,1.7-0.9,3.4-1.2,5.1l-2.4,10.2c-0.7,3.4-1.4,6.8-2.1,10.2l-0.5,2.6l-0.3,1.3
					l-0.2,1.3l-1.8,10.4c-0.2,1.8-0.4,3.5-0.7,5.2l-0.7,5.3c-0.2,1.7-0.3,3.5-0.5,5.3c-0.2,1.7-0.3,3.5-0.5,5.3l-0.3,5.3l-0.2,2.7
					v2.7l-0.1,5.4c0,3.6,0,7.2,0,10.8s0,7.2,0,10.8c0,1.8-0.1,3.6-0.1,5.4c0,0.9,0,1.8-0.1,2.7l-0.3,5.4c-0.1,0.9-0.1,1.8-0.2,2.6
					l-0.6,5.3c-0.1,1.8-0.5,3.5-0.7,5.3L318.8,307.8L318.8,307.8z"/>
				<g>
					<path class="st3" d="M361.6,135c-1.1,2-1.7,2.8-3.5,5.2c-5,6.8-11.8,7.2-17.4,3.1c-6.7-4.9-6.9-12.4-2.6-18.4
						c1.7-2.3,1.7-2.3,3.8-4.7l3.4,2.8c-1.3,1.4-2.2,2.8-3.3,4.4c-2.6,3.5-2.5,7.8,1.9,11c3.9,2.9,8.1,2.4,11-1.6
						c1-1.4,2-2.5,3.2-4.4L361.6,135z"/>
					
						<rect x="345.8" y="125.7" transform="matrix(0.5898 -0.8076 0.8076 0.5898 39.4223 333.6934)" class="st3" width="4.8" height="4.7"/>
					
						<rect x="350.8" y="129.2" transform="matrix(0.5898 -0.8076 0.8076 0.5898 38.6172 339.2101)" class="st3" width="4.8" height="4.7"/>
				</g>
			</g>
			<g>
				<path class="st2" d="M103.9,306.1l0.2-6.8c0-2.2,0.1-4.5,0.3-6.8l0.5-6.8c0.1-1.1,0.2-2.3,0.3-3.4l0.8-6.7
					c0.1-1.1,0.3-2.2,0.5-3.4c0.3-2.2,0.6-4.5,1-6.7c0.7-4.4,1.4-8.9,2.2-13.3s1.5-8.9,2.2-13.3l1-6.6l0.5-3.3l0.4-3.4l0.8-6.7
					c0.2-2.2,0.4-4.5,0.6-6.7s0.4-4.5,0.6-6.7l0.3-6.8c0.1-2.3,0.2-4.5,0.3-6.7l0.2-13.5l0.1-1.7v-1.7v-3.4c0-4.5-0.1-9-0.2-13.4
					l-0.4-13.4c-0.1-2.2-0.1-4.5-0.3-6.8l-0.4-6.7l-0.7-13.4c-0.7-8.9-1.4-17.9-2.1-26.8l1.1-0.2c0.7,8.9,1.5,17.9,2.2,26.8
					l0.8,13.5l0.4,6.7c0.1,2.2,0.2,4.5,0.3,6.8l0.5,13.4c0.1,4.5,0.1,9,0.2,13.5v3.4v1.7v1.7l-0.2,13.5c-0.1,2.3-0.2,4.5-0.3,6.8
					l-0.3,6.8c-0.2,2.3-0.4,4.5-0.5,6.8c-0.2,2.3-0.4,4.5-0.6,6.8l-0.8,6.7l-0.4,3.4l-0.5,3.4l-0.9,6.7c-0.7,4.4-1.4,8.9-2.1,13.3
					c-0.8,4.4-1.5,8.9-2.1,13.3c-0.3,2.2-0.6,4.5-0.9,6.6c-0.2,1.1-0.3,2.2-0.4,3.3l-0.8,6.7c-0.1,1.1-0.3,2.2-0.3,3.4l-0.5,6.7
					c-0.2,2.2-0.2,4.5-0.2,6.7l-0.2,6.7L103.9,306.1L103.9,306.1z"/>
			</g>
		</g>
	</g>
	<g id="fore_1_" class="st1">
		<path class="st4" d="M0,119.6c0,0,49.8-26.7,87.4-36.9s112.2,27.4,124.6,23.7c12.4-3.7,109.4,8.3,135.5,0.2
			c41.6-12.9,110.8-14.3,119.4-12.9c18,2.9,84.5,26.4,105.2,22.4c20.7-4.1,92.2-37.8,137.2-39.7c44.9-2,73-33.2,91.3-34.4
			s85.2-18.1,105.5-22.7"/>
		<g>
			<circle class="st5" cx="363.2" cy="129.5" r="24.2"/>
		</g>
		<g>
			<g>
				<g>
					<path class="st6" d="M346,132.2c-0.1,0-0.1-0.1-0.2-0.1c-0.2-0.2-0.2-0.5,0-0.7l11.8-12.3c0.2-0.2,0.5-0.2,0.7,0s0.2,0.5,0,0.7
						l-11.8,12.4C346.4,132.2,346.2,132.2,346,132.2z"/>
				</g>
				<g>
					<path class="st6" d="M361.1,136.6c-0.2-0.1-0.3-0.2-0.4-0.4l-3.3-16.8c0-0.3,0.1-0.5,0.4-0.6s0.5,0.1,0.6,0.4l3.3,16.8
						c0,0.3-0.1,0.5-0.4,0.6C361.3,136.7,361.2,136.6,361.1,136.6z"/>
				</g>
				<g>
					<path class="st6" d="M361.1,136.6c-0.1,0-0.1-0.1-0.2-0.1c-0.2-0.2-0.2-0.5,0-0.7l11.8-12.3c0.2-0.2,0.5-0.2,0.7,0
						s0.2,0.5,0,0.7l-11.8,12.4C361.5,136.6,361.3,136.7,361.1,136.6z"/>
				</g>
				<g>
					<path class="st6" d="M376.2,141.1c-0.2-0.1-0.3-0.2-0.4-0.4l-3.3-16.8c0-0.3,0.1-0.5,0.4-0.6s0.5,0.1,0.6,0.4l3.3,16.8
						c0,0.3-0.1,0.5-0.4,0.6C376.4,141.1,376.3,141.1,376.2,141.1z"/>
				</g>
			</g>
			<g>
				<circle class="st6" cx="376.4" cy="140.6" r="2"/>
			</g>
			<g>
				<circle class="st6" cx="361.2" cy="136.2" r="2"/>
			</g>
			<g>
				<circle class="st6" cx="346" cy="132" r="2"/>
			</g>
		</g>
		<g>
			<g>
				<circle class="st5" cx="482.1" cy="86.7" r="24.2"/>
			</g>
			<g>
				<g>
					<g>
						<path class="st6" d="M469.2,98.3c-0.1,0-0.1,0-0.2,0c-0.3-0.1-0.5-0.3-0.4-0.6l3.2-16.8c0-0.3,0.3-0.4,0.6-0.4
							c0.3,0.1,0.5,0.3,0.4,0.6l-3.2,16.8C469.5,98.1,469.3,98.2,469.2,98.3z"/>
					</g>
					<g>
						<path class="st6" d="M484.2,93.7c-0.2,0.1-0.4,0-0.5-0.1l-11.9-12.3c-0.2-0.2-0.2-0.5,0-0.7s0.5-0.2,0.7,0l11.9,12.3
							c0.2,0.2,0.2,0.5,0,0.7C484.4,93.7,484.3,93.7,484.2,93.7z"/>
					</g>
					<g>
						<path class="st6" d="M484.2,93.7c-0.1,0-0.1,0-0.2,0c-0.3-0.1-0.5-0.3-0.4-0.6l3.2-16.8c0-0.3,0.3-0.4,0.6-0.4
							c0.3,0.1,0.5,0.3,0.4,0.6l-3.2,16.8C484.5,93.6,484.4,93.7,484.2,93.7z"/>
					</g>
					<g>
						<path class="st6" d="M499.3,89.2c-0.2,0.1-0.4,0-0.5-0.1l-11.9-12.3c-0.2-0.2-0.2-0.5,0-0.7s0.5-0.2,0.7,0l11.9,12.3
							c0.2,0.2,0.2,0.5,0,0.7C499.5,89.2,499.4,89.2,499.3,89.2z"/>
					</g>
				</g>
				<g>
					<circle class="st6" cx="499.2" cy="88.8" r="2"/>
				</g>
				<g>
					<circle class="st6" cx="484.1" cy="93.3" r="2"/>
				</g>
				<g>
					<circle class="st6" cx="469.1" cy="98.2" r="2"/>
				</g>
			</g>
		</g>
		<g>
			<g>
				<circle class="st5" cx="573.7" cy="123.3" r="24.2"/>
			</g>
			<g>
				<g>
					<g>
						<path class="st6" d="M557.1,128.5c-0.1,0-0.2,0-0.2-0.1c-0.2-0.2-0.3-0.5-0.1-0.7l9.9-14c0.2-0.2,0.5-0.3,0.7-0.1
							c0.2,0.2,0.3,0.5,0.1,0.7l-9.9,14C557.5,128.4,557.3,128.5,557.1,128.5z"/>
					</g>
					<g>
						<path class="st6" d="M572.7,130.6c-0.2,0-0.3-0.1-0.4-0.3l-5.7-16.1c-0.1-0.3,0-0.5,0.3-0.6s0.5,0,0.6,0.3l5.7,16.1
							c0.1,0.3,0,0.5-0.3,0.6C572.9,130.6,572.8,130.6,572.7,130.6z"/>
					</g>
					<g>
						<path class="st6" d="M572.7,130.6c-0.1,0-0.2,0-0.2-0.1c-0.2-0.2-0.3-0.5-0.1-0.7l9.9-14c0.2-0.2,0.5-0.3,0.7-0.1
							c0.2,0.2,0.3,0.5,0.1,0.7l-9.9,14C573.1,130.6,572.9,130.7,572.7,130.6z"/>
					</g>
					<g>
						<path class="st6" d="M588.3,132.8c-0.2,0-0.3-0.1-0.4-0.3l-5.7-16.1c-0.1-0.3,0-0.5,0.3-0.6s0.5,0,0.6,0.3l5.7,16.1
							c0.1,0.3,0,0.5-0.3,0.6C588.5,132.8,588.4,132.8,588.3,132.8z"/>
					</g>
				</g>
				<g>
					<circle class="st6" cx="588.4" cy="132.3" r="2"/>
				</g>
				<g>
					<circle class="st6" cx="572.7" cy="130.2" r="2"/>
				</g>
				<g>
					<circle class="st6" cx="557.1" cy="128.3" r="2"/>
				</g>
			</g>
		</g>
		<g>
			<g>
				<circle class="st5" cx="705.6" cy="83.3" r="24.2"/>
			</g>
			<g>
				<g>
					<g>
						<path class="st6" d="M691.3,93.3c-0.1,0-0.2,0-0.2,0c-0.3-0.1-0.4-0.4-0.3-0.6l5.2-16.3c0.1-0.3,0.4-0.4,0.6-0.3
							s0.4,0.4,0.3,0.6L691.7,93C691.7,93.1,691.5,93.2,691.3,93.3z"/>
					</g>
					<g>
						<path class="st6" d="M706.9,90.6c-0.2,0-0.4,0-0.5-0.2L696,76.8c-0.2-0.2-0.1-0.5,0.1-0.7s0.5-0.1,0.7,0.1l10.3,13.6
							C707.3,90,707.2,90.3,706.9,90.6C707,90.6,706.9,90.6,706.9,90.6z"/>
					</g>
					<g>
						<path class="st6" d="M706.9,90.6c-0.1,0-0.2,0-0.2,0c-0.3-0.1-0.4-0.4-0.3-0.6l5.2-16.3c0.1-0.3,0.4-0.4,0.6-0.3
							s0.4,0.4,0.3,0.6l-5.2,16.3C707.2,90.5,707,90.6,706.9,90.6z"/>
					</g>
					<g>
						<path class="st6" d="M722.4,87.9c-0.2,0-0.4,0-0.5-0.2l-10.3-13.6c-0.2-0.2-0.1-0.5,0.1-0.7s0.5-0.1,0.7,0.1l10.3,13.6
							c0.2,0.2,0.1,0.5-0.1,0.7C722.5,87.9,722.5,87.9,722.4,87.9z"/>
					</g>
				</g>
				<g>
					<circle class="st6" cx="722.3" cy="87.5" r="2"/>
				</g>
				<g>
					<circle class="st6" cx="706.8" cy="90.2" r="2"/>
				</g>
				<g>
					<circle class="st6" cx="691.3" cy="93.2" r="2"/>
				</g>
			</g>
		</g>
		<g>
			<g>
				<circle class="st5" cx="797.8" cy="47.5" r="24.2"/>
			</g>
			<g>
				<g>
					<g>
						<path class="st6" d="M780.6,50.1c-0.1,0-0.1-0.1-0.2-0.1c-0.2-0.2-0.2-0.5,0-0.7L792.3,37c0.2-0.2,0.5-0.2,0.7,0
							s0.2,0.5,0,0.7L781.1,50C781,50.1,780.8,50.2,780.6,50.1z"/>
					</g>
					<g>
						<path class="st6" d="M795.7,54.6c-0.2,0-0.3-0.2-0.3-0.4l-3.2-16.8c0-0.3,0.1-0.5,0.4-0.6c0.3,0,0.5,0.1,0.6,0.4l3.2,16.8
							c0,0.3-0.1,0.5-0.4,0.6C795.9,54.7,795.8,54.7,795.7,54.6z"/>
					</g>
					<g>
						<path class="st6" d="M795.7,54.6c-0.1,0-0.1-0.1-0.2-0.1c-0.2-0.2-0.2-0.5,0-0.7l11.9-12.3c0.2-0.2,0.5-0.2,0.7,0
							s0.2,0.5,0,0.7l-11.9,12.3C796.1,54.6,795.9,54.7,795.7,54.6z"/>
					</g>
					<g>
						<path class="st6" d="M810.8,59.1c-0.2,0-0.3-0.2-0.3-0.4l-3.2-16.8c0-0.3,0.1-0.5,0.4-0.6c0.3,0,0.5,0.1,0.6,0.4l3.2,16.8
							c0,0.3-0.1,0.5-0.4,0.6C811,59.2,810.9,59.2,810.8,59.1z"/>
					</g>
				</g>
				<g>
					<circle class="st6" cx="811" cy="58.7" r="2"/>
				</g>
				<g>
					<circle class="st6" cx="795.8" cy="54.2" r="2"/>
				</g>
				<g>
					<circle class="st6" cx="780.6" cy="50" r="2"/>
				</g>
			</g>
		</g>
		<g>
			<g>
				<circle class="st5" cx="897.3" cy="24.2" r="24.2"/>
			</g>
			<g>
				<g>
					<g>
						<path class="st6" d="M881.4,31.1c-0.1,0-0.2,0-0.2-0.1c-0.2-0.1-0.3-0.4-0.2-0.7l8.3-14.9c0.1-0.2,0.4-0.3,0.7-0.2
							s0.3,0.4,0.2,0.7l-8.3,15C881.8,31,881.6,31.1,881.4,31.1z"/>
					</g>
					<g>
						<path class="st6" d="M897.2,31.5c-0.2,0-0.3-0.1-0.4-0.3l-7.4-15.4c-0.1-0.2,0-0.5,0.2-0.7c0.2-0.1,0.5,0,0.7,0.2l7.4,15.4
							c0.1,0.2,0,0.5-0.2,0.7C897.3,31.5,897.2,31.5,897.2,31.5z"/>
					</g>
					<g>
						<path class="st6" d="M897.2,31.5c-0.1,0-0.2,0-0.2-0.1c-0.2-0.1-0.3-0.4-0.2-0.7l8.3-14.9c0.1-0.2,0.4-0.3,0.7-0.2
							s0.3,0.4,0.2,0.7l-8.3,14.9C897.5,31.5,897.3,31.5,897.2,31.5z"/>
					</g>
					<g>
						<path class="st6" d="M912.9,32c-0.2,0-0.3-0.1-0.4-0.3l-7.4-15.4c-0.1-0.2,0-0.5,0.2-0.7c0.2-0.1,0.5,0,0.7,0.2l7.4,15.4
							c0.1,0.2,0,0.5-0.2,0.7C913,32,913,32,912.9,32z"/>
					</g>
				</g>
				<g>
					<circle class="st6" cx="913" cy="31.6" r="2"/>
				</g>
				<g>
					<circle class="st6" cx="897.1" cy="31.1" r="2"/>
				</g>
				<g>
					<circle class="st6" cx="881.4" cy="30.9" r="2"/>
				</g>
			</g>
		</g>
		<g>
			<g>
				<circle class="st5" cx="228.8" cy="101.7" r="24.2"/>
			</g>
			<g>
				<g>
					<g>
						<path class="st6" d="M211.6,104.3c-0.1,0-0.1-0.1-0.2-0.1c-0.2-0.2-0.2-0.5,0-0.7l11.9-12.3c0.2-0.2,0.5-0.2,0.7,0
							s0.2,0.5,0,0.7l-11.9,12.3C212,104.3,211.8,104.4,211.6,104.3z"/>
					</g>
					<g>
						<path class="st6" d="M226.7,108.8c-0.2-0.1-0.3-0.2-0.3-0.4l-3.2-16.8c-0.1-0.3,0.1-0.5,0.4-0.6s0.5,0.1,0.6,0.4l3.2,16.8
							c0.1,0.3-0.1,0.5-0.4,0.6C226.8,108.8,226.8,108.8,226.7,108.8z"/>
					</g>
					<g>
						<path class="st6" d="M226.7,108.8c-0.1,0-0.1-0.1-0.2-0.1c-0.2-0.2-0.2-0.5,0-0.7l11.9-12.3c0.2-0.2,0.5-0.2,0.7,0
							s0.2,0.5,0,0.7l-11.9,12.3C227,108.8,226.9,108.9,226.7,108.8z"/>
					</g>
					<g>
						<path class="st6" d="M241.8,113.3c-0.2-0.1-0.3-0.2-0.3-0.4l-3.2-16.8c-0.1-0.3,0.1-0.5,0.4-0.6c0.3-0.1,0.5,0.1,0.6,0.4
							l3.2,16.8c0.1,0.3-0.1,0.5-0.4,0.6C241.9,113.3,241.8,113.3,241.8,113.3z"/>
					</g>
				</g>
				<g>
					<circle class="st6" cx="241.9" cy="112.9" r="2"/>
				</g>
				<g>
					<circle class="st6" cx="226.8" cy="108.4" r="2"/>
				</g>
				<g>
					<circle class="st6" cx="211.6" cy="104.2" r="2"/>
				</g>
			</g>
		</g>
		<g>
			<g>
				<circle class="st5" cx="120.9" cy="76" r="24.2"/>
			</g>
			<g>
				<g>
					<g>
						<path class="st6" d="M105.2,83.3c-0.1,0-0.2,0-0.2-0.1c-0.2-0.1-0.3-0.4-0.2-0.7l7.9-15.2c0.1-0.2,0.4-0.3,0.7-0.2
							c0.2,0.1,0.3,0.4,0.2,0.7l-8,15.2C105.5,83.2,105.3,83.3,105.2,83.3z"/>
					</g>
					<g>
						<path class="st6" d="M120.9,83.3c-0.2,0-0.3-0.1-0.4-0.3l-7.8-15.2c-0.1-0.2,0-0.5,0.2-0.7c0.2-0.1,0.5,0,0.7,0.2l7.8,15.2
							c0.1,0.2,0,0.5-0.2,0.7C121.1,83.3,121,83.3,120.9,83.3z"/>
					</g>
					<g>
						<path class="st6" d="M120.9,83.3c-0.1,0-0.2,0-0.2-0.1c-0.2-0.1-0.3-0.4-0.2-0.7l7.9-15.2c0.1-0.2,0.4-0.3,0.7-0.2
							c0.2,0.1,0.3,0.4,0.2,0.7L121.4,83C121.2,83.2,121.1,83.3,120.9,83.3z"/>
					</g>
					<g>
						<path class="st6" d="M136.6,83.4c-0.2,0-0.4-0.1-0.4-0.3l-7.8-15.2c-0.1-0.2,0-0.5,0.2-0.7c0.2-0.1,0.5,0,0.7,0.2l7.8,15.2
							c0.1,0.2,0,0.5-0.2,0.7C136.8,83.4,136.7,83.4,136.6,83.4z"/>
					</g>
				</g>
				<g>
					<circle class="st6" cx="136.7" cy="82.9" r="2"/>
				</g>
				<g>
					<circle class="st6" cx="120.9" cy="82.9" r="2"/>
				</g>
				<g>
					<circle class="st6" cx="105.1" cy="83.2" r="2"/>
				</g>
			</g>
		</g>
		<g>
			<g>
				<circle class="st5" cx="32.9" cy="112.9" r="24.2"/>
			</g>
			<g>
				<g>
					<g>
						<path class="st6" d="M19.5,123.9c-0.1,0-0.1,0-0.2,0c-0.3-0.1-0.4-0.3-0.4-0.6l3.9-16.7c0.1-0.3,0.3-0.4,0.6-0.4
							c0.3,0.1,0.4,0.3,0.4,0.6l-3.9,16.7C19.8,123.7,19.6,123.8,19.5,123.9z"/>
					</g>
					<g>
						<path class="st6" d="M34.7,120.1c-0.2,0-0.4,0-0.5-0.2l-11.3-12.8c-0.2-0.2-0.2-0.5,0-0.7s0.5-0.2,0.7,0L35,119.2
							c0.2,0.2,0.2,0.5,0,0.7C34.9,120,34.8,120,34.7,120.1z"/>
					</g>
					<g>
						<path class="st6" d="M34.7,120.1c-0.1,0-0.2,0-0.2,0c-0.3-0.1-0.4-0.3-0.4-0.6l3.9-16.7c0.1-0.3,0.3-0.4,0.6-0.4
							c0.3,0.1,0.4,0.3,0.4,0.6l-3.9,16.7C35,119.9,34.9,120,34.7,120.1z"/>
					</g>
					<g>
						<path class="st6" d="M50,116.2c-0.2,0-0.4,0-0.5-0.2l-11.3-12.8c-0.2-0.2-0.2-0.5,0-0.7s0.5-0.2,0.7,0l11.3,12.8
							c0.2,0.2,0.2,0.5,0,0.7C50.1,116.1,50.1,116.2,50,116.2z"/>
					</g>
				</g>
				<g>
					<circle class="st6" cx="49.9" cy="115.8" r="2"/>
				</g>
				<g>
					<circle class="st6" cx="34.6" cy="119.6" r="2"/>
				</g>
				<g>
					<circle class="st6" cx="19.4" cy="123.8" r="2"/>
				</g>
			</g>
		</g>
		<g id="Layer_3">
		</g>
	</g>
</g>
<g id="Layer_3_1_">
	<path class="st4" d="M-148.1,270c0,0,60-26.1,105.1-38c52.2-13.8,132.9,7.9,147.4,2.4c14.6-5.5,131.7-0.9,162.2-12.8
		c48.7-18.8,131.2-27.1,141.8-26.2c21.8,1.7,103.5,22.3,128,15.6c24.4-6.6,106.9-52.3,160.5-58.9c53.7-6.6,84.3-45.3,106-48.4
		c21.8-3.2,100.3-29,124.2-36.2"/>
</g>
<g id="Layer_2_1_">
	<g>
		<circle class="st5" cx="200.1" cy="198.9" r="103.1"/>
		<g>
			<g>
				<g>
					<path class="st6" d="M129.7,232c-0.3,0-0.7-0.1-1.1-0.2c-1.1-0.5-1.5-1.9-0.9-2.9l35.3-68.1c0.5-1.1,1.9-1.5,2.9-0.9
						c1.1,0.5,1.5,1.9,0.9,2.9l-35.3,68.1C131.3,231.6,130.5,232,129.7,232z"/>
				</g>
				<g>
					<path class="st6" d="M200.3,232c-0.8,0-1.6-0.4-2-1.2L163,162.7c-0.5-1.1-0.1-2.4,0.9-2.9c1-0.5,2.4-0.1,2.9,0.9l35.3,68.1
						c0.5,1,0.1,2.4-0.9,2.9C201,231.9,200.6,232,200.3,232z"/>
				</g>
				<g>
					<path class="st6" d="M200.3,232c-0.3,0-0.7-0.1-1.1-0.2c-1.1-0.5-1.5-1.9-0.9-2.9l35.3-68.1c0.5-1.1,1.9-1.5,2.9-0.9
						c1.1,0.5,1.5,1.9,0.9,2.9l-35.2,68.1C201.9,231.6,201.1,232,200.3,232z"/>
				</g>
				<g>
					<path class="st6" d="M270.8,232c-0.8,0-1.6-0.4-2-1.2l-35.3-68.1c-0.5-1.1-0.1-2.4,0.9-2.9c1.1-0.5,2.4-0.1,2.9,0.9l35.3,68.1
						c0.5,1,0.1,2.4-0.9,2.9C271.6,231.9,271.3,232,270.8,232z"/>
				</g>
			</g>
			<g>
				<circle class="st6" cx="271.1" cy="230" r="9"/>
			</g>
			<g>
				<circle class="st6" cx="200.1" cy="230" r="9"/>
			</g>
			<g>
				<circle class="st6" cx="129.5" cy="231.4" r="9"/>
			</g>
		</g>
	</g>
	<g>
		<circle class="st5" cx="788.6" cy="148.4" r="108.6"/>
		<g>
			<g>
				<g>
					<path class="st6" d="M718.3,181.5c-0.3,0-0.7-0.1-1.1-0.2c-1-0.5-1.5-1.9-0.9-2.9l35.3-68.1c0.5-1,1.9-1.5,2.9-0.9
						s1.5,1.9,0.9,2.9l-35.3,68.1C719.8,181.1,719,181.5,718.3,181.5z"/>
				</g>
				<g>
					<path class="st6" d="M788.8,181.5c-0.8,0-1.6-0.4-2-1.2l-35.3-68.1c-0.5-1-0.1-2.4,0.9-2.9c1.1-0.5,2.4-0.1,2.9,0.9l35.3,68.1
						c0.5,1.1,0.1,2.4-0.9,2.9C789.5,181.5,789.1,181.5,788.8,181.5z"/>
				</g>
				<g>
					<path class="st6" d="M788.8,181.5c-0.3,0-0.7-0.1-1-0.2c-1.1-0.5-1.5-1.9-0.9-2.9l35.3-68.1c0.5-1,1.9-1.5,2.9-0.9
						s1.5,1.9,0.9,2.9l-35.3,68.1C790.4,181.1,789.7,181.5,788.8,181.5z"/>
				</g>
				<g>
					<path class="st6" d="M859.4,181.5c-0.8,0-1.6-0.4-2-1.2l-35.3-68.1c-0.5-1-0.1-2.4,0.9-2.9s2.4-0.1,2.9,0.9l35.3,68.1
						c0.5,1.1,0.1,2.4-0.9,2.9C860.1,181.5,859.8,181.5,859.4,181.5z"/>
				</g>
			</g>
			<g>
				<circle class="st6" cx="859.6" cy="179.5" r="9"/>
			</g>
			<g>
				<circle class="st6" cx="788.6" cy="179.5" r="9"/>
			</g>
			<g>
				<circle class="st6" cx="718" cy="180.9" r="9"/>
			</g>
		</g>
	</g>
	<g>
		<circle class="st7" cx="514.2" cy="180.9" r="108.6"/>
		<g class="st0">
			<g class="st1">
				<g>
					<path class="st6" d="M443.9,214.1c-0.3,0-0.7-0.1-1-0.2c-1.1-0.5-1.5-1.9-0.9-2.9l35.3-68.2c0.5-1.1,1.9-1.5,2.9-0.9
						c1,0.5,1.5,1.9,0.9,2.9l-35.3,68.1C445.5,213.6,444.6,214.1,443.9,214.1z"/>
				</g>
				<g>
					<path class="st6" d="M514.4,214.1c-0.8,0-1.6-0.4-2-1.2l-35.3-68.2c-0.5-1.1-0.1-2.4,0.9-2.9c1-0.5,2.4-0.1,2.9,0.9l35.3,68.1
						c0.5,1,0.1,2.4-0.9,2.9C515.2,213.9,514.8,214.1,514.4,214.1z"/>
				</g>
				<g>
					<path class="st6" d="M514.4,214.1c-0.3,0-0.7-0.1-1-0.2c-1.1-0.5-1.5-1.9-0.9-2.9l35.3-68.1c0.5-1.1,1.9-1.5,2.9-0.9
						c1,0.5,1.5,1.9,0.9,2.9l-35.3,68.1C516,213.6,515.3,214.1,514.4,214.1z"/>
				</g>
				<g>
					<path class="st6" d="M585,214.1c-0.8,0-1.6-0.4-2-1.2l-35.3-68.1c-0.5-1.1-0.1-2.4,0.9-2.9c1-0.5,2.4-0.1,2.9,0.9l35.3,68.1
						c0.5,1.1,0.1,2.4-0.9,2.9C585.7,213.9,585.4,214.1,585,214.1z"/>
				</g>
			</g>
			<g class="st1">
				<circle class="st6" cx="585.2" cy="212" r="9"/>
			</g>
			<g class="st1">
				<circle class="st6" cx="514.2" cy="212" r="9"/>
			</g>
			<g class="st1">
				<circle class="st6" cx="443.7" cy="213.4" r="9"/>
			</g>
		</g>
		<text transform="matrix(1 0 0 1 451.8447 174.624)" class="st6 st8 st9">reliable</text>
		<text transform="matrix(1 0 0 1 475.0498 216.2041)" class="st6 st8 st9">data</text>
	</g>
</g>
</svg>
