<?xml version="1.0" encoding="utf-8"?>
<!-- Generator: Adobe Illustrator 23.1.1, SVG Export Plug-In . SVG Version: 6.00 Build 0)  -->
<svg version="1.1" id="Layer_1" xmlns="http://www.w3.org/2000/svg" xmlns:xlink="http://www.w3.org/1999/xlink" x="0px" y="0px"
	 viewBox="0 0 844 800" style="enable-background:new 0 0 844 800;" xml:space="preserve">
<style type="text/css">
	.st0{fill:#23C479;}
	.st1{fill:none;stroke:#3A3E42;stroke-width:2;stroke-linecap:round;stroke-linejoin:round;stroke-miterlimit:10;}
	.st2{fill:none;stroke:#FCB81F;stroke-width:3;stroke-miterlimit:10;}
	.st3{fill:#F95860;}
	.st4{fill:#F5FAFF;stroke:#DAEAFF;stroke-width:3;stroke-linecap:round;stroke-linejoin:round;stroke-miterlimit:10;}
	.st5{fill:#2C3ACF;}
	.st6{fill:none;stroke:#23C479;stroke-miterlimit:10;}
	.st7{fill:none;stroke:#2C3ACF;stroke-width:2;stroke-miterlimit:10;}
	.st8{fill:none;stroke:#3A3E42;stroke-width:3;stroke-linecap:round;stroke-linejoin:round;stroke-miterlimit:10;}
	.st9{fill:#FCB81F;}
	.st10{fill:#F9F1E8;}
	.st11{fill:none;stroke:#23C479;stroke-width:3;stroke-linecap:round;stroke-linejoin:round;stroke-miterlimit:10;}
	.st12{fill:#F4F4F4;stroke:#3A3E42;stroke-width:3;stroke-miterlimit:10;}
	.st13{fill:#EBEBEB;}
	.st14{fill:#FFFFFF;stroke:#3A3E42;stroke-width:3;stroke-linecap:round;stroke-linejoin:round;stroke-miterlimit:10;}
	.st15{fill:#FFFFFF;}
	.st16{fill:#3A3E42;}
	.st17{fill:#FFFFFF;stroke:#3A3E42;stroke-width:3;stroke-linejoin:round;stroke-miterlimit:10;}
	.st18{fill:#FFFFFF;stroke:#3A3E42;stroke-width:1.5;stroke-linecap:round;stroke-linejoin:round;}
	.st19{fill:#FFFFFF;stroke:#2C3ACF;stroke-width:1.5;stroke-linecap:round;stroke-linejoin:round;}
	.st20{fill:#F4F4F4;stroke:#3A3E42;stroke-width:3;stroke-linecap:round;stroke-linejoin:round;stroke-miterlimit:10;}
	.st21{fill:none;stroke:#4051CC;stroke-width:3;stroke-linejoin:round;stroke-miterlimit:10;}
</style>
<path class="st0" d="M843.5,636.9c-0.7,2.7-2.2,5-4.5,6.5c-6.4,4.1-17.2-2.6-23.4-4.6c-13.2-4.2-28.2,8.2-20.2-17
	c2.4-7.6,7.6-14.6,14.3-18.8c5.5-3.5,16.9-7.3,19.9,1.2c1.1,3.2,1,6.7,2.5,9.7c2,4.2,6.6,6.4,9.4,10.1
	C843.9,627.3,844.7,632.5,843.5,636.9z"/>
<path class="st1" d="M753.7,593.6c8.8,39.4,19,164.2,19,164.2"/>
<path class="st1" d="M759,722.5c0,0-6.9-76,47.6-92.3"/>
<path class="st2" d="M786.4,795.8H733c-6.6,0-12-5.4-12-12V706c0-6.6,5.4-12,12-12h53.4c6.6,0,12,5.4,12,12v77.8
	C798.4,790.4,793,795.8,786.4,795.8z"/>
<path class="st0" d="M759.4,586.1c1.1,9.7-1.5,11.1-4.9,11.5c-3.3,0.4-6.2-0.4-7.2-10.1c-1.1-9.7,0.8-17.8,4.2-18.2
	C754.8,568.9,758.4,576.4,759.4,586.1z"/>
<path class="st3" d="M732.1,553.2c0,0-2.5,34.3,21.6,29.5s17.7-32.8,17.7-32.8s-14-4.3-19.7,8.5C751.6,558.4,741.4,551,732.1,553.2z
	"/>
<path class="st4" d="M173.3,331.4H82.4c-6,0-12-0.7-17.8-2.2c-41.4-10.4-66.9-54.3-57-98s51.5-70.6,92.8-60.2
	c-12.9-7-32.6-39-33.8-59.4C61.5,27.9,163.1-8.9,250,8.4c35.3,7.1,69.5,21.7,75.3,53.5c27.4-11.8,62.6-5.7,84.8,12.8
	s30.2,57,24.8,83.6c-3.7,17.9-14.3,31.8-31.7,41c14.4,3.9,24.7,12.4,32.7,23.7c15,21.3,22.2,49.7,7.8,71.3
	c-19.8,29.8-67.8,37-103.2,37.1h-59.2"/>
<path class="st5" d="M234.4,65.2h-4v-4.7h-2.5v4.7h-4v-4.7h-8.5v-4h0.4c0.5,0,1.1,0,1.6,0c0.7,0.1,1.3-0.5,1.4-1.2
	c0-0.1,0-0.1,0-0.2c0-0.4,0-0.8,0-1.2c0-4.9,0-9.7,0-14.6c0-0.7,0-1.3,0-2c0.1-0.7-0.5-1.4-1.2-1.4c-0.1,0-0.1,0-0.2,0
	c-0.5,0-1.1,0-1.6,0c-0.1,0-0.2,0-0.3,0c0-1.3,0-2.6,0-4h8.5v-4.7h4v4.7h2.6v-4.7h4c0,0.1,0,0.2,0,0.4c0,1.4,0,2.7,0,4.1
	c0,0.3,0.1,0.5,0.4,0.5c0.3,0,0.5,0.1,0.8,0.1c1.4,0.2,2.7,0.8,3.9,1.7c2.5,2,3.2,5.6,1.4,8.3c-0.9,1.4-2.3,2.5-3.9,3
	c-0.1,0-0.2,0.1-0.3,0.1c0.1,0.1,0.2,0.1,0.3,0.2c1.1,0.3,2.1,0.7,3,1.3c1.4,0.9,2.4,2.3,2.8,3.9c0.7,3.1-0.4,5.6-2.8,7.6
	c-1.5,1.1-3.2,1.8-5.1,1.9c-0.3,0-0.4,0.1-0.4,0.4C234.4,62.2,234.4,63.7,234.4,65.2z M225.8,47.7c0,0.1,0,0.2,0,0.2c0,2,0,4,0,6
	c0,0.4,0,0.9,0.1,1.3c0,0.3,0.3,0.6,0.6,0.6l0,0c1,0,1.9,0.1,2.9,0.1c0.8,0,1.7-0.1,2.5-0.2c0.9-0.1,1.7-0.5,2.3-1.1
	c0.8-0.8,1.3-1.8,1.3-3c0.1-1.5-0.8-3-2.3-3.5c-0.9-0.3-1.8-0.5-2.7-0.5c-1.5,0-2.9,0-4.4,0C226,47.7,225.9,47.7,225.8,47.7z
	 M225.8,43.5c0.1,0,0.2,0,0.3,0c1,0,2,0,2.9,0c1.1,0,2.2-0.1,3.3-0.3c0.9-0.2,1.6-0.7,2.1-1.4c1.1-1.7,0.5-4.5-2-5
	c-0.6-0.1-1.2-0.2-1.9-0.2c-1.5,0-3,0-4.5,0c-0.1,0-0.2,0-0.2,0L225.8,43.5z"/>
<polygon class="st5" points="231.1,313.9 231,303.9 218.5,296 "/>
<polygon class="st5" points="244.6,295.9 232.1,303.9 232.1,313.9 "/>
<polygon class="st5" points="245.4,290.9 232,284.3 232.1,299.4 "/>
<polygon class="st5" points="217.4,289.7 231,283.1 230.9,265 "/>
<polygon class="st5" points="232,283.1 245.2,289.6 232,265 "/>
<polygon class="st5" points="231,299.4 231,284.3 217.3,291 "/>
<rect x="112.8" y="91.7" transform="matrix(0.7074 -0.7068 0.7068 0.7074 -33.1731 109.8314)" class="st5" width="6.6" height="6.6"/>
<polygon class="st5" points="132,83.8 139.9,91.7 144.6,87.1 132,74.5 119.4,87.1 124,91.7 "/>
<rect x="144.6" y="91.7" transform="matrix(0.7071 -0.7071 0.7071 0.7071 -23.8589 132.3912)" class="st5" width="6.6" height="6.6"/>
<polygon class="st5" points="132,106.3 124,98.3 119.4,103 132,115.6 144.6,103 139.9,98.3 "/>
<rect x="128.7" y="91.7" transform="matrix(0.7071 -0.7071 0.7071 0.7071 -28.5108 121.1387)" class="st5" width="6.6" height="6.6"/>
<path class="st5" d="M324.2,229.9c-8.5,0-15.4,6.9-15.5,15.5c0,1.7,0.3,3.4,0.8,5c0.4,1.1,1.6,1.7,2.7,1.4c1.1-0.4,1.7-1.6,1.3-2.7
	c-0.5-1.3-0.7-2.6-0.6-3.9c0.2-6.2,5.3-11,11.5-10.8s11,5.3,10.8,11.5c-0.2,5.8-4.7,10.4-10.5,10.8c0,0-2.2,0.1-3.2,0.3
	c-0.4,0.1-0.8,0.1-1.2,0.2c-0.1,0.1-0.1,0.1-0.2,0l0,0c0,0,0-0.1,0-0.2l0.3-1.8l2-9.2c0.2-1.1-0.5-2.3-1.6-2.5s-2.3,0.5-2.5,1.6
	c0,0-4.8,22.4-4.8,22.6c-0.3,1.1,0.4,2.2,1.5,2.5l0,0h0.1c1.1,0.3,2.2-0.4,2.5-1.5c0,0,0,0,0-0.1v-0.1c0.1-0.3,0.7-3.2,0.7-3.2
	c0.5-2.2,2.3-4,4.6-4.3c0.5-0.1,2.4-0.2,2.4-0.2c8.5-0.8,14.7-8.4,13.8-16.9C338.4,236.1,332,230.1,324.2,229.9z"/>
<path class="st5" d="M324.4,265.3c-1.5-0.3-2.9,0.6-3.2,2.1l0,0c-0.3,1.5,0.6,2.9,2.1,3.2l0,0h0.1c1.4,0.3,2.9-0.5,3.2-1.9l0,0v-0.1
	C326.8,267.1,325.9,265.7,324.4,265.3z"/>
<path class="st5" d="M130.7,230.8c0.9-0.5,2,0.6,1.5,1.5c-0.3,0.7-1.3,0.9-1.8,0.4C129.8,232.1,129.9,231.1,130.7,230.8
	 M121.1,231.8c0.5-0.2,1.2,0.3,1.2,0.9c0.1,0.6-0.7,1.1-1.3,0.8C120.3,233.2,120.4,232,121.1,231.8 M140.7,233.5
	c-0.8-0.1-1-1.4-0.2-1.7c0.6-0.3,1.2,0.3,1.3,0.9C141.7,233.2,141.2,233.7,140.7,233.5 M123.3,235.9c0.9-0.6,2.2,0.3,2.1,1.3
	c0,1.1-1.4,1.7-2.2,1C122.3,237.6,122.5,236.3,123.3,235.9 M137,236.5c0.4-1,2-1.1,2.5-0.1c0.5,0.8-0.1,1.8-0.9,2
	C137.6,238.7,136.5,237.5,137,236.5 M129.5,238.4c0-0.9,0.8-1.5,1.7-1.6c0.6,0.1,1.2,0.4,1.4,0.9c0.5,0.8,0.1,1.9-0.8,2.2
	c-0.4,0.2-0.8,0.1-1.2,0.1C130,239.7,129.5,239.1,129.5,238.4 M115.3,239.7c0.8-0.5,1.9,0.4,1.6,1.3c-0.2,0.8-1.2,1.1-1.8,0.6
	C114.5,241.1,114.6,240,115.3,239.7 M145.8,239.7c0.7-0.5,1.9,0.1,1.8,1c0.1,0.8-0.9,1.4-1.6,1C145.2,241.3,145.1,240.1,145.8,239.7
	 M133.5,241.3c1.2-0.4,2.5,0.1,3.2,1.1c0.9,1.3,0.4,3.2-0.9,3.9c-1.4,0.9-3.4,0.1-3.9-1.4C131.2,243.5,132.1,241.7,133.5,241.3
	 M126.7,241.4c1.3-0.6,3-0.1,3.6,1.2c0.7,1.3,0.2,3-1.1,3.7s-3.1,0.2-3.8-1.2C124.8,243.8,125.4,242,126.7,241.4 M120,243.8
	c0.1-0.8,0.9-1.4,1.7-1.4c0.8,0.1,1.5,0.8,1.6,1.6c-0.1,0.8-0.7,1.7-1.6,1.7C120.7,245.7,119.8,244.7,120,243.8 M140,242.5
	c1-0.6,2.4,0.3,2.4,1.4c0.1,1.2-1.5,2.1-2.5,1.4C138.8,244.7,138.9,243,140,242.5 M124,246.9c1.2-0.3,2.5,0.2,3.1,1.3
	s0.4,2.6-0.6,3.4c-1.3,1.2-3.6,0.7-4.3-0.9C121.5,249.2,122.4,247.2,124,246.9 M136.8,246.8c1.2-0.3,2.5,0.1,3.1,1.2
	c0.8,1.2,0.4,3-0.8,3.8c-1.3,0.9-3.2,0.4-3.9-1C134.3,249.3,135.2,247.3,136.8,246.8 M116.4,248.2c1-0.4,2.2,0.7,1.7,1.8
	c-0.2,0.9-1.5,1.3-2.2,0.6C115.1,249.9,115.4,248.5,116.4,248.2 M144.1,249.7c0-0.8,0.6-1.6,1.5-1.6c0.7,0.1,1.4,0.7,1.3,1.4
	c0.1,1-1.1,1.7-2,1.2C144.5,250.5,144.3,250.1,144.1,249.7 M111.4,248.7c0.6-0.3,1.4,0.3,1.2,1c0,0.8-1.2,1.1-1.6,0.4
	C110.6,249.6,110.9,248.9,111.4,248.7z M150.1,248.7c0.4-0.3,1.1-0.1,1.3,0.4c0.3,0.6-0.2,1.3-0.9,1.2
	C149.7,250.4,149.4,249.1,150.1,248.7 M127.3,252.4c1.6-0.4,3.4,0.9,3.4,2.6c0.1,1.7-1.6,3.2-3.3,2.8c-1.3-0.2-2.3-1.4-2.2-2.7
	C125.2,253.8,126.1,252.7,127.3,252.4 M133.7,252.4c1.6-0.5,3.4,0.9,3.4,2.6c0.1,1.7-1.6,3.1-3.2,2.8c-1.5-0.2-2.6-1.9-2.2-3.3
	C131.9,253.4,132.8,252.6,133.7,252.4 M121.4,253.4c1.1-0.2,2.2,1.1,1.7,2.2c-0.3,1.2-2,1.5-2.7,0.5
	C119.5,255.2,120.2,253.6,121.4,253.4 M140.2,253.5c1-0.4,2.3,0.5,2.2,1.6c0,1.2-1.5,2-2.5,1.3C138.7,255.7,139,253.9,140.2,253.5
	 M145.4,258.7c-0.4-0.7,0.3-1.7,1.1-1.6c0.4,0,0.7,0.3,1,0.6c0.1,0.4,0.1,1-0.2,1.3C146.8,259.7,145.7,259.5,145.4,258.7
	 M115.3,257.4c0.8-0.5,1.9,0.3,1.7,1.2c-0.1,0.8-1.1,1.3-1.7,0.8C114.6,258.9,114.6,257.7,115.3,257.4 M130.5,259
	c1-0.4,2.3,0.4,2.2,1.5c0.1,1.2-1.5,2.1-2.5,1.3C129.1,261.3,129.3,259.4,130.5,259 M123.5,260.7c0.9-0.4,2,0.3,1.9,1.3
	c0,0.8-0.7,1.5-1.5,1.3c-0.6,0-1.1-0.6-1.3-1.1C122.6,261.6,122.9,260.9,123.5,260.7 M137.7,260.7c0.9-0.5,2.1,0.2,2.1,1.3
	c0,1.1-1.4,1.8-2.2,1.1C136.7,262.4,136.8,261.1,137.7,260.7 M140.2,266.8c-0.4-0.6,0.1-1.3,0.7-1.4c0.5,0.1,1.1,0.5,0.9,1.1
	C141.7,267.2,140.6,267.5,140.2,266.8 M120.5,266.3c0.2-0.5,0.5-0.9,1.1-0.8c0.8,0.1,1,1.3,0.3,1.6
	C121.3,267.5,120.6,267,120.5,266.3 M130,266.8c0.2-0.7,1.1-1,1.6-0.7c0.4,0.2,0.5,0.6,0.6,1c0,0.2-0.1,0.4-0.1,0.6
	c-0.2,0.3-0.5,0.6-1,0.6C130.4,268.4,129.7,267.5,130,266.8"/>
<path class="st5" d="M355.6,83l-5,2.5l-24.1,12.3c-0.1-0.6-0.1-1.2-0.1-1.9c0-7.9,6.4-14.3,14.4-14.3c2.4,0,4.8,0.6,7,1.8l2.9-1.4
	l0.4-0.2c-7.8-5.7-18.8-3.9-24.5,3.9c-2.2,3-3.3,6.6-3.3,10.3c0,0.5,0,0.9,0.1,1.3c0.1,1.3-0.6,2.5-1.7,3.1l-1.5,0.8v3.6l4.4-2.3
	l0,0l1.4-0.7l1.4-0.7l0,0l25.4-12.9l2.9-1.4l5.9-3v-3.6L355.6,83z"/>
<path class="st5" d="M361.4,87.2l-32.7,16.6l-2.8,1.5l-5.9,3v3.6l5.8-3l5-2.5l24.1-12.3c0.1,0.6,0.1,1.3,0.1,1.9
	c0,7.9-6.4,14.3-14.3,14.3c-2.4,0-4.9-0.6-7-1.8l-0.2,0.1l-3.1,1.6c7.8,5.7,18.8,3.9,24.5-3.9c2.2-3,3.3-6.6,3.3-10.3
	c0-0.4,0-0.9,0-1.3c-0.1-1.3,0.6-2.5,1.7-3.1l1.5-0.8V87.2L361.4,87.2L361.4,87.2z"/>
<line class="st6" x1="289.3" y1="146.5" x2="314.7" y2="121.1"/>
<polyline class="st6" points="278.9,150.2 293,136.1 296.3,136.1 "/>
<polyline class="st6" points="303.3,136.1 307.2,136.1 324.8,118.5 "/>
<polyline class="st6" points="283.3,139.2 292.9,129.6 298.8,129.6 310.9,117.5 "/>
<polyline class="st6" points="279.2,144.9 279,150.2 284.6,150.2 "/>
<polyline class="st6" points="324.9,123.7 325.2,118.4 319.6,118.4 "/>
<path class="st6" d="M312.2,114.3c-1,0-1.8,0.8-1.8,1.8s0.8,1.8,1.8,1.8s1.8-0.8,1.8-1.8l0,0C314,115.2,313.2,114.3,312.2,114.3
	L312.2,114.3z"/>
<line class="st6" x1="175.4" y1="137.8" x2="151.5" y2="113.5"/>
<polyline class="st6" points="179.2,148.2 165.1,134.1 165.1,130.8 "/>
<polyline class="st6" points="165.1,123.8 165.1,119.9 152.5,107.4 "/>
<polyline class="st6" points="168.2,143.8 158.5,134.2 158.5,128.3 146.4,116.2 "/>
<polyline class="st6" points="173.8,147.9 179.2,148.1 179.2,142.5 "/>
<polyline class="st6" points="156.9,107.1 151.5,106.9 151.5,112.5 "/>
<path class="st6" d="M143.3,114.9c0,1,0.8,1.8,1.8,1.8s1.8-0.8,1.8-1.8s-0.8-1.8-1.8-1.8l0,0C144.1,113.1,143.3,113.9,143.3,114.9
	L143.3,114.9z"/>
<line class="st6" x1="176.6" y1="199.9" x2="151.2" y2="225.3"/>
<polyline class="st6" points="187,196.1 172.9,210.3 169.5,210.3 "/>
<polyline class="st6" points="162.6,210.3 158.7,210.3 141.1,227.9 "/>
<polyline class="st6" points="182.6,207.2 172.9,216.8 167,216.8 154.9,228.9 "/>
<polyline class="st6" points="186.7,201.5 186.9,196.1 181.3,196.1 "/>
<polyline class="st6" points="141,222.6 140.7,228 146.3,228 "/>
<path class="st6" d="M153.7,232.1c1,0,1.8-0.8,1.8-1.8s-0.8-1.8-1.8-1.8s-1.8,0.8-1.8,1.8l0,0C151.9,231.2,152.7,232.1,153.7,232.1
	L153.7,232.1z"/>
<line class="st6" x1="306" y1="224.3" x2="280.6" y2="198.9"/>
<polyline class="st6" points="287.7,209.2 284.3,209.2 270.2,195.1 "/>
<polyline class="st6" points="316.1,226.8 298.5,209.2 294.6,209.2 "/>
<polyline class="st6" points="302.3,227.9 290.2,215.8 284.3,215.8 274.6,206.1 "/>
<polyline class="st6" points="275.9,195.1 270.3,195.1 270.5,200.5 "/>
<polyline class="st6" points="310.9,227 316.5,227 316.3,221.6 "/>
<path class="st6" d="M303.5,231c1,0,1.8-0.8,1.8-1.8l0,0c0-1-0.8-1.8-1.8-1.8s-1.8,0.8-1.8,1.8S302.5,231,303.5,231L303.5,231z"/>
<polyline class="st6" points="225.4,217.6 225.4,225.7 230.6,229.3 230.6,259.4 "/>
<polyline class="st6" points="236.8,249.2 236.8,222.7 232.2,220.6 232.2,215.7 "/>
<line class="st6" x1="225.2" y1="254.3" x2="225.2" y2="230.3"/>
<polyline class="st6" points="229.4,221.2 225.4,216.9 221,221.2 "/>
<path class="st6" d="M236.7,249c-1.1,0-2,0.9-2,2s0.9,2,2,2s2-0.9,2-2l0,0C238.7,249.9,237.8,249,236.7,249L236.7,249z"/>
<polyline class="st6" points="226.5,256.4 230.9,260.7 234.9,256.4 "/>
<polyline class="st6" points="235.5,112.9 235.5,104.9 230.3,101.3 230.3,71.1 "/>
<polyline class="st6" points="224.1,81.4 224.1,107.9 228.7,109.9 228.7,114.9 "/>
<line class="st6" x1="235.7" y1="76.2" x2="235.7" y2="100.2"/>
<polyline class="st6" points="231.5,109.3 235.5,113.7 239.9,109.3 "/>
<path class="st6" d="M224.3,81.5c1.1,0,2-0.9,2-2s-0.9-2-2-2s-2,0.9-2,2l0,0C222.2,80.6,223.1,81.5,224.3,81.5L224.3,81.5z"/>
<polyline class="st6" points="234.4,74.2 230.1,69.8 226.1,74.2 "/>
<polyline class="st7" points="204.3,340.8 204.3,352 212.7,357.1 212.7,409.3 "/>
<polyline class="st7" points="237.2,412.5 237.2,348.3 229.5,344.1 229.5,333.9 "/>
<line class="st7" x1="221.1" y1="416.1" x2="221.1" y2="326.1"/>
<line class="st7" x1="229.1" y1="397.3" x2="229.1" y2="352.2"/>
<line class="st7" x1="246" y1="408.4" x2="246" y2="329.5"/>
<line class="st7" x1="203.9" y1="416.1" x2="203.9" y2="358.7"/>
<polyline class="st7" points="209.9,345.9 204.2,339.7 198,345.9 "/>
<polyline class="st7" points="251.7,334.4 246.1,328.2 239.9,334.4 "/>
<path class="st7" d="M212.5,408.5c-1.6,0-2.9,1.3-2.9,2.9s1.3,2.9,2.9,2.9s2.9-1.3,2.9-2.9l0,0C215.3,409.8,214.1,408.5,212.5,408.5
	L212.5,408.5z"/>
<path class="st7" d="M237.4,411.4c-1.6,0-2.9,1.3-2.9,2.9s1.3,2.9,2.9,2.9s2.9-1.3,2.9-2.9l0,0C240.3,412.7,239,411.4,237.4,411.4
	L237.4,411.4z"/>
<path class="st8" d="M346.9,787.7c0,0-26.4-160.6-34.9-208.6c-4.2-23.8-21.9-45.2-49.2-53.1c-5.2-1.5-16.1-1.7-21.5-1.9
	c-23.1-0.7-46,13.7-59,38c-23.1,43-87.2,226-87.2,226"/>
<path class="st9" d="M363.8,521.7l-41.2-1.4c1.3-2,1.9-4.6,1.6-7.4L314,437.5c-0.9-6.8-7.2-12.6-14-12.8l-129.4-4.3
	c-6.8-0.2-11.6,5.2-10.6,12l10.2,75.4c0.7,5.3,1.7,10,6.6,11.9c0.5,0.7,4.3,1.1,5.1,1.1l181.8,6.1c1.4,0.1,2.6-1.1,2.7-2.5
	C366.4,522.9,365.3,521.7,363.8,521.7z"/>
<circle class="st10" cx="235.9" cy="473.7" r="6.2"/>
<path class="st8" d="M604.1,795.8c0,0-15.7-84.1-20.8-112.8c-2.5-14.2-13-27-29.3-31.7c-3.1-0.9-9.6-1-12.8-1.1
	c-13.8-0.4-27.4,8.1-35.2,22.7c-13.8,25.7-45.5,107.2-45.5,107.2"/>
<path class="st11" d="M659.2,544.6l-24.8,93c0,0-5,22.7-42.1,16.2c-37.2-6.5-123.9-13-123.9-13"/>
<path class="st12" d="M381.9,766.1l-43.8-29.8c-5.5-3.7-6.9-11.2-3.2-16.7l6.3-9.3c3.7-5.5,11.2-6.9,16.7-3.2l43.8,29.8
	c5.5,3.7,6.9,11.2,3.2,16.7l-6.3,9.3C394.9,768.4,387.4,769.9,381.9,766.1z"/>
<path class="st13" d="M646.8,499.9c13.4,138.7-85,162.3-119.2,134.7c80.1,24.2,91.3-127.4,91.3-127.4S633.3,506.5,646.8,499.9z"/>
<path class="st14" d="M596,525.6c-11.7-1.2-16.6-1.7-28.2-3.7c-8-1.3-15.7-3.8-23.5-6.1c-5-1.4-10-2.6-15-4.1
	c-3.3-1-6.4-2.3-9.6-3.4c-3.3-1.2-6.7-2.1-10-3.1c-5.6-1.6-11.5,1.7-13.1,7.4c-0.2,0.6-0.3,1.3-0.3,1.9l-1.4,16.5
	c-0.5,5.9,3.9,11,9.7,11.6c0.6,0.1,1.1,0.1,1.7,0l26.9-2.2l1.9,1.1c0,0,62.9,39.6,93.5,31.2c16-4.4,21-58.4,23.6-93
	c1.7-22.4-13.1-32.7-38-43.2c-42.6-18-77.9-14.9-101.7-28.5l73.8-31.9l-7.8-30.8l-105.6,40.5c-2.9,1.1-5.6,2.8-7.9,4.9
	c-9.6,9-10,24-1,33.6l40.7,43.2l-14.5,82.2c-24.3-7.8-38-16.4-67.8-16.4c-23.8,0-29.4,29.4-31.5,46.2l-4.9,48l-28.2,79.3l49.4,34.3
	l20.3-37.7c12-22.2,24-44.5,35.9-66.7c4-7.5,4.2-7.8,9-15.3c2.8-4.4,4.5-5.6,9.5-3.9c19.1,6.7,36.9,15.6,57.1,18.5
	c19.3,2.8,40.8,0.3,56.2-12.4c14.7-12.1,22.5-30.5,26.5-48.7"/>
<path class="st9" d="M505.7,537.5l-11.8,1.5c-6.5,0.8-12.3-3.3-12.8-9.3l-3.1-31.9c-0.6-5.9,4.3-11.4,10.7-12.3l11.8-1.5
	c6.5-0.8,12.3,3.3,12.8,9.3l3.1,31.9C517,531.2,512.1,536.7,505.7,537.5z"/>
<path class="st15" d="M506.2,543.3c-0.3,0-0.7,0-1,0c-3-0.2-5.7-1.6-7.6-3.7c-1.9-2.1-2.8-4.8-2.6-7.6l1.6-18.4
	c0.1-0.6,0.2-1.2,0.4-1.8c1.3-4.4,5.7-7.5,10.6-7.5c1,0,2.1,0.1,3.1,0.4l0.3,0.1c5.8,1.6,9,3,12.3,4.6c3.1,1.4,6.3,2.9,11.5,4.4
	l-3,27.3l-24.8,2.4C506.7,543.3,506.4,543.3,506.2,543.3z"/>
<path class="st16" d="M507.5,505.6c0.9,0,1.8,0.1,2.7,0.4l0.2,0.1h0.1c5.7,1.6,8.8,3,12.1,4.5c2.9,1.3,5.9,2.7,10.5,4.1l-2.7,24.9
	l-23.6,2.3c-0.2,0-0.4,0-0.6,0c-0.3,0-0.6,0-0.9,0c-2.6-0.2-5-1.4-6.6-3.2s-2.4-4.1-2.2-6.4l1.6-18.4c0.1-0.5,0.2-1.1,0.3-1.6
	C499.5,508.3,503.2,505.6,507.5,505.6 M507.5,502.6c-5.5,0-10.5,3.4-12.1,8.6c-0.2,0.7-0.3,1.4-0.4,2.1l-1.6,18.4
	c-0.5,6.6,4.7,12.3,11.6,12.9c0.4,0,0.7,0.1,1.1,0.1c0.3,0,0.6,0,0.9,0l26-2.5l3.3-29.8c-11.8-3.2-13.2-6-25.1-9.3
	c-0.1,0-0.2,0-0.3-0.1C509.9,502.8,508.7,502.6,507.5,502.6L507.5,502.6z"/>
<path class="st13" d="M587.9,591.4c-18.8-15.7-22.2-25.7-22.2-25.7s13.4,0,18.5,2.1c14.9,6,36.3,7.4,36.3,7.4
	c-3,14.6-9.6,26.6-12.7,31.7C605.6,610.4,594.5,596.9,587.9,591.4z"/>
<path class="st17" d="M576.7,439.3l-16.2-2.4c-15.6-2.3-26.2-19.6-23.7-38.4l3.7-27.2c2.5-18.8,17.4-32.3,32.9-29.9l16.2,2.4
	c15.6,2.3,26.3,19.6,23.7,38.4l-1.7,12.6c0-0.3,4-2.1,4.2-2.1c1.4-0.5,1.9-0.9,3.3-0.7c4.8,0.7,4.6,10.8,2.7,15.3
	c-0.8,1.8-1.9,3.3-3.1,4.7c-1.3,1.5-2.6,2.8-4.2,3.8c-1.2,0.7-2.5,1.1-3.8,1.1c-0.5,0-2.5-0.9-2.7-0.2
	C603.9,433.1,591,441.4,576.7,439.3z"/>
<path class="st18" d="M578.7,416.6c-9.7,4.2-16,2.7-23.4-4.4"/>
<path class="st19" d="M548.3,388.6c0-0.5,0.1-1,0.2-1.4c1.1-4.4,5.3-7,9.4-5.8c4.1,1.2,6.5,5.7,5.4,10.1"/>
<path class="st19" d="M580.5,395.8c0-0.5,0.1-1,0.2-1.4c1.1-4.4,5.3-7,9.4-5.8c4.1,1.2,6.5,5.7,5.4,10.1"/>
<path class="st20" d="M579.4,319.7c58.3-7.3,49.8,53.2,40.2,69.7c-1.6,2.8-5.4,2.6-6.6,2.4c-1-4,2.7-22.2-7.1-32.5
	s-26.7-6.6-34.4-7.9c-11.1-1.8-24-11.4-32.7,24.8c-3.4-17.4-12.4-44.9,9.5-62.4C557.7,327.2,567.6,321.1,579.4,319.7z"/>
<path class="st21" d="M481.9,617.5c-31.8-13.4-44.4-20.3-58.6-21.6c-27.1-2.3-38.6,34.2-42.8,46.4"/>
<path class="st13" d="M474.2,616l-59.6,107.9l27.7-121.2C452.6,606.7,474.2,616,474.2,616z"/>
<path class="st21" d="M490.2,549.4c14,5,28.2,9.2,42.7,12.4c14,3.1,29.1,6.4,43.4,5.3c2.4-0.2,4.9-0.5,7.3-0.9"/>
<g id="massbit_1_">
	<g>
		<circle class="st5" cx="228.5" cy="165.3" r="47.8"/>
	</g>
	<g>
		<g>
			<g>
				<path class="st15" d="M197.5,180.5c-0.2,0-0.3,0-0.5-0.1c-0.6-0.3-0.9-1-0.6-1.6l15.5-33.9c0.3-0.6,1-0.9,1.6-0.6
					c0.6,0.3,0.9,1,0.6,1.6l-15.5,33.9C198.4,180.2,197.9,180.5,197.5,180.5z"/>
			</g>
			<g>
				<path class="st15" d="M228.5,180.5c-0.5,0-0.9-0.3-1.1-0.7l-15.5-33.9c-0.3-0.6,0-1.3,0.6-1.6s1.3,0,1.6,0.6l15.5,33.9
					c0.3,0.6,0,1.3-0.6,1.6C228.9,180.4,228.7,180.5,228.5,180.5z"/>
			</g>
			<g>
				<path class="st15" d="M228.5,180.5c-0.2,0-0.3,0-0.5-0.1c-0.6-0.3-0.9-1-0.6-1.6l15.5-33.9c0.3-0.6,1-0.9,1.6-0.6
					c0.6,0.3,0.9,1,0.6,1.6l-15.5,33.9C229.4,180.2,229,180.5,228.5,180.5z"/>
			</g>
			<g>
				<path class="st15" d="M259.6,180.5c-0.5,0-0.9-0.3-1.1-0.7L243,145.8c-0.3-0.6,0-1.3,0.6-1.6s1.3,0,1.6,0.6l15.5,33.9
					c0.3,0.6,0,1.3-0.6,1.6C259.9,180.4,259.8,180.5,259.6,180.5z"/>
			</g>
		</g>
		<g>
			<ellipse class="st15" cx="197.4" cy="180.8" rx="4.7" ry="4.5"/>
		</g>
		<g>
			<ellipse class="st15" cx="228.5" cy="180.8" rx="4.7" ry="4.5"/>
		</g>
		<g>
			<ellipse class="st15" cx="259.6" cy="180.8" rx="4.7" ry="4.5"/>
		</g>
	</g>
</g>
</svg>
