<?xml version="1.0" encoding="utf-8"?>
<!-- Generator: Adobe Illustrator 23.1.1, SVG Export Plug-In . SVG Version: 6.00 Build 0)  -->
<svg version="1.1" id="Layer_1" xmlns="http://www.w3.org/2000/svg" xmlns:xlink="http://www.w3.org/1999/xlink" x="0px" y="0px"
	 viewBox="0 0 844 800" style="enable-background:new 0 0 844 800;" xml:space="preserve">
<style type="text/css">
	.st0{fill:#23C479;}
	.st1{fill:none;stroke:#3A3E42;stroke-width:2;stroke-linecap:round;stroke-linejoin:round;stroke-miterlimit:10;}
	.st2{fill:none;stroke:#FCB81F;stroke-width:3;stroke-miterlimit:10;}
	.st3{fill:#F95860;}
	.st4{fill:#F5FAFF;stroke:#DAEAFF;stroke-width:3;stroke-linecap:round;stroke-linejoin:round;stroke-miterlimit:10;}
	.st5{fill:#2C3ACF;}
	.st6{fill:#FFFFFF;}
	.st7{fill:none;stroke:#23C479;stroke-miterlimit:10;}
	.st8{fill:none;stroke:#2C3ACF;stroke-width:2;stroke-miterlimit:10;}
	.st9{fill:none;stroke:#3A3E42;stroke-width:3;stroke-linecap:round;stroke-linejoin:round;stroke-miterlimit:10;}
	.st10{fill:#FCB81F;}
	.st11{fill:#F9F1E8;}
	.st12{fill:none;stroke:#23C479;stroke-width:3;stroke-linecap:round;stroke-linejoin:round;stroke-miterlimit:10;}
	.st13{fill:#F4F4F4;stroke:#3A3E42;stroke-width:3;stroke-miterlimit:10;}
	.st14{fill:#EBEBEB;}
	.st15{fill:#FFFFFF;stroke:#3A3E42;stroke-width:3;stroke-linecap:round;stroke-linejoin:round;stroke-miterlimit:10;}
	.st16{fill:#3A3E42;}
	.st17{fill:#FFFFFF;stroke:#3A3E42;stroke-width:3;stroke-linejoin:round;stroke-miterlimit:10;}
	.st18{fill:#FFFFFF;stroke:#3A3E42;stroke-width:1.5;stroke-linecap:round;stroke-linejoin:round;}
	.st19{fill:#FFFFFF;stroke:#2C3ACF;stroke-width:1.5;stroke-linecap:round;stroke-linejoin:round;}
	.st20{fill:#F4F4F4;stroke:#3A3E42;stroke-width:3;stroke-linecap:round;stroke-linejoin:round;stroke-miterlimit:10;}
	.st21{fill:none;stroke:#4051CC;stroke-width:3;stroke-linejoin:round;stroke-miterlimit:10;}
</style>
<g id="flowers">
	<path class="st0" d="M843.48,636.91c-0.73,2.66-2.2,5.01-4.49,6.47c-6.38,4.06-17.22-2.63-23.36-4.56
		c-13.23-4.17-28.2,8.19-20.24-17.05c2.38-7.56,7.63-14.57,14.34-18.83c5.51-3.5,16.89-7.27,19.86,1.24
		c1.11,3.16,0.99,6.71,2.46,9.72c2.02,4.16,6.59,6.43,9.37,10.13C843.88,627.31,844.69,632.52,843.48,636.91z"/>
	<path class="st1" d="M753.65,593.57c8.77,39.42,19,164.23,19,164.23"/>
	<path class="st1" d="M758.97,722.51c0,0-6.94-76.01,47.61-92.29"/>
	<path class="st2" d="M786.44,795.8h-53.36c-6.6,0-12-5.4-12-12V706c0-6.6,5.4-12,12-12h53.36c6.6,0,12,5.4,12,12v77.8
		C798.44,790.4,793.04,795.8,786.44,795.8z"/>
	<path class="st0" d="M759.41,586.1c1.06,9.69-1.54,11.09-4.9,11.46c-3.35,0.37-6.19-0.45-7.25-10.13
		c-1.06-9.69,0.81-17.84,4.16-18.2C754.78,568.86,758.36,576.41,759.41,586.1z"/>
	<path class="st3" d="M732.09,553.19c0,0-2.55,34.27,21.56,29.51s17.66-32.82,17.66-32.82s-13.98-4.27-19.72,8.48
		C751.6,558.36,741.44,551.04,732.09,553.19z"/>
</g>
<g id="workstation">
	<g id="cloud">
		<path id="cloud_2_" class="st4" d="M173.26,331.36H82.39c-6.01-0.01-11.99-0.75-17.83-2.23c-41.38-10.44-66.91-54.31-57.02-97.99
			s51.45-70.62,92.83-60.18c-12.89-6.99-32.57-39.01-33.81-59.4C61.46,27.92,163.12-8.95,249.97,8.39
			c35.34,7.06,69.47,21.74,75.27,53.48c27.42-11.81,62.55-5.69,84.77,12.83s30.22,56.98,24.77,83.59
			c-3.66,17.87-14.28,31.82-31.66,41.03c14.39,3.91,24.69,12.37,32.66,23.66c15.02,21.29,22.2,49.65,7.82,71.29
			c-19.82,29.82-67.76,37.04-103.23,37.09h-59.21"/>
		<g id="massbit_1_">
			<g>
				<circle class="st5" cx="229.08" cy="165.31" r="47.78"/>
			</g>
			<g>
				<g>
					<g>
						<path class="st6" d="M198.04,180.48c-0.17,0-0.34-0.04-0.51-0.11c-0.61-0.28-0.88-1-0.6-1.62l15.54-33.95
							c0.28-0.61,1-0.88,1.62-0.6c0.61,0.28,0.88,1,0.6,1.62l-15.54,33.95C198.94,180.22,198.5,180.48,198.04,180.48z"/>
					</g>
					<g>
						<path class="st6" d="M229.12,180.48c-0.46,0-0.91-0.26-1.11-0.71l-15.54-33.95c-0.28-0.61-0.01-1.34,0.6-1.62
							s1.34-0.01,1.62,0.6l15.54,33.95c0.28,0.61,0.01,1.34-0.6,1.62C229.46,180.44,229.29,180.48,229.12,180.48z"/>
					</g>
					<g>
						<path class="st6" d="M229.11,180.48c-0.17,0-0.34-0.04-0.51-0.11c-0.61-0.28-0.88-1-0.6-1.62l15.54-33.95
							c0.28-0.61,1-0.88,1.62-0.6c0.61,0.28,0.88,1,0.6,1.62l-15.54,33.95C230.02,180.22,229.58,180.48,229.11,180.48z"/>
					</g>
					<g>
						<path class="st6" d="M260.19,180.48c-0.46,0-0.91-0.26-1.11-0.71l-15.54-33.95c-0.28-0.61-0.01-1.34,0.6-1.62
							s1.34-0.01,1.62,0.6l15.54,33.95c0.28,0.61,0.01,1.34-0.6,1.62C260.53,180.44,260.36,180.48,260.19,180.48z"/>
					</g>
				</g>
				<g>
					<ellipse class="st6" cx="197.96" cy="180.79" rx="4.66" ry="4.52"/>
				</g>
				<g>
					<ellipse class="st6" cx="229.08" cy="180.79" rx="4.66" ry="4.52"/>
				</g>
				<g>
					<ellipse class="st6" cx="260.19" cy="180.79" rx="4.66" ry="4.52"/>
				</g>
			</g>
		</g>
		<path class="st5" d="M234.39,65.22h-4.01v-4.66h-2.55v4.66h-4.01v-4.7h-8.47v-3.97h0.35c0.53,0,1.05,0,1.58-0.03
			c0.72,0.05,1.34-0.49,1.39-1.21c0.01-0.07,0-0.15,0-0.22c0-0.4,0.03-0.81,0.03-1.21c0-4.86,0-9.72,0-14.57
			c0-0.66,0-1.32-0.03-1.97c0.06-0.73-0.48-1.37-1.21-1.42c-0.06,0-0.12-0.01-0.18,0c-0.53-0.03-1.07,0-1.61-0.04
			c-0.11,0-0.21,0-0.32,0c0-1.33,0-2.63,0-3.97h8.47V27.2h4.01v4.67h2.55V27.2h4.01c0,0.12,0,0.24,0,0.36c0,1.36,0,2.73,0,4.1
			c0,0.31,0.06,0.48,0.39,0.48c0.26,0.02,0.52,0.06,0.78,0.11c1.41,0.23,2.73,0.81,3.85,1.68c2.53,1.98,3.15,5.56,1.43,8.27
			c-0.93,1.41-2.31,2.47-3.91,3.01c-0.12,0.04-0.23,0.09-0.34,0.14c0.09,0.08,0.2,0.14,0.32,0.17c1.06,0.25,2.08,0.68,3.01,1.25
			c1.41,0.89,2.4,2.3,2.75,3.92c0.68,3.11-0.36,5.64-2.85,7.58c-1.49,1.09-3.25,1.76-5.09,1.94c-0.29,0.04-0.36,0.14-0.36,0.41
			C234.4,62.17,234.39,63.7,234.39,65.22z M225.78,47.72c0,0.1,0,0.15,0,0.21c0,2.02,0,4.03,0,6.04c0,0.44,0.03,0.87,0.08,1.3
			c-0.01,0.32,0.25,0.58,0.57,0.59h0.01c0.95,0.04,1.94,0.09,2.91,0.07c0.84-0.01,1.68-0.07,2.51-0.17c0.87-0.1,1.69-0.47,2.33-1.07
			c0.82-0.77,1.29-1.85,1.3-2.97c0.11-1.55-0.81-2.98-2.27-3.52c-0.88-0.32-1.8-0.48-2.73-0.48c-1.48-0.04-2.95,0-4.43-0.03
			C225.95,47.7,225.87,47.71,225.78,47.72z M225.78,43.48c0.1,0,0.18,0,0.26,0c0.98,0,1.96,0,2.94,0c1.12,0.03,2.24-0.08,3.33-0.34
			c0.85-0.2,1.6-0.7,2.09-1.43c1.11-1.71,0.54-4.46-1.96-4.96c-0.61-0.13-1.24-0.2-1.86-0.23c-1.5-0.04-3.01-0.03-4.52-0.04
			c-0.08,0-0.16,0-0.25,0L225.78,43.48z"/>
		<g>
			<g>
				<polygon class="st5" points="231.05,313.89 231.01,303.89 218.49,295.97 				"/>
				<polygon class="st5" points="244.58,295.9 232.09,303.88 232.13,313.89 				"/>
			</g>
			<g>
				<polygon class="st5" points="245.39,290.9 232.03,284.33 232.08,299.39 				"/>
				<polygon class="st5" points="217.42,289.69 230.95,283.12 230.9,264.97 				"/>
				<polygon class="st5" points="232.03,283.12 245.21,289.6 231.98,265.01 				"/>
				<polygon class="st5" points="231,299.41 230.95,284.32 217.26,290.97 				"/>
			</g>
		</g>
		<g id="Layer_5">
			
				<rect x="112.78" y="91.74" transform="matrix(0.7074 -0.7068 0.7068 0.7074 -33.2039 109.8397)" class="st5" width="6.57" height="6.57"/>
			<polygon class="st5" points="131.97,83.75 139.93,91.71 144.57,87.07 131.97,74.47 119.38,87.07 124.02,91.71 			"/>
			
				<rect x="144.61" y="91.74" transform="matrix(0.7071 -0.7071 0.7071 0.7071 -23.8737 132.4015)" class="st5" width="6.56" height="6.56"/>
			<polygon class="st5" points="131.97,106.29 124.02,98.34 119.38,102.98 131.97,115.57 144.57,102.98 139.93,98.34 			"/>
			
				<rect x="128.69" y="91.74" transform="matrix(0.7071 -0.7071 0.7071 0.7071 -28.5397 121.1477)" class="st5" width="6.56" height="6.56"/>
		</g>
		<g id="Layer_8">
			<path class="st5" d="M324.17,229.9c-8.52,0.03-15.42,6.94-15.46,15.46c0,1.71,0.28,3.4,0.82,5.02c0.4,1.1,1.6,1.7,2.72,1.35
				c1.08-0.42,1.66-1.6,1.31-2.71c-0.46-1.26-0.66-2.6-0.6-3.94c0.19-6.16,5.33-11,11.48-10.81c6.16,0.19,11,5.33,10.81,11.48
				c-0.17,5.76-4.71,10.44-10.47,10.79c0,0-2.17,0.13-3.25,0.26c-0.4,0.06-0.79,0.14-1.18,0.23c-0.06,0.06-0.15,0.06-0.2,0l0,0
				c-0.04-0.05-0.04-0.12,0-0.17l0.34-1.83l2.04-9.17c0.24-1.14-0.48-2.27-1.63-2.52c-1.14-0.24-2.27,0.48-2.52,1.63
				c0,0-4.85,22.44-4.85,22.64c-0.28,1.09,0.38,2.2,1.47,2.48c0.01,0,0.02,0.01,0.04,0.01h0.11c1.09,0.28,2.2-0.37,2.48-1.46
				c0-0.02,0.01-0.04,0.01-0.06c0-0.03,0-0.07,0-0.1c0.06-0.26,0.67-3.25,0.67-3.25c0.46-2.25,2.28-3.98,4.55-4.33
				c0.47-0.07,2.43-0.2,2.43-0.2c8.49-0.85,14.69-8.42,13.84-16.91C338.37,236.06,331.95,230.1,324.17,229.9z"/>
			<path class="st5" d="M324.41,265.31c-1.46-0.3-2.89,0.63-3.2,2.1c0,0.01-0.01,0.03-0.01,0.04c-0.32,1.45,0.6,2.89,2.06,3.2
				c0,0,0,0,0.01,0h0.08c1.42,0.34,2.85-0.53,3.2-1.95c0-0.01,0.01-0.02,0.01-0.03v-0.15C326.8,267.05,325.87,265.65,324.41,265.31z
				"/>
		</g>
		<g>
			<path class="st5" d="M130.66,230.81c0.89-0.46,1.97,0.61,1.5,1.5c-0.27,0.72-1.31,0.91-1.84,0.36
				C129.76,232.14,129.94,231.09,130.66,230.81 M121.13,231.83c0.54-0.22,1.22,0.27,1.17,0.86c0.06,0.64-0.72,1.11-1.27,0.8
				C120.29,233.21,120.38,232.03,121.13,231.83 M140.66,233.51c-0.84-0.1-0.97-1.42-0.16-1.69c0.63-0.31,1.21,0.27,1.3,0.86
				C141.66,233.19,141.23,233.66,140.66,233.51 M123.3,235.89c0.9-0.57,2.19,0.28,2.05,1.32c-0.05,1.06-1.45,1.67-2.24,0.95
				C122.34,237.61,122.45,236.32,123.3,235.89 M137.04,236.5c0.4-1.04,2.03-1.07,2.49-0.06c0.45,0.78-0.1,1.76-0.91,2.02
				C137.55,238.66,136.54,237.51,137.04,236.5 M129.51,238.4c-0.01-0.89,0.8-1.55,1.65-1.61c0.56,0.11,1.17,0.35,1.41,0.92
				c0.45,0.78,0.05,1.86-0.76,2.21c-0.37,0.21-0.81,0.13-1.21,0.11C129.98,239.72,129.46,239.13,129.51,238.4 M115.33,239.7
				c0.82-0.51,1.93,0.42,1.62,1.31c-0.17,0.77-1.21,1.09-1.8,0.59C114.51,241.14,114.62,240.03,115.33,239.7 M145.78,239.7
				c0.7-0.54,1.85,0.08,1.77,0.96c0.05,0.8-0.95,1.41-1.64,1C145.15,241.31,145.07,240.14,145.78,239.7 M133.5,241.3
				c1.15-0.41,2.52,0.08,3.18,1.11c0.87,1.26,0.41,3.17-0.94,3.89c-1.39,0.85-3.42,0.13-3.94-1.42
				C131.22,243.47,132.07,241.73,133.5,241.3 M126.74,241.43c1.28-0.6,2.99-0.1,3.61,1.21c0.73,1.27,0.16,3.04-1.13,3.7
				c-1.3,0.74-3.13,0.18-3.76-1.19C124.76,243.83,125.38,242.04,126.74,241.43 M119.98,243.75c0.1-0.82,0.87-1.36,1.66-1.41
				c0.84,0.1,1.52,0.76,1.61,1.61c-0.06,0.84-0.71,1.67-1.6,1.67C120.65,245.69,119.79,244.71,119.98,243.75 M139.96,242.51
				c1.01-0.59,2.42,0.27,2.37,1.43c0.07,1.23-1.48,2.1-2.49,1.38C138.79,244.72,138.88,243.02,139.96,242.51 M123.99,246.85
				c1.18-0.33,2.53,0.23,3.11,1.32c0.64,1.09,0.38,2.61-0.61,3.42c-1.27,1.18-3.6,0.7-4.27-0.9
				C121.45,249.21,122.39,247.24,123.99,246.85 M136.81,246.84c1.15-0.33,2.5,0.11,3.12,1.16c0.82,1.2,0.43,2.98-0.79,3.76
				c-1.27,0.9-3.25,0.43-3.95-0.98C134.34,249.34,135.19,247.29,136.81,246.84 M116.39,248.21c1.02-0.39,2.15,0.74,1.74,1.75
				c-0.25,0.92-1.55,1.26-2.22,0.58C115.12,249.91,115.41,248.49,116.39,248.21 M144.08,249.68c-0.03-0.85,0.59-1.6,1.46-1.64
				c0.7,0.11,1.38,0.68,1.32,1.44c0.06,1.01-1.15,1.69-2.01,1.22C144.45,250.49,144.25,250.07,144.08,249.68 M111.36,248.71
				c0.61-0.27,1.37,0.26,1.23,0.95c-0.03,0.77-1.17,1.07-1.59,0.42C110.64,249.63,110.86,248.94,111.36,248.71z M150.12,248.69
				c0.43-0.31,1.13-0.09,1.3,0.42c0.29,0.55-0.24,1.31-0.86,1.22C149.68,250.41,149.4,249.08,150.12,248.69 M127.33,252.4
				c1.62-0.42,3.36,0.93,3.37,2.59c0.11,1.68-1.61,3.17-3.26,2.79c-1.28-0.21-2.28-1.44-2.24-2.73
				C125.19,253.81,126.12,252.66,127.33,252.4 M133.74,252.4c1.64-0.46,3.43,0.91,3.41,2.62c0.09,1.65-1.57,3.09-3.19,2.77
				c-1.53-0.2-2.65-1.87-2.22-3.35C131.94,253.44,132.76,252.64,133.74,252.4 M121.39,253.42c1.14-0.19,2.2,1.07,1.74,2.15
				c-0.34,1.15-2.01,1.46-2.75,0.52C119.51,255.2,120.16,253.55,121.39,253.42 M140.17,253.47c1.01-0.42,2.26,0.45,2.18,1.55
				c0.04,1.21-1.49,2.04-2.48,1.34C138.74,255.73,138.95,253.86,140.17,253.47 M145.42,258.74c-0.4-0.74,0.32-1.72,1.14-1.58
				c0.41-0.01,0.69,0.32,0.96,0.59c0.05,0.44,0.14,0.96-0.22,1.3C146.81,259.67,145.69,259.49,145.42,258.74 M115.33,257.36
				c0.77-0.51,1.87,0.25,1.7,1.15c-0.09,0.79-1.09,1.25-1.75,0.8C114.57,258.9,114.6,257.74,115.33,257.36 M130.48,259.02
				c1-0.44,2.28,0.43,2.19,1.54c0.07,1.22-1.51,2.07-2.49,1.33C129.09,261.27,129.27,259.41,130.48,259.02 M123.46,260.66
				c0.86-0.45,2,0.33,1.93,1.28c0.03,0.79-0.74,1.46-1.52,1.34c-0.64-0.01-1.06-0.59-1.27-1.14
				C122.62,261.55,122.86,260.89,123.46,260.66 M137.68,260.67c0.88-0.54,2.13,0.24,2.05,1.26c0.02,1.07-1.39,1.76-2.21,1.05
				C136.73,262.44,136.83,261.11,137.68,260.67 M140.16,266.79c-0.39-0.59,0.07-1.31,0.7-1.44c0.51,0.1,1.05,0.49,0.94,1.08
				C141.73,267.23,140.56,267.48,140.16,266.79 M120.53,266.27c0.16-0.47,0.53-0.94,1.09-0.81c0.81,0.06,1.04,1.27,0.34,1.64
				C121.32,267.53,120.58,266.95,120.53,266.27 M130,266.81c0.15-0.69,1.05-1.03,1.64-0.66c0.39,0.17,0.51,0.61,0.61,0.98
				c-0.05,0.19-0.1,0.39-0.15,0.58c-0.24,0.29-0.55,0.57-0.96,0.56C130.39,268.36,129.72,267.51,130,266.81"/>
		</g>
		<g>
			<g id="Layer_1-2_1_">
				<path class="st5" d="M355.57,83.01l-4.99,2.54l-24.07,12.26c-0.08-0.62-0.12-1.25-0.12-1.87c0.01-7.92,6.44-14.33,14.36-14.32
					c2.44,0,4.84,0.63,6.97,1.82l2.85-1.45l0.43-0.22c-7.83-5.68-18.78-3.94-24.47,3.89c-2.17,2.99-3.34,6.59-3.34,10.29
					c0,0.45,0.02,0.89,0.05,1.33c0.1,1.28-0.59,2.5-1.73,3.08l-1.5,0.77v3.58l4.43-2.26l0,0l1.43-0.73l1.41-0.72l0,0l25.38-12.93
					l2.85-1.45l5.89-3v-3.58L355.57,83.01z"/>
				<path class="st5" d="M361.42,87.19l-32.68,16.64l-2.85,1.46l-5.87,2.99v3.58l5.83-2.97l4.99-2.54l24.1-12.28
					c0.08,0.62,0.12,1.25,0.12,1.88c0,7.92-6.43,14.34-14.35,14.33c-2.45,0-4.87-0.63-7.01-1.83l-0.18,0.09l-3.09,1.58
					c7.83,5.68,18.78,3.94,24.47-3.88c2.17-2.99,3.34-6.59,3.34-10.29c0-0.45-0.02-0.9-0.05-1.35c-0.1-1.28,0.58-2.5,1.73-3.08
					l1.51-0.77v-3.56H361.42z"/>
			</g>
		</g>
		<g id="link_11_">
			<line class="st7" x1="289.27" y1="146.48" x2="314.68" y2="121.07"/>
			<polyline class="st7" points="278.85,150.24 292.98,136.11 296.34,136.11 			"/>
			<polyline class="st7" points="303.28,136.11 307.17,136.11 324.76,118.51 			"/>
			<polyline class="st7" points="283.28,139.22 292.93,129.57 298.84,129.57 310.93,117.47 			"/>
			<polyline class="st7" points="279.2,144.89 278.97,150.24 284.55,150.24 			"/>
			<polyline class="st7" points="324.92,123.74 325.15,118.39 319.57,118.39 			"/>
			<path class="st7" d="M312.18,114.33c-1.01,0-1.84,0.82-1.84,1.83s0.82,1.84,1.83,1.84c1.01,0,1.84-0.82,1.84-1.83v-0.01
				C314.01,115.15,313.19,114.33,312.18,114.33L312.18,114.33z"/>
		</g>
		<g id="link_10_">
			<line class="st7" x1="175.42" y1="137.82" x2="151.5" y2="113.52"/>
			<polyline class="st7" points="179.18,148.24 165.05,134.11 165.05,130.75 			"/>
			<polyline class="st7" points="165.05,123.81 165.05,119.92 152.53,107.35 			"/>
			<polyline class="st7" points="168.16,143.8 158.52,134.15 158.52,128.25 146.42,116.16 			"/>
			<polyline class="st7" points="173.84,147.89 179.18,148.12 179.18,142.54 			"/>
			<polyline class="st7" points="156.85,107.14 151.5,106.91 151.5,112.49 			"/>
			<path class="st7" d="M143.27,114.91c0,1.01,0.82,1.84,1.83,1.84s1.84-0.82,1.84-1.83s-0.82-1.84-1.83-1.84h-0.01
				C144.09,113.08,143.27,113.9,143.27,114.91L143.27,114.91z"/>
		</g>
		<g id="link_9_">
			<line class="st7" x1="176.6" y1="199.9" x2="151.19" y2="225.31"/>
			<polyline class="st7" points="187.02,196.14 172.89,210.27 169.53,210.27 			"/>
			<polyline class="st7" points="162.59,210.27 158.7,210.27 141.11,227.87 			"/>
			<polyline class="st7" points="182.58,207.16 172.93,216.8 167.03,216.8 154.94,228.9 			"/>
			<polyline class="st7" points="186.67,201.48 186.9,196.14 181.32,196.14 			"/>
			<polyline class="st7" points="140.95,222.64 140.72,227.98 146.3,227.98 			"/>
			<path class="st7" d="M153.69,232.05c1.01,0,1.84-0.82,1.84-1.83s-0.82-1.84-1.83-1.84s-1.84,0.82-1.84,1.83v0.01
				C151.86,231.23,152.68,232.05,153.69,232.05L153.69,232.05z"/>
		</g>
		<g id="link_8_">
			<line class="st7" x1="306.02" y1="224.28" x2="280.61" y2="198.87"/>
			<polyline class="st7" points="287.68,209.24 284.32,209.24 270.19,195.11 			"/>
			<polyline class="st7" points="316.1,226.84 298.51,209.24 294.62,209.24 			"/>
			<polyline class="st7" points="302.27,227.87 290.18,215.78 284.28,215.78 274.63,206.13 			"/>
			<polyline class="st7" points="275.89,195.11 270.31,195.11 270.54,200.46 			"/>
			<polyline class="st7" points="310.91,226.96 316.49,226.96 316.26,221.61 			"/>
			<path class="st7" d="M303.52,231.02c1.01,0,1.83-0.82,1.83-1.83v-0.01c0-1.01-0.83-1.83-1.84-1.83s-1.83,0.83-1.83,1.84
				S302.51,231.03,303.52,231.02L303.52,231.02z"/>
		</g>
		<g id="link_7_">
			<polyline class="st7" points="225.43,217.6 225.43,225.67 230.62,229.26 230.62,259.43 			"/>
			<polyline class="st7" points="236.81,249.15 236.81,222.65 232.21,220.62 232.21,215.66 			"/>
			<line class="st7" x1="225.2" y1="254.29" x2="225.2" y2="230.28"/>
			<polyline class="st7" points="229.38,221.22 225.38,216.86 221.02,221.22 			"/>
			<path class="st7" d="M236.66,248.97c-1.12,0-2.03,0.9-2.03,2.02c0,1.12,0.9,2.03,2.02,2.03c1.12,0,2.03-0.9,2.03-2.02v-0.01
				C238.68,249.88,237.77,248.97,236.66,248.97L236.66,248.97z"/>
			<polyline class="st7" points="226.5,256.35 230.86,260.71 234.85,256.35 			"/>
		</g>
		<g id="link_6_">
			<polyline class="st7" points="235.48,112.92 235.48,104.85 230.29,101.26 230.29,71.09 			"/>
			<polyline class="st7" points="224.09,81.37 224.09,107.87 228.69,109.9 228.69,114.86 			"/>
			<line class="st7" x1="235.71" y1="76.23" x2="235.71" y2="100.24"/>
			<polyline class="st7" points="231.53,109.3 235.52,113.66 239.88,109.3 			"/>
			<path class="st7" d="M224.25,81.54c1.12,0,2.03-0.9,2.03-2.02c0-1.12-0.9-2.03-2.02-2.03c-1.12,0-2.03,0.9-2.03,2.02v0.01
				C222.23,80.64,223.13,81.54,224.25,81.54L224.25,81.54z"/>
			<polyline class="st7" points="234.41,74.17 230.05,69.81 226.06,74.17 			"/>
		</g>
		<g id="ink-main_1_">
			<polyline class="st8" points="204.29,340.76 204.29,352.04 212.7,357.05 212.7,409.27 			"/>
			<polyline class="st8" points="237.17,412.45 237.17,348.28 229.52,344.1 229.52,333.9 			"/>
			<line class="st8" x1="221.11" y1="416.13" x2="221.11" y2="326.14"/>
			<line class="st8" x1="229.14" y1="397.31" x2="229.14" y2="352.19"/>
			<line class="st8" x1="245.96" y1="408.43" x2="245.96" y2="329.5"/>
			<line class="st8" x1="203.9" y1="416.13" x2="203.9" y2="358.72"/>
			<polyline class="st8" points="209.86,345.88 204.2,339.71 198.02,345.88 			"/>
			<polyline class="st8" points="251.73,334.37 246.06,328.19 239.88,334.37 			"/>
			<path class="st8" d="M212.46,408.52c-1.59,0-2.88,1.28-2.88,2.87s1.28,2.88,2.87,2.88s2.88-1.28,2.88-2.87v-0.01
				C215.33,409.8,214.05,408.52,212.46,408.52L212.46,408.52z"/>
			<path class="st8" d="M237.44,411.41c-1.59,0-2.88,1.28-2.88,2.87s1.28,2.88,2.87,2.88s2.88-1.28,2.88-2.87v-0.01
				C240.3,412.7,239.02,411.41,237.44,411.41L237.44,411.41z"/>
		</g>
	</g>
	<path id="table_1_" class="st9" d="M346.89,787.74c0,0-26.39-160.56-34.88-208.65c-4.2-23.78-21.89-45.24-49.23-53.12
		c-5.18-1.49-16.1-1.73-21.49-1.9c-23.12-0.74-45.99,13.65-59.03,37.98C159.18,605.08,95.14,788.1,95.14,788.1"/>
	<g id="laptop_1_">
		<path class="st10" d="M363.84,521.67l-41.2-1.39c1.32-2.04,1.94-4.62,1.56-7.45l-10.18-75.4c-0.92-6.82-7.22-12.58-14-12.81
			l-129.4-4.35c-6.78-0.23-11.57,5.16-10.65,11.98l10.18,75.4c0.72,5.34,1.66,10.02,6.63,11.91c0.45,0.65,4.26,1.1,5.11,1.13
			l181.77,6.11c1.41,0.05,2.61-1.07,2.65-2.48C366.37,522.92,365.25,521.72,363.84,521.67z"/>
		<circle class="st11" cx="235.91" cy="473.67" r="6.17"/>
	</g>
</g>
<g id="man-sitting">
	<g id="chair">
		<path id="leg" class="st9" d="M604.06,795.8c0,0-15.74-84.1-20.8-112.78c-2.5-14.18-13.05-26.98-29.35-31.68
			c-3.09-0.89-9.6-1.03-12.81-1.13c-13.79-0.44-27.42,8.14-35.2,22.65c-13.76,25.67-45.52,107.23-45.52,107.23"/>
		<path id="seat" class="st12" d="M659.2,544.57l-24.78,92.96c0,0-4.96,22.7-42.12,16.21c-37.17-6.49-123.88-12.97-123.88-12.97"/>
	</g>
	<path id="shoes" class="st13" d="M381.9,766.14l-43.8-29.78c-5.46-3.71-6.89-11.21-3.18-16.67l6.3-9.27
		c3.71-5.46,11.21-6.89,16.67-3.18l43.8,29.78c5.46,3.71,6.89,11.21,3.18,16.67l-6.3,9.27C394.86,768.43,387.35,769.86,381.9,766.14
		z"/>
	<path id="shade_2_" class="st14" d="M646.81,499.87c13.36,138.72-84.98,162.33-119.25,134.66c80.11,24.18,91.26-127.4,91.26-127.4
		S633.29,506.5,646.81,499.87z"/>
	<g id="body">
		<path class="st15" d="M596,525.62c-11.69-1.21-16.58-1.74-28.18-3.7c-8-1.35-15.71-3.83-23.47-6.06
			c-4.99-1.43-10.05-2.64-15.02-4.12c-3.26-0.98-6.39-2.27-9.57-3.43c-3.29-1.19-6.68-2.1-10.04-3.07
			c-5.65-1.61-11.51,1.68-13.08,7.35c-0.17,0.63-0.29,1.27-0.35,1.92l-1.38,16.51c-0.47,5.87,3.88,11.04,9.73,11.55
			c0.56,0.05,1.12,0.05,1.68,0.01l26.94-2.17l1.87,1.07c0,0,62.89,39.64,93.47,31.18c16.04-4.44,20.97-58.41,23.62-93.03
			c1.72-22.41-13.12-32.67-38.01-43.16c-42.61-17.96-77.9-14.94-101.72-28.52l73.82-31.91l-7.83-30.8l-105.6,40.51
			c-2.93,1.1-5.61,2.78-7.89,4.92c-9.56,8.99-10.03,24.03-1.04,33.59l40.66,43.22l-14.49,82.24c-24.29-7.78-38.02-16.44-67.82-16.44
			c-23.8,0-29.39,29.44-31.49,46.15l-4.93,47.99l-28.22,79.29l49.4,34.33l20.3-37.68c11.98-22.23,23.95-44.46,35.93-66.69
			c4.04-7.5,4.22-7.83,9.04-15.31c2.83-4.39,4.52-5.59,9.47-3.86c19.05,6.68,36.85,15.57,57.09,18.46
			c19.25,2.75,40.77,0.31,56.24-12.42c14.73-12.11,22.51-30.47,26.5-48.69"/>
		<g>
			<path class="st10" d="M505.66,537.5l-11.83,1.51c-6.48,0.83-12.26-3.34-12.84-9.27l-3.12-31.91
				c-0.58-5.92,4.25-11.45,10.73-12.27l11.83-1.51c6.48-0.83,12.26,3.34,12.84,9.27l3.12,31.91
				C516.97,531.15,512.14,536.67,505.66,537.5z"/>
		</g>
		<g id="hand">
			<path class="st6" d="M506.17,543.26c-0.33,0-0.66-0.01-0.99-0.04c-2.99-0.25-5.7-1.57-7.64-3.72c-1.92-2.13-2.84-4.81-2.61-7.56
				l1.61-18.41c0.06-0.62,0.18-1.25,0.35-1.85c1.31-4.45,5.68-7.55,10.63-7.55c1.04,0,2.09,0.14,3.11,0.41l0.28,0.08
				c5.8,1.58,8.97,3.02,12.32,4.55c3.08,1.4,6.25,2.85,11.54,4.37l-3.02,27.33l-24.83,2.38
				C506.7,543.25,506.44,543.26,506.17,543.26z"/>
			<path class="st16" d="M507.52,505.62c0.91,0,1.83,0.12,2.71,0.36l0.18,0.05l0.11,0.03c5.68,1.55,8.8,2.97,12.09,4.47
				c2.89,1.32,5.86,2.67,10.53,4.09l-2.75,24.87l-23.57,2.26c-0.22,0.01-0.43,0.02-0.65,0.02c-0.29,0-0.58-0.01-0.87-0.04
				c-2.61-0.22-4.97-1.36-6.65-3.23c-1.64-1.82-2.43-4.1-2.23-6.42l1.6-18.4c0.05-0.53,0.15-1.06,0.3-1.57
				C499.45,508.29,503.23,505.62,507.52,505.62 M507.52,502.62c-5.5,0-10.53,3.4-12.07,8.63c-0.21,0.7-0.34,1.42-0.41,2.14
				l-1.61,18.41c-0.55,6.55,4.66,12.33,11.62,12.91c0.37,0.03,0.74,0.05,1.12,0.05c0.3,0,0.59-0.01,0.89-0.03l26.04-2.5l3.29-29.8
				c-11.83-3.23-13.25-6.04-25.09-9.26c-0.1-0.03-0.19-0.05-0.29-0.08C509.85,502.77,508.67,502.62,507.52,502.62L507.52,502.62z"/>
		</g>
	</g>
	<path id="shade_1_" class="st14" d="M587.86,591.35c-18.82-15.69-22.23-25.71-22.23-25.71s13.36,0,18.5,2.06
		c14.93,5.97,36.29,7.35,36.29,7.35c-3.03,14.6-9.58,26.56-12.66,31.7C605.58,610.37,594.53,596.9,587.86,591.35z"/>
	<g id="face">
		<path class="st17" d="M576.65,439.31l-16.24-2.42c-15.58-2.32-26.25-19.6-23.72-38.4l3.67-27.24
			c2.53-18.8,17.35-32.27,32.93-29.95l16.24,2.42c15.58,2.32,26.25,19.6,23.72,38.4c0,0-1.66,12.57-1.66,12.61
			c0.04-0.29,4.03-2.08,4.23-2.15c1.41-0.51,1.85-0.86,3.31-0.66c4.81,0.67,4.61,10.8,2.67,15.34c-0.76,1.78-1.89,3.3-3.1,4.69
			c-1.27,1.47-2.65,2.84-4.23,3.76c-1.18,0.69-2.47,1.12-3.77,1.12c-0.52,0-2.5-0.94-2.68-0.19
			C603.93,433.07,590.98,441.44,576.65,439.31z"/>
		<path class="st18" d="M578.65,416.62c-9.7,4.22-15.99,2.68-23.43-4.37"/>
		<path class="st19" d="M548.33,388.63c0.04-0.49,0.12-0.97,0.24-1.44c1.12-4.37,5.34-6.97,9.43-5.8c4.09,1.17,6.5,5.67,5.38,10.05"
			/>
		<path class="st19" d="M580.52,395.78c0.04-0.49,0.12-0.97,0.24-1.44c1.12-4.37,5.34-6.97,9.43-5.8c4.09,1.17,6.5,5.67,5.38,10.05"
			/>
		<path class="st20" d="M579.36,319.69c58.28-7.26,49.79,53.23,40.22,69.73c-1.63,2.8-5.44,2.61-6.65,2.44
			c-1.05-3.97,2.73-22.18-7.13-32.51c-9.85-10.33-26.69-6.64-34.42-7.87c-11.13-1.76-24.02-11.43-32.71,24.81
			c-3.38-17.45-12.43-44.92,9.51-62.43C557.73,327.21,567.64,321.14,579.36,319.69z"/>
	</g>
	<path class="st21" d="M481.89,617.53c-31.85-13.36-44.37-20.35-58.57-21.58c-27.07-2.35-38.62,34.22-42.78,46.37"/>
	<path id="shade" class="st14" d="M474.18,615.98l-59.6,107.89l27.74-121.25C452.6,606.74,474.18,615.98,474.18,615.98z"/>
	<path class="st21" d="M490.21,549.41c13.96,5,28.22,9.22,42.71,12.39c13.97,3.06,29.05,6.37,43.41,5.27
		c2.44-0.19,4.87-0.5,7.28-0.93"/>
</g>
</svg>
