<?xml version="1.0" encoding="utf-8"?>
<!-- Generator: Adobe Illustrator 23.1.1, SVG Export Plug-In . SVG Version: 6.00 Build 0)  -->
<svg version="1.1" id="Layer_1" xmlns="http://www.w3.org/2000/svg" xmlns:xlink="http://www.w3.org/1999/xlink" x="0px" y="0px"
	 viewBox="0 0 2422 783.1" style="enable-background:new 0 0 2422 783.1;" xml:space="preserve">
<style type="text/css">
	.st0{enable-background:new    ;}
	.st1{fill:#FFFFFF;}
	.st2{fill:none;stroke:#FFFFFF;stroke-width:18;stroke-miterlimit:10;}
</style>
<g class="st0">
	<path class="st1" d="M979.8,245.2c3.3,0,6.7,0.8,10.2,2.4c3.5,1.6,6.3,3.9,8.2,6.9L1102,412.8l-17.6-0.8l105.8-157.3
		c4.3-6.3,9.9-9.4,16.8-9.4c5.4,0,10.3,2,14.5,5.9c4.2,3.9,6.3,8.9,6.3,14.9v244.7c0,6-1.9,11-5.7,14.9c-3.8,4-8.8,5.9-15.1,5.9
		c-6.5,0-11.8-2-15.7-5.9s-5.9-8.9-5.9-14.9V303.7l13.1,2.9l-89.9,136.9c-1.9,2.5-4.4,4.6-7.3,6.3c-3,1.8-6.1,2.5-9.4,2.2
		c-3,0.3-6.1-0.5-9.2-2.2c-3.1-1.8-5.7-3.9-7.6-6.3l-86.6-134.8l9.8-16.3v218.6c0,6-1.8,11-5.5,14.9c-3.7,4-8.5,5.9-14.5,5.9
		c-5.7,0-10.4-2-14.1-5.9c-3.7-4-5.5-8.9-5.5-14.9V266.1c0-5.7,2.1-10.6,6.3-14.7C969.1,247.3,974.1,245.2,979.8,245.2z"/>
	<path class="st1" d="M1464.3,313.5c5.7,0,10.6,2,14.5,5.9c3.9,4,5.9,8.9,5.9,14.9v176.5c0,6-2,11-5.9,14.9c-3.9,4-8.8,5.9-14.5,5.9
		c-6,0-10.9-2-14.7-5.9c-3.8-4-5.7-8.9-5.7-14.9v-29.4l8.2,1.2c0,4.9-2,10.4-5.9,16.3c-3.9,6-9.3,11.8-16.1,17.4
		c-6.8,5.6-14.8,10.2-24.1,13.9c-9.3,3.7-19.2,5.5-29.8,5.5c-18.8,0-35.7-4.8-50.7-14.5c-15-9.7-26.8-22.9-35.5-39.8
		c-8.7-16.9-13.1-36.1-13.1-57.6c0-22.1,4.3-41.5,13.1-58.2c8.7-16.8,20.5-29.9,35.3-39.4c14.8-9.5,31.4-14.3,49.6-14.3
		c11.7,0,22.5,1.9,32.5,5.7c9.9,3.8,18.6,8.7,25.9,14.7s13.1,12.3,17.2,19c4.1,6.7,6.1,13,6.1,19l-12.7,1.2v-37.2
		c0-5.7,1.9-10.6,5.7-14.7C1453.4,315.5,1458.3,313.5,1464.3,313.5z M1381,498.1c12.8,0,24-3.3,33.7-9.8
		c9.7-6.5,17.2-15.5,22.7-26.8c5.4-11.3,8.2-23.9,8.2-37.8c0-14.2-2.7-26.8-8.2-38c-5.4-11.2-13-20-22.7-26.6
		c-9.7-6.5-20.9-9.8-33.7-9.8c-12.5,0-23.7,3.3-33.5,9.8c-9.8,6.5-17.4,15.4-22.9,26.6c-5.4,11.2-8.2,23.8-8.2,38
		c0,13.9,2.7,26.5,8.2,37.8c5.4,11.3,13,20.2,22.7,26.8C1357,494.9,1368.2,498.1,1381,498.1z"/>
	<path class="st1" d="M1528.9,498.1c-2.4-3.8-3.5-8.2-3.3-13.3c0.3-5,3.1-9.3,8.6-12.9c3.8-2.5,7.8-3.5,12.1-3.1
		c4.2,0.4,8.2,2.5,12.1,6.3c7.6,8.5,16.1,15.1,25.5,20c9.4,4.9,20.8,7.4,34.1,7.4c5.4-0.3,11-1.2,16.8-2.7
		c5.7-1.5,10.6-4.2,14.7-8.2s6.1-9.7,6.1-17.4c0-6.8-2.2-12.3-6.5-16.3c-4.4-4.1-10.1-7.4-17.2-10c-7.1-2.6-14.7-5-22.9-7.1
		c-8.7-2.5-17.5-5.2-26.3-8.2c-8.8-3-16.8-6.9-23.9-11.6c-7.1-4.8-12.9-11-17.4-18.6c-4.5-7.6-6.7-17-6.7-28.2
		c0-12.8,3.6-23.8,10.8-33.1c7.2-9.3,16.6-16.5,28.2-21.6c11.6-5.2,24.2-7.8,37.8-7.8c7.9,0,16.2,1,24.9,3.1
		c8.7,2,17.2,5.2,25.3,9.6c8.2,4.4,15.2,10.1,21.2,17.2c2.7,3.5,4.3,7.8,4.7,12.7c0.4,4.9-1.8,9.3-6.7,13.1c-3.3,2.7-7.2,4-11.8,3.7
		c-4.6-0.3-8.4-1.8-11.4-4.5c-5.2-6.5-11.8-11.6-20-15.3s-17.4-5.5-27.8-5.5c-5.2,0-10.6,0.8-16.1,2.2s-10.3,4.2-14.1,8
		c-3.8,3.8-5.7,9.4-5.7,16.8c0,6.8,2.2,12.3,6.7,16.3c4.5,4.1,10.4,7.5,17.8,10.2c7.3,2.7,15.4,5.2,24.1,7.4
		c8.4,2.2,16.8,4.8,25.1,7.8c8.3,3,15.8,6.9,22.5,11.6c6.7,4.8,12.1,10.9,16.3,18.4c4.2,7.5,6.3,17,6.3,28.4
		c0,13.4-3.9,24.7-11.6,34.1c-7.8,9.4-17.6,16.5-29.4,21.5s-24.3,7.3-37.4,7.3c-15.5,0-31-2.8-46.4-8.4
		C1552.5,521.8,1539.5,512,1528.9,498.1z"/>
	<path class="st1" d="M1724.2,498.1c-2.4-3.8-3.5-8.2-3.3-13.3c0.3-5,3.1-9.3,8.6-12.9c3.8-2.5,7.8-3.5,12.1-3.1
		c4.2,0.4,8.2,2.5,12.1,6.3c7.6,8.5,16.1,15.1,25.5,20c9.4,4.9,20.8,7.4,34.1,7.4c5.4-0.3,11-1.2,16.8-2.7
		c5.7-1.5,10.6-4.2,14.7-8.2s6.1-9.7,6.1-17.4c0-6.8-2.2-12.3-6.5-16.3c-4.4-4.1-10.1-7.4-17.2-10c-7.1-2.6-14.7-5-22.9-7.1
		c-8.7-2.5-17.5-5.2-26.3-8.2c-8.8-3-16.8-6.9-23.9-11.6c-7.1-4.8-12.9-11-17.4-18.6c-4.5-7.6-6.7-17-6.7-28.2
		c0-12.8,3.6-23.8,10.8-33.1c7.2-9.3,16.6-16.5,28.2-21.6c11.6-5.2,24.2-7.8,37.8-7.8c7.9,0,16.2,1,24.9,3.1
		c8.7,2,17.2,5.2,25.3,9.6c8.2,4.4,15.2,10.1,21.2,17.2c2.7,3.5,4.3,7.8,4.7,12.7c0.4,4.9-1.8,9.3-6.7,13.1c-3.3,2.7-7.2,4-11.8,3.7
		c-4.6-0.3-8.4-1.8-11.4-4.5c-5.2-6.5-11.8-11.6-20-15.3s-17.4-5.5-27.8-5.5c-5.2,0-10.6,0.8-16.1,2.2s-10.3,4.2-14.1,8
		c-3.8,3.8-5.7,9.4-5.7,16.8c0,6.8,2.2,12.3,6.7,16.3c4.5,4.1,10.4,7.5,17.8,10.2c7.3,2.7,15.4,5.2,24.1,7.4
		c8.4,2.2,16.8,4.8,25.1,7.8c8.3,3,15.8,6.9,22.5,11.6c6.7,4.8,12.1,10.9,16.3,18.4c4.2,7.5,6.3,17,6.3,28.4
		c0,13.4-3.9,24.7-11.6,34.1c-7.8,9.4-17.6,16.5-29.4,21.5s-24.3,7.3-37.4,7.3c-15.5,0-31-2.8-46.4-8.4
		C1747.8,521.8,1734.8,512,1724.2,498.1z"/>
	<path class="st1" d="M2062,245.6c25.1,0,44.1,6.1,57,18.4c12.9,12.3,19.4,30.1,19.4,53.5c0,12.3-2.9,23.4-8.8,33.3
		c-5.9,10-14.4,17.8-25.7,23.5c-11.3,5.7-25.4,8.7-42.3,9l0.8-15.1c9,0,18.7,1.2,29.2,3.7c10.5,2.5,20.4,6.7,29.6,12.7
		c9.3,6,16.9,14.1,22.9,24.3c6,10.2,9,23,9,38.2c0,16.6-2.7,30.4-8.2,41.5c-5.4,11-12.7,19.7-21.6,25.9c-9,6.3-18.9,10.7-29.6,13.3
		s-21.3,3.9-31.7,3.9h-104.6c-5.7,0-10.6-2-14.7-5.9s-6.1-8.9-6.1-14.9V266.5c0-6,2-11,6.1-14.9c4.1-3.9,9-5.9,14.7-5.9L2062,245.6
		L2062,245.6z M2056.3,285.7h-80.5l4.9-6.5V367l-4.5-4.5h80.9c9.8-0.3,18.4-3.6,25.9-10c7.5-6.4,11.2-15.9,11.2-28.4
		c0-12.8-3.4-22.4-10.2-28.8C2077.3,288.9,2068,285.7,2056.3,285.7z M2059.2,402.5h-81.3l2.9-2.9v96.4l-3.3-3.7h84.2
		c14.2,0,25.6-3.7,34.3-11.2c8.7-7.5,13.1-18.9,13.1-34.1c0-12.8-2.6-22.3-7.8-28.6c-5.2-6.3-11.6-10.5-19.2-12.7
		C2074.4,403.6,2066.8,402.5,2059.2,402.5z"/>
	<path class="st1" d="M2216.9,288.1c-7.9,0-13.6-1.4-17.2-4.3c-3.5-2.9-5.3-7.7-5.3-14.5v-6.5c0-6.8,1.9-11.6,5.7-14.3
		c3.8-2.7,9.5-4.1,17.2-4.1c8.2,0,14,1.4,17.6,4.3c3.5,2.9,5.3,7.6,5.3,14.1v6.5c0,7.1-1.8,12-5.5,14.7S2225.1,288.1,2216.9,288.1z
		 M2237.7,510.8c0,6-1.9,11-5.7,14.9c-3.8,4-8.7,5.9-14.7,5.9c-5.7,0-10.6-2-14.5-5.9c-3.9-4-5.9-8.9-5.9-14.9V335.9
		c0-6,2-11,5.9-14.9c3.9-4,8.8-5.9,14.5-5.9c6,0,10.9,2,14.7,5.9c3.8,4,5.7,8.9,5.7,14.9V510.8z"/>
	<path class="st1" d="M2290,319.2h96c5.4,0,10,1.8,13.7,5.5s5.5,8.2,5.5,13.7c0,5.2-1.8,9.5-5.5,13.1c-3.7,3.5-8.2,5.3-13.7,5.3h-96
		c-5.4,0-10-1.8-13.7-5.5c-3.7-3.7-5.5-8.1-5.5-13.3c0-5.5,1.8-9.9,5.5-13.5C2280,321,2284.6,319.2,2290,319.2z M2332.9,266.1
		c6,0,10.9,2,14.7,5.9c3.8,4,5.7,8.9,5.7,14.9v189.6c0,4.9,0.8,8.9,2.4,11.9s3.9,5,6.7,6.1s5.8,1.6,8.8,1.6c3,0,5.6-0.5,8-1.6
		c2.3-1.1,5.1-1.6,8.4-1.6s6.3,1.5,9,4.5c2.7,3,4.1,7.1,4.1,12.3c0,6.5-3.5,11.8-10.6,15.9s-14.7,6.1-22.9,6.1
		c-4.6,0-10.1-0.4-16.3-1.2c-6.3-0.8-12.3-2.9-18.2-6.1c-5.9-3.3-10.7-8.5-14.5-15.7c-3.8-7.2-5.7-17.4-5.7-30.4V286.9
		c0-6,2-11,5.9-14.9C2322.3,268.1,2327.2,266.1,2332.9,266.1z"/>
</g>
<g>
	<g>
		<circle class="st2" cx="391.6" cy="391.6" r="391.6"/>
	</g>
	<g>
		<g>
			<g>
				<path class="st1" d="M137.2,515.9c-1.4,0-2.8-0.3-4.1-0.9c-5-2.3-7.2-8.2-4.9-13.2l127.3-278.3c2.3-5,8.2-7.2,13.2-4.9
					s7.2,8.2,4.9,13.2L146.3,510.1C144.6,513.7,141,515.9,137.2,515.9z"/>
			</g>
			<g>
				<path class="st1" d="M391.9,515.9c-3.8,0-7.4-2.2-9.1-5.8L255.4,231.8c-2.3-5-0.1-11,4.9-13.2c5-2.3,11-0.1,13.2,4.9L401,501.7
					c2.3,5,0.1,11-4.9,13.2C394.7,515.6,393.3,515.9,391.9,515.9z"/>
			</g>
			<g>
				<path class="st1" d="M391.9,515.9c-1.4,0-2.8-0.3-4.1-0.9c-5-2.3-7.2-8.2-4.9-13.2l127.3-278.3c2.3-5,8.2-7.2,13.2-4.9
					s7.2,8.2,4.9,13.2L401,510.1C399.3,513.7,395.7,515.9,391.9,515.9z"/>
			</g>
			<g>
				<path class="st1" d="M646.6,515.9c-3.8,0-7.4-2.2-9.1-5.8L510.1,231.8c-2.3-5-0.1-11,4.9-13.2c5-2.3,11-0.1,13.2,4.9
					l127.3,278.3c2.3,5,0.1,11-4.9,13.2C649.4,515.6,648,515.9,646.6,515.9z"/>
			</g>
		</g>
		<g>
			<g>
				<ellipse class="st1" cx="136.6" cy="518.5" rx="38.2" ry="37"/>
			</g>
		</g>
		<g>
			<g>
				<ellipse class="st1" cx="391.6" cy="518.5" rx="38.2" ry="37"/>
			</g>
		</g>
		<g>
			<g>
				<ellipse class="st1" cx="646.6" cy="518.5" rx="38.2" ry="37"/>
			</g>
		</g>
	</g>
</g>
</svg>
