<?xml version="1.0" encoding="utf-8"?>
<!-- Generator: Adobe Illustrator 24.3.0, SVG Export Plug-In . SVG Version: 6.00 Build 0)  -->
<svg version="1.1" id="Layer_1" xmlns="http://www.w3.org/2000/svg" xmlns:xlink="http://www.w3.org/1999/xlink" x="0px" y="0px"
	 viewBox="0 0 2479.13 783.13" style="enable-background:new 0 0 2479.13 783.13;" xml:space="preserve">
<style type="text/css">
	.st0{fill:#2C3ACF;}
	.st1{fill:#FFFFFF;}
	.st2{enable-background:new    ;}
	.st3{fill:#26262D;}
</style>
<g>
	<circle class="st0" cx="391.57" cy="391.57" r="391.57"/>
</g>
<g>
	<g>
		<g>
			<path class="st1" d="M137.52,510.99c-1.24,0-2.5-0.29-3.67-0.9c-3.92-2.03-5.46-6.86-3.42-10.78l127.33-245.77
				c2.03-3.92,6.86-5.46,10.78-3.42c3.92,2.03,5.46,6.86,3.42,10.78L144.63,506.67C143.21,509.42,140.42,510.99,137.52,510.99z"/>
		</g>
		<g>
			<path class="st1" d="M392.21,510.99c-2.89,0-5.69-1.58-7.11-4.32L257.76,260.9c-2.03-3.92-0.5-8.75,3.42-10.78
				c3.92-2.03,8.75-0.5,10.78,3.42L399.3,499.31c2.03,3.92,0.5,8.75-3.42,10.78C394.7,510.7,393.45,510.99,392.21,510.99z"/>
		</g>
		<g>
			<path class="st1" d="M392.19,510.99c-1.24,0-2.5-0.29-3.67-0.9c-3.92-2.03-5.46-6.86-3.42-10.78l127.34-245.77
				c2.03-3.92,6.86-5.46,10.78-3.42c3.92,2.03,5.46,6.86,3.42,10.78L399.3,506.67C397.88,509.42,395.09,510.99,392.19,510.99z"/>
		</g>
		<g>
			<path class="st1" d="M646.89,510.99c-2.89,0-5.69-1.58-7.11-4.32L512.44,260.9c-2.03-3.92-0.5-8.75,3.42-10.78
				c3.92-2.03,8.75-0.5,10.78,3.42l127.34,245.77c2.03,3.92,0.5,8.75-3.42,10.78C649.38,510.7,648.13,510.99,646.89,510.99z"/>
		</g>
	</g>
	<g>
		<circle class="st1" cx="647.52" cy="503.62" r="32.47"/>
	</g>
	<g>
		<circle class="st1" cx="391.57" cy="503.62" r="32.47"/>
	</g>
	<g>
		<circle class="st1" cx="136.89" cy="508.72" r="32.47"/>
	</g>
</g>
<g class="st2">
	<path class="st3" d="M978.45,245.37c3.27,0,6.67,0.82,10.21,2.45c3.54,1.63,6.26,3.95,8.17,6.95l103.77,158.11l-17.57-0.82
		l105.81-157.29c4.35-6.26,9.94-9.4,16.75-9.4c5.45,0,10.28,1.98,14.5,5.92c4.22,3.95,6.33,8.92,6.33,14.91v244.72
		c0,5.99-1.91,10.97-5.72,14.91c-3.82,3.95-8.85,5.92-15.12,5.92c-6.54,0-11.78-1.97-15.73-5.92c-3.95-3.95-5.92-8.92-5.92-14.91
		V303.79l13.07,2.86l-89.88,136.86c-1.91,2.45-4.36,4.56-7.35,6.33c-3,1.78-6.13,2.52-9.4,2.25c-3,0.27-6.06-0.47-9.19-2.25
		c-3.13-1.77-5.66-3.88-7.56-6.33L987.03,308.7l9.81-16.34v218.57c0,5.99-1.84,10.97-5.52,14.91c-3.68,3.95-8.52,5.92-14.5,5.92
		c-5.72,0-10.42-1.97-14.09-5.92c-3.68-3.95-5.52-8.92-5.52-14.91V266.21c0-5.72,2.11-10.62,6.33-14.71
		C967.75,247.42,972.73,245.37,978.45,245.37z"/>
	<path class="st3" d="M1462.98,313.6c5.72,0,10.55,1.98,14.5,5.92c3.95,3.95,5.92,8.92,5.92,14.91v176.49
		c0,5.99-1.98,10.97-5.92,14.91c-3.95,3.95-8.78,5.92-14.5,5.92c-5.99,0-10.9-1.97-14.71-5.92c-3.82-3.95-5.72-8.92-5.72-14.91
		v-29.42l8.17,1.23c0,4.9-1.98,10.35-5.92,16.34c-3.95,5.99-9.33,11.78-16.14,17.36c-6.81,5.58-14.85,10.21-24.1,13.89
		c-9.26,3.68-19.2,5.52-29.82,5.52c-18.79,0-35.68-4.83-50.66-14.5c-14.98-9.67-26.83-22.94-35.54-39.83
		c-8.72-16.88-13.07-36.09-13.07-57.61c0-22.06,4.35-41.47,13.07-58.22c8.71-16.75,20.49-29.89,35.34-39.42
		c14.84-9.53,31.39-14.3,49.64-14.3c11.71,0,22.53,1.91,32.48,5.72c9.94,3.82,18.59,8.72,25.94,14.71
		c7.35,5.99,13.07,12.33,17.16,19c4.08,6.68,6.13,13.01,6.13,19l-12.67,1.23v-37.18c0-5.72,1.9-10.62,5.72-14.71
		C1452.08,315.64,1456.99,313.6,1462.98,313.6z M1379.64,498.26c12.8,0,24.03-3.27,33.71-9.8c9.67-6.54,17.22-15.46,22.67-26.76
		c5.45-11.3,8.17-23.9,8.17-37.79c0-14.16-2.73-26.82-8.17-38c-5.45-11.16-13.01-20.02-22.67-26.56c-9.67-6.54-20.91-9.8-33.71-9.8
		c-12.53,0-23.7,3.27-33.5,9.8c-9.8,6.54-17.43,15.39-22.88,26.56c-5.45,11.17-8.17,23.84-8.17,38c0,13.89,2.72,26.49,8.17,37.79
		c5.44,11.3,13,20.22,22.67,26.76C1355.6,494.99,1366.83,498.26,1379.64,498.26z"/>
	<path class="st3" d="M1527.53,498.26c-2.45-3.81-3.54-8.23-3.27-13.28c0.27-5.04,3.13-9.33,8.58-12.87
		c3.81-2.45,7.83-3.47,12.05-3.06c4.22,0.41,8.23,2.52,12.05,6.33c7.62,8.45,16.14,15.12,25.53,20.02c9.4,4.9,20.77,7.35,34.11,7.35
		c5.45-0.27,11.03-1.16,16.75-2.66c5.72-1.49,10.62-4.22,14.71-8.17c4.08-3.95,6.13-9.74,6.13-17.36c0-6.8-2.18-12.26-6.54-16.34
		c-4.36-4.09-10.08-7.42-17.16-10.01c-7.08-2.58-14.71-4.97-22.88-7.15c-8.72-2.45-17.5-5.17-26.35-8.17
		c-8.85-2.99-16.82-6.88-23.9-11.64c-7.08-4.76-12.87-10.96-17.36-18.59c-4.49-7.62-6.74-17.02-6.74-28.19
		c0-12.8,3.61-23.83,10.83-33.09c7.21-9.26,16.61-16.48,28.19-21.65c11.57-5.17,24.17-7.76,37.79-7.76c7.9,0,16.2,1.02,24.92,3.06
		c8.71,2.04,17.16,5.25,25.33,9.6c8.17,4.36,15.25,10.08,21.24,17.16c2.72,3.54,4.29,7.76,4.7,12.67c0.41,4.9-1.84,9.26-6.74,13.07
		c-3.27,2.73-7.22,3.95-11.85,3.68c-4.63-0.27-8.45-1.77-11.44-4.49c-5.18-6.54-11.85-11.64-20.02-15.32
		c-8.17-3.68-17.43-5.52-27.78-5.52c-5.18,0-10.56,0.75-16.14,2.25c-5.59,1.5-10.28,4.16-14.1,7.97c-3.82,3.82-5.72,9.4-5.72,16.75
		c0,6.81,2.25,12.26,6.74,16.34c4.49,4.09,10.42,7.49,17.77,10.21c7.35,2.73,15.38,5.18,24.1,7.35c8.44,2.18,16.81,4.77,25.13,7.76
		c8.3,3,15.79,6.88,22.47,11.64c6.67,4.77,12.12,10.9,16.34,18.38c4.22,7.49,6.33,16.95,6.33,28.39c0,13.35-3.88,24.72-11.64,34.11
		c-7.76,9.4-17.57,16.55-29.42,21.45c-11.85,4.9-24.31,7.35-37.38,7.35c-15.52,0-30.99-2.8-46.37-8.38
		C1551.15,521.89,1538.15,512.15,1527.53,498.26z"/>
	<path class="st3" d="M1722.81,498.26c-2.45-3.81-3.54-8.23-3.27-13.28c0.27-5.04,3.13-9.33,8.58-12.87
		c3.81-2.45,7.83-3.47,12.05-3.06c4.22,0.41,8.23,2.52,12.05,6.33c7.62,8.45,16.14,15.12,25.53,20.02c9.4,4.9,20.77,7.35,34.11,7.35
		c5.45-0.27,11.03-1.16,16.75-2.66c5.72-1.49,10.62-4.22,14.71-8.17c4.08-3.95,6.13-9.74,6.13-17.36c0-6.8-2.18-12.26-6.54-16.34
		c-4.36-4.09-10.08-7.42-17.16-10.01c-7.08-2.58-14.71-4.97-22.88-7.15c-8.72-2.45-17.5-5.17-26.35-8.17
		c-8.85-2.99-16.82-6.88-23.9-11.64c-7.08-4.76-12.87-10.96-17.36-18.59c-4.49-7.62-6.74-17.02-6.74-28.19
		c0-12.8,3.61-23.83,10.83-33.09c7.21-9.26,16.61-16.48,28.19-21.65c11.57-5.17,24.17-7.76,37.79-7.76c7.9,0,16.2,1.02,24.92,3.06
		c8.71,2.04,17.16,5.25,25.33,9.6c8.17,4.36,15.25,10.08,21.24,17.16c2.72,3.54,4.29,7.76,4.7,12.67c0.41,4.9-1.84,9.26-6.74,13.07
		c-3.27,2.73-7.22,3.95-11.85,3.68c-4.63-0.27-8.45-1.77-11.44-4.49c-5.18-6.54-11.85-11.64-20.02-15.32
		c-8.17-3.68-17.43-5.52-27.78-5.52c-5.18,0-10.56,0.75-16.14,2.25c-5.59,1.5-10.28,4.16-14.1,7.97c-3.82,3.82-5.72,9.4-5.72,16.75
		c0,6.81,2.25,12.26,6.74,16.34c4.49,4.09,10.42,7.49,17.77,10.21c7.35,2.73,15.38,5.18,24.1,7.35c8.44,2.18,16.81,4.77,25.13,7.76
		c8.3,3,15.79,6.88,22.47,11.64c6.67,4.77,12.12,10.9,16.34,18.38c4.22,7.49,6.33,16.95,6.33,28.39c0,13.35-3.88,24.72-11.64,34.11
		c-7.76,9.4-17.57,16.55-29.42,21.45c-11.85,4.9-24.31,7.35-37.38,7.35c-15.52,0-30.99-2.8-46.37-8.38
		C1746.44,521.89,1733.43,512.15,1722.81,498.26z"/>
	<path class="st3" d="M2060.68,245.78c25.05,0,44.05,6.13,56.99,18.38c12.93,12.26,19.41,30.1,19.41,53.52
		c0,12.26-2.93,23.36-8.78,33.3c-5.86,9.95-14.44,17.77-25.74,23.49c-11.31,5.72-25.4,8.72-42.29,8.99l0.82-15.12
		c8.99,0,18.72,1.23,29.21,3.68c10.48,2.45,20.36,6.68,29.62,12.67c9.26,5.99,16.88,14.09,22.88,24.31
		c5.99,10.21,8.99,22.95,8.99,38.2c0,16.62-2.73,30.44-8.17,41.47c-5.45,11.03-12.67,19.68-21.65,25.94
		c-8.99,6.27-18.86,10.69-29.62,13.28c-10.76,2.59-21.31,3.88-31.66,3.88h-104.59c-5.72,0-10.62-1.97-14.71-5.92
		c-4.09-3.95-6.13-8.92-6.13-14.91V266.62c0-5.99,2.04-10.96,6.13-14.91c4.08-3.95,8.99-5.92,14.71-5.92H2060.68z M2054.96,285.82
		h-80.48l4.9-6.54v87.84l-4.49-4.49h80.89c9.81-0.27,18.45-3.61,25.94-10.01c7.49-6.4,11.23-15.86,11.23-28.39
		c0-12.8-3.41-22.4-10.21-28.8C2075.93,289.02,2066.67,285.82,2054.96,285.82z M2057.82,402.66h-81.3l2.86-2.86v96.42l-3.27-3.68
		h84.16c14.16,0,25.6-3.74,34.32-11.23c8.71-7.49,13.07-18.86,13.07-34.11c0-12.8-2.59-22.33-7.76-28.6
		c-5.18-6.26-11.58-10.48-19.2-12.67C2073.07,403.75,2065.44,402.66,2057.82,402.66z"/>
	<path class="st3" d="M2215.52,288.27c-7.9,0-13.62-1.43-17.16-4.29c-3.54-2.86-5.31-7.69-5.31-14.5v-6.54
		c0-6.81,1.9-11.57,5.72-14.3c3.81-2.72,9.53-4.09,17.16-4.09c8.17,0,14.02,1.43,17.57,4.29c3.54,2.86,5.31,7.56,5.31,14.09v6.54
		c0,7.09-1.84,11.99-5.52,14.71C2229.61,286.91,2223.69,288.27,2215.52,288.27z M2236.35,510.93c0,5.99-1.91,10.97-5.72,14.91
		c-3.82,3.95-8.72,5.92-14.71,5.92c-5.72,0-10.56-1.97-14.5-5.92c-3.95-3.95-5.92-8.92-5.92-14.91V336.07
		c0-5.99,1.97-10.96,5.92-14.91c3.94-3.95,8.78-5.92,14.5-5.92c5.99,0,10.89,1.98,14.71,5.92c3.81,3.95,5.72,8.92,5.72,14.91V510.93
		z"/>
	<path class="st3" d="M2288.64,319.32h96.01c5.45,0,10.01,1.84,13.69,5.52c3.68,3.68,5.51,8.24,5.51,13.69
		c0,5.18-1.84,9.54-5.51,13.07c-3.68,3.54-8.24,5.31-13.69,5.31h-96.01c-5.45,0-10.01-1.84-13.69-5.51
		c-3.68-3.68-5.51-8.1-5.51-13.28c0-5.45,1.84-9.94,5.51-13.48C2278.63,321.09,2283.19,319.32,2288.64,319.32z M2331.54,266.21
		c5.99,0,10.89,1.98,14.71,5.92c3.81,3.95,5.72,8.92,5.72,14.91v189.57c0,4.9,0.82,8.85,2.45,11.85c1.63,3,3.88,5.04,6.74,6.13
		c2.86,1.09,5.78,1.63,8.78,1.63c2.99,0,5.65-0.54,7.97-1.63c2.31-1.08,5.11-1.63,8.38-1.63s6.26,1.5,8.99,4.49
		c2.72,3,4.09,7.09,4.09,12.26c0,6.54-3.54,11.85-10.62,15.93c-7.08,4.08-14.71,6.13-22.88,6.13c-4.63,0-10.08-0.41-16.34-1.23
		c-6.27-0.82-12.33-2.86-18.18-6.13c-5.86-3.27-10.69-8.51-14.5-15.73c-3.82-7.21-5.72-17.36-5.72-30.44v-191.2
		c0-5.99,1.97-10.96,5.92-14.91C2320.98,268.19,2325.82,266.21,2331.54,266.21z"/>
</g>
</svg>
