<?xml version="1.0" encoding="utf-8"?>
<!-- Generator: Adobe Illustrator 23.1.1, SVG Export Plug-In . SVG Version: 6.00 Build 0)  -->
<svg version="1.1" id="logo" xmlns="http://www.w3.org/2000/svg" xmlns:xlink="http://www.w3.org/1999/xlink" x="0px" y="0px"
	 viewBox="0 0 2422 783.1" style="enable-background:new 0 0 2422 783.1;" xml:space="preserve">
<style type="text/css">
	.st0{enable-background:new    ;}
	.st1{fill:#FFFFFF;}
</style>
<g class="st0">
	<path class="st1" d="M979.8,245.2c3.3,0,6.7,0.8,10.2,2.4c3.5,1.6,6.3,3.9,8.2,6.9L1102,412.8l-17.6-0.8l105.8-157.3
		c4.3-6.3,9.9-9.4,16.8-9.4c5.4,0,10.3,2,14.5,5.9s6.3,8.9,6.3,14.9v244.7c0,6-1.9,11-5.7,14.9c-3.8,4-8.8,5.9-15.1,5.9
		c-6.5,0-11.8-2-15.7-5.9s-5.9-8.9-5.9-14.9V303.7l13.1,2.9l-89.9,136.9c-1.9,2.5-4.4,4.6-7.3,6.3c-3,1.8-6.1,2.5-9.4,2.2
		c-3,0.3-6.1-0.5-9.2-2.2c-3.1-1.8-5.7-3.9-7.6-6.3l-86.6-134.8l9.8-16.3V511c0,6-1.8,11-5.5,14.9c-3.7,4-8.5,5.9-14.5,5.9
		c-5.7,0-10.4-2-14.1-5.9c-3.7-4-5.5-8.9-5.5-14.9V266.1c0-5.7,2.1-10.6,6.3-14.7C969.1,247.3,974.1,245.2,979.8,245.2z"/>
	<path class="st1" d="M1464.3,313.5c5.7,0,10.6,2,14.5,5.9c3.9,4,5.9,8.9,5.9,14.9v176.5c0,6-2,11-5.9,14.9c-3.9,4-8.8,5.9-14.5,5.9
		c-6,0-10.9-2-14.7-5.9c-3.8-4-5.7-8.9-5.7-14.9v-29.4l8.2,1.2c0,4.9-2,10.4-5.9,16.3c-3.9,6-9.3,11.8-16.1,17.4
		c-6.8,5.6-14.8,10.2-24.1,13.9c-9.3,3.7-19.2,5.5-29.8,5.5c-18.8,0-35.7-4.8-50.7-14.5s-26.8-22.9-35.5-39.8s-13.1-36.1-13.1-57.6
		c0-22.1,4.3-41.5,13.1-58.2c8.7-16.8,20.5-29.9,35.3-39.4s31.4-14.3,49.6-14.3c11.7,0,22.5,1.9,32.5,5.7
		c9.9,3.8,18.6,8.7,25.9,14.7s13.1,12.3,17.2,19s6.1,13,6.1,19l-12.7,1.2v-37.2c0-5.7,1.9-10.6,5.7-14.7
		C1453.4,315.5,1458.3,313.5,1464.3,313.5z M1381,498.1c12.8,0,24-3.3,33.7-9.8s17.2-15.5,22.7-26.8c5.4-11.3,8.2-23.9,8.2-37.8
		c0-14.2-2.7-26.8-8.2-38c-5.4-11.2-13-20-22.7-26.6c-9.7-6.5-20.9-9.8-33.7-9.8c-12.5,0-23.7,3.3-33.5,9.8s-17.4,15.4-22.9,26.6
		c-5.4,11.2-8.2,23.8-8.2,38c0,13.9,2.7,26.5,8.2,37.8c5.4,11.3,13,20.2,22.7,26.8C1357,494.9,1368.2,498.1,1381,498.1z"/>
	<path class="st1" d="M1528.9,498.1c-2.4-3.8-3.5-8.2-3.3-13.3c0.3-5,3.1-9.3,8.6-12.9c3.8-2.5,7.8-3.5,12.1-3.1
		c4.2,0.4,8.2,2.5,12.1,6.3c7.6,8.5,16.1,15.1,25.5,20s20.8,7.4,34.1,7.4c5.4-0.3,11-1.2,16.8-2.7c5.7-1.5,10.6-4.2,14.7-8.2
		s6.1-9.7,6.1-17.4c0-6.8-2.2-12.3-6.5-16.3c-4.4-4.1-10.1-7.4-17.2-10s-14.7-5-22.9-7.1c-8.7-2.5-17.5-5.2-26.3-8.2
		s-16.8-6.9-23.9-11.6c-7.1-4.8-12.9-11-17.4-18.6s-6.7-17-6.7-28.2c0-12.8,3.6-23.8,10.8-33.1c7.2-9.3,16.6-16.5,28.2-21.6
		c11.6-5.2,24.2-7.8,37.8-7.8c7.9,0,16.2,1,24.9,3.1c8.7,2,17.2,5.2,25.3,9.6c8.2,4.4,15.2,10.1,21.2,17.2c2.7,3.5,4.3,7.8,4.7,12.7
		c0.4,4.9-1.8,9.3-6.7,13.1c-3.3,2.7-7.2,4-11.8,3.7c-4.6-0.3-8.4-1.8-11.4-4.5c-5.2-6.5-11.8-11.6-20-15.3s-17.4-5.5-27.8-5.5
		c-5.2,0-10.6,0.8-16.1,2.2s-10.3,4.2-14.1,8c-3.8,3.8-5.7,9.4-5.7,16.8c0,6.8,2.2,12.3,6.7,16.3c4.5,4.1,10.4,7.5,17.8,10.2
		c7.3,2.7,15.4,5.2,24.1,7.4c8.4,2.2,16.8,4.8,25.1,7.8c8.3,3,15.8,6.9,22.5,11.6c6.7,4.8,12.1,10.9,16.3,18.4
		c4.2,7.5,6.3,17,6.3,28.4c0,13.4-3.9,24.7-11.6,34.1c-7.8,9.4-17.6,16.5-29.4,21.5s-24.3,7.3-37.4,7.3c-15.5,0-31-2.8-46.4-8.4
		C1552.5,521.8,1539.5,512,1528.9,498.1z"/>
	<path class="st1" d="M1724.2,498.1c-2.4-3.8-3.5-8.2-3.3-13.3c0.3-5,3.1-9.3,8.6-12.9c3.8-2.5,7.8-3.5,12.1-3.1
		c4.2,0.4,8.2,2.5,12.1,6.3c7.6,8.5,16.1,15.1,25.5,20s20.8,7.4,34.1,7.4c5.4-0.3,11-1.2,16.8-2.7c5.7-1.5,10.6-4.2,14.7-8.2
		s6.1-9.7,6.1-17.4c0-6.8-2.2-12.3-6.5-16.3c-4.4-4.1-10.1-7.4-17.2-10s-14.7-5-22.9-7.1c-8.7-2.5-17.5-5.2-26.3-8.2
		s-16.8-6.9-23.9-11.6c-7.1-4.8-12.9-11-17.4-18.6s-6.7-17-6.7-28.2c0-12.8,3.6-23.8,10.8-33.1c7.2-9.3,16.6-16.5,28.2-21.6
		c11.6-5.2,24.2-7.8,37.8-7.8c7.9,0,16.2,1,24.9,3.1c8.7,2,17.2,5.2,25.3,9.6c8.2,4.4,15.2,10.1,21.2,17.2c2.7,3.5,4.3,7.8,4.7,12.7
		c0.4,4.9-1.8,9.3-6.7,13.1c-3.3,2.7-7.2,4-11.8,3.7c-4.6-0.3-8.4-1.8-11.4-4.5c-5.2-6.5-11.8-11.6-20-15.3s-17.4-5.5-27.8-5.5
		c-5.2,0-10.6,0.8-16.1,2.2s-10.3,4.2-14.1,8c-3.8,3.8-5.7,9.4-5.7,16.8c0,6.8,2.2,12.3,6.7,16.3c4.5,4.1,10.4,7.5,17.8,10.2
		c7.3,2.7,15.4,5.2,24.1,7.4c8.4,2.2,16.8,4.8,25.1,7.8c8.3,3,15.8,6.9,22.5,11.6c6.7,4.8,12.1,10.9,16.3,18.4
		c4.2,7.5,6.3,17,6.3,28.4c0,13.4-3.9,24.7-11.6,34.1c-7.8,9.4-17.6,16.5-29.4,21.5s-24.3,7.3-37.4,7.3c-15.5,0-31-2.8-46.4-8.4
		C1747.8,521.8,1734.8,512,1724.2,498.1z"/>
	<path class="st1" d="M2062,245.6c25.1,0,44.1,6.1,57,18.4s19.4,30.1,19.4,53.5c0,12.3-2.9,23.4-8.8,33.3
		c-5.9,10-14.4,17.8-25.7,23.5s-25.4,8.7-42.3,9l0.8-15.1c9,0,18.7,1.2,29.2,3.7s20.4,6.7,29.6,12.7c9.3,6,16.9,14.1,22.9,24.3
		c6,10.2,9,23,9,38.2c0,16.6-2.7,30.4-8.2,41.5c-5.4,11-12.7,19.7-21.6,25.9c-9,6.3-18.9,10.7-29.6,13.3s-21.3,3.9-31.7,3.9h-104.6
		c-5.7,0-10.6-2-14.7-5.9s-6.1-8.9-6.1-14.9V266.5c0-6,2-11,6.1-14.9s9-5.9,14.7-5.9L2062,245.6L2062,245.6z M2056.3,285.7h-80.5
		l4.9-6.5V367l-4.5-4.5h80.9c9.8-0.3,18.4-3.6,25.9-10s11.2-15.9,11.2-28.4c0-12.8-3.4-22.4-10.2-28.8
		C2077.3,288.9,2068,285.7,2056.3,285.7z M2059.2,402.5h-81.3l2.9-2.9V496l-3.3-3.7h84.2c14.2,0,25.6-3.7,34.3-11.2
		s13.1-18.9,13.1-34.1c0-12.8-2.6-22.3-7.8-28.6c-5.2-6.3-11.6-10.5-19.2-12.7C2074.4,403.6,2066.8,402.5,2059.2,402.5z"/>
	<path class="st1" d="M2216.9,288.1c-7.9,0-13.6-1.4-17.2-4.3c-3.5-2.9-5.3-7.7-5.3-14.5v-6.5c0-6.8,1.9-11.6,5.7-14.3
		s9.5-4.1,17.2-4.1c8.2,0,14,1.4,17.6,4.3c3.5,2.9,5.3,7.6,5.3,14.1v6.5c0,7.1-1.8,12-5.5,14.7S2225.1,288.1,2216.9,288.1z
		 M2237.7,510.8c0,6-1.9,11-5.7,14.9c-3.8,4-8.7,5.9-14.7,5.9c-5.7,0-10.6-2-14.5-5.9c-3.9-4-5.9-8.9-5.9-14.9V335.9
		c0-6,2-11,5.9-14.9c3.9-4,8.8-5.9,14.5-5.9c6,0,10.9,2,14.7,5.9c3.8,4,5.7,8.9,5.7,14.9V510.8z"/>
	<path class="st1" d="M2290,319.2h96c5.4,0,10,1.8,13.7,5.5s5.5,8.2,5.5,13.7c0,5.2-1.8,9.5-5.5,13.1c-3.7,3.5-8.2,5.3-13.7,5.3h-96
		c-5.4,0-10-1.8-13.7-5.5s-5.5-8.1-5.5-13.3c0-5.5,1.8-9.9,5.5-13.5C2280,321,2284.6,319.2,2290,319.2z M2332.9,266.1
		c6,0,10.9,2,14.7,5.9c3.8,4,5.7,8.9,5.7,14.9v189.6c0,4.9,0.8,8.9,2.4,11.9s3.9,5,6.7,6.1s5.8,1.6,8.8,1.6s5.6-0.5,8-1.6
		c2.3-1.1,5.1-1.6,8.4-1.6s6.3,1.5,9,4.5s4.1,7.1,4.1,12.3c0,6.5-3.5,11.8-10.6,15.9s-14.7,6.1-22.9,6.1c-4.6,0-10.1-0.4-16.3-1.2
		c-6.3-0.8-12.3-2.9-18.2-6.1c-5.9-3.3-10.7-8.5-14.5-15.7s-5.7-17.4-5.7-30.4V286.9c0-6,2-11,5.9-14.9
		C2322.3,268.1,2327.2,266.1,2332.9,266.1z"/>
</g>
<path class="st1" d="M391.6,0C175.3,0,0,175.3,0,391.6s175.3,391.6,391.6,391.6s391.6-175.3,391.6-391.6S607.9,0,391.6,0z
	 M646.6,555.5c-21.1,0-38.2-16.6-38.2-37c0-13.4,7.4-25.2,18.4-31.7L519.2,251.7L411.6,487c10.9,6.5,18.2,18.2,18.2,31.5
	c0,20.4-17.1,37-38.2,37s-38.2-16.6-38.2-37c0-13.5,7.5-25.4,18.7-31.8l-107.6-235L156.8,487.1c10.8,6.5,18,18.1,18,31.4
	c0,20.4-17.1,37-38.2,37c-21.1,0-38.2-16.6-38.2-37c0-20.4,17.1-37,38.2-37c0.3,0,0.6,0,0.9,0l117.4-256.7c0.8-2.7,2.7-5,5.4-6.2
	c1.1-0.5,2.3-0.8,3.5-0.9c0.1,0,0.1,0,0.2,0c0.2,0,0.4,0,0.6,0c0.2,0,0.4,0,0.6,0c0.1,0,0.1,0,0.2,0c1.2,0.1,2.3,0.4,3.4,0.9
	c2.7,1.2,4.5,3.5,5.4,6.1l117.7,256.8c0.1,0,0.3,0,0.4,0l117.4-256.7c0.8-2.7,2.7-5,5.4-6.2c1.1-0.5,2.3-0.8,3.5-0.9
	c0.1,0,0.1,0,0.2,0c0.2,0,0.4,0,0.6,0c0.2,0,0.4,0,0.6,0c0.1,0,0.1,0,0.2,0c1.2,0.1,2.3,0.4,3.4,0.9c2.7,1.2,4.5,3.5,5.4,6.1
	l117.5,256.8c0.1,0,0.3,0,0.4,0c21.1,0,38.2,16.6,38.2,37C684.8,538.9,667.7,555.5,646.6,555.5z"/>
</svg>
