<?xml version="1.0" encoding="utf-8"?>
<!-- Generator: Adobe Illustrator 23.1.1, SVG Export Plug-In . SVG Version: 6.00 Build 0)  -->
<svg version="1.1" id="Layer_1" xmlns="http://www.w3.org/2000/svg" xmlns:xlink="http://www.w3.org/1999/xlink" x="0px" y="0px"
	 viewBox="0 0 878 632" style="enable-background:new 0 0 878 632;" xml:space="preserve">
<style type="text/css">
	.st0{fill:#3A9FFF;}
	.st1{fill:#6BCAD0;}
	.st2{fill:#2C3ACF;}
	.st3{fill:#FFFFFF;}
	.st4{fill:#3A3E42;}
	.st5{opacity:0.28;fill:#68B9FC;}
</style>
<g id="bg">
	<g>
		<rect x="-6.4" class="st0" width="890.7" height="632"/>
	</g>
</g>
<g id="cloud">
	<path class="st0" d="M41.6,302.2c17,122.1,137.8,130.3,222.3,212.7c84.4,82.4,174.8,94.7,246.7,54.3
		c72-40.4,146.8-179.4,107.9-330.1c-19.7-76.3-66.9-177.8-212.4-209C244.1-4.7,21.7,159.6,41.6,302.2z"/>
</g>
<g id="m">
	<g>
		<path class="st1" d="M238.4,421.7c-0.2,0-0.4-0.1-0.6-0.2l-103.3-74.1c-0.4-0.3-0.6-0.9-0.2-1.4c0.3-0.4,0.9-0.6,1.4-0.2
			l103.4,74.1c0.4,0.3,0.6,0.9,0.2,1.4C239.1,421.6,238.8,421.7,238.4,421.7z"/>
	</g>
	<g>
		<path class="st1" d="M237.5,422.1l-1-120.7c0-0.6,0.4-1,1-1l0,0c0.5,0,1,0.4,1,1l1,118.1l163.6-47.6c0.5-0.2,1.1,0.2,1.2,0.7
			c0.2,0.5-0.2,1.1-0.7,1.2L237.5,422.1z"/>
	</g>
	<g>
		<path class="st1" d="M537.4,429.3c-0.1,0-0.3,0-0.4-0.1l-134.1-55.6c0,0,0,0-0.1,0s-0.2-0.1-0.3-0.2l0,0c-0.1-0.1-0.2-0.2-0.2-0.4
			l0,0l0,0c0-0.1-0.1-0.3,0-0.4l0,0c0-0.1,0-0.2,0.1-0.3c0,0,0,0,0-0.1L478,233.6l-82.9-132.3c-0.3-0.5-0.2-1.1,0.3-1.4
			s1.1-0.2,1.4,0.3l81.1,129.3l28.3-111.4c0.1-0.5,0.7-0.9,1.2-0.7c0.5,0.1,0.9,0.7,0.7,1.2l-28.5,112.3c-0.1,0.3-0.2,0.5-0.4,0.6
			l1.2,1.9l-0.3,0.5L404.7,372l133.1,55.2c0.5,0.2,0.8,0.8,0.5,1.3C538.2,429.1,537.8,429.3,537.4,429.3z"/>
	</g>
	<g>
		<path class="st1" d="M236.6,303.1L226.2,185c0-0.6,0.4-1,0.9-1.1c0.6,0,1,0.4,1.1,0.9l10.1,114.6l123.4-87.2
			c0.5-0.3,1.1-0.2,1.4,0.2c0.3,0.5,0.2,1.1-0.2,1.4L236.6,303.1z"/>
	</g>
	<g id="logo_10_">
		<g>
			<g>
				<g>
					
						<ellipse transform="matrix(0.979 -0.2041 0.2041 0.979 -80.8468 57.4842)" class="st2" cx="238.3" cy="420.7" rx="42.9" ry="42.9"/>
				</g>
			</g>
		</g>
		<g>
			<g>
				<g>
					<g>
						<g>
							<path class="st3" d="M264.8,434.3l-13.2-30.8c-0.2-0.5,0-1.2,0.6-1.4c0.5-0.2,1.2,0,1.4,0.6l13.2,30.8c0.2,0.5,0,1.2-0.6,1.4
								c-0.1,0-0.3,0.1-0.4,0.1C265.4,435,265,434.7,264.8,434.3z"/>
						</g>
					</g>
				</g>
				<g>
					<g>
						<g>
							<path class="st3" d="M237.5,434.2c-0.6-0.2-0.7-0.9-0.5-1.4l14.7-30.1c0.2-0.6,0.9-0.7,1.4-0.5c0.6,0.2,0.7,0.9,0.5,1.4
								l-14.7,30.1c-0.1,0.5-0.5,0.7-1,0.6C237.9,434.4,237.7,434.3,237.5,434.2z"/>
						</g>
					</g>
				</g>
				<g>
					<g>
						<g>
							<path class="st3" d="M237,433.7l-13.2-30.8c-0.2-0.5,0-1.2,0.6-1.4c0.5-0.2,1.2,0,1.4,0.6l13.2,30.8c0.2,0.5,0,1.2-0.6,1.4
								c-0.1,0-0.3,0.1-0.4,0.1C237.6,434.3,237.1,434.1,237,433.7z"/>
						</g>
					</g>
				</g>
				<g>
					<g>
						<g>
							<path class="st3" d="M209.6,433.6c-0.6-0.2-0.7-0.9-0.5-1.4l14.7-30.1c0.2-0.6,0.9-0.7,1.4-0.5c0.6,0.2,0.7,0.9,0.5,1.4
								L211,433.1c-0.1,0.5-0.5,0.7-1,0.6C210,433.7,209.9,433.6,209.6,433.6z"/>
						</g>
					</g>
				</g>
			</g>
			<g>
				<g>
					<g>
						
							<ellipse transform="matrix(2.308089e-02 -0.9997 0.9997 2.308089e-02 -175.4356 690.9696)" class="st3" cx="265.8" cy="435.3" rx="4.1" ry="4.2"/>
					</g>
				</g>
			</g>
			<g>
				<g>
					<g>
						
							<ellipse transform="matrix(2.308089e-02 -0.9997 0.9997 2.308089e-02 -202.132 662.4573)" class="st3" cx="237.9" cy="434.7" rx="4.1" ry="4.2"/>
					</g>
				</g>
			</g>
			<g>
				<g>
					<g>
						
							<ellipse transform="matrix(2.308089e-02 -0.9997 0.9997 2.308089e-02 -228.6212 633.9552)" class="st3" cx="210.1" cy="434" rx="4.1" ry="4.2"/>
					</g>
				</g>
			</g>
		</g>
	</g>
	<g id="logo_9_">
		<g>
			<g>
				<g>
					<ellipse class="st2" cx="406.2" cy="372.6" rx="42.9" ry="42.9"/>
				</g>
			</g>
		</g>
		<g>
			<g>
				<g>
					<g>
						<g>
							<path class="st3" d="M432.7,386.2l-13.2-30.8c-0.2-0.5,0-1.2,0.6-1.4c0.5-0.2,1.2,0,1.4,0.6l13.2,30.8c0.2,0.5,0,1.2-0.6,1.4
								c-0.1,0-0.3,0.1-0.4,0.1C433.3,386.9,432.9,386.6,432.7,386.2z"/>
						</g>
					</g>
				</g>
				<g>
					<g>
						<g>
							<path class="st3" d="M405.4,386.1c-0.6-0.2-0.7-0.9-0.5-1.4l14.7-30.1c0.2-0.6,0.9-0.7,1.4-0.5c0.6,0.2,0.7,0.9,0.5,1.4
								l-14.7,30.1c-0.1,0.5-0.5,0.7-1,0.6C405.8,386.3,405.7,386.2,405.4,386.1z"/>
						</g>
					</g>
				</g>
				<g>
					<g>
						<g>
							<path class="st3" d="M404.9,385.6l-13.2-30.8c-0.2-0.5,0-1.2,0.6-1.4c0.5-0.2,1.2,0,1.4,0.6l13.2,30.8c0.2,0.5,0,1.2-0.6,1.4
								c-0.1,0-0.3,0.1-0.4,0.1C405.6,386.2,405.1,386,404.9,385.6z"/>
						</g>
					</g>
				</g>
				<g>
					<g>
						<g>
							<path class="st3" d="M377.6,385.5c-0.6-0.2-0.7-0.9-0.5-1.4l14.7-30.1c0.2-0.6,0.9-0.7,1.4-0.5c0.6,0.2,0.7,0.9,0.5,1.4
								L379,385c-0.1,0.5-0.5,0.7-1,0.6C377.9,385.6,377.8,385.5,377.6,385.5z"/>
						</g>
					</g>
				</g>
			</g>
			<g>
				<g>
					<g>
						
							<ellipse transform="matrix(2.308089e-02 -0.9997 0.9997 2.308089e-02 36.6772 811.8876)" class="st3" cx="433.8" cy="387.2" rx="4.1" ry="4.2"/>
					</g>
				</g>
			</g>
			<g>
				<g>
					<g>
						
							<ellipse transform="matrix(2.308089e-02 -0.9997 0.9997 2.308089e-02 9.9807 783.3753)" class="st3" cx="405.8" cy="386.6" rx="4.1" ry="4.2"/>
					</g>
				</g>
			</g>
			<g>
				<g>
					<g>
						
							<ellipse transform="matrix(2.308089e-02 -0.9997 0.9997 2.308089e-02 -16.4062 754.7778)" class="st3" cx="378" cy="385.8" rx="4.1" ry="4.2"/>
					</g>
				</g>
			</g>
		</g>
	</g>
	<g id="logo_8_">
		<g>
			<g>
				<g>
					<ellipse class="st2" cx="358.4" cy="223.1" rx="36.9" ry="36.9"/>
				</g>
			</g>
		</g>
		<g>
			<g>
				<g>
					<g>
						<g>
							<path class="st3" d="M382.4,232.1l-14.3-25c-0.2-0.4-0.1-1,0.4-1.3c0.4-0.2,1-0.1,1.3,0.4l14.3,25c0.2,0.4,0.1,1-0.4,1.3
								c-0.1,0-0.3,0.1-0.3,0.1C382.9,232.6,382.6,232.4,382.4,232.1z"/>
						</g>
					</g>
				</g>
				<g>
					<g>
						<g>
							<path class="st3" d="M359,234.7c-0.5-0.1-0.7-0.7-0.6-1.2l9.6-27.2c0.1-0.5,0.7-0.7,1.2-0.6c0.5,0.1,0.7,0.7,0.6,1.2
								l-9.6,27.2c-0.1,0.4-0.4,0.6-0.8,0.6C359.3,234.8,359.2,234.7,359,234.7z"/>
						</g>
					</g>
				</g>
				<g>
					<g>
						<g>
							<path class="st3" d="M358.5,234.3l-14.3-25c-0.2-0.4-0.1-1,0.4-1.3c0.4-0.2,1-0.1,1.3,0.4l14.3,25c0.2,0.4,0.1,1-0.4,1.3
								c-0.1,0-0.3,0.1-0.3,0.1C359.1,234.7,358.7,234.6,358.5,234.3z"/>
						</g>
					</g>
				</g>
				<g>
					<g>
						<g>
							<path class="st3" d="M335.1,236.9c-0.5-0.1-0.7-0.7-0.6-1.2l9.6-27.2c0.1-0.5,0.7-0.7,1.2-0.6c0.5,0.1,0.7,0.7,0.6,1.2
								l-9.6,27.2c-0.1,0.4-0.4,0.6-0.8,0.6C335.4,236.9,335.3,236.9,335.1,236.9z"/>
						</g>
					</g>
				</g>
			</g>
			<g>
				<g>
					<g>
						
							<ellipse transform="matrix(0.9959 -9.018096e-02 9.018096e-02 0.9959 -19.4312 35.5186)" class="st3" cx="383.3" cy="232.8" rx="3.6" ry="3.5"/>
					</g>
				</g>
			</g>
			<g>
				<g>
					<g>
						
							<ellipse transform="matrix(0.9959 -9.018096e-02 9.018096e-02 0.9959 -19.7271 33.3725)" class="st3" cx="359.4" cy="235" rx="3.6" ry="3.5"/>
					</g>
				</g>
			</g>
			<g>
				<g>
					<g>
						
							<ellipse transform="matrix(0.9959 -9.018096e-02 9.018096e-02 0.9959 -20.0139 31.2259)" class="st3" cx="335.5" cy="237.1" rx="3.6" ry="3.5"/>
					</g>
				</g>
			</g>
		</g>
	</g>
	<g id="logo_7_">
		<g>
			<g>
				<g>
					
						<ellipse transform="matrix(0.9669 -0.255 0.255 0.9669 -39.0935 64.2501)" class="st2" cx="228.2" cy="182.9" rx="32.9" ry="32.9"/>
				</g>
			</g>
		</g>
		<g>
			<g>
				<g>
					<g>
						<g>
							<path class="st3" d="M249.2,192.3l-11.4-23.1c-0.2-0.4-0.1-0.9,0.4-1.1c0.4-0.2,0.9-0.1,1.1,0.4l11.4,23.1
								c0.2,0.4,0.1,0.9-0.4,1.1c-0.1,0-0.2,0.1-0.3,0.1C249.7,192.8,249.4,192.6,249.2,192.3z"/>
						</g>
					</g>
				</g>
				<g>
					<g>
						<g>
							<path class="st3" d="M228.3,193.3c-0.5-0.1-0.6-0.7-0.5-1.1l10.1-23.7c0.1-0.5,0.7-0.6,1.1-0.5c0.5,0.1,0.6,0.7,0.5,1.1
								l-10.1,23.7c-0.1,0.4-0.4,0.5-0.7,0.5C228.5,193.4,228.4,193.4,228.3,193.3z"/>
						</g>
					</g>
				</g>
				<g>
					<g>
						<g>
							<path class="st3" d="M227.8,192.9l-11.3-23.1c-0.2-0.4-0.1-0.9,0.4-1.1c0.4-0.2,0.9-0.1,1.1,0.4l11.4,23.1
								c0.2,0.4,0.1,0.9-0.4,1.1c-0.1,0-0.2,0.1-0.3,0.1C228.4,193.4,228,193.2,227.8,192.9z"/>
						</g>
					</g>
				</g>
				<g>
					<g>
						<g>
							<path class="st3" d="M206.9,194c-0.5-0.1-0.6-0.7-0.5-1.1l10.1-23.7c0.1-0.5,0.7-0.6,1.1-0.5c0.5,0.1,0.6,0.7,0.5,1.1
								L208,193.5c-0.1,0.4-0.4,0.5-0.7,0.5C207.1,194,207,194,206.9,194z"/>
						</g>
					</g>
				</g>
			</g>
			<g>
				<g>
					<g>
						
							<ellipse transform="matrix(0.9996 -2.922564e-02 2.922564e-02 0.9996 -5.5339 7.3906)" class="st3" cx="250.1" cy="193" rx="3.2" ry="3.1"/>
					</g>
				</g>
			</g>
			<g>
				<g>
					<g>
						
							<ellipse transform="matrix(0.9996 -2.922564e-02 2.922564e-02 0.9996 -5.5605 6.7654)" class="st3" cx="228.7" cy="193.6" rx="3.2" ry="3.1"/>
					</g>
				</g>
			</g>
			<g>
				<g>
					<g>
						
							<ellipse transform="matrix(0.9996 -2.922564e-02 2.922564e-02 0.9996 -5.5872 6.1402)" class="st3" cx="207.3" cy="194.2" rx="3.2" ry="3.1"/>
					</g>
				</g>
			</g>
		</g>
	</g>
	<g id="logo_6_">
		<g>
			<g>
				<g>
					<ellipse class="st2" cx="238.1" cy="296.3" rx="37.9" ry="37.9"/>
				</g>
			</g>
		</g>
		<g>
			<g>
				<g>
					<g>
						<g>
							<path class="st3" d="M261.6,308.3l-11.7-27.2c-0.2-0.4,0-1.1,0.5-1.3c0.4-0.2,1.1,0,1.3,0.5l11.7,27.2c0.2,0.4,0,1.1-0.5,1.3
								c-0.1,0-0.3,0.1-0.4,0.1C262.1,308.9,261.8,308.6,261.6,308.3z"/>
						</g>
					</g>
				</g>
				<g>
					<g>
						<g>
							<path class="st3" d="M237.4,308.2c-0.5-0.2-0.7-0.8-0.5-1.3l13-26.7c0.2-0.5,0.8-0.7,1.3-0.5s0.7,0.8,0.5,1.3l-13,26.7
								c-0.1,0.4-0.5,0.6-0.8,0.6C237.7,308.3,237.6,308.3,237.4,308.2z"/>
						</g>
					</g>
				</g>
				<g>
					<g>
						<g>
							<path class="st3" d="M236.9,307.7l-11.7-27.2c-0.2-0.4,0-1.1,0.5-1.3c0.4-0.2,1.1,0,1.3,0.5l11.7,27.2c0.2,0.4,0,1.1-0.5,1.3
								c-0.1,0-0.3,0.1-0.4,0.1C237.5,308.3,237.1,308.1,236.9,307.7z"/>
						</g>
					</g>
				</g>
				<g>
					<g>
						<g>
							<path class="st3" d="M212.7,307.6c-0.5-0.2-0.7-0.8-0.5-1.3l13-26.7c0.2-0.5,0.8-0.7,1.3-0.5s0.7,0.8,0.5,1.3l-13,26.7
								c-0.1,0.4-0.5,0.6-0.8,0.6C213.1,307.8,213,307.7,212.7,307.6z"/>
						</g>
					</g>
				</g>
			</g>
			<g>
				<g>
					<g>
						
							<ellipse transform="matrix(2.308089e-02 -0.9997 0.9997 2.308089e-02 -52.7173 564.3959)" class="st3" cx="262.4" cy="309.2" rx="3.6" ry="3.7"/>
					</g>
				</g>
			</g>
			<g>
				<g>
					<g>
						
							<ellipse transform="matrix(2.308089e-02 -0.9997 0.9997 2.308089e-02 -76.1356 539.1818)" class="st3" cx="237.8" cy="308.5" rx="3.6" ry="3.7"/>
					</g>
				</g>
			</g>
			<g>
				<g>
					<g>
						
							<ellipse transform="matrix(2.308089e-02 -0.9997 0.9997 2.308089e-02 -99.663 513.8676)" class="st3" cx="213.1" cy="307.9" rx="3.6" ry="3.7"/>
					</g>
				</g>
			</g>
		</g>
	</g>
	<g id="logo_5_">
		<g>
			<g>
				<g>
					<ellipse class="st2" cx="131.4" cy="341.1" rx="34" ry="34"/>
				</g>
			</g>
		</g>
		<g>
			<g>
				<g>
					<g>
						<g>
							<path class="st3" d="M154.8,344.8l-17.6-19.9c-0.3-0.3-0.3-0.9,0.1-1.2c0.3-0.3,0.9-0.3,1.2,0.1l17.6,19.9
								c0.3,0.3,0.3,0.9-0.1,1.2c-0.1,0-0.2,0.1-0.3,0.2C155.4,345.1,155,345,154.8,344.8z"/>
						</g>
					</g>
				</g>
				<g>
					<g>
						<g>
							<path class="st3" d="M134.2,351.5c-0.5,0-0.8-0.5-0.7-0.9l3.6-26.3c0-0.5,0.5-0.8,0.9-0.7c0.5,0,0.8,0.5,0.7,0.9l-3.6,26.3
								c0,0.4-0.2,0.6-0.6,0.7C134.5,351.5,134.4,351.5,134.2,351.5z"/>
						</g>
					</g>
				</g>
				<g>
					<g>
						<g>
							<path class="st3" d="M133.6,351.2L116,331.3c-0.3-0.3-0.3-0.9,0.1-1.2c0.3-0.3,0.9-0.3,1.2,0.1l17.6,19.9
								c0.3,0.3,0.3,0.9-0.1,1.2c-0.1,0-0.2,0.1-0.3,0.2C134.3,351.5,133.9,351.5,133.6,351.2z"/>
						</g>
					</g>
				</g>
				<g>
					<g>
						<g>
							<path class="st3" d="M113.1,357.9c-0.5,0-0.8-0.5-0.7-0.9l3.6-26.3c0-0.5,0.5-0.8,0.9-0.7c0.5,0,0.8,0.5,0.7,0.9l-3.6,26.3
								c0,0.4-0.2,0.6-0.6,0.7C113.4,357.9,113.3,357.9,113.1,357.9z"/>
						</g>
					</g>
				</g>
			</g>
			<g>
				<g>
					<g>
						
							<ellipse transform="matrix(0.9567 -0.291 0.291 0.9567 -93.7174 60.2577)" class="st3" cx="155.7" cy="345.2" rx="3.3" ry="3.2"/>
					</g>
				</g>
			</g>
			<g>
				<g>
					<g>
						
							<ellipse transform="matrix(0.9567 -0.291 0.291 0.9567 -96.518 54.403)" class="st3" cx="134.6" cy="351.7" rx="3.3" ry="3.2"/>
					</g>
				</g>
			</g>
			<g>
				<g>
					<g>
						
							<ellipse transform="matrix(0.9567 -0.291 0.291 0.9567 -99.274 48.5025)" class="st3" cx="113.4" cy="358" rx="3.3" ry="3.2"/>
					</g>
				</g>
			</g>
		</g>
	</g>
	<g id="logo_4_">
		<g>
			<g>
				<g>
					<ellipse class="st2" cx="395.7" cy="100.5" rx="34" ry="34"/>
				</g>
			</g>
		</g>
		<g>
			<g>
				<g>
					<g>
						<g>
							<path class="st3" d="M418.5,106.4L403,84.9c-0.3-0.4-0.2-0.9,0.2-1.2c0.4-0.3,0.9-0.2,1.2,0.2l15.5,21.5
								c0.3,0.4,0.2,0.9-0.2,1.2c-0.1,0-0.2,0.1-0.3,0.1C419.1,106.8,418.8,106.6,418.5,106.4z"/>
						</g>
					</g>
				</g>
				<g>
					<g>
						<g>
							<path class="st3" d="M397.4,111c-0.5-0.1-0.7-0.6-0.6-1l6.1-25.8c0.1-0.5,0.6-0.7,1-0.6c0.5,0.1,0.7,0.6,0.6,1l-6.1,25.8
								c0,0.4-0.3,0.6-0.6,0.7C397.7,111.1,397.6,111,397.4,111z"/>
						</g>
					</g>
				</g>
				<g>
					<g>
						<g>
							<path class="st3" d="M396.9,110.7l-15.5-21.5c-0.3-0.4-0.2-0.9,0.2-1.2c0.4-0.3,0.9-0.2,1.2,0.2l15.5,21.5
								c0.3,0.4,0.2,0.9-0.2,1.2c-0.1,0-0.2,0.1-0.3,0.1C397.5,111.1,397.1,111,396.9,110.7z"/>
						</g>
					</g>
				</g>
				<g>
					<g>
						<g>
							<path class="st3" d="M375.7,115.3c-0.5-0.1-0.7-0.6-0.6-1l6.1-25.8c0.1-0.5,0.6-0.7,1-0.6c0.5,0.1,0.7,0.6,0.6,1l-6.1,25.8
								c0,0.4-0.3,0.6-0.6,0.7C376,115.4,375.9,115.4,375.7,115.3z"/>
						</g>
					</g>
				</g>
			</g>
			<g>
				<g>
					<g>
						
							<ellipse transform="matrix(0.9807 -0.1955 0.1955 0.9807 -12.809 84.0651)" class="st3" cx="419.4" cy="106.9" rx="3.3" ry="3.2"/>
					</g>
				</g>
			</g>
			<g>
				<g>
					<g>
						
							<ellipse transform="matrix(0.9807 -0.1955 0.1955 0.9807 -14.0831 79.9293)" class="st3" cx="397.9" cy="111.3" rx="3.3" ry="3.2"/>
					</g>
				</g>
			</g>
			<g>
				<g>
					<g>
						
							<ellipse transform="matrix(0.9807 -0.1955 0.1955 0.9807 -15.3241 75.7663)" class="st3" cx="376.1" cy="115.5" rx="3.3" ry="3.2"/>
					</g>
				</g>
			</g>
		</g>
	</g>
	<g id="logo_3_">
		<g>
			<g>
				<g>
					<ellipse class="st2" cx="535.8" cy="421.7" rx="34" ry="34"/>
				</g>
			</g>
		</g>
		<g>
			<g>
				<g>
					<g>
						<g>
							<path class="st3" d="M558,429.6l-13.5-22.8c-0.2-0.4-0.1-0.9,0.3-1.2c0.4-0.2,0.9-0.1,1.2,0.3l13.6,22.8
								c0.2,0.4,0.1,0.9-0.3,1.2c-0.1,0-0.2,0.1-0.3,0.1C558.6,430,558.2,429.9,558,429.6z"/>
						</g>
					</g>
				</g>
				<g>
					<g>
						<g>
							<path class="st3" d="M536.6,432.4c-0.5-0.1-0.7-0.7-0.6-1.1l8.4-25.2c0.1-0.5,0.7-0.7,1.1-0.6c0.5,0.1,0.7,0.7,0.6,1.1
								l-8.4,25.2c0,0.4-0.3,0.6-0.7,0.6C536.9,432.4,536.8,432.4,536.6,432.4z"/>
						</g>
					</g>
				</g>
				<g>
					<g>
						<g>
							<path class="st3" d="M536.1,432l-13.6-22.8c-0.2-0.4-0.1-0.9,0.3-1.2c0.4-0.2,0.9-0.1,1.2,0.3l13.6,22.8
								c0.2,0.4,0.1,0.9-0.3,1.2c-0.1,0-0.2,0.1-0.3,0.1C536.7,432.4,536.3,432.3,536.1,432z"/>
						</g>
					</g>
				</g>
				<g>
					<g>
						<g>
							<path class="st3" d="M514.6,434.8c-0.5-0.1-0.7-0.7-0.6-1.1l8.4-25.2c0.1-0.5,0.7-0.7,1.1-0.6c0.5,0.1,0.7,0.7,0.6,1.1
								l-8.4,25.2c0,0.4-0.3,0.6-0.7,0.6C514.9,434.8,514.8,434.8,514.6,434.8z"/>
						</g>
					</g>
				</g>
			</g>
			<g>
				<g>
					<g>
						
							<ellipse transform="matrix(0.9941 -0.1085 0.1085 0.9941 -43.3743 63.1868)" class="st3" cx="559" cy="430.2" rx="3.3" ry="3.2"/>
					</g>
				</g>
			</g>
			<g>
				<g>
					<g>
						
							<ellipse transform="matrix(0.9941 -0.1085 0.1085 0.9941 -43.7652 60.814)" class="st3" cx="537" cy="432.6" rx="3.3" ry="3.2"/>
					</g>
				</g>
			</g>
			<g>
				<g>
					<g>
						
							<ellipse transform="matrix(0.9941 -0.1085 0.1085 0.9941 -44.1559 58.4421)" class="st3" cx="515" cy="435" rx="3.3" ry="3.2"/>
					</g>
				</g>
			</g>
		</g>
	</g>
	<g id="logo_2_">
		<g>
			<g>
				<g>
					<ellipse transform="matrix(0.975 -0.222 0.222 0.975 -39.7106 112.114)" class="st2" cx="478.8" cy="232.7" rx="34" ry="34"/>
				</g>
			</g>
		</g>
		<g>
			<g>
				<g>
					<g>
						<g>
							<path class="st3" d="M500.1,243l-10.9-24.2c-0.2-0.4,0-0.9,0.4-1.1c0.4-0.2,0.9,0,1.1,0.4l10.9,24.2c0.2,0.4,0,0.9-0.4,1.1
								c-0.1,0-0.2,0.1-0.3,0.1C500.6,243.5,500.3,243.4,500.1,243z"/>
						</g>
					</g>
				</g>
				<g>
					<g>
						<g>
							<path class="st3" d="M478.5,243.4c-0.5-0.2-0.6-0.7-0.4-1.1l11.2-24.1c0.2-0.5,0.7-0.6,1.1-0.4c0.5,0.2,0.6,0.7,0.4,1.1
								L479.6,243c-0.1,0.4-0.4,0.5-0.8,0.5C478.8,243.5,478.7,243.4,478.5,243.4z"/>
						</g>
					</g>
				</g>
				<g>
					<g>
						<g>
							<path class="st3" d="M478,242.9l-10.9-24.2c-0.2-0.4,0-0.9,0.4-1.1c0.4-0.2,0.9,0,1.1,0.4l10.9,24.2c0.2,0.4,0,0.9-0.4,1.1
								c-0.1,0-0.2,0.1-0.3,0.1C478.6,243.4,478.2,243.3,478,242.9z"/>
						</g>
					</g>
				</g>
				<g>
					<g>
						<g>
							<path class="st3" d="M456.4,243.3c-0.5-0.2-0.6-0.7-0.4-1.1l11.2-24.1c0.2-0.5,0.7-0.6,1.1-0.4c0.5,0.2,0.6,0.7,0.4,1.1
								l-11.2,24c-0.1,0.4-0.4,0.5-0.8,0.5C456.7,243.4,456.6,243.3,456.4,243.3z"/>
						</g>
					</g>
				</g>
			</g>
			<g>
				<g>
					<g>
						
							<ellipse transform="matrix(4.717662e-03 -1 1 4.717662e-03 254.8272 743.5632)" class="st3" cx="501" cy="243.8" rx="3.2" ry="3.3"/>
					</g>
				</g>
			</g>
			<g>
				<g>
					<g>
						
							<ellipse transform="matrix(4.717662e-03 -1 1 4.717662e-03 232.9161 721.3889)" class="st3" cx="478.9" cy="243.7" rx="3.2" ry="3.3"/>
					</g>
				</g>
			</g>
			<g>
				<g>
					<g>
						
							<ellipse transform="matrix(4.717662e-03 -1 1 4.717662e-03 211.0736 699.1163)" class="st3" cx="456.7" cy="243.5" rx="3.2" ry="3.3"/>
					</g>
				</g>
			</g>
		</g>
	</g>
	<g id="logo_1_">
		<g>
			<g>
				<g>
					
						<ellipse transform="matrix(0.168 -0.9858 0.9858 0.168 308.9323 595.624)" class="st2" cx="507.3" cy="114.8" rx="30.2" ry="30.2"/>
				</g>
			</g>
		</g>
		<g>
			<g>
				<g>
					<g>
						<g>
							<path class="st3" d="M526.2,124l-9.7-21.5c-0.2-0.4,0-0.8,0.4-1s0.8,0,1,0.4l9.7,21.5c0.2,0.4,0,0.8-0.4,1
								c-0.1,0-0.2,0.1-0.3,0.1C526.7,124.5,526.4,124.3,526.2,124z"/>
						</g>
					</g>
				</g>
				<g>
					<g>
						<g>
							<path class="st3" d="M507,124.3c-0.4-0.1-0.5-0.7-0.4-1l10-21.4c0.1-0.4,0.7-0.5,1-0.4c0.4,0.1,0.5,0.7,0.4,1l-10,21.4
								c-0.1,0.3-0.4,0.5-0.7,0.5C507.3,124.4,507.2,124.3,507,124.3z"/>
						</g>
					</g>
				</g>
				<g>
					<g>
						<g>
							<path class="st3" d="M506.6,123.9l-9.7-21.5c-0.2-0.4,0-0.8,0.4-1s0.8,0,1,0.4l9.7,21.5c0.2,0.4,0,0.8-0.4,1
								c-0.1,0-0.2,0.1-0.3,0.1C507.1,124.3,506.7,124.2,506.6,123.9z"/>
						</g>
					</g>
				</g>
				<g>
					<g>
						<g>
							<path class="st3" d="M487.4,124.2c-0.4-0.1-0.5-0.7-0.4-1l10-21.4c0.1-0.4,0.7-0.5,1-0.4c0.4,0.1,0.5,0.7,0.4,1l-10,21.4
								c-0.1,0.3-0.4,0.5-0.7,0.5C487.6,124.3,487.5,124.2,487.4,124.2z"/>
						</g>
					</g>
				</g>
			</g>
			<g>
				<g>
					<g>
						
							<ellipse transform="matrix(4.717641e-03 -1 1 4.717641e-03 399.8402 651.0627)" class="st3" cx="527" cy="124.7" rx="2.9" ry="2.9"/>
					</g>
				</g>
			</g>
			<g>
				<g>
					<g>
						
							<ellipse transform="matrix(4.717728e-03 -1 1 4.717728e-03 380.3975 631.2716)" class="st3" cx="507.3" cy="124.5" rx="2.9" ry="2.9"/>
					</g>
				</g>
			</g>
			<g>
				<g>
					<g>
						
							<ellipse transform="matrix(4.717620e-03 -1 1 4.717620e-03 360.9045 611.4808)" class="st3" cx="487.6" cy="124.4" rx="2.9" ry="2.9"/>
					</g>
				</g>
			</g>
		</g>
	</g>
</g>
<g id="glass">
	<polygon class="st4" points="549.2,341 595.5,387.3 619.6,363.2 573.3,316.9 	"/>
	<path class="st4" d="M316.5,92c-70.3,70.3-70.3,184.3,0,254.5c70.3,70.3,184.2,70.3,254.5,0c70.3-70.3,70.3-184.2,0-254.5
		C500.7,21.7,386.8,21.7,316.5,92z M555,330.5c-61.4,61.5-161,61.5-222.4,0c-61.4-61.4-61.4-161,0-222.4c61.4-61.4,161-61.4,222.4,0
		C616.4,169.6,616.4,269.1,555,330.5z"/>
	<path class="st4" d="M831.8,536.8L651.1,356.1c-11.2-11.2-29.3-11.2-40.5,0l-11.1,11.1l0,0l-11.1,11.1c-11.2,11.2-11.2,29.3,0,40.4
		l180.7,180.7c11.2,11.2,29.3,11.2,40.5,0l11.1-11.1l0,0l11.1-11.1C843,566.1,843,548,831.8,536.8z"/>
	<path class="st5" d="M367.8,81.4c-30.6,58.2-21.4,131.9,27.5,180.8c51.9,52,131.6,59,191.3,21.4c25.9-57.8,15.3-128-32.2-175.5
		C503.9,57.5,427.5,48.7,367.8,81.4z"/>
</g>
</svg>
